<?xml version="1.0" encoding="UTF-8"?>
<svg xmlns="http://www.w3.org/2000/svg" xmlns:xlink="http://www.w3.org/1999/xlink"
     width="800" height="600" viewBox="0 -600 800 600">
<defs>
</defs>
<g>
<path d="M362.3174446503318,-195.87645765357507 L168.31157912549077,-220.798017435364 A24.8,24.8,0,0,1,159.2228453197082,-246.9266692052007 L295.8817323796767,-386.86847349373625" stroke-width="1" stroke="black" fill="hsl(45, 25%, 48%)" />
<path d="M437.6825553496682,-195.87645765357507 L631.6884208745092,-220.798017435364 A24.8,24.8,0,0,0,640.7771546802918,-246.9266692052007 L504.1182676203233,-386.86847349373625" stroke-width="1" stroke="black" fill="hsl(45, 25%, 48%)" />
<path d="M230.49530979940408,-300.0 A169.50469020059592,176.56738562562077,0,0,0,569.5046902005959,-300.0 A169.50469020059592,176.56738562562077,0,0,0,230.49530979940408,-300.0" stroke-width="1" stroke="black" fill="hsl(45, 25%, 48%)" />
<path d="M330.342,-344.1418464064052 A11.658,13.4,0,0,0,353.658,-344.1418464064052 A11.658,13.4,0,0,0,330.342,-344.1418464064052" stroke-width="1" stroke="black" fill="black" />
<path d="M446.342,-344.1418464064052 A11.658,13.4,0,0,0,469.658,-344.1418464064052 A11.658,13.4,0,0,0,446.342,-344.1418464064052" stroke-width="1" stroke="black" fill="black" />
<path d="M383.9,-305.3666666666667 L416.1,-305.3666666666667 L400.0,-283.9 Z" stroke-width="1" stroke="black" fill="black" />
<path d="M400.0,-283.9 L400.0,-259.75" stroke-width="2" stroke="black" fill="black" />
<path d="M367.8,-255.75 A32.2,32.2,30,0,0,400.0,-259.75 A32.2,32.2,150,0,0,432.2,-255.75" fill="none" stroke-width="2" stroke="black" />
<path d="M366.0,-273.9 L342.81778016906236,-267.6883429175395" stroke-width="1" stroke="black" fill="black" />
<path d="M360.0,-279.9 L336.0913272457981,-277.8082621740562" stroke-width="1" stroke="black" fill="black" />
<path d="M366.0,-285.9 L342.0913272457981,-287.9917378259438" stroke-width="1" stroke="black" fill="black" />
<path d="M434.0,-273.9 L457.18221983093764,-267.6883429175395" stroke-width="1" stroke="black" fill="black" />
<path d="M440.0,-279.9 L463.9086727542019,-277.80826217405615" stroke-width="1" stroke="black" fill="black" />
<path d="M434.0,-285.9 L457.9086727542019,-287.9917378259438" stroke-width="1" stroke="black" fill="black" />
</g>
</svg>