<?xml version="1.0" encoding="UTF-8"?>
<svg xmlns="http://www.w3.org/2000/svg" xmlns:xlink="http://www.w3.org/1999/xlink"
     width="800" height="600" viewBox="0 -600 800 600">
<defs>
</defs>
<g>
<path fill="hsl(45, 52%, 47%)" stroke="black" stroke-width="1" d="M389.3123116621557,-205.9868749033605 L185.24655167756907,-159.923813759825 A28.0,28.0,0,0,1,162.66200298421495,-185.2543479615776 L231.73668906452463,-382.72163067673193" />
<path fill="hsl(45, 52%, 47%)" stroke="black" stroke-width="1" d="M410.6876883378443,-205.9868749033605 L614.7534483224309,-159.923813759825 A28.0,28.0,0,0,0,637.337997015785,-185.2543479615776 L568.2633109354754,-382.72163067673193" />
<path fill="hsl(45, 52%, 47%)" stroke="black" stroke-width="1" d="M213.67329767314612,-300.0 A186.32670232685388,160.62646752314984,0,0,0,586.3267023268538,-300.0 A186.32670232685388,160.62646752314984,0,0,0,213.67329767314612,-300.0" />
<path fill="black" stroke="black" stroke-width="1" d="M328.39,-340.15661688078745 A11.610000000000001,12.9,0,0,0,351.61,-340.15661688078745 A11.610000000000001,12.9,0,0,0,328.39,-340.15661688078745" />
<path fill="black" stroke="black" stroke-width="1" d="M448.39,-340.15661688078745 A11.610000000000001,12.9,0,0,0,471.61,-340.15661688078745 A11.610000000000001,12.9,0,0,0,448.39,-340.15661688078745" />
<path fill="black" stroke="black" stroke-width="1" d="M386.8,-304.4 L413.2,-304.4 L400.0,-286.8 Z" />
<path fill="black" stroke="black" stroke-width="2" d="M400.0,-286.8 L400.0,-267.0" />
<path fill="none" stroke="black" stroke-width="2" d="M373.6,-263.0 A26.4,26.4,30,0,0,400.0,-267.0 A26.4,26.4,150,0,0,426.4,-263.0" />
<path fill="black" stroke="black" stroke-width="1" d="M366.0,-276.8 L353.4429642582421,-273.43535241366726" />
<path fill="black" stroke="black" stroke-width="1" d="M360.0,-282.8 L347.0494689248073,-281.66697534428044" />
<path fill="black" stroke="black" stroke-width="1" d="M366.0,-288.8 L353.0494689248073,-289.9330246557196" />
<path fill="black" stroke="black" stroke-width="1" d="M434.0,-276.8 L446.5570357417579,-273.43535241366726" />
<path fill="black" stroke="black" stroke-width="1" d="M440.0,-282.8 L452.9505310751927,-281.66697534428044" />
<path fill="black" stroke="black" stroke-width="1" d="M434.0,-288.8 L446.9505310751927,-289.9330246557196" />
</g>
</svg>