<?xml version="1.0" encoding="UTF-8"?>
<svg xmlns="http://www.w3.org/2000/svg" xmlns:xlink="http://www.w3.org/1999/xlink"
     width="800" height="600" viewBox="0 -600 800 600">
<defs>
</defs>
<g>
<path fill="hsl(45, 33%, 57%)" stroke="black" stroke-width="1" d="M313.3790873203575,-297.4791118847115 L220.20826273233592,-414.77888786739663 A28.0,28.0,0,0,1,233.05131359991253,-436.9878832396747 L381.1903959011622,-414.74260745033985" />
<path fill="hsl(45, 33%, 57%)" stroke="black" stroke-width="1" d="M486.6209126796425,-297.4791118847115 L579.7917372676641,-414.77888786739663 A28.0,28.0,0,0,0,566.9486864000875,-436.9878832396747 L418.8096040988378,-414.74260745033985" />
<path fill="hsl(45, 33%, 57%)" stroke="black" stroke-width="1" d="M249.1820965534927,-300.0 A150.8179034465073,198.44460979803594,0,0,0,550.8179034465073,-300.0 A150.8179034465073,198.44460979803594,0,0,0,249.1820965534927,-300.0" />
<path fill="black" stroke="black" stroke-width="1" d="M325.512,-349.611152449509 A7.488,14.4,0,0,0,340.488,-349.611152449509 A7.488,14.4,0,0,0,325.512,-349.611152449509" />
<path fill="black" stroke="black" stroke-width="1" d="M459.512,-349.611152449509 A7.488,14.4,0,0,0,474.488,-349.611152449509 A7.488,14.4,0,0,0,459.512,-349.611152449509" />
<path fill="black" stroke="black" stroke-width="1" d="M384.9,-305.03333333333336 L415.1,-305.03333333333336 L400.0,-284.9 Z" />
<path fill="black" stroke="black" stroke-width="2" d="M400.0,-284.9 L400.0,-262.25" />
<path fill="none" stroke="black" stroke-width="2" d="M369.8,-258.25 A30.200000000000003,30.200000000000003,30,0,0,400.0,-262.25 A30.200000000000003,30.200000000000003,150,0,0,430.2,-258.25" />
<path fill="black" stroke="black" stroke-width="1" d="M366.0,-274.9 L364.06814834742187,-274.38236190979495" />
<path fill="black" stroke="black" stroke-width="1" d="M360.0,-280.9 L358.0076106038165,-280.72568851450467" />
<path fill="black" stroke="black" stroke-width="1" d="M366.0,-286.9 L364.0076106038165,-287.0743114854953" />
<path fill="black" stroke="black" stroke-width="1" d="M434.0,-274.9 L435.93185165257813,-274.38236190979495" />
<path fill="black" stroke="black" stroke-width="1" d="M440.0,-280.9 L441.9923893961835,-280.72568851450467" />
<path fill="black" stroke="black" stroke-width="1" d="M434.0,-286.9 L435.9923893961835,-287.0743114854953" />
</g>
</svg>