<?xml version="1.0" encoding="UTF-8"?>
<svg xmlns="http://www.w3.org/2000/svg" xmlns:xlink="http://www.w3.org/1999/xlink"
     width="800" height="600" viewBox="0 -600 800 600">
<defs>
</defs>
<g>
<path fill="hsl(45, 44%, 44%)" stroke="black" stroke-width="1" d="M428.2047055592416,-179.99917559986193 L274.18481359843895,-120.25879662230025 A54.400000000000006,54.400000000000006,0,0,1,230.44095730800814,-160.7660516888986 L278.1890101632349,-318.91523268119613" />
<path fill="hsl(45, 44%, 44%)" stroke="black" stroke-width="1" d="M371.7952944407584,-179.99917559986193 L525.815186401561,-120.25879662230025 A54.400000000000006,54.400000000000006,0,0,0,569.5590426919919,-160.7660516888986 L521.8109898367651,-318.91523268119613" />
<path fill="hsl(45, 44%, 44%)" stroke="black" stroke-width="1" d="M244.29999999999998,-300.0 A155.70000000000002,192.22222222222223,0,0,0,555.7,-300.0 A155.70000000000002,192.22222222222223,0,0,0,244.29999999999998,-300.0" />
<path fill="black" stroke="black" stroke-width="1" d="M340.344,-348.05555555555554 A5.656000000000001,10.1,0,0,0,351.656,-348.05555555555554 A5.656000000000001,10.1,0,0,0,340.344,-348.05555555555554" />
<path fill="black" stroke="black" stroke-width="1" d="M448.344,-348.05555555555554 A5.656000000000001,10.1,0,0,0,459.656,-348.05555555555554 A5.656000000000001,10.1,0,0,0,448.344,-348.05555555555554" />
<path fill="black" stroke="black" stroke-width="1" d="M382.4,-305.8666666666667 L417.6,-305.8666666666667 L400.0,-282.4 Z" />
<path fill="black" stroke="black" stroke-width="2" d="M400.0,-282.4 L400.0,-256.0" />
<path fill="none" stroke="black" stroke-width="2" d="M364.8,-252.0 A35.2,35.2,30,0,0,400.0,-256.0 A35.2,35.2,150,0,0,435.2,-252.0" />
<path fill="black" stroke="black" stroke-width="1" d="M366.0,-272.4 L348.61333512679676,-267.7412571881546" />
<path fill="black" stroke="black" stroke-width="1" d="M360.0,-278.4 L342.06849543434856,-276.83119663054214" />
<path fill="black" stroke="black" stroke-width="1" d="M366.0,-284.4 L348.06849543434856,-285.9688033694578" />
<path fill="black" stroke="black" stroke-width="1" d="M434.0,-272.4 L451.38666487320324,-267.7412571881546" />
<path fill="black" stroke="black" stroke-width="1" d="M440.0,-278.4 L457.93150456565144,-276.83119663054214" />
<path fill="black" stroke="black" stroke-width="1" d="M434.0,-284.4 L451.93150456565144,-285.9688033694578" />
</g>
</svg>