<?xml version="1.0" encoding="UTF-8"?>
<svg xmlns="http://www.w3.org/2000/svg" xmlns:xlink="http://www.w3.org/1999/xlink"
     width="800" height="600" viewBox="0 -600 800 600">
<defs>
</defs>
<g>
<path fill="hsl(45, 29%, 37%)" stroke="black" stroke-width="1" d="M310.62706276799867,-267.78796788576966 L207.71164504527667,-431.5315991969069 A33.6,33.6,0,0,1,227.35724284471053,-466.46816988679956 L420.73596091053986,-463.5991283715012" />
<path fill="hsl(45, 29%, 37%)" stroke="black" stroke-width="1" d="M489.37293723200133,-267.78796788576966 L592.2883549547233,-431.5315991969069 A33.6,33.6,0,0,0,572.6427571552895,-466.46816988679956 L379.26403908946014,-463.5991283715012" />
<path fill="hsl(45, 29%, 37%)" stroke="black" stroke-width="1" d="M248.1931160981163,-300.0 A151.8068839018837,197.15179727517364,0,0,0,551.8068839018837,-300.0 A151.8068839018837,197.15179727517364,0,0,0,248.1931160981163,-300.0" />
<path fill="black" stroke="black" stroke-width="1" d="M338.615,-349.2879493187934 A8.385,12.9,0,0,0,355.385,-349.2879493187934 A8.385,12.9,0,0,0,338.615,-349.2879493187934" />
<path fill="black" stroke="black" stroke-width="1" d="M444.615,-349.2879493187934 A8.385,12.9,0,0,0,461.385,-349.2879493187934 A8.385,12.9,0,0,0,444.615,-349.2879493187934" />
<path fill="black" stroke="black" stroke-width="1" d="M380.7,-306.43333333333334 L419.3,-306.43333333333334 L400.0,-280.7 Z" />
<path fill="black" stroke="black" stroke-width="2" d="M400.0,-280.7 L400.0,-251.75" />
<path fill="none" stroke="black" stroke-width="2" d="M361.4,-247.75 A38.6,38.6,30,0,0,400.0,-251.75 A38.6,38.6,150,0,0,438.6,-247.75" />
<path fill="black" stroke="black" stroke-width="1" d="M366.0,-270.7 L319.6355603381247,-258.276685835079" />
<path fill="black" stroke="black" stroke-width="1" d="M360.0,-276.7 L312.1826544915962,-272.5165243481124" />
<path fill="black" stroke="black" stroke-width="1" d="M366.0,-282.7 L318.1826544915962,-286.8834756518876" />
<path fill="black" stroke="black" stroke-width="1" d="M434.0,-270.7 L480.3644396618753,-258.276685835079" />
<path fill="black" stroke="black" stroke-width="1" d="M440.0,-276.7 L487.8173455084038,-272.5165243481124" />
<path fill="black" stroke="black" stroke-width="1" d="M434.0,-282.7 L481.8173455084038,-286.8834756518876" />
</g>
</svg>