<?xml version="1.0" encoding="UTF-8"?>
<svg xmlns="http://www.w3.org/2000/svg" xmlns:xlink="http://www.w3.org/1999/xlink"
     width="800" height="600" viewBox="0 -600 800 600">
<defs>
</defs>
<g>
<path fill="hsl(45, 34%, 46%)" stroke="black" stroke-width="1" d="M356.6314710568771,-217.0550823936576 L101.44509304931307,-231.5902975410395 A3.2,3.2,0,0,1,100.57154086881542,-234.3209150852356 L299.93793454257906,-394.2721610119802" />
<path fill="hsl(45, 34%, 46%)" stroke="black" stroke-width="1" d="M443.3685289431229,-217.0550823936576 L698.5549069506869,-231.5902975410395 A3.2,3.2,0,0,0,699.4284591311846,-234.3209150852356 L500.06206545742094,-394.2721610119802" />
<path fill="hsl(45, 34%, 46%)" stroke="black" stroke-width="1" d="M205.03890131618567,-300.0 A194.96109868381433,153.5126761289877,0,0,0,594.9610986838143,-300.0 A194.96109868381433,153.5126761289877,0,0,0,205.03890131618567,-300.0" />
<path fill="black" stroke="black" stroke-width="1" d="M317.928,-338.37816903224694 A9.072000000000001,10.8,0,0,0,336.072,-338.37816903224694 A9.072000000000001,10.8,0,0,0,317.928,-338.37816903224694" />
<path fill="black" stroke="black" stroke-width="1" d="M463.928,-338.37816903224694 A9.072000000000001,10.8,0,0,0,482.072,-338.37816903224694 A9.072000000000001,10.8,0,0,0,463.928,-338.37816903224694" />
<path fill="black" stroke="black" stroke-width="1" d="M382.4,-305.8666666666667 L417.6,-305.8666666666667 L400.0,-282.4 Z" />
<path fill="black" stroke="black" stroke-width="2" d="M400.0,-282.4 L400.0,-256.0" />
<path fill="none" stroke="black" stroke-width="2" d="M364.8,-252.0 A35.2,35.2,30,0,0,400.0,-256.0 A35.2,35.2,150,0,0,435.2,-252.0" />
<path fill="black" stroke="black" stroke-width="1" d="M366.0,-272.4 L352.477038431953,-268.7765333685647" />
<path fill="black" stroke="black" stroke-width="1" d="M360.0,-278.4 L346.0532742267156,-277.17981960153276" />
<path fill="black" stroke="black" stroke-width="1" d="M366.0,-284.4 L352.0532742267156,-285.6201803984672" />
<path fill="black" stroke="black" stroke-width="1" d="M434.0,-272.4 L447.522961568047,-268.7765333685647" />
<path fill="black" stroke="black" stroke-width="1" d="M440.0,-278.4 L453.9467257732844,-277.17981960153276" />
<path fill="black" stroke="black" stroke-width="1" d="M434.0,-284.4 L447.9467257732844,-285.6201803984672" />
</g>
</svg>