<?xml version="1.0" encoding="UTF-8"?>
<svg xmlns="http://www.w3.org/2000/svg" xmlns:xlink="http://www.w3.org/1999/xlink"
     width="800" height="600" viewBox="0 -600 800 600">
<defs>
</defs>
<g>
<path fill="hsl(45, 41%, 47%)" stroke="black" stroke-width="1" d="M329.22656880916395,-226.31113048886778 L187.8863594954488,-299.574936226457 A41.6,41.6,0,0,1,185.5274841127275,-351.5214058555741 L319.6459057162655,-437.2937148286667" />
<path fill="hsl(45, 41%, 47%)" stroke="black" stroke-width="1" d="M470.77343119083605,-226.31113048886778 L612.1136405045512,-299.574936226457 A41.6,41.6,0,0,0,614.4725158872725,-351.5214058555741 L480.3540942837345,-437.2937148286667" />
<path fill="hsl(45, 41%, 47%)" stroke="black" stroke-width="1" d="M236.79212641542077,-300.0 A163.20787358457923,183.3796332411003,0,0,0,563.2078735845793,-300.0 A163.20787358457923,183.3796332411003,0,0,0,236.79212641542077,-300.0" />
<path fill="black" stroke="black" stroke-width="1" d="M320.05,-345.84490831027506 A10.950000000000001,14.600000000000001,0,0,0,341.95,-345.84490831027506 A10.950000000000001,14.600000000000001,0,0,0,320.05,-345.84490831027506" />
<path fill="black" stroke="black" stroke-width="1" d="M458.05,-345.84490831027506 A10.950000000000001,14.600000000000001,0,0,0,479.95,-345.84490831027506 A10.950000000000001,14.600000000000001,0,0,0,458.05,-345.84490831027506" />
<path fill="black" stroke="black" stroke-width="1" d="M380.7,-306.43333333333334 L419.3,-306.43333333333334 L400.0,-280.7 Z" />
<path fill="black" stroke="black" stroke-width="2" d="M400.0,-280.7 L400.0,-251.75" />
<path fill="none" stroke="black" stroke-width="2" d="M361.4,-247.75 A38.6,38.6,30,0,0,400.0,-251.75 A38.6,38.6,150,0,0,438.6,-247.75" />
<path fill="black" stroke="black" stroke-width="1" d="M366.0,-270.7 L340.8859285164842,-263.97070482733443" />
<path fill="black" stroke="black" stroke-width="1" d="M360.0,-276.7 L334.09893784961463,-274.43395068856086" />
<path fill="black" stroke="black" stroke-width="1" d="M366.0,-282.7 L340.09893784961463,-284.9660493114391" />
<path fill="black" stroke="black" stroke-width="1" d="M434.0,-270.7 L459.1140714835158,-263.97070482733443" />
<path fill="black" stroke="black" stroke-width="1" d="M440.0,-276.7 L465.90106215038537,-274.43395068856086" />
<path fill="black" stroke="black" stroke-width="1" d="M434.0,-282.7 L459.90106215038537,-284.9660493114391" />
</g>
</svg>