<?xml version="1.0" encoding="UTF-8"?>
<svg xmlns="http://www.w3.org/2000/svg" xmlns:xlink="http://www.w3.org/1999/xlink"
     width="800" height="600" viewBox="0 -600 800 600">
<defs>
</defs>
<g>
<path fill="hsl(45, 36%, 52%)" stroke="black" stroke-width="1" d="M321.9658006644537,-261.5586333023673 L202.96996474568186,-341.58082418710086 A38.400000000000006,38.400000000000006,0,0,1,208.2210020247992,-384.8464244363706 L342.90431181493364,-434.0802142963302" />
<path fill="hsl(45, 36%, 52%)" stroke="black" stroke-width="1" d="M478.0341993355463,-261.5586333023673 L597.0300352543181,-341.58082418710086 A38.400000000000006,38.400000000000006,0,0,0,591.7789979752008,-384.8464244363706 L457.09568818506636,-434.0802142963302" />
<path fill="hsl(45, 36%, 52%)" stroke="black" stroke-width="1" d="M242.38949908080363,-300.0 A157.61050091919637,189.8921697821643,0,0,0,557.6105009191964,-300.0 A157.61050091919637,189.8921697821643,0,0,0,242.38949908080363,-300.0" />
<path fill="black" stroke="black" stroke-width="1" d="M322.85,-347.47304244554107 A12.15,13.5,0,0,0,347.15,-347.47304244554107 A12.15,13.5,0,0,0,322.85,-347.47304244554107" />
<path fill="black" stroke="black" stroke-width="1" d="M452.85,-347.47304244554107 A12.15,13.5,0,0,0,477.15,-347.47304244554107 A12.15,13.5,0,0,0,452.85,-347.47304244554107" />
<path fill="black" stroke="black" stroke-width="1" d="M387.5,-304.1666666666667 L412.5,-304.1666666666667 L400.0,-287.5 Z" />
<path fill="black" stroke="black" stroke-width="2" d="M400.0,-287.5 L400.0,-268.75" />
<path fill="none" stroke="black" stroke-width="2" d="M375.0,-264.75 A25.0,25.0,30,0,0,400.0,-268.75 A25.0,25.0,150,0,0,425.0,-264.75" />
<path fill="black" stroke="black" stroke-width="1" d="M366.0,-277.5 L339.92000269019513,-270.51188578223196" />
<path fill="black" stroke="black" stroke-width="1" d="M360.0,-283.5 L333.1027431515229,-281.1467949458132" />
<path fill="black" stroke="black" stroke-width="1" d="M366.0,-289.5 L339.1027431515229,-291.8532050541868" />
<path fill="black" stroke="black" stroke-width="1" d="M434.0,-277.5 L460.07999730980487,-270.51188578223196" />
<path fill="black" stroke="black" stroke-width="1" d="M440.0,-283.5 L466.8972568484771,-281.1467949458132" />
<path fill="black" stroke="black" stroke-width="1" d="M434.0,-289.5 L460.8972568484771,-291.8532050541868" />
</g>
</svg>