<?xml version="1.0" encoding="UTF-8"?>
<svg xmlns="http://www.w3.org/2000/svg" xmlns:xlink="http://www.w3.org/1999/xlink"
     width="800" height="600" viewBox="0 -600 800 600">
<defs>
</defs>
<g>
<path fill="hsl(45, 10%, 49%)" stroke="black" stroke-width="1" d="M353.47347522975326,-195.4270622710584 L183.65509691413013,-236.00881169431386 A32.800000000000004,32.800000000000004,0,0,1,175.38720953476513,-271.65064007677705 L309.99648696167833,-382.8509207895718" />
<path fill="hsl(45, 10%, 49%)" stroke="black" stroke-width="1" d="M446.52652477024674,-195.4270622710584 L616.3449030858699,-236.00881169431386 A32.800000000000004,32.800000000000004,0,0,0,624.6127904652349,-271.65064007677705 L490.00351303832167,-382.8509207895718" />
<path fill="hsl(45, 10%, 49%)" stroke="black" stroke-width="1" d="M236.79212641542077,-300.0 A163.20787358457923,183.3796332411003,0,0,0,563.2078735845793,-300.0 A163.20787358457923,183.3796332411003,0,0,0,236.79212641542077,-300.0" />
<path fill="black" stroke="black" stroke-width="1" d="M316.329,-345.84490831027506 A13.670999999999998,14.7,0,0,0,343.671,-345.84490831027506 A13.670999999999998,14.7,0,0,0,316.329,-345.84490831027506" />
<path fill="black" stroke="black" stroke-width="1" d="M456.329,-345.84490831027506 A13.670999999999998,14.7,0,0,0,483.671,-345.84490831027506 A13.670999999999998,14.7,0,0,0,456.329,-345.84490831027506" />
<path fill="black" stroke="black" stroke-width="1" d="M382.9,-305.7 L417.1,-305.7 L400.0,-282.9 Z" />
<path fill="black" stroke="black" stroke-width="2" d="M400.0,-282.9 L400.0,-257.25" />
<path fill="none" stroke="black" stroke-width="2" d="M365.8,-253.25 A34.2,34.2,30,0,0,400.0,-257.25 A34.2,34.2,150,0,0,434.2,-253.25" />
<path fill="black" stroke="black" stroke-width="1" d="M366.0,-272.9 L348.61333512679676,-268.2412571881546" />
<path fill="black" stroke="black" stroke-width="1" d="M360.0,-278.9 L342.06849543434856,-277.33119663054214" />
<path fill="black" stroke="black" stroke-width="1" d="M366.0,-284.9 L348.06849543434856,-286.4688033694578" />
<path fill="black" stroke="black" stroke-width="1" d="M434.0,-272.9 L451.38666487320324,-268.2412571881546" />
<path fill="black" stroke="black" stroke-width="1" d="M440.0,-278.9 L457.93150456565144,-277.33119663054214" />
<path fill="black" stroke="black" stroke-width="1" d="M434.0,-284.9 L451.93150456565144,-286.4688033694578" />
</g>
</svg>