<?xml version="1.0" encoding="UTF-8"?>
<svg xmlns="http://www.w3.org/2000/svg" xmlns:xlink="http://www.w3.org/1999/xlink"
     width="800" height="600" viewBox="0 -600 800 600">
<defs>
</defs>
<g>
<path fill="hsl(45, 54%, 60%)" stroke="black" stroke-width="1" d="M324.75304276488356,-215.93202165239245 L128.76843603305838,-337.0691089715609 A4.0,4.0,0,0,1,129.07303219971607,-341.7539329812459 L339.09343029112944,-436.4935360283575" />
<path fill="hsl(45, 54%, 60%)" stroke="black" stroke-width="1" d="M475.24695723511644,-215.93202165239245 L671.2315639669416,-337.0691089715609 A4.0,4.0,0,0,0,670.9269678002839,-341.7539329812459 L460.90656970887056,-436.4935360283575" />
<path fill="hsl(45, 54%, 60%)" stroke="black" stroke-width="1" d="M228.7387375966182,-300.0 A171.2612624033818,174.75639020753246,0,0,0,571.2612624033818,-300.0 A171.2612624033818,174.75639020753246,0,0,0,228.7387375966182,-300.0" />
<path fill="black" stroke="black" stroke-width="1" d="M324.864,-343.6890975518831 A6.136000000000001,11.8,0,0,0,337.136,-343.6890975518831 A6.136000000000001,11.8,0,0,0,324.864,-343.6890975518831" />
<path fill="black" stroke="black" stroke-width="1" d="M462.864,-343.6890975518831 A6.136000000000001,11.8,0,0,0,475.136,-343.6890975518831 A6.136000000000001,11.8,0,0,0,462.864,-343.6890975518831" />
<path fill="black" stroke="black" stroke-width="1" d="M384.6,-305.1333333333333 L415.4,-305.1333333333333 L400.0,-284.6 Z" />
<path fill="black" stroke="black" stroke-width="2" d="M400.0,-284.6 L400.0,-261.5" />
<path fill="none" stroke="black" stroke-width="2" d="M369.2,-257.5 A30.8,30.8,30,0,0,400.0,-261.5 A30.8,30.8,150,0,0,430.8,-257.5" />
<path fill="black" stroke="black" stroke-width="1" d="M366.0,-274.6 L339.92000269019513,-267.611885782232" />
<path fill="black" stroke="black" stroke-width="1" d="M360.0,-280.6 L333.1027431515229,-278.24679494581324" />
<path fill="black" stroke="black" stroke-width="1" d="M366.0,-286.6 L339.1027431515229,-288.9532050541868" />
<path fill="black" stroke="black" stroke-width="1" d="M434.0,-274.6 L460.07999730980487,-267.611885782232" />
<path fill="black" stroke="black" stroke-width="1" d="M440.0,-280.6 L466.8972568484771,-278.24679494581324" />
<path fill="black" stroke="black" stroke-width="1" d="M434.0,-286.6 L460.8972568484771,-288.9532050541868" />
</g>
</svg>