<?xml version="1.0" encoding="UTF-8"?>
<svg xmlns="http://www.w3.org/2000/svg" xmlns:xlink="http://www.w3.org/1999/xlink"
     width="800" height="600" viewBox="0 -600 800 600">
<defs>
</defs>
<g>
<path fill="hsl(45, 7%, 52%)" stroke="black" stroke-width="1" d="M413.7387971337166,-215.72727859962916 L176.78703040136008,-151.12681232875056 A11.200000000000001,11.200000000000001,0,0,1,170.22703891920946,-159.5991587291869 L292.0978122218406,-372.82878756772027" />
<path fill="hsl(45, 7%, 52%)" stroke="black" stroke-width="1" d="M386.2612028662834,-215.72727859962916 L623.2129695986399,-151.12681232875056 A11.200000000000001,11.200000000000001,0,0,0,629.7729610807905,-159.5991587291869 L507.9021877781594,-372.82878756772027" />
<path fill="hsl(45, 7%, 52%)" stroke="black" stroke-width="1" d="M245.26409595701455,-300.0 A154.73590404298545,193.41988005373182,0,0,0,554.7359040429855,-300.0 A154.73590404298545,193.41988005373182,0,0,0,245.26409595701455,-300.0" />
<path fill="black" stroke="black" stroke-width="1" d="M317.823,-348.35497001343293 A9.177,13.3,0,0,0,336.177,-348.35497001343293 A9.177,13.3,0,0,0,317.823,-348.35497001343293" />
<path fill="black" stroke="black" stroke-width="1" d="M463.823,-348.35497001343293 A9.177,13.3,0,0,0,482.177,-348.35497001343293 A9.177,13.3,0,0,0,463.823,-348.35497001343293" />
<path fill="black" stroke="black" stroke-width="1" d="M385.5,-304.8333333333333 L414.5,-304.8333333333333 L400.0,-285.5 Z" />
<path fill="black" stroke="black" stroke-width="2" d="M400.0,-285.5 L400.0,-263.75" />
<path fill="none" stroke="black" stroke-width="2" d="M371.0,-259.75 A29.0,29.0,30,0,0,400.0,-263.75 A29.0,29.0,150,0,0,429.0,-259.75" />
<path fill="black" stroke="black" stroke-width="1" d="M366.0,-275.5 L343.78370599535145,-269.547161962642" />
<path fill="black" stroke="black" stroke-width="1" d="M360.0,-281.5 L337.08752194388984,-279.4954179168039" />
<path fill="black" stroke="black" stroke-width="1" d="M366.0,-287.5 L343.08752194388984,-289.5045820831961" />
<path fill="black" stroke="black" stroke-width="1" d="M434.0,-275.5 L456.21629400464855,-269.547161962642" />
<path fill="black" stroke="black" stroke-width="1" d="M440.0,-281.5 L462.91247805611016,-279.49541791680383" />
<path fill="black" stroke="black" stroke-width="1" d="M434.0,-287.5 L456.91247805611016,-289.5045820831961" />
</g>
</svg>