<?xml version="1.0" encoding="UTF-8"?>
<svg xmlns="http://www.w3.org/2000/svg" xmlns:xlink="http://www.w3.org/1999/xlink"
     width="800" height="600" viewBox="0 -600 800 600">
<defs>
</defs>
<g>
<path fill="hsl(45, 41%, 44%)" stroke="black" stroke-width="1" d="M392.6654652727022,-205.19200857998214 L283.7955763196326,-145.8342181953469 A59.2,59.2,0,0,1,221.9236345139227,-184.34611013505742 L227.1162155763435,-308.23734106731587" />
<path fill="hsl(45, 41%, 44%)" stroke="black" stroke-width="1" d="M407.3345347272978,-205.19200857998214 L516.2044236803674,-145.8342181953469 A59.2,59.2,0,0,0,578.0763654860773,-184.34611013505742 L572.8837844236565,-308.23734106731587" />
<path fill="hsl(45, 41%, 44%)" stroke="black" stroke-width="1" d="M218.55606926656378,-300.0 A181.44393073343622,164.94902793948745,0,0,0,581.4439307334362,-300.0 A181.44393073343622,164.94902793948745,0,0,0,218.55606926656378,-300.0" />
<path fill="black" stroke="black" stroke-width="1" d="M317.035,-341.23725698487186 A10.965000000000002,12.9,0,0,0,338.965,-341.23725698487186 A10.965000000000002,12.9,0,0,0,317.035,-341.23725698487186" />
<path fill="black" stroke="black" stroke-width="1" d="M461.035,-341.23725698487186 A10.965000000000002,12.9,0,0,0,482.965,-341.23725698487186 A10.965000000000002,12.9,0,0,0,461.035,-341.23725698487186" />
<path fill="black" stroke="black" stroke-width="1" d="M389.1,-303.6333333333333 L410.9,-303.6333333333333 L400.0,-289.1 Z" />
<path fill="black" stroke="black" stroke-width="2" d="M400.0,-289.1 L400.0,-272.75" />
<path fill="none" stroke="black" stroke-width="2" d="M378.2,-268.75 A21.8,21.8,30,0,0,400.0,-272.75 A21.8,21.8,150,0,0,421.8,-268.75" />
<path fill="black" stroke="black" stroke-width="1" d="M366.0,-279.1 L343.78370599535145,-273.14716196264203" />
<path fill="black" stroke="black" stroke-width="1" d="M360.0,-285.1 L337.08752194388984,-283.0954179168039" />
<path fill="black" stroke="black" stroke-width="1" d="M366.0,-291.1 L343.08752194388984,-293.10458208319614" />
<path fill="black" stroke="black" stroke-width="1" d="M434.0,-279.1 L456.21629400464855,-273.14716196264203" />
<path fill="black" stroke="black" stroke-width="1" d="M440.0,-285.1 L462.91247805611016,-283.09541791680385" />
<path fill="black" stroke="black" stroke-width="1" d="M434.0,-291.1 L456.91247805611016,-293.10458208319614" />
</g>
</svg>