<?xml version="1.0" encoding="UTF-8"?>
<svg xmlns="http://www.w3.org/2000/svg" xmlns:xlink="http://www.w3.org/1999/xlink"
     width="800" height="600" viewBox="0 -600 800 600">
<defs>
</defs>
<g>
<path fill="hsl(45, 22%, 69%)" stroke="black" stroke-width="1" d="M410.8143492812239,-196.37339184908078 L207.77632829185904,-118.10895527203617 A7.2,7.2,0,0,1,202.88362535381873,-123.16136083233448 L287.6269619745623,-323.58173628948043" />
<path fill="hsl(45, 22%, 69%)" stroke="black" stroke-width="1" d="M389.1856507187761,-196.37339184908078 L592.223671708141,-118.10895527203617 A7.2,7.2,0,0,0,597.1163746461813,-123.16136083233448 L512.3730380254377,-323.58173628948043" />
<path fill="hsl(45, 22%, 69%)" stroke="black" stroke-width="1" d="M243.34183711022268,-300.0 A156.65816288977732,191.0465401094845,0,0,0,556.6581628897773,-300.0 A156.65816288977732,191.0465401094845,0,0,0,243.34183711022268,-300.0" />
<path fill="black" stroke="black" stroke-width="1" d="M309.702,-347.76163502737114 A12.298,14.3,0,0,0,334.298,-347.76163502737114 A12.298,14.3,0,0,0,309.702,-347.76163502737114" />
<path fill="black" stroke="black" stroke-width="1" d="M465.702,-347.76163502737114 A12.298,14.3,0,0,0,490.298,-347.76163502737114 A12.298,14.3,0,0,0,465.702,-347.76163502737114" />
<path fill="black" stroke="black" stroke-width="1" d="M380.0,-306.6666666666667 L420.0,-306.6666666666667 L400.0,-280.0 Z" />
<path fill="black" stroke="black" stroke-width="2" d="M400.0,-280.0 L400.0,-250.0" />
<path fill="none" stroke="black" stroke-width="2" d="M360.0,-246.0 A40.0,40.0,30,0,0,400.0,-250.0 A40.0,40.0,150,0,0,440.0,-246.0" />
<path fill="black" stroke="black" stroke-width="1" d="M366.0,-270.0 L323.499263643281,-258.6119620154891" />
<path fill="black" stroke="black" stroke-width="1" d="M360.0,-276.0 L316.1674332839632,-272.165147319103" />
<path fill="black" stroke="black" stroke-width="1" d="M366.0,-282.0 L322.1674332839632,-285.834852680897" />
<path fill="black" stroke="black" stroke-width="1" d="M434.0,-270.0 L476.500736356719,-258.6119620154891" />
<path fill="black" stroke="black" stroke-width="1" d="M440.0,-276.0 L483.8325667160368,-272.165147319103" />
<path fill="black" stroke="black" stroke-width="1" d="M434.0,-282.0 L477.8325667160368,-285.834852680897" />
</g>
</svg>