<?xml version="1.0" encoding="UTF-8"?>
<svg xmlns="http://www.w3.org/2000/svg" xmlns:xlink="http://www.w3.org/1999/xlink"
     width="800" height="600" viewBox="0 -600 800 600">
<defs>
</defs>
<g>
<path fill="hsl(45, 16%, 40%)" stroke="black" stroke-width="1" d="M307.18135077460545,-237.76007098613235 L150.67007836194364,-352.72903030894076 A22.400000000000002,22.400000000000002,0,0,1,155.30746181891925,-375.9368674051562 L343.9823009224622,-421.93083537109936" />
<path fill="hsl(45, 16%, 40%)" stroke="black" stroke-width="1" d="M492.81864922539455,-237.76007098613235 L649.3299216380564,-352.72903030894076 A22.400000000000002,22.400000000000002,0,0,0,644.6925381810807,-375.9368674051562 L456.0176990775378,-421.93083537109936" />
<path fill="hsl(45, 16%, 40%)" stroke="black" stroke-width="1" d="M219.3826973958475,-300.0 A180.6173026041525,165.7039473432592,0,0,0,580.6173026041525,-300.0 A180.6173026041525,165.7039473432592,0,0,0,219.3826973958475,-300.0" />
<path fill="black" stroke="black" stroke-width="1" d="M319.546,-341.4259868358148 A14.454,14.600000000000001,0,0,0,348.454,-341.4259868358148 A14.454,14.600000000000001,0,0,0,319.546,-341.4259868358148" />
<path fill="black" stroke="black" stroke-width="1" d="M451.546,-341.4259868358148 A14.454,14.600000000000001,0,0,0,480.454,-341.4259868358148 A14.454,14.600000000000001,0,0,0,451.546,-341.4259868358148" />
<path fill="black" stroke="black" stroke-width="1" d="M382.8,-305.73333333333335 L417.2,-305.73333333333335 L400.0,-282.8 Z" />
<path fill="black" stroke="black" stroke-width="2" d="M400.0,-282.8 L400.0,-257.0" />
<path fill="none" stroke="black" stroke-width="2" d="M365.6,-253.0 A34.4,34.4,30,0,0,400.0,-257.0 A34.4,34.4,150,0,0,434.4,-253.0" />
<path fill="black" stroke="black" stroke-width="1" d="M366.0,-272.8 L322.53333781699195,-261.15314297038657" />
<path fill="black" stroke="black" stroke-width="1" d="M360.0,-278.8 L315.17123858587144,-274.8779915763554" />
<path fill="black" stroke="black" stroke-width="1" d="M366.0,-284.8 L321.17123858587144,-288.72200842364464" />
<path fill="black" stroke="black" stroke-width="1" d="M434.0,-272.8 L477.46666218300805,-261.15314297038657" />
<path fill="black" stroke="black" stroke-width="1" d="M440.0,-278.8 L484.82876141412856,-274.8779915763554" />
<path fill="black" stroke="black" stroke-width="1" d="M434.0,-284.8 L478.82876141412856,-288.72200842364464" />
</g>
</svg>