<?xml version="1.0" encoding="UTF-8"?>
<svg xmlns="http://www.w3.org/2000/svg" xmlns:xlink="http://www.w3.org/1999/xlink"
     width="800" height="600" viewBox="0 -600 800 600">
<defs>
</defs>
<g>
<path fill="hsl(45, 10%, 36%)" stroke="black" stroke-width="1" d="M341.1514681594188,-243.22850583652638 L173.2296568820218,-329.52859446520785 A49.6,49.6,0,0,1,174.36804540700166,-383.87469505450986 L345.7564333540148,-463.06724822034806" />
<path fill="hsl(45, 10%, 36%)" stroke="black" stroke-width="1" d="M458.8485318405812,-243.22850583652638 L626.7703431179782,-329.52859446520785 A49.6,49.6,0,0,0,625.6319545929983,-383.87469505450986 L454.2435666459852,-463.06724822034806" />
<path fill="hsl(45, 10%, 36%)" stroke="black" stroke-width="1" d="M226.13715175460862,-300.0 A173.86284824539138,172.14143390632813,0,0,0,573.8628482453914,-300.0 A173.86284824539138,172.14143390632813,0,0,0,226.13715175460862,-300.0" />
<path fill="black" stroke="black" stroke-width="1" d="M319.9,-343.035358476582 A11.100000000000001,14.8,0,0,0,342.1,-343.035358476582 A11.100000000000001,14.8,0,0,0,319.9,-343.035358476582" />
<path fill="black" stroke="black" stroke-width="1" d="M457.9,-343.035358476582 A11.100000000000001,14.8,0,0,0,480.1,-343.035358476582 A11.100000000000001,14.8,0,0,0,457.9,-343.035358476582" />
<path fill="black" stroke="black" stroke-width="1" d="M382.0,-306.0 L418.0,-306.0 L400.0,-282.0 Z" />
<path fill="black" stroke="black" stroke-width="2" d="M400.0,-282.0 L400.0,-255.0" />
<path fill="none" stroke="black" stroke-width="2" d="M364.0,-251.0 A36.0,36.0,30,0,0,400.0,-255.0 A36.0,36.0,150,0,0,436.0,-251.0" />
<path fill="black" stroke="black" stroke-width="1" d="M366.0,-272.0 L359.2385192159765,-270.1882666842824" />
<path fill="black" stroke="black" stroke-width="1" d="M360.0,-278.0 L353.02663711335776,-277.3899098007664" />
<path fill="black" stroke="black" stroke-width="1" d="M366.0,-284.0 L359.02663711335776,-284.6100901992336" />
<path fill="black" stroke="black" stroke-width="1" d="M434.0,-272.0 L440.7614807840235,-270.1882666842824" />
<path fill="black" stroke="black" stroke-width="1" d="M440.0,-278.0 L446.97336288664224,-277.3899098007664" />
<path fill="black" stroke="black" stroke-width="1" d="M434.0,-284.0 L440.97336288664224,-284.6100901992336" />
</g>
</svg>