<?xml version="1.0" encoding="UTF-8"?>
<svg xmlns="http://www.w3.org/2000/svg" xmlns:xlink="http://www.w3.org/1999/xlink"
     width="800" height="600" viewBox="0 -600 800 600">
<defs>
</defs>
<g>
<path fill="hsl(45, 33%, 68%)" stroke="black" stroke-width="1" d="M331.28189700567077,-255.29778826632446 L150.6224066080489,-323.20322640843193 A39.2,39.2,0,0,1,150.97339959627175,-356.71936264256374 L333.0153725801588,-420.82646109611846" />
<path fill="hsl(45, 33%, 68%)" stroke="black" stroke-width="1" d="M468.71810299432923,-255.29778826632446 L649.3775933919511,-323.20322640843193 A39.2,39.2,0,0,0,649.0266004037283,-356.71936264256374 L466.9846274198412,-420.82646109611846" />
<path fill="hsl(45, 33%, 68%)" stroke="black" stroke-width="1" d="M211.27928041680212,-300.0 A188.72071958319788,158.58883998588055,0,0,0,588.7207195831979,-300.0 A188.72071958319788,158.58883998588055,0,0,0,211.27928041680212,-300.0" />
<path fill="black" stroke="black" stroke-width="1" d="M317.452,-339.6472099964701 A7.548000000000001,14.8,0,0,0,332.548,-339.6472099964701 A7.548000000000001,14.8,0,0,0,317.452,-339.6472099964701" />
<path fill="black" stroke="black" stroke-width="1" d="M467.452,-339.6472099964701 A7.548000000000001,14.8,0,0,0,482.548,-339.6472099964701 A7.548000000000001,14.8,0,0,0,467.452,-339.6472099964701" />
<path fill="black" stroke="black" stroke-width="1" d="M388.2,-303.93333333333334 L411.8,-303.93333333333334 L400.0,-288.2 Z" />
<path fill="black" stroke="black" stroke-width="2" d="M400.0,-288.2 L400.0,-270.5" />
<path fill="none" stroke="black" stroke-width="2" d="M376.4,-266.5 A23.6,23.6,30,0,0,400.0,-270.5 A23.6,23.6,150,0,0,423.6,-266.5" />
<path fill="black" stroke="black" stroke-width="1" d="M366.0,-278.2 L348.61333512679676,-273.5412571881546" />
<path fill="black" stroke="black" stroke-width="1" d="M360.0,-284.2 L342.06849543434856,-282.63119663054215" />
<path fill="black" stroke="black" stroke-width="1" d="M366.0,-290.2 L348.06849543434856,-291.7688033694578" />
<path fill="black" stroke="black" stroke-width="1" d="M434.0,-278.2 L451.38666487320324,-273.5412571881546" />
<path fill="black" stroke="black" stroke-width="1" d="M440.0,-284.2 L457.93150456565144,-282.63119663054215" />
<path fill="black" stroke="black" stroke-width="1" d="M434.0,-290.2 L451.93150456565144,-291.7688033694578" />
</g>
</svg>