<?xml version="1.0" encoding="UTF-8"?>
<svg xmlns="http://www.w3.org/2000/svg" xmlns:xlink="http://www.w3.org/1999/xlink"
     width="800" height="600" viewBox="0 -600 800 600">
<defs>
</defs>
<g>
<path fill="hsl(45, 35%, 45%)" stroke="black" stroke-width="1" d="M326.08323392655484,-235.82050461760912 L161.17368170999907,-266.83146377296345 A22.400000000000002,22.400000000000002,0,0,1,156.77297109346523,-287.8050260161548 L295.30969325807894,-382.48562916106835" />
<path fill="hsl(45, 35%, 45%)" stroke="black" stroke-width="1" d="M473.91676607344516,-235.82050461760912 L638.8263182900009,-266.83146377296345 A22.400000000000002,22.400000000000002,0,0,0,643.2270289065348,-287.8050260161548 L504.69030674192106,-382.48562916106835" />
<path fill="hsl(45, 35%, 45%)" stroke="black" stroke-width="1" d="M221.04740851275722,-300.0 A178.95259148724278,167.2454126048998,0,0,0,578.9525914872428,-300.0 A178.95259148724278,167.2454126048998,0,0,0,221.04740851275722,-300.0" />
<path fill="black" stroke="black" stroke-width="1" d="M310.235,-341.8113531512249 A9.764999999999999,10.5,0,0,0,329.765,-341.8113531512249 A9.764999999999999,10.5,0,0,0,310.235,-341.8113531512249" />
<path fill="black" stroke="black" stroke-width="1" d="M470.235,-341.8113531512249 A9.764999999999999,10.5,0,0,0,489.765,-341.8113531512249 A9.764999999999999,10.5,0,0,0,470.235,-341.8113531512249" />
<path fill="black" stroke="black" stroke-width="1" d="M386.9,-304.3666666666667 L413.1,-304.3666666666667 L400.0,-286.9 Z" />
<path fill="black" stroke="black" stroke-width="2" d="M400.0,-286.9 L400.0,-267.25" />
<path fill="none" stroke="black" stroke-width="2" d="M373.8,-263.25 A26.2,26.2,30,0,0,400.0,-267.25 A26.2,26.2,150,0,0,426.2,-263.25" />
<path fill="black" stroke="black" stroke-width="1" d="M366.0,-276.9 L326.3970411221482,-266.28841915079664" />
<path fill="black" stroke="black" stroke-width="1" d="M360.0,-282.9 L319.1560173782384,-279.326614547346" />
<path fill="black" stroke="black" stroke-width="1" d="M366.0,-288.9 L325.1560173782384,-292.473385452654" />
<path fill="black" stroke="black" stroke-width="1" d="M434.0,-276.9 L473.6029588778518,-266.28841915079664" />
<path fill="black" stroke="black" stroke-width="1" d="M440.0,-282.9 L480.8439826217616,-279.32661454734597" />
<path fill="black" stroke="black" stroke-width="1" d="M434.0,-288.9 L474.8439826217616,-292.473385452654" />
</g>
</svg>