<?xml version="1.0" encoding="UTF-8"?>
<svg xmlns="http://www.w3.org/2000/svg" xmlns:xlink="http://www.w3.org/1999/xlink"
     width="800" height="600" viewBox="0 -600 800 600">
<defs>
</defs>
<g>
<path fill="hsl(45, 28%, 31%)" stroke="black" stroke-width="1" d="M311.6086632869326,-268.3339249620402 L192.19633964850323,-392.68205306725537 A41.6,41.6,0,0,1,208.09963499270395,-427.32197770398994 L380.23749934921386,-417.8185228174872" />
<path fill="hsl(45, 28%, 31%)" stroke="black" stroke-width="1" d="M488.3913367130674,-268.3339249620402 L607.8036603514968,-392.68205306725537 A41.6,41.6,0,0,0,591.900365007296,-427.32197770398994 L419.76250065078614,-417.8185228174872" />
<path fill="hsl(45, 28%, 31%)" stroke="black" stroke-width="1" d="M224.4241759239046,-300.0 A175.5758240760954,170.46196512242273,0,0,0,575.5758240760954,-300.0 A175.5758240760954,170.46196512242273,0,0,0,224.4241759239046,-300.0" />
<path fill="black" stroke="black" stroke-width="1" d="M334.558,-342.6154912806057 A8.442,12.6,0,0,0,351.442,-342.6154912806057 A8.442,12.6,0,0,0,334.558,-342.6154912806057" />
<path fill="black" stroke="black" stroke-width="1" d="M448.558,-342.6154912806057 A8.442,12.6,0,0,0,465.442,-342.6154912806057 A8.442,12.6,0,0,0,448.558,-342.6154912806057" />
<path fill="black" stroke="black" stroke-width="1" d="M381.4,-306.2 L418.6,-306.2 L400.0,-281.4 Z" />
<path fill="black" stroke="black" stroke-width="2" d="M400.0,-281.4 L400.0,-253.5" />
<path fill="none" stroke="black" stroke-width="2" d="M362.8,-249.5 A37.2,37.2,30,0,0,400.0,-253.5 A37.2,37.2,150,0,0,437.2,-249.5" />
<path fill="black" stroke="black" stroke-width="1" d="M366.0,-271.4 L346.6814834742186,-266.22361909794955" />
<path fill="black" stroke="black" stroke-width="1" d="M360.0,-277.4 L340.0761060381651,-275.65688514504683" />
<path fill="black" stroke="black" stroke-width="1" d="M366.0,-283.4 L346.0761060381651,-285.1431148549531" />
<path fill="black" stroke="black" stroke-width="1" d="M434.0,-271.4 L453.3185165257814,-266.22361909794955" />
<path fill="black" stroke="black" stroke-width="1" d="M440.0,-277.4 L459.9238939618349,-275.65688514504683" />
<path fill="black" stroke="black" stroke-width="1" d="M434.0,-283.4 L453.9238939618349,-285.1431148549531" />
</g>
</svg>