<?xml version="1.0" encoding="UTF-8"?>
<svg xmlns="http://www.w3.org/2000/svg" xmlns:xlink="http://www.w3.org/1999/xlink"
     width="800" height="600" viewBox="0 -600 800 600">
<defs>
</defs>
<g>
<path fill="hsl(45, 3%, 54%)" stroke="black" stroke-width="1" d="M340.52701678953485,-184.9642956220708 L204.101952598175,-191.87529123654986 A45.6,45.6,0,0,1,185.24140490052605,-237.18484695609823 L276.467331977871,-338.85780417127387" />
<path fill="hsl(45, 3%, 54%)" stroke="black" stroke-width="1" d="M459.47298321046515,-184.9642956220708 L595.898047401825,-191.87529123654986 A45.6,45.6,0,0,0,614.758595099474,-237.18484695609823 L523.532668022129,-338.85780417127387" />
<path fill="hsl(45, 3%, 54%)" stroke="black" stroke-width="1" d="M206.58011994626818,-300.0 A193.41988005373182,154.73590404298545,0,0,0,593.4198800537318,-300.0 A193.41988005373182,154.73590404298545,0,0,0,206.58011994626818,-300.0" />
<path fill="black" stroke="black" stroke-width="1" d="M332.936,-338.6839760107464 A10.064,13.6,0,0,0,353.064,-338.6839760107464 A10.064,13.6,0,0,0,332.936,-338.6839760107464" />
<path fill="black" stroke="black" stroke-width="1" d="M446.936,-338.6839760107464 A10.064,13.6,0,0,0,467.064,-338.6839760107464 A10.064,13.6,0,0,0,446.936,-338.6839760107464" />
<path fill="black" stroke="black" stroke-width="1" d="M389.7,-303.43333333333334 L410.3,-303.43333333333334 L400.0,-289.7 Z" />
<path fill="black" stroke="black" stroke-width="2" d="M400.0,-289.7 L400.0,-274.25" />
<path fill="none" stroke="black" stroke-width="2" d="M379.4,-270.25 A20.6,20.6,30,0,0,400.0,-274.25 A20.6,20.6,150,0,0,420.6,-270.25" />
<path fill="black" stroke="black" stroke-width="1" d="M366.0,-279.7 L340.8859285164842,-272.97070482733443" />
<path fill="black" stroke="black" stroke-width="1" d="M360.0,-285.7 L334.09893784961463,-283.43395068856086" />
<path fill="black" stroke="black" stroke-width="1" d="M366.0,-291.7 L340.09893784961463,-293.9660493114391" />
<path fill="black" stroke="black" stroke-width="1" d="M434.0,-279.7 L459.1140714835158,-272.97070482733443" />
<path fill="black" stroke="black" stroke-width="1" d="M440.0,-285.7 L465.90106215038537,-283.43395068856086" />
<path fill="black" stroke="black" stroke-width="1" d="M434.0,-291.7 L459.90106215038537,-293.9660493114391" />
</g>
</svg>