<?xml version="1.0" encoding="UTF-8"?>
<svg xmlns="http://www.w3.org/2000/svg" xmlns:xlink="http://www.w3.org/1999/xlink"
     width="800" height="600" viewBox="0 -600 800 600">
<defs>
</defs>
<g>
<path fill="hsl(45, 25%, 60%)" stroke="black" stroke-width="1" d="M302.49349621548487,-297.4492820571612 L231.95859766725675,-421.61315799050647 A51.2,51.2,0,0,1,262.6039744112675,-462.4289676552145 L401.51636981956926,-429.3353670362488" />
<path fill="hsl(45, 25%, 60%)" stroke="black" stroke-width="1" d="M497.50650378451513,-297.4492820571612 L568.0414023327432,-421.61315799050647 A51.2,51.2,0,0,0,537.3960255887325,-462.4289676552145 L398.48363018043074,-429.3353670362488" />
<path fill="hsl(45, 25%, 60%)" stroke="black" stroke-width="1" d="M205.03890131618567,-300.0 A194.96109868381433,153.5126761289877,0,0,0,594.9610986838143,-300.0 A194.96109868381433,153.5126761289877,0,0,0,205.03890131618567,-300.0" />
<path fill="black" stroke="black" stroke-width="1" d="M311.35699999999997,-338.37816903224694 A8.643,12.9,0,0,0,328.64300000000003,-338.37816903224694 A8.643,12.9,0,0,0,311.35699999999997,-338.37816903224694" />
<path fill="black" stroke="black" stroke-width="1" d="M471.35699999999997,-338.37816903224694 A8.643,12.9,0,0,0,488.64300000000003,-338.37816903224694 A8.643,12.9,0,0,0,471.35699999999997,-338.37816903224694" />
<path fill="black" stroke="black" stroke-width="1" d="M387.5,-304.1666666666667 L412.5,-304.1666666666667 L400.0,-287.5 Z" />
<path fill="black" stroke="black" stroke-width="2" d="M400.0,-287.5 L400.0,-268.75" />
<path fill="none" stroke="black" stroke-width="2" d="M375.0,-264.75 A25.0,25.0,30,0,0,400.0,-268.75 A25.0,25.0,150,0,0,425.0,-264.75" />
<path fill="black" stroke="black" stroke-width="1" d="M366.0,-277.5 L326.3970411221482,-266.88841915079666" />
<path fill="black" stroke="black" stroke-width="1" d="M360.0,-283.5 L319.1560173782384,-279.92661454734605" />
<path fill="black" stroke="black" stroke-width="1" d="M366.0,-289.5 L325.1560173782384,-293.073385452654" />
<path fill="black" stroke="black" stroke-width="1" d="M434.0,-277.5 L473.6029588778518,-266.88841915079666" />
<path fill="black" stroke="black" stroke-width="1" d="M440.0,-283.5 L480.8439826217616,-279.926614547346" />
<path fill="black" stroke="black" stroke-width="1" d="M434.0,-289.5 L474.8439826217616,-293.073385452654" />
</g>
</svg>