<?xml version="1.0" encoding="UTF-8"?>
<svg xmlns="http://www.w3.org/2000/svg" xmlns:xlink="http://www.w3.org/1999/xlink"
     width="800" height="600" viewBox="0 -600 800 600">
<defs>
</defs>
<g>
<path fill="hsl(45, 12%, 74%)" stroke="black" stroke-width="1" d="M354.5567160676741,-205.82670597115515 L162.24491580351184,-222.11079265592093 A4.0,4.0,0,0,1,160.84973054202817,-226.0159823615068 L299.30737971292166,-360.47221831235356" />
<path fill="hsl(45, 12%, 74%)" stroke="black" stroke-width="1" d="M445.4432839323259,-205.82670597115515 L637.7550841964882,-222.11079265592093 A4.0,4.0,0,0,0,639.1502694579718,-226.0159823615068 L500.69262028707834,-360.47221831235356" />
<path fill="hsl(45, 12%, 74%)" stroke="black" stroke-width="1" d="M236.79212641542077,-300.0 A163.20787358457923,183.3796332411003,0,0,0,563.2078735845793,-300.0 A163.20787358457923,183.3796332411003,0,0,0,236.79212641542077,-300.0" />
<path fill="black" stroke="black" stroke-width="1" d="M324.808,-345.84490831027506 A7.191999999999999,12.4,0,0,0,339.192,-345.84490831027506 A7.191999999999999,12.4,0,0,0,324.808,-345.84490831027506" />
<path fill="black" stroke="black" stroke-width="1" d="M460.808,-345.84490831027506 A7.191999999999999,12.4,0,0,0,475.192,-345.84490831027506 A7.191999999999999,12.4,0,0,0,460.808,-345.84490831027506" />
<path fill="black" stroke="black" stroke-width="1" d="M384.9,-305.03333333333336 L415.1,-305.03333333333336 L400.0,-284.9 Z" />
<path fill="black" stroke="black" stroke-width="2" d="M400.0,-284.9 L400.0,-262.25" />
<path fill="none" stroke="black" stroke-width="2" d="M369.8,-258.25 A30.200000000000003,30.200000000000003,30,0,0,400.0,-262.25 A30.200000000000003,30.200000000000003,150,0,0,430.2,-258.25" />
<path fill="black" stroke="black" stroke-width="1" d="M366.0,-274.9 L321.56741199070285,-262.994323925284" />
<path fill="black" stroke="black" stroke-width="1" d="M360.0,-280.9 L314.1750438877797,-276.8908358336077" />
<path fill="black" stroke="black" stroke-width="1" d="M366.0,-286.9 L320.1750438877797,-290.90916416639226" />
<path fill="black" stroke="black" stroke-width="1" d="M434.0,-274.9 L478.43258800929715,-262.99432392528405" />
<path fill="black" stroke="black" stroke-width="1" d="M440.0,-280.9 L485.8249561122203,-276.8908358336077" />
<path fill="black" stroke="black" stroke-width="1" d="M434.0,-286.9 L479.8249561122203,-290.90916416639226" />
</g>
</svg>