<?xml version="1.0" encoding="UTF-8"?>
<svg xmlns="http://www.w3.org/2000/svg" xmlns:xlink="http://www.w3.org/1999/xlink"
     width="800" height="600" viewBox="0 -600 800 600">
<defs>
</defs>
<g>
<path fill="hsl(45, 7%, 72%)" stroke="black" stroke-width="1" d="M343.0138794873335,-221.0481730325092 L159.03402842868434,-238.43938933377066 A35.2,35.2,0,0,1,151.44730220166423,-267.5652799021218 L303.5629031068291,-372.50280398793495" />
<path fill="hsl(45, 7%, 72%)" stroke="black" stroke-width="1" d="M456.9861205126665,-221.0481730325092 L640.9659715713157,-238.43938933377066 A35.2,35.2,0,0,0,648.5526977983358,-267.5652799021218 L496.4370968931709,-372.50280398793495" />
<path fill="hsl(45, 7%, 72%)" stroke="black" stroke-width="1" d="M212.0738975022363,-300.0 A187.9261024977637,159.25940889640995,0,0,0,587.9261024977637,-300.0 A187.9261024977637,159.25940889640995,0,0,0,212.0738975022363,-300.0" />
<path fill="black" stroke="black" stroke-width="1" d="M314.3,-339.8148522241025 A7.7,10.0,0,0,0,329.7,-339.8148522241025 A7.7,10.0,0,0,0,314.3,-339.8148522241025" />
<path fill="black" stroke="black" stroke-width="1" d="M470.3,-339.8148522241025 A7.7,10.0,0,0,0,485.7,-339.8148522241025 A7.7,10.0,0,0,0,470.3,-339.8148522241025" />
<path fill="black" stroke="black" stroke-width="1" d="M387.3,-304.23333333333335 L412.7,-304.23333333333335 L400.0,-287.3 Z" />
<path fill="black" stroke="black" stroke-width="2" d="M400.0,-287.3 L400.0,-268.25" />
<path fill="none" stroke="black" stroke-width="2" d="M374.6,-264.25 A25.4,25.4,30,0,0,400.0,-268.25 A25.4,25.4,150,0,0,425.4,-264.25" />
<path fill="black" stroke="black" stroke-width="1" d="M366.0,-277.3 L344.7496318216405,-271.60598100774456" />
<path fill="black" stroke="black" stroke-width="1" d="M360.0,-283.3 L338.0837166419816,-281.38257365955155" />
<path fill="black" stroke="black" stroke-width="1" d="M366.0,-289.3 L344.0837166419816,-291.21742634044847" />
<path fill="black" stroke="black" stroke-width="1" d="M434.0,-277.3 L455.2503681783595,-271.60598100774456" />
<path fill="black" stroke="black" stroke-width="1" d="M440.0,-283.3 L461.9162833580184,-281.38257365955155" />
<path fill="black" stroke="black" stroke-width="1" d="M434.0,-289.3 L455.9162833580184,-291.21742634044847" />
</g>
</svg>