<?xml version="1.0" encoding="UTF-8"?>
<svg xmlns="http://www.w3.org/2000/svg" xmlns:xlink="http://www.w3.org/1999/xlink"
     width="800" height="600" viewBox="0 -600 800 600">
<defs>
</defs>
<g>
<path fill="hsl(45, 58%, 80%)" stroke="black" stroke-width="1" d="M364.9638041590724,-215.4082280077939 L135.96807678587038,-216.80710070325927 A10.4,10.4,0,0,1,130.48972437939528,-227.48974173550488 L262.9821670539228,-414.26969953113417" />
<path fill="hsl(45, 58%, 80%)" stroke="black" stroke-width="1" d="M435.0361958409276,-215.4082280077939 L664.0319232141296,-216.80710070325927 A10.4,10.4,0,0,0,669.5102756206047,-227.48974173550488 L537.0178329460772,-414.26969953113417" />
<path fill="hsl(45, 58%, 80%)" stroke="black" stroke-width="1" d="M219.3826973958475,-300.0 A180.6173026041525,165.7039473432592,0,0,0,580.6173026041525,-300.0 A180.6173026041525,165.7039473432592,0,0,0,219.3826973958475,-300.0" />
<path fill="black" stroke="black" stroke-width="1" d="M312.78,-341.4259868358148 A8.219999999999999,13.7,0,0,0,329.22,-341.4259868358148 A8.219999999999999,13.7,0,0,0,312.78,-341.4259868358148" />
<path fill="black" stroke="black" stroke-width="1" d="M470.78,-341.4259868358148 A8.219999999999999,13.7,0,0,0,487.22,-341.4259868358148 A8.219999999999999,13.7,0,0,0,470.78,-341.4259868358148" />
<path fill="black" stroke="black" stroke-width="1" d="M389.6,-303.46666666666664 L410.4,-303.46666666666664 L400.0,-289.6 Z" />
<path fill="black" stroke="black" stroke-width="2" d="M400.0,-289.6 L400.0,-274.0" />
<path fill="none" stroke="black" stroke-width="2" d="M379.2,-270.0 A20.8,20.8,30,0,0,400.0,-274.0 A20.8,20.8,150,0,0,420.8,-270.0" />
<path fill="black" stroke="black" stroke-width="1" d="M366.0,-279.6 L309.97630207523406,-264.58849538405383" />
<path fill="black" stroke="black" stroke-width="1" d="M360.0,-285.6 L302.2207075106788,-280.5449669206359" />
<path fill="black" stroke="black" stroke-width="1" d="M366.0,-291.6 L308.2207075106788,-296.6550330793642" />
<path fill="black" stroke="black" stroke-width="1" d="M434.0,-279.6 L490.02369792476594,-264.58849538405383" />
<path fill="black" stroke="black" stroke-width="1" d="M440.0,-285.6 L497.7792924893212,-280.54496692063583" />
<path fill="black" stroke="black" stroke-width="1" d="M434.0,-291.6 L491.7792924893212,-296.6550330793642" />
</g>
</svg>