<?xml version="1.0" encoding="UTF-8"?>
<svg xmlns="http://www.w3.org/2000/svg" xmlns:xlink="http://www.w3.org/1999/xlink"
     width="800" height="600" viewBox="0 -600 800 600">
<defs>
</defs>
<g>
<path fill="hsl(45, 22%, 32%)" stroke="black" stroke-width="1" d="M439.74153139582825,-182.80250993501159 L204.88725153428572,-97.69371349941248 A9.600000000000001,9.600000000000001,0,0,1,196.32095621871804,-105.2938807661348 L252.8535219278623,-348.61282580400336" />
<path fill="hsl(45, 22%, 32%)" stroke="black" stroke-width="1" d="M360.25846860417175,-182.80250993501159 L595.1127484657143,-97.69371349941248 A9.600000000000001,9.600000000000001,0,0,0,603.679043781282,-105.2938807661348 L547.1464780721377,-348.61282580400336" />
<path fill="hsl(45, 22%, 32%)" stroke="black" stroke-width="1" d="M231.38045783480493,-300.0 A168.61954216519507,177.49425491073166,0,0,0,568.6195421651951,-300.0 A168.61954216519507,177.49425491073166,0,0,0,231.38045783480493,-300.0" />
<path fill="black" stroke="black" stroke-width="1" d="M317.829,-344.3735637276829 A7.170999999999999,10.1,0,0,0,332.171,-344.3735637276829 A7.170999999999999,10.1,0,0,0,317.829,-344.3735637276829" />
<path fill="black" stroke="black" stroke-width="1" d="M467.829,-344.3735637276829 A7.170999999999999,10.1,0,0,0,482.171,-344.3735637276829 A7.170999999999999,10.1,0,0,0,467.829,-344.3735637276829" />
<path fill="black" stroke="black" stroke-width="1" d="M380.2,-306.6 L419.8,-306.6 L400.0,-280.2 Z" />
<path fill="black" stroke="black" stroke-width="2" d="M400.0,-280.2 L400.0,-250.5" />
<path fill="none" stroke="black" stroke-width="2" d="M360.4,-246.5 A39.6,39.6,30,0,0,400.0,-250.5 A39.6,39.6,150,0,0,439.6,-246.5" />
<path fill="black" stroke="black" stroke-width="1" d="M366.0,-270.2 L356.34074173710934,-267.6118095489748" />
<path fill="black" stroke="black" stroke-width="1" d="M360.0,-276.2 L350.03805301908255,-275.3284425725234" />
<path fill="black" stroke="black" stroke-width="1" d="M366.0,-282.2 L356.03805301908255,-283.0715574274766" />
<path fill="black" stroke="black" stroke-width="1" d="M434.0,-270.2 L443.65925826289066,-267.6118095489748" />
<path fill="black" stroke="black" stroke-width="1" d="M440.0,-276.2 L449.96194698091745,-275.3284425725234" />
<path fill="black" stroke="black" stroke-width="1" d="M434.0,-282.2 L443.96194698091745,-283.0715574274766" />
</g>
</svg>