<?xml version="1.0" encoding="UTF-8"?>
<svg xmlns="http://www.w3.org/2000/svg" xmlns:xlink="http://www.w3.org/1999/xlink"
     width="800" height="600" viewBox="0 -600 800 600">
<defs>
</defs>
<g>
<path fill="hsl(45, 48%, 76%)" stroke="black" stroke-width="1" d="M388.2217548217918,-182.95555281457726 L289.56066480047275,-148.2114984195419 A62.400000000000006,62.400000000000006,0,0,1,230.33750282835206,-198.97188736627817 L249.5788141024426,-301.78692488732156" />
<path fill="hsl(45, 48%, 76%)" stroke="black" stroke-width="1" d="M411.7782451782082,-182.95555281457726 L510.43933519952725,-148.2114984195419 A62.400000000000006,62.400000000000006,0,0,0,569.6624971716479,-198.97188736627817 L550.4211858975574,-301.78692488732156" />
<path fill="hsl(45, 48%, 76%)" stroke="black" stroke-width="1" d="M230.49530979940408,-300.0 A169.50469020059592,176.56738562562077,0,0,0,569.5046902005959,-300.0 A169.50469020059592,176.56738562562077,0,0,0,230.49530979940408,-300.0" />
<path fill="black" stroke="black" stroke-width="1" d="M334.31,-344.1418464064052 A12.69,13.5,0,0,0,359.69,-344.1418464064052 A12.69,13.5,0,0,0,334.31,-344.1418464064052" />
<path fill="black" stroke="black" stroke-width="1" d="M440.31,-344.1418464064052 A12.69,13.5,0,0,0,465.69,-344.1418464064052 A12.69,13.5,0,0,0,440.31,-344.1418464064052" />
<path fill="black" stroke="black" stroke-width="1" d="M380.0,-306.6666666666667 L420.0,-306.6666666666667 L400.0,-280.0 Z" />
<path fill="black" stroke="black" stroke-width="2" d="M400.0,-280.0 L400.0,-250.0" />
<path fill="none" stroke="black" stroke-width="2" d="M360.0,-246.0 A40.0,40.0,30,0,0,400.0,-250.0 A40.0,40.0,150,0,0,440.0,-246.0" />
<path fill="black" stroke="black" stroke-width="1" d="M366.0,-270.0 L352.477038431953,-266.3765333685647" />
<path fill="black" stroke="black" stroke-width="1" d="M360.0,-276.0 L346.0532742267156,-274.7798196015328" />
<path fill="black" stroke="black" stroke-width="1" d="M366.0,-282.0 L352.0532742267156,-283.2201803984672" />
<path fill="black" stroke="black" stroke-width="1" d="M434.0,-270.0 L447.522961568047,-266.3765333685647" />
<path fill="black" stroke="black" stroke-width="1" d="M440.0,-276.0 L453.9467257732844,-274.7798196015328" />
<path fill="black" stroke="black" stroke-width="1" d="M434.0,-282.0 L447.9467257732844,-283.2201803984672" />
</g>
</svg>