<?xml version="1.0" encoding="UTF-8"?>
<svg xmlns="http://www.w3.org/2000/svg" xmlns:xlink="http://www.w3.org/1999/xlink"
     width="800" height="600" viewBox="0 -600 800 600">
<defs>
</defs>
<g>
<path fill="hsl(45, 50%, 78%)" stroke="black" stroke-width="1" d="M364.6484548614038,-197.1096557605087 L169.60436758339858,-254.8102971598023 A16.8,16.8,0,0,1,166.12302911355346,-273.5573953335575 L327.4478666407741,-397.4357905314929" />
<path fill="hsl(45, 50%, 78%)" stroke="black" stroke-width="1" d="M435.3515451385962,-197.1096557605087 L630.3956324166014,-254.8102971598023 A16.8,16.8,0,0,0,633.8769708864465,-273.5573953335575 L472.5521333592259,-397.4357905314929" />
<path fill="hsl(45, 50%, 78%)" stroke="black" stroke-width="1" d="M249.1820965534927,-300.0 A150.8179034465073,198.44460979803594,0,0,0,550.8179034465073,-300.0 A150.8179034465073,198.44460979803594,0,0,0,249.1820965534927,-300.0" />
<path fill="black" stroke="black" stroke-width="1" d="M312.524,-349.611152449509 A9.475999999999999,10.3,0,0,0,331.476,-349.611152449509 A9.475999999999999,10.3,0,0,0,312.524,-349.611152449509" />
<path fill="black" stroke="black" stroke-width="1" d="M468.524,-349.611152449509 A9.475999999999999,10.3,0,0,0,487.476,-349.611152449509 A9.475999999999999,10.3,0,0,0,468.524,-349.611152449509" />
<path fill="black" stroke="black" stroke-width="1" d="M382.4,-305.8666666666667 L417.6,-305.8666666666667 L400.0,-282.4 Z" />
<path fill="black" stroke="black" stroke-width="2" d="M400.0,-282.4 L400.0,-256.0" />
<path fill="none" stroke="black" stroke-width="2" d="M364.8,-252.0 A35.2,35.2,30,0,0,400.0,-256.0 A35.2,35.2,150,0,0,435.2,-252.0" />
<path fill="black" stroke="black" stroke-width="1" d="M366.0,-272.4 L316.7377828592575,-259.2002286997714" />
<path fill="black" stroke="black" stroke-width="1" d="M360.0,-278.4 L309.19407039732096,-273.9550571198694" />
<path fill="black" stroke="black" stroke-width="1" d="M366.0,-284.4 L315.19407039732096,-288.84494288013053" />
<path fill="black" stroke="black" stroke-width="1" d="M434.0,-272.4 L483.2622171407425,-259.2002286997714" />
<path fill="black" stroke="black" stroke-width="1" d="M440.0,-278.4 L490.80592960267904,-273.9550571198694" />
<path fill="black" stroke="black" stroke-width="1" d="M434.0,-284.4 L484.80592960267904,-288.84494288013053" />
</g>
</svg>