<?xml version="1.0" encoding="UTF-8"?>
<svg xmlns="http://www.w3.org/2000/svg" xmlns:xlink="http://www.w3.org/1999/xlink"
     width="800" height="600" viewBox="0 -600 800 600">
<defs>
</defs>
<g>
<path fill="hsl(45, 50%, 39%)" stroke="black" stroke-width="1" d="M372.0305604841757,-175.59845904943725 L183.8058159285456,-156.4129036243828 A8.8,8.8,0,0,1,177.71563568656018,-165.16900108133788 L261.1892800800416,-334.95943276601975" />
<path fill="hsl(45, 50%, 39%)" stroke="black" stroke-width="1" d="M427.9694395158243,-175.59845904943725 L616.1941840714544,-156.4129036243828 A8.8,8.8,0,0,0,622.2843643134398,-165.16900108133788 L538.8107199199584,-334.95943276601975" />
<path fill="hsl(45, 50%, 39%)" stroke="black" stroke-width="1" d="M211.27928041680212,-300.0 A188.72071958319788,158.58883998588055,0,0,0,588.7207195831979,-300.0 A188.72071958319788,158.58883998588055,0,0,0,211.27928041680212,-300.0" />
<path fill="black" stroke="black" stroke-width="1" d="M316.12,-339.6472099964701 A11.88,13.5,0,0,0,339.88,-339.6472099964701 A11.88,13.5,0,0,0,316.12,-339.6472099964701" />
<path fill="black" stroke="black" stroke-width="1" d="M460.12,-339.6472099964701 A11.88,13.5,0,0,0,483.88,-339.6472099964701 A11.88,13.5,0,0,0,460.12,-339.6472099964701" />
<path fill="black" stroke="black" stroke-width="1" d="M384.9,-305.03333333333336 L415.1,-305.03333333333336 L400.0,-284.9 Z" />
<path fill="black" stroke="black" stroke-width="2" d="M400.0,-284.9 L400.0,-262.25" />
<path fill="none" stroke="black" stroke-width="2" d="M369.8,-258.25 A30.200000000000003,30.200000000000003,30,0,0,400.0,-262.25 A30.200000000000003,30.200000000000003,150,0,0,430.2,-258.25" />
<path fill="black" stroke="black" stroke-width="1" d="M366.0,-274.9 L334.12444773246074,-266.3589715116168" />
<path fill="black" stroke="black" stroke-width="1" d="M360.0,-280.9 L327.1255749629724,-278.02386048932726" />
<path fill="black" stroke="black" stroke-width="1" d="M366.0,-286.9 L333.1255749629724,-289.7761395106727" />
<path fill="black" stroke="black" stroke-width="1" d="M434.0,-274.9 L465.87555226753926,-266.3589715116168" />
<path fill="black" stroke="black" stroke-width="1" d="M440.0,-280.9 L472.8744250370276,-278.02386048932726" />
<path fill="black" stroke="black" stroke-width="1" d="M434.0,-286.9 L466.8744250370276,-289.7761395106727" />
</g>
</svg>