<?xml version="1.0" encoding="UTF-8"?>
<svg xmlns="http://www.w3.org/2000/svg" xmlns:xlink="http://www.w3.org/1999/xlink"
     width="800" height="600" viewBox="0 -600 800 600">
<defs>
</defs>
<g>
<path fill="hsl(45, 18%, 51%)" stroke="black" stroke-width="1" d="M365.1611839268105,-182.9807848275923 L139.58490531908865,-222.4312921689624 A1.6,1.6,0,0,1,139.00211342758996,-224.21645613438338 L297.84872045872237,-389.16722283371405" />
<path fill="hsl(45, 18%, 51%)" stroke="black" stroke-width="1" d="M434.8388160731895,-182.9807848275923 L660.4150946809114,-222.4312921689624 A1.6,1.6,0,0,0,660.99788657241,-224.21645613438338 L502.15127954127763,-389.16722283371405" />
<path fill="hsl(45, 18%, 51%)" stroke="black" stroke-width="1" d="M232.27027693339502,-300.0 A167.72972306660498,178.43587560277126,0,0,0,567.729723066605,-300.0 A167.72972306660498,178.43587560277126,0,0,0,232.27027693339502,-300.0" />
<path fill="black" stroke="black" stroke-width="1" d="M314.656,-344.60896890069284 A9.344,12.8,0,0,0,333.344,-344.60896890069284 A9.344,12.8,0,0,0,314.656,-344.60896890069284" />
<path fill="black" stroke="black" stroke-width="1" d="M466.656,-344.60896890069284 A9.344,12.8,0,0,0,485.344,-344.60896890069284 A9.344,12.8,0,0,0,466.656,-344.60896890069284" />
<path fill="black" stroke="black" stroke-width="1" d="M381.9,-306.03333333333336 L418.1,-306.03333333333336 L400.0,-281.9 Z" />
<path fill="black" stroke="black" stroke-width="2" d="M400.0,-281.9 L400.0,-254.75" />
<path fill="none" stroke="black" stroke-width="2" d="M363.8,-250.75 A36.2,36.2,30,0,0,400.0,-254.75 A36.2,36.2,150,0,0,436.2,-250.75" />
<path fill="black" stroke="black" stroke-width="1" d="M366.0,-271.9 L323.499263643281,-260.5119620154891" />
<path fill="black" stroke="black" stroke-width="1" d="M360.0,-277.9 L316.1674332839632,-274.065147319103" />
<path fill="black" stroke="black" stroke-width="1" d="M366.0,-283.9 L322.1674332839632,-287.73485268089695" />
<path fill="black" stroke="black" stroke-width="1" d="M434.0,-271.9 L476.500736356719,-260.5119620154891" />
<path fill="black" stroke="black" stroke-width="1" d="M440.0,-277.9 L483.8325667160368,-274.065147319103" />
<path fill="black" stroke="black" stroke-width="1" d="M434.0,-283.9 L477.8325667160368,-287.73485268089695" />
</g>
</svg>