<?xml version="1.0" encoding="UTF-8"?>
<svg xmlns="http://www.w3.org/2000/svg" xmlns:xlink="http://www.w3.org/1999/xlink"
     width="800" height="600" viewBox="0 -600 800 600">
<defs>
</defs>
<g>
<path fill="hsl(45, 51%, 60%)" stroke="black" stroke-width="1" d="M336.52945659230636,-200.94508474735198 L158.5572846588634,-225.07112912460158 A37.6,37.6,0,0,1,149.8716148821079,-259.1961331924841 L294.65344017926856,-365.47116818952594" />
<path fill="hsl(45, 51%, 60%)" stroke="black" stroke-width="1" d="M463.47054340769364,-200.94508474735198 L641.4427153411366,-225.07112912460158 A37.6,37.6,0,0,0,650.1283851178921,-259.1961331924841 L505.34655982073144,-365.47116818952594" />
<path fill="hsl(45, 51%, 60%)" stroke="black" stroke-width="1" d="M203.50977123531055,-300.0 A196.49022876468945,152.31800679433294,0,0,0,596.4902287646894,-300.0 A196.49022876468945,152.31800679433294,0,0,0,203.50977123531055,-300.0" />
<path fill="black" stroke="black" stroke-width="1" d="M320.76,-338.0795016985832 A6.24,12.0,0,0,0,333.24,-338.0795016985832 A6.24,12.0,0,0,0,320.76,-338.0795016985832" />
<path fill="black" stroke="black" stroke-width="1" d="M466.76,-338.0795016985832 A6.24,12.0,0,0,0,479.24,-338.0795016985832 A6.24,12.0,0,0,0,466.76,-338.0795016985832" />
<path fill="black" stroke="black" stroke-width="1" d="M385.3,-304.9 L414.7,-304.9 L400.0,-285.3 Z" />
<path fill="black" stroke="black" stroke-width="2" d="M400.0,-285.3 L400.0,-263.25" />
<path fill="none" stroke="black" stroke-width="2" d="M370.6,-259.25 A29.4,29.4,30,0,0,400.0,-263.25 A29.4,29.4,150,0,0,429.4,-259.25" />
<path fill="black" stroke="black" stroke-width="1" d="M366.0,-275.3 L358.2725933896875,-273.22944763917985" />
<path fill="black" stroke="black" stroke-width="1" d="M360.0,-281.3 L352.030442415266,-280.6027540580188" />
<path fill="black" stroke="black" stroke-width="1" d="M366.0,-287.3 L358.030442415266,-287.9972459419813" />
<path fill="black" stroke="black" stroke-width="1" d="M434.0,-275.3 L441.7274066103125,-273.22944763917985" />
<path fill="black" stroke="black" stroke-width="1" d="M440.0,-281.3 L447.969557584734,-280.6027540580187" />
<path fill="black" stroke="black" stroke-width="1" d="M434.0,-287.3 L441.969557584734,-287.9972459419813" />
</g>
</svg>