<?xml version="1.0" encoding="UTF-8"?>
<svg xmlns="http://www.w3.org/2000/svg" xmlns:xlink="http://www.w3.org/1999/xlink"
     width="800" height="600" viewBox="0 -600 800 600">
<defs>
</defs>
<g>
<path fill="hsl(45, 28%, 43%)" stroke="black" stroke-width="1" d="M317.239265893067,-275.7062280441736 L205.04334298247295,-403.9569000979295 A43.2,43.2,0,0,1,223.29733082066696,-440.0623319943637 L393.0947264651177,-425.74435614713366" />
<path fill="hsl(45, 28%, 43%)" stroke="black" stroke-width="1" d="M482.760734106933,-275.7062280441736 L594.956657017527,-403.9569000979295 A43.2,43.2,0,0,0,576.702669179333,-440.0623319943637 L406.9052735348823,-425.74435614713366" />
<path fill="hsl(45, 28%, 43%)" stroke="black" stroke-width="1" d="M233.16484183482189,-300.0 A166.83515816517811,179.3926431883636,0,0,0,566.8351581651781,-300.0 A166.83515816517811,179.3926431883636,0,0,0,233.16484183482189,-300.0" />
<path fill="black" stroke="black" stroke-width="1" d="M335.271,-344.8481607970909 A7.728999999999999,13.1,0,0,0,350.729,-344.8481607970909 A7.728999999999999,13.1,0,0,0,335.271,-344.8481607970909" />
<path fill="black" stroke="black" stroke-width="1" d="M449.271,-344.8481607970909 A7.728999999999999,13.1,0,0,0,464.729,-344.8481607970909 A7.728999999999999,13.1,0,0,0,449.271,-344.8481607970909" />
<path fill="black" stroke="black" stroke-width="1" d="M385.1,-304.96666666666664 L414.9,-304.96666666666664 L400.0,-285.1 Z" />
<path fill="black" stroke="black" stroke-width="2" d="M400.0,-285.1 L400.0,-262.75" />
<path fill="none" stroke="black" stroke-width="2" d="M370.2,-258.75 A29.8,29.8,30,0,0,400.0,-262.75 A29.8,29.8,150,0,0,429.8,-258.75" />
<path fill="black" stroke="black" stroke-width="1" d="M366.0,-275.1 L349.57926095308585,-270.70007623325716" />
<path fill="black" stroke="black" stroke-width="1" d="M360.0,-281.1 L343.0646901324403,-279.61835237328984" />
<path fill="black" stroke="black" stroke-width="1" d="M366.0,-287.1 L349.0646901324403,-288.5816476267102" />
<path fill="black" stroke="black" stroke-width="1" d="M434.0,-275.1 L450.42073904691415,-270.70007623325716" />
<path fill="black" stroke="black" stroke-width="1" d="M440.0,-281.1 L456.9353098675597,-279.61835237328984" />
<path fill="black" stroke="black" stroke-width="1" d="M434.0,-287.1 L450.9353098675597,-288.5816476267102" />
</g>
</svg>