<?xml version="1.0" encoding="UTF-8"?>
<svg xmlns="http://www.w3.org/2000/svg" xmlns:xlink="http://www.w3.org/1999/xlink"
     width="800" height="600" viewBox="0 -600 800 600">
<defs>
</defs>
<g>
<path fill="hsl(45, 50%, 30%)" stroke="black" stroke-width="1" d="M357.14726236203404,-206.41841768666862 L207.4968140359357,-246.01366128735583 A50.400000000000006,50.400000000000006,0,0,1,196.11514257461477,-301.0704492518347 L317.79919816718166,-396.7575989352958" />
<path fill="hsl(45, 50%, 30%)" stroke="black" stroke-width="1" d="M442.85273763796596,-206.41841768666862 L592.5031859640643,-246.01366128735583 A50.400000000000006,50.400000000000006,0,0,0,603.8848574253852,-301.0704492518347 L482.20080183281834,-396.7575989352958" />
<path fill="hsl(45, 50%, 30%)" stroke="black" stroke-width="1" d="M243.34183711022268,-300.0 A156.65816288977732,191.0465401094845,0,0,0,556.6581628897773,-300.0 A156.65816288977732,191.0465401094845,0,0,0,243.34183711022268,-300.0" />
<path fill="black" stroke="black" stroke-width="1" d="M317.26,-347.76163502737114 A12.74,13.0,0,0,0,342.74,-347.76163502737114 A12.74,13.0,0,0,0,317.26,-347.76163502737114" />
<path fill="black" stroke="black" stroke-width="1" d="M457.26,-347.76163502737114 A12.74,13.0,0,0,0,482.74,-347.76163502737114 A12.74,13.0,0,0,0,457.26,-347.76163502737114" />
<path fill="black" stroke="black" stroke-width="1" d="M383.4,-305.53333333333336 L416.6,-305.53333333333336 L400.0,-283.4 Z" />
<path fill="black" stroke="black" stroke-width="2" d="M400.0,-283.4 L400.0,-258.5" />
<path fill="none" stroke="black" stroke-width="2" d="M366.8,-254.5 A33.2,33.2,30,0,0,400.0,-258.5 A33.2,33.2,150,0,0,433.2,-254.5" />
<path fill="black" stroke="black" stroke-width="1" d="M366.0,-273.4 L336.05629938503887,-265.3766096018218" />
<path fill="black" stroke="black" stroke-width="1" d="M360.0,-279.4 L329.1179643591559,-276.69817197482257" />
<path fill="black" stroke="black" stroke-width="1" d="M366.0,-285.4 L335.1179643591559,-288.1018280251774" />
<path fill="black" stroke="black" stroke-width="1" d="M434.0,-273.4 L463.94370061496113,-265.3766096018218" />
<path fill="black" stroke="black" stroke-width="1" d="M440.0,-279.4 L470.8820356408441,-276.69817197482257" />
<path fill="black" stroke="black" stroke-width="1" d="M434.0,-285.4 L464.8820356408441,-288.1018280251774" />
</g>
</svg>