<?xml version="1.0" encoding="UTF-8"?>
<svg xmlns="http://www.w3.org/2000/svg" xmlns:xlink="http://www.w3.org/1999/xlink"
     width="800" height="600" viewBox="0 -600 800 600">
<defs>
</defs>
<g>
<path fill="hsl(45, 53%, 55%)" stroke="black" stroke-width="1" d="M348.5438786241176,-194.29502077240616 L210.7457675524222,-193.57350495643655 A37.6,37.6,0,0,1,195.0122384855481,-228.41940922377313 L286.680981356919,-331.3061507427001" />
<path fill="hsl(45, 53%, 55%)" stroke="black" stroke-width="1" d="M451.4561213758824,-194.29502077240616 L589.2542324475778,-193.57350495643655 A37.6,37.6,0,0,0,604.9877615144519,-228.41940922377313 L513.319018643081,-331.3061507427001" />
<path fill="hsl(45, 53%, 55%)" stroke="black" stroke-width="1" d="M223.57392482968964,-300.0 A176.42607517031036,169.64045689452917,0,0,0,576.4260751703104,-300.0 A176.42607517031036,169.64045689452917,0,0,0,223.57392482968964,-300.0" />
<path fill="black" stroke="black" stroke-width="1" d="M322.104,-342.41011422363226 A8.896,13.9,0,0,0,339.896,-342.41011422363226 A8.896,13.9,0,0,0,322.104,-342.41011422363226" />
<path fill="black" stroke="black" stroke-width="1" d="M460.104,-342.41011422363226 A8.896,13.9,0,0,0,477.896,-342.41011422363226 A8.896,13.9,0,0,0,460.104,-342.41011422363226" />
<path fill="black" stroke="black" stroke-width="1" d="M388.1,-303.96666666666664 L411.9,-303.96666666666664 L400.0,-288.1 Z" />
<path fill="black" stroke="black" stroke-width="2" d="M400.0,-288.1 L400.0,-270.25" />
<path fill="none" stroke="black" stroke-width="2" d="M376.2,-266.25 A23.8,23.8,30,0,0,400.0,-270.25 A23.8,23.8,150,0,0,423.8,-266.25" />
<path fill="black" stroke="black" stroke-width="1" d="M366.0,-278.1 L347.6474093005077,-273.18243814305214" />
<path fill="black" stroke="black" stroke-width="1" d="M360.0,-284.1 L341.0723007362568,-282.44404088779453" />
<path fill="black" stroke="black" stroke-width="1" d="M366.0,-290.1 L347.0723007362568,-291.7559591122055" />
<path fill="black" stroke="black" stroke-width="1" d="M434.0,-278.1 L452.3525906994923,-273.18243814305214" />
<path fill="black" stroke="black" stroke-width="1" d="M440.0,-284.1 L458.9276992637432,-282.44404088779453" />
<path fill="black" stroke="black" stroke-width="1" d="M434.0,-290.1 L452.9276992637432,-291.7559591122055" />
</g>
</svg>