<?xml version="1.0" encoding="UTF-8"?>
<svg xmlns="http://www.w3.org/2000/svg" xmlns:xlink="http://www.w3.org/1999/xlink"
     width="800" height="600" viewBox="0 -600 800 600">
<defs>
</defs>
<g>
<path fill="hsl(45, 48%, 71%)" stroke="black" stroke-width="1" d="M313.7585414508309,-274.70594747943437 L227.84597431641055,-435.605887841057 A60.0,60.0,0,0,1,267.4240350137685,-497.9709322866287 L449.5904457641641,-488.7427800166362" />
<path fill="hsl(45, 48%, 71%)" stroke="black" stroke-width="1" d="M486.2414585491691,-274.70594747943437 L572.1540256835895,-435.605887841057 A60.0,60.0,0,0,0,532.5759649862315,-497.9709322866287 L350.4095542358359,-488.7427800166362" />
<path fill="hsl(45, 48%, 71%)" stroke="black" stroke-width="1" d="M213.67329767314612,-300.0 A186.32670232685388,160.62646752314984,0,0,0,586.3267023268538,-300.0 A186.32670232685388,160.62646752314984,0,0,0,213.67329767314612,-300.0" />
<path fill="black" stroke="black" stroke-width="1" d="M317.874,-340.15661688078745 A12.126000000000001,14.100000000000001,0,0,0,342.126,-340.15661688078745 A12.126000000000001,14.100000000000001,0,0,0,317.874,-340.15661688078745" />
<path fill="black" stroke="black" stroke-width="1" d="M457.874,-340.15661688078745 A12.126000000000001,14.100000000000001,0,0,0,482.126,-340.15661688078745 A12.126000000000001,14.100000000000001,0,0,0,457.874,-340.15661688078745" />
<path fill="black" stroke="black" stroke-width="1" d="M389.5,-303.5 L410.5,-303.5 L400.0,-289.5 Z" />
<path fill="black" stroke="black" stroke-width="2" d="M400.0,-289.5 L400.0,-273.75" />
<path fill="none" stroke="black" stroke-width="2" d="M379.0,-269.75 A21.0,21.0,30,0,0,400.0,-273.75 A21.0,21.0,150,0,0,421.0,-269.75" />
<path fill="black" stroke="black" stroke-width="1" d="M366.0,-279.5 L322.53333781699195,-267.85314297038656" />
<path fill="black" stroke="black" stroke-width="1" d="M360.0,-285.5 L315.17123858587144,-281.5779915763554" />
<path fill="black" stroke="black" stroke-width="1" d="M366.0,-291.5 L321.17123858587144,-295.4220084236446" />
<path fill="black" stroke="black" stroke-width="1" d="M434.0,-279.5 L477.46666218300805,-267.85314297038656" />
<path fill="black" stroke="black" stroke-width="1" d="M440.0,-285.5 L484.82876141412856,-281.5779915763554" />
<path fill="black" stroke="black" stroke-width="1" d="M434.0,-291.5 L478.82876141412856,-295.4220084236446" />
</g>
</svg>