<?xml version="1.0" encoding="UTF-8"?>
<svg xmlns="http://www.w3.org/2000/svg" xmlns:xlink="http://www.w3.org/1999/xlink"
     width="800" height="600" viewBox="0 -600 800 600">
<defs>
</defs>
<g>
<path fill="hsl(45, 58%, 44%)" stroke="black" stroke-width="1" d="M369.1926040456832,-217.691643889907 L227.2365989384149,-166.80812382706924 A44.800000000000004,44.800000000000004,0,0,1,201.05256786691598,-197.22838305431065 L272.49871787450525,-330.02931546479135" />
<path fill="hsl(45, 58%, 44%)" stroke="black" stroke-width="1" d="M430.8073959543168,-217.691643889907 L572.7634010615851,-166.80812382706924 A44.800000000000004,44.800000000000004,0,0,0,598.947432133084,-197.22838305431065 L527.5012821254948,-330.02931546479135" />
<path fill="hsl(45, 58%, 44%)" stroke="black" stroke-width="1" d="M208.9152544026604,-300.0 A191.0847455973396,156.62684065355705,0,0,0,591.0847455973396,-300.0 A191.0847455973396,156.62684065355705,0,0,0,208.9152544026604,-300.0" />
<path fill="black" stroke="black" stroke-width="1" d="M311.451,-339.1567101633893 A8.549000000000001,10.3,0,0,0,328.549,-339.1567101633893 A8.549000000000001,10.3,0,0,0,311.451,-339.1567101633893" />
<path fill="black" stroke="black" stroke-width="1" d="M471.451,-339.1567101633893 A8.549000000000001,10.3,0,0,0,488.549,-339.1567101633893 A8.549000000000001,10.3,0,0,0,471.451,-339.1567101633893" />
<path fill="black" stroke="black" stroke-width="1" d="M381.1,-306.3 L418.9,-306.3 L400.0,-281.1 Z" />
<path fill="black" stroke="black" stroke-width="2" d="M400.0,-281.1 L400.0,-252.75" />
<path fill="none" stroke="black" stroke-width="2" d="M362.2,-248.75 A37.8,37.8,30,0,0,400.0,-252.75 A37.8,37.8,150,0,0,437.8,-248.75" />
<path fill="black" stroke="black" stroke-width="1" d="M366.0,-271.1 L352.477038431953,-267.47653336856473" />
<path fill="black" stroke="black" stroke-width="1" d="M360.0,-277.1 L346.0532742267156,-275.8798196015328" />
<path fill="black" stroke="black" stroke-width="1" d="M366.0,-283.1 L352.0532742267156,-284.32018039846724" />
<path fill="black" stroke="black" stroke-width="1" d="M434.0,-271.1 L447.522961568047,-267.47653336856473" />
<path fill="black" stroke="black" stroke-width="1" d="M440.0,-277.1 L453.9467257732844,-275.8798196015328" />
<path fill="black" stroke="black" stroke-width="1" d="M434.0,-283.1 L447.9467257732844,-284.32018039846724" />
</g>
</svg>