<?xml version="1.0" encoding="UTF-8"?>
<svg xmlns="http://www.w3.org/2000/svg" xmlns:xlink="http://www.w3.org/1999/xlink"
     width="800" height="600" viewBox="0 -600 800 600">
<defs>
</defs>
<g>
<path fill="hsl(45, 9%, 31%)" stroke="black" stroke-width="1" d="M275.078616921366,-248.5334891201742 L194.8313484762998,-416.77538612298827 A48.0,48.0,0,0,1,228.3416344695171,-462.06193851620327 L412.6941914001784,-434.51026428164386" />
<path fill="hsl(45, 9%, 31%)" stroke="black" stroke-width="1" d="M524.921383078634,-248.5334891201742 L605.1686515237002,-416.77538612298827 A48.0,48.0,0,0,0,571.6583655304829,-462.06193851620327 L387.3058085998216,-434.51026428164386" />
<path fill="hsl(45, 9%, 31%)" stroke="black" stroke-width="1" d="M216.9140092743303,-300.0 A183.0859907256697,163.46963457649076,0,0,0,583.0859907256697,-300.0 A183.0859907256697,163.46963457649076,0,0,0,216.9140092743303,-300.0" />
<path fill="black" stroke="black" stroke-width="1" d="M338.796,-340.8674086441227 A9.204,11.8,0,0,0,357.204,-340.8674086441227 A9.204,11.8,0,0,0,338.796,-340.8674086441227" />
<path fill="black" stroke="black" stroke-width="1" d="M442.796,-340.8674086441227 A9.204,11.8,0,0,0,461.204,-340.8674086441227 A9.204,11.8,0,0,0,442.796,-340.8674086441227" />
<path fill="black" stroke="black" stroke-width="1" d="M383.6,-305.46666666666664 L416.4,-305.46666666666664 L400.0,-283.6 Z" />
<path fill="black" stroke="black" stroke-width="2" d="M400.0,-283.6 L400.0,-259.0" />
<path fill="none" stroke="black" stroke-width="2" d="M367.2,-255.0 A32.8,32.8,30,0,0,400.0,-259.0 A32.8,32.8,150,0,0,432.8,-255.0" />
<path fill="black" stroke="black" stroke-width="1" d="M366.0,-273.6 L309.01037624894497,-258.3296763389513" />
<path fill="black" stroke="black" stroke-width="1" d="M360.0,-279.6 L301.224512812587,-274.45781117788823" />
<path fill="black" stroke="black" stroke-width="1" d="M366.0,-285.6 L307.224512812587,-290.74218882211187" />
<path fill="black" stroke="black" stroke-width="1" d="M434.0,-273.6 L490.98962375105503,-258.3296763389513" />
<path fill="black" stroke="black" stroke-width="1" d="M440.0,-279.6 L498.775487187413,-274.4578111778882" />
<path fill="black" stroke="black" stroke-width="1" d="M434.0,-285.6 L492.775487187413,-290.74218882211187" />
</g>
</svg>