<?xml version="1.0" encoding="UTF-8"?>
<svg xmlns="http://www.w3.org/2000/svg" xmlns:xlink="http://www.w3.org/1999/xlink"
     width="800" height="600" viewBox="0 -600 800 600">
<defs>
</defs>
<g>
<path fill="hsl(45, 52%, 57%)" stroke="black" stroke-width="1" d="M387.25496284489105,-203.5013454715772 L165.8480138769827,-251.73538893386674 A26.400000000000002,26.400000000000002,0,0,1,157.0566144626746,-281.975882945628 L318.0959541190001,-441.39323169743295" />
<path fill="hsl(45, 52%, 57%)" stroke="black" stroke-width="1" d="M412.74503715510895,-203.5013454715772 L634.1519861230173,-251.73538893386674 A26.400000000000002,26.400000000000002,0,0,0,642.9433855373254,-281.975882945628 L481.9040458809999,-441.39323169743295" />
<path fill="hsl(45, 52%, 57%)" stroke="black" stroke-width="1" d="M249.1820965534927,-300.0 A150.8179034465073,198.44460979803594,0,0,0,550.8179034465073,-300.0 A150.8179034465073,198.44460979803594,0,0,0,249.1820965534927,-300.0" />
<path fill="black" stroke="black" stroke-width="1" d="M326.081,-349.611152449509 A11.918999999999999,13.7,0,0,0,349.919,-349.611152449509 A11.918999999999999,13.7,0,0,0,326.081,-349.611152449509" />
<path fill="black" stroke="black" stroke-width="1" d="M450.081,-349.611152449509 A11.918999999999999,13.7,0,0,0,473.919,-349.611152449509 A11.918999999999999,13.7,0,0,0,450.081,-349.611152449509" />
<path fill="black" stroke="black" stroke-width="1" d="M388.7,-303.76666666666665 L411.3,-303.76666666666665 L400.0,-288.7 Z" />
<path fill="black" stroke="black" stroke-width="2" d="M400.0,-288.7 L400.0,-271.75" />
<path fill="none" stroke="black" stroke-width="2" d="M377.4,-267.75 A22.6,22.6,30,0,0,400.0,-271.75 A22.6,22.6,150,0,0,422.6,-267.75" />
<path fill="black" stroke="black" stroke-width="1" d="M366.0,-278.7 L316.7377828592575,-265.5002286997714" />
<path fill="black" stroke="black" stroke-width="1" d="M360.0,-284.7 L309.19407039732096,-280.25505711986943" />
<path fill="black" stroke="black" stroke-width="1" d="M366.0,-290.7 L315.19407039732096,-295.14494288013054" />
<path fill="black" stroke="black" stroke-width="1" d="M434.0,-278.7 L483.2622171407425,-265.5002286997714" />
<path fill="black" stroke="black" stroke-width="1" d="M440.0,-284.7 L490.80592960267904,-280.25505711986943" />
<path fill="black" stroke="black" stroke-width="1" d="M434.0,-290.7 L484.80592960267904,-295.14494288013054" />
</g>
</svg>