<?xml version="1.0" encoding="UTF-8"?>
<svg xmlns="http://www.w3.org/2000/svg" xmlns:xlink="http://www.w3.org/1999/xlink"
     width="800" height="600" viewBox="0 -600 800 600">
<defs>
</defs>
<g>
<path fill="hsl(45, 23%, 68%)" stroke="black" stroke-width="1" d="M336.8030158760723,-217.53638829527097 L149.00326813105812,-234.89192766773238 A21.6,21.6,0,0,1,138.4720209953016,-258.86004287343025 L252.70905726610476,-408.92622675262135" />
<path fill="hsl(45, 23%, 68%)" stroke="black" stroke-width="1" d="M463.1969841239277,-217.53638829527097 L650.9967318689419,-234.89192766773238 A21.6,21.6,0,0,0,661.5279790046984,-258.86004287343025 L547.2909427338952,-408.92622675262135" />
<path fill="hsl(45, 23%, 68%)" stroke="black" stroke-width="1" d="M211.27928041680212,-300.0 A188.72071958319788,158.58883998588055,0,0,0,588.7207195831979,-300.0 A188.72071958319788,158.58883998588055,0,0,0,211.27928041680212,-300.0" />
<path fill="black" stroke="black" stroke-width="1" d="M309.52,-339.6472099964701 A12.48,13.0,0,0,0,334.48,-339.6472099964701 A12.48,13.0,0,0,0,309.52,-339.6472099964701" />
<path fill="black" stroke="black" stroke-width="1" d="M465.52,-339.6472099964701 A12.48,13.0,0,0,0,490.48,-339.6472099964701 A12.48,13.0,0,0,0,465.52,-339.6472099964701" />
<path fill="black" stroke="black" stroke-width="1" d="M389.8,-303.4 L410.2,-303.4 L400.0,-289.8 Z" />
<path fill="black" stroke="black" stroke-width="2" d="M400.0,-289.8 L400.0,-274.5" />
<path fill="none" stroke="black" stroke-width="2" d="M379.6,-270.5 A20.4,20.4,30,0,0,400.0,-274.5 A20.4,20.4,150,0,0,420.4,-270.5" />
<path fill="black" stroke="black" stroke-width="1" d="M366.0,-279.8 L357.3066675633984,-277.4706285940773" />
<path fill="black" stroke="black" stroke-width="1" d="M360.0,-285.8 L351.0342477171743,-285.01559831527106" />
<path fill="black" stroke="black" stroke-width="1" d="M366.0,-291.8 L357.0342477171743,-292.58440168472896" />
<path fill="black" stroke="black" stroke-width="1" d="M434.0,-279.8 L442.6933324366016,-277.4706285940773" />
<path fill="black" stroke="black" stroke-width="1" d="M440.0,-285.8 L448.9657522828257,-285.01559831527106" />
<path fill="black" stroke="black" stroke-width="1" d="M434.0,-291.8 L442.9657522828257,-292.58440168472896" />
</g>
</svg>