<?xml version="1.0" encoding="UTF-8"?>
<svg xmlns="http://www.w3.org/2000/svg" xmlns:xlink="http://www.w3.org/1999/xlink"
     width="800" height="600" viewBox="0 -600 800 600">
<defs>
</defs>
<g>
<path fill="hsl(45, 17%, 46%)" stroke="black" stroke-width="1" d="M318.34004068443403,-230.25890585052218 L131.50640311415214,-335.8351904614924 A27.200000000000003,27.200000000000003,0,0,1,131.4888705135794,-369.31998795850393 L318.21184643436345,-475.09186637278907" />
<path fill="hsl(45, 17%, 46%)" stroke="black" stroke-width="1" d="M481.65995931556597,-230.25890585052218 L668.4935968858479,-335.8351904614924 A27.200000000000003,27.200000000000003,0,0,0,668.5111294864206,-369.31998795850393 L481.78815356563655,-475.09186637278907" />
<path fill="hsl(45, 17%, 46%)" stroke="black" stroke-width="1" d="M208.9152544026604,-300.0 A191.0847455973396,156.62684065355705,0,0,0,591.0847455973396,-300.0 A191.0847455973396,156.62684065355705,0,0,0,208.9152544026604,-300.0" />
<path fill="black" stroke="black" stroke-width="1" d="M318.546,-339.1567101633893 A11.454000000000002,13.8,0,0,0,341.454,-339.1567101633893 A11.454000000000002,13.8,0,0,0,318.546,-339.1567101633893" />
<path fill="black" stroke="black" stroke-width="1" d="M458.546,-339.1567101633893 A11.454000000000002,13.8,0,0,0,481.454,-339.1567101633893 A11.454000000000002,13.8,0,0,0,458.546,-339.1567101633893" />
<path fill="black" stroke="black" stroke-width="1" d="M380.2,-306.6 L419.8,-306.6 L400.0,-280.2 Z" />
<path fill="black" stroke="black" stroke-width="2" d="M400.0,-280.2 L400.0,-250.5" />
<path fill="none" stroke="black" stroke-width="2" d="M360.4,-246.5 A39.6,39.6,30,0,0,400.0,-250.5 A39.6,39.6,150,0,0,439.6,-246.5" />
<path fill="black" stroke="black" stroke-width="1" d="M366.0,-270.2 L338.9540768639061,-262.9530667371294" />
<path fill="black" stroke="black" stroke-width="1" d="M360.0,-276.2 L332.1065484534311,-273.75963920306555" />
<path fill="black" stroke="black" stroke-width="1" d="M366.0,-282.2 L338.1065484534311,-284.64036079693443" />
<path fill="black" stroke="black" stroke-width="1" d="M434.0,-270.2 L461.0459231360939,-262.9530667371294" />
<path fill="black" stroke="black" stroke-width="1" d="M440.0,-276.2 L467.8934515465689,-273.75963920306555" />
<path fill="black" stroke="black" stroke-width="1" d="M434.0,-282.2 L461.8934515465689,-284.64036079693443" />
</g>
</svg>