<?xml version="1.0" encoding="UTF-8"?>
<svg xmlns="http://www.w3.org/2000/svg" xmlns:xlink="http://www.w3.org/1999/xlink"
     width="800" height="600" viewBox="0 -600 800 600">
<defs>
</defs>
<g>
<path fill="hsl(45, 3%, 42%)" stroke="black" stroke-width="1" d="M295.89448916892167,-295.034741329918 L232.53989551145094,-427.6816239261433 A49.6,49.6,0,0,1,263.5166895131156,-460.9350594679073 L400.3162624971136,-407.1309998497354" />
<path fill="hsl(45, 3%, 42%)" stroke="black" stroke-width="1" d="M504.10551083107833,-295.034741329918 L567.4601044885491,-427.6816239261433 A49.6,49.6,0,0,0,536.4833104868844,-460.9350594679073 L399.6837375028864,-407.1309998497354" />
<path fill="hsl(45, 3%, 42%)" stroke="black" stroke-width="1" d="M208.9152544026604,-300.0 A191.0847455973396,156.62684065355705,0,0,0,591.0847455973396,-300.0 A191.0847455973396,156.62684065355705,0,0,0,208.9152544026604,-300.0" />
<path fill="black" stroke="black" stroke-width="1" d="M314.95,-339.1567101633893 A10.05,13.4,0,0,0,335.05,-339.1567101633893 A10.05,13.4,0,0,0,314.95,-339.1567101633893" />
<path fill="black" stroke="black" stroke-width="1" d="M464.95,-339.1567101633893 A10.05,13.4,0,0,0,485.05,-339.1567101633893 A10.05,13.4,0,0,0,464.95,-339.1567101633893" />
<path fill="black" stroke="black" stroke-width="1" d="M384.7,-305.1 L415.3,-305.1 L400.0,-284.7 Z" />
<path fill="black" stroke="black" stroke-width="2" d="M400.0,-284.7 L400.0,-261.75" />
<path fill="none" stroke="black" stroke-width="2" d="M369.4,-257.75 A30.6,30.6,30,0,0,400.0,-261.75 A30.6,30.6,150,0,0,430.6,-257.75" />
<path fill="black" stroke="black" stroke-width="1" d="M366.0,-274.7 L342.81778016906236,-268.4883429175395" />
<path fill="black" stroke="black" stroke-width="1" d="M360.0,-280.7 L336.0913272457981,-278.6082621740562" />
<path fill="black" stroke="black" stroke-width="1" d="M366.0,-286.7 L342.0913272457981,-288.7917378259438" />
<path fill="black" stroke="black" stroke-width="1" d="M434.0,-274.7 L457.18221983093764,-268.4883429175395" />
<path fill="black" stroke="black" stroke-width="1" d="M440.0,-280.7 L463.9086727542019,-278.60826217405616" />
<path fill="black" stroke="black" stroke-width="1" d="M434.0,-286.7 L457.9086727542019,-288.7917378259438" />
</g>
</svg>