<?xml version="1.0" encoding="UTF-8"?>
<svg xmlns="http://www.w3.org/2000/svg" xmlns:xlink="http://www.w3.org/1999/xlink"
     width="800" height="600" viewBox="0 -600 800 600">
<defs>
</defs>
<g>
<path fill="hsl(45, 6%, 66%)" stroke="black" stroke-width="1" d="M318.2241512550801,-248.88209938428227 L183.54415515214384,-407.9162424156235 A30.400000000000002,30.400000000000002,0,0,1,196.9248892527978,-439.07573804800614 L404.9876481603735,-450.9268289584693" />
<path fill="hsl(45, 6%, 66%)" stroke="black" stroke-width="1" d="M481.7758487449199,-248.88209938428227 L616.4558448478562,-407.9162424156235 A30.400000000000002,30.400000000000002,0,0,0,603.0751107472022,-439.07573804800614 L395.0123518396265,-450.9268289584693" />
<path fill="hsl(45, 6%, 66%)" stroke="black" stroke-width="1" d="M240.50188088883306,-300.0 A159.49811911116694,187.6448460131376,0,0,0,559.498119111167,-300.0 A159.49811911116694,187.6448460131376,0,0,0,240.50188088883306,-300.0" />
<path fill="black" stroke="black" stroke-width="1" d="M315.676,-346.9112115032844 A9.324,12.6,0,0,0,334.324,-346.9112115032844 A9.324,12.6,0,0,0,315.676,-346.9112115032844" />
<path fill="black" stroke="black" stroke-width="1" d="M465.676,-346.9112115032844 A9.324,12.6,0,0,0,484.324,-346.9112115032844 A9.324,12.6,0,0,0,465.676,-346.9112115032844" />
<path fill="black" stroke="black" stroke-width="1" d="M382.0,-306.0 L418.0,-306.0 L400.0,-282.0 Z" />
<path fill="black" stroke="black" stroke-width="2" d="M400.0,-282.0 L400.0,-255.0" />
<path fill="none" stroke="black" stroke-width="2" d="M364.0,-251.0 A36.0,36.0,30,0,0,400.0,-255.0 A36.0,36.0,150,0,0,436.0,-251.0" />
<path fill="black" stroke="black" stroke-width="1" d="M366.0,-272.0 L332.1925960798826,-262.9413334214118" />
<path fill="black" stroke="black" stroke-width="1" d="M360.0,-278.0 L325.1331855667889,-274.949549003832" />
<path fill="black" stroke="black" stroke-width="1" d="M366.0,-284.0 L331.1331855667889,-287.050450996168" />
<path fill="black" stroke="black" stroke-width="1" d="M434.0,-272.0 L467.8074039201174,-262.9413334214118" />
<path fill="black" stroke="black" stroke-width="1" d="M440.0,-278.0 L474.8668144332111,-274.949549003832" />
<path fill="black" stroke="black" stroke-width="1" d="M434.0,-284.0 L468.8668144332111,-287.050450996168" />
</g>
</svg>