<?xml version="1.0" encoding="UTF-8"?>
<svg xmlns="http://www.w3.org/2000/svg" xmlns:xlink="http://www.w3.org/1999/xlink"
     width="800" height="600" viewBox="0 -600 800 600">
<defs>
</defs>
<g>
<path fill="hsl(45, 16%, 74%)" stroke="black" stroke-width="1" d="M300.1348081270376,-242.52442581233367 L137.3748155432802,-333.78638291459635 A14.4,14.4,0,0,1,139.232734102084,-346.55314803813104 L321.25314907877555,-387.6399893831775" />
<path fill="hsl(45, 16%, 74%)" stroke="black" stroke-width="1" d="M499.8651918729624,-242.52442581233367 L662.6251844567198,-333.78638291459635 A14.4,14.4,0,0,0,660.767265897916,-346.55314803813104 L478.74685092122445,-387.6399893831775" />
<path fill="hsl(45, 16%, 74%)" stroke="black" stroke-width="1" d="M210.48799510321254,-300.0 A189.51200489678746,157.9266707473229,0,0,0,589.5120048967874,-300.0 A189.51200489678746,157.9266707473229,0,0,0,210.48799510321254,-300.0" />
<path fill="black" stroke="black" stroke-width="1" d="M335.824,-339.48166768683075 A9.176,14.8,0,0,0,354.176,-339.48166768683075 A9.176,14.8,0,0,0,335.824,-339.48166768683075" />
<path fill="black" stroke="black" stroke-width="1" d="M445.824,-339.48166768683075 A9.176,14.8,0,0,0,464.176,-339.48166768683075 A9.176,14.8,0,0,0,445.824,-339.48166768683075" />
<path fill="black" stroke="black" stroke-width="1" d="M384.3,-305.23333333333335 L415.7,-305.23333333333335 L400.0,-284.3 Z" />
<path fill="black" stroke="black" stroke-width="2" d="M400.0,-284.3 L400.0,-260.75" />
<path fill="none" stroke="black" stroke-width="2" d="M368.6,-256.75 A31.4,31.4,30,0,0,400.0,-260.75 A31.4,31.4,150,0,0,431.4,-256.75" />
<path fill="black" stroke="black" stroke-width="1" d="M366.0,-274.3 L337.02222521132796,-266.5354286469244" />
<path fill="black" stroke="black" stroke-width="1" d="M360.0,-280.3 L330.11415905724766,-277.68532771757026" />
<path fill="black" stroke="black" stroke-width="1" d="M366.0,-286.3 L336.11415905724766,-288.91467228242976" />
<path fill="black" stroke="black" stroke-width="1" d="M434.0,-274.3 L462.97777478867204,-266.5354286469244" />
<path fill="black" stroke="black" stroke-width="1" d="M440.0,-280.3 L469.88584094275234,-277.68532771757026" />
<path fill="black" stroke="black" stroke-width="1" d="M434.0,-286.3 L463.88584094275234,-288.91467228242976" />
</g>
</svg>