<?xml version="1.0" encoding="UTF-8"?>
<svg xmlns="http://www.w3.org/2000/svg" xmlns:xlink="http://www.w3.org/1999/xlink"
     width="800" height="600" viewBox="0 -600 800 600">
<defs>
</defs>
<g>
<path fill="hsl(45, 53%, 78%)" stroke="black" stroke-width="1" d="M384.3845289055715,-186.97481367004514 L230.17869568851802,-134.779018802697 A17.6,17.6,0,0,1,216.61138621779628,-148.48915394464325 L270.419129351509,-302.139948862393" />
<path fill="hsl(45, 53%, 78%)" stroke="black" stroke-width="1" d="M415.6154710944285,-186.97481367004514 L569.821304311482,-134.779018802697 A17.6,17.6,0,0,0,583.3886137822037,-148.48915394464325 L529.580870648491,-302.139948862393" />
<path fill="hsl(45, 53%, 78%)" stroke="black" stroke-width="1" d="M208.1337184391171,-300.0 A191.8662815608829,155.9888467974658,0,0,0,591.866281560883,-300.0 A191.8662815608829,155.9888467974658,0,0,0,208.1337184391171,-300.0" />
<path fill="black" stroke="black" stroke-width="1" d="M342.2,-338.99721169936646 A7.800000000000001,15.0,0,0,0,357.8,-338.99721169936646 A7.800000000000001,15.0,0,0,0,342.2,-338.99721169936646" />
<path fill="black" stroke="black" stroke-width="1" d="M442.2,-338.99721169936646 A7.800000000000001,15.0,0,0,0,457.8,-338.99721169936646 A7.800000000000001,15.0,0,0,0,442.2,-338.99721169936646" />
<path fill="black" stroke="black" stroke-width="1" d="M387.4,-304.2 L412.6,-304.2 L400.0,-287.4 Z" />
<path fill="black" stroke="black" stroke-width="2" d="M400.0,-287.4 L400.0,-268.5" />
<path fill="none" stroke="black" stroke-width="2" d="M374.8,-264.5 A25.2,25.2,30,0,0,400.0,-268.5 A25.2,25.2,150,0,0,425.2,-264.5" />
<path fill="black" stroke="black" stroke-width="1" d="M366.0,-277.4 L356.34074173710934,-274.8118095489748" />
<path fill="black" stroke="black" stroke-width="1" d="M360.0,-283.4 L350.03805301908255,-282.5284425725234" />
<path fill="black" stroke="black" stroke-width="1" d="M366.0,-289.4 L356.03805301908255,-290.2715574274766" />
<path fill="black" stroke="black" stroke-width="1" d="M434.0,-277.4 L443.65925826289066,-274.8118095489748" />
<path fill="black" stroke="black" stroke-width="1" d="M440.0,-283.4 L449.96194698091745,-282.5284425725234" />
<path fill="black" stroke="black" stroke-width="1" d="M434.0,-289.4 L443.96194698091745,-290.2715574274766" />
</g>
</svg>