<?xml version="1.0" encoding="UTF-8"?>
<svg xmlns="http://www.w3.org/2000/svg" xmlns:xlink="http://www.w3.org/1999/xlink"
     width="800" height="600" viewBox="0 -600 800 600">
<defs>
</defs>
<g>
<path fill="hsl(45, 6%, 48%)" stroke="black" stroke-width="1" d="M330.52449937954145,-207.6526017449917 L165.30492673036815,-251.73766512959594 A39.2,39.2,0,0,1,156.00914561923105,-295.246786840168 L288.78833928872155,-402.99967881286614" />
<path fill="hsl(45, 6%, 48%)" stroke="black" stroke-width="1" d="M469.47550062045855,-207.6526017449917 L634.6950732696318,-251.73766512959594 A39.2,39.2,0,0,0,643.990854380769,-295.246786840168 L511.21166071127845,-402.99967881286614" />
<path fill="hsl(45, 6%, 48%)" stroke="black" stroke-width="1" d="M215.28654623985832,-300.0 A184.71345376014168,162.02934540363304,0,0,0,584.7134537601416,-300.0 A184.71345376014168,162.02934540363304,0,0,0,215.28654623985832,-300.0" />
<path fill="black" stroke="black" stroke-width="1" d="M320.533,-340.50733635090825 A7.4670000000000005,13.1,0,0,0,335.467,-340.50733635090825 A7.4670000000000005,13.1,0,0,0,320.533,-340.50733635090825" />
<path fill="black" stroke="black" stroke-width="1" d="M464.533,-340.50733635090825 A7.4670000000000005,13.1,0,0,0,479.467,-340.50733635090825 A7.4670000000000005,13.1,0,0,0,464.533,-340.50733635090825" />
<path fill="black" stroke="black" stroke-width="1" d="M385.4,-304.8666666666667 L414.6,-304.8666666666667 L400.0,-285.4 Z" />
<path fill="black" stroke="black" stroke-width="2" d="M400.0,-285.4 L400.0,-263.5" />
<path fill="none" stroke="black" stroke-width="2" d="M370.8,-259.5 A29.200000000000003,29.200000000000003,30,0,0,400.0,-263.5 A29.200000000000003,29.200000000000003,150,0,0,429.2,-259.5" />
<path fill="black" stroke="black" stroke-width="1" d="M366.0,-275.4 L341.8518543427733,-268.92952387243696" />
<path fill="black" stroke="black" stroke-width="1" d="M360.0,-281.4 L335.0951325477064,-279.22110643130856" />
<path fill="black" stroke="black" stroke-width="1" d="M366.0,-287.4 L341.0951325477064,-289.57889356869146" />
<path fill="black" stroke="black" stroke-width="1" d="M434.0,-275.4 L458.1481456572267,-268.92952387243696" />
<path fill="black" stroke="black" stroke-width="1" d="M440.0,-281.4 L464.9048674522936,-279.2211064313085" />
<path fill="black" stroke="black" stroke-width="1" d="M434.0,-287.4 L458.9048674522936,-289.57889356869146" />
</g>
</svg>