<?xml version="1.0" encoding="UTF-8"?>
<svg xmlns="http://www.w3.org/2000/svg" xmlns:xlink="http://www.w3.org/1999/xlink"
     width="800" height="600" viewBox="0 -600 800 600">
<defs>
</defs>
<g>
<path fill="hsl(45, 30%, 65%)" stroke="black" stroke-width="1" d="M391.969425371879,-204.0327269483077 L240.35586759396438,-196.51148383809488 A61.6,61.6,0,0,1,216.12136750986394,-248.86372976181832 L319.9583394076953,-359.59368626451453" />
<path fill="hsl(45, 30%, 65%)" stroke="black" stroke-width="1" d="M408.030574628121,-204.0327269483077 L559.6441324060356,-196.51148383809488 A61.6,61.6,0,0,0,583.878632490136,-248.86372976181832 L480.0416605923047,-359.59368626451453" />
<path fill="hsl(45, 30%, 65%)" stroke="black" stroke-width="1" d="M250.17760514529212,-300.0 A149.82239485470788,199.76319313961054,0,0,0,549.8223948547079,-300.0 A149.82239485470788,199.76319313961054,0,0,0,250.17760514529212,-300.0" />
<path fill="black" stroke="black" stroke-width="1" d="M336.926,-349.94079828490266 A7.074,13.1,0,0,0,351.074,-349.94079828490266 A7.074,13.1,0,0,0,336.926,-349.94079828490266" />
<path fill="black" stroke="black" stroke-width="1" d="M448.926,-349.94079828490266 A7.074,13.1,0,0,0,463.074,-349.94079828490266 A7.074,13.1,0,0,0,448.926,-349.94079828490266" />
<path fill="black" stroke="black" stroke-width="1" d="M387.5,-304.1666666666667 L412.5,-304.1666666666667 L400.0,-287.5 Z" />
<path fill="black" stroke="black" stroke-width="2" d="M400.0,-287.5 L400.0,-268.75" />
<path fill="none" stroke="black" stroke-width="2" d="M375.0,-264.75 A25.0,25.0,30,0,0,400.0,-268.75 A25.0,25.0,150,0,0,425.0,-264.75" />
<path fill="black" stroke="black" stroke-width="1" d="M366.0,-277.5 L319.6355603381247,-265.076685835079" />
<path fill="black" stroke="black" stroke-width="1" d="M360.0,-283.5 L312.1826544915962,-279.3165243481124" />
<path fill="black" stroke="black" stroke-width="1" d="M366.0,-289.5 L318.1826544915962,-293.6834756518876" />
<path fill="black" stroke="black" stroke-width="1" d="M434.0,-277.5 L480.3644396618753,-265.076685835079" />
<path fill="black" stroke="black" stroke-width="1" d="M440.0,-283.5 L487.8173455084038,-279.3165243481124" />
<path fill="black" stroke="black" stroke-width="1" d="M434.0,-289.5 L481.8173455084038,-293.6834756518876" />
</g>
</svg>