<?xml version="1.0" encoding="UTF-8"?>
<svg xmlns="http://www.w3.org/2000/svg" xmlns:xlink="http://www.w3.org/1999/xlink"
     width="800" height="600" viewBox="0 -600 800 600">
<defs>
</defs>
<g>
<path fill="hsl(45, 58%, 48%)" stroke="black" stroke-width="1" d="M318.73902757963856,-252.57827118662343 L198.72081581734767,-379.93850377663523 A53.6,53.6,0,0,1,219.313419690292,-420.8823391540131 L393.118283359527,-400.4649601616298" />
<path fill="hsl(45, 58%, 48%)" stroke="black" stroke-width="1" d="M481.26097242036144,-252.57827118662343 L601.2791841826523,-379.93850377663523 A53.6,53.6,0,0,0,580.686580309708,-420.8823391540131 L406.881716640473,-400.4649601616298" />
<path fill="hsl(45, 58%, 48%)" stroke="black" stroke-width="1" d="M234.0642292933799,-300.0 A165.9357707066201,180.36496815936965,0,0,0,565.9357707066201,-300.0 A165.9357707066201,180.36496815936965,0,0,0,234.0642292933799,-300.0" />
<path fill="black" stroke="black" stroke-width="1" d="M317.219,-345.0912420398424 A11.781,11.9,0,0,0,340.781,-345.0912420398424 A11.781,11.9,0,0,0,317.219,-345.0912420398424" />
<path fill="black" stroke="black" stroke-width="1" d="M459.219,-345.0912420398424 A11.781,11.9,0,0,0,482.781,-345.0912420398424 A11.781,11.9,0,0,0,459.219,-345.0912420398424" />
<path fill="black" stroke="black" stroke-width="1" d="M383.5,-305.5 L416.5,-305.5 L400.0,-283.5 Z" />
<path fill="black" stroke="black" stroke-width="2" d="M400.0,-283.5 L400.0,-258.75" />
<path fill="none" stroke="black" stroke-width="2" d="M367.0,-254.75 A33.0,33.0,30,0,0,400.0,-258.75 A33.0,33.0,150,0,0,433.0,-254.75" />
<path fill="black" stroke="black" stroke-width="1" d="M366.0,-273.5 L308.0444504226559,-257.9708572938488" />
<path fill="black" stroke="black" stroke-width="1" d="M360.0,-279.5 L300.22831811449527,-274.2706554351405" />
<path fill="black" stroke="black" stroke-width="1" d="M366.0,-285.5 L306.22831811449527,-290.7293445648595" />
<path fill="black" stroke="black" stroke-width="1" d="M434.0,-273.5 L491.9555495773441,-257.9708572938488" />
<path fill="black" stroke="black" stroke-width="1" d="M440.0,-279.5 L499.77168188550473,-274.2706554351405" />
<path fill="black" stroke="black" stroke-width="1" d="M434.0,-285.5 L493.77168188550473,-290.7293445648595" />
</g>
</svg>