<?xml version="1.0" encoding="UTF-8"?>
<svg xmlns="http://www.w3.org/2000/svg" xmlns:xlink="http://www.w3.org/1999/xlink"
     width="800" height="600" viewBox="0 -600 800 600">
<defs>
</defs>
<g>
<path fill="hsl(45, 37%, 76%)" stroke="black" stroke-width="1" d="M347.43992062610243,-186.3392672813315 L176.2406119483669,-218.53300437824885 A38.400000000000006,38.400000000000006,0,0,1,162.199498020772,-262.1351883410167 L282.44126406961095,-388.1810438756446" />
<path fill="hsl(45, 37%, 76%)" stroke="black" stroke-width="1" d="M452.56007937389757,-186.3392672813315 L623.7593880516331,-218.53300437824885 A38.400000000000006,38.400000000000006,0,0,0,637.800501979228,-262.1351883410167 L517.558735930389,-388.1810438756446" />
<path fill="hsl(45, 37%, 76%)" stroke="black" stroke-width="1" d="M219.3826973958475,-300.0 A180.6173026041525,165.7039473432592,0,0,0,580.6173026041525,-300.0 A180.6173026041525,165.7039473432592,0,0,0,219.3826973958475,-300.0" />
<path fill="black" stroke="black" stroke-width="1" d="M320.547,-341.4259868358148 A14.453,14.9,0,0,0,349.453,-341.4259868358148 A14.453,14.9,0,0,0,320.547,-341.4259868358148" />
<path fill="black" stroke="black" stroke-width="1" d="M450.547,-341.4259868358148 A14.453,14.9,0,0,0,479.453,-341.4259868358148 A14.453,14.9,0,0,0,450.547,-341.4259868358148" />
<path fill="black" stroke="black" stroke-width="1" d="M382.3,-305.9 L417.7,-305.9 L400.0,-282.3 Z" />
<path fill="black" stroke="black" stroke-width="2" d="M400.0,-282.3 L400.0,-255.75" />
<path fill="none" stroke="black" stroke-width="2" d="M364.6,-251.75 A35.4,35.4,30,0,0,400.0,-255.75 A35.4,35.4,150,0,0,435.4,-251.75" />
<path fill="black" stroke="black" stroke-width="1" d="M366.0,-272.3 L342.81778016906236,-266.08834291753953" />
<path fill="black" stroke="black" stroke-width="1" d="M360.0,-278.3 L336.0913272457981,-276.20826217405624" />
<path fill="black" stroke="black" stroke-width="1" d="M366.0,-284.3 L342.0913272457981,-286.39173782594384" />
<path fill="black" stroke="black" stroke-width="1" d="M434.0,-272.3 L457.18221983093764,-266.08834291753953" />
<path fill="black" stroke="black" stroke-width="1" d="M440.0,-278.3 L463.9086727542019,-276.2082621740562" />
<path fill="black" stroke="black" stroke-width="1" d="M434.0,-284.3 L457.9086727542019,-286.39173782594384" />
</g>
</svg>