<?xml version="1.0" encoding="UTF-8"?>
<svg xmlns="http://www.w3.org/2000/svg" xmlns:xlink="http://www.w3.org/1999/xlink"
     width="800" height="600" viewBox="0 -600 800 600">
<defs>
</defs>
<g>
<path fill="hsl(45, 56%, 47%)" stroke="black" stroke-width="1" d="M331.4059061018139,-258.56713847927057 L182.02011555712022,-387.6045190452791 A30.400000000000002,30.400000000000002,0,0,1,190.6647522590331,-419.16070650415975 L384.9571555657685,-454.04941552717816" />
<path fill="hsl(45, 56%, 47%)" stroke="black" stroke-width="1" d="M468.5940938981861,-258.56713847927057 L617.9798844428798,-387.6045190452791 A30.400000000000002,30.400000000000002,0,0,0,609.3352477409669,-419.16070650415975 L415.0428444342315,-454.04941552717816" />
<path fill="hsl(45, 56%, 47%)" stroke="black" stroke-width="1" d="M239.56640002792432,-300.0 A160.43359997207568,186.55069764194846,0,0,0,560.4335999720756,-300.0 A160.43359997207568,186.55069764194846,0,0,0,239.56640002792432,-300.0" />
<path fill="black" stroke="black" stroke-width="1" d="M332.406,-346.63767441048714 A9.594,11.7,0,0,0,351.594,-346.63767441048714 A9.594,11.7,0,0,0,332.406,-346.63767441048714" />
<path fill="black" stroke="black" stroke-width="1" d="M448.406,-346.63767441048714 A9.594,11.7,0,0,0,467.594,-346.63767441048714 A9.594,11.7,0,0,0,448.406,-346.63767441048714" />
<path fill="black" stroke="black" stroke-width="1" d="M382.7,-305.76666666666665 L417.3,-305.76666666666665 L400.0,-282.7 Z" />
<path fill="black" stroke="black" stroke-width="2" d="M400.0,-282.7 L400.0,-256.75" />
<path fill="none" stroke="black" stroke-width="2" d="M365.4,-252.75 A34.6,34.6,30,0,0,400.0,-256.75 A34.6,34.6,150,0,0,434.6,-252.75" />
<path fill="black" stroke="black" stroke-width="1" d="M366.0,-272.7 L349.57926095308585,-268.30007623325713" />
<path fill="black" stroke="black" stroke-width="1" d="M360.0,-278.7 L343.0646901324403,-277.2183523732898" />
<path fill="black" stroke="black" stroke-width="1" d="M366.0,-284.7 L349.0646901324403,-286.1816476267102" />
<path fill="black" stroke="black" stroke-width="1" d="M434.0,-272.7 L450.42073904691415,-268.30007623325713" />
<path fill="black" stroke="black" stroke-width="1" d="M440.0,-278.7 L456.9353098675597,-277.2183523732898" />
<path fill="black" stroke="black" stroke-width="1" d="M434.0,-284.7 L450.9353098675597,-286.1816476267102" />
</g>
</svg>