<?xml version="1.0" encoding="UTF-8"?>
<svg xmlns="http://www.w3.org/2000/svg" xmlns:xlink="http://www.w3.org/1999/xlink"
     width="800" height="600" viewBox="0 -600 800 600">
<defs>
</defs>
<g>
<path fill="hsl(45, 18%, 39%)" stroke="black" stroke-width="1" d="M347.37451446707655,-206.80371996660722 L181.66327662356377,-216.59073444349207 A34.4,34.4,0,0,1,168.81287415407735,-249.85875012169748 L284.91558153399126,-368.5017496583498" />
<path fill="hsl(45, 18%, 39%)" stroke="black" stroke-width="1" d="M452.62548553292345,-206.80371996660722 L618.3367233764362,-216.59073444349207 A34.4,34.4,0,0,0,631.1871258459227,-249.85875012169748 L515.0844184660087,-368.5017496583498" />
<path fill="hsl(45, 18%, 39%)" stroke="black" stroke-width="1" d="M220.21312617435052,-300.0 A179.78687382564948,166.46932761634207,0,0,0,579.7868738256495,-300.0 A179.78687382564948,166.46932761634207,0,0,0,220.21312617435052,-300.0" />
<path fill="black" stroke="black" stroke-width="1" d="M337.865,-341.6173319040855 A11.135000000000002,13.1,0,0,0,360.135,-341.6173319040855 A11.135000000000002,13.1,0,0,0,337.865,-341.6173319040855" />
<path fill="black" stroke="black" stroke-width="1" d="M439.865,-341.6173319040855 A11.135000000000002,13.1,0,0,0,462.135,-341.6173319040855 A11.135000000000002,13.1,0,0,0,439.865,-341.6173319040855" />
<path fill="black" stroke="black" stroke-width="1" d="M388.3,-303.9 L411.7,-303.9 L400.0,-288.3 Z" />
<path fill="black" stroke="black" stroke-width="2" d="M400.0,-288.3 L400.0,-270.75" />
<path fill="none" stroke="black" stroke-width="2" d="M376.6,-266.75 A23.4,23.4,30,0,0,400.0,-270.75 A23.4,23.4,150,0,0,423.4,-266.75" />
<path fill="black" stroke="black" stroke-width="1" d="M366.0,-278.3 L352.477038431953,-274.6765333685647" />
<path fill="black" stroke="black" stroke-width="1" d="M360.0,-284.3 L346.0532742267156,-283.0798196015328" />
<path fill="black" stroke="black" stroke-width="1" d="M366.0,-290.3 L352.0532742267156,-291.52018039846723" />
<path fill="black" stroke="black" stroke-width="1" d="M434.0,-278.3 L447.522961568047,-274.6765333685647" />
<path fill="black" stroke="black" stroke-width="1" d="M440.0,-284.3 L453.9467257732844,-283.0798196015328" />
<path fill="black" stroke="black" stroke-width="1" d="M434.0,-290.3 L447.9467257732844,-291.52018039846723" />
</g>
</svg>