<?xml version="1.0" encoding="UTF-8"?>
<svg xmlns="http://www.w3.org/2000/svg" xmlns:xlink="http://www.w3.org/1999/xlink"
     width="800" height="600" viewBox="0 -600 800 600">
<defs>
</defs>
<g>
<path fill="hsl(45, 20%, 48%)" stroke="black" stroke-width="1" d="M413.65474141505933,-193.8148992587486 L214.7507660164771,-116.50533600399855 A8.8,8.8,0,0,1,208.39698046876435,-122.80611393016238 L284.03751624172037,-322.3507689524911" />
<path fill="hsl(45, 20%, 48%)" stroke="black" stroke-width="1" d="M386.34525858494067,-193.8148992587486 L585.2492339835229,-116.50533600399855 A8.8,8.8,0,0,0,591.6030195312356,-122.80611393016238 L515.9624837582796,-322.3507689524911" />
<path fill="hsl(45, 20%, 48%)" stroke="black" stroke-width="1" d="M249.1820965534927,-300.0 A150.8179034465073,198.44460979803594,0,0,0,550.8179034465073,-300.0 A150.8179034465073,198.44460979803594,0,0,0,249.1820965534927,-300.0" />
<path fill="black" stroke="black" stroke-width="1" d="M332.262,-349.611152449509 A7.738000000000001,14.600000000000001,0,0,0,347.738,-349.611152449509 A7.738000000000001,14.600000000000001,0,0,0,332.262,-349.611152449509" />
<path fill="black" stroke="black" stroke-width="1" d="M452.262,-349.611152449509 A7.738000000000001,14.600000000000001,0,0,0,467.738,-349.611152449509 A7.738000000000001,14.600000000000001,0,0,0,452.262,-349.611152449509" />
<path fill="black" stroke="black" stroke-width="1" d="M387.0,-304.3333333333333 L413.0,-304.3333333333333 L400.0,-287.0 Z" />
<path fill="black" stroke="black" stroke-width="2" d="M400.0,-287.0 L400.0,-267.5" />
<path fill="none" stroke="black" stroke-width="2" d="M374.0,-263.5 A26.0,26.0,30,0,0,400.0,-267.5 A26.0,26.0,150,0,0,426.0,-263.5" />
<path fill="black" stroke="black" stroke-width="1" d="M366.0,-277.0 L326.3970411221482,-266.38841915079666" />
<path fill="black" stroke="black" stroke-width="1" d="M360.0,-283.0 L319.1560173782384,-279.42661454734605" />
<path fill="black" stroke="black" stroke-width="1" d="M366.0,-289.0 L325.1560173782384,-292.573385452654" />
<path fill="black" stroke="black" stroke-width="1" d="M434.0,-277.0 L473.6029588778518,-266.38841915079666" />
<path fill="black" stroke="black" stroke-width="1" d="M440.0,-283.0 L480.8439826217616,-279.426614547346" />
<path fill="black" stroke="black" stroke-width="1" d="M434.0,-289.0 L474.8439826217616,-292.573385452654" />
</g>
</svg>