<?xml version="1.0" encoding="UTF-8"?>
<svg xmlns="http://www.w3.org/2000/svg" xmlns:xlink="http://www.w3.org/1999/xlink"
     width="800" height="600" viewBox="0 -600 800 600">
<defs>
</defs>
<g>
<path fill="hsl(45, 13%, 56%)" stroke="black" stroke-width="1" d="M314.34489326722564,-248.5817400933008 L153.54938074377446,-416.37495554708676 A2.4000000000000004,2.4000000000000004,0,0,1,154.4301089325087,-419.0505574597591 L383.4526984765761,-458.52730350764966" />
<path fill="hsl(45, 13%, 56%)" stroke="black" stroke-width="1" d="M485.65510673277436,-248.5817400933008 L646.4506192562255,-416.37495554708676 A2.4000000000000004,2.4000000000000004,0,0,0,645.5698910674913,-419.0505574597591 L416.5473015234239,-458.52730350764966" />
<path fill="hsl(45, 13%, 56%)" stroke="black" stroke-width="1" d="M234.0642292933799,-300.0 A165.9357707066201,180.36496815936965,0,0,0,565.9357707066201,-300.0 A165.9357707066201,180.36496815936965,0,0,0,234.0642292933799,-300.0" />
<path fill="black" stroke="black" stroke-width="1" d="M333.4,-345.0912420398424 A11.6,11.6,0,0,0,356.6,-345.0912420398424 A11.6,11.6,0,0,0,333.4,-345.0912420398424" />
<path fill="black" stroke="black" stroke-width="1" d="M443.4,-345.0912420398424 A11.6,11.6,0,0,0,466.6,-345.0912420398424 A11.6,11.6,0,0,0,443.4,-345.0912420398424" />
<path fill="black" stroke="black" stroke-width="1" d="M385.0,-305.0 L415.0,-305.0 L400.0,-285.0 Z" />
<path fill="black" stroke="black" stroke-width="2" d="M400.0,-285.0 L400.0,-262.5" />
<path fill="none" stroke="black" stroke-width="2" d="M370.0,-258.5 A30.0,30.0,30,0,0,400.0,-262.5 A30.0,30.0,150,0,0,430.0,-258.5" />
<path fill="black" stroke="black" stroke-width="1" d="M366.0,-275.0 L329.29481860101544,-265.16487628610423" />
<path fill="black" stroke="black" stroke-width="1" d="M360.0,-281.0 L322.14460147251367,-277.688081775589" />
<path fill="black" stroke="black" stroke-width="1" d="M366.0,-287.0 L328.14460147251367,-290.311918224411" />
<path fill="black" stroke="black" stroke-width="1" d="M434.0,-275.0 L470.70518139898456,-265.16487628610423" />
<path fill="black" stroke="black" stroke-width="1" d="M440.0,-281.0 L477.85539852748633,-277.688081775589" />
<path fill="black" stroke="black" stroke-width="1" d="M434.0,-287.0 L471.85539852748633,-290.311918224411" />
</g>
</svg>