<?xml version="1.0" encoding="UTF-8"?>
<svg xmlns="http://www.w3.org/2000/svg" xmlns:xlink="http://www.w3.org/1999/xlink"
     width="800" height="600" viewBox="0 -600 800 600">
<defs>
</defs>
<g>
<path d="M288.79438494200986,-295.12468625676723 L197.77831238912927,-468.4847581794819 A0.0,0.0,0,0,1,197.77831238912927,-468.4847581794818 L389.0838358635539,-426.7734085468414" stroke-width="1" stroke="black" fill="hsl(45, 60%, 64%)" />
<path d="M511.20561505799014,-295.12468625676723 L602.2216876108707,-468.4847581794819 A0.0,0.0,0,0,0,602.2216876108707,-468.4847581794818 L410.9161641364461,-426.7734085468414" stroke-width="1" stroke="black" fill="hsl(45, 60%, 64%)" />
<path d="M203.50977123531055,-300.0 A196.49022876468945,152.31800679433294,0,0,0,596.4902287646894,-300.0 A196.49022876468945,152.31800679433294,0,0,0,203.50977123531055,-300.0" stroke-width="1" stroke="black" fill="hsl(45, 60%, 64%)" />
<path d="M319.91,-338.0795016985832 A12.09,13.0,0,0,0,344.09,-338.0795016985832 A12.09,13.0,0,0,0,319.91,-338.0795016985832" stroke-width="1" stroke="black" fill="black" />
<path d="M455.91,-338.0795016985832 A12.09,13.0,0,0,0,480.09,-338.0795016985832 A12.09,13.0,0,0,0,455.91,-338.0795016985832" stroke-width="1" stroke="black" fill="black" />
<path d="M385.9,-304.7 L414.1,-304.7 L400.0,-285.9 Z" stroke-width="1" stroke="black" fill="black" />
<path d="M400.0,-285.9 L400.0,-264.75" stroke-width="2" stroke="black" fill="black" />
<path d="M371.8,-260.75 A28.2,28.2,30,0,0,400.0,-264.75 A28.2,28.2,150,0,0,428.2,-260.75" fill="none" stroke-width="2" stroke="black" />
<path d="M366.0,-275.9 L308.0444504226559,-260.37085729384876" stroke-width="1" stroke="black" fill="black" />
<path d="M360.0,-281.9 L300.22831811449527,-276.6706554351405" stroke-width="1" stroke="black" fill="black" />
<path d="M366.0,-287.9 L306.22831811449527,-293.1293445648595" stroke-width="1" stroke="black" fill="black" />
<path d="M434.0,-275.9 L491.9555495773441,-260.37085729384876" stroke-width="1" stroke="black" fill="black" />
<path d="M440.0,-281.9 L499.77168188550473,-276.6706554351405" stroke-width="1" stroke="black" fill="black" />
<path d="M434.0,-287.9 L493.77168188550473,-293.1293445648595" stroke-width="1" stroke="black" fill="black" />
</g>
</svg>