<?xml version="1.0" encoding="UTF-8"?>
<svg xmlns="http://www.w3.org/2000/svg" xmlns:xlink="http://www.w3.org/1999/xlink"
     width="800" height="600" viewBox="0 -600 800 600">
<defs>
</defs>
<g>
<path d="M414.263136691884,-206.6388175217685 L217.7795710565889,-169.2997169000247 A51.2,51.2,0,0,1,182.19512613028644,-215.2410979470394 L267.47730137088615,-396.14701434070423" stroke-width="1" stroke="black" fill="hsl(45, 25%, 45%)" />
<path d="M385.736863308116,-206.6388175217685 L582.2204289434111,-169.2997169000247 A51.2,51.2,0,0,0,617.8048738697136,-215.2410979470394 L532.5226986291138,-396.14701434070423" stroke-width="1" stroke="black" fill="hsl(45, 25%, 45%)" />
<path d="M243.3418371102227,-300.0 A156.6581628897773,191.04654010948454,0,0,0,556.6581628897773,-300.0 A156.6581628897773,191.04654010948454,0,0,0,243.3418371102227,-300.0" stroke-width="1" stroke="black" fill="hsl(45, 25%, 45%)" />
<path d="M340.496,-347.76163502737114 A9.504000000000001,14.4,0,0,0,359.504,-347.76163502737114 A9.504000000000001,14.4,0,0,0,340.496,-347.76163502737114" stroke-width="1" stroke="black" fill="black" />
<path d="M440.496,-347.76163502737114 A9.504000000000001,14.4,0,0,0,459.504,-347.76163502737114 A9.504000000000001,14.4,0,0,0,440.496,-347.76163502737114" stroke-width="1" stroke="black" fill="black" />
<path d="M380.0,-306.6666666666667 L420.0,-306.6666666666667 L400.0,-280.0 Z" stroke-width="1" stroke="black" fill="black" />
<path d="M400.0,-280.0 L400.0,-250.0" stroke-width="2" stroke="black" fill="black" />
<path d="M360.0,-246.0 A40.0,40.0,30,0,0,400.0,-250.0 A40.0,40.0,150,0,0,440.0,-246.0" fill="none" stroke-width="2" stroke="black" />
<path d="M366.0,-270.0 L352.477038431953,-266.3765333685647" stroke-width="1" stroke="black" fill="black" />
<path d="M360.0,-276.0 L346.0532742267156,-274.7798196015328" stroke-width="1" stroke="black" fill="black" />
<path d="M366.0,-282.0 L352.0532742267156,-283.2201803984672" stroke-width="1" stroke="black" fill="black" />
<path d="M434.0,-270.0 L447.522961568047,-266.3765333685647" stroke-width="1" stroke="black" fill="black" />
<path d="M440.0,-276.0 L453.9467257732844,-274.7798196015328" stroke-width="1" stroke="black" fill="black" />
<path d="M434.0,-282.0 L447.9467257732844,-283.2201803984672" stroke-width="1" stroke="black" fill="black" />
</g>
</svg>