<?xml version="1.0" encoding="UTF-8"?>
<svg xmlns="http://www.w3.org/2000/svg" xmlns:xlink="http://www.w3.org/1999/xlink"
     width="800" height="600" viewBox="0 -600 800 600">
<defs>
</defs>
<g>
<path d="M300.3925123864815,-288.0688684816498 L184.8546017084035,-467.4861229365781 A0.0,0.0,0,0,1,184.8546017084035,-467.486122936578 L394.1759504631914,-425.9634429234038" stroke-width="1" stroke="black" fill="hsl(45, 60%, 64%)" />
<path d="M499.6074876135185,-288.0688684816498 L615.1453982915965,-467.4861229365781 A0.0,0.0,0,0,0,615.1453982915965,-467.486122936578 L405.8240495368086,-425.9634429234038" stroke-width="1" stroke="black" fill="hsl(45, 60%, 64%)" />
<path d="M200.48666711219522,-300.0 A199.51333288780478,150.01002472767274,0,0,0,599.5133328878048,-300.0 A199.51333288780478,150.01002472767274,0,0,0,200.48666711219522,-300.0" stroke-width="1" stroke="black" fill="hsl(45, 60%, 64%)" />
<path d="M320.25,-337.5025061819182 A11.75,12.5,0,0,0,343.75,-337.5025061819182 A11.75,12.5,0,0,0,320.25,-337.5025061819182" stroke-width="1" stroke="black" fill="black" />
<path d="M456.25,-337.5025061819182 A11.75,12.5,0,0,0,479.75,-337.5025061819182 A11.75,12.5,0,0,0,456.25,-337.5025061819182" stroke-width="1" stroke="black" fill="black" />
<path d="M384.1,-305.3 L415.9,-305.3 L400.0,-284.1 Z" stroke-width="1" stroke="black" fill="black" />
<path d="M400.0,-284.1 L400.0,-260.25" stroke-width="2" stroke="black" fill="black" />
<path d="M368.2,-256.25 A31.8,31.8,30,0,0,400.0,-260.25 A31.8,31.8,150,0,0,431.8,-256.25" fill="none" stroke-width="2" stroke="black" />
<path d="M366.0,-274.1 L308.0444504226559,-258.5708572938488" stroke-width="1" stroke="black" fill="black" />
<path d="M360.0,-280.1 L300.22831811449527,-274.8706554351405" stroke-width="1" stroke="black" fill="black" />
<path d="M366.0,-286.1 L306.22831811449527,-291.3293445648595" stroke-width="1" stroke="black" fill="black" />
<path d="M434.0,-274.1 L491.9555495773441,-258.5708572938488" stroke-width="1" stroke="black" fill="black" />
<path d="M440.0,-280.1 L499.77168188550473,-274.8706554351405" stroke-width="1" stroke="black" fill="black" />
<path d="M434.0,-286.1 L493.77168188550473,-291.3293445648595" stroke-width="1" stroke="black" fill="black" />
</g>
</svg>