<?xml version="1.0" encoding="utf-8" ?>
<svg baseProfile="full" height="100%" version="1.1" width="100%" xmlns="http://www.w3.org/2000/svg" xmlns:ev="http://www.w3.org/2001/xml-events" xmlns:xlink="http://www.w3.org/1999/xlink"><defs /><path d="M 365.61 403.65 L 231.23 416.59 A 32.0 32.0 0 0,1 201.43433332244535 381.69831400260057 L 235.24 251.00" style="fill:hsl(45, 60%, 50%);stroke-width:1.00;stroke:rgb(0, 0, 0)" /><path d="M 434.39 403.65 L 568.77 416.59 A 40.0 40.0 0 0,0 598.5656666775546 381.69831400260057 L 564.76 251.00" style="fill:hsl(45, 60%, 50%);stroke-width:1.00;stroke:rgb(0, 0, 0)" /><ellipse cx="400.0" cy="300.0" rx="180.0" ry="150" style="fill:hsl(45, 60%, 50%);stroke-width:1.00;stroke:rgb(0, 0, 0)" /><ellipse cx="340.0" cy="262.5" rx="7.0" ry="14.0" style="fill:hsl(0, 0%, 0%);stroke-width:1.00;stroke:rgb(0, 0, 0)" /><ellipse cx="460.0" cy="262.5" rx="7.0" ry="14.0" style="fill:hsl(0, 0%, 0%);stroke-width:1.00;stroke:rgb(0, 0, 0)" /><polygon points="380.0,293.3333333333333 420.0,293.3333333333333 400.0,320.0" style="fill:hsl(0, 0%, 0%);stroke-width:1.00;stroke:rgb(0, 0, 0)" /><line style="fill:hsl(0, 0%, 0%);stroke-width:2.00;stroke:rgb(0, 0, 0)" x1="400.0" x2="400.0" y1="320.0" y2="340.0" /><path d="M 370 344 A 20 14 30 0,0 400.0 340.0 A 20 14 150 0,0 430.0 344.0" style="fill:none;stroke-width:2.00;stroke:rgb(0, 0, 0)" /><line style="fill:hsl(0, 0%, 0%);stroke-width:1.00;stroke:rgb(0, 0, 0)" x1="366.0" x2="365.0340741737109" y1="330.0" y2="330.25881904510254" /><line style="fill:hsl(0, 0%, 0%);stroke-width:1.00;stroke:rgb(0, 0, 0)" x1="360.0" x2="359.00380530190824" y1="324.0" y2="324.08715574274765" /><line style="fill:hsl(0, 0%, 0%);stroke-width:1.00;stroke:rgb(0, 0, 0)" x1="366.0" x2="365.00380530190824" y1="318.0" y2="317.91284425725235" /><line style="fill:hsl(0, 0%, 0%);stroke-width:1.00;stroke:rgb(0, 0, 0)" x1="434.0" x2="434.9659258262891" y1="330.0" y2="330.25881904510254" /><line style="fill:hsl(0, 0%, 0%);stroke-width:1.00;stroke:rgb(0, 0, 0)" x1="440.0" x2="440.99619469809176" y1="324.0" y2="324.08715574274765" /><line style="fill:hsl(0, 0%, 0%);stroke-width:1.00;stroke:rgb(0, 0, 0)" x1="434.0" x2="434.99619469809176" y1="318.0" y2="317.91284425725235" /></svg>