<?xml version="1.0" encoding="utf-8" ?>
<svg baseProfile="full" height="100%" version="1.1" width="100%" xmlns="http://www.w3.org/2000/svg" xmlns:ev="http://www.w3.org/2001/xml-events" xmlns:xlink="http://www.w3.org/1999/xlink"><defs /><path d="M 289.81 370.14 L 163.98 308.77 A 16.0 16.0 0 0,1 161.54291922913944 287.4135921790033 L 270.34 199.31" style="fill:hsl(45, 40%, 80%);stroke-width:1.00;stroke:rgb(0, 0, 0)" /><path d="M 510.19 370.14 L 636.02 308.77 A 20.0 20.0 0 0,0 638.4570807708606 287.4135921790033 L 529.66 199.31" style="fill:hsl(45, 40%, 80%);stroke-width:1.00;stroke:rgb(0, 0, 0)" /><ellipse cx="400.0" cy="300.0" rx="190.0" ry="150" style="fill:hsl(45, 40%, 80%);stroke-width:1.00;stroke:rgb(0, 0, 0)" /><ellipse cx="330.0" cy="262.5" rx="9.75" ry="13.0" style="fill:hsl(0, 0%, 0%);stroke-width:1.00;stroke:rgb(0, 0, 0)" /><ellipse cx="470.0" cy="262.5" rx="9.75" ry="13.0" style="fill:hsl(0, 0%, 0%);stroke-width:1.00;stroke:rgb(0, 0, 0)" /><polygon points="382.0,294.0 418.0,294.0 400.0,318.0" style="fill:hsl(0, 0%, 0%);stroke-width:1.00;stroke:rgb(0, 0, 0)" /><line style="fill:hsl(0, 0%, 0%);stroke-width:2.00;stroke:rgb(0, 0, 0)" x1="400.0" x2="400.0" y1="318.0" y2="338.0" /><path d="M 370 342 A 20 14 30 0,0 400.0 338.0 A 20 14 150 0,0 430.0 342.0" style="fill:none;stroke-width:2.00;stroke:rgb(0, 0, 0)" /><line style="fill:hsl(0, 0%, 0%);stroke-width:1.00;stroke:rgb(0, 0, 0)" x1="366.0" x2="337.02222521132796" y1="328.0" y2="335.7645713530756" /><line style="fill:hsl(0, 0%, 0%);stroke-width:1.00;stroke:rgb(0, 0, 0)" x1="360.0" x2="330.11415905724766" y1="322.0" y2="324.61467228242975" /><line style="fill:hsl(0, 0%, 0%);stroke-width:1.00;stroke:rgb(0, 0, 0)" x1="366.0" x2="336.11415905724766" y1="316.0" y2="313.38532771757025" /><line style="fill:hsl(0, 0%, 0%);stroke-width:1.00;stroke:rgb(0, 0, 0)" x1="434.0" x2="462.97777478867204" y1="328.0" y2="335.7645713530756" /><line style="fill:hsl(0, 0%, 0%);stroke-width:1.00;stroke:rgb(0, 0, 0)" x1="440.0" x2="469.88584094275234" y1="322.0" y2="324.61467228242975" /><line style="fill:hsl(0, 0%, 0%);stroke-width:1.00;stroke:rgb(0, 0, 0)" x1="434.0" x2="463.88584094275234" y1="316.0" y2="313.38532771757025" /></svg>