<?xml version="1.0" encoding="utf-8" ?>
<svg baseProfile="full" height="100%" version="1.1" width="100%" xmlns="http://www.w3.org/2000/svg" xmlns:ev="http://www.w3.org/2001/xml-events" xmlns:xlink="http://www.w3.org/1999/xlink"><defs /><path d="M 279.36 287.67 L 220.75 149.60 A 0.0 0.0 0 0,1 220.75470712783567 149.59534086070332 L 369.64 167.88" style="fill:hsl(45, 40%, 30%);stroke-width:1.00;stroke:rgb(0, 0, 0)" /><path d="M 520.64 287.67 L 579.25 149.60 A 0.0 0.0 0 0,0 579.2452928721643 149.59534086070332 L 430.36 167.88" style="fill:hsl(45, 40%, 30%);stroke-width:1.00;stroke:rgb(0, 0, 0)" /><ellipse cx="400.0" cy="300.0" rx="200.0" ry="150" style="fill:hsl(45, 40%, 30%);stroke-width:1.00;stroke:rgb(0, 0, 0)" /><ellipse cx="320.0" cy="262.5" rx="12.0" ry="12.0" style="fill:hsl(0, 0%, 0%);stroke-width:1.00;stroke:rgb(0, 0, 0)" /><ellipse cx="480.0" cy="262.5" rx="12.0" ry="12.0" style="fill:hsl(0, 0%, 0%);stroke-width:1.00;stroke:rgb(0, 0, 0)" /><polygon points="384.0,294.6666666666667 416.0,294.6666666666667 400.0,316.0" style="fill:hsl(0, 0%, 0%);stroke-width:1.00;stroke:rgb(0, 0, 0)" /><line style="fill:hsl(0, 0%, 0%);stroke-width:2.00;stroke:rgb(0, 0, 0)" x1="400.0" x2="400.0" y1="316.0" y2="336.0" /><path d="M 370 340 A 20 14 30 0,0 400.0 336.0 A 20 14 150 0,0 430.0 340.0" style="fill:none;stroke-width:2.00;stroke:rgb(0, 0, 0)" /><line style="fill:hsl(0, 0%, 0%);stroke-width:1.00;stroke:rgb(0, 0, 0)" x1="366.0" x2="308.0444504226559" y1="326.0" y2="341.5291427061512" /><line style="fill:hsl(0, 0%, 0%);stroke-width:1.00;stroke:rgb(0, 0, 0)" x1="360.0" x2="300.22831811449527" y1="320.0" y2="325.2293445648595" /><line style="fill:hsl(0, 0%, 0%);stroke-width:1.00;stroke:rgb(0, 0, 0)" x1="366.0" x2="306.22831811449527" y1="314.0" y2="308.7706554351405" /><line style="fill:hsl(0, 0%, 0%);stroke-width:1.00;stroke:rgb(0, 0, 0)" x1="434.0" x2="491.9555495773441" y1="326.0" y2="341.5291427061512" /><line style="fill:hsl(0, 0%, 0%);stroke-width:1.00;stroke:rgb(0, 0, 0)" x1="440.0" x2="499.77168188550473" y1="320.0" y2="325.2293445648595" /><line style="fill:hsl(0, 0%, 0%);stroke-width:1.00;stroke:rgb(0, 0, 0)" x1="434.0" x2="493.77168188550473" y1="314.0" y2="308.7706554351405" /></svg>