<?xml version="1.0" encoding="utf-8" ?>
<svg baseProfile="full" height="100%" version="1.1" width="100%" xmlns="http://www.w3.org/2000/svg" xmlns:ev="http://www.w3.org/2001/xml-events" xmlns:xlink="http://www.w3.org/1999/xlink"><defs /><path d="M 425.26 366.03 L 315.52 487.90 A 80.0 80.0 0 0,1 252.0991455936503 462.2774817574667 L 257.82 298.38" style="fill:hsl(45, 40%, 80%);stroke-width:1.00;stroke:rgb(0, 0, 0)" /><path d="M 374.74 366.03 L 484.48 487.90 A 80.0 80.0 0 0,0 547.9008544063497 462.2774817574667 L 542.18 298.38" style="fill:hsl(45, 40%, 80%);stroke-width:1.00;stroke:rgb(0, 0, 0)" /><ellipse cx="400.0" cy="300.0" rx="149.82239485470788" ry="199.76319313961054" style="fill:hsl(45, 40%, 80%);stroke-width:1.00;stroke:rgb(0, 0, 0)" /><ellipse cx="350.0" cy="250.05920171509737" rx="7.5" ry="15.0" style="fill:hsl(0, 0%, 0%);stroke-width:1.00;stroke:rgb(0, 0, 0)" /><ellipse cx="450.0" cy="250.05920171509737" rx="7.5" ry="15.0" style="fill:hsl(0, 0%, 0%);stroke-width:1.00;stroke:rgb(0, 0, 0)" /><polygon points="380.0,293.3333333333333 420.0,293.3333333333333 400.0,320.0" style="fill:hsl(0, 0%, 0%);stroke-width:1.00;stroke:rgb(0, 0, 0)" /><line style="fill:hsl(0, 0%, 0%);stroke-width:2.00;stroke:rgb(0, 0, 0)" x1="400.0" x2="400.0" y1="320.0" y2="350.0" /><path d="M 360 354 A 40.0 40.0 30 0,0 400.0 350.0 A 40.0 40.0 150 0,0 440.0 354.0" style="fill:none;stroke-width:2.00;stroke:rgb(0, 0, 0)" /><line style="fill:hsl(0, 0%, 0%);stroke-width:1.00;stroke:rgb(0, 0, 0)" x1="366.0" x2="365.0340741737109" y1="330.0" y2="330.25881904510254" /><line style="fill:hsl(0, 0%, 0%);stroke-width:1.00;stroke:rgb(0, 0, 0)" x1="360.0" x2="359.00380530190824" y1="324.0" y2="324.08715574274765" /><line style="fill:hsl(0, 0%, 0%);stroke-width:1.00;stroke:rgb(0, 0, 0)" x1="366.0" x2="365.00380530190824" y1="318.0" y2="317.91284425725235" /><line style="fill:hsl(0, 0%, 0%);stroke-width:1.00;stroke:rgb(0, 0, 0)" x1="434.0" x2="434.9659258262891" y1="330.0" y2="330.25881904510254" /><line style="fill:hsl(0, 0%, 0%);stroke-width:1.00;stroke:rgb(0, 0, 0)" x1="440.0" x2="440.99619469809176" y1="324.0" y2="324.08715574274765" /><line style="fill:hsl(0, 0%, 0%);stroke-width:1.00;stroke:rgb(0, 0, 0)" x1="434.0" x2="434.99619469809176" y1="318.0" y2="317.91284425725235" /></svg>