<?xml version="1.0" encoding="UTF-8"?>
<svg xmlns="http://www.w3.org/2000/svg" xmlns:xlink="http://www.w3.org/1999/xlink"
     width="800" height="600" viewBox="0 -600 800 600">
<defs>
</defs>
<g>
<path d="M283.6752368968547,-255.77458929349157 L149.71726197349994,-430.2889467384705 A0.0,0.0,0,0,1,149.71726197349994,-430.2889467384705 L369.64287524113354,-424.5684022840245" stroke-width="1" stroke="black" fill="hsl(45, 50%, 54%)" />
<path d="M516.3247631031453,-255.77458929349157 L650.2827380265,-430.2889467384705 A0.0,0.0,0,0,0,650.2827380265,-430.2889467384705 L430.35712475886646,-424.5684022840245" stroke-width="1" stroke="black" fill="hsl(45, 50%, 54%)" />
<path d="M208.1337184391171,-300.0 A191.8662815608829,155.9888467974658,0,0,0,591.866281560883,-300.0 A191.8662815608829,155.9888467974658,0,0,0,208.1337184391171,-300.0" stroke-width="1" stroke="black" fill="hsl(45, 50%, 54%)" />
<path d="M319.5,-338.99721169936646 A12.5,12.5,0,0,0,344.5,-338.99721169936646 A12.5,12.5,0,0,0,319.5,-338.99721169936646" stroke-width="1" stroke="black" fill="black" />
<path d="M455.5,-338.99721169936646 A12.5,12.5,0,0,0,480.5,-338.99721169936646 A12.5,12.5,0,0,0,455.5,-338.99721169936646" stroke-width="1" stroke="black" fill="black" />
<path d="M384.6,-305.1333333333333 L415.4,-305.1333333333333 L400.0,-284.6 Z" stroke-width="1" stroke="black" fill="black" />
<path d="M400.0,-284.6 L400.0,-261.5" stroke-width="2" stroke="black" fill="black" />
<path d="M369.2,-257.5 A30.8,30.8,30,0,0,400.0,-261.5 A30.8,30.8,150,0,0,430.8,-257.5" fill="none" stroke-width="2" stroke="black" />
<path d="M366.0,-274.6 L308.0444504226559,-259.0708572938488" stroke-width="1" stroke="black" fill="black" />
<path d="M360.0,-280.6 L300.22831811449527,-275.3706554351405" stroke-width="1" stroke="black" fill="black" />
<path d="M366.0,-286.6 L306.22831811449527,-291.8293445648595" stroke-width="1" stroke="black" fill="black" />
<path d="M434.0,-274.6 L491.9555495773441,-259.0708572938488" stroke-width="1" stroke="black" fill="black" />
<path d="M440.0,-280.6 L499.77168188550473,-275.3706554351405" stroke-width="1" stroke="black" fill="black" />
<path d="M434.0,-286.6 L493.77168188550473,-291.8293445648595" stroke-width="1" stroke="black" fill="black" />
</g>
</svg>