<?xml version="1.0" encoding="UTF-8"?>
<svg xmlns="http://www.w3.org/2000/svg" xmlns:xlink="http://www.w3.org/1999/xlink"
     width="800" height="600" viewBox="0 -600 800 600">
<defs>
</defs>
<g>
<path fill="hsl(45, 46%, 79%)" stroke-width="1" d="M304.7087056818838,-310.5413102796148 L242.18984933288982,-416.9318765945557 A54.400000000000006,54.400000000000006,0,0,1,275.1475346011139,-466.6123924730065 L397.474896275091,-450.37735056101883" stroke="black" />
<path fill="hsl(45, 46%, 79%)" stroke-width="1" d="M495.2912943181162,-310.5413102796148 L557.8101506671102,-416.9318765945557 A54.400000000000006,54.400000000000006,0,0,0,524.8524653988861,-466.6123924730065 L402.525103724909,-450.37735056101883" stroke="black" />
<path fill="hsl(45, 46%, 79%)" stroke-width="1" d="M219.3826973958475,-300.0 A180.6173026041525,165.7039473432592,0,0,0,580.6173026041525,-300.0 A180.6173026041525,165.7039473432592,0,0,0,219.3826973958475,-300.0" stroke="black" />
<path fill="black" stroke-width="1" d="M309.048,-341.4259868358148 A10.952,14.8,0,0,0,330.952,-341.4259868358148 A10.952,14.8,0,0,0,309.048,-341.4259868358148" stroke="black" />
<path fill="black" stroke-width="1" d="M469.048,-341.4259868358148 A10.952,14.8,0,0,0,490.952,-341.4259868358148 A10.952,14.8,0,0,0,469.048,-341.4259868358148" stroke="black" />
<path fill="black" stroke-width="1" d="M380.2,-306.6 L419.8,-306.6 L400.0,-280.2 Z" stroke="black" />
<path fill="black" stroke-width="2" d="M400.0,-280.2 L400.0,-250.5" stroke="black" />
<path fill="none" stroke-width="2" d="M360.4,-246.5 A39.6,39.6,30,0,0,400.0,-250.5 A39.6,39.6,150,0,0,439.6,-246.5" stroke="black" />
<path fill="black" stroke-width="1" d="M366.0,-270.2 L333.1585219061717,-261.40015246651427" stroke="black" />
<path fill="black" stroke-width="1" d="M360.0,-276.2 L326.12938026488064,-273.2367047465796" stroke="black" />
<path fill="black" stroke-width="1" d="M366.0,-282.2 L332.12938026488064,-285.16329525342036" stroke="black" />
<path fill="black" stroke-width="1" d="M434.0,-270.2 L466.8414780938283,-261.40015246651427" stroke="black" />
<path fill="black" stroke-width="1" d="M440.0,-276.2 L473.87061973511936,-273.2367047465796" stroke="black" />
<path fill="black" stroke-width="1" d="M434.0,-282.2 L467.87061973511936,-285.16329525342036" stroke="black" />
</g>
</svg>