<?xml version="1.0" encoding="UTF-8"?>
<svg xmlns="http://www.w3.org/2000/svg" xmlns:xlink="http://www.w3.org/1999/xlink"
     width="800" height="600" viewBox="0 -600 800 600">
<defs>
</defs>
<g>
<path fill="hsl(45, 56%, 30%)" stroke-width="1" d="M303.0568799716684,-216.28647003514212 L196.1215922762119,-295.70362338056214 A62.400000000000006,62.400000000000006,0,0,1,205.08669001465557,-373.186699097393 L327.33160615576185,-426.0867981299458" stroke="black" />
<path fill="hsl(45, 56%, 30%)" stroke-width="1" d="M496.9431200283316,-216.28647003514212 L603.8784077237881,-295.70362338056214 A62.400000000000006,62.400000000000006,0,0,0,594.9133099853444,-373.186699097393 L472.66839384423815,-426.0867981299458" stroke="black" />
<path fill="hsl(45, 56%, 30%)" stroke-width="1" d="M226.13715175460862,-300.0 A173.86284824539138,172.14143390632813,0,0,0,573.8628482453914,-300.0 A173.86284824539138,172.14143390632813,0,0,0,226.13715175460862,-300.0" stroke="black" />
<path fill="black" stroke-width="1" d="M333.2,-343.035358476582 A8.8,10.0,0,0,0,350.8,-343.035358476582 A8.8,10.0,0,0,0,333.2,-343.035358476582" stroke="black" />
<path fill="black" stroke-width="1" d="M449.2,-343.035358476582 A8.8,10.0,0,0,0,466.8,-343.035358476582 A8.8,10.0,0,0,0,449.2,-343.035358476582" stroke="black" />
<path fill="black" stroke-width="1" d="M381.0,-306.3333333333333 L419.0,-306.3333333333333 L400.0,-281.0 Z" stroke="black" />
<path fill="black" stroke-width="2" d="M400.0,-281.0 L400.0,-252.5" stroke="black" />
<path fill="none" stroke-width="2" d="M362.0,-248.5 A38.0,38.0,30,0,0,400.0,-252.5 A38.0,38.0,150,0,0,438.0,-248.5" stroke="black" />
<path fill="black" stroke-width="1" d="M366.0,-271.0 L314.80593120667936,-257.2825906095664" stroke="black" />
<path fill="black" stroke-width="1" d="M360.0,-277.0 L307.2016810011375,-272.38074563437414" stroke="black" />
<path fill="black" stroke-width="1" d="M366.0,-283.0 L313.2016810011375,-287.61925436562586" stroke="black" />
<path fill="black" stroke-width="1" d="M434.0,-271.0 L485.19406879332064,-257.2825906095664" stroke="black" />
<path fill="black" stroke-width="1" d="M440.0,-277.0 L492.7983189988625,-272.38074563437414" stroke="black" />
<path fill="black" stroke-width="1" d="M434.0,-283.0 L486.7983189988625,-287.61925436562586" stroke="black" />
</g>
</svg>