<?xml version="1.0" encoding="UTF-8"?>
<svg xmlns="http://www.w3.org/2000/svg" xmlns:xlink="http://www.w3.org/1999/xlink"
     width="800" height="600" viewBox="0 -600 800 600">
<defs>
</defs>
<g>
<path fill="hsl(45, 27%, 77%)" stroke-width="1" d="M338.88047575521534,-253.9181518242629 L174.42195639758324,-345.83091160600014 A20.0,20.0,0,0,1,177.15608573405507,-362.7119359491116 L362.21900377134006,-398.0145756170621" stroke="black" />
<path fill="hsl(45, 27%, 77%)" stroke-width="1" d="M461.11952424478466,-253.9181518242629 L625.5780436024168,-345.83091160600014 A20.0,20.0,0,0,0,622.8439142659449,-362.7119359491116 L437.78099622865994,-398.0145756170621" stroke="black" />
<path fill="hsl(45, 27%, 77%)" stroke-width="1" d="M244.29999999999998,-300.0 A155.70000000000002,192.22222222222223,0,0,0,555.7,-300.0 A155.70000000000002,192.22222222222223,0,0,0,244.29999999999998,-300.0" stroke="black" />
<path fill="black" stroke-width="1" d="M317.095,-348.05555555555554 A12.905,14.5,0,0,0,342.905,-348.05555555555554 A12.905,14.5,0,0,0,317.095,-348.05555555555554" stroke="black" />
<path fill="black" stroke-width="1" d="M457.095,-348.05555555555554 A12.905,14.5,0,0,0,482.905,-348.05555555555554 A12.905,14.5,0,0,0,457.095,-348.05555555555554" stroke="black" />
<path fill="black" stroke-width="1" d="M382.3,-305.9 L417.7,-305.9 L400.0,-282.3 Z" stroke="black" />
<path fill="black" stroke-width="2" d="M400.0,-282.3 L400.0,-255.75" stroke="black" />
<path fill="none" stroke-width="2" d="M364.6,-251.75 A35.4,35.4,30,0,0,400.0,-255.75 A35.4,35.4,150,0,0,435.4,-251.75" stroke="black" />
<path fill="black" stroke-width="1" d="M366.0,-272.3 L317.7037086855466,-259.359047744874" stroke="black" />
<path fill="black" stroke-width="1" d="M360.0,-278.3 L310.1902650954127,-273.9422128626171" stroke="black" />
<path fill="black" stroke-width="1" d="M366.0,-284.3 L316.1902650954127,-288.6577871373829" stroke="black" />
<path fill="black" stroke-width="1" d="M434.0,-272.3 L482.2962913144534,-259.359047744874" stroke="black" />
<path fill="black" stroke-width="1" d="M440.0,-278.3 L489.8097349045873,-273.9422128626171" stroke="black" />
<path fill="black" stroke-width="1" d="M434.0,-284.3 L483.8097349045873,-288.6577871373829" stroke="black" />
</g>
</svg>