<?xml version="1.0" encoding="UTF-8"?>
<svg xmlns="http://www.w3.org/2000/svg" xmlns:xlink="http://www.w3.org/1999/xlink"
     width="800" height="600" viewBox="0 -600 800 600">
<defs>
</defs>
<g>
<path fill="hsl(45, 35%, 41%)" stroke-width="1" d="M286.2660706085537,-280.9057300612933 L191.72738328222852,-413.9345863241934 A29.6,29.6,0,0,1,207.17479840843043,-441.1269545659821 L369.84911137249003,-428.0384901155123" stroke="black" />
<path fill="hsl(45, 35%, 41%)" stroke-width="1" d="M513.7339293914463,-280.9057300612933 L608.2726167177715,-413.9345863241934 A29.6,29.6,0,0,0,592.8252015915696,-441.1269545659821 L430.15088862750997,-428.0384901155123" stroke="black" />
<path fill="hsl(45, 35%, 41%)" stroke-width="1" d="M204.27284296756363,-300.0 A195.72715703243637,152.91184143159091,0,0,0,595.7271570324364,-300.0 A195.72715703243637,152.91184143159091,0,0,0,204.27284296756363,-300.0" stroke="black" />
<path fill="black" stroke-width="1" d="M316.692,-338.2279603578977 A8.308000000000002,12.4,0,0,0,333.308,-338.2279603578977 A8.308000000000002,12.4,0,0,0,316.692,-338.2279603578977" stroke="black" />
<path fill="black" stroke-width="1" d="M466.692,-338.2279603578977 A8.308000000000002,12.4,0,0,0,483.308,-338.2279603578977 A8.308000000000002,12.4,0,0,0,466.692,-338.2279603578977" stroke="black" />
<path fill="black" stroke-width="1" d="M384.0,-305.3333333333333 L416.0,-305.3333333333333 L400.0,-284.0 Z" stroke="black" />
<path fill="black" stroke-width="2" d="M400.0,-284.0 L400.0,-260.0" stroke="black" />
<path fill="none" stroke-width="2" d="M368.0,-256.0 A32.0,32.0,30,0,0,400.0,-260.0 A32.0,32.0,150,0,0,432.0,-256.0" stroke="black" />
<path fill="black" stroke-width="1" d="M366.0,-274.0 L347.6474093005077,-269.0824381430521" stroke="black" />
<path fill="black" stroke-width="1" d="M360.0,-280.0 L341.0723007362568,-278.3440408877945" stroke="black" />
<path fill="black" stroke-width="1" d="M366.0,-286.0 L347.0723007362568,-287.6559591122055" stroke="black" />
<path fill="black" stroke-width="1" d="M434.0,-274.0 L452.3525906994923,-269.0824381430521" stroke="black" />
<path fill="black" stroke-width="1" d="M440.0,-280.0 L458.9276992637432,-278.3440408877945" stroke="black" />
<path fill="black" stroke-width="1" d="M434.0,-286.0 L452.9276992637432,-287.6559591122055" stroke="black" />
</g>
</svg>