<?xml version="1.0" encoding="UTF-8"?>
<svg xmlns="http://www.w3.org/2000/svg" xmlns:xlink="http://www.w3.org/1999/xlink"
     width="800" height="600" viewBox="0 -600 800 600">
<defs>
</defs>
<g>
<path fill="hsl(45, 30%, 40%)" stroke-width="1" d="M308.6976079880078,-251.3426169945552 L178.0737034649644,-445.73149416389026 A8.0,8.0,0,0,1,182.27408474275353,-451.9354313858056 L411.2709187916191,-402.8427639537305" stroke="black" />
<path fill="hsl(45, 30%, 40%)" stroke-width="1" d="M491.3023920119922,-251.3426169945552 L621.9262965350356,-445.73149416389026 A8.0,8.0,0,0,0,617.7259152572465,-451.9354313858056 L388.7290812083809,-402.8427639537305" stroke="black" />
<path fill="hsl(45, 30%, 40%)" stroke-width="1" d="M246.2342365804403,-300.0 A153.7657634195597,194.64020686020214,0,0,0,553.7657634195597,-300.0 A153.7657634195597,194.64020686020214,0,0,0,246.2342365804403,-300.0" stroke="black" />
<path fill="black" stroke-width="1" d="M336.009,-348.66005171505054 A8.991,11.1,0,0,0,353.991,-348.66005171505054 A8.991,11.1,0,0,0,336.009,-348.66005171505054" stroke="black" />
<path fill="black" stroke-width="1" d="M446.009,-348.66005171505054 A8.991,11.1,0,0,0,463.991,-348.66005171505054 A8.991,11.1,0,0,0,446.009,-348.66005171505054" stroke="black" />
<path fill="black" stroke-width="1" d="M385.8,-304.73333333333335 L414.2,-304.73333333333335 L400.0,-285.8 Z" stroke="black" />
<path fill="black" stroke-width="2" d="M400.0,-285.8 L400.0,-264.5" stroke="black" />
<path fill="none" stroke-width="2" d="M371.6,-260.5 A28.4,28.4,30,0,0,400.0,-264.5 A28.4,28.4,150,0,0,428.4,-260.5" stroke="black" />
<path fill="black" stroke-width="1" d="M366.0,-275.8 L337.988151037617,-268.2942476920269" stroke="black" />
<path fill="black" stroke-width="1" d="M360.0,-281.8 L331.11035375533936,-279.2724834603179" stroke="black" />
<path fill="black" stroke-width="1" d="M366.0,-287.8 L337.11035375533936,-290.3275165396821" stroke="black" />
<path fill="black" stroke-width="1" d="M434.0,-275.8 L462.011848962383,-268.2942476920269" stroke="black" />
<path fill="black" stroke-width="1" d="M440.0,-281.8 L468.88964624466064,-279.2724834603179" stroke="black" />
<path fill="black" stroke-width="1" d="M434.0,-287.8 L462.88964624466064,-290.3275165396821" stroke="black" />
</g>
</svg>