<?xml version="1.0" encoding="UTF-8"?>
<svg xmlns="http://www.w3.org/2000/svg" xmlns:xlink="http://www.w3.org/1999/xlink"
     width="800" height="600" viewBox="0 -600 800 600">
<defs>
</defs>
<g>
<path fill="hsl(45, 13%, 37%)" stroke-width="1" d="M375.87317931598557,-217.6671049945752 L240.38765425011036,-208.43062852223449 A56.800000000000004,56.800000000000004,0,0,1,220.71119938208585,-252.83307269258466 L318.56204034827476,-346.99704097244006" stroke="black" />
<path fill="hsl(45, 13%, 37%)" stroke-width="1" d="M424.12682068401443,-217.6671049945752 L559.6123457498896,-208.43062852223449 A56.800000000000004,56.800000000000004,0,0,0,579.2888006179141,-252.83307269258466 L481.43795965172524,-346.99704097244006" stroke="black" />
<path fill="hsl(45, 13%, 37%)" stroke-width="1" d="M249.1820965534927,-300.0 A150.8179034465073,198.44460979803594,0,0,0,550.8179034465073,-300.0 A150.8179034465073,198.44460979803594,0,0,0,249.1820965534927,-300.0" stroke="black" />
<path fill="black" stroke-width="1" d="M334.084,-349.611152449509 A9.916,14.8,0,0,0,353.916,-349.611152449509 A9.916,14.8,0,0,0,334.084,-349.611152449509" stroke="black" />
<path fill="black" stroke-width="1" d="M446.084,-349.611152449509 A9.916,14.8,0,0,0,465.916,-349.611152449509 A9.916,14.8,0,0,0,446.084,-349.611152449509" stroke="black" />
<path fill="black" stroke-width="1" d="M388.4,-303.8666666666667 L411.6,-303.8666666666667 L400.0,-288.4 Z" stroke="black" />
<path fill="black" stroke-width="2" d="M400.0,-288.4 L400.0,-271.0" stroke="black" />
<path fill="none" stroke-width="2" d="M376.8,-267.0 A23.2,23.2,30,0,0,400.0,-271.0 A23.2,23.2,150,0,0,423.2,-267.0" stroke="black" />
<path fill="black" stroke-width="1" d="M366.0,-278.4 L362.13629669484374,-277.36472381958987" stroke="black" />
<path fill="black" stroke-width="1" d="M360.0,-284.4 L356.01522120763303,-284.05137702900936" stroke="black" />
<path fill="black" stroke-width="1" d="M366.0,-290.4 L362.01522120763303,-290.7486229709906" stroke="black" />
<path fill="black" stroke-width="1" d="M434.0,-278.4 L437.86370330515626,-277.36472381958987" stroke="black" />
<path fill="black" stroke-width="1" d="M440.0,-284.4 L443.98477879236697,-284.05137702900936" stroke="black" />
<path fill="black" stroke-width="1" d="M434.0,-290.4 L437.98477879236697,-290.7486229709906" stroke="black" />
</g>
</svg>