<?xml version="1.0" encoding="UTF-8"?>
<svg xmlns="http://www.w3.org/2000/svg" xmlns:xlink="http://www.w3.org/1999/xlink"
     width="800" height="600" viewBox="0 -600 800 600">
<defs>
</defs>
<g>
<path fill="hsl(45, 30%, 57%)" stroke-width="1" d="M320.2502954856242,-284.4395775379603 L209.0224038972632,-411.94250351539745 A51.2,51.2,0,0,1,230.9424926452673,-459.1652923147457 L400.1216188611643,-456.50761422558566" stroke="black" />
<path fill="hsl(45, 30%, 57%)" stroke-width="1" d="M479.7497045143758,-284.4395775379603 L590.9775961027368,-411.94250351539745 A51.2,51.2,0,0,0,569.0575073547327,-459.1652923147457 L399.8783811388357,-456.50761422558566" stroke="black" />
<path fill="hsl(45, 30%, 57%)" stroke-width="1" d="M213.67329767314612,-300.0 A186.32670232685388,160.62646752314984,0,0,0,586.3267023268538,-300.0 A186.32670232685388,160.62646752314984,0,0,0,213.67329767314612,-300.0" stroke="black" />
<path fill="black" stroke-width="1" d="M336.9,-340.15661688078745 A6.1,10.0,0,0,0,349.1,-340.15661688078745 A6.1,10.0,0,0,0,336.9,-340.15661688078745" stroke="black" />
<path fill="black" stroke-width="1" d="M450.9,-340.15661688078745 A6.1,10.0,0,0,0,463.1,-340.15661688078745 A6.1,10.0,0,0,0,450.9,-340.15661688078745" stroke="black" />
<path fill="black" stroke-width="1" d="M380.9,-306.3666666666667 L419.1,-306.3666666666667 L400.0,-280.9 Z" stroke="black" />
<path fill="black" stroke-width="2" d="M400.0,-280.9 L400.0,-252.25" stroke="black" />
<path fill="none" stroke-width="2" d="M361.8,-248.25 A38.2,38.2,30,0,0,400.0,-252.25 A38.2,38.2,150,0,0,438.2,-248.25" stroke="black" />
<path fill="black" stroke-width="1" d="M366.0,-270.9 L332.1925960798826,-261.8413334214118" stroke="black" />
<path fill="black" stroke-width="1" d="M360.0,-276.9 L325.1331855667889,-273.84954900383195" stroke="black" />
<path fill="black" stroke-width="1" d="M366.0,-282.9 L331.1331855667889,-285.950450996168" stroke="black" />
<path fill="black" stroke-width="1" d="M434.0,-270.9 L467.8074039201174,-261.8413334214118" stroke="black" />
<path fill="black" stroke-width="1" d="M440.0,-276.9 L474.8668144332111,-273.84954900383195" stroke="black" />
<path fill="black" stroke-width="1" d="M434.0,-282.9 L468.8668144332111,-285.950450996168" stroke="black" />
</g>
</svg>