<?xml version="1.0" encoding="UTF-8"?>
<svg xmlns="http://www.w3.org/2000/svg" xmlns:xlink="http://www.w3.org/1999/xlink"
     width="800" height="600" viewBox="0 -600 800 600">
<defs>
</defs>
<g>
<path fill="hsl(45, 9%, 53%)" stroke-width="1" d="M334.82485666768093,-216.94785329349008 L188.17971108026393,-190.56222698587217 A21.6,21.6,0,0,1,177.40028688974917,-207.6796621099553 L264.55898046284426,-328.528171139365" stroke="black" />
<path fill="hsl(45, 9%, 53%)" stroke-width="1" d="M465.17514333231907,-216.94785329349008 L611.8202889197361,-190.56222698587217 A21.6,21.6,0,0,0,622.5997131102508,-207.6796621099553 L535.4410195371557,-328.528171139365" stroke="black" />
<path fill="hsl(45, 9%, 53%)" stroke-width="1" d="M205.80798162643245,-300.0 A194.19201837356755,154.12064950283138,0,0,0,594.1920183735675,-300.0 A194.19201837356755,154.12064950283138,0,0,0,205.80798162643245,-300.0" stroke="black" />
<path fill="black" stroke-width="1" d="M311.864,-338.53016237570785 A12.136000000000001,14.8,0,0,0,336.136,-338.53016237570785 A12.136000000000001,14.8,0,0,0,311.864,-338.53016237570785" stroke="black" />
<path fill="black" stroke-width="1" d="M463.864,-338.53016237570785 A12.136000000000001,14.8,0,0,0,488.136,-338.53016237570785 A12.136000000000001,14.8,0,0,0,463.864,-338.53016237570785" stroke="black" />
<path fill="black" stroke-width="1" d="M384.5,-305.1666666666667 L415.5,-305.1666666666667 L400.0,-284.5 Z" stroke="black" />
<path fill="black" stroke-width="2" d="M400.0,-284.5 L400.0,-261.25" stroke="black" />
<path fill="none" stroke-width="2" d="M369.0,-257.25 A31.0,31.0,30,0,0,400.0,-261.25 A31.0,31.0,150,0,0,431.0,-257.25" stroke="black" />
<path fill="black" stroke-width="1" d="M366.0,-274.5 L309.97630207523406,-259.4884953840538" stroke="black" />
<path fill="black" stroke-width="1" d="M360.0,-280.5 L302.2207075106788,-275.44496692063586" stroke="black" />
<path fill="black" stroke-width="1" d="M366.0,-286.5 L308.2207075106788,-291.5550330793642" stroke="black" />
<path fill="black" stroke-width="1" d="M434.0,-274.5 L490.02369792476594,-259.4884953840538" stroke="black" />
<path fill="black" stroke-width="1" d="M440.0,-280.5 L497.7792924893212,-275.4449669206358" stroke="black" />
<path fill="black" stroke-width="1" d="M434.0,-286.5 L491.7792924893212,-291.5550330793642" stroke="black" />
</g>
</svg>