<?xml version="1.0" encoding="UTF-8"?>
<svg xmlns="http://www.w3.org/2000/svg" xmlns:xlink="http://www.w3.org/1999/xlink"
     width="800" height="600" viewBox="0 -600 800 600">
<defs>
</defs>
<g>
<path fill="hsl(45, 9%, 54%)" stroke-width="1" d="M290.1237676431121,-220.2509320931302 L177.84185959406045,-422.8128562666143 A22.400000000000002,22.400000000000002,0,0,1,192.22881720029113,-445.836801291715 L423.51141744945045,-433.71579382584923" stroke="black" />
<path fill="hsl(45, 9%, 54%)" stroke-width="1" d="M509.8762323568879,-220.2509320931302 L622.1581404059395,-422.8128562666143 A22.400000000000002,22.400000000000002,0,0,0,607.7711827997089,-445.836801291715 L376.48858255054955,-433.71579382584923" stroke="black" />
<path fill="hsl(45, 9%, 54%)" stroke-width="1" d="M250.17760514529212,-300.0 A149.82239485470788,199.76319313961054,0,0,0,549.8223948547079,-300.0 A149.82239485470788,199.76319313961054,0,0,0,250.17760514529212,-300.0" stroke="black" />
<path fill="black" stroke-width="1" d="M315.27,-349.94079828490266 A9.73,13.9,0,0,0,334.73,-349.94079828490266 A9.73,13.9,0,0,0,315.27,-349.94079828490266" stroke="black" />
<path fill="black" stroke-width="1" d="M465.27,-349.94079828490266 A9.73,13.9,0,0,0,484.73,-349.94079828490266 A9.73,13.9,0,0,0,465.27,-349.94079828490266" stroke="black" />
<path fill="black" stroke-width="1" d="M383.5,-305.5 L416.5,-305.5 L400.0,-283.5 Z" stroke="black" />
<path fill="black" stroke-width="2" d="M400.0,-283.5 L400.0,-258.75" stroke="black" />
<path fill="none" stroke-width="2" d="M367.0,-254.75 A33.0,33.0,30,0,0,400.0,-258.75 A33.0,33.0,150,0,0,433.0,-254.75" stroke="black" />
<path fill="black" stroke-width="1" d="M366.0,-273.5 L332.1925960798826,-264.4413334214118" stroke="black" />
<path fill="black" stroke-width="1" d="M360.0,-279.5 L325.1331855667889,-276.449549003832" stroke="black" />
<path fill="black" stroke-width="1" d="M366.0,-285.5 L331.1331855667889,-288.550450996168" stroke="black" />
<path fill="black" stroke-width="1" d="M434.0,-273.5 L467.8074039201174,-264.4413334214118" stroke="black" />
<path fill="black" stroke-width="1" d="M440.0,-279.5 L474.8668144332111,-276.449549003832" stroke="black" />
<path fill="black" stroke-width="1" d="M434.0,-285.5 L468.8668144332111,-288.550450996168" stroke="black" />
</g>
</svg>