<?xml version="1.0" encoding="UTF-8"?>
<svg xmlns="http://www.w3.org/2000/svg" xmlns:xlink="http://www.w3.org/1999/xlink"
     width="800" height="600" viewBox="0 -600 800 600">
<defs>
</defs>
<g>
<path fill="hsl(45, 18%, 45%)" stroke-width="1" d="M320.65121736132954,-282.9409782582764 L186.75377315291882,-419.1484466087877 A14.4,14.4,0,0,1,192.10140015362686,-433.0867619544617 L382.7431086473283,-444.78030643860166" stroke="black" />
<path fill="hsl(45, 18%, 45%)" stroke-width="1" d="M479.34878263867046,-282.9409782582764 L613.2462268470812,-419.1484466087877 A14.4,14.4,0,0,0,607.8985998463731,-433.0867619544617 L417.2568913526717,-444.78030643860166" stroke="black" />
<path fill="hsl(45, 18%, 45%)" stroke-width="1" d="M238.6363423815635,-300.0 A161.3636576184365,185.47546852693853,0,0,0,561.3636576184365,-300.0 A161.3636576184365,185.47546852693853,0,0,0,238.6363423815635,-300.0" stroke="black" />
<path fill="black" stroke-width="1" d="M330.275,-346.36886713173465 A7.7250000000000005,10.3,0,0,0,345.725,-346.36886713173465 A7.7250000000000005,10.3,0,0,0,330.275,-346.36886713173465" stroke="black" />
<path fill="black" stroke-width="1" d="M454.275,-346.36886713173465 A7.7250000000000005,10.3,0,0,0,469.725,-346.36886713173465 A7.7250000000000005,10.3,0,0,0,454.275,-346.36886713173465" stroke="black" />
<path fill="black" stroke-width="1" d="M388.1,-303.96666666666664 L411.9,-303.96666666666664 L400.0,-288.1 Z" stroke="black" />
<path fill="black" stroke-width="2" d="M400.0,-288.1 L400.0,-270.25" stroke="black" />
<path fill="none" stroke-width="2" d="M376.2,-266.25 A23.8,23.8,30,0,0,400.0,-270.25 A23.8,23.8,150,0,0,423.8,-266.25" stroke="black" />
<path fill="black" stroke-width="1" d="M366.0,-278.1 L364.06814834742187,-277.582361909795" stroke="black" />
<path fill="black" stroke-width="1" d="M360.0,-284.1 L358.0076106038165,-283.9256885145047" stroke="black" />
<path fill="black" stroke-width="1" d="M366.0,-290.1 L364.0076106038165,-290.27431148549533" stroke="black" />
<path fill="black" stroke-width="1" d="M434.0,-278.1 L435.93185165257813,-277.582361909795" stroke="black" />
<path fill="black" stroke-width="1" d="M440.0,-284.1 L441.9923893961835,-283.9256885145047" stroke="black" />
<path fill="black" stroke-width="1" d="M434.0,-290.1 L435.9923893961835,-290.27431148549533" stroke="black" />
</g>
</svg>