<?xml version="1.0" encoding="UTF-8"?>
<svg xmlns="http://www.w3.org/2000/svg" xmlns:xlink="http://www.w3.org/1999/xlink"
     width="800" height="600" viewBox="0 -600 800 600">
<defs>
</defs>
<g>
<path fill="hsl(45, 28%, 33%)" stroke-width="1" d="M399.5223762310453,-197.00176889793113 L177.24464820559842,-189.6280572243229 A28.0,28.0,0,0,1,163.86014627756322,-216.01035174937124 L301.0889249088657,-391.0247006335727" stroke="black" />
<path fill="hsl(45, 28%, 33%)" stroke-width="1" d="M400.4776237689547,-197.00176889793113 L622.7553517944016,-189.6280572243229 A28.0,28.0,0,0,0,636.1398537224368,-216.01035174937124 L498.9110750911343,-391.0247006335727" stroke="black" />
<path fill="hsl(45, 28%, 33%)" stroke-width="1" d="M239.56640002792432,-300.0 A160.43359997207568,186.55069764194846,0,0,0,560.4335999720756,-300.0 A160.43359997207568,186.55069764194846,0,0,0,239.56640002792432,-300.0" stroke="black" />
<path fill="black" stroke-width="1" d="M323.535,-346.63767441048714 A10.465,11.5,0,0,0,344.465,-346.63767441048714 A10.465,11.5,0,0,0,323.535,-346.63767441048714" stroke="black" />
<path fill="black" stroke-width="1" d="M455.535,-346.63767441048714 A10.465,11.5,0,0,0,476.465,-346.63767441048714 A10.465,11.5,0,0,0,455.535,-346.63767441048714" stroke="black" />
<path fill="black" stroke-width="1" d="M387.3,-304.23333333333335 L412.7,-304.23333333333335 L400.0,-287.3 Z" stroke="black" />
<path fill="black" stroke-width="2" d="M400.0,-287.3 L400.0,-268.25" stroke="black" />
<path fill="none" stroke-width="2" d="M374.6,-264.25 A25.4,25.4,30,0,0,400.0,-268.25 A25.4,25.4,150,0,0,425.4,-264.25" stroke="black" />
<path fill="black" stroke-width="1" d="M366.0,-277.3 L335.09037355874983,-269.0177905567193" stroke="black" />
<path fill="black" stroke-width="1" d="M360.0,-283.3 L328.12176966106415,-280.51101623207495" stroke="black" />
<path fill="black" stroke-width="1" d="M366.0,-289.3 L334.12176966106415,-292.0889837679251" stroke="black" />
<path fill="black" stroke-width="1" d="M434.0,-277.3 L464.90962644125017,-269.0177905567194" stroke="black" />
<path fill="black" stroke-width="1" d="M440.0,-283.3 L471.87823033893585,-280.51101623207495" stroke="black" />
<path fill="black" stroke-width="1" d="M434.0,-289.3 L465.87823033893585,-292.0889837679251" stroke="black" />
</g>
</svg>