<?xml version="1.0" encoding="UTF-8"?>
<svg xmlns="http://www.w3.org/2000/svg" xmlns:xlink="http://www.w3.org/1999/xlink"
     width="800" height="600" viewBox="0 -600 800 600">
<defs>
</defs>
<g>
<path fill="hsl(45, 30%, 54%)" stroke-width="1" d="M385.390980551441,-189.22096618765562 L238.78773243771127,-173.91581533886543 A44.0,44.0,0,0,1,212.44502799350448,-215.32935216555134 L288.4498281967599,-341.6227817098599" stroke="black" />
<path fill="hsl(45, 30%, 54%)" stroke-width="1" d="M414.609019448559,-189.22096618765562 L561.2122675622887,-173.91581533886543 A44.0,44.0,0,0,0,587.5549720064955,-215.32935216555134 L511.5501718032401,-341.6227817098599" stroke="black" />
<path fill="hsl(45, 30%, 54%)" stroke-width="1" d="M248.1931160981163,-300.0 A151.8068839018837,197.15179727517364,0,0,0,551.8068839018837,-300.0 A151.8068839018837,197.15179727517364,0,0,0,248.1931160981163,-300.0" stroke="black" />
<path fill="black" stroke-width="1" d="M324.76,-349.2879493187934 A6.24,10.4,0,0,0,337.24,-349.2879493187934 A6.24,10.4,0,0,0,324.76,-349.2879493187934" stroke="black" />
<path fill="black" stroke-width="1" d="M462.76,-349.2879493187934 A6.24,10.4,0,0,0,475.24,-349.2879493187934 A6.24,10.4,0,0,0,462.76,-349.2879493187934" stroke="black" />
<path fill="black" stroke-width="1" d="M389.2,-303.6 L410.8,-303.6 L400.0,-289.2 Z" stroke="black" />
<path fill="black" stroke-width="2" d="M400.0,-289.2 L400.0,-273.0" stroke="black" />
<path fill="none" stroke-width="2" d="M378.4,-269.0 A21.6,21.6,30,0,0,400.0,-273.0 A21.6,21.6,150,0,0,421.6,-269.0" stroke="black" />
<path fill="black" stroke-width="1" d="M366.0,-279.2 L337.02222521132796,-271.4354286469244" stroke="black" />
<path fill="black" stroke-width="1" d="M360.0,-285.2 L330.11415905724766,-282.58532771757024" stroke="black" />
<path fill="black" stroke-width="1" d="M366.0,-291.2 L336.11415905724766,-293.81467228242974" stroke="black" />
<path fill="black" stroke-width="1" d="M434.0,-279.2 L462.97777478867204,-271.4354286469244" stroke="black" />
<path fill="black" stroke-width="1" d="M440.0,-285.2 L469.88584094275234,-282.58532771757024" stroke="black" />
<path fill="black" stroke-width="1" d="M434.0,-291.2 L463.88584094275234,-293.81467228242974" stroke="black" />
</g>
</svg>