<?xml version="1.0" encoding="UTF-8"?>
<svg xmlns="http://www.w3.org/2000/svg" xmlns:xlink="http://www.w3.org/1999/xlink"
     width="800" height="600" viewBox="0 -600 800 600">
<defs>
</defs>
<g>
<path fill="hsl(45, 6%, 61%)" stroke-width="1" d="M312.3593068443707,-297.2503522308111 L208.05795028254317,-419.37155030617606 A26.400000000000002,26.400000000000002,0,0,1,219.47423923376402,-441.3020373378096 L379.33486869153296,-425.9092094830616" stroke="black" />
<path fill="hsl(45, 6%, 61%)" stroke-width="1" d="M487.6406931556293,-297.2503522308111 L591.9420497174568,-419.37155030617606 A26.400000000000002,26.400000000000002,0,0,0,580.525760766236,-441.3020373378096 L420.66513130846704,-425.9092094830616" stroke="black" />
<path fill="hsl(45, 6%, 61%)" stroke-width="1" d="M234.9685181548684,-300.0 A165.0314818451316,181.35327675289187,0,0,0,565.0314818451316,-300.0 A165.0314818451316,181.35327675289187,0,0,0,234.9685181548684,-300.0" stroke="black" />
<path fill="black" stroke-width="1" d="M308.608,-345.33831918822295 A13.392,14.4,0,0,0,335.392,-345.33831918822295 A13.392,14.4,0,0,0,308.608,-345.33831918822295" stroke="black" />
<path fill="black" stroke-width="1" d="M464.608,-345.33831918822295 A13.392,14.4,0,0,0,491.392,-345.33831918822295 A13.392,14.4,0,0,0,464.608,-345.33831918822295" stroke="black" />
<path fill="black" stroke-width="1" d="M382.7,-305.76666666666665 L417.3,-305.76666666666665 L400.0,-282.7 Z" stroke="black" />
<path fill="black" stroke-width="2" d="M400.0,-282.7 L400.0,-256.75" stroke="black" />
<path fill="none" stroke-width="2" d="M365.4,-252.75 A34.6,34.6,30,0,0,400.0,-256.75 A34.6,34.6,150,0,0,434.6,-252.75" stroke="black" />
<path fill="black" stroke-width="1" d="M366.0,-272.7 L335.09037355874983,-264.4177905567193" stroke="black" />
<path fill="black" stroke-width="1" d="M360.0,-278.7 L328.12176966106415,-275.9110162320749" stroke="black" />
<path fill="black" stroke-width="1" d="M366.0,-284.7 L334.12176966106415,-287.48898376792505" stroke="black" />
<path fill="black" stroke-width="1" d="M434.0,-272.7 L464.90962644125017,-264.41779055671935" stroke="black" />
<path fill="black" stroke-width="1" d="M440.0,-278.7 L471.87823033893585,-275.9110162320749" stroke="black" />
<path fill="black" stroke-width="1" d="M434.0,-284.7 L465.87823033893585,-287.48898376792505" stroke="black" />
</g>
</svg>