<?xml version="1.0" encoding="UTF-8"?>
<svg xmlns="http://www.w3.org/2000/svg" xmlns:xlink="http://www.w3.org/1999/xlink"
     width="800" height="600" viewBox="0 -600 800 600">
<defs>
</defs>
<g>
<path fill="hsl(45, 43%, 33%)" stroke-width="1" d="M313.3062489403993,-247.96250578878187 L183.52271074546616,-367.13747469418723 A63.2,63.2,0,0,1,204.1913799992775,-425.31032344003563 L380.07389949195203,-435.882898193092" stroke="black" />
<path fill="hsl(45, 43%, 33%)" stroke-width="1" d="M486.6937510596007,-247.96250578878187 L616.4772892545338,-367.13747469418723 A63.2,63.2,0,0,0,595.8086200007225,-425.31032344003563 L419.92610050804797,-435.882898193092" stroke="black" />
<path fill="hsl(45, 43%, 33%)" stroke-width="1" d="M208.9152544026604,-300.0 A191.0847455973396,156.62684065355705,0,0,0,591.0847455973396,-300.0 A191.0847455973396,156.62684065355705,0,0,0,208.9152544026604,-300.0" stroke="black" />
<path fill="black" stroke-width="1" d="M325.875,-339.1567101633893 A7.125000000000001,12.5,0,0,0,340.125,-339.1567101633893 A7.125000000000001,12.5,0,0,0,325.875,-339.1567101633893" stroke="black" />
<path fill="black" stroke-width="1" d="M459.875,-339.1567101633893 A7.125000000000001,12.5,0,0,0,474.125,-339.1567101633893 A7.125000000000001,12.5,0,0,0,459.875,-339.1567101633893" stroke="black" />
<path fill="black" stroke-width="1" d="M384.9,-305.03333333333336 L415.1,-305.03333333333336 L400.0,-284.9 Z" stroke="black" />
<path fill="black" stroke-width="2" d="M400.0,-284.9 L400.0,-262.25" stroke="black" />
<path fill="none" stroke-width="2" d="M369.8,-258.25 A30.200000000000003,30.200000000000003,30,0,0,400.0,-262.25 A30.200000000000003,30.200000000000003,150,0,0,430.2,-258.25" stroke="black" />
<path fill="black" stroke-width="1" d="M366.0,-274.9 L320.6014861644138,-262.7355048801815" stroke="black" />
<path fill="black" stroke-width="1" d="M360.0,-280.9 L313.178849189688,-276.80368009086004" stroke="black" />
<path fill="black" stroke-width="1" d="M366.0,-286.9 L319.178849189688,-290.9963199091399" stroke="black" />
<path fill="black" stroke-width="1" d="M434.0,-274.9 L479.3985138355862,-262.7355048801815" stroke="black" />
<path fill="black" stroke-width="1" d="M440.0,-280.9 L486.821150810312,-276.80368009086004" stroke="black" />
<path fill="black" stroke-width="1" d="M434.0,-286.9 L480.821150810312,-290.9963199091399" stroke="black" />
</g>
</svg>