<?xml version="1.0" encoding="UTF-8"?>
<svg xmlns="http://www.w3.org/2000/svg" xmlns:xlink="http://www.w3.org/1999/xlink"
     width="800" height="600" viewBox="0 -600 800 600">
<defs>
</defs>
<g>
<path fill="hsl(45, 6%, 55%)" stroke-width="1" d="M362.65503859729074,-212.29819669491098 L177.96022469430477,-240.2636346021099 A24.8,24.8,0,0,1,170.20534995049047,-265.8039581339284 L308.1707895907498,-391.73956654104234" stroke="black" />
<path fill="hsl(45, 6%, 55%)" stroke-width="1" d="M437.34496140270926,-212.29819669491098 L622.0397753056952,-240.2636346021099 A24.8,24.8,0,0,0,629.7946500495095,-265.8039581339284 L491.8292104092502,-391.73956654104234" stroke="black" />
<path fill="hsl(45, 6%, 55%)" stroke-width="1" d="M241.44288095452794,-300.0 A158.55711904547206,188.7584750541334,0,0,0,558.5571190454721,-300.0 A158.55711904547206,188.7584750541334,0,0,0,241.44288095452794,-300.0" stroke="black" />
<path fill="black" stroke-width="1" d="M338.445,-347.18961876353336 A9.555,10.5,0,0,0,357.555,-347.18961876353336 A9.555,10.5,0,0,0,338.445,-347.18961876353336" stroke="black" />
<path fill="black" stroke-width="1" d="M442.445,-347.18961876353336 A9.555,10.5,0,0,0,461.555,-347.18961876353336 A9.555,10.5,0,0,0,442.445,-347.18961876353336" stroke="black" />
<path fill="black" stroke-width="1" d="M388.0,-304.0 L412.0,-304.0 L400.0,-288.0 Z" stroke="black" />
<path fill="black" stroke-width="2" d="M400.0,-288.0 L400.0,-270.0" stroke="black" />
<path fill="none" stroke-width="2" d="M376.0,-266.0 A24.0,24.0,30,0,0,400.0,-270.0 A24.0,24.0,150,0,0,424.0,-266.0" stroke="black" />
<path fill="black" stroke-width="1" d="M366.0,-278.0 L331.2266702535935,-268.68251437630926" stroke="black" />
<path fill="black" stroke-width="1" d="M360.0,-284.0 L324.1369908686972,-280.8623932610843" stroke="black" />
<path fill="black" stroke-width="1" d="M366.0,-290.0 L330.1369908686972,-293.1376067389157" stroke="black" />
<path fill="black" stroke-width="1" d="M434.0,-278.0 L468.7733297464065,-268.68251437630926" stroke="black" />
<path fill="black" stroke-width="1" d="M440.0,-284.0 L475.8630091313028,-280.8623932610843" stroke="black" />
<path fill="black" stroke-width="1" d="M434.0,-290.0 L469.8630091313028,-293.1376067389157" stroke="black" />
</g>
</svg>