<?xml version="1.0" encoding="UTF-8"?>
<svg xmlns="http://www.w3.org/2000/svg" xmlns:xlink="http://www.w3.org/1999/xlink"
     width="800" height="600" viewBox="0 -600 800 600">
<defs>
</defs>
<g>
<path fill="hsl(45, 17%, 42%)" stroke-width="1" d="M374.18051851761527,-171.82544401067562 L126.69576834864779,-193.12939748893288 A7.2,7.2,0,0,1,123.13522355652276,-201.09655507351067 L272.3489374628417,-399.6861509295958" stroke="black" />
<path fill="hsl(45, 17%, 42%)" stroke-width="1" d="M425.81948148238473,-171.82544401067562 L673.3042316513522,-193.12939748893288 A7.2,7.2,0,0,0,676.8647764434772,-201.09655507351067 L527.6510625371583,-399.6861509295958" stroke="black" />
<path fill="hsl(45, 17%, 42%)" stroke-width="1" d="M210.48799510321254,-300.0 A189.51200489678746,157.9266707473229,0,0,0,589.5120048967874,-300.0 A189.51200489678746,157.9266707473229,0,0,0,210.48799510321254,-300.0" stroke="black" />
<path fill="black" stroke-width="1" d="M313.856,-339.48166768683075 A9.143999999999998,12.7,0,0,0,332.144,-339.48166768683075 A9.143999999999998,12.7,0,0,0,313.856,-339.48166768683075" stroke="black" />
<path fill="black" stroke-width="1" d="M467.856,-339.48166768683075 A9.143999999999998,12.7,0,0,0,486.144,-339.48166768683075 A9.143999999999998,12.7,0,0,0,467.856,-339.48166768683075" stroke="black" />
<path fill="black" stroke-width="1" d="M388.7,-303.76666666666665 L411.3,-303.76666666666665 L400.0,-288.7 Z" stroke="black" />
<path fill="black" stroke-width="2" d="M400.0,-288.7 L400.0,-271.75" stroke="black" />
<path fill="none" stroke-width="2" d="M377.4,-267.75 A22.6,22.6,30,0,0,400.0,-271.75 A22.6,22.6,150,0,0,422.6,-267.75" stroke="black" />
<path fill="black" stroke-width="1" d="M366.0,-278.7 L352.477038431953,-275.0765333685647" stroke="black" />
<path fill="black" stroke-width="1" d="M360.0,-284.7 L346.0532742267156,-283.47981960153277" stroke="black" />
<path fill="black" stroke-width="1" d="M366.0,-290.7 L352.0532742267156,-291.9201803984672" stroke="black" />
<path fill="black" stroke-width="1" d="M434.0,-278.7 L447.522961568047,-275.0765333685647" stroke="black" />
<path fill="black" stroke-width="1" d="M440.0,-284.7 L453.9467257732844,-283.47981960153277" stroke="black" />
<path fill="black" stroke-width="1" d="M434.0,-290.7 L447.9467257732844,-291.9201803984672" stroke="black" />
</g>
</svg>