<?xml version="1.0" encoding="UTF-8"?>
<svg xmlns="http://www.w3.org/2000/svg" xmlns:xlink="http://www.w3.org/1999/xlink"
     width="800" height="600" viewBox="0 -600 800 600">
<defs>
</defs>
<g>
<path fill="hsl(45, 54%, 50%)" stroke-width="1" d="M319.89957454168666,-234.46735077622952 L124.01220051534324,-344.7541437165605 A20.8,20.8,0,0,1,126.72804196450636,-363.1903147175458 L346.0969989820759,-412.30549258573365" stroke="black" />
<path fill="hsl(45, 54%, 50%)" stroke-width="1" d="M480.10042545831334,-234.46735077622952 L675.9877994846568,-344.7541437165605 A20.8,20.8,0,0,0,673.2719580354936,-363.1903147175458 L453.9030010179241,-412.30549258573365" stroke="black" />
<path fill="hsl(45, 54%, 50%)" stroke-width="1" d="M208.1337184391171,-300.0 A191.8662815608829,155.9888467974658,0,0,0,591.866281560883,-300.0 A191.8662815608829,155.9888467974658,0,0,0,208.1337184391171,-300.0" stroke="black" />
<path fill="black" stroke-width="1" d="M323.875,-338.99721169936646 A11.125,12.5,0,0,0,346.125,-338.99721169936646 A11.125,12.5,0,0,0,323.875,-338.99721169936646" stroke="black" />
<path fill="black" stroke-width="1" d="M453.875,-338.99721169936646 A11.125,12.5,0,0,0,476.125,-338.99721169936646 A11.125,12.5,0,0,0,453.875,-338.99721169936646" stroke="black" />
<path fill="black" stroke-width="1" d="M382.2,-305.93333333333334 L417.8,-305.93333333333334 L400.0,-282.2 Z" stroke="black" />
<path fill="black" stroke-width="2" d="M400.0,-282.2 L400.0,-255.5" stroke="black" />
<path fill="none" stroke-width="2" d="M364.4,-251.5 A35.6,35.6,30,0,0,400.0,-255.5 A35.6,35.6,150,0,0,435.6,-251.5" stroke="black" />
<path fill="black" stroke-width="1" d="M366.0,-272.2 L333.1585219061717,-263.40015246651427" stroke="black" />
<path fill="black" stroke-width="1" d="M360.0,-278.2 L326.12938026488064,-275.2367047465796" stroke="black" />
<path fill="black" stroke-width="1" d="M366.0,-284.2 L332.12938026488064,-287.16329525342036" stroke="black" />
<path fill="black" stroke-width="1" d="M434.0,-272.2 L466.8414780938283,-263.40015246651427" stroke="black" />
<path fill="black" stroke-width="1" d="M440.0,-278.2 L473.87061973511936,-275.2367047465796" stroke="black" />
<path fill="black" stroke-width="1" d="M434.0,-284.2 L467.87061973511936,-287.16329525342036" stroke="black" />
</g>
</svg>