<?xml version="1.0" encoding="UTF-8"?>
<svg xmlns="http://www.w3.org/2000/svg" xmlns:xlink="http://www.w3.org/1999/xlink"
     width="800" height="600" viewBox="0 -600 800 600">
<defs>
</defs>
<g>
<path fill="hsl(45, 41%, 35%)" stroke-width="1" d="M420.57085432626224,-217.1990726178854 L192.51448431431697,-115.75720701509431 A8.0,8.0,0,0,1,186.8010918866189,-121.08876146715824 L272.2511869032188,-355.60622619346395" stroke="black" />
<path fill="hsl(45, 41%, 35%)" stroke-width="1" d="M379.42914567373776,-217.1990726178854 L607.485515685683,-115.75720701509431 A8.0,8.0,0,0,0,613.1989081133811,-121.08876146715824 L527.7488130967812,-355.60622619346395" stroke="black" />
<path fill="hsl(45, 41%, 35%)" stroke-width="1" d="M243.34183711022268,-300.0 A156.65816288977732,191.0465401094845,0,0,0,556.6581628897773,-300.0 A156.65816288977732,191.0465401094845,0,0,0,243.34183711022268,-300.0" stroke="black" />
<path fill="black" stroke-width="1" d="M331.9,-347.76163502737114 A9.1,10.0,0,0,0,350.1,-347.76163502737114 A9.1,10.0,0,0,0,331.9,-347.76163502737114" stroke="black" />
<path fill="black" stroke-width="1" d="M449.9,-347.76163502737114 A9.1,10.0,0,0,0,468.1,-347.76163502737114 A9.1,10.0,0,0,0,449.9,-347.76163502737114" stroke="black" />
<path fill="black" stroke-width="1" d="M380.0,-306.6666666666667 L420.0,-306.6666666666667 L400.0,-280.0 Z" stroke="black" />
<path fill="black" stroke-width="2" d="M400.0,-280.0 L400.0,-250.0" stroke="black" />
<path fill="none" stroke-width="2" d="M360.0,-246.0 A40.0,40.0,30,0,0,400.0,-250.0 A40.0,40.0,150,0,0,440.0,-246.0" stroke="black" />
<path fill="black" stroke-width="1" d="M366.0,-270.0 L346.6814834742186,-264.8236190979496" stroke="black" />
<path fill="black" stroke-width="1" d="M360.0,-276.0 L340.0761060381651,-274.25688514504685" stroke="black" />
<path fill="black" stroke-width="1" d="M366.0,-282.0 L346.0761060381651,-283.74311485495315" stroke="black" />
<path fill="black" stroke-width="1" d="M434.0,-270.0 L453.3185165257814,-264.8236190979496" stroke="black" />
<path fill="black" stroke-width="1" d="M440.0,-276.0 L459.9238939618349,-274.25688514504685" stroke="black" />
<path fill="black" stroke-width="1" d="M434.0,-282.0 L453.9238939618349,-283.74311485495315" stroke="black" />
</g>
</svg>