<?xml version="1.0" encoding="UTF-8"?>
<svg xmlns="http://www.w3.org/2000/svg" xmlns:xlink="http://www.w3.org/1999/xlink"
     width="800" height="600" viewBox="0 -600 800 600">
<defs>
</defs>
<g>
<path fill="hsl(45, 26%, 33%)" stroke-width="1" d="M413.21695397402004,-188.38056028151544 L232.44430189909122,-153.01266153425144 A56.800000000000004,56.800000000000004,0,0,1,200.316052782415,-199.6374204349331 L297.73626137436156,-355.9670176259373" stroke="black" />
<path fill="hsl(45, 26%, 33%)" stroke-width="1" d="M386.78304602597996,-188.38056028151544 L567.5556981009088,-153.01266153425144 A56.800000000000004,56.800000000000004,0,0,0,599.683947217585,-199.6374204349331 L502.26373862563844,-355.9670176259373" stroke="black" />
<path fill="hsl(45, 26%, 33%)" stroke-width="1" d="M233.16484183482189,-300.0 A166.83515816517811,179.3926431883636,0,0,0,566.8351581651781,-300.0 A166.83515816517811,179.3926431883636,0,0,0,233.16484183482189,-300.0" stroke="black" />
<path fill="black" stroke-width="1" d="M343.16,-344.8481607970909 A6.840000000000001,12.0,0,0,0,356.84,-344.8481607970909 A6.840000000000001,12.0,0,0,0,343.16,-344.8481607970909" stroke="black" />
<path fill="black" stroke-width="1" d="M443.16,-344.8481607970909 A6.840000000000001,12.0,0,0,0,456.84,-344.8481607970909 A6.840000000000001,12.0,0,0,0,443.16,-344.8481607970909" stroke="black" />
<path fill="black" stroke-width="1" d="M384.7,-305.1 L415.3,-305.1 L400.0,-284.7 Z" stroke="black" />
<path fill="black" stroke-width="2" d="M400.0,-284.7 L400.0,-261.75" stroke="black" />
<path fill="none" stroke-width="2" d="M369.4,-257.75 A30.6,30.6,30,0,0,400.0,-261.75 A30.6,30.6,150,0,0,430.6,-257.75" stroke="black" />
<path fill="black" stroke-width="1" d="M366.0,-274.7 L334.12444773246074,-266.1589715116168" stroke="black" />
<path fill="black" stroke-width="1" d="M360.0,-280.7 L327.1255749629724,-277.8238604893273" stroke="black" />
<path fill="black" stroke-width="1" d="M366.0,-286.7 L333.1255749629724,-289.5761395106727" stroke="black" />
<path fill="black" stroke-width="1" d="M434.0,-274.7 L465.87555226753926,-266.1589715116168" stroke="black" />
<path fill="black" stroke-width="1" d="M440.0,-280.7 L472.8744250370276,-277.8238604893273" stroke="black" />
<path fill="black" stroke-width="1" d="M434.0,-286.7 L466.8744250370276,-289.5761395106727" stroke="black" />
</g>
</svg>