<?xml version="1.0" encoding="UTF-8"?>
<svg xmlns="http://www.w3.org/2000/svg" xmlns:xlink="http://www.w3.org/1999/xlink"
     width="800" height="600" viewBox="0 -600 800 600">
<defs>
</defs>
<g>
<path fill="hsl(45, 32%, 43%)" stroke-width="1" d="M375.86844007823885,-215.7479116183161 L238.79404081976963,-152.41064716894334 A28.8,28.8,0,0,1,221.44210608892763,-169.88414608965758 L285.73477911525356,-306.51303101202654" stroke="black" />
<path fill="hsl(45, 32%, 43%)" stroke-width="1" d="M424.13155992176115,-215.7479116183161 L561.2059591802304,-152.41064716894334 A28.8,28.8,0,0,0,578.5578939110724,-169.88414608965758 L514.2652208847464,-306.51303101202654" stroke="black" />
<path fill="hsl(45, 32%, 43%)" stroke-width="1" d="M244.29999999999998,-300.0 A155.70000000000002,192.22222222222223,0,0,0,555.7,-300.0 A155.70000000000002,192.22222222222223,0,0,0,244.29999999999998,-300.0" stroke="black" />
<path fill="black" stroke-width="1" d="M318.828,-348.05555555555554 A11.171999999999999,14.7,0,0,0,341.172,-348.05555555555554 A11.171999999999999,14.7,0,0,0,318.828,-348.05555555555554" stroke="black" />
<path fill="black" stroke-width="1" d="M458.828,-348.05555555555554 A11.171999999999999,14.7,0,0,0,481.172,-348.05555555555554 A11.171999999999999,14.7,0,0,0,458.828,-348.05555555555554" stroke="black" />
<path fill="black" stroke-width="1" d="M381.5,-306.1666666666667 L418.5,-306.1666666666667 L400.0,-281.5 Z" stroke="black" />
<path fill="black" stroke-width="2" d="M400.0,-281.5 L400.0,-253.75" stroke="black" />
<path fill="none" stroke-width="2" d="M363.0,-249.75 A37.0,37.0,30,0,0,400.0,-253.75 A37.0,37.0,150,0,0,437.0,-249.75" stroke="black" />
<path fill="black" stroke-width="1" d="M366.0,-271.5 L321.56741199070285,-259.594323925284" stroke="black" />
<path fill="black" stroke-width="1" d="M360.0,-277.5 L314.1750438877797,-273.4908358336077" stroke="black" />
<path fill="black" stroke-width="1" d="M366.0,-283.5 L320.1750438877797,-287.5091641663923" stroke="black" />
<path fill="black" stroke-width="1" d="M434.0,-271.5 L478.43258800929715,-259.5943239252841" stroke="black" />
<path fill="black" stroke-width="1" d="M440.0,-277.5 L485.8249561122203,-273.4908358336077" stroke="black" />
<path fill="black" stroke-width="1" d="M434.0,-283.5 L479.8249561122203,-287.5091641663923" stroke="black" />
</g>
</svg>