<?xml version="1.0" encoding="UTF-8"?>
<svg xmlns="http://www.w3.org/2000/svg" xmlns:xlink="http://www.w3.org/1999/xlink"
     width="800" height="600" viewBox="0 -600 800 600">
<defs>
</defs>
<g>
<path fill="hsl(45, 31%, 39%)" stroke-width="1" d="M376.2393024875645,-207.31846001453883 L176.87712041960344,-147.99965725267293 A0.8,0.8,0,0,1,176.42513369626613,-148.5767192932617 L281.7740773100811,-327.9244264976005" stroke="black" />
<path fill="hsl(45, 31%, 39%)" stroke-width="1" d="M423.7606975124355,-207.31846001453883 L623.1228795803966,-147.99965725267293 A0.8,0.8,0,0,0,623.5748663037339,-148.5767192932617 L518.2259226899189,-327.9244264976005" stroke="black" />
<path fill="hsl(45, 31%, 39%)" stroke-width="1" d="M217.73319007564763,-300.0 A182.26680992435237,164.20433326518233,0,0,0,582.2668099243524,-300.0 A182.26680992435237,164.20433326518233,0,0,0,217.73319007564763,-300.0" stroke="black" />
<path fill="black" stroke-width="1" d="M314.248,-341.0510833162956 A9.751999999999999,10.6,0,0,0,333.752,-341.0510833162956 A9.751999999999999,10.6,0,0,0,314.248,-341.0510833162956" stroke="black" />
<path fill="black" stroke-width="1" d="M466.248,-341.0510833162956 A9.751999999999999,10.6,0,0,0,485.752,-341.0510833162956 A9.751999999999999,10.6,0,0,0,466.248,-341.0510833162956" stroke="black" />
<path fill="black" stroke-width="1" d="M387.1,-304.3 L412.9,-304.3 L400.0,-287.1 Z" stroke="black" />
<path fill="black" stroke-width="2" d="M400.0,-287.1 L400.0,-267.75" stroke="black" />
<path fill="none" stroke-width="2" d="M374.2,-263.75 A25.8,25.8,30,0,0,400.0,-267.75 A25.8,25.8,150,0,0,425.8,-263.75" stroke="black" />
<path fill="black" stroke-width="1" d="M366.0,-277.1 L350.5451867793749,-272.9588952783597" stroke="black" />
<path fill="black" stroke-width="1" d="M360.0,-283.1 L344.0608848305321,-281.7055081160375" stroke="black" />
<path fill="black" stroke-width="1" d="M366.0,-289.1 L350.0608848305321,-290.49449188396255" stroke="black" />
<path fill="black" stroke-width="1" d="M434.0,-277.1 L449.4548132206251,-272.9588952783597" stroke="black" />
<path fill="black" stroke-width="1" d="M440.0,-283.1 L455.9391151694679,-281.7055081160375" stroke="black" />
<path fill="black" stroke-width="1" d="M434.0,-289.1 L449.9391151694679,-290.49449188396255" stroke="black" />
</g>
</svg>