<?xml version="1.0" encoding="UTF-8"?>
<svg xmlns="http://www.w3.org/2000/svg" xmlns:xlink="http://www.w3.org/1999/xlink"
     width="800" height="600" viewBox="0 -600 800 600">
<defs>
</defs>
<g>
<path fill="hsl(45, 43%, 50%)" stroke-width="1" d="M306.9220254640323,-281.401012391026 L203.26655370683443,-373.10762706408406 A60.0,60.0,0,0,1,222.06917402082604,-420.8408595571739 L360.4217477974432,-417.21796991136426" stroke="black" />
<path fill="hsl(45, 43%, 50%)" stroke-width="1" d="M493.0779745359677,-281.401012391026 L596.7334462931656,-373.10762706408406 A60.0,60.0,0,0,0,577.930825979174,-420.8408595571739 L439.5782522025568,-417.21796991136426" stroke="black" />
<path fill="hsl(45, 43%, 50%)" stroke-width="1" d="M205.80798162643245,-300.0 A194.19201837356755,154.12064950283138,0,0,0,594.1920183735675,-300.0 A194.19201837356755,154.12064950283138,0,0,0,205.80798162643245,-300.0" stroke="black" />
<path fill="black" stroke-width="1" d="M331.604,-338.53016237570785 A10.395999999999999,11.3,0,0,0,352.396,-338.53016237570785 A10.395999999999999,11.3,0,0,0,331.604,-338.53016237570785" stroke="black" />
<path fill="black" stroke-width="1" d="M447.604,-338.53016237570785 A10.395999999999999,11.3,0,0,0,468.396,-338.53016237570785 A10.395999999999999,11.3,0,0,0,447.604,-338.53016237570785" stroke="black" />
<path fill="black" stroke-width="1" d="M383.8,-305.4 L416.2,-305.4 L400.0,-283.8 Z" stroke="black" />
<path fill="black" stroke-width="2" d="M400.0,-283.8 L400.0,-259.5" stroke="black" />
<path fill="none" stroke-width="2" d="M367.6,-255.5 A32.4,32.4,30,0,0,400.0,-259.5 A32.4,32.4,150,0,0,432.4,-255.5" stroke="black" />
<path fill="black" stroke-width="1" d="M366.0,-273.8 L311.9081537278122,-259.30613347425884" stroke="black" />
<path fill="black" stroke-width="1" d="M360.0,-279.8 L304.21309690686223,-274.9192784061312" stroke="black" />
<path fill="black" stroke-width="1" d="M366.0,-285.8 L310.21309690686223,-290.6807215938689" stroke="black" />
<path fill="black" stroke-width="1" d="M434.0,-273.8 L488.0918462721878,-259.30613347425884" stroke="black" />
<path fill="black" stroke-width="1" d="M440.0,-279.8 L495.78690309313777,-274.9192784061311" stroke="black" />
<path fill="black" stroke-width="1" d="M434.0,-285.8 L489.78690309313777,-290.6807215938689" stroke="black" />
</g>
</svg>