<?xml version="1.0" encoding="UTF-8"?>
<svg xmlns="http://www.w3.org/2000/svg" xmlns:xlink="http://www.w3.org/1999/xlink"
     width="800" height="600" viewBox="0 -600 800 600">
<defs>
</defs>
<g>
<path fill="hsl(45, 40%, 56%)" stroke-width="1" d="M338.76414062289666,-238.73545359080677 L119.01277547192683,-332.1954852315307 A9.600000000000001,9.600000000000001,0,0,1,118.84922461581846,-341.9557944728465 L335.3459277302313,-442.7259167343074" stroke="black" />
<path fill="hsl(45, 40%, 56%)" stroke-width="1" d="M461.23585937710334,-238.73545359080677 L680.9872245280732,-332.1954852315307 A9.600000000000001,9.600000000000001,0,0,0,681.1507753841815,-341.9557944728465 L464.6540722697687,-442.7259167343074" stroke="black" />
<path fill="hsl(45, 40%, 56%)" stroke-width="1" d="M219.3826973958475,-300.0 A180.6173026041525,165.7039473432592,0,0,0,580.6173026041525,-300.0 A180.6173026041525,165.7039473432592,0,0,0,219.3826973958475,-300.0" stroke="black" />
<path fill="black" stroke-width="1" d="M315.985,-341.4259868358148 A12.015,13.5,0,0,0,340.015,-341.4259868358148 A12.015,13.5,0,0,0,315.985,-341.4259868358148" stroke="black" />
<path fill="black" stroke-width="1" d="M459.985,-341.4259868358148 A12.015,13.5,0,0,0,484.015,-341.4259868358148 A12.015,13.5,0,0,0,459.985,-341.4259868358148" stroke="black" />
<path fill="black" stroke-width="1" d="M387.2,-304.26666666666665 L412.8,-304.26666666666665 L400.0,-287.2 Z" stroke="black" />
<path fill="black" stroke-width="2" d="M400.0,-287.2 L400.0,-268.0" stroke="black" />
<path fill="none" stroke-width="2" d="M374.4,-264.0 A25.6,25.6,30,0,0,400.0,-268.0 A25.6,25.6,150,0,0,425.6,-264.0" stroke="black" />
<path fill="black" stroke-width="1" d="M366.0,-277.2 L359.2385192159765,-275.38826668428237" stroke="black" />
<path fill="black" stroke-width="1" d="M360.0,-283.2 L353.02663711335776,-282.5899098007664" stroke="black" />
<path fill="black" stroke-width="1" d="M366.0,-289.2 L359.02663711335776,-289.81009019923357" stroke="black" />
<path fill="black" stroke-width="1" d="M434.0,-277.2 L440.7614807840235,-275.38826668428237" stroke="black" />
<path fill="black" stroke-width="1" d="M440.0,-283.2 L446.97336288664224,-282.5899098007664" stroke="black" />
<path fill="black" stroke-width="1" d="M434.0,-289.2 L440.97336288664224,-289.81009019923357" stroke="black" />
</g>
</svg>