<?xml version="1.0" encoding="UTF-8"?>
<svg xmlns="http://www.w3.org/2000/svg" xmlns:xlink="http://www.w3.org/1999/xlink"
     width="800" height="600" viewBox="0 -600 800 600">
<defs>
</defs>
<g>
<path fill="hsl(45, 53%, 32%)" stroke-width="1" d="M285.3723046575212,-206.3242220764448 L126.60309724310355,-322.61084545591007 A25.6,25.6,0,0,1,130.29091360037808,-353.90944020230774 L311.7401916120343,-430.10917451318767" stroke="black" />
<path fill="hsl(45, 53%, 32%)" stroke-width="1" d="M514.6276953424788,-206.3242220764448 L673.3969027568965,-322.61084545591007 A25.6,25.6,0,0,0,669.7090863996219,-353.90944020230774 L488.2598083879657,-430.10917451318767" stroke="black" />
<path fill="hsl(45, 53%, 32%)" stroke-width="1" d="M200.48666711219522,-300.0 A199.51333288780478,150.01002472767274,0,0,0,599.5133328878048,-300.0 A199.51333288780478,150.01002472767274,0,0,0,200.48666711219522,-300.0" stroke="black" />
<path fill="black" stroke-width="1" d="M336.848,-337.5025061819182 A9.152000000000001,14.3,0,0,0,355.152,-337.5025061819182 A9.152000000000001,14.3,0,0,0,336.848,-337.5025061819182" stroke="black" />
<path fill="black" stroke-width="1" d="M444.848,-337.5025061819182 A9.152000000000001,14.3,0,0,0,463.152,-337.5025061819182 A9.152000000000001,14.3,0,0,0,444.848,-337.5025061819182" stroke="black" />
<path fill="black" stroke-width="1" d="M385.9,-304.7 L414.1,-304.7 L400.0,-285.9 Z" stroke="black" />
<path fill="black" stroke-width="2" d="M400.0,-285.9 L400.0,-264.75" stroke="black" />
<path fill="none" stroke-width="2" d="M371.8,-260.75 A28.200000000000003,28.200000000000003,30,0,0,400.0,-264.75 A28.200000000000003,28.200000000000003,150,0,0,428.2,-260.75" stroke="black" />
<path fill="black" stroke-width="1" d="M366.0,-275.9 L321.56741199070285,-263.994323925284" stroke="black" />
<path fill="black" stroke-width="1" d="M360.0,-281.9 L314.1750438877797,-277.8908358336077" stroke="black" />
<path fill="black" stroke-width="1" d="M366.0,-287.9 L320.1750438877797,-291.90916416639226" stroke="black" />
<path fill="black" stroke-width="1" d="M434.0,-275.9 L478.43258800929715,-263.99432392528405" stroke="black" />
<path fill="black" stroke-width="1" d="M440.0,-281.9 L485.8249561122203,-277.8908358336077" stroke="black" />
<path fill="black" stroke-width="1" d="M434.0,-287.9 L479.8249561122203,-291.90916416639226" stroke="black" />
</g>
</svg>