<?xml version="1.0" encoding="UTF-8"?>
<svg xmlns="http://www.w3.org/2000/svg" xmlns:xlink="http://www.w3.org/1999/xlink"
     width="800" height="600" viewBox="0 -600 800 600">
<defs>
</defs>
<g>
<path fill="hsl(45, 20%, 41%)" stroke-width="1" d="M326.1054617826847,-207.97382004732447 L137.8484610724165,-270.5985889776296 A12.0,12.0,0,0,1,136.39122490989485,-283.19311312138734 L305.3738486438755,-387.15191686585104" stroke="black" />
<path fill="hsl(45, 20%, 41%)" stroke-width="1" d="M473.8945382173153,-207.97382004732447 L662.1515389275835,-270.5985889776296 A12.0,12.0,0,0,0,663.6087750901052,-283.19311312138734 L494.6261513561245,-387.15191686585104" stroke="black" />
<path fill="hsl(45, 20%, 41%)" stroke-width="1" d="M219.3826973958475,-300.0 A180.6173026041525,165.7039473432592,0,0,0,580.6173026041525,-300.0 A180.6173026041525,165.7039473432592,0,0,0,219.3826973958475,-300.0" stroke="black" />
<path fill="black" stroke-width="1" d="M332.497,-341.4259868358148 A7.503,12.3,0,0,0,347.503,-341.4259868358148 A7.503,12.3,0,0,0,332.497,-341.4259868358148" stroke="black" />
<path fill="black" stroke-width="1" d="M452.497,-341.4259868358148 A7.503,12.3,0,0,0,467.503,-341.4259868358148 A7.503,12.3,0,0,0,452.497,-341.4259868358148" stroke="black" />
<path fill="black" stroke-width="1" d="M380.3,-306.56666666666666 L419.7,-306.56666666666666 L400.0,-280.3 Z" stroke="black" />
<path fill="black" stroke-width="2" d="M400.0,-280.3 L400.0,-250.75" stroke="black" />
<path fill="none" stroke-width="2" d="M360.6,-246.75 A39.400000000000006,39.400000000000006,30,0,0,400.0,-250.75 A39.400000000000006,39.400000000000006,150,0,0,439.4,-246.75" stroke="black" />
<path fill="black" stroke-width="1" d="M366.0,-270.3 L313.8400053803903,-256.32377156446387" stroke="black" />
<path fill="black" stroke-width="1" d="M360.0,-276.3 L306.20548630304575,-271.5935898916265" stroke="black" />
<path fill="black" stroke-width="1" d="M366.0,-282.3 L312.20548630304575,-287.00641010837353" stroke="black" />
<path fill="black" stroke-width="1" d="M434.0,-270.3 L486.1599946196097,-256.32377156446387" stroke="black" />
<path fill="black" stroke-width="1" d="M440.0,-276.3 L493.79451369695425,-271.59358989162644" stroke="black" />
<path fill="black" stroke-width="1" d="M434.0,-282.3 L487.79451369695425,-287.00641010837353" stroke="black" />
</g>
</svg>