<?xml version="1.0" encoding="UTF-8"?>
<svg xmlns="http://www.w3.org/2000/svg" xmlns:xlink="http://www.w3.org/1999/xlink"
     width="800" height="600" viewBox="0 -600 800 600">
<defs>
</defs>
<g>
<path fill="hsl(45, 25%, 63%)" stroke-width="1" d="M314.79048493723167,-236.84704262437836 L143.331593602888,-360.5070951166757 A10.4,10.4,0,0,1,145.68525507311494,-369.7408769278454 L355.4183029309956,-396.23632250333935" stroke="black" />
<path fill="hsl(45, 25%, 63%)" stroke-width="1" d="M485.20951506276833,-236.84704262437836 L656.668406397112,-360.5070951166757 A10.4,10.4,0,0,0,654.314744926885,-369.7408769278454 L444.5816970690044,-396.23632250333935" stroke="black" />
<path fill="hsl(45, 25%, 63%)" stroke-width="1" d="M226.13715175460862,-300.0 A173.86284824539138,172.14143390632813,0,0,0,573.8628482453914,-300.0 A173.86284824539138,172.14143390632813,0,0,0,226.13715175460862,-300.0" stroke="black" />
<path fill="black" stroke-width="1" d="M337.41,-343.035358476582 A7.590000000000001,11.5,0,0,0,352.59,-343.035358476582 A7.590000000000001,11.5,0,0,0,337.41,-343.035358476582" stroke="black" />
<path fill="black" stroke-width="1" d="M447.41,-343.035358476582 A7.590000000000001,11.5,0,0,0,462.59,-343.035358476582 A7.590000000000001,11.5,0,0,0,447.41,-343.035358476582" stroke="black" />
<path fill="black" stroke-width="1" d="M382.4,-305.8666666666667 L417.6,-305.8666666666667 L400.0,-282.4 Z" stroke="black" />
<path fill="black" stroke-width="2" d="M400.0,-282.4 L400.0,-256.0" stroke="black" />
<path fill="none" stroke-width="2" d="M364.8,-252.0 A35.2,35.2,30,0,0,400.0,-256.0 A35.2,35.2,150,0,0,435.2,-252.0" stroke="black" />
<path fill="black" stroke-width="1" d="M366.0,-272.4 L313.8400053803903,-258.42377156446383" stroke="black" />
<path fill="black" stroke-width="1" d="M360.0,-278.4 L306.20548630304575,-273.69358989162646" stroke="black" />
<path fill="black" stroke-width="1" d="M366.0,-284.4 L312.20548630304575,-289.1064101083735" stroke="black" />
<path fill="black" stroke-width="1" d="M434.0,-272.4 L486.1599946196097,-258.42377156446383" stroke="black" />
<path fill="black" stroke-width="1" d="M440.0,-278.4 L493.79451369695425,-273.6935898916264" stroke="black" />
<path fill="black" stroke-width="1" d="M434.0,-284.4 L487.79451369695425,-289.1064101083735" stroke="black" />
</g>
</svg>