<?xml version="1.0" encoding="UTF-8"?>
<svg xmlns="http://www.w3.org/2000/svg" xmlns:xlink="http://www.w3.org/1999/xlink"
     width="800" height="600" viewBox="0 -600 800 600">
<defs>
</defs>
<g>
<path fill="hsl(45, 38%, 37%)" stroke-width="1" d="M401.18412872818374,-202.8395248519771 L223.55391636254797,-107.07550418169015 A4.0,4.0,0,0,1,220.0785318339498,-109.61630776045979 L257.442224625362,-307.9271608698874" stroke="black" />
<path fill="hsl(45, 38%, 37%)" stroke-width="1" d="M398.81587127181626,-202.8395248519771 L576.446083637452,-107.07550418169015 A4.0,4.0,0,0,0,579.9214681660502,-109.61630776045979 L542.557775374638,-307.9271608698874" stroke="black" />
<path fill="hsl(45, 38%, 37%)" stroke-width="1" d="M246.2342365804403,-300.0 A153.7657634195597,194.64020686020214,0,0,0,553.7657634195597,-300.0 A153.7657634195597,194.64020686020214,0,0,0,246.2342365804403,-300.0" stroke="black" />
<path fill="black" stroke-width="1" d="M332.3,-348.66005171505054 A5.7,11.4,0,0,0,343.7,-348.66005171505054 A5.7,11.4,0,0,0,332.3,-348.66005171505054" stroke="black" />
<path fill="black" stroke-width="1" d="M456.3,-348.66005171505054 A5.7,11.4,0,0,0,467.7,-348.66005171505054 A5.7,11.4,0,0,0,456.3,-348.66005171505054" stroke="black" />
<path fill="black" stroke-width="1" d="M389.2,-303.6 L410.8,-303.6 L400.0,-289.2 Z" stroke="black" />
<path fill="black" stroke-width="2" d="M400.0,-289.2 L400.0,-273.0" stroke="black" />
<path fill="none" stroke-width="2" d="M378.4,-269.0 A21.6,21.6,30,0,0,400.0,-273.0 A21.6,21.6,150,0,0,421.6,-269.0" stroke="black" />
<path fill="black" stroke-width="1" d="M366.0,-279.2 L323.499263643281,-267.8119620154891" stroke="black" />
<path fill="black" stroke-width="1" d="M360.0,-285.2 L316.1674332839632,-281.365147319103" stroke="black" />
<path fill="black" stroke-width="1" d="M366.0,-291.2 L322.1674332839632,-295.03485268089696" stroke="black" />
<path fill="black" stroke-width="1" d="M434.0,-279.2 L476.500736356719,-267.8119620154891" stroke="black" />
<path fill="black" stroke-width="1" d="M440.0,-285.2 L483.8325667160368,-281.365147319103" stroke="black" />
<path fill="black" stroke-width="1" d="M434.0,-291.2 L477.8325667160368,-295.03485268089696" stroke="black" />
</g>
</svg>