<?xml version="1.0" encoding="UTF-8"?>
<svg xmlns="http://www.w3.org/2000/svg" xmlns:xlink="http://www.w3.org/1999/xlink"
     width="800" height="600" viewBox="0 -600 800 600">
<defs>
</defs>
<g>
<path fill="hsl(45, 27%, 68%)" stroke-width="1" d="M334.987652482931,-224.86415390180292 L178.3267507994792,-288.25470433108904 A23.200000000000003,23.200000000000003,0,0,1,175.20822628694907,-315.7536488193684 L313.6956575353107,-412.61556799419327" stroke="black" />
<path fill="hsl(45, 27%, 68%)" stroke-width="1" d="M465.012347517069,-224.86415390180292 L621.6732492005208,-288.25470433108904 A23.200000000000003,23.200000000000003,0,0,0,624.7917737130509,-315.7536488193684 L486.3043424646893,-412.61556799419327" stroke="black" />
<path fill="hsl(45, 27%, 68%)" stroke-width="1" d="M241.44288095452794,-300.0 A158.55711904547206,188.7584750541334,0,0,0,558.5571190454721,-300.0 A158.55711904547206,188.7584750541334,0,0,0,241.44288095452794,-300.0" stroke="black" />
<path fill="black" stroke-width="1" d="M308.795,-347.18961876353336 A11.205000000000002,13.5,0,0,0,331.205,-347.18961876353336 A11.205000000000002,13.5,0,0,0,308.795,-347.18961876353336" stroke="black" />
<path fill="black" stroke-width="1" d="M468.795,-347.18961876353336 A11.205000000000002,13.5,0,0,0,491.205,-347.18961876353336 A11.205000000000002,13.5,0,0,0,468.795,-347.18961876353336" stroke="black" />
<path fill="black" stroke-width="1" d="M384.9,-305.03333333333336 L415.1,-305.03333333333336 L400.0,-284.9 Z" stroke="black" />
<path fill="black" stroke-width="2" d="M400.0,-284.9 L400.0,-262.25" stroke="black" />
<path fill="none" stroke-width="2" d="M369.8,-258.25 A30.200000000000003,30.200000000000003,30,0,0,400.0,-262.25 A30.200000000000003,30.200000000000003,150,0,0,430.2,-258.25" stroke="black" />
<path fill="black" stroke-width="1" d="M366.0,-274.9 L333.1585219061717,-266.10015246651426" stroke="black" />
<path fill="black" stroke-width="1" d="M360.0,-280.9 L326.12938026488064,-277.9367047465796" stroke="black" />
<path fill="black" stroke-width="1" d="M366.0,-286.9 L332.12938026488064,-289.86329525342035" stroke="black" />
<path fill="black" stroke-width="1" d="M434.0,-274.9 L466.8414780938283,-266.10015246651426" stroke="black" />
<path fill="black" stroke-width="1" d="M440.0,-280.9 L473.87061973511936,-277.9367047465796" stroke="black" />
<path fill="black" stroke-width="1" d="M434.0,-286.9 L467.87061973511936,-289.86329525342035" stroke="black" />
</g>
</svg>