<?xml version="1.0" encoding="UTF-8"?>
<svg xmlns="http://www.w3.org/2000/svg" xmlns:xlink="http://www.w3.org/1999/xlink"
     width="800" height="600" viewBox="0 -600 800 600">
<defs>
</defs>
<g>
<path fill="hsl(45, 42%, 66%)" stroke-width="1" d="M345.84211430942787,-209.41492105581852 L211.55254763100731,-283.97544869157264 A58.400000000000006,58.400000000000006,0,0,1,212.7966296272666,-352.5070056182569 L349.70388116356975,-422.14438406385494" stroke="black" />
<path fill="hsl(45, 42%, 66%)" stroke-width="1" d="M454.15788569057213,-209.41492105581852 L588.4474523689927,-283.97544869157264 A58.400000000000006,58.400000000000006,0,0,0,587.2033703727334,-352.5070056182569 L450.29611883643025,-422.14438406385494" stroke="black" />
<path fill="hsl(45, 42%, 66%)" stroke-width="1" d="M250.17760514529212,-300.0 A149.82239485470788,199.76319313961054,0,0,0,549.8223948547079,-300.0 A149.82239485470788,199.76319313961054,0,0,0,250.17760514529212,-300.0" stroke="black" />
<path fill="black" stroke-width="1" d="M320.758,-349.94079828490266 A11.242,14.600000000000001,0,0,0,343.242,-349.94079828490266 A11.242,14.600000000000001,0,0,0,320.758,-349.94079828490266" stroke="black" />
<path fill="black" stroke-width="1" d="M456.758,-349.94079828490266 A11.242,14.600000000000001,0,0,0,479.242,-349.94079828490266 A11.242,14.600000000000001,0,0,0,456.758,-349.94079828490266" stroke="black" />
<path fill="black" stroke-width="1" d="M384.9,-305.03333333333336 L415.1,-305.03333333333336 L400.0,-284.9 Z" stroke="black" />
<path fill="black" stroke-width="2" d="M400.0,-284.9 L400.0,-262.25" stroke="black" />
<path fill="none" stroke-width="2" d="M369.8,-258.25 A30.200000000000003,30.200000000000003,30,0,0,400.0,-262.25 A30.200000000000003,30.200000000000003,150,0,0,430.2,-258.25" stroke="black" />
<path fill="black" stroke-width="1" d="M366.0,-274.9 L337.988151037617,-267.39424769202685" stroke="black" />
<path fill="black" stroke-width="1" d="M360.0,-280.9 L331.11035375533936,-278.3724834603179" stroke="black" />
<path fill="black" stroke-width="1" d="M366.0,-286.9 L337.11035375533936,-289.4275165396821" stroke="black" />
<path fill="black" stroke-width="1" d="M434.0,-274.9 L462.011848962383,-267.39424769202685" stroke="black" />
<path fill="black" stroke-width="1" d="M440.0,-280.9 L468.88964624466064,-278.3724834603179" stroke="black" />
<path fill="black" stroke-width="1" d="M434.0,-286.9 L462.88964624466064,-289.4275165396821" stroke="black" />
</g>
</svg>