<?xml version="1.0" encoding="UTF-8"?>
<svg xmlns="http://www.w3.org/2000/svg" xmlns:xlink="http://www.w3.org/1999/xlink"
     width="800" height="600" viewBox="0 -600 800 600">
<defs>
</defs>
<g>
<path fill="hsl(45, 14%, 79%)" stroke-width="1" d="M281.51458314675676,-235.67970929397717 L134.03114645688674,-342.322270694879 A12.8,12.8,0,0,1,135.77942470919186,-357.9825398112948 L303.1495265190316,-429.47553960962387" stroke="black" />
<path fill="hsl(45, 14%, 79%)" stroke-width="1" d="M518.4854168532432,-235.67970929397717 L665.9688535431133,-342.322270694879 A12.8,12.8,0,0,0,664.2205752908081,-357.9825398112948 L496.8504734809684,-429.47553960962387" stroke="black" />
<path fill="hsl(45, 14%, 79%)" stroke-width="1" d="M204.27284296756363,-300.0 A195.72715703243637,152.91184143159091,0,0,0,595.7271570324364,-300.0 A195.72715703243637,152.91184143159091,0,0,0,204.27284296756363,-300.0" stroke="black" />
<path fill="black" stroke-width="1" d="M312.119,-338.2279603578977 A7.880999999999999,11.1,0,0,0,327.881,-338.2279603578977 A7.880999999999999,11.1,0,0,0,312.119,-338.2279603578977" stroke="black" />
<path fill="black" stroke-width="1" d="M472.119,-338.2279603578977 A7.880999999999999,11.1,0,0,0,487.881,-338.2279603578977 A7.880999999999999,11.1,0,0,0,472.119,-338.2279603578977" stroke="black" />
<path fill="black" stroke-width="1" d="M383.6,-305.46666666666664 L416.4,-305.46666666666664 L400.0,-283.6 Z" stroke="black" />
<path fill="black" stroke-width="2" d="M400.0,-283.6 L400.0,-259.0" stroke="black" />
<path fill="none" stroke-width="2" d="M367.2,-255.0 A32.8,32.8,30,0,0,400.0,-259.0 A32.8,32.8,150,0,0,432.8,-255.0" stroke="black" />
<path fill="black" stroke-width="1" d="M366.0,-273.6 L335.09037355874983,-265.31779055671933" stroke="black" />
<path fill="black" stroke-width="1" d="M360.0,-279.6 L328.12176966106415,-276.81101623207496" stroke="black" />
<path fill="black" stroke-width="1" d="M366.0,-285.6 L334.12176966106415,-288.3889837679251" stroke="black" />
<path fill="black" stroke-width="1" d="M434.0,-273.6 L464.90962644125017,-265.3177905567194" stroke="black" />
<path fill="black" stroke-width="1" d="M440.0,-279.6 L471.87823033893585,-276.81101623207496" stroke="black" />
<path fill="black" stroke-width="1" d="M434.0,-285.6 L465.87823033893585,-288.3889837679251" stroke="black" />
</g>
</svg>