<?xml version="1.0" encoding="UTF-8"?>
<svg xmlns="http://www.w3.org/2000/svg" xmlns:xlink="http://www.w3.org/1999/xlink"
     width="800" height="600" viewBox="0 -600 800 600">
<defs>
</defs>
<g>
<path fill="hsl(45, 38%, 32%)" stroke-width="1" d="M336.8132018053627,-224.4368635747519 L153.16476198119472,-344.84205677732496 A14.4,14.4,0,0,1,154.83018312762954,-361.38136878386047 L358.79676093830415,-442.7557820610205" stroke="black" />
<path fill="hsl(45, 38%, 32%)" stroke-width="1" d="M463.1867981946373,-224.4368635747519 L646.8352380188053,-344.84205677732496 A14.4,14.4,0,0,0,645.1698168723705,-361.38136878386047 L441.20323906169585,-442.7557820610205" stroke="black" />
<path fill="hsl(45, 38%, 32%)" stroke-width="1" d="M241.44288095452794,-300.0 A158.55711904547206,188.7584750541334,0,0,0,558.5571190454721,-300.0 A158.55711904547206,188.7584750541334,0,0,0,241.44288095452794,-300.0" stroke="black" />
<path fill="black" stroke-width="1" d="M322.588,-347.18961876353336 A10.411999999999999,13.7,0,0,0,343.412,-347.18961876353336 A10.411999999999999,13.7,0,0,0,322.588,-347.18961876353336" stroke="black" />
<path fill="black" stroke-width="1" d="M456.588,-347.18961876353336 A10.411999999999999,13.7,0,0,0,477.412,-347.18961876353336 A10.411999999999999,13.7,0,0,0,456.588,-347.18961876353336" stroke="black" />
<path fill="black" stroke-width="1" d="M387.9,-304.03333333333336 L412.1,-304.03333333333336 L400.0,-287.9 Z" stroke="black" />
<path fill="black" stroke-width="2" d="M400.0,-287.9 L400.0,-269.75" stroke="black" />
<path fill="none" stroke-width="2" d="M375.8,-265.75 A24.2,24.2,30,0,0,400.0,-269.75 A24.2,24.2,150,0,0,424.2,-265.75" stroke="black" />
<path fill="black" stroke-width="1" d="M366.0,-277.9 L361.17037086855464,-276.6059047744874" stroke="black" />
<path fill="black" stroke-width="1" d="M360.0,-283.9 L355.0190265095413,-283.4642212862617" stroke="black" />
<path fill="black" stroke-width="1" d="M366.0,-289.9 L361.0190265095413,-290.33577871373825" stroke="black" />
<path fill="black" stroke-width="1" d="M434.0,-277.9 L438.82962913144536,-276.6059047744874" stroke="black" />
<path fill="black" stroke-width="1" d="M440.0,-283.9 L444.9809734904587,-283.4642212862617" stroke="black" />
<path fill="black" stroke-width="1" d="M434.0,-289.9 L438.9809734904587,-290.33577871373825" stroke="black" />
</g>
</svg>