<?xml version="1.0" encoding="UTF-8"?>
<svg xmlns="http://www.w3.org/2000/svg" xmlns:xlink="http://www.w3.org/1999/xlink"
     width="800" height="600" viewBox="0 -600 800 600">
<defs>
</defs>
<g>
<path fill="hsl(45, 15%, 66%)" stroke-width="1" d="M398.296132461207,-197.3702596921458 L194.45365117964502,-157.0083615086356 A25.6,25.6,0,0,1,178.47920377972582,-178.8346760310001 L278.5876172580622,-360.931204144115" stroke="black" />
<path fill="hsl(45, 15%, 66%)" stroke-width="1" d="M401.703867538793,-197.3702596921458 L605.546348820355,-157.0083615086356 A25.6,25.6,0,0,0,621.5207962202742,-178.8346760310001 L521.4123827419378,-360.931204144115" stroke="black" />
<path fill="hsl(45, 15%, 66%)" stroke-width="1" d="M231.38045783480493,-300.0 A168.61954216519507,177.49425491073166,0,0,0,568.6195421651951,-300.0 A168.61954216519507,177.49425491073166,0,0,0,231.38045783480493,-300.0" stroke="black" />
<path fill="black" stroke-width="1" d="M315.408,-344.3735637276829 A6.5920000000000005,10.3,0,0,0,328.592,-344.3735637276829 A6.5920000000000005,10.3,0,0,0,315.408,-344.3735637276829" stroke="black" />
<path fill="black" stroke-width="1" d="M471.408,-344.3735637276829 A6.5920000000000005,10.3,0,0,0,484.592,-344.3735637276829 A6.5920000000000005,10.3,0,0,0,471.408,-344.3735637276829" stroke="black" />
<path fill="black" stroke-width="1" d="M380.3,-306.56666666666666 L419.7,-306.56666666666666 L400.0,-280.3 Z" stroke="black" />
<path fill="black" stroke-width="2" d="M400.0,-280.3 L400.0,-250.75" stroke="black" />
<path fill="none" stroke-width="2" d="M360.6,-246.75 A39.400000000000006,39.400000000000006,30,0,0,400.0,-250.75 A39.400000000000006,39.400000000000006,150,0,0,439.4,-246.75" stroke="black" />
<path fill="black" stroke-width="1" d="M366.0,-270.3 L356.34074173710934,-267.7118095489748" stroke="black" />
<path fill="black" stroke-width="1" d="M360.0,-276.3 L350.03805301908255,-275.4284425725234" stroke="black" />
<path fill="black" stroke-width="1" d="M366.0,-282.3 L356.03805301908255,-283.1715574274766" stroke="black" />
<path fill="black" stroke-width="1" d="M434.0,-270.3 L443.65925826289066,-267.7118095489748" stroke="black" />
<path fill="black" stroke-width="1" d="M440.0,-276.3 L449.96194698091745,-275.4284425725234" stroke="black" />
<path fill="black" stroke-width="1" d="M434.0,-282.3 L443.96194698091745,-283.1715574274766" stroke="black" />
</g>
</svg>