<?xml version="1.0" encoding="UTF-8"?>
<svg xmlns="http://www.w3.org/2000/svg" xmlns:xlink="http://www.w3.org/1999/xlink"
     width="800" height="600" viewBox="0 -600 800 600">
<defs>
</defs>
<g>
<path fill="hsl(45, 1%, 53%)" stroke-width="1" d="M425.0188895496634,-179.5092864037607 L227.53310493689924,-131.65947056418935 A41.6,41.6,0,0,1,196.79428068621644,-167.49774674047816 L274.1621982270823,-355.39251871508577" stroke="black" />
<path fill="hsl(45, 1%, 53%)" stroke-width="1" d="M374.9811104503366,-179.5092864037607 L572.4668950631008,-131.65947056418935 A41.6,41.6,0,0,0,603.2057193137836,-167.49774674047816 L525.8378017729177,-355.39251871508577" stroke="black" />
<path fill="hsl(45, 1%, 53%)" stroke-width="1" d="M234.9685181548684,-300.0 A165.0314818451316,181.35327675289187,0,0,0,565.0314818451316,-300.0 A165.0314818451316,181.35327675289187,0,0,0,234.9685181548684,-300.0" stroke="black" />
<path fill="black" stroke-width="1" d="M338.039,-345.33831918822295 A10.961,11.3,0,0,0,359.961,-345.33831918822295 A10.961,11.3,0,0,0,338.039,-345.33831918822295" stroke="black" />
<path fill="black" stroke-width="1" d="M440.039,-345.33831918822295 A10.961,11.3,0,0,0,461.961,-345.33831918822295 A10.961,11.3,0,0,0,440.039,-345.33831918822295" stroke="black" />
<path fill="black" stroke-width="1" d="M385.4,-304.8666666666667 L414.6,-304.8666666666667 L400.0,-285.4 Z" stroke="black" />
<path fill="black" stroke-width="2" d="M400.0,-285.4 L400.0,-263.5" stroke="black" />
<path fill="none" stroke-width="2" d="M370.8,-259.5 A29.200000000000003,29.200000000000003,30,0,0,400.0,-263.5 A29.200000000000003,29.200000000000003,150,0,0,429.2,-259.5" stroke="black" />
<path fill="black" stroke-width="1" d="M366.0,-275.4 L333.1585219061717,-266.60015246651426" stroke="black" />
<path fill="black" stroke-width="1" d="M360.0,-281.4 L326.12938026488064,-278.4367047465796" stroke="black" />
<path fill="black" stroke-width="1" d="M366.0,-287.4 L332.12938026488064,-290.36329525342035" stroke="black" />
<path fill="black" stroke-width="1" d="M434.0,-275.4 L466.8414780938283,-266.60015246651426" stroke="black" />
<path fill="black" stroke-width="1" d="M440.0,-281.4 L473.87061973511936,-278.4367047465796" stroke="black" />
<path fill="black" stroke-width="1" d="M434.0,-287.4 L467.87061973511936,-290.36329525342035" stroke="black" />
</g>
</svg>