<?xml version="1.0" encoding="UTF-8"?>
<svg xmlns="http://www.w3.org/2000/svg" xmlns:xlink="http://www.w3.org/1999/xlink"
     width="800" height="600" viewBox="0 -600 800 600">
<defs>
</defs>
<g>
<path fill="hsl(45, 38%, 67%)" stroke-width="1" d="M334.1402703953123,-225.48138262927714 L121.9798976295383,-280.5868835151943 A2.4000000000000004,2.4000000000000004,0,0,1,121.39311367197092,-283.246874125305 L290.67913860481724,-422.49802048480797" stroke="black" />
<path fill="hsl(45, 38%, 67%)" stroke-width="1" d="M465.8597296046877,-225.48138262927714 L678.0201023704617,-280.5868835151943 A2.4000000000000004,2.4000000000000004,0,0,0,678.6068863280291,-283.246874125305 L509.32086139518276,-422.49802048480797" stroke="black" />
<path fill="hsl(45, 38%, 67%)" stroke-width="1" d="M219.3826973958475,-300.0 A180.6173026041525,165.7039473432592,0,0,0,580.6173026041525,-300.0 A180.6173026041525,165.7039473432592,0,0,0,219.3826973958475,-300.0" stroke="black" />
<path fill="black" stroke-width="1" d="M340.792,-341.4259868358148 A7.208,13.6,0,0,0,355.208,-341.4259868358148 A7.208,13.6,0,0,0,340.792,-341.4259868358148" stroke="black" />
<path fill="black" stroke-width="1" d="M444.792,-341.4259868358148 A7.208,13.6,0,0,0,459.208,-341.4259868358148 A7.208,13.6,0,0,0,444.792,-341.4259868358148" stroke="black" />
<path fill="black" stroke-width="1" d="M380.6,-306.46666666666664 L419.4,-306.46666666666664 L400.0,-280.6 Z" stroke="black" />
<path fill="black" stroke-width="2" d="M400.0,-280.6 L400.0,-251.5" stroke="black" />
<path fill="none" stroke-width="2" d="M361.2,-247.5 A38.8,38.8,30,0,0,400.0,-251.5 A38.8,38.8,150,0,0,438.8,-247.5" stroke="black" />
<path fill="black" stroke-width="1" d="M366.0,-270.6 L354.4088900845312,-267.49417145876976" stroke="black" />
<path fill="black" stroke-width="1" d="M360.0,-276.6 L348.04566362289904,-275.5541310870281" stroke="black" />
<path fill="black" stroke-width="1" d="M366.0,-282.6 L354.04566362289904,-283.64586891297193" stroke="black" />
<path fill="black" stroke-width="1" d="M434.0,-270.6 L445.5911099154688,-267.49417145876976" stroke="black" />
<path fill="black" stroke-width="1" d="M440.0,-276.6 L451.95433637710096,-275.5541310870281" stroke="black" />
<path fill="black" stroke-width="1" d="M434.0,-282.6 L445.95433637710096,-283.64586891297193" stroke="black" />
</g>
</svg>