<?xml version="1.0" encoding="UTF-8"?>
<svg xmlns="http://www.w3.org/2000/svg" xmlns:xlink="http://www.w3.org/1999/xlink"
     width="800" height="600" viewBox="0 -600 800 600">
<defs>
</defs>
<g>
<path fill="hsl(45, 45%, 30%)" stroke-width="1" d="M409.95620322826164,-179.18477627138054 L222.37387497893974,-148.97103554694135 A59.2,59.2,0,0,1,183.88521648627864,-202.63242794290971 L272.6453134706603,-370.625419413754" stroke="black" />
<path fill="hsl(45, 45%, 30%)" stroke-width="1" d="M390.04379677173836,-179.18477627138054 L577.6261250210603,-148.97103554694135 A59.2,59.2,0,0,0,616.1147835137214,-202.63242794290971 L527.3546865293397,-370.625419413754" stroke="black" />
<path fill="hsl(45, 45%, 30%)" stroke-width="1" d="M207.35535304608123,-300.0 A192.64464695391877,155.35858625316027,0,0,0,592.6446469539187,-300.0 A192.64464695391877,155.35858625316027,0,0,0,207.35535304608123,-300.0" stroke="black" />
<path fill="black" stroke-width="1" d="M332.566,-338.83964656329005 A7.433999999999999,12.6,0,0,0,347.434,-338.83964656329005 A7.433999999999999,12.6,0,0,0,332.566,-338.83964656329005" stroke="black" />
<path fill="black" stroke-width="1" d="M452.566,-338.83964656329005 A7.433999999999999,12.6,0,0,0,467.434,-338.83964656329005 A7.433999999999999,12.6,0,0,0,452.566,-338.83964656329005" stroke="black" />
<path fill="black" stroke-width="1" d="M388.7,-303.76666666666665 L411.3,-303.76666666666665 L400.0,-288.7 Z" stroke="black" />
<path fill="black" stroke-width="2" d="M400.0,-288.7 L400.0,-271.75" stroke="black" />
<path fill="none" stroke-width="2" d="M377.4,-267.75 A22.6,22.6,30,0,0,400.0,-271.75 A22.6,22.6,150,0,0,422.6,-267.75" stroke="black" />
<path fill="black" stroke-width="1" d="M366.0,-278.7 L350.5451867793749,-274.55889527835967" stroke="black" />
<path fill="black" stroke-width="1" d="M360.0,-284.7 L344.0608848305321,-283.30550811603746" stroke="black" />
<path fill="black" stroke-width="1" d="M366.0,-290.7 L350.0608848305321,-292.0944918839625" stroke="black" />
<path fill="black" stroke-width="1" d="M434.0,-278.7 L449.4548132206251,-274.55889527835967" stroke="black" />
<path fill="black" stroke-width="1" d="M440.0,-284.7 L455.9391151694679,-283.30550811603746" stroke="black" />
<path fill="black" stroke-width="1" d="M434.0,-290.7 L449.9391151694679,-292.0944918839625" stroke="black" />
</g>
</svg>