<?xml version="1.0" encoding="UTF-8"?>
<svg xmlns="http://www.w3.org/2000/svg" xmlns:xlink="http://www.w3.org/1999/xlink"
     width="800" height="600" viewBox="0 -600 800 600">
<defs>
</defs>
<g>
<path fill="hsl(45, 2%, 43%)" stroke-width="1" d="M378.99879798537216,-190.71477245007745 L269.5157976530613,-149.453741946281 A47.2,47.2,0,0,1,234.823906346993,-183.96446082862298 L275.511122224897,-293.6620016584193" stroke="black" />
<path fill="hsl(45, 2%, 43%)" stroke-width="1" d="M421.00120201462784,-190.71477245007745 L530.4842023469387,-149.453741946281 A47.2,47.2,0,0,0,565.176093653007,-183.96446082862298 L524.488877775103,-293.6620016584193" stroke="black" />
<path fill="hsl(45, 2%, 43%)" stroke-width="1" d="M208.9152544026604,-300.0 A191.0847455973396,156.62684065355705,0,0,0,591.0847455973396,-300.0 A191.0847455973396,156.62684065355705,0,0,0,208.9152544026604,-300.0" stroke="black" />
<path fill="black" stroke-width="1" d="M329.1,-339.1567101633893 A7.9,10.0,0,0,0,344.9,-339.1567101633893 A7.9,10.0,0,0,0,329.1,-339.1567101633893" stroke="black" />
<path fill="black" stroke-width="1" d="M455.1,-339.1567101633893 A7.9,10.0,0,0,0,470.9,-339.1567101633893 A7.9,10.0,0,0,0,455.1,-339.1567101633893" stroke="black" />
<path fill="black" stroke-width="1" d="M383.6,-305.46666666666664 L416.4,-305.46666666666664 L400.0,-283.6 Z" stroke="black" />
<path fill="black" stroke-width="2" d="M400.0,-283.6 L400.0,-259.0" stroke="black" />
<path fill="none" stroke-width="2" d="M367.2,-255.0 A32.8,32.8,30,0,0,400.0,-259.0 A32.8,32.8,150,0,0,432.8,-255.0" stroke="black" />
<path fill="black" stroke-width="1" d="M366.0,-273.6 L331.2266702535935,-264.2825143763093" stroke="black" />
<path fill="black" stroke-width="1" d="M360.0,-279.6 L324.1369908686972,-276.46239326108434" stroke="black" />
<path fill="black" stroke-width="1" d="M366.0,-285.6 L330.1369908686972,-288.7376067389157" stroke="black" />
<path fill="black" stroke-width="1" d="M434.0,-273.6 L468.7733297464065,-264.2825143763093" stroke="black" />
<path fill="black" stroke-width="1" d="M440.0,-279.6 L475.8630091313028,-276.46239326108434" stroke="black" />
<path fill="black" stroke-width="1" d="M434.0,-285.6 L469.8630091313028,-288.7376067389157" stroke="black" />
</g>
</svg>