<?xml version="1.0" encoding="UTF-8"?>
<svg xmlns="http://www.w3.org/2000/svg" xmlns:xlink="http://www.w3.org/1999/xlink"
     width="800" height="600" viewBox="0 -600 800 600">
<defs>
</defs>
<g>
<path fill="hsl(45, 3%, 51%)" stroke-width="1" d="M319.2684268812426,-294.8938520066919 L224.28139470107328,-472.714052539712 A28.8,28.8,0,0,1,242.41222984715307,-496.43678032894985 L438.9319388453698,-451.4638554156619" stroke="black" />
<path fill="hsl(45, 3%, 51%)" stroke-width="1" d="M480.7315731187574,-294.8938520066919 L575.7186052989267,-472.714052539712 A28.8,28.8,0,0,0,557.5877701528469,-496.43678032894985 L361.0680611546302,-451.4638554156619" stroke="black" />
<path fill="hsl(45, 3%, 51%)" stroke-width="1" d="M237.71161471010933,-300.0 A162.28838528989067,184.418619647603,0,0,0,562.2883852898907,-300.0 A162.28838528989067,184.418619647603,0,0,0,237.71161471010933,-300.0" stroke="black" />
<path fill="black" stroke-width="1" d="M338.56,-346.10465491190075 A6.44,11.5,0,0,0,351.44,-346.10465491190075 A6.44,11.5,0,0,0,338.56,-346.10465491190075" stroke="black" />
<path fill="black" stroke-width="1" d="M448.56,-346.10465491190075 A6.44,11.5,0,0,0,461.44,-346.10465491190075 A6.44,11.5,0,0,0,448.56,-346.10465491190075" stroke="black" />
<path fill="black" stroke-width="1" d="M380.5,-306.5 L419.5,-306.5 L400.0,-280.5 Z" stroke="black" />
<path fill="black" stroke-width="2" d="M400.0,-280.5 L400.0,-251.25" stroke="black" />
<path fill="none" stroke-width="2" d="M361.0,-247.25 A39.0,39.0,30,0,0,400.0,-251.25 A39.0,39.0,150,0,0,439.0,-247.25" stroke="black" />
<path fill="black" stroke-width="1" d="M366.0,-270.5 L328.32889277472634,-260.4060572410017" stroke="black" />
<path fill="black" stroke-width="1" d="M360.0,-276.5 L321.1484067744219,-273.10092603284136" stroke="black" />
<path fill="black" stroke-width="1" d="M366.0,-282.5 L327.1484067744219,-285.89907396715864" stroke="black" />
<path fill="black" stroke-width="1" d="M434.0,-270.5 L471.67110722527366,-260.4060572410017" stroke="black" />
<path fill="black" stroke-width="1" d="M440.0,-276.5 L478.8515932255781,-273.1009260328413" stroke="black" />
<path fill="black" stroke-width="1" d="M434.0,-282.5 L472.8515932255781,-285.89907396715864" stroke="black" />
</g>
</svg>