<?xml version="1.0" encoding="UTF-8"?>
<svg xmlns="http://www.w3.org/2000/svg" xmlns:xlink="http://www.w3.org/1999/xlink"
     width="800" height="600" viewBox="0 -600 800 600">
<defs>
</defs>
<g>
<path fill="hsl(45, 39%, 49%)" stroke-width="1" d="M286.07393539525117,-285.98541744229385 L215.32381022954326,-434.38278867587286 A30.400000000000002,30.400000000000002,0,0,1,236.6444134481609,-463.7173134763681 L399.6342009596781,-442.230360063879" stroke="black" />
<path fill="hsl(45, 39%, 49%)" stroke-width="1" d="M513.9260646047488,-285.98541744229385 L584.6761897704567,-434.38278867587286 A30.400000000000002,30.400000000000002,0,0,0,563.3555865518391,-463.7173134763681 L400.3657990403219,-442.230360063879" stroke="black" />
<path fill="hsl(45, 39%, 49%)" stroke-width="1" d="M237.71161471010933,-300.0 A162.28838528989067,184.418619647603,0,0,0,562.2883852898907,-300.0 A162.28838528989067,184.418619647603,0,0,0,237.71161471010933,-300.0" stroke="black" />
<path fill="black" stroke-width="1" d="M319.374,-346.10465491190075 A7.626,12.3,0,0,0,334.626,-346.10465491190075 A7.626,12.3,0,0,0,319.374,-346.10465491190075" stroke="black" />
<path fill="black" stroke-width="1" d="M465.374,-346.10465491190075 A7.626,12.3,0,0,0,480.626,-346.10465491190075 A7.626,12.3,0,0,0,465.374,-346.10465491190075" stroke="black" />
<path fill="black" stroke-width="1" d="M387.9,-304.03333333333336 L412.1,-304.03333333333336 L400.0,-287.9 Z" stroke="black" />
<path fill="black" stroke-width="2" d="M400.0,-287.9 L400.0,-269.75" stroke="black" />
<path fill="none" stroke-width="2" d="M375.8,-265.75 A24.2,24.2,30,0,0,400.0,-269.75 A24.2,24.2,150,0,0,424.2,-265.75" stroke="black" />
<path fill="black" stroke-width="1" d="M366.0,-277.9 L323.499263643281,-266.5119620154891" stroke="black" />
<path fill="black" stroke-width="1" d="M360.0,-283.9 L316.1674332839632,-280.065147319103" stroke="black" />
<path fill="black" stroke-width="1" d="M366.0,-289.9 L322.1674332839632,-293.73485268089695" stroke="black" />
<path fill="black" stroke-width="1" d="M434.0,-277.9 L476.500736356719,-266.5119620154891" stroke="black" />
<path fill="black" stroke-width="1" d="M440.0,-283.9 L483.8325667160368,-280.065147319103" stroke="black" />
<path fill="black" stroke-width="1" d="M434.0,-289.9 L477.8325667160368,-293.73485268089695" stroke="black" />
</g>
</svg>