<?xml version="1.0" encoding="UTF-8"?>
<svg xmlns="http://www.w3.org/2000/svg" xmlns:xlink="http://www.w3.org/1999/xlink"
     width="800" height="600" viewBox="0 -600 800 600">
<defs>
</defs>
<g>
<path fill="hsl(45, 54%, 36%)" stroke-width="1" d="M332.4779399831078,-276.18282131366783 L180.16375079688794,-411.8898136631575 A39.2,39.2,0,0,1,192.57482297826596,-443.887468000294 L396.55959838899815,-441.39519982990356" stroke="black" />
<path fill="hsl(45, 54%, 36%)" stroke-width="1" d="M467.5220600168922,-276.18282131366783 L619.8362492031121,-411.8898136631575 A39.2,39.2,0,0,0,607.425177021734,-443.887468000294 L403.44040161100185,-441.39519982990356" stroke="black" />
<path fill="hsl(45, 54%, 36%)" stroke-width="1" d="M212.87188880341898,-300.0 A187.12811119658102,159.93855657827442,0,0,0,587.128111196581,-300.0 A187.12811119658102,159.93855657827442,0,0,0,212.87188880341898,-300.0" stroke="black" />
<path fill="black" stroke-width="1" d="M312.177,-339.98463914456863 A10.823,13.7,0,0,0,333.823,-339.98463914456863 A10.823,13.7,0,0,0,312.177,-339.98463914456863" stroke="black" />
<path fill="black" stroke-width="1" d="M466.177,-339.98463914456863 A10.823,13.7,0,0,0,487.823,-339.98463914456863 A10.823,13.7,0,0,0,466.177,-339.98463914456863" stroke="black" />
<path fill="black" stroke-width="1" d="M385.7,-304.76666666666665 L414.3,-304.76666666666665 L400.0,-285.7 Z" stroke="black" />
<path fill="black" stroke-width="2" d="M400.0,-285.7 L400.0,-264.25" stroke="black" />
<path fill="none" stroke-width="2" d="M371.4,-260.25 A28.6,28.6,30,0,0,400.0,-264.25 A28.6,28.6,150,0,0,428.6,-260.25" stroke="black" />
<path fill="black" stroke-width="1" d="M366.0,-275.7 L309.97630207523406,-260.6884953840538" stroke="black" />
<path fill="black" stroke-width="1" d="M360.0,-281.7 L302.2207075106788,-276.64496692063585" stroke="black" />
<path fill="black" stroke-width="1" d="M366.0,-287.7 L308.2207075106788,-292.7550330793642" stroke="black" />
<path fill="black" stroke-width="1" d="M434.0,-275.7 L490.02369792476594,-260.6884953840538" stroke="black" />
<path fill="black" stroke-width="1" d="M440.0,-281.7 L497.7792924893212,-276.6449669206358" stroke="black" />
<path fill="black" stroke-width="1" d="M434.0,-287.7 L491.7792924893212,-292.7550330793642" stroke="black" />
</g>
</svg>