<?xml version="1.0" encoding="UTF-8"?>
<svg xmlns="http://www.w3.org/2000/svg" xmlns:xlink="http://www.w3.org/1999/xlink"
     width="800" height="600" viewBox="0 -600 800 600">
<defs>
</defs>
<g>
<path fill="hsl(45, 30%, 61%)" stroke-width="1" d="M423.3372314707548,-216.72524114651213 L223.59792686410879,-92.15650431718765 A8.8,8.8,0,0,1,214.84959595292332,-97.31995361697204 L227.37461906020087,-332.386505461683" stroke="black" />
<path fill="hsl(45, 30%, 61%)" stroke-width="1" d="M376.6627685292452,-216.72524114651213 L576.4020731358912,-92.15650431718765 A8.8,8.8,0,0,0,585.1504040470767,-97.31995361697204 L572.6253809397991,-332.386505461683" stroke="black" />
<path fill="hsl(45, 30%, 61%)" stroke-width="1" d="M216.9140092743303,-300.0 A183.0859907256697,163.46963457649076,0,0,0,583.0859907256697,-300.0 A183.0859907256697,163.46963457649076,0,0,0,216.9140092743303,-300.0" stroke="black" />
<path fill="black" stroke-width="1" d="M335.995,-340.8674086441227 A10.005,11.5,0,0,0,356.005,-340.8674086441227 A10.005,11.5,0,0,0,335.995,-340.8674086441227" stroke="black" />
<path fill="black" stroke-width="1" d="M443.995,-340.8674086441227 A10.005,11.5,0,0,0,464.005,-340.8674086441227 A10.005,11.5,0,0,0,443.995,-340.8674086441227" stroke="black" />
<path fill="black" stroke-width="1" d="M384.4,-305.2 L415.6,-305.2 L400.0,-284.4 Z" stroke="black" />
<path fill="black" stroke-width="2" d="M400.0,-284.4 L400.0,-261.0" stroke="black" />
<path fill="none" stroke-width="2" d="M368.8,-257.0 A31.200000000000003,31.200000000000003,30,0,0,400.0,-261.0 A31.200000000000003,31.200000000000003,150,0,0,431.2,-257.0" stroke="black" />
<path fill="black" stroke-width="1" d="M366.0,-274.4 L326.3970411221482,-263.78841915079664" stroke="black" />
<path fill="black" stroke-width="1" d="M360.0,-280.4 L319.1560173782384,-276.826614547346" stroke="black" />
<path fill="black" stroke-width="1" d="M366.0,-286.4 L325.1560173782384,-289.973385452654" stroke="black" />
<path fill="black" stroke-width="1" d="M434.0,-274.4 L473.6029588778518,-263.78841915079664" stroke="black" />
<path fill="black" stroke-width="1" d="M440.0,-280.4 L480.8439826217616,-276.82661454734597" stroke="black" />
<path fill="black" stroke-width="1" d="M434.0,-286.4 L474.8439826217616,-289.973385452654" stroke="black" />
</g>
</svg>