<?xml version="1.0" encoding="UTF-8"?>
<svg xmlns="http://www.w3.org/2000/svg" xmlns:xlink="http://www.w3.org/1999/xlink"
     width="800" height="600" viewBox="0 -600 800 600">
<defs>
</defs>
<g>
<path fill="hsl(45, 40%, 57%)" stroke-width="1" d="M346.10502762910664,-196.55117682427348 L144.12833912983206,-293.40889361992697 A32.0,32.0,0,0,1,142.56868355689176,-330.9342208455143 L335.8113008476999,-444.2183365131499" stroke="black" />
<path fill="hsl(45, 40%, 57%)" stroke-width="1" d="M453.89497237089336,-196.55117682427348 L655.871660870168,-293.40889361992697 A32.0,32.0,0,0,0,657.4313164431082,-330.9342208455143 L464.1886991523001,-444.2183365131499" stroke="black" />
<path fill="hsl(45, 40%, 57%)" stroke-width="1" d="M227.86717338055473,-300.0 A172.13282661944527,173.8715420398437,0,0,0,572.1328266194453,-300.0 A172.13282661944527,173.8715420398437,0,0,0,227.86717338055473,-300.0" stroke="black" />
<path fill="black" stroke-width="1" d="M309.625,-343.4678855099609 A12.375,12.5,0,0,0,334.375,-343.4678855099609 A12.375,12.5,0,0,0,309.625,-343.4678855099609" stroke="black" />
<path fill="black" stroke-width="1" d="M465.625,-343.4678855099609 A12.375,12.5,0,0,0,490.375,-343.4678855099609 A12.375,12.5,0,0,0,465.625,-343.4678855099609" stroke="black" />
<path fill="black" stroke-width="1" d="M387.6,-304.1333333333333 L412.4,-304.1333333333333 L400.0,-287.6 Z" stroke="black" />
<path fill="black" stroke-width="2" d="M400.0,-287.6 L400.0,-269.0" stroke="black" />
<path fill="none" stroke-width="2" d="M375.2,-265.0 A24.8,24.8,30,0,0,400.0,-269.0 A24.8,24.8,150,0,0,424.8,-265.0" stroke="black" />
<path fill="black" stroke-width="1" d="M366.0,-277.6 L309.97630207523406,-262.58849538405383" stroke="black" />
<path fill="black" stroke-width="1" d="M360.0,-283.6 L302.2207075106788,-278.5449669206359" stroke="black" />
<path fill="black" stroke-width="1" d="M366.0,-289.6 L308.2207075106788,-294.6550330793642" stroke="black" />
<path fill="black" stroke-width="1" d="M434.0,-277.6 L490.02369792476594,-262.58849538405383" stroke="black" />
<path fill="black" stroke-width="1" d="M440.0,-283.6 L497.7792924893212,-278.54496692063583" stroke="black" />
<path fill="black" stroke-width="1" d="M434.0,-289.6 L491.7792924893212,-294.6550330793642" stroke="black" />
</g>
</svg>