<?xml version="1.0" encoding="UTF-8"?>
<svg xmlns="http://www.w3.org/2000/svg" xmlns:xlink="http://www.w3.org/1999/xlink"
     width="800" height="600" viewBox="0 -600 800 600">
<defs>
</defs>
<g>
<path fill="hsl(45, 55%, 34%)" stroke-width="1" d="M323.3937394327893,-235.70360685041695 L176.15452276597512,-403.7160262584565 A27.200000000000003,27.200000000000003,0,0,1,187.74541549054152,-429.4228878098311 L411.14361552994836,-430.31967047758786" stroke="black" />
<path fill="hsl(45, 55%, 34%)" stroke-width="1" d="M476.6062605672107,-235.70360685041695 L623.8454772340249,-403.7160262584565 A27.200000000000003,27.200000000000003,0,0,0,612.2545845094585,-429.4228878098311 L388.85638447005164,-430.31967047758786" stroke="black" />
<path fill="hsl(45, 55%, 34%)" stroke-width="1" d="M245.26409595701455,-300.0 A154.73590404298545,193.41988005373182,0,0,0,554.7359040429855,-300.0 A154.73590404298545,193.41988005373182,0,0,0,245.26409595701455,-300.0" stroke="black" />
<path fill="black" stroke-width="1" d="M326.487,-348.35497001343293 A12.513,12.9,0,0,0,351.513,-348.35497001343293 A12.513,12.9,0,0,0,326.487,-348.35497001343293" stroke="black" />
<path fill="black" stroke-width="1" d="M448.487,-348.35497001343293 A12.513,12.9,0,0,0,473.513,-348.35497001343293 A12.513,12.9,0,0,0,448.487,-348.35497001343293" stroke="black" />
<path fill="black" stroke-width="1" d="M387.9,-304.03333333333336 L412.1,-304.03333333333336 L400.0,-287.9 Z" stroke="black" />
<path fill="black" stroke-width="2" d="M400.0,-287.9 L400.0,-269.75" stroke="black" />
<path fill="none" stroke-width="2" d="M375.8,-265.75 A24.2,24.2,30,0,0,400.0,-269.75 A24.2,24.2,150,0,0,424.2,-265.75" stroke="black" />
<path fill="black" stroke-width="1" d="M366.0,-277.9 L331.2266702535935,-268.58251437630923" stroke="black" />
<path fill="black" stroke-width="1" d="M360.0,-283.9 L324.1369908686972,-280.7623932610843" stroke="black" />
<path fill="black" stroke-width="1" d="M366.0,-289.9 L330.1369908686972,-293.03760673891566" stroke="black" />
<path fill="black" stroke-width="1" d="M434.0,-277.9 L468.7733297464065,-268.58251437630923" stroke="black" />
<path fill="black" stroke-width="1" d="M440.0,-283.9 L475.8630091313028,-280.7623932610843" stroke="black" />
<path fill="black" stroke-width="1" d="M434.0,-289.9 L469.8630091313028,-293.03760673891566" stroke="black" />
</g>
</svg>