<?xml version="1.0" encoding="UTF-8"?>
<svg xmlns="http://www.w3.org/2000/svg" xmlns:xlink="http://www.w3.org/1999/xlink"
     width="800" height="600" viewBox="0 -600 800 600">
<defs>
</defs>
<g>
<path fill="hsl(45, 49%, 67%)" stroke-width="1" d="M350.40743963372734,-195.10472555887486 L192.0699717450134,-190.65430281597875 A35.2,35.2,0,0,1,177.17930296752752,-222.42803934785695 L281.9103632572917,-341.2639136055144" stroke="black" />
<path fill="hsl(45, 49%, 67%)" stroke-width="1" d="M449.59256036627266,-195.10472555887486 L607.9300282549866,-190.65430281597875 A35.2,35.2,0,0,0,622.8206970324725,-222.42803934785695 L518.0896367427083,-341.2639136055144" stroke="black" />
<path fill="hsl(45, 49%, 67%)" stroke-width="1" d="M210.48799510321254,-300.0 A189.51200489678746,157.9266707473229,0,0,0,589.5120048967874,-300.0 A189.51200489678746,157.9266707473229,0,0,0,210.48799510321254,-300.0" stroke="black" />
<path fill="black" stroke-width="1" d="M312.415,-339.48166768683075 A8.585,10.1,0,0,0,329.585,-339.48166768683075 A8.585,10.1,0,0,0,312.415,-339.48166768683075" stroke="black" />
<path fill="black" stroke-width="1" d="M470.415,-339.48166768683075 A8.585,10.1,0,0,0,487.585,-339.48166768683075 A8.585,10.1,0,0,0,470.415,-339.48166768683075" stroke="black" />
<path fill="black" stroke-width="1" d="M384.7,-305.1 L415.3,-305.1 L400.0,-284.7 Z" stroke="black" />
<path fill="black" stroke-width="2" d="M400.0,-284.7 L400.0,-261.75" stroke="black" />
<path fill="none" stroke-width="2" d="M369.4,-257.75 A30.6,30.6,30,0,0,400.0,-261.75 A30.6,30.6,150,0,0,430.6,-257.75" stroke="black" />
<path fill="black" stroke-width="1" d="M366.0,-274.7 L357.3066675633984,-272.3706285940773" stroke="black" />
<path fill="black" stroke-width="1" d="M360.0,-280.7 L351.0342477171743,-279.91559831527104" stroke="black" />
<path fill="black" stroke-width="1" d="M366.0,-286.7 L357.0342477171743,-287.48440168472894" stroke="black" />
<path fill="black" stroke-width="1" d="M434.0,-274.7 L442.6933324366016,-272.3706285940773" stroke="black" />
<path fill="black" stroke-width="1" d="M440.0,-280.7 L448.9657522828257,-279.91559831527104" stroke="black" />
<path fill="black" stroke-width="1" d="M434.0,-286.7 L442.9657522828257,-287.48440168472894" stroke="black" />
</g>
</svg>