<?xml version="1.0" encoding="UTF-8"?>
<svg xmlns="http://www.w3.org/2000/svg" xmlns:xlink="http://www.w3.org/1999/xlink"
     width="800" height="600" viewBox="0 -600 800 600">
<defs>
</defs>
<g>
<path fill="hsl(45, 25%, 43%)" stroke-width="1" d="M350.2899328363957,-213.547230843503 L196.62850671942,-203.34105018190297 A26.400000000000002,26.400000000000002,0,0,1,181.2859753761163,-229.0783859509127 L263.3489218910088,-359.39213353455756" stroke="black" />
<path fill="hsl(45, 25%, 43%)" stroke-width="1" d="M449.7100671636043,-213.547230843503 L603.37149328058,-203.34105018190297 A26.400000000000002,26.400000000000002,0,0,0,618.7140246238837,-229.0783859509127 L536.6510781089912,-359.39213353455756" stroke="black" />
<path fill="hsl(45, 25%, 43%)" stroke-width="1" d="M229.61476002892738,-300.0 A170.38523997107262,175.6548865681161,0,0,0,570.3852399710727,-300.0 A170.38523997107262,175.6548865681161,0,0,0,229.61476002892738,-300.0" stroke="black" />
<path fill="black" stroke-width="1" d="M323.628,-343.91372164202903 A6.372,10.8,0,0,0,336.372,-343.91372164202903 A6.372,10.8,0,0,0,323.628,-343.91372164202903" stroke="black" />
<path fill="black" stroke-width="1" d="M463.628,-343.91372164202903 A6.372,10.8,0,0,0,476.372,-343.91372164202903 A6.372,10.8,0,0,0,463.628,-343.91372164202903" stroke="black" />
<path fill="black" stroke-width="1" d="M385.5,-304.8333333333333 L414.5,-304.8333333333333 L400.0,-285.5 Z" stroke="black" />
<path fill="black" stroke-width="2" d="M400.0,-285.5 L400.0,-263.75" stroke="black" />
<path fill="none" stroke-width="2" d="M371.0,-259.75 A29.0,29.0,30,0,0,400.0,-263.75 A29.0,29.0,150,0,0,429.0,-259.75" stroke="black" />
<path fill="black" stroke-width="1" d="M366.0,-275.5 L348.61333512679676,-270.8412571881546" stroke="black" />
<path fill="black" stroke-width="1" d="M360.0,-281.5 L342.06849543434856,-279.93119663054216" stroke="black" />
<path fill="black" stroke-width="1" d="M366.0,-287.5 L348.06849543434856,-289.06880336945784" stroke="black" />
<path fill="black" stroke-width="1" d="M434.0,-275.5 L451.38666487320324,-270.8412571881546" stroke="black" />
<path fill="black" stroke-width="1" d="M440.0,-281.5 L457.93150456565144,-279.93119663054216" stroke="black" />
<path fill="black" stroke-width="1" d="M434.0,-287.5 L451.93150456565144,-289.06880336945784" stroke="black" />
</g>
</svg>