<?xml version="1.0" encoding="UTF-8"?>
<svg xmlns="http://www.w3.org/2000/svg" xmlns:xlink="http://www.w3.org/1999/xlink"
     width="800" height="600" viewBox="0 -600 800 600">
<defs>
</defs>
<g>
<path fill="hsl(45, 13%, 42%)" stroke-width="1" d="M325.74239121065824,-291.2832645540192 L237.85007581862942,-464.90383042980517 A43.2,43.2,0,0,1,263.4754336494184,-492.72243507103053 L443.71394596499454,-419.35187777269783" stroke="black" />
<path fill="hsl(45, 13%, 42%)" stroke-width="1" d="M474.25760878934176,-291.2832645540192 L562.1499241813706,-464.90383042980517 A43.2,43.2,0,0,0,536.5245663505816,-492.72243507103053 L356.28605403500546,-419.35187777269783" stroke="black" />
<path fill="hsl(45, 13%, 42%)" stroke-width="1" d="M212.87188880341898,-300.0 A187.12811119658102,159.93855657827442,0,0,0,587.128111196581,-300.0 A187.12811119658102,159.93855657827442,0,0,0,212.87188880341898,-300.0" stroke="black" />
<path fill="black" stroke-width="1" d="M324.1,-339.98463914456863 A6.8999999999999995,11.5,0,0,0,337.9,-339.98463914456863 A6.8999999999999995,11.5,0,0,0,324.1,-339.98463914456863" stroke="black" />
<path fill="black" stroke-width="1" d="M462.1,-339.98463914456863 A6.8999999999999995,11.5,0,0,0,475.9,-339.98463914456863 A6.8999999999999995,11.5,0,0,0,462.1,-339.98463914456863" stroke="black" />
<path fill="black" stroke-width="1" d="M384.9,-305.03333333333336 L415.1,-305.03333333333336 L400.0,-284.9 Z" stroke="black" />
<path fill="black" stroke-width="2" d="M400.0,-284.9 L400.0,-262.25" stroke="black" />
<path fill="none" stroke-width="2" d="M369.8,-258.25 A30.200000000000003,30.200000000000003,30,0,0,400.0,-262.25 A30.200000000000003,30.200000000000003,150,0,0,430.2,-258.25" stroke="black" />
<path fill="black" stroke-width="1" d="M366.0,-274.9 L333.1585219061717,-266.10015246651426" stroke="black" />
<path fill="black" stroke-width="1" d="M360.0,-280.9 L326.12938026488064,-277.9367047465796" stroke="black" />
<path fill="black" stroke-width="1" d="M366.0,-286.9 L332.12938026488064,-289.86329525342035" stroke="black" />
<path fill="black" stroke-width="1" d="M434.0,-274.9 L466.8414780938283,-266.10015246651426" stroke="black" />
<path fill="black" stroke-width="1" d="M440.0,-280.9 L473.87061973511936,-277.9367047465796" stroke="black" />
<path fill="black" stroke-width="1" d="M434.0,-286.9 L467.87061973511936,-289.86329525342035" stroke="black" />
</g>
</svg>