<?xml version="1.0" encoding="UTF-8"?>
<svg xmlns="http://www.w3.org/2000/svg" xmlns:xlink="http://www.w3.org/1999/xlink"
     width="800" height="600" viewBox="0 -600 800 600">
<defs>
</defs>
<g>
<path fill="hsl(45, 14%, 75%)" stroke-width="1" d="M342.7446994253705,-216.3488095971907 L211.9349170630121,-234.03498607240527 A52.800000000000004,52.800000000000004,0,0,1,194.56302788720882,-288.1420856032194 L290.62903189796066,-378.6701081896331" stroke="black" />
<path fill="hsl(45, 14%, 75%)" stroke-width="1" d="M457.2553005746295,-216.3488095971907 L588.0650829369879,-234.03498607240527 A52.800000000000004,52.800000000000004,0,0,0,605.4369721127912,-288.1420856032194 L509.37096810203934,-378.6701081896331" stroke="black" />
<path fill="hsl(45, 14%, 75%)" stroke-width="1" d="M230.49530979940408,-300.0 A169.50469020059592,176.56738562562077,0,0,0,569.5046902005959,-300.0 A169.50469020059592,176.56738562562077,0,0,0,230.49530979940408,-300.0" stroke="black" />
<path fill="black" stroke-width="1" d="M321.015,-344.1418464064052 A5.985,10.5,0,0,0,332.985,-344.1418464064052 A5.985,10.5,0,0,0,321.015,-344.1418464064052" stroke="black" />
<path fill="black" stroke-width="1" d="M467.015,-344.1418464064052 A5.985,10.5,0,0,0,478.985,-344.1418464064052 A5.985,10.5,0,0,0,467.015,-344.1418464064052" stroke="black" />
<path fill="black" stroke-width="1" d="M387.3,-304.23333333333335 L412.7,-304.23333333333335 L400.0,-287.3 Z" stroke="black" />
<path fill="black" stroke-width="2" d="M400.0,-287.3 L400.0,-268.25" stroke="black" />
<path fill="none" stroke-width="2" d="M374.6,-264.25 A25.4,25.4,30,0,0,400.0,-268.25 A25.4,25.4,150,0,0,425.4,-264.25" stroke="black" />
<path fill="black" stroke-width="1" d="M366.0,-277.3 L320.6014861644138,-265.13550488018154" stroke="black" />
<path fill="black" stroke-width="1" d="M360.0,-283.3 L313.178849189688,-279.2036800908601" stroke="black" />
<path fill="black" stroke-width="1" d="M366.0,-289.3 L319.178849189688,-293.39631990913995" stroke="black" />
<path fill="black" stroke-width="1" d="M434.0,-277.3 L479.3985138355862,-265.13550488018154" stroke="black" />
<path fill="black" stroke-width="1" d="M440.0,-283.3 L486.821150810312,-279.2036800908601" stroke="black" />
<path fill="black" stroke-width="1" d="M434.0,-289.3 L480.821150810312,-293.39631990913995" stroke="black" />
</g>
</svg>