<?xml version="1.0" encoding="UTF-8"?>
<svg xmlns="http://www.w3.org/2000/svg" xmlns:xlink="http://www.w3.org/1999/xlink"
     width="800" height="600" viewBox="0 -600 800 600">
<defs>
</defs>
<g>
<path fill="hsl(45, 9%, 75%)" stroke-width="1" d="M390.77976304353126,-210.57446609259858 L230.7108710783226,-160.22776982531244 A40.0,40.0,0,0,1,206.90314725068447,-189.14996345673768 L287.0733180503397,-336.55954155108714" stroke="black" />
<path fill="hsl(45, 9%, 75%)" stroke-width="1" d="M409.22023695646874,-210.57446609259858 L569.2891289216774,-160.22776982531244 A40.0,40.0,0,0,0,593.0968527493155,-189.14996345673768 L512.9266819496603,-336.55954155108714" stroke="black" />
<path fill="hsl(45, 9%, 75%)" stroke-width="1" d="M240.50188088883306,-300.0 A159.49811911116694,187.6448460131376,0,0,0,559.498119111167,-300.0 A159.49811911116694,187.6448460131376,0,0,0,240.50188088883306,-300.0" stroke="black" />
<path fill="black" stroke-width="1" d="M339.792,-346.9112115032844 A10.208,11.6,0,0,0,360.208,-346.9112115032844 A10.208,11.6,0,0,0,339.792,-346.9112115032844" stroke="black" />
<path fill="black" stroke-width="1" d="M439.792,-346.9112115032844 A10.208,11.6,0,0,0,460.208,-346.9112115032844 A10.208,11.6,0,0,0,439.792,-346.9112115032844" stroke="black" />
<path fill="black" stroke-width="1" d="M388.5,-303.8333333333333 L411.5,-303.8333333333333 L400.0,-288.5 Z" stroke="black" />
<path fill="black" stroke-width="2" d="M400.0,-288.5 L400.0,-271.25" stroke="black" />
<path fill="none" stroke-width="2" d="M377.0,-267.25 A23.0,23.0,30,0,0,400.0,-271.25 A23.0,23.0,150,0,0,423.0,-267.25" stroke="black" />
<path fill="black" stroke-width="1" d="M366.0,-278.5 L360.2044450422656,-276.94708572938487" stroke="black" />
<path fill="black" stroke-width="1" d="M360.0,-284.5 L354.0228318114495,-283.9770655435141" stroke="black" />
<path fill="black" stroke-width="1" d="M366.0,-290.5 L360.0228318114495,-291.0229344564859" stroke="black" />
<path fill="black" stroke-width="1" d="M434.0,-278.5 L439.7955549577344,-276.94708572938487" stroke="black" />
<path fill="black" stroke-width="1" d="M440.0,-284.5 L445.9771681885505,-283.9770655435141" stroke="black" />
<path fill="black" stroke-width="1" d="M434.0,-290.5 L439.9771681885505,-291.0229344564859" stroke="black" />
</g>
</svg>