<?xml version="1.0" encoding="UTF-8"?>
<svg xmlns="http://www.w3.org/2000/svg" xmlns:xlink="http://www.w3.org/1999/xlink"
     width="800" height="600" viewBox="0 -600 800 600">
<defs>
</defs>
<g>
<path fill="hsl(45, 53%, 68%)" stroke-width="1" d="M304.4220913528917,-270.78227903483275 L192.54737873894123,-394.7703779699563 A42.400000000000006,42.400000000000006,0,0,1,209.51868497964722,-441.55102602858756 L374.8690229180868,-464.96610116500005" stroke="black" />
<path fill="hsl(45, 53%, 68%)" stroke-width="1" d="M495.5779086471083,-270.78227903483275 L607.4526212610588,-394.7703779699563 A42.400000000000006,42.400000000000006,0,0,0,590.4813150203528,-441.55102602858756 L425.1309770819132,-464.96610116500005" stroke="black" />
<path fill="hsl(45, 53%, 68%)" stroke-width="1" d="M217.73319007564763,-300.0 A182.26680992435237,164.20433326518233,0,0,0,582.2668099243524,-300.0 A182.26680992435237,164.20433326518233,0,0,0,217.73319007564763,-300.0" stroke="black" />
<path fill="black" stroke-width="1" d="M320.5,-341.0510833162956 A13.5,15.0,0,0,0,347.5,-341.0510833162956 A13.5,15.0,0,0,0,320.5,-341.0510833162956" stroke="black" />
<path fill="black" stroke-width="1" d="M452.5,-341.0510833162956 A13.5,15.0,0,0,0,479.5,-341.0510833162956 A13.5,15.0,0,0,0,452.5,-341.0510833162956" stroke="black" />
<path fill="black" stroke-width="1" d="M388.9,-303.7 L411.1,-303.7 L400.0,-288.9 Z" stroke="black" />
<path fill="black" stroke-width="2" d="M400.0,-288.9 L400.0,-272.25" stroke="black" />
<path fill="none" stroke-width="2" d="M377.8,-268.25 A22.2,22.2,30,0,0,400.0,-272.25 A22.2,22.2,150,0,0,422.2,-268.25" stroke="black" />
<path fill="black" stroke-width="1" d="M366.0,-278.9 L333.1585219061717,-270.10015246651426" stroke="black" />
<path fill="black" stroke-width="1" d="M360.0,-284.9 L326.12938026488064,-281.9367047465796" stroke="black" />
<path fill="black" stroke-width="1" d="M366.0,-290.9 L332.12938026488064,-293.86329525342035" stroke="black" />
<path fill="black" stroke-width="1" d="M434.0,-278.9 L466.8414780938283,-270.10015246651426" stroke="black" />
<path fill="black" stroke-width="1" d="M440.0,-284.9 L473.87061973511936,-281.9367047465796" stroke="black" />
<path fill="black" stroke-width="1" d="M434.0,-290.9 L467.87061973511936,-293.86329525342035" stroke="black" />
</g>
</svg>