<?xml version="1.0" encoding="UTF-8"?>
<svg xmlns="http://www.w3.org/2000/svg" xmlns:xlink="http://www.w3.org/1999/xlink"
     width="800" height="600" viewBox="0 -600 800 600">
<defs>
</defs>
<g>
<path fill="hsl(45, 51%, 60%)" stroke-width="1" d="M310.68388643755577,-309.0347269731574 L225.65426936499637,-470.85501068473025 A19.200000000000003,19.200000000000003,0,0,1,237.27948406332212,-484.5726975607201 L410.85448642146275,-427.23546222127004" stroke="black" />
<path fill="hsl(45, 51%, 60%)" stroke-width="1" d="M489.31611356244423,-309.0347269731574 L574.3457306350036,-470.85501068473025 A19.200000000000003,19.200000000000003,0,0,0,562.7205159366779,-484.5726975607201 L389.14551357853725,-427.23546222127004" stroke="black" />
<path fill="hsl(45, 51%, 60%)" stroke-width="1" d="M230.49530979940408,-300.0 A169.50469020059592,176.56738562562077,0,0,0,569.5046902005959,-300.0 A169.50469020059592,176.56738562562077,0,0,0,230.49530979940408,-300.0" stroke="black" />
<path fill="black" stroke-width="1" d="M314.208,-344.1418464064052 A9.792,13.6,0,0,0,333.792,-344.1418464064052 A9.792,13.6,0,0,0,314.208,-344.1418464064052" stroke="black" />
<path fill="black" stroke-width="1" d="M466.208,-344.1418464064052 A9.792,13.6,0,0,0,485.792,-344.1418464064052 A9.792,13.6,0,0,0,466.208,-344.1418464064052" stroke="black" />
<path fill="black" stroke-width="1" d="M389.7,-303.43333333333334 L410.3,-303.43333333333334 L400.0,-289.7 Z" stroke="black" />
<path fill="black" stroke-width="2" d="M400.0,-289.7 L400.0,-274.25" stroke="black" />
<path fill="none" stroke-width="2" d="M379.4,-270.25 A20.6,20.6,30,0,0,400.0,-274.25 A20.6,20.6,150,0,0,420.6,-270.25" stroke="black" />
<path fill="black" stroke-width="1" d="M366.0,-279.7 L341.8518543427733,-273.22952387243697" stroke="black" />
<path fill="black" stroke-width="1" d="M360.0,-285.7 L335.0951325477064,-283.52110643130857" stroke="black" />
<path fill="black" stroke-width="1" d="M366.0,-291.7 L341.0951325477064,-293.87889356869147" stroke="black" />
<path fill="black" stroke-width="1" d="M434.0,-279.7 L458.1481456572267,-273.22952387243697" stroke="black" />
<path fill="black" stroke-width="1" d="M440.0,-285.7 L464.9048674522936,-283.5211064313085" stroke="black" />
<path fill="black" stroke-width="1" d="M434.0,-291.7 L458.9048674522936,-293.87889356869147" stroke="black" />
</g>
</svg>