<?xml version="1.0" encoding="UTF-8"?>
<svg xmlns="http://www.w3.org/2000/svg" xmlns:xlink="http://www.w3.org/1999/xlink"
     width="800" height="600" viewBox="0 -600 800 600">
<defs>
</defs>
<g>
<path d="M421.64467068466377,-205.43286941304552 L232.05254852676273,-135.15010327750184 A42.400000000000006,42.400000000000006,0,0,1,198.4357829605499,-167.23011114044874 L259.77677309037085,-359.9011336889711" stroke-width="1" stroke="black" fill="hsl(45, 29%, 45%)" />
<path d="M378.35532931533623,-205.43286941304552 L567.9474514732373,-135.15010327750184 A42.400000000000006,42.400000000000006,0,0,0,601.5642170394501,-167.23011114044874 L540.2232269096291,-359.9011336889711" stroke-width="1" stroke="black" fill="hsl(45, 29%, 45%)" />
<path d="M243.3418371102227,-300.0 A156.6581628897773,191.04654010948454,0,0,0,556.6581628897773,-300.0 A156.6581628897773,191.04654010948454,0,0,0,243.3418371102227,-300.0" stroke-width="1" stroke="black" fill="hsl(45, 29%, 45%)" />
<path d="M339.004,-347.76163502737114 A9.996,14.7,0,0,0,358.996,-347.76163502737114 A9.996,14.7,0,0,0,339.004,-347.76163502737114" stroke-width="1" stroke="black" fill="black" />
<path d="M441.004,-347.76163502737114 A9.996,14.7,0,0,0,460.996,-347.76163502737114 A9.996,14.7,0,0,0,441.004,-347.76163502737114" stroke-width="1" stroke="black" fill="black" />
<path d="M380.0,-306.6666666666667 L420.0,-306.6666666666667 L400.0,-280.0 Z" stroke-width="1" stroke="black" fill="black" />
<path d="M400.0,-280.0 L400.0,-250.0" stroke-width="2" stroke="black" fill="black" />
<path d="M360.0,-246.0 A40.0,40.0,30,0,0,400.0,-250.0 A40.0,40.0,150,0,0,440.0,-246.0" fill="none" stroke-width="2" stroke="black" />
<path d="M366.0,-270.0 L352.477038431953,-266.3765333685647" stroke-width="1" stroke="black" fill="black" />
<path d="M360.0,-276.0 L346.0532742267156,-274.7798196015328" stroke-width="1" stroke="black" fill="black" />
<path d="M366.0,-282.0 L352.0532742267156,-283.2201803984672" stroke-width="1" stroke="black" fill="black" />
<path d="M434.0,-270.0 L447.522961568047,-266.3765333685647" stroke-width="1" stroke="black" fill="black" />
<path d="M440.0,-276.0 L453.9467257732844,-274.7798196015328" stroke-width="1" stroke="black" fill="black" />
<path d="M434.0,-282.0 L447.9467257732844,-283.2201803984672" stroke-width="1" stroke="black" fill="black" />
</g>
</svg>