<?xml version="1.0" encoding="utf-8" ?>
<svg baseProfile="full" height="100%" version="1.1" width="100%" xmlns="http://www.w3.org/2000/svg" xmlns:ev="http://www.w3.org/2001/xml-events" xmlns:xlink="http://www.w3.org/1999/xlink"><defs /><path d="M 360.60 365.91 L 165.92 353.70 A 40.173421590460805 40.173421590460805 0 0,1 155.40257551087825 319.68155414286133 L 309.22 199.73" style="fill:hsl(45, 12%, 52%);stroke-width:1.00;stroke:rgb(0, 0, 0)" /><path d="M 439.40 365.91 L 634.08 353.70 A 40.173421590460805 40.173421590460805 0 0,0 644.5974244891217 319.68155414286133 L 490.78 199.73" style="fill:hsl(45, 12%, 52%);stroke-width:1.00;stroke:rgb(0, 0, 0)" /><ellipse cx="400.0" cy="300.0" rx="177.46221893722088" ry="168.64998183409222" style="fill:hsl(45, 12%, 52%);stroke-width:1.00;stroke:rgb(0, 0, 0)" /><ellipse cx="334.89278717198755" cy="257.83750454147696" rx="10.159931499434494" ry="13.309152247645859" style="fill:hsl(0, 0%, 0%);stroke-width:1.00;stroke:rgb(0, 0, 0)" /><ellipse cx="465.10721282801245" cy="257.83750454147696" rx="10.159931499434494" ry="13.309152247645859" style="fill:hsl(0, 0%, 0%);stroke-width:1.00;stroke:rgb(0, 0, 0)" /><polygon points="382.2530260507135,294.0843420169045 417.7469739492865,294.0843420169045 400.0,317.7469739492865" style="fill:hsl(0, 0%, 0%);stroke-width:1.00;stroke:rgb(0, 0, 0)" /><line style="fill:hsl(0, 0%, 0%);stroke-width:2.00;stroke:rgb(0, 0, 0)" x1="400.0" x2="400.0" y1="317.7469739492865" y2="344.3674348732162" /><path d="M 364 348 A 35.493947898572955 35.493947898572955 30 0,0 400.0 344.3674348732162 A 35.493947898572955 35.493947898572955 150 0,0 435.49394789857297 348.3674348732162" style="fill:none;stroke-width:2.00;stroke:rgb(0, 0, 0)" /><line style="fill:hsl(0, 0%, 0%);stroke-width:1.00;stroke:rgb(0, 0, 0)" x1="366.0" x2="346.4734882637304" y1="327.7469739492865" y2="332.97908700001676" /><line style="fill:hsl(0, 0%, 0%);stroke-width:1.00;stroke:rgb(0, 0, 0)" x1="360.0" x2="339.86159295623116" y1="321.7469739492865" y2="323.50885626708686" /><line style="fill:hsl(0, 0%, 0%);stroke-width:1.00;stroke:rgb(0, 0, 0)" x1="366.0" x2="345.86159295623116" y1="315.7469739492865" y2="313.9850916314861" /><line style="fill:hsl(0, 0%, 0%);stroke-width:1.00;stroke:rgb(0, 0, 0)" x1="434.0" x2="453.5265117362696" y1="327.7469739492865" y2="332.97908700001676" /><line style="fill:hsl(0, 0%, 0%);stroke-width:1.00;stroke:rgb(0, 0, 0)" x1="440.0" x2="460.13840704376884" y1="321.7469739492865" y2="323.50885626708686" /><line style="fill:hsl(0, 0%, 0%);stroke-width:1.00;stroke:rgb(0, 0, 0)" x1="434.0" x2="454.13840704376884" y1="315.7469739492865" y2="313.9850916314861" /></svg>