<?xml version="1.0" encoding="utf-8" ?>
<svg baseProfile="full" height="100%" version="1.1" width="100%" xmlns="http://www.w3.org/2000/svg" xmlns:ev="http://www.w3.org/2001/xml-events" xmlns:xlink="http://www.w3.org/1999/xlink"><defs /><path d="M 304.03 326.65 L 223.15 192.59 A 62.420852919902636 62.420852919902636 0 0,1 260.8346968972726 127.87678977533005 L 417.35 132.08" style="fill:hsl(45, 46%, 57%);stroke-width:1.00;stroke:rgb(0, 0, 0)" /><path d="M 495.97 326.65 L 576.85 192.59 A 62.420852919902636 62.420852919902636 0 0,0 539.1653031027274 127.87678977533005 L 382.65 132.08" style="fill:hsl(45, 46%, 57%);stroke-width:1.00;stroke:rgb(0, 0, 0)" /><ellipse cx="400.0" cy="300.0" rx="168.03825099349848" ry="178.1082570370122" style="fill:hsl(45, 46%, 57%);stroke-width:1.00;stroke:rgb(0, 0, 0)" /><ellipse cx="346.065074029727" cy="255.47293574074695" rx="9.941663570415203" ry="11.482063452342315" style="fill:hsl(0, 0%, 0%);stroke-width:1.00;stroke:rgb(0, 0, 0)" /><ellipse cx="453.934925970273" cy="255.47293574074695" rx="9.941663570415203" ry="11.482063452342315" style="fill:hsl(0, 0%, 0%);stroke-width:1.00;stroke:rgb(0, 0, 0)" /><polygon points="383.7704512223191,294.5901504074397 416.2295487776809,294.5901504074397 400.0,316.2295487776809" style="fill:hsl(0, 0%, 0%);stroke-width:1.00;stroke:rgb(0, 0, 0)" /><line style="fill:hsl(0, 0%, 0%);stroke-width:2.00;stroke:rgb(0, 0, 0)" x1="400.0" x2="400.0" y1="316.2295487776809" y2="340.5738719442023" /><path d="M 367 344 A 32.459097555361836 32.459097555361836 30 0,0 400.0 340.5738719442023 A 32.459097555361836 32.459097555361836 150 0,0 432.45909755536184 344.5738719442023" style="fill:none;stroke-width:2.00;stroke:rgb(0, 0, 0)" /><line style="fill:hsl(0, 0%, 0%);stroke-width:1.00;stroke:rgb(0, 0, 0)" x1="366.0" x2="363.4858219767471" y1="326.2295487776809" y2="326.9032207486396" /><line style="fill:hsl(0, 0%, 0%);stroke-width:1.00;stroke:rgb(0, 0, 0)" x1="360.0" x2="357.40703608014536" y1="320.2295487776809" y2="320.45640372559996" /><line style="fill:hsl(0, 0%, 0%);stroke-width:1.00;stroke:rgb(0, 0, 0)" x1="366.0" x2="363.40703608014536" y1="314.2295487776809" y2="314.0026938297619" /><line style="fill:hsl(0, 0%, 0%);stroke-width:1.00;stroke:rgb(0, 0, 0)" x1="434.0" x2="436.5141780232529" y1="326.2295487776809" y2="326.9032207486396" /><line style="fill:hsl(0, 0%, 0%);stroke-width:1.00;stroke:rgb(0, 0, 0)" x1="440.0" x2="442.59296391985464" y1="320.2295487776809" y2="320.45640372559996" /><line style="fill:hsl(0, 0%, 0%);stroke-width:1.00;stroke:rgb(0, 0, 0)" x1="434.0" x2="436.59296391985464" y1="314.2295487776809" y2="314.0026938297619" /></svg>