<?xml version="1.0" encoding="utf-8" ?>
<svg baseProfile="full" height="100%" version="1.1" width="100%" xmlns="http://www.w3.org/2000/svg" xmlns:ev="http://www.w3.org/2001/xml-events" xmlns:xlink="http://www.w3.org/1999/xlink"><defs /><path d="M 313.53 380.59 L 202.40 290.31 A 58.17728502833299 58.17728502833299 0 0,1 213.9465970850557 218.6650066689565 L 347.81 167.88" style="fill:hsl(45, 13%, 65%);stroke-width:1.00;stroke:rgb(0, 0, 0)" /><path d="M 486.47 380.59 L 597.60 290.31 A 58.17728502833299 58.17728502833299 0 0,0 586.0534029149443 218.6650066689565 L 452.19 167.88" style="fill:hsl(45, 13%, 65%);stroke-width:1.00;stroke:rgb(0, 0, 0)" /><ellipse cx="400.0" cy="300.0" rx="160.98497567981212" ry="185.91175899250803" style="fill:hsl(45, 13%, 65%);stroke-width:1.00;stroke:rgb(0, 0, 0)" /><ellipse cx="339.2800179580528" cy="253.522060251873" rx="11.102765085527341" ry="14.355444664854069" style="fill:hsl(0, 0%, 0%);stroke-width:1.00;stroke:rgb(0, 0, 0)" /><ellipse cx="460.7199820419472" cy="253.522060251873" rx="11.102765085527341" ry="14.355444664854069" style="fill:hsl(0, 0%, 0%);stroke-width:1.00;stroke:rgb(0, 0, 0)" /><polygon points="383.36137358380665,294.4537911946022 416.63862641619335,294.4537911946022 400.0,316.63862641619335" style="fill:hsl(0, 0%, 0%);stroke-width:1.00;stroke:rgb(0, 0, 0)" /><line style="fill:hsl(0, 0%, 0%);stroke-width:2.00;stroke:rgb(0, 0, 0)" x1="400.0" x2="400.0" y1="316.63862641619335" y2="341.59656604048337" /><path d="M 366 345 A 33.27725283238667 33.27725283238667 30 0,0 400.0 341.59656604048337 A 33.27725283238667 33.27725283238667 150 0,0 433.2772528323867 345.59656604048337" style="fill:none;stroke-width:2.00;stroke:rgb(0, 0, 0)" /><line style="fill:hsl(0, 0%, 0%);stroke-width:1.00;stroke:rgb(0, 0, 0)" x1="366.0" x2="360.9829380598265" y1="326.63862641619335" y2="327.98294411143974" /><line style="fill:hsl(0, 0%, 0%);stroke-width:1.00;stroke:rgb(0, 0, 0)" x1="360.0" x2="354.8257201859897" y1="320.63862641619335" y2="321.09131724183027" /><line style="fill:hsl(0, 0%, 0%);stroke-width:1.00;stroke:rgb(0, 0, 0)" x1="366.0" x2="360.8257201859897" y1="314.63862641619335" y2="314.1859355905564" /><line style="fill:hsl(0, 0%, 0%);stroke-width:1.00;stroke:rgb(0, 0, 0)" x1="434.0" x2="439.0170619401735" y1="326.63862641619335" y2="327.98294411143974" /><line style="fill:hsl(0, 0%, 0%);stroke-width:1.00;stroke:rgb(0, 0, 0)" x1="440.0" x2="445.1742798140103" y1="320.63862641619335" y2="321.09131724183027" /><line style="fill:hsl(0, 0%, 0%);stroke-width:1.00;stroke:rgb(0, 0, 0)" x1="434.0" x2="439.1742798140103" y1="314.63862641619335" y2="314.1859355905564" /></svg>