<?xml version="1.0" encoding="utf-8" ?>
<svg baseProfile="full" height="100%" version="1.1" width="100%" xmlns="http://www.w3.org/2000/svg" xmlns:ev="http://www.w3.org/2001/xml-events" xmlns:xlink="http://www.w3.org/1999/xlink"><defs /><path d="M 306.97 339.14 L 218.41 230.13 A 61.19777932884679 61.19777932884679 0 0,1 246.571396068102 174.66133013805546 L 386.84 181.84" style="fill:hsl(45, 19%, 56%);stroke-width:1.00;stroke:rgb(0, 0, 0)" /><path d="M 493.03 339.14 L 581.59 230.13 A 61.19777932884679 61.19777932884679 0 0,0 553.428603931898 174.66133013805546 L 413.16 181.84" style="fill:hsl(45, 19%, 56%);stroke-width:1.00;stroke:rgb(0, 0, 0)" /><ellipse cx="400.0" cy="300.0" rx="159.44257682966182" ry="187.71021263645417" style="fill:hsl(45, 19%, 56%);stroke-width:1.00;stroke:rgb(0, 0, 0)" /><ellipse cx="323.6424186645662" cy="253.07244684088647" rx="10.609007429816241" ry="13.54947523079139" style="fill:hsl(0, 0%, 0%);stroke-width:1.00;stroke:rgb(0, 0, 0)" /><ellipse cx="476.3575813354338" cy="253.07244684088647" rx="10.609007429816241" ry="13.54947523079139" style="fill:hsl(0, 0%, 0%);stroke-width:1.00;stroke:rgb(0, 0, 0)" /><polygon points="383.465757384292,294.488585794764 416.534242615708,294.488585794764 400.0,316.534242615708" style="fill:hsl(0, 0%, 0%);stroke-width:1.00;stroke:rgb(0, 0, 0)" /><line style="fill:hsl(0, 0%, 0%);stroke-width:2.00;stroke:rgb(0, 0, 0)" x1="400.0" x2="400.0" y1="316.534242615708" y2="341.3356065392701" /><path d="M 366 345 A 33.06848523141609 33.06848523141609 30 0,0 400.0 341.3356065392701 A 33.06848523141609 33.06848523141609 150 0,0 433.0684852314161 345.3356065392701" style="fill:none;stroke-width:2.00;stroke:rgb(0, 0, 0)" /><line style="fill:hsl(0, 0%, 0%);stroke-width:1.00;stroke:rgb(0, 0, 0)" x1="366.0" x2="364.2814805539605" y1="326.534242615708" y2="326.9947185134515" /><line style="fill:hsl(0, 0%, 0%);stroke-width:1.00;stroke:rgb(0, 0, 0)" x1="360.0" x2="358.22762792533536" y1="320.534242615708" y2="320.6893050797911" /><line style="fill:hsl(0, 0%, 0%);stroke-width:1.00;stroke:rgb(0, 0, 0)" x1="366.0" x2="364.22762792533536" y1="314.534242615708" y2="314.37918015162495" /><line style="fill:hsl(0, 0%, 0%);stroke-width:1.00;stroke:rgb(0, 0, 0)" x1="434.0" x2="435.7185194460395" y1="326.534242615708" y2="326.9947185134515" /><line style="fill:hsl(0, 0%, 0%);stroke-width:1.00;stroke:rgb(0, 0, 0)" x1="440.0" x2="441.77237207466464" y1="320.534242615708" y2="320.6893050797911" /><line style="fill:hsl(0, 0%, 0%);stroke-width:1.00;stroke:rgb(0, 0, 0)" x1="434.0" x2="435.77237207466464" y1="314.534242615708" y2="314.37918015162495" /></svg>