<?xml version="1.0" encoding="UTF-8"?>
<svg xmlns="http://www.w3.org/2000/svg" xmlns:xlink="http://www.w3.org/1999/xlink"
     width="800" height="600" viewBox="0 -600 800 600">
<defs>
</defs>
<g>
<path d="M295.93286619710517,-280.32125074900955 L180.6559668836877,-467.70117626048005 A0.0,0.0,0,0,1,180.65596688368782,-467.70117626048005 L398.2958801355453,-435.5629099767495" stroke-width="1" stroke="black" fill="hsl(45, 56%, 60%)" />
<path d="M504.06713380289483,-280.32125074900955 L619.3440331163123,-467.70117626048005 A0.0,0.0,0,0,0,619.3440331163122,-467.70117626048005 L401.7041198644547,-435.5629099767495" stroke-width="1" stroke="black" fill="hsl(45, 56%, 60%)" />
<path d="M201.99244963890897,-300.0 A198.00755036109103,151.15080180235955,0,0,0,598.007550361091,-300.0 A198.00755036109103,151.15080180235955,0,0,0,201.99244963890897,-300.0" stroke-width="1" stroke="black" fill="hsl(45, 56%, 60%)" />
<path d="M319.25,-337.7877004505899 A11.75,12.5,0,0,0,342.75,-337.7877004505899 A11.75,12.5,0,0,0,319.25,-337.7877004505899" stroke-width="1" stroke="black" fill="black" />
<path d="M457.25,-337.7877004505899 A11.75,12.5,0,0,0,480.75,-337.7877004505899 A11.75,12.5,0,0,0,457.25,-337.7877004505899" stroke-width="1" stroke="black" fill="black" />
<path d="M385.0,-305.0 L415.0,-305.0 L400.0,-285.0 Z" stroke-width="1" stroke="black" fill="black" />
<path d="M400.0,-285.0 L400.0,-262.5" stroke-width="2" stroke="black" fill="black" />
<path d="M370.0,-258.5 A30.0,30.0,30,0,0,400.0,-262.5 A30.0,30.0,150,0,0,430.0,-258.5" fill="none" stroke-width="2" stroke="black" />
<path d="M366.0,-275.0 L308.0444504226559,-259.4708572938488" stroke-width="1" stroke="black" fill="black" />
<path d="M360.0,-281.0 L300.22831811449527,-275.7706554351405" stroke-width="1" stroke="black" fill="black" />
<path d="M366.0,-287.0 L306.22831811449527,-292.2293445648595" stroke-width="1" stroke="black" fill="black" />
<path d="M434.0,-275.0 L491.9555495773441,-259.4708572938488" stroke-width="1" stroke="black" fill="black" />
<path d="M440.0,-281.0 L499.77168188550473,-275.7706554351405" stroke-width="1" stroke="black" fill="black" />
<path d="M434.0,-287.0 L493.77168188550473,-292.2293445648595" stroke-width="1" stroke="black" fill="black" />
</g>
</svg>