<?xml version="1.0" encoding="UTF-8"?>
<svg xmlns="http://www.w3.org/2000/svg" xmlns:xlink="http://www.w3.org/1999/xlink"
     width="800" height="600" viewBox="0 -600 800 600">
<defs>
</defs>
<g>
<path d="M380.59905302225013,-200.3656251626515 L180.59449664522447,-212.9488452763259 A36.800000000000004,36.800000000000004,0,0,1,164.6208811317532,-250.76368931207892 L295.03603427182975,-402.92165930198905" stroke-width="1" stroke="black" fill="hsl(45, 20%, 49%)" />
<path d="M419.40094697774987,-200.3656251626515 L619.4055033547755,-212.9488452763259 A36.800000000000004,36.800000000000004,0,0,0,635.3791188682468,-250.76368931207892 L504.96396572817025,-402.92165930198905" stroke-width="1" stroke="black" fill="hsl(45, 20%, 49%)" />
<path d="M234.9685181548684,-300.0 A165.0314818451316,181.35327675289187,0,0,0,565.0314818451316,-300.0 A165.0314818451316,181.35327675289187,0,0,0,234.9685181548684,-300.0" stroke-width="1" stroke="black" fill="hsl(45, 20%, 49%)" />
<path d="M329.625,-345.33831918822295 A9.375,12.5,0,0,0,348.375,-345.33831918822295 A9.375,12.5,0,0,0,329.625,-345.33831918822295" stroke-width="1" stroke="black" fill="black" />
<path d="M451.625,-345.33831918822295 A9.375,12.5,0,0,0,470.375,-345.33831918822295 A9.375,12.5,0,0,0,451.625,-345.33831918822295" stroke-width="1" stroke="black" fill="black" />
<path d="M381.4,-306.2 L418.6,-306.2 L400.0,-281.4 Z" stroke-width="1" stroke="black" fill="black" />
<path d="M400.0,-281.4 L400.0,-253.5" stroke-width="2" stroke="black" fill="black" />
<path d="M362.8,-249.5 A37.2,37.2,30,0,0,400.0,-253.5 A37.2,37.2,150,0,0,437.2,-249.5" fill="none" stroke-width="2" stroke="black" />
<path d="M366.0,-271.4 L348.61333512679676,-266.7412571881546" stroke-width="1" stroke="black" fill="black" />
<path d="M360.0,-277.4 L342.06849543434856,-275.83119663054214" stroke-width="1" stroke="black" fill="black" />
<path d="M366.0,-283.4 L348.06849543434856,-284.9688033694578" stroke-width="1" stroke="black" fill="black" />
<path d="M434.0,-271.4 L451.38666487320324,-266.7412571881546" stroke-width="1" stroke="black" fill="black" />
<path d="M440.0,-277.4 L457.93150456565144,-275.83119663054214" stroke-width="1" stroke="black" fill="black" />
<path d="M434.0,-283.4 L451.93150456565144,-284.9688033694578" stroke-width="1" stroke="black" fill="black" />
</g>
</svg>