<?xml version="1.0" encoding="UTF-8"?>
<svg xmlns="http://www.w3.org/2000/svg" xmlns:xlink="http://www.w3.org/1999/xlink"
     width="800" height="600" viewBox="0 -600 800 600">
<defs>
</defs>
<g>
<path fill="hsl(45, 43%, 30%)" stroke="black" d="M413.27024483735374,-202.3151176898604 L194.71876865294803,-146.36324321172356 A18.400000000000002,18.400000000000002,0,0,1,183.10740416194596,-161.0341679654473 L287.76653994765286,-360.8886782888047" stroke-width="1" />
<path fill="hsl(45, 43%, 30%)" stroke="black" d="M386.72975516264626,-202.3151176898604 L605.281231347052,-146.36324321172356 A18.400000000000002,18.400000000000002,0,0,0,616.892595838054,-161.0341679654473 L512.2334600523471,-360.8886782888047" stroke-width="1" />
<path fill="hsl(45, 43%, 30%)" stroke="black" d="M245.26409595701455,-300.0 A154.73590404298545,193.41988005373182,0,0,0,554.7359040429855,-300.0 A154.73590404298545,193.41988005373182,0,0,0,245.26409595701455,-300.0" stroke-width="1" />
<path fill="black" stroke="black" d="M334.505,-348.35497001343293 A12.495000000000001,14.7,0,0,0,359.495,-348.35497001343293 A12.495000000000001,14.7,0,0,0,334.505,-348.35497001343293" stroke-width="1" />
<path fill="black" stroke="black" d="M440.505,-348.35497001343293 A12.495000000000001,14.7,0,0,0,465.495,-348.35497001343293 A12.495000000000001,14.7,0,0,0,440.505,-348.35497001343293" stroke-width="1" />
<path fill="black" stroke="black" d="M387.9,-304.03333333333336 L412.1,-304.03333333333336 L400.0,-287.9 Z" stroke-width="1" />
<path fill="black" stroke="black" d="M400.0,-287.9 L400.0,-269.75" stroke-width="2" />
<path fill="none" stroke="black" d="M375.8,-265.75 A24.2,24.2,30,0,0,400.0,-269.75 A24.2,24.2,150,0,0,424.2,-265.75" stroke-width="2" />
<path fill="black" stroke="black" d="M366.0,-277.9 L324.4651894695701,-266.77078106059156" stroke-width="1" />
<path fill="black" stroke="black" d="M360.0,-283.9 L317.16362798205495,-280.15230306185066" stroke-width="1" />
<path fill="black" stroke="black" d="M366.0,-289.9 L323.16362798205495,-293.6476969381493" stroke-width="1" />
<path fill="black" stroke="black" d="M434.0,-277.9 L475.5348105304299,-266.7707810605916" stroke-width="1" />
<path fill="black" stroke="black" d="M440.0,-283.9 L482.83637201794505,-280.15230306185066" stroke-width="1" />
<path fill="black" stroke="black" d="M434.0,-289.9 L476.83637201794505,-293.6476969381493" stroke-width="1" />
</g>
</svg>