<?xml version="1.0" encoding="UTF-8"?>
<svg xmlns="http://www.w3.org/2000/svg" xmlns:xlink="http://www.w3.org/1999/xlink"
     width="800" height="600" viewBox="0 -600 800 600">
<defs>
</defs>
<g>
<path fill="hsl(45, 50%, 74%)" stroke="black" d="M342.96563906675453,-195.8866082036031 L154.44647349744935,-279.4268033976108 A12.8,12.8,0,0,1,153.66083294281634,-293.9332405806399 L332.05505586428944,-397.34475458292" stroke-width="1" />
<path fill="hsl(45, 50%, 74%)" stroke="black" d="M457.03436093324547,-195.8866082036031 L645.5535265025507,-279.4268033976108 A12.8,12.8,0,0,0,646.3391670571837,-293.9332405806399 L467.94494413571056,-397.34475458292" stroke-width="1" />
<path fill="hsl(45, 50%, 74%)" stroke="black" d="M240.50188088883306,-300.0 A159.49811911116694,187.6448460131376,0,0,0,559.498119111167,-300.0 A159.49811911116694,187.6448460131376,0,0,0,240.50188088883306,-300.0" stroke-width="1" />
<path fill="black" stroke="black" d="M328.021,-346.9112115032844 A7.979,10.1,0,0,0,343.979,-346.9112115032844 A7.979,10.1,0,0,0,328.021,-346.9112115032844" stroke-width="1" />
<path fill="black" stroke="black" d="M456.021,-346.9112115032844 A7.979,10.1,0,0,0,471.979,-346.9112115032844 A7.979,10.1,0,0,0,456.021,-346.9112115032844" stroke-width="1" />
<path fill="black" stroke="black" d="M387.1,-304.3 L412.9,-304.3 L400.0,-287.1 Z" stroke-width="1" />
<path fill="black" stroke="black" d="M400.0,-287.1 L400.0,-267.75" stroke-width="2" />
<path fill="none" stroke="black" d="M374.2,-263.75 A25.8,25.8,30,0,0,400.0,-267.75 A25.8,25.8,150,0,0,425.8,-263.75" stroke-width="2" />
<path fill="black" stroke="black" d="M366.0,-277.1 L343.78370599535145,-271.14716196264203" stroke-width="1" />
<path fill="black" stroke="black" d="M360.0,-283.1 L337.08752194388984,-281.0954179168039" stroke-width="1" />
<path fill="black" stroke="black" d="M366.0,-289.1 L343.08752194388984,-291.10458208319614" stroke-width="1" />
<path fill="black" stroke="black" d="M434.0,-277.1 L456.21629400464855,-271.14716196264203" stroke-width="1" />
<path fill="black" stroke="black" d="M440.0,-283.1 L462.91247805611016,-281.09541791680385" stroke-width="1" />
<path fill="black" stroke="black" d="M434.0,-289.1 L456.91247805611016,-291.10458208319614" stroke-width="1" />
</g>
</svg>