<?xml version="1.0" encoding="UTF-8"?>
<svg xmlns="http://www.w3.org/2000/svg" xmlns:xlink="http://www.w3.org/1999/xlink"
     width="800" height="600" viewBox="0 -600 800 600">
<defs>
</defs>
<g>
<path fill="hsl(45, 40%, 51%)" stroke="black" d="M356.79384062299437,-198.20591966615507 L222.09199592555308,-209.80130819377337 A34.4,34.4,0,0,1,206.26452402526388,-246.94421836800086 L291.2018524222609,-352.1330497370235" stroke-width="1" />
<path fill="hsl(45, 40%, 51%)" stroke="black" d="M443.20615937700563,-198.20591966615507 L577.9080040744469,-209.80130819377337 A34.4,34.4,0,0,0,593.7354759747361,-246.94421836800086 L508.7981475777391,-352.1330497370235" stroke-width="1" />
<path fill="hsl(45, 40%, 51%)" stroke="black" d="M248.1931160981163,-300.0 A151.8068839018837,197.15179727517364,0,0,0,551.8068839018837,-300.0 A151.8068839018837,197.15179727517364,0,0,0,248.1931160981163,-300.0" stroke-width="1" />
<path fill="black" stroke="black" d="M321.14,-349.2879493187934 A7.859999999999999,13.1,0,0,0,336.86,-349.2879493187934 A7.859999999999999,13.1,0,0,0,321.14,-349.2879493187934" stroke-width="1" />
<path fill="black" stroke="black" d="M463.14,-349.2879493187934 A7.859999999999999,13.1,0,0,0,478.86,-349.2879493187934 A7.859999999999999,13.1,0,0,0,463.14,-349.2879493187934" stroke-width="1" />
<path fill="black" stroke="black" d="M389.1,-303.6333333333333 L410.9,-303.6333333333333 L400.0,-289.1 Z" stroke-width="1" />
<path fill="black" stroke="black" d="M400.0,-289.1 L400.0,-272.75" stroke-width="2" />
<path fill="none" stroke="black" d="M378.2,-268.75 A21.8,21.8,30,0,0,400.0,-272.75 A21.8,21.8,150,0,0,421.8,-268.75" stroke-width="2" />
<path fill="black" stroke="black" d="M366.0,-279.1 L337.02222521132796,-271.3354286469244" stroke-width="1" />
<path fill="black" stroke="black" d="M360.0,-285.1 L330.11415905724766,-282.48532771757027" stroke-width="1" />
<path fill="black" stroke="black" d="M366.0,-291.1 L336.11415905724766,-293.7146722824298" stroke-width="1" />
<path fill="black" stroke="black" d="M434.0,-279.1 L462.97777478867204,-271.3354286469244" stroke-width="1" />
<path fill="black" stroke="black" d="M440.0,-285.1 L469.88584094275234,-282.48532771757027" stroke-width="1" />
<path fill="black" stroke="black" d="M434.0,-291.1 L463.88584094275234,-293.7146722824298" stroke-width="1" />
</g>
</svg>