<?xml version="1.0" encoding="UTF-8"?>
<svg xmlns="http://www.w3.org/2000/svg" xmlns:xlink="http://www.w3.org/1999/xlink"
     width="800" height="600" viewBox="0 -600 800 600">
<defs>
</defs>
<g>
<path fill="hsl(45, 23%, 41%)" stroke="black" d="M340.25063054933895,-232.16276090157456 L148.4411872269975,-337.43658220760256 A25.6,25.6,0,0,1,151.5380337124925,-360.1620951669963 L364.52216487940666,-410.2739687208231" stroke-width="1" />
<path fill="hsl(45, 23%, 41%)" stroke="black" d="M459.74936945066105,-232.16276090157456 L651.5588127730025,-337.43658220760256 A25.6,25.6,0,0,0,648.4619662875075,-360.1620951669963 L435.47783512059334,-410.2739687208231" stroke-width="1" />
<path fill="hsl(45, 23%, 41%)" stroke="black" d="M229.61476002892738,-300.0 A170.38523997107262,175.6548865681161,0,0,0,570.3852399710727,-300.0 A170.38523997107262,175.6548865681161,0,0,0,229.61476002892738,-300.0" stroke-width="1" />
<path fill="black" stroke="black" d="M334.028,-343.91372164202903 A11.972000000000001,14.600000000000001,0,0,0,357.972,-343.91372164202903 A11.972000000000001,14.600000000000001,0,0,0,334.028,-343.91372164202903" stroke-width="1" />
<path fill="black" stroke="black" d="M442.028,-343.91372164202903 A11.972000000000001,14.600000000000001,0,0,0,465.972,-343.91372164202903 A11.972000000000001,14.600000000000001,0,0,0,442.028,-343.91372164202903" stroke-width="1" />
<path fill="black" stroke="black" d="M381.7,-306.1 L418.3,-306.1 L400.0,-281.7 Z" stroke-width="1" />
<path fill="black" stroke="black" d="M400.0,-281.7 L400.0,-254.25" stroke-width="2" />
<path fill="none" stroke="black" d="M363.4,-250.25 A36.6,36.6,30,0,0,400.0,-254.25 A36.6,36.6,150,0,0,436.6,-250.25" stroke-width="2" />
<path fill="black" stroke="black" d="M366.0,-271.7 L331.2266702535935,-262.38251437630925" stroke-width="1" />
<path fill="black" stroke="black" d="M360.0,-277.7 L324.1369908686972,-274.5623932610843" stroke-width="1" />
<path fill="black" stroke="black" d="M366.0,-283.7 L330.1369908686972,-286.83760673891567" stroke-width="1" />
<path fill="black" stroke="black" d="M434.0,-271.7 L468.7733297464065,-262.38251437630925" stroke-width="1" />
<path fill="black" stroke="black" d="M440.0,-277.7 L475.8630091313028,-274.5623932610843" stroke-width="1" />
<path fill="black" stroke="black" d="M434.0,-283.7 L469.8630091313028,-286.83760673891567" stroke-width="1" />
</g>
</svg>