<?xml version="1.0" encoding="UTF-8"?>
<svg xmlns="http://www.w3.org/2000/svg" xmlns:xlink="http://www.w3.org/1999/xlink"
     width="800" height="600" viewBox="0 -600 800 600">
<defs>
</defs>
<g>
<path fill="hsl(45, 49%, 46%)" stroke="black" d="M316.7844547109843,-253.67674811869958 L156.05245260429786,-341.1651673453388 A47.2,47.2,0,0,1,159.86819408922008,-389.0081692938983 L332.4354621576143,-449.91414594160483" stroke-width="1" />
<path fill="hsl(45, 49%, 46%)" stroke="black" d="M483.2155452890157,-253.67674811869958 L643.9475473957021,-341.1651673453388 A47.2,47.2,0,0,0,640.1318059107799,-389.0081692938983 L467.5645378423857,-449.91414594160483" stroke-width="1" />
<path fill="hsl(45, 49%, 46%)" stroke="black" d="M202.74965145784913,-300.0 A197.25034854215087,151.73103734011605,0,0,0,597.2503485421508,-300.0 A197.25034854215087,151.73103734011605,0,0,0,202.74965145784913,-300.0" stroke-width="1" />
<path fill="black" stroke="black" d="M323.408,-337.932759335029 A9.592,10.9,0,0,0,342.592,-337.932759335029 A9.592,10.9,0,0,0,323.408,-337.932759335029" stroke-width="1" />
<path fill="black" stroke="black" d="M457.408,-337.932759335029 A9.592,10.9,0,0,0,476.592,-337.932759335029 A9.592,10.9,0,0,0,457.408,-337.932759335029" stroke-width="1" />
<path fill="black" stroke="black" d="M384.2,-305.26666666666665 L415.8,-305.26666666666665 L400.0,-284.2 Z" stroke-width="1" />
<path fill="black" stroke="black" d="M400.0,-284.2 L400.0,-260.5" stroke-width="2" />
<path fill="none" stroke="black" d="M368.4,-256.5 A31.6,31.6,30,0,0,400.0,-260.5 A31.6,31.6,150,0,0,431.6,-256.5" stroke-width="2" />
<path fill="black" stroke="black" d="M366.0,-274.2 L314.80593120667936,-260.4825906095664" stroke-width="1" />
<path fill="black" stroke="black" d="M360.0,-280.2 L307.2016810011375,-275.5807456343741" stroke-width="1" />
<path fill="black" stroke="black" d="M366.0,-286.2 L313.2016810011375,-290.81925436562585" stroke-width="1" />
<path fill="black" stroke="black" d="M434.0,-274.2 L485.19406879332064,-260.4825906095664" stroke-width="1" />
<path fill="black" stroke="black" d="M440.0,-280.2 L492.7983189988625,-275.5807456343741" stroke-width="1" />
<path fill="black" stroke="black" d="M434.0,-286.2 L486.7983189988625,-290.81925436562585" stroke-width="1" />
</g>
</svg>