<?xml version="1.0" encoding="UTF-8"?>
<svg xmlns="http://www.w3.org/2000/svg" xmlns:xlink="http://www.w3.org/1999/xlink"
     width="800" height="600" viewBox="0 -600 800 600">
<defs>
</defs>
<g>
<path fill="hsl(45, 16%, 61%)" stroke="black" d="M352.8280031412451,-191.54132672469123 L221.44421363315496,-193.60526821946448 A39.2,39.2,0,0,1,197.6137799924038,-236.42010714820236 L265.0931005128474,-349.16983576028923" stroke-width="1" />
<path fill="hsl(45, 16%, 61%)" stroke="black" d="M447.1719968587549,-191.54132672469123 L578.555786366845,-193.60526821946448 A39.2,39.2,0,0,0,602.3862200075962,-236.42010714820236 L534.9068994871526,-349.16983576028923" stroke-width="1" />
<path fill="hsl(45, 16%, 61%)" stroke="black" d="M233.16484183482189,-300.0 A166.83515816517811,179.3926431883636,0,0,0,566.8351581651781,-300.0 A166.83515816517811,179.3926431883636,0,0,0,233.16484183482189,-300.0" stroke-width="1" />
<path fill="black" stroke="black" d="M337.408,-344.8481607970909 A7.592000000000001,14.600000000000001,0,0,0,352.592,-344.8481607970909 A7.592000000000001,14.600000000000001,0,0,0,337.408,-344.8481607970909" stroke-width="1" />
<path fill="black" stroke="black" d="M447.408,-344.8481607970909 A7.592000000000001,14.600000000000001,0,0,0,462.592,-344.8481607970909 A7.592000000000001,14.600000000000001,0,0,0,447.408,-344.8481607970909" stroke-width="1" />
<path fill="black" stroke="black" d="M381.5,-306.1666666666667 L418.5,-306.1666666666667 L400.0,-281.5 Z" stroke-width="1" />
<path fill="black" stroke="black" d="M400.0,-281.5 L400.0,-253.75" stroke-width="2" />
<path fill="none" stroke="black" d="M363.0,-249.75 A37.0,37.0,30,0,0,400.0,-253.75 A37.0,37.0,150,0,0,437.0,-249.75" stroke-width="2" />
<path fill="black" stroke="black" d="M366.0,-271.5 L309.97630207523406,-256.4884953840538" stroke-width="1" />
<path fill="black" stroke="black" d="M360.0,-277.5 L302.2207075106788,-272.44496692063586" stroke-width="1" />
<path fill="black" stroke="black" d="M366.0,-283.5 L308.2207075106788,-288.5550330793642" stroke-width="1" />
<path fill="black" stroke="black" d="M434.0,-271.5 L490.02369792476594,-256.4884953840538" stroke-width="1" />
<path fill="black" stroke="black" d="M440.0,-277.5 L497.7792924893212,-272.4449669206358" stroke-width="1" />
<path fill="black" stroke="black" d="M434.0,-283.5 L491.7792924893212,-288.5550330793642" stroke-width="1" />
</g>
</svg>