<?xml version="1.0" encoding="UTF-8"?>
<svg xmlns="http://www.w3.org/2000/svg" xmlns:xlink="http://www.w3.org/1999/xlink"
     width="800" height="600" viewBox="0 -600 800 600">
<defs>
</defs>
<g>
<path fill="hsl(45, 31%, 71%)" stroke="black" d="M298.13736162841394,-303.72321983301106 L220.47500092497648,-481.06333861601286 A8.8,8.8,0,0,1,226.30747943411336,-487.13477612234635 L406.621461898358,-416.6519574508142" stroke-width="1" />
<path fill="hsl(45, 31%, 71%)" stroke="black" d="M501.86263837158606,-303.72321983301106 L579.5249990750235,-481.06333861601286 A8.8,8.8,0,0,0,573.6925205658866,-487.13477612234635 L393.378538101642,-416.6519574508142" stroke-width="1" />
<path fill="hsl(45, 31%, 71%)" stroke="black" d="M241.44288095452794,-300.0 A158.55711904547206,188.7584750541334,0,0,0,558.5571190454721,-300.0 A158.55711904547206,188.7584750541334,0,0,0,241.44288095452794,-300.0" stroke-width="1" />
<path fill="black" stroke="black" d="M331.16,-347.18961876353336 A8.84,13.0,0,0,0,348.84,-347.18961876353336 A8.84,13.0,0,0,0,331.16,-347.18961876353336" stroke-width="1" />
<path fill="black" stroke="black" d="M451.16,-347.18961876353336 A8.84,13.0,0,0,0,468.84,-347.18961876353336 A8.84,13.0,0,0,0,451.16,-347.18961876353336" stroke-width="1" />
<path fill="black" stroke="black" d="M380.0,-306.6666666666667 L420.0,-306.6666666666667 L400.0,-280.0 Z" stroke-width="1" />
<path fill="black" stroke="black" d="M400.0,-280.0 L400.0,-250.0" stroke-width="2" />
<path fill="none" stroke="black" d="M360.0,-246.0 A40.0,40.0,30,0,0,400.0,-250.0 A40.0,40.0,150,0,0,440.0,-246.0" stroke-width="2" />
<path fill="black" stroke="black" d="M366.0,-270.0 L313.8400053803903,-256.02377156446386" stroke-width="1" />
<path fill="black" stroke="black" d="M360.0,-276.0 L306.20548630304575,-271.2935898916265" stroke-width="1" />
<path fill="black" stroke="black" d="M366.0,-282.0 L312.20548630304575,-286.7064101083735" stroke-width="1" />
<path fill="black" stroke="black" d="M434.0,-270.0 L486.1599946196097,-256.02377156446386" stroke-width="1" />
<path fill="black" stroke="black" d="M440.0,-276.0 L493.79451369695425,-271.2935898916264" stroke-width="1" />
<path fill="black" stroke="black" d="M434.0,-282.0 L487.79451369695425,-286.7064101083735" stroke-width="1" />
</g>
</svg>