<?xml version="1.0" encoding="UTF-8"?>
<svg xmlns="http://www.w3.org/2000/svg" xmlns:xlink="http://www.w3.org/1999/xlink"
     width="800" height="600" viewBox="0 -600 800 600">
<defs>
</defs>
<g>
<path fill="hsl(45, 34%, 51%)" stroke="black" d="M361.5642610113778,-225.61118375343318 L115.1072983432415,-209.24153035463314 A4.800000000000001,4.800000000000001,0,0,1,113.45105090207937,-212.99674599545546 L291.7258272423748,-383.95610994144596" stroke-width="1" />
<path fill="hsl(45, 34%, 51%)" stroke="black" d="M438.4357389886222,-225.61118375343318 L684.8927016567585,-209.24153035463314 A4.800000000000001,4.800000000000001,0,0,0,686.5489490979206,-212.99674599545546 L508.2741727576252,-383.95610994144596" stroke-width="1" />
<path fill="hsl(45, 34%, 51%)" stroke="black" d="M205.03890131618567,-300.0 A194.96109868381433,153.5126761289877,0,0,0,594.9610986838143,-300.0 A194.96109868381433,153.5126761289877,0,0,0,205.03890131618567,-300.0" stroke-width="1" />
<path fill="black" stroke="black" d="M319.228,-338.37816903224694 A5.772,11.1,0,0,0,330.772,-338.37816903224694 A5.772,11.1,0,0,0,319.228,-338.37816903224694" stroke-width="1" />
<path fill="black" stroke="black" d="M469.228,-338.37816903224694 A5.772,11.1,0,0,0,480.772,-338.37816903224694 A5.772,11.1,0,0,0,469.228,-338.37816903224694" stroke-width="1" />
<path fill="black" stroke="black" d="M381.3,-306.23333333333335 L418.7,-306.23333333333335 L400.0,-281.3 Z" stroke-width="1" />
<path fill="black" stroke="black" d="M400.0,-281.3 L400.0,-253.25" stroke-width="2" />
<path fill="none" stroke="black" d="M362.6,-249.25 A37.400000000000006,37.400000000000006,30,0,0,400.0,-253.25 A37.400000000000006,37.400000000000006,150,0,0,437.4,-249.25" stroke-width="2" />
<path fill="black" stroke="black" d="M366.0,-271.3 L337.02222521132796,-263.5354286469244" stroke-width="1" />
<path fill="black" stroke="black" d="M360.0,-277.3 L330.11415905724766,-274.68532771757026" stroke-width="1" />
<path fill="black" stroke="black" d="M366.0,-283.3 L336.11415905724766,-285.91467228242976" stroke-width="1" />
<path fill="black" stroke="black" d="M434.0,-271.3 L462.97777478867204,-263.5354286469244" stroke-width="1" />
<path fill="black" stroke="black" d="M440.0,-277.3 L469.88584094275234,-274.68532771757026" stroke-width="1" />
<path fill="black" stroke="black" d="M434.0,-283.3 L463.88584094275234,-285.91467228242976" stroke-width="1" />
</g>
</svg>