<?xml version="1.0" encoding="UTF-8"?>
<svg xmlns="http://www.w3.org/2000/svg" xmlns:xlink="http://www.w3.org/1999/xlink"
     width="800" height="600" viewBox="0 -600 800 600">
<defs>
</defs>
<g>
<path fill="hsl(45, 18%, 30%)" stroke="black" d="M285.3034061541043,-305.3968552422526 L242.39667667003027,-396.1667432281948 A64.0,64.0,0,0,1,286.25081111472343,-450.90565085283004 L384.1944793268874,-428.8330919358051" stroke-width="1" />
<path fill="hsl(45, 18%, 30%)" stroke="black" d="M514.6965938458957,-305.3968552422526 L557.6033233299697,-396.1667432281948 A64.0,64.0,0,0,0,513.7491888852766,-450.90565085283004 L415.8055206731126,-428.8330919358051" stroke-width="1" />
<path fill="hsl(45, 18%, 30%)" stroke="black" d="M224.4241759239046,-300.0 A175.5758240760954,170.46196512242273,0,0,0,575.5758240760954,-300.0 A175.5758240760954,170.46196512242273,0,0,0,224.4241759239046,-300.0" stroke-width="1" />
<path fill="black" stroke="black" d="M343.04,-342.6154912806057 A6.959999999999999,12.0,0,0,0,356.96,-342.6154912806057 A6.959999999999999,12.0,0,0,0,343.04,-342.6154912806057" stroke-width="1" />
<path fill="black" stroke="black" d="M443.04,-342.6154912806057 A6.959999999999999,12.0,0,0,0,456.96,-342.6154912806057 A6.959999999999999,12.0,0,0,0,443.04,-342.6154912806057" stroke-width="1" />
<path fill="black" stroke="black" d="M384.5,-305.1666666666667 L415.5,-305.1666666666667 L400.0,-284.5 Z" stroke-width="1" />
<path fill="black" stroke="black" d="M400.0,-284.5 L400.0,-261.25" stroke-width="2" />
<path fill="none" stroke="black" d="M369.0,-257.25 A31.0,31.0,30,0,0,400.0,-261.25 A31.0,31.0,150,0,0,431.0,-257.25" stroke-width="2" />
<path fill="black" stroke="black" d="M366.0,-274.5 L333.1585219061717,-265.7001524665143" stroke-width="1" />
<path fill="black" stroke="black" d="M360.0,-280.5 L326.12938026488064,-277.53670474657963" stroke-width="1" />
<path fill="black" stroke="black" d="M366.0,-286.5 L332.12938026488064,-289.46329525342037" stroke-width="1" />
<path fill="black" stroke="black" d="M434.0,-274.5 L466.8414780938283,-265.7001524665143" stroke-width="1" />
<path fill="black" stroke="black" d="M440.0,-280.5 L473.87061973511936,-277.53670474657963" stroke-width="1" />
<path fill="black" stroke="black" d="M434.0,-286.5 L467.87061973511936,-289.46329525342037" stroke-width="1" />
</g>
</svg>