<?xml version="1.0" encoding="UTF-8"?>
<svg xmlns="http://www.w3.org/2000/svg" xmlns:xlink="http://www.w3.org/1999/xlink"
     width="800" height="600" viewBox="0 -600 800 600">
<defs>
</defs>
<g>
<path fill="hsl(45, 50%, 40%)" stroke="black" d="M401.24628375606903,-215.18103730959973 L210.92835992454525,-116.02334538175016 A9.600000000000001,9.600000000000001,0,0,1,203.48898861475743,-122.0433309977717 L260.76615552291,-328.8584323588078" stroke-width="1" />
<path fill="hsl(45, 50%, 40%)" stroke="black" d="M398.75371624393097,-215.18103730959973 L589.0716400754548,-116.02334538175016 A9.600000000000001,9.600000000000001,0,0,0,596.5110113852426,-122.0433309977717 L539.23384447709,-328.8584323588078" stroke-width="1" />
<path fill="hsl(45, 50%, 40%)" stroke="black" d="M234.0642292933799,-300.0 A165.9357707066201,180.36496815936965,0,0,0,565.9357707066201,-300.0 A165.9357707066201,180.36496815936965,0,0,0,234.0642292933799,-300.0" stroke-width="1" />
<path fill="black" stroke="black" d="M340.473,-345.0912420398424 A6.526999999999999,10.7,0,0,0,353.527,-345.0912420398424 A6.526999999999999,10.7,0,0,0,340.473,-345.0912420398424" stroke-width="1" />
<path fill="black" stroke="black" d="M446.473,-345.0912420398424 A6.526999999999999,10.7,0,0,0,459.527,-345.0912420398424 A6.526999999999999,10.7,0,0,0,446.473,-345.0912420398424" stroke-width="1" />
<path fill="black" stroke="black" d="M387.5,-304.1666666666667 L412.5,-304.1666666666667 L400.0,-287.5 Z" stroke-width="1" />
<path fill="black" stroke="black" d="M400.0,-287.5 L400.0,-268.75" stroke-width="2" />
<path fill="none" stroke="black" d="M375.0,-264.75 A25.0,25.0,30,0,0,400.0,-268.75 A25.0,25.0,150,0,0,425.0,-264.75" stroke-width="2" />
<path fill="black" stroke="black" d="M366.0,-277.5 L337.02222521132796,-269.7354286469244" stroke-width="1" />
<path fill="black" stroke="black" d="M360.0,-283.5 L330.11415905724766,-280.88532771757025" stroke-width="1" />
<path fill="black" stroke="black" d="M366.0,-289.5 L336.11415905724766,-292.11467228242975" stroke-width="1" />
<path fill="black" stroke="black" d="M434.0,-277.5 L462.97777478867204,-269.7354286469244" stroke-width="1" />
<path fill="black" stroke="black" d="M440.0,-283.5 L469.88584094275234,-280.88532771757025" stroke-width="1" />
<path fill="black" stroke="black" d="M434.0,-289.5 L463.88584094275234,-292.11467228242975" stroke-width="1" />
</g>
</svg>