<?xml version="1.0" encoding="UTF-8"?>
<svg xmlns="http://www.w3.org/2000/svg" xmlns:xlink="http://www.w3.org/1999/xlink"
     width="800" height="600" viewBox="0 -600 800 600">
<defs>
</defs>
<g>
<path fill="hsl(45, 45%, 68%)" stroke="black" d="M332.8439698354417,-240.6693615775634 L167.6253068070797,-300.1517403726366 A23.200000000000003,23.200000000000003,0,0,1,164.03696655912586,-326.69167722867405 L307.5276107067744,-427.9131919480897" stroke-width="1" />
<path fill="hsl(45, 45%, 68%)" stroke="black" d="M467.1560301645583,-240.6693615775634 L632.3746931929203,-300.1517403726366 A23.200000000000003,23.200000000000003,0,0,0,635.9630334408741,-326.69167722867405 L492.4723892932256,-427.9131919480897" stroke-width="1" />
<path fill="hsl(45, 45%, 68%)" stroke="black" d="M233.16484183482189,-300.0 A166.83515816517811,179.3926431883636,0,0,0,566.8351581651781,-300.0 A166.83515816517811,179.3926431883636,0,0,0,233.16484183482189,-300.0" stroke-width="1" />
<path fill="black" stroke="black" d="M322.476,-344.8481607970909 A13.524,14.7,0,0,0,349.524,-344.8481607970909 A13.524,14.7,0,0,0,322.476,-344.8481607970909" stroke-width="1" />
<path fill="black" stroke="black" d="M450.476,-344.8481607970909 A13.524,14.7,0,0,0,477.524,-344.8481607970909 A13.524,14.7,0,0,0,450.476,-344.8481607970909" stroke-width="1" />
<path fill="black" stroke="black" d="M384.3,-305.23333333333335 L415.7,-305.23333333333335 L400.0,-284.3 Z" stroke-width="1" />
<path fill="black" stroke="black" d="M400.0,-284.3 L400.0,-260.75" stroke-width="2" />
<path fill="none" stroke="black" d="M368.6,-256.75 A31.4,31.4,30,0,0,400.0,-260.75 A31.4,31.4,150,0,0,431.4,-256.75" stroke-width="2" />
<path fill="black" stroke="black" d="M366.0,-274.3 L312.87407955410123,-260.0649525193614" stroke-width="1" />
<path fill="black" stroke="black" d="M360.0,-280.3 L305.209291604954,-275.50643414887884" stroke-width="1" />
<path fill="black" stroke="black" d="M366.0,-286.3 L311.209291604954,-291.0935658511212" stroke-width="1" />
<path fill="black" stroke="black" d="M434.0,-274.3 L487.12592044589877,-260.0649525193614" stroke-width="1" />
<path fill="black" stroke="black" d="M440.0,-280.3 L494.790708395046,-275.5064341488788" stroke-width="1" />
<path fill="black" stroke="black" d="M434.0,-286.3 L488.790708395046,-291.0935658511212" stroke-width="1" />
</g>
</svg>