<?xml version="1.0" encoding="UTF-8"?>
<svg xmlns="http://www.w3.org/2000/svg" xmlns:xlink="http://www.w3.org/1999/xlink"
     width="800" height="600" viewBox="0 -600 800 600">
<defs>
</defs>
<g>
<path fill="hsl(45, 36%, 45%)" stroke="black" d="M316.0612759558858,-315.67404186530433 L228.98456240196265,-479.57952059206326 A15.200000000000001,15.200000000000001,0,0,1,238.1384824129807,-490.4810073066071 L414.6345409166379,-433.06584090718246" stroke-width="1" />
<path fill="hsl(45, 36%, 45%)" stroke="black" d="M483.9387240441142,-315.67404186530433 L571.0154375980374,-479.57952059206326 A15.200000000000001,15.200000000000001,0,0,0,561.8615175870193,-490.4810073066071 L385.3654590833621,-433.06584090718246" stroke-width="1" />
<path fill="hsl(45, 36%, 45%)" stroke="black" d="M234.0642292933799,-300.0 A165.9357707066201,180.36496815936965,0,0,0,565.9357707066201,-300.0 A165.9357707066201,180.36496815936965,0,0,0,234.0642292933799,-300.0" stroke-width="1" />
<path fill="black" stroke="black" d="M325.08,-345.0912420398424 A7.919999999999999,13.2,0,0,0,340.92,-345.0912420398424 A7.919999999999999,13.2,0,0,0,325.08,-345.0912420398424" stroke-width="1" />
<path fill="black" stroke="black" d="M459.08,-345.0912420398424 A7.919999999999999,13.2,0,0,0,474.92,-345.0912420398424 A7.919999999999999,13.2,0,0,0,459.08,-345.0912420398424" stroke-width="1" />
<path fill="black" stroke="black" d="M384.3,-305.23333333333335 L415.7,-305.23333333333335 L400.0,-284.3 Z" stroke-width="1" />
<path fill="black" stroke="black" d="M400.0,-284.3 L400.0,-260.75" stroke-width="2" />
<path fill="none" stroke="black" d="M368.6,-256.75 A31.4,31.4,30,0,0,400.0,-260.75 A31.4,31.4,150,0,0,431.4,-256.75" stroke-width="2" />
<path fill="black" stroke="black" d="M366.0,-274.3 L357.3066675633984,-271.9706285940773" stroke-width="1" />
<path fill="black" stroke="black" d="M360.0,-280.3 L351.0342477171743,-279.51559831527106" stroke-width="1" />
<path fill="black" stroke="black" d="M366.0,-286.3 L357.0342477171743,-287.08440168472896" stroke-width="1" />
<path fill="black" stroke="black" d="M434.0,-274.3 L442.6933324366016,-271.9706285940773" stroke-width="1" />
<path fill="black" stroke="black" d="M440.0,-280.3 L448.9657522828257,-279.51559831527106" stroke-width="1" />
<path fill="black" stroke="black" d="M434.0,-286.3 L442.9657522828257,-287.08440168472896" stroke-width="1" />
</g>
</svg>