<?xml version="1.0" encoding="UTF-8"?>
<svg xmlns="http://www.w3.org/2000/svg" xmlns:xlink="http://www.w3.org/1999/xlink"
     width="800" height="600" viewBox="0 -600 800 600">
<defs>
</defs>
<g>
<path fill="hsl(45, 57%, 44%)" stroke="black" d="M408.0951414695295,-189.28426649944964 L183.46234742754064,-180.61548106610118 A20.8,20.8,0,0,1,170.0033049772411,-202.39902299671107 L278.2671473720246,-399.41166327625626" stroke-width="1" />
<path fill="hsl(45, 57%, 44%)" stroke="black" d="M391.9048585304705,-189.28426649944964 L616.5376525724594,-180.61548106610118 A20.8,20.8,0,0,0,629.9966950227589,-202.39902299671107 L521.7328526279754,-399.41166327625626" stroke-width="1" />
<path fill="hsl(45, 57%, 44%)" stroke="black" d="M250.17760514529212,-300.0 A149.82239485470788,199.76319313961054,0,0,0,549.8223948547079,-300.0 A149.82239485470788,199.76319313961054,0,0,0,250.17760514529212,-300.0" stroke-width="1" />
<path fill="black" stroke="black" d="M324.644,-349.94079828490266 A14.356,14.8,0,0,0,353.356,-349.94079828490266 A14.356,14.8,0,0,0,324.644,-349.94079828490266" stroke-width="1" />
<path fill="black" stroke="black" d="M446.644,-349.94079828490266 A14.356,14.8,0,0,0,475.356,-349.94079828490266 A14.356,14.8,0,0,0,446.644,-349.94079828490266" stroke-width="1" />
<path fill="black" stroke="black" d="M384.5,-305.1666666666667 L415.5,-305.1666666666667 L400.0,-284.5 Z" stroke-width="1" />
<path fill="black" stroke="black" d="M400.0,-284.5 L400.0,-261.25" stroke-width="2" />
<path fill="none" stroke="black" d="M369.0,-257.25 A31.0,31.0,30,0,0,400.0,-261.25 A31.0,31.0,150,0,0,431.0,-257.25" stroke-width="2" />
<path fill="black" stroke="black" d="M366.0,-274.5 L344.7496318216405,-268.80598100774455" stroke-width="1" />
<path fill="black" stroke="black" d="M360.0,-280.5 L338.0837166419816,-278.58257365955154" stroke-width="1" />
<path fill="black" stroke="black" d="M366.0,-286.5 L344.0837166419816,-288.41742634044846" stroke-width="1" />
<path fill="black" stroke="black" d="M434.0,-274.5 L455.2503681783595,-268.80598100774455" stroke-width="1" />
<path fill="black" stroke="black" d="M440.0,-280.5 L461.9162833580184,-278.58257365955154" stroke-width="1" />
<path fill="black" stroke="black" d="M434.0,-286.5 L455.9162833580184,-288.41742634044846" stroke-width="1" />
</g>
</svg>