<?xml version="1.0" encoding="UTF-8"?>
<svg xmlns="http://www.w3.org/2000/svg" xmlns:xlink="http://www.w3.org/1999/xlink"
     width="800" height="600" viewBox="0 -600 800 600">
<defs>
</defs>
<g>
<path fill="hsl(45, 54%, 68%)" stroke="black" d="M347.01104562080275,-237.9493930916237 L207.75268959049015,-336.84201301715046 A64.0,64.0,0,0,1,221.15597957395505,-397.90529720449155 L389.0303597189654,-429.38278901893807" stroke-width="1" />
<path fill="hsl(45, 54%, 68%)" stroke="black" d="M452.98895437919725,-237.9493930916237 L592.2473104095099,-336.84201301715046 A64.0,64.0,0,0,0,578.844020426045,-397.90529720449155 L410.9696402810346,-429.38278901893807" stroke-width="1" />
<path fill="hsl(45, 54%, 68%)" stroke="black" d="M246.2342365804403,-300.0 A153.7657634195597,194.64020686020214,0,0,0,553.7657634195597,-300.0 A153.7657634195597,194.64020686020214,0,0,0,246.2342365804403,-300.0" stroke-width="1" />
<path fill="black" stroke="black" d="M332.196,-348.66005171505054 A9.804,11.4,0,0,0,351.804,-348.66005171505054 A9.804,11.4,0,0,0,332.196,-348.66005171505054" stroke-width="1" />
<path fill="black" stroke="black" d="M448.196,-348.66005171505054 A9.804,11.4,0,0,0,467.804,-348.66005171505054 A9.804,11.4,0,0,0,448.196,-348.66005171505054" stroke-width="1" />
<path fill="black" stroke="black" d="M385.0,-305.0 L415.0,-305.0 L400.0,-285.0 Z" stroke-width="1" />
<path fill="black" stroke="black" d="M400.0,-285.0 L400.0,-262.5" stroke-width="2" />
<path fill="none" stroke="black" d="M370.0,-258.5 A30.0,30.0,30,0,0,400.0,-262.5 A30.0,30.0,150,0,0,430.0,-258.5" stroke-width="2" />
<path fill="black" stroke="black" d="M366.0,-275.0 L321.56741199070285,-263.094323925284" stroke-width="1" />
<path fill="black" stroke="black" d="M360.0,-281.0 L314.1750438877797,-276.9908358336077" stroke-width="1" />
<path fill="black" stroke="black" d="M366.0,-287.0 L320.1750438877797,-291.0091641663923" stroke-width="1" />
<path fill="black" stroke="black" d="M434.0,-275.0 L478.43258800929715,-263.0943239252841" stroke-width="1" />
<path fill="black" stroke="black" d="M440.0,-281.0 L485.8249561122203,-276.9908358336077" stroke-width="1" />
<path fill="black" stroke="black" d="M434.0,-287.0 L479.8249561122203,-291.0091641663923" stroke-width="1" />
</g>
</svg>