<?xml version="1.0" encoding="UTF-8"?>
<svg xmlns="http://www.w3.org/2000/svg" xmlns:xlink="http://www.w3.org/1999/xlink"
     width="800" height="600" viewBox="0 -600 800 600">
<defs>
</defs>
<g>
<path fill="hsl(45, 12%, 54%)" stroke="black" d="M366.79002014906825,-203.44545775548258 L181.91676004075043,-189.47986801060387 A22.400000000000002,22.400000000000002,0,0,1,169.52382246602906,-210.6708544189433 L272.33813163315597,-364.95104702475527" stroke-width="1" />
<path fill="hsl(45, 12%, 54%)" stroke="black" d="M433.20997985093175,-203.44545775548258 L618.0832399592496,-189.47986801060387 A22.400000000000002,22.400000000000002,0,0,0,630.4761775339709,-210.6708544189433 L527.661868366844,-364.95104702475527" stroke-width="1" />
<path fill="hsl(45, 12%, 54%)" stroke="black" d="M226.13715175460862,-300.0 A173.86284824539138,172.14143390632813,0,0,0,573.8628482453914,-300.0 A173.86284824539138,172.14143390632813,0,0,0,226.13715175460862,-300.0" stroke-width="1" />
<path fill="black" stroke="black" d="M317.92,-343.035358476582 A7.08,11.8,0,0,0,332.08,-343.035358476582 A7.08,11.8,0,0,0,317.92,-343.035358476582" stroke-width="1" />
<path fill="black" stroke="black" d="M467.92,-343.035358476582 A7.08,11.8,0,0,0,482.08,-343.035358476582 A7.08,11.8,0,0,0,467.92,-343.035358476582" stroke-width="1" />
<path fill="black" stroke="black" d="M382.2,-305.93333333333334 L417.8,-305.93333333333334 L400.0,-282.2 Z" stroke-width="1" />
<path fill="black" stroke="black" d="M400.0,-282.2 L400.0,-255.5" stroke-width="2" />
<path fill="none" stroke="black" d="M364.4,-251.5 A35.6,35.6,30,0,0,400.0,-255.5 A35.6,35.6,150,0,0,435.6,-251.5" stroke-width="2" />
<path fill="black" stroke="black" d="M366.0,-272.2 L358.2725933896875,-270.12944763917983" stroke-width="1" />
<path fill="black" stroke="black" d="M360.0,-278.2 L352.030442415266,-277.50275405801875" stroke-width="1" />
<path fill="black" stroke="black" d="M366.0,-284.2 L358.030442415266,-284.8972459419813" stroke-width="1" />
<path fill="black" stroke="black" d="M434.0,-272.2 L441.7274066103125,-270.12944763917983" stroke-width="1" />
<path fill="black" stroke="black" d="M440.0,-278.2 L447.969557584734,-277.5027540580187" stroke-width="1" />
<path fill="black" stroke="black" d="M434.0,-284.2 L441.969557584734,-284.8972459419813" stroke-width="1" />
</g>
</svg>