<?xml version="1.0" encoding="UTF-8"?>
<svg xmlns="http://www.w3.org/2000/svg" xmlns:xlink="http://www.w3.org/1999/xlink"
     width="800" height="600" viewBox="0 -600 800 600">
<defs>
</defs>
<g>
<path fill="hsl(45, 14%, 33%)" stroke="black" d="M289.33583364960816,-268.999507463318 L220.18749045495827,-404.36016139729884 A63.2,63.2,0,0,1,262.8243830734831,-466.536611543466 L414.00826649618085,-450.8065958654018" stroke-width="1" />
<path fill="hsl(45, 14%, 33%)" stroke="black" d="M510.66416635039184,-268.999507463318 L579.8125095450417,-404.36016139729884 A63.2,63.2,0,0,0,537.1756169265169,-466.536611543466 L385.99173350381915,-450.8065958654018" stroke-width="1" />
<path fill="hsl(45, 14%, 33%)" stroke="black" d="M228.7387375966182,-300.0 A171.2612624033818,174.75639020753246,0,0,0,571.2612624033818,-300.0 A171.2612624033818,174.75639020753246,0,0,0,228.7387375966182,-300.0" stroke-width="1" />
<path fill="black" stroke="black" d="M329.455,-343.6890975518831 A10.545,11.1,0,0,0,350.545,-343.6890975518831 A10.545,11.1,0,0,0,329.455,-343.6890975518831" stroke-width="1" />
<path fill="black" stroke="black" d="M449.455,-343.6890975518831 A10.545,11.1,0,0,0,470.545,-343.6890975518831 A10.545,11.1,0,0,0,449.455,-343.6890975518831" stroke-width="1" />
<path fill="black" stroke="black" d="M383.6,-305.46666666666664 L416.4,-305.46666666666664 L400.0,-283.6 Z" stroke-width="1" />
<path fill="black" stroke="black" d="M400.0,-283.6 L400.0,-259.0" stroke-width="2" />
<path fill="none" stroke="black" d="M367.2,-255.0 A32.8,32.8,30,0,0,400.0,-259.0 A32.8,32.8,150,0,0,432.8,-255.0" stroke-width="2" />
<path fill="black" stroke="black" d="M366.0,-273.6 L315.77185703296846,-260.14140965466896" stroke-width="1" />
<path fill="black" stroke="black" d="M360.0,-279.6 L308.19787569922926,-275.0679013771218" stroke-width="1" />
<path fill="black" stroke="black" d="M366.0,-285.6 L314.19787569922926,-290.13209862287823" stroke-width="1" />
<path fill="black" stroke="black" d="M434.0,-273.6 L484.22814296703154,-260.14140965466896" stroke-width="1" />
<path fill="black" stroke="black" d="M440.0,-279.6 L491.80212430077074,-275.0679013771218" stroke-width="1" />
<path fill="black" stroke="black" d="M434.0,-285.6 L485.80212430077074,-290.13209862287823" stroke-width="1" />
</g>
</svg>