<?xml version="1.0" encoding="UTF-8"?>
<svg xmlns="http://www.w3.org/2000/svg" xmlns:xlink="http://www.w3.org/1999/xlink"
     width="800" height="600" viewBox="0 -600 800 600">
<defs>
</defs>
<g>
<path fill="hsl(45, 18%, 52%)" stroke="black" d="M272.4145137705775,-292.8929011439184 L226.28489067862495,-466.2607697741648 A27.200000000000003,27.200000000000003,0,0,1,250.36844516125905,-490.26040317724005 L423.574235140992,-443.5258943267489" stroke-width="1" />
<path fill="hsl(45, 18%, 52%)" stroke="black" d="M527.5854862294225,-292.8929011439184 L573.715109321375,-466.2607697741648 A27.200000000000003,27.200000000000003,0,0,0,549.631554838741,-490.26040317724005 L376.425764859008,-443.5258943267489" stroke-width="1" />
<path fill="hsl(45, 18%, 52%)" stroke="black" d="M227.86717338055473,-300.0 A172.13282661944527,173.8715420398437,0,0,0,572.1328266194453,-300.0 A172.13282661944527,173.8715420398437,0,0,0,227.86717338055473,-300.0" stroke-width="1" />
<path fill="black" stroke="black" d="M328.228,-343.4678855099609 A7.771999999999999,13.4,0,0,0,343.772,-343.4678855099609 A7.771999999999999,13.4,0,0,0,328.228,-343.4678855099609" stroke-width="1" />
<path fill="black" stroke="black" d="M456.228,-343.4678855099609 A7.771999999999999,13.4,0,0,0,471.772,-343.4678855099609 A7.771999999999999,13.4,0,0,0,456.228,-343.4678855099609" stroke-width="1" />
<path fill="black" stroke="black" d="M386.8,-304.4 L413.2,-304.4 L400.0,-286.8 Z" stroke-width="1" />
<path fill="black" stroke="black" d="M400.0,-286.8 L400.0,-267.0" stroke-width="2" />
<path fill="none" stroke="black" d="M373.6,-263.0 A26.4,26.4,30,0,0,400.0,-267.0 A26.4,26.4,150,0,0,426.4,-263.0" stroke-width="2" />
<path fill="black" stroke="black" d="M366.0,-276.8 L341.8518543427733,-270.329523872437" stroke-width="1" />
<path fill="black" stroke="black" d="M360.0,-282.8 L335.0951325477064,-280.6211064313086" stroke-width="1" />
<path fill="black" stroke="black" d="M366.0,-288.8 L341.0951325477064,-290.9788935686915" stroke-width="1" />
<path fill="black" stroke="black" d="M434.0,-276.8 L458.1481456572267,-270.329523872437" stroke-width="1" />
<path fill="black" stroke="black" d="M440.0,-282.8 L464.9048674522936,-280.62110643130853" stroke-width="1" />
<path fill="black" stroke="black" d="M434.0,-288.8 L458.9048674522936,-290.9788935686915" stroke-width="1" />
</g>
</svg>