<?xml version="1.0" encoding="UTF-8"?>
<svg xmlns="http://www.w3.org/2000/svg" xmlns:xlink="http://www.w3.org/1999/xlink"
     width="800" height="600" viewBox="0 -600 800 600">
<defs>
</defs>
<g>
<path fill="hsl(45, 2%, 61%)" stroke="black" d="M326.3556652073604,-201.44118479710528 L183.19792639534694,-216.9930920187726 A34.4,34.4,0,0,1,171.4851247527671,-251.399220790559 L275.4185975989312,-351.0678378278976" stroke-width="1" />
<path fill="hsl(45, 2%, 61%)" stroke="black" d="M473.6443347926396,-201.44118479710528 L616.8020736046531,-216.9930920187726 A34.4,34.4,0,0,0,628.5148752472329,-251.399220790559 L524.5814024010688,-351.0678378278976" stroke-width="1" />
<path fill="hsl(45, 2%, 61%)" stroke="black" d="M210.48799510321254,-300.0 A189.51200489678746,157.9266707473229,0,0,0,589.5120048967874,-300.0 A189.51200489678746,157.9266707473229,0,0,0,210.48799510321254,-300.0" stroke-width="1" />
<path fill="black" stroke="black" d="M313.392,-339.48166768683075 A6.608,11.2,0,0,0,326.608,-339.48166768683075 A6.608,11.2,0,0,0,313.392,-339.48166768683075" stroke-width="1" />
<path fill="black" stroke="black" d="M473.392,-339.48166768683075 A6.608,11.2,0,0,0,486.608,-339.48166768683075 A6.608,11.2,0,0,0,473.392,-339.48166768683075" stroke-width="1" />
<path fill="black" stroke="black" d="M384.0,-305.3333333333333 L416.0,-305.3333333333333 L400.0,-284.0 Z" stroke-width="1" />
<path fill="black" stroke="black" d="M400.0,-284.0 L400.0,-260.0" stroke-width="2" />
<path fill="none" stroke="black" d="M368.0,-256.0 A32.0,32.0,30,0,0,400.0,-260.0 A32.0,32.0,150,0,0,432.0,-256.0" stroke-width="2" />
<path fill="black" stroke="black" d="M366.0,-274.0 L329.29481860101544,-264.16487628610423" stroke-width="1" />
<path fill="black" stroke="black" d="M360.0,-280.0 L322.14460147251367,-276.688081775589" stroke-width="1" />
<path fill="black" stroke="black" d="M366.0,-286.0 L328.14460147251367,-289.311918224411" stroke-width="1" />
<path fill="black" stroke="black" d="M434.0,-274.0 L470.70518139898456,-264.16487628610423" stroke-width="1" />
<path fill="black" stroke="black" d="M440.0,-280.0 L477.85539852748633,-276.688081775589" stroke-width="1" />
<path fill="black" stroke="black" d="M434.0,-286.0 L471.85539852748633,-289.311918224411" stroke-width="1" />
</g>
</svg>