<?xml version="1.0" encoding="UTF-8"?>
<svg xmlns="http://www.w3.org/2000/svg" xmlns:xlink="http://www.w3.org/1999/xlink"
     width="800" height="600" viewBox="0 -600 800 600">
<defs>
</defs>
<g>
<path fill="hsl(45, 31%, 48%)" stroke="black" d="M335.35804094653065,-237.24734975750368 L155.93758324273654,-327.4079806191 A48.800000000000004,48.800000000000004,0,0,1,159.6664377313573,-372.95761124419346 L351.3615508665456,-432.737403817331" stroke-width="1" />
<path fill="hsl(45, 31%, 48%)" stroke="black" d="M464.64195905346935,-237.24734975750368 L644.0624167572635,-327.4079806191 A48.800000000000004,48.800000000000004,0,0,0,640.3335622686427,-372.95761124419346 L448.6384491334544,-432.737403817331" stroke-width="1" />
<path fill="hsl(45, 31%, 48%)" stroke="black" d="M214.47816840058957,-300.0 A185.52183159941043,161.3233318255743,0,0,0,585.5218315994105,-300.0 A185.52183159941043,161.3233318255743,0,0,0,214.47816840058957,-300.0" stroke-width="1" />
<path fill="black" stroke="black" d="M317.874,-340.3308329563936 A10.126,12.2,0,0,0,338.126,-340.3308329563936 A10.126,12.2,0,0,0,317.874,-340.3308329563936" stroke-width="1" />
<path fill="black" stroke="black" d="M461.874,-340.3308329563936 A10.126,12.2,0,0,0,482.126,-340.3308329563936 A10.126,12.2,0,0,0,461.874,-340.3308329563936" stroke-width="1" />
<path fill="black" stroke="black" d="M387.1,-304.3 L412.9,-304.3 L400.0,-287.1 Z" stroke-width="1" />
<path fill="black" stroke="black" d="M400.0,-287.1 L400.0,-267.75" stroke-width="2" />
<path fill="none" stroke="black" d="M374.2,-263.75 A25.8,25.8,30,0,0,400.0,-267.75 A25.8,25.8,150,0,0,425.8,-263.75" stroke-width="2" />
<path fill="black" stroke="black" d="M366.0,-277.1 L364.06814834742187,-276.582361909795" stroke-width="1" />
<path fill="black" stroke="black" d="M360.0,-283.1 L358.0076106038165,-282.9256885145047" stroke-width="1" />
<path fill="black" stroke="black" d="M366.0,-289.1 L364.0076106038165,-289.27431148549533" stroke-width="1" />
<path fill="black" stroke="black" d="M434.0,-277.1 L435.93185165257813,-276.582361909795" stroke-width="1" />
<path fill="black" stroke="black" d="M440.0,-283.1 L441.9923893961835,-282.9256885145047" stroke-width="1" />
<path fill="black" stroke="black" d="M434.0,-289.1 L435.9923893961835,-289.27431148549533" stroke-width="1" />
</g>
</svg>