<?xml version="1.0" encoding="UTF-8"?>
<svg xmlns="http://www.w3.org/2000/svg" xmlns:xlink="http://www.w3.org/1999/xlink"
     width="800" height="600" viewBox="0 -600 800 600">
<defs>
</defs>
<g>
<path fill="hsl(45, 20%, 30%)" stroke="black" d="M346.48050889924014,-223.4144908717917 L213.46250917552766,-210.95769555748888 A56.800000000000004,56.800000000000004,0,0,1,189.95688183567108,-257.390199944344 L278.7445743395973,-357.2185809781374" stroke-width="1" />
<path fill="hsl(45, 20%, 30%)" stroke="black" d="M453.51949110075986,-223.4144908717917 L586.5374908244723,-210.95769555748888 A56.800000000000004,56.800000000000004,0,0,0,610.0431181643289,-257.390199944344 L521.2554256604027,-357.2185809781374" stroke-width="1" />
<path fill="hsl(45, 20%, 30%)" stroke="black" d="M215.28654623985832,-300.0 A184.71345376014168,162.02934540363304,0,0,0,584.7134537601416,-300.0 A184.71345376014168,162.02934540363304,0,0,0,215.28654623985832,-300.0" stroke-width="1" />
<path fill="black" stroke="black" d="M311.9,-340.50733635090825 A11.100000000000001,14.8,0,0,0,334.1,-340.50733635090825 A11.100000000000001,14.8,0,0,0,311.9,-340.50733635090825" stroke-width="1" />
<path fill="black" stroke="black" d="M465.9,-340.50733635090825 A11.100000000000001,14.8,0,0,0,488.1,-340.50733635090825 A11.100000000000001,14.8,0,0,0,465.9,-340.50733635090825" stroke-width="1" />
<path fill="black" stroke="black" d="M389.3,-303.56666666666666 L410.7,-303.56666666666666 L400.0,-289.3 Z" stroke-width="1" />
<path fill="black" stroke="black" d="M400.0,-289.3 L400.0,-273.25" stroke-width="2" />
<path fill="none" stroke="black" d="M378.6,-269.25 A21.4,21.4,30,0,0,400.0,-273.25 A21.4,21.4,150,0,0,421.4,-269.25" stroke-width="2" />
<path fill="black" stroke="black" d="M366.0,-279.3 L363.1022225211328,-278.52354286469244" stroke-width="1" />
<path fill="black" stroke="black" d="M360.0,-285.3 L357.0114159057248,-285.03853277175705" stroke-width="1" />
<path fill="black" stroke="black" d="M366.0,-291.3 L363.0114159057248,-291.561467228243" stroke-width="1" />
<path fill="black" stroke="black" d="M434.0,-279.3 L436.8977774788672,-278.52354286469244" stroke-width="1" />
<path fill="black" stroke="black" d="M440.0,-285.3 L442.9885840942752,-285.03853277175705" stroke-width="1" />
<path fill="black" stroke="black" d="M434.0,-291.3 L436.9885840942752,-291.561467228243" stroke-width="1" />
</g>
</svg>