<?xml version="1.0" encoding="UTF-8"?>
<svg xmlns="http://www.w3.org/2000/svg" xmlns:xlink="http://www.w3.org/1999/xlink"
     width="800" height="600" viewBox="0 -600 800 600">
<defs>
</defs>
<g>
<path fill="hsl(45, 31%, 41%)" stroke="black" d="M297.1409656643484,-277.28769739400474 L201.05719785069368,-497.2147524889423 A1.6,1.6,0,0,1,202.1751277346599,-498.482795034381 L432.41048162427376,-430.72084539209067" stroke-width="1" />
<path fill="hsl(45, 31%, 41%)" stroke="black" d="M502.8590343356516,-277.28769739400474 L598.9428021493063,-497.2147524889423 A1.6,1.6,0,0,0,597.8248722653401,-498.482795034381 L367.58951837572624,-430.72084539209067" stroke-width="1" />
<path fill="hsl(45, 31%, 41%)" stroke="black" d="M212.87188880341898,-300.0 A187.12811119658102,159.93855657827442,0,0,0,587.128111196581,-300.0 A187.12811119658102,159.93855657827442,0,0,0,212.87188880341898,-300.0" stroke-width="1" />
<path fill="black" stroke="black" d="M333.93,-339.98463914456863 A7.069999999999999,10.1,0,0,0,348.07,-339.98463914456863 A7.069999999999999,10.1,0,0,0,333.93,-339.98463914456863" stroke-width="1" />
<path fill="black" stroke="black" d="M451.93,-339.98463914456863 A7.069999999999999,10.1,0,0,0,466.07,-339.98463914456863 A7.069999999999999,10.1,0,0,0,451.93,-339.98463914456863" stroke-width="1" />
<path fill="black" stroke="black" d="M381.7,-306.1 L418.3,-306.1 L400.0,-281.7 Z" stroke-width="1" />
<path fill="black" stroke="black" d="M400.0,-281.7 L400.0,-254.25" stroke-width="2" />
<path fill="none" stroke="black" d="M363.4,-250.25 A36.6,36.6,30,0,0,400.0,-254.25 A36.6,36.6,150,0,0,436.6,-250.25" stroke-width="2" />
<path fill="black" stroke="black" d="M366.0,-271.7 L341.8518543427733,-265.22952387243697" stroke-width="1" />
<path fill="black" stroke="black" d="M360.0,-277.7 L335.0951325477064,-275.52110643130857" stroke-width="1" />
<path fill="black" stroke="black" d="M366.0,-283.7 L341.0951325477064,-285.87889356869147" stroke-width="1" />
<path fill="black" stroke="black" d="M434.0,-271.7 L458.1481456572267,-265.22952387243697" stroke-width="1" />
<path fill="black" stroke="black" d="M440.0,-277.7 L464.9048674522936,-275.5211064313085" stroke-width="1" />
<path fill="black" stroke="black" d="M434.0,-283.7 L458.9048674522936,-285.87889356869147" stroke-width="1" />
</g>
</svg>