<?xml version="1.0" encoding="UTF-8"?>
<svg xmlns="http://www.w3.org/2000/svg" xmlns:xlink="http://www.w3.org/1999/xlink"
     width="800" height="600" viewBox="0 -600 800 600">
<defs>
</defs>
<g>
<path fill="hsl(45, 39%, 69%)" stroke="black" d="M288.1559511843376,-280.2777246230554 L216.56220283703874,-384.4472748648782 A60.800000000000004,60.800000000000004,0,0,1,249.16543990665696,-439.7965880086143 L374.9835193802684,-427.681684890058" stroke-width="1" />
<path fill="hsl(45, 39%, 69%)" stroke="black" d="M511.8440488156624,-280.2777246230554 L583.4377971629613,-384.4472748648782 A60.800000000000004,60.800000000000004,0,0,0,550.834560093343,-439.7965880086143 L425.0164806197316,-427.681684890058" stroke-width="1" />
<path fill="hsl(45, 39%, 69%)" stroke="black" d="M211.27928041680212,-300.0 A188.72071958319788,158.58883998588055,0,0,0,588.7207195831979,-300.0 A188.72071958319788,158.58883998588055,0,0,0,211.27928041680212,-300.0" stroke-width="1" />
<path fill="black" stroke="black" d="M327.5,-339.6472099964701 A10.5,10.5,0,0,0,348.5,-339.6472099964701 A10.5,10.5,0,0,0,327.5,-339.6472099964701" stroke-width="1" />
<path fill="black" stroke="black" d="M451.5,-339.6472099964701 A10.5,10.5,0,0,0,472.5,-339.6472099964701 A10.5,10.5,0,0,0,451.5,-339.6472099964701" stroke-width="1" />
<path fill="black" stroke="black" d="M384.0,-305.3333333333333 L416.0,-305.3333333333333 L400.0,-284.0 Z" stroke-width="1" />
<path fill="black" stroke="black" d="M400.0,-284.0 L400.0,-260.0" stroke-width="2" />
<path fill="none" stroke="black" d="M368.0,-256.0 A32.0,32.0,30,0,0,400.0,-260.0 A32.0,32.0,150,0,0,432.0,-256.0" stroke-width="2" />
<path fill="black" stroke="black" d="M366.0,-274.0 L314.80593120667936,-260.2825906095664" stroke-width="1" />
<path fill="black" stroke="black" d="M360.0,-280.0 L307.2016810011375,-275.38074563437414" stroke-width="1" />
<path fill="black" stroke="black" d="M366.0,-286.0 L313.2016810011375,-290.61925436562586" stroke-width="1" />
<path fill="black" stroke="black" d="M434.0,-274.0 L485.19406879332064,-260.2825906095664" stroke-width="1" />
<path fill="black" stroke="black" d="M440.0,-280.0 L492.7983189988625,-275.38074563437414" stroke-width="1" />
<path fill="black" stroke="black" d="M434.0,-286.0 L486.7983189988625,-290.61925436562586" stroke-width="1" />
</g>
</svg>