<?xml version="1.0" encoding="UTF-8"?>
<svg xmlns="http://www.w3.org/2000/svg" xmlns:xlink="http://www.w3.org/1999/xlink"
     width="800" height="600" viewBox="0 -600 800 600">
<defs>
</defs>
<g>
<path fill="hsl(45, 27%, 64%)" stroke="black" d="M385.9302708607471,-212.1881613111282 L174.2710385886644,-175.59021882807951 A20.0,20.0,0,0,1,163.322013486586,-192.25217847380935 L280.9072220816107,-372.0096782329697" stroke-width="1" />
<path fill="hsl(45, 27%, 64%)" stroke="black" d="M414.0697291392529,-212.1881613111282 L625.7289614113356,-175.59021882807951 A20.0,20.0,0,0,0,636.677986513414,-192.25217847380935 L519.0927779183893,-372.0096782329697" stroke-width="1" />
<path fill="hsl(45, 27%, 64%)" stroke="black" d="M227.86717338055473,-300.0 A172.13282661944527,173.8715420398437,0,0,0,572.1328266194453,-300.0 A172.13282661944527,173.8715420398437,0,0,0,227.86717338055473,-300.0" stroke-width="1" />
<path fill="black" stroke="black" d="M321.784,-343.4678855099609 A6.216,11.1,0,0,0,334.216,-343.4678855099609 A6.216,11.1,0,0,0,321.784,-343.4678855099609" stroke-width="1" />
<path fill="black" stroke="black" d="M465.784,-343.4678855099609 A6.216,11.1,0,0,0,478.216,-343.4678855099609 A6.216,11.1,0,0,0,465.784,-343.4678855099609" stroke-width="1" />
<path fill="black" stroke="black" d="M381.4,-306.2 L418.6,-306.2 L400.0,-281.4 Z" stroke-width="1" />
<path fill="black" stroke="black" d="M400.0,-281.4 L400.0,-253.5" stroke-width="2" />
<path fill="none" stroke="black" d="M362.8,-249.5 A37.2,37.2,30,0,0,400.0,-253.5 A37.2,37.2,150,0,0,437.2,-249.5" stroke-width="2" />
<path fill="black" stroke="black" d="M366.0,-271.4 L315.77185703296846,-257.9414096546689" stroke-width="1" />
<path fill="black" stroke="black" d="M360.0,-277.4 L308.19787569922926,-272.86790137712177" stroke-width="1" />
<path fill="black" stroke="black" d="M366.0,-283.4 L314.19787569922926,-287.9320986228782" stroke-width="1" />
<path fill="black" stroke="black" d="M434.0,-271.4 L484.22814296703154,-257.9414096546689" stroke-width="1" />
<path fill="black" stroke="black" d="M440.0,-277.4 L491.80212430077074,-272.86790137712177" stroke-width="1" />
<path fill="black" stroke="black" d="M434.0,-283.4 L485.80212430077074,-287.9320986228782" stroke-width="1" />
</g>
</svg>