<?xml version="1.0" encoding="UTF-8"?>
<svg xmlns="http://www.w3.org/2000/svg" xmlns:xlink="http://www.w3.org/1999/xlink"
     width="800" height="600" viewBox="0 -600 800 600">
<defs>
</defs>
<g>
<path fill="hsl(45, 49%, 67%)" stroke="black" d="M329.1884702489706,-248.4865877444297 L216.73674279577756,-346.2393830640153 A56.800000000000004,56.800000000000004,0,0,1,231.7330962664846,-411.19572632462035 L375.65604438355575,-449.7597640448959" stroke-width="1" />
<path fill="hsl(45, 49%, 67%)" stroke="black" d="M470.8115297510294,-248.4865877444297 L583.2632572042224,-346.2393830640153 A56.800000000000004,56.800000000000004,0,0,0,568.2669037335154,-411.19572632462035 L424.34395561644425,-449.7597640448959" stroke-width="1" />
<path fill="hsl(45, 49%, 67%)" stroke="black" d="M250.17760514529212,-300.0 A149.82239485470788,199.76319313961054,0,0,0,549.8223948547079,-300.0 A149.82239485470788,199.76319313961054,0,0,0,250.17760514529212,-300.0" stroke-width="1" />
<path fill="black" stroke="black" d="M338.1,-349.94079828490266 A11.9,11.9,0,0,0,361.9,-349.94079828490266 A11.9,11.9,0,0,0,338.1,-349.94079828490266" stroke-width="1" />
<path fill="black" stroke="black" d="M438.1,-349.94079828490266 A11.9,11.9,0,0,0,461.9,-349.94079828490266 A11.9,11.9,0,0,0,438.1,-349.94079828490266" stroke-width="1" />
<path fill="black" stroke="black" d="M380.0,-306.6666666666667 L420.0,-306.6666666666667 L400.0,-280.0 Z" stroke-width="1" />
<path fill="black" stroke="black" d="M400.0,-280.0 L400.0,-250.0" stroke-width="2" />
<path fill="none" stroke="black" d="M360.0,-246.0 A40.0,40.0,30,0,0,400.0,-250.0 A40.0,40.0,150,0,0,440.0,-246.0" stroke-width="2" />
<path fill="black" stroke="black" d="M366.0,-270.0 L364.06814834742187,-269.482361909795" stroke-width="1" />
<path fill="black" stroke="black" d="M360.0,-276.0 L358.0076106038165,-275.8256885145047" stroke-width="1" />
<path fill="black" stroke="black" d="M366.0,-282.0 L364.0076106038165,-282.1743114854953" stroke-width="1" />
<path fill="black" stroke="black" d="M434.0,-270.0 L435.93185165257813,-269.482361909795" stroke-width="1" />
<path fill="black" stroke="black" d="M440.0,-276.0 L441.9923893961835,-275.8256885145047" stroke-width="1" />
<path fill="black" stroke="black" d="M434.0,-282.0 L435.9923893961835,-282.1743114854953" stroke-width="1" />
</g>
</svg>