<?xml version="1.0" encoding="UTF-8"?>
<svg xmlns="http://www.w3.org/2000/svg" xmlns:xlink="http://www.w3.org/1999/xlink"
     width="800" height="600" viewBox="0 -600 800 600">
<defs>
</defs>
<g>
<path fill="hsl(45, 26%, 61%)" stroke="black" d="M368.88783343227044,-215.37361670600473 L169.44143611355275,-167.12245509735325 A4.800000000000001,4.800000000000001,0,0,1,167.17018342970357,-170.5409652028732 L288.9397389607832,-335.7051724203068" stroke-width="1" />
<path fill="hsl(45, 26%, 61%)" stroke="black" d="M431.11216656772956,-215.37361670600473 L630.5585638864472,-167.12245509735325 A4.800000000000001,4.800000000000001,0,0,0,632.8298165702964,-170.5409652028732 L511.0602610392168,-335.7051724203068" stroke-width="1" />
<path fill="hsl(45, 26%, 61%)" stroke="black" d="M221.04740851275722,-300.0 A178.95259148724278,167.2454126048998,0,0,0,578.9525914872428,-300.0 A178.95259148724278,167.2454126048998,0,0,0,221.04740851275722,-300.0" stroke-width="1" />
<path fill="black" stroke="black" d="M309.92,-341.8113531512249 A10.08,10.5,0,0,0,330.08,-341.8113531512249 A10.08,10.5,0,0,0,309.92,-341.8113531512249" stroke-width="1" />
<path fill="black" stroke="black" d="M469.92,-341.8113531512249 A10.08,10.5,0,0,0,490.08,-341.8113531512249 A10.08,10.5,0,0,0,469.92,-341.8113531512249" stroke-width="1" />
<path fill="black" stroke="black" d="M387.1,-304.3 L412.9,-304.3 L400.0,-287.1 Z" stroke-width="1" />
<path fill="black" stroke="black" d="M400.0,-287.1 L400.0,-267.75" stroke-width="2" />
<path fill="none" stroke="black" d="M374.2,-263.75 A25.8,25.8,30,0,0,400.0,-267.75 A25.8,25.8,150,0,0,425.8,-263.75" stroke-width="2" />
<path fill="black" stroke="black" d="M366.0,-277.1 L355.37481591082025,-274.2529905038723" stroke-width="1" />
<path fill="black" stroke="black" d="M360.0,-283.1 L349.0418583209908,-282.14128682977577" stroke-width="1" />
<path fill="black" stroke="black" d="M366.0,-289.1 L355.0418583209908,-290.0587131702243" stroke-width="1" />
<path fill="black" stroke="black" d="M434.0,-277.1 L444.62518408917975,-274.2529905038723" stroke-width="1" />
<path fill="black" stroke="black" d="M440.0,-283.1 L450.9581416790092,-282.14128682977577" stroke-width="1" />
<path fill="black" stroke="black" d="M434.0,-289.1 L444.9581416790092,-290.0587131702243" stroke-width="1" />
</g>
</svg>