<?xml version="1.0" encoding="UTF-8"?>
<svg xmlns="http://www.w3.org/2000/svg" xmlns:xlink="http://www.w3.org/1999/xlink"
     width="800" height="600" viewBox="0 -600 800 600">
<defs>
</defs>
<g>
<path fill="hsl(45, 9%, 42%)" stroke="black" d="M414.1084250121151,-185.1459185504551 L262.2927351654023,-127.47654785537364 A40.800000000000004,40.800000000000004,0,0,1,231.38882465287338,-157.52928765467018 L284.79676808321926,-310.8960101812371" stroke-width="1" />
<path fill="hsl(45, 9%, 42%)" stroke="black" d="M385.8915749878849,-185.1459185504551 L537.7072648345977,-127.47654785537364 A40.800000000000004,40.800000000000004,0,0,0,568.6111753471266,-157.52928765467018 L515.2032319167807,-310.8960101812371" stroke-width="1" />
<path fill="hsl(45, 9%, 42%)" stroke="black" d="M200.48666711219522,-300.0 A199.51333288780478,150.01002472767274,0,0,0,599.5133328878048,-300.0 A199.51333288780478,150.01002472767274,0,0,0,200.48666711219522,-300.0" stroke-width="1" />
<path fill="black" stroke="black" d="M319.352,-337.5025061819182 A12.648,13.6,0,0,0,344.648,-337.5025061819182 A12.648,13.6,0,0,0,319.352,-337.5025061819182" stroke-width="1" />
<path fill="black" stroke="black" d="M455.352,-337.5025061819182 A12.648,13.6,0,0,0,480.648,-337.5025061819182 A12.648,13.6,0,0,0,455.352,-337.5025061819182" stroke-width="1" />
<path fill="black" stroke="black" d="M380.5,-306.5 L419.5,-306.5 L400.0,-280.5 Z" stroke-width="1" />
<path fill="black" stroke="black" d="M400.0,-280.5 L400.0,-251.25" stroke-width="2" />
<path fill="none" stroke="black" d="M361.0,-247.25 A39.0,39.0,30,0,0,400.0,-251.25 A39.0,39.0,150,0,0,439.0,-247.25" stroke-width="2" />
<path fill="black" stroke="black" d="M366.0,-270.5 L348.61333512679676,-265.8412571881546" stroke-width="1" />
<path fill="black" stroke="black" d="M360.0,-276.5 L342.06849543434856,-274.93119663054216" stroke-width="1" />
<path fill="black" stroke="black" d="M366.0,-282.5 L348.06849543434856,-284.06880336945784" stroke-width="1" />
<path fill="black" stroke="black" d="M434.0,-270.5 L451.38666487320324,-265.8412571881546" stroke-width="1" />
<path fill="black" stroke="black" d="M440.0,-276.5 L457.93150456565144,-274.93119663054216" stroke-width="1" />
<path fill="black" stroke="black" d="M434.0,-282.5 L451.93150456565144,-284.06880336945784" stroke-width="1" />
</g>
</svg>