<?xml version="1.0" encoding="UTF-8"?>
<svg xmlns="http://www.w3.org/2000/svg" xmlns:xlink="http://www.w3.org/1999/xlink"
     width="800" height="600" viewBox="0 -600 800 600">
<defs>
</defs>
<g>
<path fill="hsl(45, 35%, 42%)" stroke="black" d="M301.71764279735555,-259.4636646932112 L187.08824780441148,-342.5940550661164 A41.6,41.6,0,0,1,193.52260874348508,-391.79965533625307 L325.6732635243677,-442.65989954510417" stroke-width="1" />
<path fill="hsl(45, 35%, 42%)" stroke="black" d="M498.28235720264445,-259.4636646932112 L612.9117521955885,-342.5940550661164 A41.6,41.6,0,0,0,606.4773912565149,-391.79965533625307 L474.3267364756323,-442.65989954510417" stroke-width="1" />
<path fill="hsl(45, 35%, 42%)" stroke="black" d="M221.8855985609249,-300.0 A178.1144014390751,168.0324541878067,0,0,0,578.1144014390751,-300.0 A178.1144014390751,168.0324541878067,0,0,0,221.8855985609249,-300.0" stroke-width="1" />
<path fill="black" stroke="black" d="M317.474,-342.0081135469517 A8.526,14.7,0,0,0,334.526,-342.0081135469517 A8.526,14.7,0,0,0,317.474,-342.0081135469517" stroke-width="1" />
<path fill="black" stroke="black" d="M465.474,-342.0081135469517 A8.526,14.7,0,0,0,482.526,-342.0081135469517 A8.526,14.7,0,0,0,465.474,-342.0081135469517" stroke-width="1" />
<path fill="black" stroke="black" d="M381.0,-306.3333333333333 L419.0,-306.3333333333333 L400.0,-281.0 Z" stroke-width="1" />
<path fill="black" stroke="black" d="M400.0,-281.0 L400.0,-252.5" stroke-width="2" />
<path fill="none" stroke="black" d="M362.0,-248.5 A38.0,38.0,30,0,0,400.0,-252.5 A38.0,38.0,150,0,0,438.0,-248.5" stroke-width="2" />
<path fill="black" stroke="black" d="M366.0,-271.0 L327.36296694843725,-260.64723819589915" stroke-width="1" />
<path fill="black" stroke="black" d="M360.0,-277.0 L320.15221207633016,-273.5137702900937" stroke-width="1" />
<path fill="black" stroke="black" d="M366.0,-283.0 L326.15221207633016,-286.48622970990635" stroke-width="1" />
<path fill="black" stroke="black" d="M434.0,-271.0 L472.63703305156275,-260.64723819589915" stroke-width="1" />
<path fill="black" stroke="black" d="M440.0,-277.0 L479.84778792366984,-273.51377029009365" stroke-width="1" />
<path fill="black" stroke="black" d="M434.0,-283.0 L473.84778792366984,-286.48622970990635" stroke-width="1" />
</g>
</svg>