<?xml version="1.0" encoding="UTF-8"?>
<svg xmlns="http://www.w3.org/2000/svg" xmlns:xlink="http://www.w3.org/1999/xlink"
     width="800" height="600" viewBox="0 -600 800 600">
<defs>
</defs>
<g>
<path fill="hsl(45, 10%, 45%)" stroke="black" d="M360.92861163241025,-186.65214756571874 L168.89572328738484,-198.531953703321 A43.2,43.2,0,0,1,152.87473873793044,-240.3552940409064 L287.82545250304804,-377.49050051351617" stroke-width="1" />
<path fill="hsl(45, 10%, 45%)" stroke="black" d="M439.07138836758975,-186.65214756571874 L631.1042767126152,-198.531953703321 A43.2,43.2,0,0,0,647.1252612620696,-240.3552940409064 L512.174547496952,-377.49050051351617" stroke-width="1" />
<path fill="hsl(45, 10%, 45%)" stroke="black" d="M204.27284296756363,-300.0 A195.72715703243637,152.91184143159091,0,0,0,595.7271570324364,-300.0 A195.72715703243637,152.91184143159091,0,0,0,204.27284296756363,-300.0" stroke-width="1" />
<path fill="black" stroke="black" d="M317.13,-338.2279603578977 A12.870000000000001,14.3,0,0,0,342.87,-338.2279603578977 A12.870000000000001,14.3,0,0,0,317.13,-338.2279603578977" stroke-width="1" />
<path fill="black" stroke="black" d="M457.13,-338.2279603578977 A12.870000000000001,14.3,0,0,0,482.87,-338.2279603578977 A12.870000000000001,14.3,0,0,0,457.13,-338.2279603578977" stroke-width="1" />
<path fill="black" stroke="black" d="M380.0,-306.6666666666667 L420.0,-306.6666666666667 L400.0,-280.0 Z" stroke-width="1" />
<path fill="black" stroke="black" d="M400.0,-280.0 L400.0,-250.0" stroke-width="2" />
<path fill="none" stroke="black" d="M360.0,-246.0 A40.0,40.0,30,0,0,400.0,-250.0 A40.0,40.0,150,0,0,440.0,-246.0" stroke-width="2" />
<path fill="black" stroke="black" d="M366.0,-270.0 L337.988151037617,-262.4942476920269" stroke-width="1" />
<path fill="black" stroke="black" d="M360.0,-276.0 L331.11035375533936,-273.4724834603179" stroke-width="1" />
<path fill="black" stroke="black" d="M366.0,-282.0 L337.11035375533936,-284.5275165396821" stroke-width="1" />
<path fill="black" stroke="black" d="M434.0,-270.0 L462.011848962383,-262.4942476920269" stroke-width="1" />
<path fill="black" stroke="black" d="M440.0,-276.0 L468.88964624466064,-273.4724834603179" stroke-width="1" />
<path fill="black" stroke="black" d="M434.0,-282.0 L462.88964624466064,-284.5275165396821" stroke-width="1" />
</g>
</svg>