<?xml version="1.0" encoding="UTF-8"?>
<svg xmlns="http://www.w3.org/2000/svg" xmlns:xlink="http://www.w3.org/1999/xlink"
     width="800" height="600" viewBox="0 -600 800 600">
<defs>
</defs>
<g>
<path fill="hsl(45, 55%, 63%)" stroke="black" d="M292.85326936953413,-290.2969491202599 L217.87973825019844,-446.42897540410087 A30.400000000000002,30.400000000000002,0,0,1,238.07499773672805,-470.62511184253157 L405.0963957788774,-424.77652848332724" stroke-width="1" />
<path fill="hsl(45, 55%, 63%)" stroke="black" d="M507.14673063046587,-290.2969491202599 L582.1202617498016,-446.42897540410087 A30.400000000000002,30.400000000000002,0,0,0,561.925002263272,-470.62511184253157 L394.9036042211226,-424.77652848332724" stroke-width="1" />
<path fill="hsl(45, 55%, 63%)" stroke="black" d="M231.38045783480493,-300.0 A168.61954216519507,177.49425491073166,0,0,0,568.6195421651951,-300.0 A168.61954216519507,177.49425491073166,0,0,0,231.38045783480493,-300.0" stroke-width="1" />
<path fill="black" stroke="black" d="M325.93,-344.3735637276829 A11.07,13.5,0,0,0,348.07,-344.3735637276829 A11.07,13.5,0,0,0,325.93,-344.3735637276829" stroke-width="1" />
<path fill="black" stroke="black" d="M451.93,-344.3735637276829 A11.07,13.5,0,0,0,474.07,-344.3735637276829 A11.07,13.5,0,0,0,451.93,-344.3735637276829" stroke-width="1" />
<path fill="black" stroke="black" d="M389.8,-303.4 L410.2,-303.4 L400.0,-289.8 Z" stroke-width="1" />
<path fill="black" stroke="black" d="M400.0,-289.8 L400.0,-274.5" stroke-width="2" />
<path fill="none" stroke="black" d="M379.6,-270.5 A20.4,20.4,30,0,0,400.0,-274.5 A20.4,20.4,150,0,0,420.4,-270.5" stroke-width="2" />
<path fill="black" stroke="black" d="M366.0,-279.8 L353.4429642582421,-276.43535241366726" stroke-width="1" />
<path fill="black" stroke="black" d="M360.0,-285.8 L347.0494689248073,-284.66697534428044" stroke-width="1" />
<path fill="black" stroke="black" d="M366.0,-291.8 L353.0494689248073,-292.9330246557196" stroke-width="1" />
<path fill="black" stroke="black" d="M434.0,-279.8 L446.5570357417579,-276.43535241366726" stroke-width="1" />
<path fill="black" stroke="black" d="M440.0,-285.8 L452.9505310751927,-284.66697534428044" stroke-width="1" />
<path fill="black" stroke="black" d="M434.0,-291.8 L446.9505310751927,-292.9330246557196" stroke-width="1" />
</g>
</svg>