<?xml version="1.0" encoding="UTF-8"?>
<svg xmlns="http://www.w3.org/2000/svg" xmlns:xlink="http://www.w3.org/1999/xlink"
     width="800" height="600" viewBox="0 -600 800 600">
<defs>
</defs>
<g>
<path fill="hsl(45, 41%, 61%)" stroke="black" d="M301.13569507720786,-308.7832553930285 L214.22792518197855,-448.5695191382116 A14.4,14.4,0,0,1,222.49599331070294,-460.9998368587256 L385.0106528719343,-434.8819229355755" stroke-width="1" />
<path fill="hsl(45, 41%, 61%)" stroke="black" d="M498.86430492279214,-308.7832553930285 L585.7720748180215,-448.5695191382116 A14.4,14.4,0,0,0,577.5040066892971,-460.9998368587256 L414.9893471280657,-434.8819229355755" stroke-width="1" />
<path fill="hsl(45, 41%, 61%)" stroke="black" d="M232.27027693339502,-300.0 A167.72972306660498,178.43587560277126,0,0,0,567.729723066605,-300.0 A167.72972306660498,178.43587560277126,0,0,0,232.27027693339502,-300.0" stroke-width="1" />
<path fill="black" stroke="black" d="M329.615,-344.60896890069284 A11.385,11.5,0,0,0,352.385,-344.60896890069284 A11.385,11.5,0,0,0,329.615,-344.60896890069284" stroke-width="1" />
<path fill="black" stroke="black" d="M447.615,-344.60896890069284 A11.385,11.5,0,0,0,470.385,-344.60896890069284 A11.385,11.5,0,0,0,447.615,-344.60896890069284" stroke-width="1" />
<path fill="black" stroke="black" d="M388.6,-303.8 L411.4,-303.8 L400.0,-288.6 Z" stroke-width="1" />
<path fill="black" stroke="black" d="M400.0,-288.6 L400.0,-271.5" stroke-width="2" />
<path fill="none" stroke="black" d="M377.2,-267.5 A22.8,22.8,30,0,0,400.0,-271.5 A22.8,22.8,150,0,0,422.8,-267.5" stroke-width="2" />
<path fill="black" stroke="black" d="M366.0,-278.6 L349.57926095308585,-274.20007623325716" stroke-width="1" />
<path fill="black" stroke="black" d="M360.0,-284.6 L343.0646901324403,-283.11835237328984" stroke-width="1" />
<path fill="black" stroke="black" d="M366.0,-290.6 L349.0646901324403,-292.0816476267102" stroke-width="1" />
<path fill="black" stroke="black" d="M434.0,-278.6 L450.42073904691415,-274.20007623325716" stroke-width="1" />
<path fill="black" stroke="black" d="M440.0,-284.6 L456.9353098675597,-283.11835237328984" stroke-width="1" />
<path fill="black" stroke="black" d="M434.0,-290.6 L450.9353098675597,-292.0816476267102" stroke-width="1" />
</g>
</svg>