<?xml version="1.0" encoding="UTF-8"?>
<svg xmlns="http://www.w3.org/2000/svg" xmlns:xlink="http://www.w3.org/1999/xlink"
     width="800" height="600" viewBox="0 -600 800 600">
<defs>
</defs>
<g>
<path fill="hsl(45, 38%, 42%)" stroke="black" d="M310.0248551252904,-309.21510936973027 L237.48902541750124,-445.06264673645114 A35.2,35.2,0,0,1,257.5892978153996,-467.4647664078929 L400.47608091583334,-410.0246478912183" stroke-width="1" />
<path fill="hsl(45, 38%, 42%)" stroke="black" d="M489.9751448747096,-309.21510936973027 L562.5109745824988,-445.06264673645114 A35.2,35.2,0,0,0,542.4107021846004,-467.4647664078929 L399.52391908416666,-410.0246478912183" stroke-width="1" />
<path fill="hsl(45, 38%, 42%)" stroke="black" d="M250.17760514529212,-300.0 A149.82239485470788,199.76319313961054,0,0,0,549.8223948547079,-300.0 A149.82239485470788,199.76319313961054,0,0,0,250.17760514529212,-300.0" stroke-width="1" />
<path fill="black" stroke="black" d="M332.717,-349.94079828490266 A6.283,10.3,0,0,0,345.283,-349.94079828490266 A6.283,10.3,0,0,0,332.717,-349.94079828490266" stroke-width="1" />
<path fill="black" stroke="black" d="M454.717,-349.94079828490266 A6.283,10.3,0,0,0,467.283,-349.94079828490266 A6.283,10.3,0,0,0,454.717,-349.94079828490266" stroke-width="1" />
<path fill="black" stroke="black" d="M380.5,-306.5 L419.5,-306.5 L400.0,-280.5 Z" stroke-width="1" />
<path fill="black" stroke="black" d="M400.0,-280.5 L400.0,-251.25" stroke-width="2" />
<path fill="none" stroke="black" d="M361.0,-247.25 A39.0,39.0,30,0,0,400.0,-251.25 A39.0,39.0,150,0,0,439.0,-247.25" stroke-width="2" />
<path fill="black" stroke="black" d="M366.0,-270.5 L317.7037086855466,-257.55904774487396" stroke-width="1" />
<path fill="black" stroke="black" d="M360.0,-276.5 L310.1902650954127,-272.1422128626171" stroke-width="1" />
<path fill="black" stroke="black" d="M366.0,-282.5 L316.1902650954127,-286.8577871373829" stroke-width="1" />
<path fill="black" stroke="black" d="M434.0,-270.5 L482.2962913144534,-257.55904774487396" stroke-width="1" />
<path fill="black" stroke="black" d="M440.0,-276.5 L489.8097349045873,-272.1422128626171" stroke-width="1" />
<path fill="black" stroke="black" d="M434.0,-282.5 L483.8097349045873,-286.8577871373829" stroke-width="1" />
</g>
</svg>