<?xml version="1.0" encoding="UTF-8"?>
<svg xmlns="http://www.w3.org/2000/svg" xmlns:xlink="http://www.w3.org/1999/xlink"
     width="800" height="600" viewBox="0 -600 800 600">
<defs>
</defs>
<g>
<path fill="hsl(45, 13%, 71%)" stroke="black" d="M393.16453220304743,-189.34881825384164 L233.5692382997304,-190.57444622099575 A62.400000000000006,62.400000000000006,0,0,1,204.0637287803886,-252.26768795979086 L303.28621089797537,-377.2759238581715" stroke-width="1" />
<path fill="hsl(45, 13%, 71%)" stroke="black" d="M406.83546779695257,-189.34881825384164 L566.4307617002696,-190.57444622099575 A62.400000000000006,62.400000000000006,0,0,0,595.9362712196114,-252.26768795979086 L496.71378910202463,-377.2759238581715" stroke-width="1" />
<path fill="hsl(45, 13%, 71%)" stroke="black" d="M245.26409595701455,-300.0 A154.73590404298545,193.41988005373182,0,0,0,554.7359040429855,-300.0 A154.73590404298545,193.41988005373182,0,0,0,245.26409595701455,-300.0" stroke-width="1" />
<path fill="black" stroke="black" d="M317.96,-348.35497001343293 A9.040000000000001,11.3,0,0,0,336.04,-348.35497001343293 A9.040000000000001,11.3,0,0,0,317.96,-348.35497001343293" stroke-width="1" />
<path fill="black" stroke="black" d="M463.96,-348.35497001343293 A9.040000000000001,11.3,0,0,0,482.04,-348.35497001343293 A9.040000000000001,11.3,0,0,0,463.96,-348.35497001343293" stroke-width="1" />
<path fill="black" stroke="black" d="M380.1,-306.6333333333333 L419.9,-306.6333333333333 L400.0,-280.1 Z" stroke-width="1" />
<path fill="black" stroke="black" d="M400.0,-280.1 L400.0,-250.25" stroke-width="2" />
<path fill="none" stroke="black" d="M360.2,-246.25 A39.8,39.8,30,0,0,400.0,-250.25 A39.8,39.8,150,0,0,439.8,-246.25" stroke-width="2" />
<path fill="black" stroke="black" d="M366.0,-270.1 L319.6355603381247,-257.676685835079" stroke-width="1" />
<path fill="black" stroke="black" d="M360.0,-276.1 L312.1826544915962,-271.91652434811243" stroke-width="1" />
<path fill="black" stroke="black" d="M366.0,-282.1 L318.1826544915962,-286.2834756518876" stroke-width="1" />
<path fill="black" stroke="black" d="M434.0,-270.1 L480.3644396618753,-257.676685835079" stroke-width="1" />
<path fill="black" stroke="black" d="M440.0,-276.1 L487.8173455084038,-271.91652434811243" stroke-width="1" />
<path fill="black" stroke="black" d="M434.0,-282.1 L481.8173455084038,-286.2834756518876" stroke-width="1" />
</g>
</svg>