<?xml version="1.0" encoding="UTF-8"?>
<svg xmlns="http://www.w3.org/2000/svg" xmlns:xlink="http://www.w3.org/1999/xlink"
     width="800" height="600" viewBox="0 -600 800 600">
<defs>
</defs>
<g>
<path fill="hsl(45, 40%, 72%)" stroke="black" d="M343.5733467105125,-212.80126616072042 L180.05422180857295,-293.6174513670508 A24.8,24.8,0,0,1,178.0537202527313,-324.55283553348835 L329.80215212933126,-425.75645910000344" stroke-width="1" />
<path fill="hsl(45, 40%, 72%)" stroke="black" d="M456.4266532894875,-212.80126616072042 L619.945778191427,-293.6174513670508 A24.8,24.8,0,0,0,621.9462797472687,-324.55283553348835 L470.19784787066874,-425.75645910000344" stroke-width="1" />
<path fill="hsl(45, 40%, 72%)" stroke="black" d="M249.1820965534927,-300.0 A150.8179034465073,198.44460979803594,0,0,0,550.8179034465073,-300.0 A150.8179034465073,198.44460979803594,0,0,0,249.1820965534927,-300.0" stroke-width="1" />
<path fill="black" stroke="black" d="M334.8,-349.611152449509 A5.2,10.0,0,0,0,345.2,-349.611152449509 A5.2,10.0,0,0,0,334.8,-349.611152449509" stroke-width="1" />
<path fill="black" stroke="black" d="M454.8,-349.611152449509 A5.2,10.0,0,0,0,465.2,-349.611152449509 A5.2,10.0,0,0,0,454.8,-349.611152449509" stroke-width="1" />
<path fill="black" stroke="black" d="M386.7,-304.43333333333334 L413.3,-304.43333333333334 L400.0,-286.7 Z" stroke-width="1" />
<path fill="black" stroke="black" d="M400.0,-286.7 L400.0,-266.75" stroke-width="2" />
<path fill="none" stroke="black" d="M373.4,-262.75 A26.6,26.6,30,0,0,400.0,-266.75 A26.6,26.6,150,0,0,426.6,-262.75" stroke-width="2" />
<path fill="black" stroke="black" d="M366.0,-276.7 L314.80593120667936,-262.9825906095664" stroke-width="1" />
<path fill="black" stroke="black" d="M360.0,-282.7 L307.2016810011375,-278.0807456343741" stroke-width="1" />
<path fill="black" stroke="black" d="M366.0,-288.7 L313.2016810011375,-293.31925436562585" stroke-width="1" />
<path fill="black" stroke="black" d="M434.0,-276.7 L485.19406879332064,-262.9825906095664" stroke-width="1" />
<path fill="black" stroke="black" d="M440.0,-282.7 L492.7983189988625,-278.0807456343741" stroke-width="1" />
<path fill="black" stroke="black" d="M434.0,-288.7 L486.7983189988625,-293.31925436562585" stroke-width="1" />
</g>
</svg>