<?xml version="1.0" encoding="UTF-8"?>
<svg xmlns="http://www.w3.org/2000/svg" xmlns:xlink="http://www.w3.org/1999/xlink"
     width="800" height="600" viewBox="0 -600 800 600">
<defs>
</defs>
<g>
<path fill="hsl(45, 55%, 52%)" stroke="black" d="M354.7450561322853,-203.69135888923745 L177.90844539683064,-215.03389403784047 A53.6,53.6,0,0,1,164.321301434146,-259.95167345420566 L305.22295828620196,-367.4066086426161" stroke-width="1" />
<path fill="hsl(45, 55%, 52%)" stroke="black" d="M445.2549438677147,-203.69135888923745 L622.0915546031694,-215.03389403784047 A53.6,53.6,0,0,0,635.678698565854,-259.95167345420566 L494.77704171379804,-367.4066086426161" stroke-width="1" />
<path fill="hsl(45, 55%, 52%)" stroke="black" d="M207.35535304608123,-300.0 A192.64464695391877,155.35858625316027,0,0,0,592.6446469539187,-300.0 A192.64464695391877,155.35858625316027,0,0,0,207.35535304608123,-300.0" stroke-width="1" />
<path fill="black" stroke="black" d="M320.33,-338.83964656329005 A8.67,10.2,0,0,0,337.67,-338.83964656329005 A8.67,10.2,0,0,0,320.33,-338.83964656329005" stroke-width="1" />
<path fill="black" stroke="black" d="M462.33,-338.83964656329005 A8.67,10.2,0,0,0,479.67,-338.83964656329005 A8.67,10.2,0,0,0,462.33,-338.83964656329005" stroke-width="1" />
<path fill="black" stroke="black" d="M389.4,-303.53333333333336 L410.6,-303.53333333333336 L400.0,-289.4 Z" stroke-width="1" />
<path fill="black" stroke="black" d="M400.0,-289.4 L400.0,-273.5" stroke-width="2" />
<path fill="none" stroke="black" d="M378.8,-269.5 A21.2,21.2,30,0,0,400.0,-273.5 A21.2,21.2,150,0,0,421.2,-269.5" stroke-width="2" />
<path fill="black" stroke="black" d="M366.0,-279.4 L322.53333781699195,-267.75314297038653" stroke-width="1" />
<path fill="black" stroke="black" d="M360.0,-285.4 L315.17123858587144,-281.47799157635535" stroke-width="1" />
<path fill="black" stroke="black" d="M366.0,-291.4 L321.17123858587144,-295.3220084236446" stroke-width="1" />
<path fill="black" stroke="black" d="M434.0,-279.4 L477.46666218300805,-267.75314297038653" stroke-width="1" />
<path fill="black" stroke="black" d="M440.0,-285.4 L484.82876141412856,-281.47799157635535" stroke-width="1" />
<path fill="black" stroke="black" d="M434.0,-291.4 L478.82876141412856,-295.3220084236446" stroke-width="1" />
</g>
</svg>