<?xml version="1.0" encoding="UTF-8"?>
<svg xmlns="http://www.w3.org/2000/svg" xmlns:xlink="http://www.w3.org/1999/xlink"
     width="800" height="600" viewBox="0 -600 800 600">
<defs>
</defs>
<g>
<path fill="hsl(45, 43%, 54%)" stroke="black" d="M307.0213390252818,-229.86956505430982 L109.01024282964624,-323.8921462962794 A2.4000000000000004,2.4000000000000004,0,0,1,109.1897246514493,-325.98571115833465 L320.31495929349603,-384.9329358372009" stroke-width="1" />
<path fill="hsl(45, 43%, 54%)" stroke="black" d="M492.9786609747182,-229.86956505430982 L690.9897571703538,-323.8921462962794 A2.4000000000000004,2.4000000000000004,0,0,0,690.8102753485507,-325.98571115833465 L479.68504070650397,-384.9329358372009" stroke-width="1" />
<path fill="hsl(45, 43%, 54%)" stroke="black" d="M205.80798162643245,-300.0 A194.19201837356755,154.12064950283138,0,0,0,594.1920183735675,-300.0 A194.19201837356755,154.12064950283138,0,0,0,205.80798162643245,-300.0" stroke-width="1" />
<path fill="black" stroke="black" d="M326.73,-338.53016237570785 A6.2700000000000005,11.0,0,0,0,339.27,-338.53016237570785 A6.2700000000000005,11.0,0,0,0,326.73,-338.53016237570785" stroke-width="1" />
<path fill="black" stroke="black" d="M460.73,-338.53016237570785 A6.2700000000000005,11.0,0,0,0,473.27,-338.53016237570785 A6.2700000000000005,11.0,0,0,0,460.73,-338.53016237570785" stroke-width="1" />
<path fill="black" stroke="black" d="M389.4,-303.53333333333336 L410.6,-303.53333333333336 L400.0,-289.4 Z" stroke-width="1" />
<path fill="black" stroke="black" d="M400.0,-289.4 L400.0,-273.5" stroke-width="2" />
<path fill="none" stroke="black" d="M378.8,-269.5 A21.2,21.2,30,0,0,400.0,-273.5 A21.2,21.2,150,0,0,421.2,-269.5" stroke-width="2" />
<path fill="black" stroke="black" d="M366.0,-279.4 L343.78370599535145,-273.447161962642" stroke-width="1" />
<path fill="black" stroke="black" d="M360.0,-285.4 L337.08752194388984,-283.39541791680386" stroke-width="1" />
<path fill="black" stroke="black" d="M366.0,-291.4 L343.08752194388984,-293.4045820831961" stroke-width="1" />
<path fill="black" stroke="black" d="M434.0,-279.4 L456.21629400464855,-273.447161962642" stroke-width="1" />
<path fill="black" stroke="black" d="M440.0,-285.4 L462.91247805611016,-283.3954179168038" stroke-width="1" />
<path fill="black" stroke="black" d="M434.0,-291.4 L456.91247805611016,-293.4045820831961" stroke-width="1" />
</g>
</svg>