<?xml version="1.0" encoding="UTF-8"?>
<svg xmlns="http://www.w3.org/2000/svg" xmlns:xlink="http://www.w3.org/1999/xlink"
     width="800" height="600" viewBox="0 -600 800 600">
<defs>
</defs>
<g>
<path fill="hsl(45, 3%, 55%)" stroke="black" d="M315.2774422963875,-206.9120511661531 L188.9046342216211,-242.91029250233873 A48.0,48.0,0,0,1,181.46327864589477,-292.1139632847504 L291.5395180098204,-363.8717609620464" stroke-width="1" />
<path fill="hsl(45, 3%, 55%)" stroke="black" d="M484.7225577036125,-206.9120511661531 L611.0953657783789,-242.91029250233873 A48.0,48.0,0,0,0,618.5367213541052,-292.1139632847504 L508.4604819901796,-363.8717609620464" stroke-width="1" />
<path fill="hsl(45, 3%, 55%)" stroke="black" d="M214.47816840058957,-300.0 A185.52183159941043,161.3233318255743,0,0,0,585.5218315994105,-300.0 A185.52183159941043,161.3233318255743,0,0,0,214.47816840058957,-300.0" stroke-width="1" />
<path fill="black" stroke="black" d="M308.9,-340.3308329563936 A14.100000000000001,14.100000000000001,0,0,0,337.1,-340.3308329563936 A14.100000000000001,14.100000000000001,0,0,0,308.9,-340.3308329563936" stroke-width="1" />
<path fill="black" stroke="black" d="M462.9,-340.3308329563936 A14.100000000000001,14.100000000000001,0,0,0,491.1,-340.3308329563936 A14.100000000000001,14.100000000000001,0,0,0,462.9,-340.3308329563936" stroke-width="1" />
<path fill="black" stroke="black" d="M386.4,-304.53333333333336 L413.6,-304.53333333333336 L400.0,-286.4 Z" stroke-width="1" />
<path fill="black" stroke="black" d="M400.0,-286.4 L400.0,-266.0" stroke-width="2" />
<path fill="none" stroke="black" d="M372.8,-262.0 A27.2,27.2,30,0,0,400.0,-266.0 A27.2,27.2,150,0,0,427.2,-262.0" stroke-width="2" />
<path fill="black" stroke="black" d="M366.0,-276.4 L309.01037624894497,-261.12967633895124" stroke-width="1" />
<path fill="black" stroke="black" d="M360.0,-282.4 L301.224512812587,-277.2578111778882" stroke-width="1" />
<path fill="black" stroke="black" d="M366.0,-288.4 L307.224512812587,-293.5421888221118" stroke-width="1" />
<path fill="black" stroke="black" d="M434.0,-276.4 L490.98962375105503,-261.12967633895124" stroke-width="1" />
<path fill="black" stroke="black" d="M440.0,-282.4 L498.775487187413,-277.25781117788813" stroke-width="1" />
<path fill="black" stroke="black" d="M434.0,-288.4 L492.775487187413,-293.5421888221118" stroke-width="1" />
</g>
</svg>