<?xml version="1.0" encoding="UTF-8"?>
<svg xmlns="http://www.w3.org/2000/svg" xmlns:xlink="http://www.w3.org/1999/xlink"
     width="800" height="600" viewBox="0 -600 800 600">
<defs>
</defs>
<g>
<path fill="hsl(45, 45%, 54%)" stroke="black" d="M331.7621994686236,-244.62871939690544 L178.67984957031013,-325.647446550634 A39.2,39.2,0,0,1,179.74057524093246,-369.3619649612898 L336.5722656729565,-442.8606783937969" stroke-width="1" />
<path fill="hsl(45, 45%, 54%)" stroke="black" d="M468.2378005313764,-244.62871939690544 L621.3201504296899,-325.647446550634 A39.2,39.2,0,0,0,620.2594247590675,-369.3619649612898 L463.4277343270435,-442.8606783937969" stroke-width="1" />
<path fill="hsl(45, 45%, 54%)" stroke="black" d="M232.27027693339502,-300.0 A167.72972306660498,178.43587560277126,0,0,0,567.729723066605,-300.0 A167.72972306660498,178.43587560277126,0,0,0,232.27027693339502,-300.0" stroke-width="1" />
<path fill="black" stroke="black" d="M338.962,-344.60896890069284 A7.037999999999999,10.2,0,0,0,353.038,-344.60896890069284 A7.037999999999999,10.2,0,0,0,338.962,-344.60896890069284" stroke-width="1" />
<path fill="black" stroke="black" d="M446.962,-344.60896890069284 A7.037999999999999,10.2,0,0,0,461.038,-344.60896890069284 A7.037999999999999,10.2,0,0,0,446.962,-344.60896890069284" stroke-width="1" />
<path fill="black" stroke="black" d="M383.3,-305.56666666666666 L416.7,-305.56666666666666 L400.0,-283.3 Z" stroke-width="1" />
<path fill="black" stroke="black" d="M400.0,-283.3 L400.0,-258.25" stroke-width="2" />
<path fill="none" stroke="black" d="M366.6,-254.25 A33.4,33.4,30,0,0,400.0,-258.25 A33.4,33.4,150,0,0,433.4,-254.25" stroke-width="2" />
<path fill="black" stroke="black" d="M366.0,-273.3 L315.77185703296846,-259.84140965466895" stroke-width="1" />
<path fill="black" stroke="black" d="M360.0,-279.3 L308.19787569922926,-274.7679013771218" stroke-width="1" />
<path fill="black" stroke="black" d="M366.0,-285.3 L314.19787569922926,-289.8320986228782" stroke-width="1" />
<path fill="black" stroke="black" d="M434.0,-273.3 L484.22814296703154,-259.84140965466895" stroke-width="1" />
<path fill="black" stroke="black" d="M440.0,-279.3 L491.80212430077074,-274.7679013771218" stroke-width="1" />
<path fill="black" stroke="black" d="M434.0,-285.3 L485.80212430077074,-289.8320986228782" stroke-width="1" />
</g>
</svg>