<?xml version="1.0" encoding="UTF-8"?>
<svg xmlns="http://www.w3.org/2000/svg" xmlns:xlink="http://www.w3.org/1999/xlink"
     width="800" height="600" viewBox="0 -600 800 600">
<defs>
</defs>
<g>
<path fill="hsl(45, 57%, 54%)" stroke="black" d="M319.6511315769025,-246.48035739014725 L114.41688912702898,-354.2307435891141 A6.4,6.4,0,0,1,114.44267798223314,-361.61867639078554 L320.4241525116503,-467.9336431202497" stroke-width="1" />
<path fill="hsl(45, 57%, 54%)" stroke="black" d="M480.3488684230975,-246.48035739014725 L685.583110872971,-354.2307435891141 A6.4,6.4,0,0,0,685.5573220177669,-361.61867639078554 L479.5758474883497,-467.9336431202497" stroke-width="1" />
<path fill="hsl(45, 57%, 54%)" stroke="black" d="M208.9152544026604,-300.0 A191.0847455973396,156.62684065355705,0,0,0,591.0847455973396,-300.0 A191.0847455973396,156.62684065355705,0,0,0,208.9152544026604,-300.0" stroke-width="1" />
<path fill="black" stroke="black" d="M325.928,-339.1567101633893 A7.071999999999999,10.4,0,0,0,340.072,-339.1567101633893 A7.071999999999999,10.4,0,0,0,325.928,-339.1567101633893" stroke-width="1" />
<path fill="black" stroke="black" d="M459.928,-339.1567101633893 A7.071999999999999,10.4,0,0,0,474.072,-339.1567101633893 A7.071999999999999,10.4,0,0,0,459.928,-339.1567101633893" stroke-width="1" />
<path fill="black" stroke="black" d="M385.5,-304.8333333333333 L414.5,-304.8333333333333 L400.0,-285.5 Z" stroke-width="1" />
<path fill="black" stroke="black" d="M400.0,-285.5 L400.0,-263.75" stroke-width="2" />
<path fill="none" stroke="black" d="M371.0,-259.75 A29.0,29.0,30,0,0,400.0,-263.75 A29.0,29.0,150,0,0,429.0,-259.75" stroke-width="2" />
<path fill="black" stroke="black" d="M366.0,-275.5 L345.7155576479296,-270.0648000528471" stroke-width="1" />
<path fill="black" stroke="black" d="M360.0,-281.5 L339.07991134007335,-279.6697294022992" stroke-width="1" />
<path fill="black" stroke="black" d="M366.0,-287.5 L345.07991134007335,-289.3302705977008" stroke-width="1" />
<path fill="black" stroke="black" d="M434.0,-275.5 L454.2844423520704,-270.0648000528471" stroke-width="1" />
<path fill="black" stroke="black" d="M440.0,-281.5 L460.92008865992665,-279.6697294022992" stroke-width="1" />
<path fill="black" stroke="black" d="M434.0,-287.5 L454.92008865992665,-289.3302705977008" stroke-width="1" />
</g>
</svg>