<?xml version="1.0" encoding="UTF-8"?>
<svg xmlns="http://www.w3.org/2000/svg" xmlns:xlink="http://www.w3.org/1999/xlink"
     width="800" height="600" viewBox="0 -600 800 600">
<defs>
</defs>
<g>
<path fill="hsl(45, 35%, 77%)" stroke="black" d="M323.598689516656,-246.5604319456976 L191.62208791917396,-287.5655124940823 A58.400000000000006,58.400000000000006,0,0,1,184.65259266315388,-346.53866005552425 L303.4348895430743,-417.17863420565004" stroke-width="1" />
<path fill="hsl(45, 35%, 77%)" stroke="black" d="M476.401310483344,-246.5604319456976 L608.377912080826,-287.5655124940823 A58.400000000000006,58.400000000000006,0,0,0,615.3474073368461,-346.53866005552425 L496.5651104569257,-417.17863420565004" stroke-width="1" />
<path fill="hsl(45, 35%, 77%)" stroke="black" d="M217.73319007564763,-300.0 A182.26680992435237,164.20433326518233,0,0,0,582.2668099243524,-300.0 A182.26680992435237,164.20433326518233,0,0,0,217.73319007564763,-300.0" stroke-width="1" />
<path fill="black" stroke="black" d="M342.7,-341.0510833162956 A7.300000000000001,14.600000000000001,0,0,0,357.3,-341.0510833162956 A7.300000000000001,14.600000000000001,0,0,0,342.7,-341.0510833162956" stroke-width="1" />
<path fill="black" stroke="black" d="M442.7,-341.0510833162956 A7.300000000000001,14.600000000000001,0,0,0,457.3,-341.0510833162956 A7.300000000000001,14.600000000000001,0,0,0,442.7,-341.0510833162956" stroke-width="1" />
<path fill="black" stroke="black" d="M387.1,-304.3 L412.9,-304.3 L400.0,-287.1 Z" stroke-width="1" />
<path fill="black" stroke="black" d="M400.0,-287.1 L400.0,-267.75" stroke-width="2" />
<path fill="none" stroke="black" d="M374.2,-263.75 A25.8,25.8,30,0,0,400.0,-267.75 A25.8,25.8,150,0,0,425.8,-263.75" stroke-width="2" />
<path fill="black" stroke="black" d="M366.0,-277.1 L332.1925960798826,-268.0413334214118" stroke-width="1" />
<path fill="black" stroke="black" d="M360.0,-283.1 L325.1331855667889,-280.049549003832" stroke-width="1" />
<path fill="black" stroke="black" d="M366.0,-289.1 L331.1331855667889,-292.15045099616805" stroke-width="1" />
<path fill="black" stroke="black" d="M434.0,-277.1 L467.8074039201174,-268.0413334214118" stroke-width="1" />
<path fill="black" stroke="black" d="M440.0,-283.1 L474.8668144332111,-280.049549003832" stroke-width="1" />
<path fill="black" stroke="black" d="M434.0,-289.1 L468.8668144332111,-292.15045099616805" stroke-width="1" />
</g>
</svg>