<?xml version="1.0" encoding="UTF-8"?>
<svg xmlns="http://www.w3.org/2000/svg" xmlns:xlink="http://www.w3.org/1999/xlink"
     width="800" height="600" viewBox="0 -600 800 600">
<defs>
</defs>
<g>
<path fill="hsl(45, 56%, 77%)" stroke="black" d="M389.76111097242506,-193.40223991022444 L136.04018928815628,-160.85482987985256 A4.800000000000001,4.800000000000001,0,0,1,134.0795559744687,-164.5719291835057 L304.2121440518563,-355.591672859624" stroke-width="1" />
<path fill="hsl(45, 56%, 77%)" stroke="black" d="M410.23888902757494,-193.40223991022444 L663.9598107118437,-160.85482987985256 A4.800000000000001,4.800000000000001,0,0,0,665.9204440255313,-164.5719291835057 L495.7878559481437,-355.591672859624" stroke-width="1" />
<path fill="hsl(45, 56%, 77%)" stroke="black" d="M200.48666711219522,-300.0 A199.51333288780478,150.01002472767274,0,0,0,599.5133328878048,-300.0 A199.51333288780478,150.01002472767274,0,0,0,200.48666711219522,-300.0" stroke-width="1" />
<path fill="black" stroke="black" d="M325.608,-337.5025061819182 A7.3919999999999995,11.2,0,0,0,340.392,-337.5025061819182 A7.3919999999999995,11.2,0,0,0,325.608,-337.5025061819182" stroke-width="1" />
<path fill="black" stroke="black" d="M459.608,-337.5025061819182 A7.3919999999999995,11.2,0,0,0,474.392,-337.5025061819182 A7.3919999999999995,11.2,0,0,0,459.608,-337.5025061819182" stroke-width="1" />
<path fill="black" stroke="black" d="M387.1,-304.3 L412.9,-304.3 L400.0,-287.1 Z" stroke-width="1" />
<path fill="black" stroke="black" d="M400.0,-287.1 L400.0,-267.75" stroke-width="2" />
<path fill="none" stroke="black" d="M374.2,-263.75 A25.8,25.8,30,0,0,400.0,-267.75 A25.8,25.8,150,0,0,425.8,-263.75" stroke-width="2" />
<path fill="black" stroke="black" d="M366.0,-277.1 L364.06814834742187,-276.582361909795" stroke-width="1" />
<path fill="black" stroke="black" d="M360.0,-283.1 L358.0076106038165,-282.9256885145047" stroke-width="1" />
<path fill="black" stroke="black" d="M366.0,-289.1 L364.0076106038165,-289.27431148549533" stroke-width="1" />
<path fill="black" stroke="black" d="M434.0,-277.1 L435.93185165257813,-276.582361909795" stroke-width="1" />
<path fill="black" stroke="black" d="M440.0,-283.1 L441.9923893961835,-282.9256885145047" stroke-width="1" />
<path fill="black" stroke="black" d="M434.0,-289.1 L435.9923893961835,-289.27431148549533" stroke-width="1" />
</g>
</svg>