<?xml version="1.0" encoding="UTF-8"?>
<svg xmlns="http://www.w3.org/2000/svg" xmlns:xlink="http://www.w3.org/1999/xlink"
     width="800" height="600" viewBox="0 -600 800 600">
<defs>
</defs>
<g>
<path fill="hsl(45, 36%, 77%)" stroke="black" d="M341.97132298660915,-196.67305299840098 L166.98067131365906,-213.52273629145637 A33.6,33.6,0,0,1,149.563555122097,-251.74110966827124 L251.65113473608028,-394.86261779531213" stroke-width="1" />
<path fill="hsl(45, 36%, 77%)" stroke="black" d="M458.02867701339085,-196.67305299840098 L633.0193286863409,-213.52273629145637 A33.6,33.6,0,0,0,650.436444877903,-251.74110966827124 L548.3488652639197,-394.86261779531213" stroke-width="1" />
<path fill="hsl(45, 36%, 77%)" stroke="black" d="M208.1337184391171,-300.0 A191.8662815608829,155.9888467974658,0,0,0,591.866281560883,-300.0 A191.8662815608829,155.9888467974658,0,0,0,208.1337184391171,-300.0" stroke-width="1" />
<path fill="black" stroke="black" d="M332.91,-338.99721169936646 A12.09,13.0,0,0,0,357.09,-338.99721169936646 A12.09,13.0,0,0,0,332.91,-338.99721169936646" stroke-width="1" />
<path fill="black" stroke="black" d="M442.91,-338.99721169936646 A12.09,13.0,0,0,0,467.09,-338.99721169936646 A12.09,13.0,0,0,0,442.91,-338.99721169936646" stroke-width="1" />
<path fill="black" stroke="black" d="M381.4,-306.2 L418.6,-306.2 L400.0,-281.4 Z" stroke-width="1" />
<path fill="black" stroke="black" d="M400.0,-281.4 L400.0,-253.5" stroke-width="2" />
<path fill="none" stroke="black" d="M362.8,-249.5 A37.2,37.2,30,0,0,400.0,-253.5 A37.2,37.2,150,0,0,437.2,-249.5" stroke-width="2" />
<path fill="black" stroke="black" d="M366.0,-271.4 L360.2044450422656,-269.84708572938484" stroke-width="1" />
<path fill="black" stroke="black" d="M360.0,-277.4 L354.0228318114495,-276.87706554351405" stroke-width="1" />
<path fill="black" stroke="black" d="M366.0,-283.4 L360.0228318114495,-283.9229344564859" stroke-width="1" />
<path fill="black" stroke="black" d="M434.0,-271.4 L439.7955549577344,-269.84708572938484" stroke-width="1" />
<path fill="black" stroke="black" d="M440.0,-277.4 L445.9771681885505,-276.87706554351405" stroke-width="1" />
<path fill="black" stroke="black" d="M434.0,-283.4 L439.9771681885505,-283.9229344564859" stroke-width="1" />
</g>
</svg>