<?xml version="1.0" encoding="UTF-8"?>
<svg xmlns="http://www.w3.org/2000/svg" xmlns:xlink="http://www.w3.org/1999/xlink"
     width="800" height="600" viewBox="0 -600 800 600">
<defs>
</defs>
<g>
<path fill="hsl(45, 31%, 71%)" stroke="black" d="M301.58208565222463,-276.51889611564536 L213.69800098503083,-507.99707578321045 A9.600000000000001,9.600000000000001,0,0,1,220.5483308959533,-514.6796989518112 L449.7775560585144,-421.0863106630443" stroke-width="1" />
<path fill="hsl(45, 31%, 71%)" stroke="black" d="M498.41791434777537,-276.51889611564536 L586.3019990149692,-507.99707578321045 A9.600000000000001,9.600000000000001,0,0,0,579.4516691040467,-514.6796989518112 L350.2224439414856,-421.0863106630443" stroke-width="1" />
<path fill="hsl(45, 31%, 71%)" stroke="black" d="M223.57392482968964,-300.0 A176.42607517031036,169.64045689452917,0,0,0,576.4260751703104,-300.0 A176.42607517031036,169.64045689452917,0,0,0,223.57392482968964,-300.0" stroke-width="1" />
<path fill="black" stroke="black" d="M337.74,-342.41011422363226 A7.26,12.1,0,0,0,352.26,-342.41011422363226 A7.26,12.1,0,0,0,337.74,-342.41011422363226" stroke-width="1" />
<path fill="black" stroke="black" d="M447.74,-342.41011422363226 A7.26,12.1,0,0,0,462.26,-342.41011422363226 A7.26,12.1,0,0,0,447.74,-342.41011422363226" stroke-width="1" />
<path fill="black" stroke="black" d="M384.3,-305.23333333333335 L415.7,-305.23333333333335 L400.0,-284.3 Z" stroke-width="1" />
<path fill="black" stroke="black" d="M400.0,-284.3 L400.0,-260.75" stroke-width="2" />
<path fill="none" stroke="black" d="M368.6,-256.75 A31.4,31.4,30,0,0,400.0,-260.75 A31.4,31.4,150,0,0,431.4,-256.75" stroke-width="2" />
<path fill="black" stroke="black" d="M366.0,-274.3 L355.37481591082025,-271.4529905038723" stroke-width="1" />
<path fill="black" stroke="black" d="M360.0,-280.3 L349.0418583209908,-279.34128682977575" stroke-width="1" />
<path fill="black" stroke="black" d="M366.0,-286.3 L355.0418583209908,-287.25871317022427" stroke-width="1" />
<path fill="black" stroke="black" d="M434.0,-274.3 L444.62518408917975,-271.4529905038723" stroke-width="1" />
<path fill="black" stroke="black" d="M440.0,-280.3 L450.9581416790092,-279.34128682977575" stroke-width="1" />
<path fill="black" stroke="black" d="M434.0,-286.3 L444.9581416790092,-287.25871317022427" stroke-width="1" />
</g>
</svg>