<?xml version="1.0" encoding="UTF-8"?>
<svg xmlns="http://www.w3.org/2000/svg" xmlns:xlink="http://www.w3.org/1999/xlink"
     width="800" height="600" viewBox="0 -600 800 600">
<defs>
</defs>
<g>
<path fill="hsl(45, 12%, 53%)" stroke="black" d="M364.92822298824854,-220.89484803068535 L220.61099660892103,-209.08052747561615 A49.6,49.6,0,0,1,198.1040682947721,-251.98629195747793 L289.85672661137767,-364.0063334314759" stroke-width="1" />
<path fill="hsl(45, 12%, 53%)" stroke="black" d="M435.07177701175146,-220.89484803068535 L579.389003391079,-209.08052747561615 A49.6,49.6,0,0,0,601.8959317052279,-251.98629195747793 L510.14327338862233,-364.0063334314759" stroke-width="1" />
<path fill="hsl(45, 12%, 53%)" stroke="black" d="M236.79212641542077,-300.0 A163.20787358457923,183.3796332411003,0,0,0,563.2078735845793,-300.0 A163.20787358457923,183.3796332411003,0,0,0,236.79212641542077,-300.0" stroke-width="1" />
<path fill="black" stroke="black" d="M327.86,-345.84490831027506 A7.14,10.5,0,0,0,342.14,-345.84490831027506 A7.14,10.5,0,0,0,327.86,-345.84490831027506" stroke-width="1" />
<path fill="black" stroke="black" d="M457.86,-345.84490831027506 A7.14,10.5,0,0,0,472.14,-345.84490831027506 A7.14,10.5,0,0,0,457.86,-345.84490831027506" stroke-width="1" />
<path fill="black" stroke="black" d="M387.7,-304.1 L412.3,-304.1 L400.0,-287.7 Z" stroke-width="1" />
<path fill="black" stroke="black" d="M400.0,-287.7 L400.0,-269.25" stroke-width="2" />
<path fill="none" stroke="black" d="M375.4,-265.25 A24.6,24.6,30,0,0,400.0,-269.25 A24.6,24.6,150,0,0,424.6,-265.25" stroke-width="2" />
<path fill="black" stroke="black" d="M366.0,-277.7 L330.2607444273045,-268.1236953312067" stroke-width="1" />
<path fill="black" stroke="black" d="M360.0,-283.7 L323.1407961706054,-280.47523751833666" stroke-width="1" />
<path fill="black" stroke="black" d="M366.0,-289.7 L329.1407961706054,-292.9247624816633" stroke-width="1" />
<path fill="black" stroke="black" d="M434.0,-277.7 L469.7392555726955,-268.1236953312067" stroke-width="1" />
<path fill="black" stroke="black" d="M440.0,-283.7 L476.8592038293946,-280.47523751833666" stroke-width="1" />
<path fill="black" stroke="black" d="M434.0,-289.7 L470.8592038293946,-292.9247624816633" stroke-width="1" />
</g>
</svg>