<?xml version="1.0" encoding="UTF-8"?>
<svg xmlns="http://www.w3.org/2000/svg" xmlns:xlink="http://www.w3.org/1999/xlink"
     width="800" height="600" viewBox="0 -600 800 600">
<defs>
</defs>
<g>
<path fill="hsl(45, 16%, 59%)" stroke="black" d="M282.2509391984777,-268.1768660838662 L210.52174689273443,-453.58550388471326 A32.800000000000004,32.800000000000004,0,0,1,235.8547339498773,-483.4043457643388 L430.4180195961085,-442.58072663835895" stroke-width="1" />
<path fill="hsl(45, 16%, 59%)" stroke="black" d="M517.7490608015223,-268.1768660838662 L589.4782531072656,-453.58550388471326 A32.800000000000004,32.800000000000004,0,0,0,564.1452660501227,-483.4043457643388 L369.5819804038915,-442.58072663835895" stroke-width="1" />
<path fill="hsl(45, 16%, 59%)" stroke="black" d="M239.56640002792432,-300.0 A160.43359997207568,186.55069764194846,0,0,0,560.4335999720756,-300.0 A160.43359997207568,186.55069764194846,0,0,0,239.56640002792432,-300.0" stroke-width="1" />
<path fill="black" stroke="black" d="M329.657,-346.63767441048714 A8.343000000000002,10.3,0,0,0,346.343,-346.63767441048714 A8.343000000000002,10.3,0,0,0,329.657,-346.63767441048714" stroke-width="1" />
<path fill="black" stroke="black" d="M453.657,-346.63767441048714 A8.343000000000002,10.3,0,0,0,470.343,-346.63767441048714 A8.343000000000002,10.3,0,0,0,453.657,-346.63767441048714" stroke-width="1" />
<path fill="black" stroke="black" d="M382.5,-305.8333333333333 L417.5,-305.8333333333333 L400.0,-282.5 Z" stroke-width="1" />
<path fill="black" stroke="black" d="M400.0,-282.5 L400.0,-256.25" stroke-width="2" />
<path fill="none" stroke="black" d="M365.0,-252.25 A35.0,35.0,30,0,0,400.0,-256.25 A35.0,35.0,150,0,0,435.0,-252.25" stroke-width="2" />
<path fill="black" stroke="black" d="M366.0,-272.5 L339.92000269019513,-265.51188578223196" stroke-width="1" />
<path fill="black" stroke="black" d="M360.0,-278.5 L333.1027431515229,-276.1467949458132" stroke-width="1" />
<path fill="black" stroke="black" d="M366.0,-284.5 L339.1027431515229,-286.8532050541868" stroke-width="1" />
<path fill="black" stroke="black" d="M434.0,-272.5 L460.07999730980487,-265.51188578223196" stroke-width="1" />
<path fill="black" stroke="black" d="M440.0,-278.5 L466.8972568484771,-276.1467949458132" stroke-width="1" />
<path fill="black" stroke="black" d="M434.0,-284.5 L460.8972568484771,-286.8532050541868" stroke-width="1" />
</g>
</svg>