<?xml version="1.0" encoding="UTF-8"?>
<svg xmlns="http://www.w3.org/2000/svg" xmlns:xlink="http://www.w3.org/1999/xlink"
     width="800" height="600" viewBox="0 -600 800 600">
<defs>
</defs>
<g>
<path fill="hsl(45, 31%, 80%)" stroke="black" d="M353.2994743872191,-223.77091500449757 L202.7346071485763,-215.35303205152846 A53.6,53.6,0,0,1,175.03124017252708,-265.95426708927147 L263.2428575605992,-388.2626909928619" stroke-width="1" />
<path fill="hsl(45, 31%, 80%)" stroke="black" d="M446.7005256127809,-223.77091500449757 L597.2653928514237,-215.35303205152846 A53.6,53.6,0,0,0,624.9687598274729,-265.95426708927147 L536.7571424394008,-388.2626909928619" stroke-width="1" />
<path fill="hsl(45, 31%, 80%)" stroke="black" d="M218.55606926656378,-300.0 A181.44393073343622,164.94902793948745,0,0,0,581.4439307334362,-300.0 A181.44393073343622,164.94902793948745,0,0,0,218.55606926656378,-300.0" stroke-width="1" />
<path fill="black" stroke="black" d="M308.78,-341.23725698487186 A11.22,13.2,0,0,0,331.22,-341.23725698487186 A11.22,13.2,0,0,0,308.78,-341.23725698487186" stroke-width="1" />
<path fill="black" stroke="black" d="M468.78,-341.23725698487186 A11.22,13.2,0,0,0,491.22,-341.23725698487186 A11.22,13.2,0,0,0,468.78,-341.23725698487186" stroke-width="1" />
<path fill="black" stroke="black" d="M382.2,-305.93333333333334 L417.8,-305.93333333333334 L400.0,-282.2 Z" stroke-width="1" />
<path fill="black" stroke="black" d="M400.0,-282.2 L400.0,-255.5" stroke-width="2" />
<path fill="none" stroke="black" d="M364.4,-251.5 A35.6,35.6,30,0,0,400.0,-255.5 A35.6,35.6,150,0,0,435.6,-251.5" stroke-width="2" />
<path fill="black" stroke="black" d="M366.0,-272.2 L311.9081537278122,-257.7061334742588" stroke-width="1" />
<path fill="black" stroke="black" d="M360.0,-278.2 L304.21309690686223,-273.31927840613116" stroke-width="1" />
<path fill="black" stroke="black" d="M366.0,-284.2 L310.21309690686223,-289.0807215938689" stroke-width="1" />
<path fill="black" stroke="black" d="M434.0,-272.2 L488.0918462721878,-257.7061334742588" stroke-width="1" />
<path fill="black" stroke="black" d="M440.0,-278.2 L495.78690309313777,-273.3192784061311" stroke-width="1" />
<path fill="black" stroke="black" d="M434.0,-284.2 L489.78690309313777,-289.0807215938689" stroke-width="1" />
</g>
</svg>