<?xml version="1.0" encoding="UTF-8"?>
<svg xmlns="http://www.w3.org/2000/svg" xmlns:xlink="http://www.w3.org/1999/xlink"
     width="800" height="600" viewBox="0 -600 800 600">
<defs>
</defs>
<g>
<path fill="hsl(45, 16%, 54%)" stroke="black" d="M360.7594069678333,-205.13522204689053 L150.9953555762329,-242.12228388994674 A14.4,14.4,0,0,1,146.21693242810898,-257.75180175621347 L299.43630990024167,-405.7140346639799" stroke-width="1" />
<path fill="hsl(45, 16%, 54%)" stroke="black" d="M439.2405930321667,-205.13522204689053 L649.0046444237671,-242.12228388994674 A14.4,14.4,0,0,0,653.783067571891,-257.75180175621347 L500.56369009975833,-405.7140346639799" stroke-width="1" />
<path fill="hsl(45, 16%, 54%)" stroke="black" d="M233.16484183482189,-300.0 A166.83515816517811,179.3926431883636,0,0,0,566.8351581651781,-300.0 A166.83515816517811,179.3926431883636,0,0,0,233.16484183482189,-300.0" stroke-width="1" />
<path fill="black" stroke="black" d="M333.828,-344.8481607970909 A11.172000000000002,13.3,0,0,0,356.172,-344.8481607970909 A11.172000000000002,13.3,0,0,0,333.828,-344.8481607970909" stroke-width="1" />
<path fill="black" stroke="black" d="M443.828,-344.8481607970909 A11.172000000000002,13.3,0,0,0,466.172,-344.8481607970909 A11.172000000000002,13.3,0,0,0,443.828,-344.8481607970909" stroke-width="1" />
<path fill="black" stroke="black" d="M381.4,-306.2 L418.6,-306.2 L400.0,-281.4 Z" stroke-width="1" />
<path fill="black" stroke="black" d="M400.0,-281.4 L400.0,-253.5" stroke-width="2" />
<path fill="none" stroke="black" d="M362.8,-249.5 A37.2,37.2,30,0,0,400.0,-253.5 A37.2,37.2,150,0,0,437.2,-249.5" stroke-width="2" />
<path fill="black" stroke="black" d="M366.0,-271.4 L315.77185703296846,-257.9414096546689" stroke-width="1" />
<path fill="black" stroke="black" d="M360.0,-277.4 L308.19787569922926,-272.86790137712177" stroke-width="1" />
<path fill="black" stroke="black" d="M366.0,-283.4 L314.19787569922926,-287.9320986228782" stroke-width="1" />
<path fill="black" stroke="black" d="M434.0,-271.4 L484.22814296703154,-257.9414096546689" stroke-width="1" />
<path fill="black" stroke="black" d="M440.0,-277.4 L491.80212430077074,-272.86790137712177" stroke-width="1" />
<path fill="black" stroke="black" d="M434.0,-283.4 L485.80212430077074,-287.9320986228782" stroke-width="1" />
</g>
</svg>