<?xml version="1.0" encoding="UTF-8"?>
<svg xmlns="http://www.w3.org/2000/svg" xmlns:xlink="http://www.w3.org/1999/xlink"
     width="800" height="600" viewBox="0 -600 800 600">
<defs>
</defs>
<g>
<path fill="hsl(45, 48%, 79%)" stroke="black" d="M307.63828557084656,-316.0060999104986 L230.6629946541625,-465.7838171727531 A18.400000000000002,18.400000000000002,0,0,1,242.98794901826284,-483.51710248740346 L410.2033405834037,-463.5778742245887" stroke-width="1" />
<path fill="hsl(45, 48%, 79%)" stroke="black" d="M492.36171442915344,-316.0060999104986 L569.3370053458375,-465.7838171727531 A18.400000000000002,18.400000000000002,0,0,0,557.0120509817372,-483.51710248740346 L389.7966594165963,-463.5778742245887" stroke-width="1" />
<path fill="hsl(45, 48%, 79%)" stroke="black" d="M243.34183711022268,-300.0 A156.65816288977732,191.0465401094845,0,0,0,556.6581628897773,-300.0 A156.65816288977732,191.0465401094845,0,0,0,243.34183711022268,-300.0" stroke-width="1" />
<path fill="black" stroke="black" d="M329.617,-347.76163502737114 A7.382999999999999,10.7,0,0,0,344.383,-347.76163502737114 A7.382999999999999,10.7,0,0,0,329.617,-347.76163502737114" stroke-width="1" />
<path fill="black" stroke="black" d="M455.617,-347.76163502737114 A7.382999999999999,10.7,0,0,0,470.383,-347.76163502737114 A7.382999999999999,10.7,0,0,0,455.617,-347.76163502737114" stroke-width="1" />
<path fill="black" stroke="black" d="M384.3,-305.23333333333335 L415.7,-305.23333333333335 L400.0,-284.3 Z" stroke-width="1" />
<path fill="black" stroke="black" d="M400.0,-284.3 L400.0,-260.75" stroke-width="2" />
<path fill="none" stroke="black" d="M368.6,-256.75 A31.4,31.4,30,0,0,400.0,-260.75 A31.4,31.4,150,0,0,431.4,-256.75" stroke-width="2" />
<path fill="black" stroke="black" d="M366.0,-274.3 L348.61333512679676,-269.6412571881546" stroke-width="1" />
<path fill="black" stroke="black" d="M360.0,-280.3 L342.06849543434856,-278.7311966305422" stroke-width="1" />
<path fill="black" stroke="black" d="M366.0,-286.3 L348.06849543434856,-287.86880336945785" stroke-width="1" />
<path fill="black" stroke="black" d="M434.0,-274.3 L451.38666487320324,-269.6412571881546" stroke-width="1" />
<path fill="black" stroke="black" d="M440.0,-280.3 L457.93150456565144,-278.7311966305422" stroke-width="1" />
<path fill="black" stroke="black" d="M434.0,-286.3 L451.93150456565144,-287.86880336945785" stroke-width="1" />
</g>
</svg>