<?xml version="1.0" encoding="UTF-8"?>
<svg xmlns="http://www.w3.org/2000/svg" xmlns:xlink="http://www.w3.org/1999/xlink"
     width="800" height="600" viewBox="0 -600 800 600">
<defs>
</defs>
<g>
<path fill="hsl(45, 35%, 39%)" stroke="black" d="M297.66123612241364,-263.70826702747786 L210.53898176167127,-392.8723208315534 A40.800000000000004,40.800000000000004,0,0,1,233.0123761376392,-434.26316430355905 L388.78864704300497,-431.54407938063025" stroke-width="1" />
<path fill="hsl(45, 35%, 39%)" stroke="black" d="M502.33876387758636,-263.70826702747786 L589.4610182383287,-392.8723208315534 A40.800000000000004,40.800000000000004,0,0,0,566.9876238623608,-434.26316430355905 L411.21135295699503,-431.54407938063025" stroke-width="1" />
<path fill="hsl(45, 35%, 39%)" stroke="black" d="M246.2342365804403,-300.0 A153.7657634195597,194.64020686020214,0,0,0,553.7657634195597,-300.0 A153.7657634195597,194.64020686020214,0,0,0,246.2342365804403,-300.0" stroke-width="1" />
<path fill="black" stroke="black" d="M334.13,-348.66005171505054 A13.870000000000001,14.600000000000001,0,0,0,361.87,-348.66005171505054 A13.870000000000001,14.600000000000001,0,0,0,334.13,-348.66005171505054" stroke-width="1" />
<path fill="black" stroke="black" d="M438.13,-348.66005171505054 A13.870000000000001,14.600000000000001,0,0,0,465.87,-348.66005171505054 A13.870000000000001,14.600000000000001,0,0,0,438.13,-348.66005171505054" stroke-width="1" />
<path fill="black" stroke="black" d="M381.8,-306.06666666666666 L418.2,-306.06666666666666 L400.0,-281.8 Z" stroke-width="1" />
<path fill="black" stroke="black" d="M400.0,-281.8 L400.0,-254.5" stroke-width="2" />
<path fill="none" stroke="black" d="M363.6,-250.5 A36.400000000000006,36.400000000000006,30,0,0,400.0,-254.5 A36.400000000000006,36.400000000000006,150,0,0,436.4,-250.5" stroke-width="2" />
<path fill="black" stroke="black" d="M366.0,-271.8 L314.80593120667936,-258.0825906095664" stroke-width="1" />
<path fill="black" stroke="black" d="M360.0,-277.8 L307.2016810011375,-273.18074563437415" stroke-width="1" />
<path fill="black" stroke="black" d="M366.0,-283.8 L313.2016810011375,-288.4192543656259" stroke-width="1" />
<path fill="black" stroke="black" d="M434.0,-271.8 L485.19406879332064,-258.0825906095664" stroke-width="1" />
<path fill="black" stroke="black" d="M440.0,-277.8 L492.7983189988625,-273.18074563437415" stroke-width="1" />
<path fill="black" stroke="black" d="M434.0,-283.8 L486.7983189988625,-288.4192543656259" stroke-width="1" />
</g>
</svg>