<?xml version="1.0" encoding="UTF-8"?>
<svg xmlns="http://www.w3.org/2000/svg" xmlns:xlink="http://www.w3.org/1999/xlink"
     width="800" height="600" viewBox="0 -600 800 600">
<defs>
</defs>
<g>
<path fill="hsl(45, 33%, 31%)" stroke="black" stroke-width="1" d="M424.1537387426283,-196.85365284994157 L262.1991476037633,-129.50478196821797 A56.800000000000004,56.800000000000004,0,0,1,222.57102702611962,-168.33861217483195 L286.6274160619041,-331.6234523275425" />
<path fill="hsl(45, 33%, 31%)" stroke="black" stroke-width="1" d="M375.8462612573717,-196.85365284994157 L537.8008523962367,-129.50478196821797 A56.800000000000004,56.800000000000004,0,0,0,577.4289729738804,-168.33861217483195 L513.3725839380959,-331.6234523275425" />
<path fill="hsl(45, 33%, 31%)" stroke="black" stroke-width="1" d="M208.1337184391171,-300.0 A191.8662815608829,155.9888467974658,0,0,0,591.866281560883,-300.0 A191.8662815608829,155.9888467974658,0,0,0,208.1337184391171,-300.0" />
<path fill="black" stroke="black" stroke-width="1" d="M331.682,-338.99721169936646 A6.318,11.7,0,0,0,344.318,-338.99721169936646 A6.318,11.7,0,0,0,331.682,-338.99721169936646" />
<path fill="black" stroke="black" stroke-width="1" d="M455.682,-338.99721169936646 A6.318,11.7,0,0,0,468.318,-338.99721169936646 A6.318,11.7,0,0,0,455.682,-338.99721169936646" />
<path fill="black" stroke="black" stroke-width="1" d="M383.6,-305.46666666666664 L416.4,-305.46666666666664 L400.0,-283.6 Z" />
<path fill="black" stroke="black" stroke-width="2" d="M400.0,-283.6 L400.0,-259.0" />
<path stroke-width="2" stroke="black" fill="none" d="M367.2,-255.0 A32.8,32.8,30,0,0,400.0,-259.0 A32.8,32.8,150,0,0,432.8,-255.0" />
<path fill="black" stroke="black" stroke-width="1" d="M366.0,-273.6 L365.0340741737109,-273.3411809548975" />
<path fill="black" stroke="black" stroke-width="1" d="M360.0,-279.6 L359.00380530190824,-279.51284425725237" />
<path fill="black" stroke="black" stroke-width="1" d="M366.0,-285.6 L365.00380530190824,-285.6871557427477" />
<path fill="black" stroke="black" stroke-width="1" d="M434.0,-273.6 L434.9659258262891,-273.3411809548975" />
<path fill="black" stroke="black" stroke-width="1" d="M440.0,-279.6 L440.99619469809176,-279.51284425725237" />
<path fill="black" stroke="black" stroke-width="1" d="M434.0,-285.6 L434.99619469809176,-285.6871557427477" />
</g>
</svg>