<?xml version="1.0" encoding="UTF-8"?>
<svg xmlns="http://www.w3.org/2000/svg" xmlns:xlink="http://www.w3.org/1999/xlink"
     width="800" height="600" viewBox="0 -600 800 600">
<defs>
</defs>
<g>
<path fill="hsl(45, 29%, 43%)" stroke="black" stroke-width="1" d="M341.4278836460744,-237.62715405006725 L207.30244328069602,-233.15431973687006 A35.2,35.2,0,0,1,194.48842074322397,-262.7516049796037 L289.5310923693131,-357.49615928313824" />
<path fill="hsl(45, 29%, 43%)" stroke="black" stroke-width="1" d="M458.5721163539256,-237.62715405006725 L592.697556719304,-233.15431973687006 A35.2,35.2,0,0,0,605.511579256776,-262.7516049796037 L510.4689076306869,-357.49615928313824" />
<path fill="hsl(45, 29%, 43%)" stroke="black" stroke-width="1" d="M235.87778943726113,-300.0 A164.12221056273887,182.35801173637654,0,0,0,564.1222105627389,-300.0 A164.12221056273887,182.35801173637654,0,0,0,235.87778943726113,-300.0" />
<path fill="black" stroke="black" stroke-width="1" d="M341.216,-345.5895029340941 A6.784000000000001,12.8,0,0,0,354.784,-345.5895029340941 A6.784000000000001,12.8,0,0,0,341.216,-345.5895029340941" />
<path fill="black" stroke="black" stroke-width="1" d="M445.216,-345.5895029340941 A6.784000000000001,12.8,0,0,0,458.784,-345.5895029340941 A6.784000000000001,12.8,0,0,0,445.216,-345.5895029340941" />
<path fill="black" stroke="black" stroke-width="1" d="M388.6,-303.8 L411.4,-303.8 L400.0,-288.6 Z" />
<path fill="black" stroke="black" stroke-width="2" d="M400.0,-288.6 L400.0,-271.5" />
<path stroke-width="2" stroke="black" fill="none" d="M377.2,-267.5 A22.8,22.8,30,0,0,400.0,-271.5 A22.8,22.8,150,0,0,422.8,-267.5" />
<path fill="black" stroke="black" stroke-width="1" d="M366.0,-278.6 L348.61333512679676,-273.9412571881546" />
<path fill="black" stroke="black" stroke-width="1" d="M360.0,-284.6 L342.06849543434856,-283.0311966305422" />
<path fill="black" stroke="black" stroke-width="1" d="M366.0,-290.6 L348.06849543434856,-292.16880336945786" />
<path fill="black" stroke="black" stroke-width="1" d="M434.0,-278.6 L451.38666487320324,-273.9412571881546" />
<path fill="black" stroke="black" stroke-width="1" d="M440.0,-284.6 L457.93150456565144,-283.0311966305422" />
<path fill="black" stroke="black" stroke-width="1" d="M434.0,-290.6 L451.93150456565144,-292.16880336945786" />
</g>
</svg>