<?xml version="1.0" encoding="UTF-8"?>
<svg xmlns="http://www.w3.org/2000/svg" xmlns:xlink="http://www.w3.org/1999/xlink"
     width="800" height="600" viewBox="0 -600 800 600">
<defs>
</defs>
<g>
<path fill="hsl(45, 18%, 41%)" stroke="black" stroke-width="1" d="M373.0023779698408,-202.61481835450834 L129.66881367717338,-191.22462570353466 A4.0,4.0,0,0,1,128.10464414915964,-194.6285034438039 L295.2318690369999,-371.8556196006981" />
<path fill="hsl(45, 18%, 41%)" stroke="black" stroke-width="1" d="M426.9976220301592,-202.61481835450834 L670.3311863228266,-191.22462570353466 A4.0,4.0,0,0,0,671.8953558508404,-194.6285034438039 L504.7681309630001,-371.8556196006981" />
<path fill="hsl(45, 18%, 41%)" stroke="black" stroke-width="1" d="M212.0738975022363,-300.0 A187.9261024977637,159.25940889640995,0,0,0,587.9261024977637,-300.0 A187.9261024977637,159.25940889640995,0,0,0,212.0738975022363,-300.0" />
<path fill="black" stroke="black" stroke-width="1" d="M318.4,-339.8148522241025 A9.600000000000001,12.8,0,0,0,337.6,-339.8148522241025 A9.600000000000001,12.8,0,0,0,318.4,-339.8148522241025" />
<path fill="black" stroke="black" stroke-width="1" d="M462.4,-339.8148522241025 A9.600000000000001,12.8,0,0,0,481.6,-339.8148522241025 A9.600000000000001,12.8,0,0,0,462.4,-339.8148522241025" />
<path fill="black" stroke="black" stroke-width="1" d="M389.3,-303.56666666666666 L410.7,-303.56666666666666 L400.0,-289.3 Z" />
<path fill="black" stroke="black" stroke-width="2" d="M400.0,-289.3 L400.0,-273.25" />
<path stroke-width="2" stroke="black" fill="none" d="M378.6,-269.25 A21.4,21.4,30,0,0,400.0,-273.25 A21.4,21.4,150,0,0,421.4,-269.25" />
<path fill="black" stroke="black" stroke-width="1" d="M366.0,-279.3 L321.56741199070285,-267.3943239252841" />
<path fill="black" stroke="black" stroke-width="1" d="M360.0,-285.3 L314.1750438877797,-281.29083583360773" />
<path fill="black" stroke="black" stroke-width="1" d="M366.0,-291.3 L320.1750438877797,-295.3091641663923" />
<path fill="black" stroke="black" stroke-width="1" d="M434.0,-279.3 L478.43258800929715,-267.3943239252841" />
<path fill="black" stroke="black" stroke-width="1" d="M440.0,-285.3 L485.8249561122203,-281.29083583360773" />
<path fill="black" stroke="black" stroke-width="1" d="M434.0,-291.3 L479.8249561122203,-295.3091641663923" />
</g>
</svg>