<?xml version="1.0" encoding="UTF-8"?>
<svg xmlns="http://www.w3.org/2000/svg" xmlns:xlink="http://www.w3.org/1999/xlink"
     width="800" height="600" viewBox="0 -600 800 600">
<defs>
</defs>
<g>
<path fill="hsl(45, 9%, 51%)" stroke="black" stroke-width="1" d="M334.7077261764301,-250.8008749329065 L179.8373396197519,-375.7655234051248 A43.2,43.2,0,0,1,189.94773166682478,-423.7427719848921 L382.0767852117906,-475.5831692047791" />
<path fill="hsl(45, 9%, 51%)" stroke="black" stroke-width="1" d="M465.2922738235699,-250.8008749329065 L620.1626603802481,-375.7655234051248 A43.2,43.2,0,0,0,610.0522683331752,-423.7427719848921 L417.9232147882094,-475.5831692047791" />
<path fill="hsl(45, 9%, 51%)" stroke="black" stroke-width="1" d="M232.27027693339502,-300.0 A167.72972306660498,178.43587560277126,0,0,0,567.729723066605,-300.0 A167.72972306660498,178.43587560277126,0,0,0,232.27027693339502,-300.0" />
<path fill="black" stroke="black" stroke-width="1" d="M314.36,-344.60896890069284 A8.64,10.8,0,0,0,331.64,-344.60896890069284 A8.64,10.8,0,0,0,314.36,-344.60896890069284" />
<path fill="black" stroke="black" stroke-width="1" d="M468.36,-344.60896890069284 A8.64,10.8,0,0,0,485.64,-344.60896890069284 A8.64,10.8,0,0,0,468.36,-344.60896890069284" />
<path fill="black" stroke="black" stroke-width="1" d="M389.1,-303.6333333333333 L410.9,-303.6333333333333 L400.0,-289.1 Z" />
<path fill="black" stroke="black" stroke-width="2" d="M400.0,-289.1 L400.0,-272.75" />
<path stroke-width="2" stroke="black" fill="none" d="M378.2,-268.75 A21.8,21.8,30,0,0,400.0,-272.75 A21.8,21.8,150,0,0,421.8,-268.75" />
<path fill="black" stroke="black" stroke-width="1" d="M366.0,-279.1 L322.53333781699195,-267.4531429703866" />
<path fill="black" stroke="black" stroke-width="1" d="M360.0,-285.1 L315.17123858587144,-281.1779915763554" />
<path fill="black" stroke="black" stroke-width="1" d="M366.0,-291.1 L321.17123858587144,-295.02200842364465" />
<path fill="black" stroke="black" stroke-width="1" d="M434.0,-279.1 L477.46666218300805,-267.4531429703866" />
<path fill="black" stroke="black" stroke-width="1" d="M440.0,-285.1 L484.82876141412856,-281.1779915763554" />
<path fill="black" stroke="black" stroke-width="1" d="M434.0,-291.1 L478.82876141412856,-295.02200842364465" />
</g>
</svg>