<?xml version="1.0" encoding="UTF-8"?>
<svg xmlns="http://www.w3.org/2000/svg" xmlns:xlink="http://www.w3.org/1999/xlink"
     width="800" height="600" viewBox="0 -600 800 600">
<defs>
</defs>
<g>
<path fill="hsl(45, 0%, 62%)" stroke="black" stroke-width="1" d="M388.1353831846352,-198.31128732718471 L239.75246175180268,-166.28397668364417 A52.800000000000004,52.800000000000004,0,0,1,208.05841939533013,-209.62012598775 L283.545043408276,-341.32058003073405" />
<path fill="hsl(45, 0%, 62%)" stroke="black" stroke-width="1" d="M411.8646168153648,-198.31128732718471 L560.2475382481973,-166.28397668364417 A52.800000000000004,52.800000000000004,0,0,0,591.9415806046699,-209.62012598775 L516.454956591724,-341.32058003073405" />
<path fill="hsl(45, 0%, 62%)" stroke="black" stroke-width="1" d="M234.0642292933799,-300.0 A165.9357707066201,180.36496815936965,0,0,0,565.9357707066201,-300.0 A165.9357707066201,180.36496815936965,0,0,0,234.0642292933799,-300.0" />
<path fill="black" stroke="black" stroke-width="1" d="M310.912,-345.0912420398424 A11.088000000000001,13.2,0,0,0,333.088,-345.0912420398424 A11.088000000000001,13.2,0,0,0,310.912,-345.0912420398424" />
<path fill="black" stroke="black" stroke-width="1" d="M466.912,-345.0912420398424 A11.088000000000001,13.2,0,0,0,489.088,-345.0912420398424 A11.088000000000001,13.2,0,0,0,466.912,-345.0912420398424" />
<path fill="black" stroke="black" stroke-width="1" d="M382.7,-305.76666666666665 L417.3,-305.76666666666665 L400.0,-282.7 Z" />
<path fill="black" stroke="black" stroke-width="2" d="M400.0,-282.7 L400.0,-256.75" />
<path stroke-width="2" stroke="black" fill="none" d="M365.4,-252.75 A34.6,34.6,30,0,0,400.0,-256.75 A34.6,34.6,150,0,0,434.6,-252.75" />
<path fill="black" stroke="black" stroke-width="1" d="M366.0,-272.7 L331.2266702535935,-263.38251437630925" />
<path fill="black" stroke="black" stroke-width="1" d="M360.0,-278.7 L324.1369908686972,-275.5623932610843" />
<path fill="black" stroke="black" stroke-width="1" d="M366.0,-284.7 L330.1369908686972,-287.83760673891567" />
<path fill="black" stroke="black" stroke-width="1" d="M434.0,-272.7 L468.7733297464065,-263.38251437630925" />
<path fill="black" stroke="black" stroke-width="1" d="M440.0,-278.7 L475.8630091313028,-275.5623932610843" />
<path fill="black" stroke="black" stroke-width="1" d="M434.0,-284.7 L469.8630091313028,-287.83760673891567" />
</g>
</svg>