<?xml version="1.0" encoding="UTF-8"?>
<svg xmlns="http://www.w3.org/2000/svg" xmlns:xlink="http://www.w3.org/1999/xlink"
     width="800" height="600" viewBox="0 -600 800 600">
<defs>
</defs>
<g>
<path fill="hsl(45, 33%, 61%)" stroke="black" stroke-width="1" d="M297.19164989110106,-312.28017854126233 L233.7718642272265,-459.61004919330696 A24.8,24.8,0,0,1,249.8982883220923,-475.6186915904775 L396.7593134961759,-411.1206351483087" />
<path fill="hsl(45, 33%, 61%)" stroke="black" stroke-width="1" d="M502.80835010889894,-312.28017854126233 L566.2281357727735,-459.61004919330696 A24.8,24.8,0,0,0,550.1017116779077,-475.6186915904775 L403.2406865038241,-411.1206351483087" />
<path fill="hsl(45, 33%, 61%)" stroke="black" stroke-width="1" d="M219.3826973958475,-300.0 A180.6173026041525,165.7039473432592,0,0,0,580.6173026041525,-300.0 A180.6173026041525,165.7039473432592,0,0,0,219.3826973958475,-300.0" />
<path fill="black" stroke="black" stroke-width="1" d="M331.905,-341.4259868358148 A13.094999999999999,13.5,0,0,0,358.095,-341.4259868358148 A13.094999999999999,13.5,0,0,0,331.905,-341.4259868358148" />
<path fill="black" stroke="black" stroke-width="1" d="M441.905,-341.4259868358148 A13.094999999999999,13.5,0,0,0,468.095,-341.4259868358148 A13.094999999999999,13.5,0,0,0,441.905,-341.4259868358148" />
<path fill="black" stroke="black" stroke-width="1" d="M386.4,-304.53333333333336 L413.6,-304.53333333333336 L400.0,-286.4 Z" />
<path fill="black" stroke="black" stroke-width="2" d="M400.0,-286.4 L400.0,-266.0" />
<path stroke-width="2" stroke="black" fill="none" d="M372.8,-262.0 A27.2,27.2,30,0,0,400.0,-266.0 A27.2,27.2,150,0,0,427.2,-262.0" />
<path fill="black" stroke="black" stroke-width="1" d="M366.0,-276.4 L361.17037086855464,-275.1059047744874" />
<path fill="black" stroke="black" stroke-width="1" d="M360.0,-282.4 L355.0190265095413,-281.9642212862617" />
<path fill="black" stroke="black" stroke-width="1" d="M366.0,-288.4 L361.0190265095413,-288.83577871373825" />
<path fill="black" stroke="black" stroke-width="1" d="M434.0,-276.4 L438.82962913144536,-275.1059047744874" />
<path fill="black" stroke="black" stroke-width="1" d="M440.0,-282.4 L444.9809734904587,-281.9642212862617" />
<path fill="black" stroke="black" stroke-width="1" d="M434.0,-288.4 L438.9809734904587,-288.83577871373825" />
</g>
</svg>