<?xml version="1.0" encoding="UTF-8"?>
<svg xmlns="http://www.w3.org/2000/svg" xmlns:xlink="http://www.w3.org/1999/xlink"
     width="800" height="600" viewBox="0 -600 800 600">
<defs>
</defs>
<g>
<path fill="hsl(45, 26%, 45%)" stroke="black" stroke-width="1" d="M311.20531014908966,-267.2478377076885 L153.79294304410246,-444.42104866917884 A4.0,4.0,0,0,1,155.4620307772259,-448.4745745877901 L391.9891564322732,-463.43849216847383" />
<path fill="hsl(45, 26%, 45%)" stroke="black" stroke-width="1" d="M488.79468985091034,-267.2478377076885 L646.2070569558975,-444.42104866917884 A4.0,4.0,0,0,0,644.5379692227741,-448.4745745877901 L408.0108435677268,-463.43849216847383" />
<path fill="hsl(45, 26%, 45%)" stroke="black" stroke-width="1" d="M208.1337184391171,-300.0 A191.8662815608829,155.9888467974658,0,0,0,591.866281560883,-300.0 A191.8662815608829,155.9888467974658,0,0,0,208.1337184391171,-300.0" />
<path fill="black" stroke="black" stroke-width="1" d="M324.692,-338.99721169936646 A14.308000000000002,14.600000000000001,0,0,0,353.308,-338.99721169936646 A14.308000000000002,14.600000000000001,0,0,0,324.692,-338.99721169936646" />
<path fill="black" stroke="black" stroke-width="1" d="M446.692,-338.99721169936646 A14.308000000000002,14.600000000000001,0,0,0,475.308,-338.99721169936646 A14.308000000000002,14.600000000000001,0,0,0,446.692,-338.99721169936646" />
<path fill="black" stroke="black" stroke-width="1" d="M389.5,-303.5 L410.5,-303.5 L400.0,-289.5 Z" />
<path fill="black" stroke="black" stroke-width="2" d="M400.0,-289.5 L400.0,-273.75" />
<path stroke-width="2" stroke="black" fill="none" d="M379.0,-269.75 A21.0,21.0,30,0,0,400.0,-273.75 A21.0,21.0,150,0,0,421.0,-269.75" />
<path fill="black" stroke="black" stroke-width="1" d="M366.0,-279.5 L346.6814834742186,-274.3236190979496" />
<path fill="black" stroke="black" stroke-width="1" d="M360.0,-285.5 L340.0761060381651,-283.75688514504685" />
<path fill="black" stroke="black" stroke-width="1" d="M366.0,-291.5 L346.0761060381651,-293.24311485495315" />
<path fill="black" stroke="black" stroke-width="1" d="M434.0,-279.5 L453.3185165257814,-274.3236190979496" />
<path fill="black" stroke="black" stroke-width="1" d="M440.0,-285.5 L459.9238939618349,-283.75688514504685" />
<path fill="black" stroke="black" stroke-width="1" d="M434.0,-291.5 L453.9238939618349,-293.24311485495315" />
</g>
</svg>