<?xml version="1.0" encoding="UTF-8"?>
<svg xmlns="http://www.w3.org/2000/svg" xmlns:xlink="http://www.w3.org/1999/xlink"
     width="800" height="600" viewBox="0 -600 800 600">
<defs>
</defs>
<g>
<path fill="hsl(45, 21%, 76%)" stroke="black" stroke-width="1" d="M359.27917306279915,-220.42310603631174 L202.22496156956083,-201.41745813267056 A33.6,33.6,0,0,1,183.46543557113023,-231.55589699967382 L269.85876580361287,-364.08299796902725" />
<path fill="hsl(45, 21%, 76%)" stroke="black" stroke-width="1" d="M440.72082693720085,-220.42310603631174 L597.7750384304392,-201.41745813267056 A33.6,33.6,0,0,0,616.5345644288698,-231.55589699967382 L530.1412341963871,-364.08299796902725" />
<path fill="hsl(45, 21%, 76%)" stroke="black" stroke-width="1" d="M231.38045783480493,-300.0 A168.61954216519507,177.49425491073166,0,0,0,568.6195421651951,-300.0 A168.61954216519507,177.49425491073166,0,0,0,231.38045783480493,-300.0" />
<path fill="black" stroke="black" stroke-width="1" d="M329.054,-344.3735637276829 A7.945999999999999,13.7,0,0,0,344.946,-344.3735637276829 A7.945999999999999,13.7,0,0,0,329.054,-344.3735637276829" />
<path fill="black" stroke="black" stroke-width="1" d="M455.054,-344.3735637276829 A7.945999999999999,13.7,0,0,0,470.946,-344.3735637276829 A7.945999999999999,13.7,0,0,0,455.054,-344.3735637276829" />
<path fill="black" stroke="black" stroke-width="1" d="M384.4,-305.2 L415.6,-305.2 L400.0,-284.4 Z" />
<path fill="black" stroke="black" stroke-width="2" d="M400.0,-284.4 L400.0,-261.0" />
<path stroke-width="2" stroke="black" fill="none" d="M368.8,-257.0 A31.200000000000003,31.200000000000003,30,0,0,400.0,-261.0 A31.200000000000003,31.200000000000003,150,0,0,431.2,-257.0" />
<path fill="black" stroke="black" stroke-width="1" d="M366.0,-274.4 L333.1585219061717,-265.60015246651426" />
<path fill="black" stroke="black" stroke-width="1" d="M360.0,-280.4 L326.12938026488064,-277.4367047465796" />
<path fill="black" stroke="black" stroke-width="1" d="M366.0,-286.4 L332.12938026488064,-289.36329525342035" />
<path fill="black" stroke="black" stroke-width="1" d="M434.0,-274.4 L466.8414780938283,-265.60015246651426" />
<path fill="black" stroke="black" stroke-width="1" d="M440.0,-280.4 L473.87061973511936,-277.4367047465796" />
<path fill="black" stroke="black" stroke-width="1" d="M434.0,-286.4 L467.87061973511936,-289.36329525342035" />
</g>
</svg>