<?xml version="1.0" encoding="UTF-8"?>
<svg xmlns="http://www.w3.org/2000/svg" xmlns:xlink="http://www.w3.org/1999/xlink"
     width="800" height="600" viewBox="0 -600 800 600">
<defs>
</defs>
<g>
<path fill="hsl(45, 24%, 57%)" stroke="black" stroke-width="1" d="M339.38162765172535,-203.48165519679338 L125.12526428070078,-227.51435698047717 A8.8,8.8,0,0,1,122.02610367583509,-236.46419881769356 L275.53891919149396,-387.8483970434506" />
<path fill="hsl(45, 24%, 57%)" stroke="black" stroke-width="1" d="M460.61837234827465,-203.48165519679338 L674.8747357192992,-227.51435698047717 A8.8,8.8,0,0,0,677.9738963241649,-236.46419881769356 L524.461080808506,-387.8483970434506" />
<path fill="hsl(45, 24%, 57%)" stroke="black" stroke-width="1" d="M205.03890131618567,-300.0 A194.96109868381433,153.5126761289877,0,0,0,594.9610986838143,-300.0 A194.96109868381433,153.5126761289877,0,0,0,205.03890131618567,-300.0" />
<path fill="black" stroke="black" stroke-width="1" d="M320.464,-338.37816903224694 A13.536000000000001,14.100000000000001,0,0,0,347.536,-338.37816903224694 A13.536000000000001,14.100000000000001,0,0,0,320.464,-338.37816903224694" />
<path fill="black" stroke="black" stroke-width="1" d="M452.464,-338.37816903224694 A13.536000000000001,14.100000000000001,0,0,0,479.536,-338.37816903224694 A13.536000000000001,14.100000000000001,0,0,0,452.464,-338.37816903224694" />
<path fill="black" stroke="black" stroke-width="1" d="M387.3,-304.23333333333335 L412.7,-304.23333333333335 L400.0,-287.3 Z" />
<path fill="black" stroke="black" stroke-width="2" d="M400.0,-287.3 L400.0,-268.25" />
<path stroke-width="2" stroke="black" fill="none" d="M374.6,-264.25 A25.4,25.4,30,0,0,400.0,-268.25 A25.4,25.4,150,0,0,425.4,-264.25" />
<path fill="black" stroke="black" stroke-width="1" d="M366.0,-277.3 L344.7496318216405,-271.60598100774456" />
<path fill="black" stroke="black" stroke-width="1" d="M360.0,-283.3 L338.0837166419816,-281.38257365955155" />
<path fill="black" stroke="black" stroke-width="1" d="M366.0,-289.3 L344.0837166419816,-291.21742634044847" />
<path fill="black" stroke="black" stroke-width="1" d="M434.0,-277.3 L455.2503681783595,-271.60598100774456" />
<path fill="black" stroke="black" stroke-width="1" d="M440.0,-283.3 L461.9162833580184,-281.38257365955155" />
<path fill="black" stroke="black" stroke-width="1" d="M434.0,-289.3 L455.9162833580184,-291.21742634044847" />
</g>
</svg>