<?xml version="1.0" encoding="UTF-8"?>
<svg xmlns="http://www.w3.org/2000/svg" xmlns:xlink="http://www.w3.org/1999/xlink"
     width="800" height="600" viewBox="0 -600 800 600">
<defs>
</defs>
<g>
<path fill="hsl(45, 6%, 74%)" stroke="black" stroke-width="1" d="M312.71275163931864,-271.18834765758265 L212.34377127213804,-363.2562996281382 A51.2,51.2,0,0,1,228.77305095117356,-413.73048316524756 L364.10559213530166,-429.0779030346027" />
<path fill="hsl(45, 6%, 74%)" stroke="black" stroke-width="1" d="M487.28724836068136,-271.18834765758265 L587.656228727862,-363.2562996281382 A51.2,51.2,0,0,0,571.2269490488264,-413.73048316524756 L435.89440786469834,-429.0779030346027" />
<path fill="hsl(45, 6%, 74%)" stroke="black" stroke-width="1" d="M235.87778943726113,-300.0 A164.12221056273887,182.35801173637654,0,0,0,564.1222105627389,-300.0 A164.12221056273887,182.35801173637654,0,0,0,235.87778943726113,-300.0" />
<path fill="black" stroke="black" stroke-width="1" d="M329.095,-345.5895029340941 A8.905,13.7,0,0,0,346.905,-345.5895029340941 A8.905,13.7,0,0,0,329.095,-345.5895029340941" />
<path fill="black" stroke="black" stroke-width="1" d="M453.095,-345.5895029340941 A8.905,13.7,0,0,0,470.905,-345.5895029340941 A8.905,13.7,0,0,0,453.095,-345.5895029340941" />
<path fill="black" stroke="black" stroke-width="1" d="M388.6,-303.8 L411.4,-303.8 L400.0,-288.6 Z" />
<path fill="black" stroke="black" stroke-width="2" d="M400.0,-288.6 L400.0,-271.5" />
<path stroke-width="2" stroke="black" fill="none" d="M377.2,-267.5 A22.8,22.8,30,0,0,400.0,-271.5 A22.8,22.8,150,0,0,422.8,-267.5" />
<path fill="black" stroke="black" stroke-width="1" d="M366.0,-278.6 L350.5451867793749,-274.4588952783597" />
<path fill="black" stroke="black" stroke-width="1" d="M360.0,-284.6 L344.0608848305321,-283.2055081160375" />
<path fill="black" stroke="black" stroke-width="1" d="M366.0,-290.6 L350.0608848305321,-291.99449188396255" />
<path fill="black" stroke="black" stroke-width="1" d="M434.0,-278.6 L449.4548132206251,-274.4588952783597" />
<path fill="black" stroke="black" stroke-width="1" d="M440.0,-284.6 L455.9391151694679,-283.2055081160375" />
<path fill="black" stroke="black" stroke-width="1" d="M434.0,-290.6 L449.9391151694679,-291.99449188396255" />
</g>
</svg>