<?xml version="1.0" encoding="UTF-8"?>
<svg xmlns="http://www.w3.org/2000/svg" xmlns:xlink="http://www.w3.org/1999/xlink"
     width="800" height="600" viewBox="0 -600 800 600">
<defs>
</defs>
<g>
<path fill="hsl(45, 44%, 40%)" stroke="black" stroke-width="1" d="M388.136606269092,-201.00086844158818 L261.14968627358894,-120.41251847674708 A24.0,24.0,0,0,1,242.87411190160617,-133.49654464473355 L278.2394857122357,-279.6794791317469" />
<path fill="hsl(45, 44%, 40%)" stroke="black" stroke-width="1" d="M411.863393730908,-201.00086844158818 L538.8503137264111,-120.41251847674708 A24.0,24.0,0,0,0,557.1258880983938,-133.49654464473355 L521.7605142877643,-279.6794791317469" />
<path fill="hsl(45, 44%, 40%)" stroke="black" stroke-width="1" d="M229.61476002892738,-300.0 A170.38523997107262,175.6548865681161,0,0,0,570.3852399710727,-300.0 A170.38523997107262,175.6548865681161,0,0,0,229.61476002892738,-300.0" />
<path fill="black" stroke="black" stroke-width="1" d="M319.1,-343.91372164202903 A11.900000000000002,14.0,0,0,0,342.9,-343.91372164202903 A11.900000000000002,14.0,0,0,0,319.1,-343.91372164202903" />
<path fill="black" stroke="black" stroke-width="1" d="M457.1,-343.91372164202903 A11.900000000000002,14.0,0,0,0,480.9,-343.91372164202903 A11.900000000000002,14.0,0,0,0,457.1,-343.91372164202903" />
<path fill="black" stroke="black" stroke-width="1" d="M386.9,-304.3666666666667 L413.1,-304.3666666666667 L400.0,-286.9 Z" />
<path fill="black" stroke="black" stroke-width="2" d="M400.0,-286.9 L400.0,-267.25" />
<path stroke-width="2" stroke="black" fill="none" d="M373.8,-263.25 A26.2,26.2,30,0,0,400.0,-267.25 A26.2,26.2,150,0,0,426.2,-263.25" />
<path fill="black" stroke="black" stroke-width="1" d="M366.0,-276.9 L356.34074173710934,-274.3118095489748" />
<path fill="black" stroke="black" stroke-width="1" d="M360.0,-282.9 L350.03805301908255,-282.0284425725234" />
<path fill="black" stroke="black" stroke-width="1" d="M366.0,-288.9 L356.03805301908255,-289.7715574274766" />
<path fill="black" stroke="black" stroke-width="1" d="M434.0,-276.9 L443.65925826289066,-274.3118095489748" />
<path fill="black" stroke="black" stroke-width="1" d="M440.0,-282.9 L449.96194698091745,-282.0284425725234" />
<path fill="black" stroke="black" stroke-width="1" d="M434.0,-288.9 L443.96194698091745,-289.7715574274766" />
</g>
</svg>