<?xml version="1.0" encoding="UTF-8"?>
<svg xmlns="http://www.w3.org/2000/svg" xmlns:xlink="http://www.w3.org/1999/xlink"
     width="800" height="600" viewBox="0 -600 800 600">
<defs>
</defs>
<g>
<path fill="hsl(45, 13%, 75%)" stroke="black" stroke-width="1" d="M366.3843953729264,-178.92954957138713 L117.94061717091495,-213.22720361229398 A0.0,0.0,0,0,1,117.94061717091495,-213.22720361229398 L297.92480040196364,-387.8878282151286" />
<path fill="hsl(45, 13%, 75%)" stroke="black" stroke-width="1" d="M433.6156046270736,-178.92954957138713 L682.059382829085,-213.22720361229398 A0.0,0.0,0,0,0,682.059382829085,-213.22720361229398 L502.07519959803636,-387.8878282151286" />
<path fill="hsl(45, 13%, 75%)" stroke="black" stroke-width="1" d="M216.9140092743303,-300.0 A183.0859907256697,163.46963457649076,0,0,0,583.0859907256697,-300.0 A183.0859907256697,163.46963457649076,0,0,0,216.9140092743303,-300.0" />
<path fill="black" stroke="black" stroke-width="1" d="M321.534,-340.8674086441227 A11.466,12.6,0,0,0,344.466,-340.8674086441227 A11.466,12.6,0,0,0,321.534,-340.8674086441227" />
<path fill="black" stroke="black" stroke-width="1" d="M455.534,-340.8674086441227 A11.466,12.6,0,0,0,478.466,-340.8674086441227 A11.466,12.6,0,0,0,455.534,-340.8674086441227" />
<path fill="black" stroke="black" stroke-width="1" d="M387.4,-304.2 L412.6,-304.2 L400.0,-287.4 Z" />
<path fill="black" stroke="black" stroke-width="2" d="M400.0,-287.4 L400.0,-268.5" />
<path stroke-width="2" stroke="black" fill="none" d="M374.8,-264.5 A25.2,25.2,30,0,0,400.0,-268.5 A25.2,25.2,150,0,0,425.2,-264.5" />
<path fill="black" stroke="black" stroke-width="1" d="M366.0,-277.4 L314.80593120667936,-263.6825906095664" />
<path fill="black" stroke="black" stroke-width="1" d="M360.0,-283.4 L307.2016810011375,-278.7807456343741" />
<path fill="black" stroke="black" stroke-width="1" d="M366.0,-289.4 L313.2016810011375,-294.01925436562584" />
<path fill="black" stroke="black" stroke-width="1" d="M434.0,-277.4 L485.19406879332064,-263.6825906095664" />
<path fill="black" stroke="black" stroke-width="1" d="M440.0,-283.4 L492.7983189988625,-278.7807456343741" />
<path fill="black" stroke="black" stroke-width="1" d="M434.0,-289.4 L486.7983189988625,-294.01925436562584" />
</g>
</svg>