<?xml version="1.0" encoding="UTF-8"?>
<svg xmlns="http://www.w3.org/2000/svg" xmlns:xlink="http://www.w3.org/1999/xlink"
     width="800" height="600" viewBox="0 -600 800 600">
<defs>
</defs>
<g>
<path fill="hsl(45, 30%, 42%)" stroke="black" stroke-width="1" d="M340.43549959645077,-213.71639846005132 L193.20136780745702,-256.7706716085002 A48.0,48.0,0,0,1,188.73666783421083,-301.50119688722464 L324.5560500249382,-372.80796670138125" />
<path fill="hsl(45, 30%, 42%)" stroke="black" stroke-width="1" d="M459.56450040354923,-213.71639846005132 L606.798632192543,-256.7706716085002 A48.0,48.0,0,0,0,611.2633321657892,-301.50119688722464 L475.4439499750618,-372.80796670138125" />
<path fill="hsl(45, 30%, 42%)" stroke="black" stroke-width="1" d="M231.38045783480493,-300.0 A168.61954216519507,177.49425491073166,0,0,0,568.6195421651951,-300.0 A168.61954216519507,177.49425491073166,0,0,0,231.38045783480493,-300.0" />
<path fill="black" stroke="black" stroke-width="1" d="M314.68,-344.3735637276829 A12.32,14.0,0,0,0,339.32,-344.3735637276829 A12.32,14.0,0,0,0,314.68,-344.3735637276829" />
<path fill="black" stroke="black" stroke-width="1" d="M460.68,-344.3735637276829 A12.32,14.0,0,0,0,485.32,-344.3735637276829 A12.32,14.0,0,0,0,460.68,-344.3735637276829" />
<path fill="black" stroke="black" stroke-width="1" d="M389.9,-303.3666666666667 L410.1,-303.3666666666667 L400.0,-289.9 Z" />
<path fill="black" stroke="black" stroke-width="2" d="M400.0,-289.9 L400.0,-274.75" />
<path stroke-width="2" stroke="black" fill="none" d="M379.8,-270.75 A20.2,20.2,30,0,0,400.0,-274.75 A20.2,20.2,150,0,0,420.2,-270.75" />
<path fill="black" stroke="black" stroke-width="1" d="M366.0,-279.9 L365.0340741737109,-279.64118095489744" />
<path fill="black" stroke="black" stroke-width="1" d="M360.0,-285.9 L359.00380530190824,-285.8128442572523" />
<path fill="black" stroke="black" stroke-width="1" d="M366.0,-291.9 L365.00380530190824,-291.98715574274763" />
<path fill="black" stroke="black" stroke-width="1" d="M434.0,-279.9 L434.9659258262891,-279.64118095489744" />
<path fill="black" stroke="black" stroke-width="1" d="M440.0,-285.9 L440.99619469809176,-285.8128442572523" />
<path fill="black" stroke="black" stroke-width="1" d="M434.0,-291.9 L434.99619469809176,-291.98715574274763" />
</g>
</svg>