<?xml version="1.0" encoding="UTF-8"?>
<svg xmlns="http://www.w3.org/2000/svg" xmlns:xlink="http://www.w3.org/1999/xlink"
     width="800" height="600" viewBox="0 -600 800 600">
<defs>
</defs>
<g>
<path fill="hsl(45, 24%, 78%)" stroke="black" stroke-width="1" d="M407.07062575038464,-193.08071626032566 L239.11771675079376,-131.75160116337383 A31.200000000000003,31.200000000000003,0,0,1,218.30910352469698,-154.01930990653915 L290.8625241954136,-317.4373050875413" />
<path fill="hsl(45, 24%, 78%)" stroke="black" stroke-width="1" d="M392.92937424961536,-193.08071626032566 L560.8822832492062,-131.75160116337383 A31.200000000000003,31.200000000000003,0,0,0,581.690896475303,-154.01930990653915 L509.1374758045864,-317.4373050875413" />
<path fill="hsl(45, 24%, 78%)" stroke="black" stroke-width="1" d="M245.26409595701455,-300.0 A154.73590404298545,193.41988005373182,0,0,0,554.7359040429855,-300.0 A154.73590404298545,193.41988005373182,0,0,0,245.26409595701455,-300.0" />
<path fill="black" stroke="black" stroke-width="1" d="M319.664,-348.35497001343293 A7.336,13.1,0,0,0,334.336,-348.35497001343293 A7.336,13.1,0,0,0,319.664,-348.35497001343293" />
<path fill="black" stroke="black" stroke-width="1" d="M465.664,-348.35497001343293 A7.336,13.1,0,0,0,480.336,-348.35497001343293 A7.336,13.1,0,0,0,465.664,-348.35497001343293" />
<path fill="black" stroke="black" stroke-width="1" d="M386.3,-304.56666666666666 L413.7,-304.56666666666666 L400.0,-286.3 Z" />
<path fill="black" stroke="black" stroke-width="2" d="M400.0,-286.3 L400.0,-265.75" />
<path stroke-width="2" stroke="black" fill="none" d="M372.6,-261.75 A27.4,27.4,30,0,0,400.0,-265.75 A27.4,27.4,150,0,0,427.4,-261.75" />
<path fill="black" stroke="black" stroke-width="1" d="M366.0,-276.3 L332.1925960798826,-267.2413334214118" />
<path fill="black" stroke="black" stroke-width="1" d="M360.0,-282.3 L325.1331855667889,-279.249549003832" />
<path fill="black" stroke="black" stroke-width="1" d="M366.0,-288.3 L331.1331855667889,-291.35045099616804" />
<path fill="black" stroke="black" stroke-width="1" d="M434.0,-276.3 L467.8074039201174,-267.2413334214118" />
<path fill="black" stroke="black" stroke-width="1" d="M440.0,-282.3 L474.8668144332111,-279.249549003832" />
<path fill="black" stroke="black" stroke-width="1" d="M434.0,-288.3 L468.8668144332111,-291.35045099616804" />
</g>
</svg>