<?xml version="1.0" encoding="UTF-8"?>
<svg xmlns="http://www.w3.org/2000/svg" xmlns:xlink="http://www.w3.org/1999/xlink"
     width="800" height="600" viewBox="0 -600 800 600">
<defs>
</defs>
<g>
<path fill="hsl(45, 28%, 56%)" stroke="black" stroke-width="1" d="M332.2720191260711,-224.46461024096146 L160.23466336170952,-302.72154745170667 A51.2,51.2,0,0,1,161.50896195634277,-352.7188953042838 L337.30948075798074,-422.1103759706808" />
<path fill="hsl(45, 28%, 56%)" stroke="black" stroke-width="1" d="M467.7279808739289,-224.46461024096146 L639.7653366382905,-302.72154745170667 A51.2,51.2,0,0,0,638.4910380436572,-352.7188953042838 L462.69051924201926,-422.1103759706808" />
<path fill="hsl(45, 28%, 56%)" stroke="black" stroke-width="1" d="M215.28654623985832,-300.0 A184.71345376014168,162.02934540363304,0,0,0,584.7134537601416,-300.0 A184.71345376014168,162.02934540363304,0,0,0,215.28654623985832,-300.0" />
<path fill="black" stroke="black" stroke-width="1" d="M329.52,-340.50733635090825 A6.48,10.8,0,0,0,342.48,-340.50733635090825 A6.48,10.8,0,0,0,329.52,-340.50733635090825" />
<path fill="black" stroke="black" stroke-width="1" d="M457.52,-340.50733635090825 A6.48,10.8,0,0,0,470.48,-340.50733635090825 A6.48,10.8,0,0,0,457.52,-340.50733635090825" />
<path fill="black" stroke="black" stroke-width="1" d="M384.8,-305.06666666666666 L415.2,-305.06666666666666 L400.0,-284.8 Z" />
<path fill="black" stroke="black" stroke-width="2" d="M400.0,-284.8 L400.0,-262.0" />
<path stroke-width="2" stroke="black" fill="none" d="M369.6,-258.0 A30.4,30.4,30,0,0,400.0,-262.0 A30.4,30.4,150,0,0,430.4,-258.0" />
<path fill="black" stroke="black" stroke-width="1" d="M366.0,-274.8 L359.2385192159765,-272.9882666842824" />
<path fill="black" stroke="black" stroke-width="1" d="M360.0,-280.8 L353.02663711335776,-280.18990980076643" />
<path fill="black" stroke="black" stroke-width="1" d="M366.0,-286.8 L359.02663711335776,-287.4100901992336" />
<path fill="black" stroke="black" stroke-width="1" d="M434.0,-274.8 L440.7614807840235,-272.9882666842824" />
<path fill="black" stroke="black" stroke-width="1" d="M440.0,-280.8 L446.97336288664224,-280.18990980076643" />
<path fill="black" stroke="black" stroke-width="1" d="M434.0,-286.8 L440.97336288664224,-287.4100901992336" />
</g>
</svg>