<?xml version="1.0" encoding="UTF-8"?>
<svg xmlns="http://www.w3.org/2000/svg" xmlns:xlink="http://www.w3.org/1999/xlink"
     width="800" height="600" viewBox="0 -600 800 600">
<defs>
</defs>
<g>
<path fill="hsl(45, 32%, 62%)" stroke="black" stroke-width="1" d="M379.2485824980554,-215.34825805848072 L200.57206630122243,-187.71960337239614 A56.0,56.0,0,0,1,166.61616641541525,-237.51575815021639 L257.5894440500489,-393.7607668910138" />
<path fill="hsl(45, 32%, 62%)" stroke="black" stroke-width="1" d="M420.7514175019446,-215.34825805848072 L599.4279336987776,-187.71960337239614 A56.0,56.0,0,0,0,633.3838335845847,-237.51575815021639 L542.4105559499511,-393.7607668910138" />
<path fill="hsl(45, 32%, 62%)" stroke="black" stroke-width="1" d="M212.87188880341898,-300.0 A187.12811119658102,159.93855657827442,0,0,0,587.128111196581,-300.0 A187.12811119658102,159.93855657827442,0,0,0,212.87188880341898,-300.0" />
<path fill="black" stroke="black" stroke-width="1" d="M320.219,-339.98463914456863 A11.781,11.9,0,0,0,343.781,-339.98463914456863 A11.781,11.9,0,0,0,320.219,-339.98463914456863" />
<path fill="black" stroke="black" stroke-width="1" d="M456.219,-339.98463914456863 A11.781,11.9,0,0,0,479.781,-339.98463914456863 A11.781,11.9,0,0,0,456.219,-339.98463914456863" />
<path fill="black" stroke="black" stroke-width="1" d="M386.8,-304.4 L413.2,-304.4 L400.0,-286.8 Z" />
<path fill="black" stroke="black" stroke-width="2" d="M400.0,-286.8 L400.0,-267.0" />
<path stroke-width="2" stroke="black" fill="none" d="M373.6,-263.0 A26.4,26.4,30,0,0,400.0,-267.0 A26.4,26.4,150,0,0,426.4,-263.0" />
<path fill="black" stroke="black" stroke-width="1" d="M366.0,-276.8 L352.477038431953,-273.1765333685647" />
<path fill="black" stroke="black" stroke-width="1" d="M360.0,-282.8 L346.0532742267156,-281.5798196015328" />
<path fill="black" stroke="black" stroke-width="1" d="M366.0,-288.8 L352.0532742267156,-290.02018039846723" />
<path fill="black" stroke="black" stroke-width="1" d="M434.0,-276.8 L447.522961568047,-273.1765333685647" />
<path fill="black" stroke="black" stroke-width="1" d="M440.0,-282.8 L453.9467257732844,-281.5798196015328" />
<path fill="black" stroke="black" stroke-width="1" d="M434.0,-288.8 L447.9467257732844,-290.02018039846723" />
</g>
</svg>