<?xml version="1.0" encoding="UTF-8"?>
<svg xmlns="http://www.w3.org/2000/svg" xmlns:xlink="http://www.w3.org/1999/xlink"
     width="800" height="600" viewBox="0 -600 800 600">
<defs>
</defs>
<g>
<path fill="hsl(45, 44%, 44%)" stroke="black" stroke-width="1" d="M292.9057762050186,-293.9774053805652 L221.4957625232587,-488.4830606864479 A12.0,12.0,0,0,1,231.00698445143246,-499.486377846654 L433.79867703436565,-456.97321024708407" />
<path fill="hsl(45, 44%, 44%)" stroke="black" stroke-width="1" d="M507.0942237949814,-293.9774053805652 L578.5042374767413,-488.4830606864479 A12.0,12.0,0,0,0,568.9930155485675,-499.486377846654 L366.20132296563435,-456.97321024708407" />
<path fill="hsl(45, 44%, 44%)" stroke="black" stroke-width="1" d="M247.21053701252825,-300.0 A152.78946298747175,195.88392690701505,0,0,0,552.7894629874718,-300.0 A152.78946298747175,195.88392690701505,0,0,0,247.21053701252825,-300.0" />
<path fill="black" stroke="black" stroke-width="1" d="M325.507,-348.97098172675373 A8.493,14.9,0,0,0,342.493,-348.97098172675373 A8.493,14.9,0,0,0,325.507,-348.97098172675373" />
<path fill="black" stroke="black" stroke-width="1" d="M457.507,-348.97098172675373 A8.493,14.9,0,0,0,474.493,-348.97098172675373 A8.493,14.9,0,0,0,457.507,-348.97098172675373" />
<path fill="black" stroke="black" stroke-width="1" d="M382.8,-305.73333333333335 L417.2,-305.73333333333335 L400.0,-282.8 Z" />
<path fill="black" stroke="black" stroke-width="2" d="M400.0,-282.8 L400.0,-257.0" />
<path stroke-width="2" stroke="black" fill="none" d="M365.6,-253.0 A34.4,34.4,30,0,0,400.0,-257.0 A34.4,34.4,150,0,0,434.4,-253.0" />
<path fill="black" stroke="black" stroke-width="1" d="M366.0,-272.8 L321.56741199070285,-260.8943239252841" />
<path fill="black" stroke="black" stroke-width="1" d="M360.0,-278.8 L314.1750438877797,-274.79083583360773" />
<path fill="black" stroke="black" stroke-width="1" d="M366.0,-284.8 L320.1750438877797,-288.8091641663923" />
<path fill="black" stroke="black" stroke-width="1" d="M434.0,-272.8 L478.43258800929715,-260.8943239252841" />
<path fill="black" stroke="black" stroke-width="1" d="M440.0,-278.8 L485.8249561122203,-274.79083583360773" />
<path fill="black" stroke="black" stroke-width="1" d="M434.0,-284.8 L479.8249561122203,-288.8091641663923" />
</g>
</svg>