<?xml version="1.0" encoding="UTF-8"?>
<svg xmlns="http://www.w3.org/2000/svg" xmlns:xlink="http://www.w3.org/1999/xlink"
     width="800" height="600" viewBox="0 -600 800 600">
<defs>
</defs>
<g>
<path fill="hsl(45, 5%, 62%)" stroke="black" stroke-width="1" d="M317.6244712075953,-255.48048787665087 L209.42444724456686,-366.74501418400587 A62.400000000000006,62.400000000000006,0,0,1,230.66230651373178,-441.79801767929007 L381.12022481745737,-479.8697239676802" />
<path fill="hsl(45, 5%, 62%)" stroke="black" stroke-width="1" d="M482.3755287924047,-255.48048787665087 L590.5755527554331,-366.74501418400587 A62.400000000000006,62.400000000000006,0,0,0,569.3376934862682,-441.79801767929007 L418.87977518254263,-479.8697239676802" />
<path fill="hsl(45, 5%, 62%)" stroke="black" stroke-width="1" d="M234.9685181548684,-300.0 A165.0314818451316,181.35327675289187,0,0,0,565.0314818451316,-300.0 A165.0314818451316,181.35327675289187,0,0,0,234.9685181548684,-300.0" />
<path fill="black" stroke="black" stroke-width="1" d="M308.603,-345.33831918822295 A11.397,13.1,0,0,0,331.397,-345.33831918822295 A11.397,13.1,0,0,0,308.603,-345.33831918822295" />
<path fill="black" stroke="black" stroke-width="1" d="M468.603,-345.33831918822295 A11.397,13.1,0,0,0,491.397,-345.33831918822295 A11.397,13.1,0,0,0,468.603,-345.33831918822295" />
<path fill="black" stroke="black" stroke-width="1" d="M389.1,-303.6333333333333 L410.9,-303.6333333333333 L400.0,-289.1 Z" />
<path fill="black" stroke="black" stroke-width="2" d="M400.0,-289.1 L400.0,-272.75" />
<path stroke-width="2" stroke="black" fill="none" d="M378.2,-268.75 A21.8,21.8,30,0,0,400.0,-272.75 A21.8,21.8,150,0,0,421.8,-268.75" />
<path fill="black" stroke="black" stroke-width="1" d="M366.0,-279.1 L345.7155576479296,-273.6648000528471" />
<path fill="black" stroke="black" stroke-width="1" d="M360.0,-285.1 L339.07991134007335,-283.2697294022992" />
<path fill="black" stroke="black" stroke-width="1" d="M366.0,-291.1 L345.07991134007335,-292.9302705977008" />
<path fill="black" stroke="black" stroke-width="1" d="M434.0,-279.1 L454.2844423520704,-273.6648000528471" />
<path fill="black" stroke="black" stroke-width="1" d="M440.0,-285.1 L460.92008865992665,-283.2697294022992" />
<path fill="black" stroke="black" stroke-width="1" d="M434.0,-291.1 L454.92008865992665,-292.9302705977008" />
</g>
</svg>