<?xml version="1.0" encoding="UTF-8"?>
<svg xmlns="http://www.w3.org/2000/svg" xmlns:xlink="http://www.w3.org/1999/xlink"
     width="800" height="600" viewBox="0 -600 800 600">
<defs>
</defs>
<g>
<path fill="hsl(45, 44%, 57%)" stroke="black" stroke-width="1" d="M352.56537086843025,-211.43848540898608 L173.21087596633777,-234.25525902874412 A12.0,12.0,0,0,1,170.19114532729964,-245.33150276629829 L313.14782026018656,-356.0203869965267" />
<path fill="hsl(45, 44%, 57%)" stroke="black" stroke-width="1" d="M447.43462913156975,-211.43848540898608 L626.7891240336622,-234.25525902874412 A12.0,12.0,0,0,0,629.8088546727004,-245.33150276629829 L486.85217973981344,-356.0203869965267" />
<path fill="hsl(45, 44%, 57%)" stroke="black" stroke-width="1" d="M240.50188088883306,-300.0 A159.49811911116694,187.6448460131376,0,0,0,559.498119111167,-300.0 A159.49811911116694,187.6448460131376,0,0,0,240.50188088883306,-300.0" />
<path fill="black" stroke="black" stroke-width="1" d="M341.064,-346.9112115032844 A5.936,10.6,0,0,0,352.936,-346.9112115032844 A5.936,10.6,0,0,0,341.064,-346.9112115032844" />
<path fill="black" stroke="black" stroke-width="1" d="M447.064,-346.9112115032844 A5.936,10.6,0,0,0,458.936,-346.9112115032844 A5.936,10.6,0,0,0,447.064,-346.9112115032844" />
<path fill="black" stroke="black" stroke-width="1" d="M383.3,-305.56666666666666 L416.7,-305.56666666666666 L400.0,-283.3 Z" />
<path fill="black" stroke="black" stroke-width="2" d="M400.0,-283.3 L400.0,-258.25" />
<path stroke-width="2" stroke="black" fill="none" d="M366.6,-254.25 A33.4,33.4,30,0,0,400.0,-258.25 A33.4,33.4,150,0,0,433.4,-254.25" />
<path fill="black" stroke="black" stroke-width="1" d="M366.0,-273.3 L337.02222521132796,-265.5354286469244" />
<path fill="black" stroke="black" stroke-width="1" d="M360.0,-279.3 L330.11415905724766,-276.68532771757026" />
<path fill="black" stroke="black" stroke-width="1" d="M366.0,-285.3 L336.11415905724766,-287.91467228242976" />
<path fill="black" stroke="black" stroke-width="1" d="M434.0,-273.3 L462.97777478867204,-265.5354286469244" />
<path fill="black" stroke="black" stroke-width="1" d="M440.0,-279.3 L469.88584094275234,-276.68532771757026" />
<path fill="black" stroke="black" stroke-width="1" d="M434.0,-285.3 L463.88584094275234,-287.91467228242976" />
</g>
</svg>