<?xml version="1.0" encoding="UTF-8"?>
<svg xmlns="http://www.w3.org/2000/svg" xmlns:xlink="http://www.w3.org/1999/xlink"
     width="800" height="600" viewBox="0 -600 800 600">
<defs>
</defs>
<g>
<path fill="hsl(45, 49%, 78%)" stroke="black" stroke-width="1" d="M298.59947799645323,-283.93545655078583 L216.27344060936503,-460.4842134655253 A27.200000000000003,27.200000000000003,0,0,1,233.2015847275643,-478.01381985613614 L412.51593018009964,-401.8993960264256" />
<path fill="hsl(45, 49%, 78%)" stroke="black" stroke-width="1" d="M501.40052200354677,-283.93545655078583 L583.726559390635,-460.4842134655253 A27.200000000000003,27.200000000000003,0,0,0,566.7984152724357,-478.01381985613614 L387.48406981990036,-401.8993960264256" />
<path fill="hsl(45, 49%, 78%)" stroke="black" stroke-width="1" d="M240.50188088883306,-300.0 A159.49811911116694,187.6448460131376,0,0,0,559.498119111167,-300.0 A159.49811911116694,187.6448460131376,0,0,0,240.50188088883306,-300.0" />
<path fill="black" stroke="black" stroke-width="1" d="M324.382,-346.9112115032844 A8.618,13.9,0,0,0,341.618,-346.9112115032844 A8.618,13.9,0,0,0,324.382,-346.9112115032844" />
<path fill="black" stroke="black" stroke-width="1" d="M458.382,-346.9112115032844 A8.618,13.9,0,0,0,475.618,-346.9112115032844 A8.618,13.9,0,0,0,458.382,-346.9112115032844" />
<path fill="black" stroke="black" stroke-width="1" d="M387.9,-304.03333333333336 L412.1,-304.03333333333336 L400.0,-287.9 Z" />
<path fill="black" stroke="black" stroke-width="2" d="M400.0,-287.9 L400.0,-269.75" />
<path stroke-width="2" stroke="black" fill="none" d="M375.8,-265.75 A24.2,24.2,30,0,0,400.0,-269.75 A24.2,24.2,150,0,0,424.2,-265.75" />
<path fill="black" stroke="black" stroke-width="1" d="M366.0,-277.9 L350.5451867793749,-273.75889527835966" />
<path fill="black" stroke="black" stroke-width="1" d="M360.0,-283.9 L344.0608848305321,-282.50550811603745" />
<path fill="black" stroke="black" stroke-width="1" d="M366.0,-289.9 L350.0608848305321,-291.2944918839625" />
<path fill="black" stroke="black" stroke-width="1" d="M434.0,-277.9 L449.4548132206251,-273.75889527835966" />
<path fill="black" stroke="black" stroke-width="1" d="M440.0,-283.9 L455.9391151694679,-282.50550811603745" />
<path fill="black" stroke="black" stroke-width="1" d="M434.0,-289.9 L449.9391151694679,-291.2944918839625" />
</g>
</svg>