<?xml version="1.0" encoding="UTF-8"?>
<svg xmlns="http://www.w3.org/2000/svg" xmlns:xlink="http://www.w3.org/1999/xlink"
     width="800" height="600" viewBox="0 -600 800 600">
<defs>
</defs>
<g>
<path fill="hsl(45, 4%, 48%)" stroke="black" stroke-width="1" d="M301.61657324285403,-287.4450826697192 L212.86898589523446,-427.01952782346734 A38.400000000000006,38.400000000000006,0,0,1,233.96706670637627,-457.0948156588135 L395.4151241823886,-421.1547998376956" />
<path fill="hsl(45, 4%, 48%)" stroke="black" stroke-width="1" d="M498.38342675714597,-287.4450826697192 L587.1310141047655,-427.01952782346734 A38.400000000000006,38.400000000000006,0,0,0,566.0329332936237,-457.0948156588135 L404.5848758176114,-421.1547998376956" />
<path fill="hsl(45, 4%, 48%)" stroke="black" stroke-width="1" d="M222.72775174889892,-300.0 A177.27224825110108,168.83071262009622,0,0,0,577.272248251101,-300.0 A177.27224825110108,168.83071262009622,0,0,0,222.72775174889892,-300.0" />
<path fill="black" stroke="black" stroke-width="1" d="M315.474,-342.20767815502404 A7.526,10.6,0,0,0,330.526,-342.20767815502404 A7.526,10.6,0,0,0,315.474,-342.20767815502404" />
<path fill="black" stroke="black" stroke-width="1" d="M469.474,-342.20767815502404 A7.526,10.6,0,0,0,484.526,-342.20767815502404 A7.526,10.6,0,0,0,469.474,-342.20767815502404" />
<path fill="black" stroke="black" stroke-width="1" d="M388.9,-303.7 L411.1,-303.7 L400.0,-288.9 Z" />
<path fill="black" stroke="black" stroke-width="2" d="M400.0,-288.9 L400.0,-272.25" />
<path stroke-width="2" stroke="black" fill="none" d="M377.8,-268.25 A22.2,22.2,30,0,0,400.0,-272.25 A22.2,22.2,150,0,0,422.2,-268.25" />
<path fill="black" stroke="black" stroke-width="1" d="M366.0,-278.9 L342.81778016906236,-272.6883429175395" />
<path fill="black" stroke="black" stroke-width="1" d="M360.0,-284.9 L336.0913272457981,-282.8082621740562" />
<path fill="black" stroke="black" stroke-width="1" d="M366.0,-290.9 L342.0913272457981,-292.9917378259438" />
<path fill="black" stroke="black" stroke-width="1" d="M434.0,-278.9 L457.18221983093764,-272.6883429175395" />
<path fill="black" stroke="black" stroke-width="1" d="M440.0,-284.9 L463.9086727542019,-282.80826217405615" />
<path fill="black" stroke="black" stroke-width="1" d="M434.0,-290.9 L457.9086727542019,-292.9917378259438" />
</g>
</svg>