<?xml version="1.0" encoding="UTF-8"?>
<svg xmlns="http://www.w3.org/2000/svg" xmlns:xlink="http://www.w3.org/1999/xlink"
     width="800" height="600" viewBox="0 -600 800 600">
<defs>
</defs>
<g>
<path fill="hsl(45, 27%, 60%)" stroke="black" stroke-width="1" d="M407.27479966161684,-187.52213161717572 L221.59846203490065,-112.12678928404685 A1.6,1.6,0,0,1,220.1919050051788,-113.32386314615047 L264.9312282537735,-308.6660064620713" />
<path fill="hsl(45, 27%, 60%)" stroke="black" stroke-width="1" d="M392.72520033838316,-187.52213161717572 L578.4015379650994,-112.12678928404685 A1.6,1.6,0,0,0,579.8080949948212,-113.32386314615047 L535.0687717462265,-308.6660064620713" />
<path fill="hsl(45, 27%, 60%)" stroke="black" stroke-width="1" d="M201.99244963890897,-300.0 A198.00755036109103,151.15080180235955,0,0,0,598.007550361091,-300.0 A198.00755036109103,151.15080180235955,0,0,0,201.99244963890897,-300.0" />
<path fill="black" stroke="black" stroke-width="1" d="M320.392,-337.7877004505899 A6.608,11.2,0,0,0,333.608,-337.7877004505899 A6.608,11.2,0,0,0,320.392,-337.7877004505899" />
<path fill="black" stroke="black" stroke-width="1" d="M466.392,-337.7877004505899 A6.608,11.2,0,0,0,479.608,-337.7877004505899 A6.608,11.2,0,0,0,466.392,-337.7877004505899" />
<path fill="black" stroke="black" stroke-width="1" d="M386.0,-304.6666666666667 L414.0,-304.6666666666667 L400.0,-286.0 Z" />
<path fill="black" stroke="black" stroke-width="2" d="M400.0,-286.0 L400.0,-265.0" />
<path stroke-width="2" stroke="black" fill="none" d="M372.0,-261.0 A28.0,28.0,30,0,0,400.0,-265.0 A28.0,28.0,150,0,0,428.0,-261.0" />
<path fill="black" stroke="black" stroke-width="1" d="M366.0,-276.0 L359.2385192159765,-274.1882666842824" />
<path fill="black" stroke="black" stroke-width="1" d="M360.0,-282.0 L353.02663711335776,-281.3899098007664" />
<path fill="black" stroke="black" stroke-width="1" d="M366.0,-288.0 L359.02663711335776,-288.6100901992336" />
<path fill="black" stroke="black" stroke-width="1" d="M434.0,-276.0 L440.7614807840235,-274.1882666842824" />
<path fill="black" stroke="black" stroke-width="1" d="M440.0,-282.0 L446.97336288664224,-281.3899098007664" />
<path fill="black" stroke="black" stroke-width="1" d="M434.0,-288.0 L440.97336288664224,-288.6100901992336" />
</g>
</svg>