<?xml version="1.0" encoding="UTF-8"?>
<svg xmlns="http://www.w3.org/2000/svg" xmlns:xlink="http://www.w3.org/1999/xlink"
     width="800" height="600" viewBox="0 -600 800 600">
<defs>
</defs>
<g>
<path fill="hsl(45, 26%, 74%)" stroke="black" stroke-width="1" d="M379.90853247333365,-207.90466627288825 L180.72019501517298,-210.06017564515793 A36.0,36.0,0,0,1,169.48821356470512,-240.29436241300237 L318.9563131354612,-371.975519799724" />
<path fill="hsl(45, 26%, 74%)" stroke="black" stroke-width="1" d="M420.09146752666635,-207.90466627288825 L619.279804984827,-210.06017564515793 A36.0,36.0,0,0,0,630.5117864352949,-240.29436241300237 L481.0436868645388,-371.975519799724" />
<path fill="hsl(45, 26%, 74%)" stroke="black" stroke-width="1" d="M233.16484183482189,-300.0 A166.83515816517811,179.3926431883636,0,0,0,566.8351581651781,-300.0 A166.83515816517811,179.3926431883636,0,0,0,233.16484183482189,-300.0" />
<path fill="black" stroke="black" stroke-width="1" d="M333.7,-344.8481607970909 A13.299999999999999,14.0,0,0,0,360.3,-344.8481607970909 A13.299999999999999,14.0,0,0,0,333.7,-344.8481607970909" />
<path fill="black" stroke="black" stroke-width="1" d="M439.7,-344.8481607970909 A13.299999999999999,14.0,0,0,0,466.3,-344.8481607970909 A13.299999999999999,14.0,0,0,0,439.7,-344.8481607970909" />
<path fill="black" stroke="black" stroke-width="1" d="M381.0,-306.3333333333333 L419.0,-306.3333333333333 L400.0,-281.0 Z" />
<path fill="black" stroke="black" stroke-width="2" d="M400.0,-281.0 L400.0,-252.5" />
<path stroke-width="2" stroke="black" fill="none" d="M362.0,-248.5 A38.0,38.0,30,0,0,400.0,-252.5 A38.0,38.0,150,0,0,438.0,-248.5" />
<path fill="black" stroke="black" stroke-width="1" d="M366.0,-271.0 L359.2385192159765,-269.1882666842824" />
<path fill="black" stroke="black" stroke-width="1" d="M360.0,-277.0 L353.02663711335776,-276.3899098007664" />
<path fill="black" stroke="black" stroke-width="1" d="M366.0,-283.0 L359.02663711335776,-283.6100901992336" />
<path fill="black" stroke="black" stroke-width="1" d="M434.0,-271.0 L440.7614807840235,-269.1882666842824" />
<path fill="black" stroke="black" stroke-width="1" d="M440.0,-277.0 L446.97336288664224,-276.3899098007664" />
<path fill="black" stroke="black" stroke-width="1" d="M434.0,-283.0 L440.97336288664224,-283.6100901992336" />
</g>
</svg>