<?xml version="1.0" encoding="UTF-8"?>
<svg xmlns="http://www.w3.org/2000/svg" xmlns:xlink="http://www.w3.org/1999/xlink"
     width="800" height="600" viewBox="0 -600 800 600">
<defs>
</defs>
<g>
<path fill="hsl(45, 32%, 32%)" stroke="black" stroke-width="1" d="M311.71642433776873,-230.9366145120291 L141.93918586683822,-245.49165821463654 A16.8,16.8,0,0,1,135.31107289496651,-262.66881447505614 L251.30590896556612,-387.4941244284255" />
<path fill="hsl(45, 32%, 32%)" stroke="black" stroke-width="1" d="M488.28357566223127,-230.9366145120291 L658.0608141331618,-245.49165821463654 A16.8,16.8,0,0,0,664.6889271050335,-262.66881447505614 L548.6940910344339,-387.4941244284255" />
<path fill="hsl(45, 32%, 32%)" stroke="black" stroke-width="1" d="M200.48666711219522,-300.0 A199.51333288780478,150.01002472767274,0,0,0,599.5133328878048,-300.0 A199.51333288780478,150.01002472767274,0,0,0,200.48666711219522,-300.0" />
<path fill="black" stroke="black" stroke-width="1" d="M337.825,-337.5025061819182 A8.175,10.9,0,0,0,354.175,-337.5025061819182 A8.175,10.9,0,0,0,337.825,-337.5025061819182" />
<path fill="black" stroke="black" stroke-width="1" d="M445.825,-337.5025061819182 A8.175,10.9,0,0,0,462.175,-337.5025061819182 A8.175,10.9,0,0,0,445.825,-337.5025061819182" />
<path fill="black" stroke="black" stroke-width="1" d="M385.0,-305.0 L415.0,-305.0 L400.0,-285.0 Z" />
<path fill="black" stroke="black" stroke-width="2" d="M400.0,-285.0 L400.0,-262.5" />
<path stroke-width="2" stroke="black" fill="none" d="M370.0,-258.5 A30.0,30.0,30,0,0,400.0,-262.5 A30.0,30.0,150,0,0,430.0,-258.5" />
<path fill="black" stroke="black" stroke-width="1" d="M366.0,-275.0 L343.78370599535145,-269.047161962642" />
<path fill="black" stroke="black" stroke-width="1" d="M360.0,-281.0 L337.08752194388984,-278.9954179168039" />
<path fill="black" stroke="black" stroke-width="1" d="M366.0,-287.0 L343.08752194388984,-289.0045820831961" />
<path fill="black" stroke="black" stroke-width="1" d="M434.0,-275.0 L456.21629400464855,-269.047161962642" />
<path fill="black" stroke="black" stroke-width="1" d="M440.0,-281.0 L462.91247805611016,-278.99541791680383" />
<path fill="black" stroke="black" stroke-width="1" d="M434.0,-287.0 L456.91247805611016,-289.0045820831961" />
</g>
</svg>