<?xml version="1.0" encoding="UTF-8"?>
<svg xmlns="http://www.w3.org/2000/svg" xmlns:xlink="http://www.w3.org/1999/xlink"
     width="800" height="600" viewBox="0 -600 800 600">
<defs>
</defs>
<g>
<path fill="hsl(45, 45%, 58%)" stroke="black" stroke-width="1" d="M313.91738840105916,-272.28074435423616 L197.73037585339216,-347.848846852898 A44.0,44.0,0,0,1,205.22339649646858,-390.1710809664878 L340.29282106468816,-421.255008434072" />
<path fill="hsl(45, 45%, 58%)" stroke="black" stroke-width="1" d="M486.08261159894084,-272.28074435423616 L602.2696241466078,-347.848846852898 A44.0,44.0,0,0,0,594.7766035035314,-390.1710809664878 L459.70717893531184,-421.255008434072" />
<path fill="hsl(45, 45%, 58%)" stroke="black" stroke-width="1" d="M227.86717338055473,-300.0 A172.13282661944527,173.8715420398437,0,0,0,572.1328266194453,-300.0 A172.13282661944527,173.8715420398437,0,0,0,227.86717338055473,-300.0" />
<path fill="black" stroke="black" stroke-width="1" d="M335.926,-343.4678855099609 A10.074,14.600000000000001,0,0,0,356.074,-343.4678855099609 A10.074,14.600000000000001,0,0,0,335.926,-343.4678855099609" />
<path fill="black" stroke="black" stroke-width="1" d="M443.926,-343.4678855099609 A10.074,14.600000000000001,0,0,0,464.074,-343.4678855099609 A10.074,14.600000000000001,0,0,0,443.926,-343.4678855099609" />
<path fill="black" stroke="black" stroke-width="1" d="M381.0,-306.3333333333333 L419.0,-306.3333333333333 L400.0,-281.0 Z" />
<path fill="black" stroke="black" stroke-width="2" d="M400.0,-281.0 L400.0,-252.5" />
<path stroke-width="2" stroke="black" fill="none" d="M362.0,-248.5 A38.0,38.0,30,0,0,400.0,-252.5 A38.0,38.0,150,0,0,438.0,-248.5" />
<path fill="black" stroke="black" stroke-width="1" d="M366.0,-271.0 L316.7377828592575,-257.8002286997714" />
<path fill="black" stroke="black" stroke-width="1" d="M360.0,-277.0 L309.19407039732096,-272.55505711986945" />
<path fill="black" stroke="black" stroke-width="1" d="M366.0,-283.0 L315.19407039732096,-287.44494288013055" />
<path fill="black" stroke="black" stroke-width="1" d="M434.0,-271.0 L483.2622171407425,-257.8002286997714" />
<path fill="black" stroke="black" stroke-width="1" d="M440.0,-277.0 L490.80592960267904,-272.55505711986945" />
<path fill="black" stroke="black" stroke-width="1" d="M434.0,-283.0 L484.80592960267904,-287.44494288013055" />
</g>
</svg>