<?xml version="1.0" encoding="UTF-8"?>
<svg xmlns="http://www.w3.org/2000/svg" xmlns:xlink="http://www.w3.org/1999/xlink"
     width="800" height="600" viewBox="0 -600 800 600">
<defs>
</defs>
<g>
<path fill="hsl(45, 10%, 50%)" stroke="black" stroke-width="1" d="M400.01663291732336,-186.21172010077854 L201.30208616391258,-180.38343488241955 A50.400000000000006,50.400000000000006,0,0,1,173.84947218822936,-230.56823988557235 L285.9357703961506,-394.7574653361023" />
<path fill="hsl(45, 10%, 50%)" stroke="black" stroke-width="1" d="M399.98336708267664,-186.21172010077854 L598.6979138360874,-180.38343488241955 A50.400000000000006,50.400000000000006,0,0,0,626.1505278117706,-230.56823988557235 L514.0642296038494,-394.7574653361023" />
<path fill="hsl(45, 10%, 50%)" stroke="black" stroke-width="1" d="M232.27027693339502,-300.0 A167.72972306660498,178.43587560277126,0,0,0,567.729723066605,-300.0 A167.72972306660498,178.43587560277126,0,0,0,232.27027693339502,-300.0" />
<path fill="black" stroke="black" stroke-width="1" d="M333.557,-344.60896890069284 A9.443,13.3,0,0,0,352.443,-344.60896890069284 A9.443,13.3,0,0,0,333.557,-344.60896890069284" />
<path fill="black" stroke="black" stroke-width="1" d="M447.557,-344.60896890069284 A9.443,13.3,0,0,0,466.443,-344.60896890069284 A9.443,13.3,0,0,0,447.557,-344.60896890069284" />
<path fill="black" stroke="black" stroke-width="1" d="M382.2,-305.93333333333334 L417.8,-305.93333333333334 L400.0,-282.2 Z" />
<path fill="black" stroke="black" stroke-width="2" d="M400.0,-282.2 L400.0,-255.5" />
<path stroke-width="2" stroke="black" fill="none" d="M364.4,-251.5 A35.6,35.6,30,0,0,400.0,-255.5 A35.6,35.6,150,0,0,435.6,-251.5" />
<path fill="black" stroke="black" stroke-width="1" d="M366.0,-272.2 L326.3970411221482,-261.58841915079665" />
<path fill="black" stroke="black" stroke-width="1" d="M360.0,-278.2 L319.1560173782384,-274.62661454734604" />
<path fill="black" stroke="black" stroke-width="1" d="M366.0,-284.2 L325.1560173782384,-287.773385452654" />
<path fill="black" stroke="black" stroke-width="1" d="M434.0,-272.2 L473.6029588778518,-261.58841915079665" />
<path fill="black" stroke="black" stroke-width="1" d="M440.0,-278.2 L480.8439826217616,-274.626614547346" />
<path fill="black" stroke="black" stroke-width="1" d="M434.0,-284.2 L474.8439826217616,-287.773385452654" />
</g>
</svg>