<?xml version="1.0" encoding="UTF-8"?>
<svg xmlns="http://www.w3.org/2000/svg" xmlns:xlink="http://www.w3.org/1999/xlink"
     width="800" height="600" viewBox="0 -600 800 600">
<defs>
</defs>
<g>
<path fill="hsl(45, 59%, 38%)" stroke="black" stroke-width="1" d="M359.1547071493617,-220.30986110880133 L135.7563348599075,-335.61435910615813 A4.800000000000001,4.800000000000001,0,0,1,136.03729564895696,-340.4871054957395 L371.20792499958566,-429.35068122184475" />
<path fill="hsl(45, 59%, 38%)" stroke="black" stroke-width="1" d="M440.8452928506383,-220.30986110880133 L664.2436651400925,-335.61435910615813 A4.800000000000001,4.800000000000001,0,0,0,663.962704351043,-340.4871054957395 L428.79207500041434,-429.35068122184475" />
<path fill="hsl(45, 59%, 38%)" stroke="black" stroke-width="1" d="M245.26409595701455,-300.0 A154.73590404298545,193.41988005373182,0,0,0,554.7359040429855,-300.0 A154.73590404298545,193.41988005373182,0,0,0,245.26409595701455,-300.0" />
<path fill="black" stroke="black" stroke-width="1" d="M325.76,-348.35497001343293 A9.24,11.0,0,0,0,344.24,-348.35497001343293 A9.24,11.0,0,0,0,325.76,-348.35497001343293" />
<path fill="black" stroke="black" stroke-width="1" d="M455.76,-348.35497001343293 A9.24,11.0,0,0,0,474.24,-348.35497001343293 A9.24,11.0,0,0,0,455.76,-348.35497001343293" />
<path fill="black" stroke="black" stroke-width="1" d="M387.3,-304.23333333333335 L412.7,-304.23333333333335 L400.0,-287.3 Z" />
<path fill="black" stroke="black" stroke-width="2" d="M400.0,-287.3 L400.0,-268.25" />
<path stroke-width="2" stroke="black" fill="none" d="M374.6,-264.25 A25.4,25.4,30,0,0,400.0,-268.25 A25.4,25.4,150,0,0,425.4,-264.25" />
<path fill="black" stroke="black" stroke-width="1" d="M366.0,-277.3 L314.80593120667936,-263.5825906095664" />
<path fill="black" stroke="black" stroke-width="1" d="M360.0,-283.3 L307.2016810011375,-278.68074563437415" />
<path fill="black" stroke="black" stroke-width="1" d="M366.0,-289.3 L313.2016810011375,-293.9192543656259" />
<path fill="black" stroke="black" stroke-width="1" d="M434.0,-277.3 L485.19406879332064,-263.5825906095664" />
<path fill="black" stroke="black" stroke-width="1" d="M440.0,-283.3 L492.7983189988625,-278.68074563437415" />
<path fill="black" stroke="black" stroke-width="1" d="M434.0,-289.3 L486.7983189988625,-293.9192543656259" />
</g>
</svg>