<?xml version="1.0" encoding="UTF-8"?>
<svg xmlns="http://www.w3.org/2000/svg" xmlns:xlink="http://www.w3.org/1999/xlink"
     width="800" height="600" viewBox="0 -600 800 600">
<defs>
</defs>
<g>
<path fill="hsl(45, 28%, 44%)" stroke="black" stroke-width="1" d="M302.9478001203155,-239.69516296519555 L199.79633784414455,-359.11298337022424 A39.2,39.2,0,0,1,216.1863534209008,-403.7077709865571 L372.1203556565031,-427.9033686602495" />
<path fill="hsl(45, 28%, 44%)" stroke="black" stroke-width="1" d="M497.0521998796845,-239.69516296519555 L600.2036621558555,-359.11298337022424 A39.2,39.2,0,0,0,583.8136465790992,-403.7077709865571 L427.8796443434969,-427.9033686602495" />
<path fill="hsl(45, 28%, 44%)" stroke="black" stroke-width="1" d="M247.21053701252825,-300.0 A152.78946298747175,195.88392690701505,0,0,0,552.7894629874718,-300.0 A152.78946298747175,195.88392690701505,0,0,0,247.21053701252825,-300.0" />
<path fill="black" stroke="black" stroke-width="1" d="M318.232,-348.97098172675373 A9.767999999999999,11.1,0,0,0,337.768,-348.97098172675373 A9.767999999999999,11.1,0,0,0,318.232,-348.97098172675373" />
<path fill="black" stroke="black" stroke-width="1" d="M462.232,-348.97098172675373 A9.767999999999999,11.1,0,0,0,481.768,-348.97098172675373 A9.767999999999999,11.1,0,0,0,462.232,-348.97098172675373" />
<path fill="black" stroke="black" stroke-width="1" d="M384.5,-305.1666666666667 L415.5,-305.1666666666667 L400.0,-284.5 Z" />
<path fill="black" stroke="black" stroke-width="2" d="M400.0,-284.5 L400.0,-261.25" />
<path stroke-width="2" stroke="black" fill="none" d="M369.0,-257.25 A31.0,31.0,30,0,0,400.0,-261.25 A31.0,31.0,150,0,0,431.0,-257.25" />
<path fill="black" stroke="black" stroke-width="1" d="M366.0,-274.5 L320.6014861644138,-262.33550488018153" />
<path fill="black" stroke="black" stroke-width="1" d="M360.0,-280.5 L313.178849189688,-276.40368009086006" />
<path fill="black" stroke="black" stroke-width="1" d="M366.0,-286.5 L319.178849189688,-290.59631990913994" />
<path fill="black" stroke="black" stroke-width="1" d="M434.0,-274.5 L479.3985138355862,-262.33550488018153" />
<path fill="black" stroke="black" stroke-width="1" d="M440.0,-280.5 L486.821150810312,-276.40368009086006" />
<path fill="black" stroke="black" stroke-width="1" d="M434.0,-286.5 L480.821150810312,-290.59631990913994" />
</g>
</svg>