<?xml version="1.0" encoding="UTF-8"?>
<svg xmlns="http://www.w3.org/2000/svg" xmlns:xlink="http://www.w3.org/1999/xlink"
     width="800" height="600" viewBox="0 -600 800 600">
<defs>
</defs>
<g>
<path fill="hsl(45, 32%, 38%)" stroke="black" stroke-width="1" d="M359.1451917885496,-196.40040280504962 L242.47683807909561,-183.313950164027 A59.2,59.2,0,0,1,216.10738730261448,-232.0832291461673 L290.9409636991106,-322.54148384804495" />
<path fill="hsl(45, 32%, 38%)" stroke="black" stroke-width="1" d="M440.8548082114504,-196.40040280504962 L557.5231619209044,-183.313950164027 A59.2,59.2,0,0,0,583.8926126973855,-232.0832291461673 L509.0590363008894,-322.54148384804495" />
<path fill="hsl(45, 32%, 38%)" stroke="black" stroke-width="1" d="M221.8855985609249,-300.0 A178.1144014390751,168.0324541878067,0,0,0,578.1144014390751,-300.0 A178.1144014390751,168.0324541878067,0,0,0,221.8855985609249,-300.0" />
<path fill="black" stroke="black" stroke-width="1" d="M326.318,-342.0081135469517 A10.682,10.9,0,0,0,347.682,-342.0081135469517 A10.682,10.9,0,0,0,326.318,-342.0081135469517" />
<path fill="black" stroke="black" stroke-width="1" d="M452.318,-342.0081135469517 A10.682,10.9,0,0,0,473.682,-342.0081135469517 A10.682,10.9,0,0,0,452.318,-342.0081135469517" />
<path fill="black" stroke="black" stroke-width="1" d="M387.5,-304.1666666666667 L412.5,-304.1666666666667 L400.0,-287.5 Z" />
<path fill="black" stroke="black" stroke-width="2" d="M400.0,-287.5 L400.0,-268.75" />
<path stroke-width="2" stroke="black" fill="none" d="M375.0,-264.75 A25.0,25.0,30,0,0,400.0,-268.75 A25.0,25.0,150,0,0,425.0,-264.75" />
<path fill="black" stroke="black" stroke-width="1" d="M366.0,-277.5 L311.9081537278122,-263.00613347425883" />
<path fill="black" stroke="black" stroke-width="1" d="M360.0,-283.5 L304.21309690686223,-278.6192784061312" />
<path fill="black" stroke="black" stroke-width="1" d="M366.0,-289.5 L310.21309690686223,-294.3807215938689" />
<path fill="black" stroke="black" stroke-width="1" d="M434.0,-277.5 L488.0918462721878,-263.00613347425883" />
<path fill="black" stroke="black" stroke-width="1" d="M440.0,-283.5 L495.78690309313777,-278.6192784061311" />
<path fill="black" stroke="black" stroke-width="1" d="M434.0,-289.5 L489.78690309313777,-294.3807215938689" />
</g>
</svg>