<?xml version="1.0" encoding="UTF-8"?>
<svg xmlns="http://www.w3.org/2000/svg" xmlns:xlink="http://www.w3.org/1999/xlink"
     width="800" height="600" viewBox="0 -600 800 600">
<defs>
</defs>
<g>
<path fill="hsl(45, 12%, 57%)" stroke="black" stroke-width="1" d="M298.5083469225218,-224.37864620510646 L119.78468381704863,-377.88829491215466 A1.6,1.6,0,0,1,120.22846025984302,-379.58469423608034 L351.2289883265088,-425.9108858874733" />
<path fill="hsl(45, 12%, 57%)" stroke="black" stroke-width="1" d="M501.4916530774782,-224.37864620510646 L680.2153161829514,-377.88829491215466 A1.6,1.6,0,0,0,679.771539740157,-379.58469423608034 L448.7710116734912,-425.9108858874733" />
<path fill="hsl(45, 12%, 57%)" stroke="black" stroke-width="1" d="M212.87188880341898,-300.0 A187.12811119658102,159.93855657827442,0,0,0,587.128111196581,-300.0 A187.12811119658102,159.93855657827442,0,0,0,212.87188880341898,-300.0" />
<path fill="black" stroke="black" stroke-width="1" d="M330.534,-339.98463914456863 A8.466,10.2,0,0,0,347.466,-339.98463914456863 A8.466,10.2,0,0,0,330.534,-339.98463914456863" />
<path fill="black" stroke="black" stroke-width="1" d="M452.534,-339.98463914456863 A8.466,10.2,0,0,0,469.466,-339.98463914456863 A8.466,10.2,0,0,0,452.534,-339.98463914456863" />
<path fill="black" stroke="black" stroke-width="1" d="M389.4,-303.53333333333336 L410.6,-303.53333333333336 L400.0,-289.4 Z" />
<path fill="black" stroke="black" stroke-width="2" d="M400.0,-289.4 L400.0,-273.5" />
<path stroke-width="2" stroke="black" fill="none" d="M378.8,-269.5 A21.2,21.2,30,0,0,400.0,-273.5 A21.2,21.2,150,0,0,421.2,-269.5" />
<path fill="black" stroke="black" stroke-width="1" d="M366.0,-279.4 L308.0444504226559,-263.87085729384876" />
<path fill="black" stroke="black" stroke-width="1" d="M360.0,-285.4 L300.22831811449527,-280.1706554351405" />
<path fill="black" stroke="black" stroke-width="1" d="M366.0,-291.4 L306.22831811449527,-296.6293445648595" />
<path fill="black" stroke="black" stroke-width="1" d="M434.0,-279.4 L491.9555495773441,-263.87085729384876" />
<path fill="black" stroke="black" stroke-width="1" d="M440.0,-285.4 L499.77168188550473,-280.1706554351405" />
<path fill="black" stroke="black" stroke-width="1" d="M434.0,-291.4 L493.77168188550473,-296.6293445648595" />
</g>
</svg>