<?xml version="1.0" encoding="UTF-8"?>
<svg xmlns="http://www.w3.org/2000/svg" xmlns:xlink="http://www.w3.org/1999/xlink"
     width="800" height="600" viewBox="0 -600 800 600">
<defs>
</defs>
<g>
<path fill="hsl(45, 20%, 46%)" stroke="black" stroke-width="1" d="M369.60773002853915,-199.86278443592428 L220.41816493291003,-166.84288639584815 A25.6,25.6,0,0,1,204.94155188431307,-187.77360465206326 L280.230289672892,-320.7376823655668" />
<path fill="hsl(45, 20%, 46%)" stroke="black" stroke-width="1" d="M430.39226997146085,-199.86278443592428 L579.58183506709,-166.84288639584815 A25.6,25.6,0,0,0,595.0584481156869,-187.77360465206326 L519.769710327108,-320.7376823655668" />
<path fill="hsl(45, 20%, 46%)" stroke="black" stroke-width="1" d="M235.87778943726113,-300.0 A164.12221056273887,182.35801173637654,0,0,0,564.1222105627389,-300.0 A164.12221056273887,182.35801173637654,0,0,0,235.87778943726113,-300.0" />
<path fill="black" stroke="black" stroke-width="1" d="M335.75,-345.5895029340941 A12.25,12.5,0,0,0,360.25,-345.5895029340941 A12.25,12.5,0,0,0,335.75,-345.5895029340941" />
<path fill="black" stroke="black" stroke-width="1" d="M439.75,-345.5895029340941 A12.25,12.5,0,0,0,464.25,-345.5895029340941 A12.25,12.5,0,0,0,439.75,-345.5895029340941" />
<path fill="black" stroke="black" stroke-width="1" d="M383.6,-305.46666666666664 L416.4,-305.46666666666664 L400.0,-283.6 Z" />
<path fill="black" stroke="black" stroke-width="2" d="M400.0,-283.6 L400.0,-259.0" />
<path stroke-width="2" stroke="black" fill="none" d="M367.2,-255.0 A32.8,32.8,30,0,0,400.0,-259.0 A32.8,32.8,150,0,0,432.8,-255.0" />
<path fill="black" stroke="black" stroke-width="1" d="M366.0,-273.6 L327.36296694843725,-263.2472381958992" />
<path fill="black" stroke="black" stroke-width="1" d="M360.0,-279.6 L320.15221207633016,-276.1137702900937" />
<path fill="black" stroke="black" stroke-width="1" d="M366.0,-285.6 L326.15221207633016,-289.0862297099064" />
<path fill="black" stroke="black" stroke-width="1" d="M434.0,-273.6 L472.63703305156275,-263.2472381958992" />
<path fill="black" stroke="black" stroke-width="1" d="M440.0,-279.6 L479.84778792366984,-276.11377029009367" />
<path fill="black" stroke="black" stroke-width="1" d="M434.0,-285.6 L473.84778792366984,-289.0862297099064" />
</g>
</svg>