<?xml version="1.0" encoding="UTF-8"?>
<svg xmlns="http://www.w3.org/2000/svg" xmlns:xlink="http://www.w3.org/1999/xlink"
     width="800" height="600" viewBox="0 -600 800 600">
<defs>
</defs>
<g>
<path fill="hsl(45, 36%, 50%)" stroke="black" stroke-width="1" d="M297.9298132020326,-269.4494641076623 L183.05683820649642,-380.5360952370422 A37.6,37.6,0,0,1,196.20796304290684,-415.6356559291795 L355.7947624822383,-423.88753115306656" />
<path fill="hsl(45, 36%, 50%)" stroke="black" stroke-width="1" d="M502.0701867979674,-269.4494641076623 L616.9431617935036,-380.5360952370422 A37.6,37.6,0,0,0,603.7920369570932,-415.6356559291795 L444.2052375177617,-423.88753115306656" />
<path fill="hsl(45, 36%, 50%)" stroke="black" stroke-width="1" d="M213.67329767314612,-300.0 A186.32670232685388,160.62646752314984,0,0,0,586.3267023268538,-300.0 A186.32670232685388,160.62646752314984,0,0,0,213.67329767314612,-300.0" />
<path fill="black" stroke="black" stroke-width="1" d="M329.05,-340.15661688078745 A13.95,15.0,0,0,0,356.95,-340.15661688078745 A13.95,15.0,0,0,0,329.05,-340.15661688078745" />
<path fill="black" stroke="black" stroke-width="1" d="M443.05,-340.15661688078745 A13.95,15.0,0,0,0,470.95,-340.15661688078745 A13.95,15.0,0,0,0,443.05,-340.15661688078745" />
<path fill="black" stroke="black" stroke-width="1" d="M386.4,-304.53333333333336 L413.6,-304.53333333333336 L400.0,-286.4 Z" />
<path fill="black" stroke="black" stroke-width="2" d="M400.0,-286.4 L400.0,-266.0" />
<path stroke-width="2" stroke="black" fill="none" d="M372.8,-262.0 A27.2,27.2,30,0,0,400.0,-266.0 A27.2,27.2,150,0,0,427.2,-262.0" />
<path fill="black" stroke="black" stroke-width="1" d="M366.0,-276.4 L340.8859285164842,-269.6707048273344" />
<path fill="black" stroke="black" stroke-width="1" d="M360.0,-282.4 L334.09893784961463,-280.13395068856084" />
<path fill="black" stroke="black" stroke-width="1" d="M366.0,-288.4 L340.09893784961463,-290.6660493114391" />
<path fill="black" stroke="black" stroke-width="1" d="M434.0,-276.4 L459.1140714835158,-269.6707048273344" />
<path fill="black" stroke="black" stroke-width="1" d="M440.0,-282.4 L465.90106215038537,-280.13395068856084" />
<path fill="black" stroke="black" stroke-width="1" d="M434.0,-288.4 L459.90106215038537,-290.6660493114391" />
</g>
</svg>