<?xml version="1.0" encoding="UTF-8"?>
<svg xmlns="http://www.w3.org/2000/svg" xmlns:xlink="http://www.w3.org/1999/xlink"
     width="800" height="600" viewBox="0 -600 800 600">
<defs>
</defs>
<g>
<path fill="hsl(45, 42%, 49%)" stroke="black" stroke-width="1" d="M290.998262778068,-279.64051702438155 L172.17294120041083,-400.09458690982115 A16.0,16.0,0,0,1,178.06871745538115,-412.80175646771687 L346.77230615008693,-399.8503410420749" />
<path fill="hsl(45, 42%, 49%)" stroke="black" stroke-width="1" d="M509.001737221932,-279.64051702438155 L627.8270587995892,-400.09458690982115 A16.0,16.0,0,0,0,621.9312825446189,-412.80175646771687 L453.22769384991307,-399.8503410420749" />
<path fill="hsl(45, 42%, 49%)" stroke="black" stroke-width="1" d="M212.0738975022363,-300.0 A187.9261024977637,159.25940889640995,0,0,0,587.9261024977637,-300.0 A187.9261024977637,159.25940889640995,0,0,0,212.0738975022363,-300.0" />
<path fill="black" stroke="black" stroke-width="1" d="M330.377,-339.8148522241025 A7.623,12.1,0,0,0,345.623,-339.8148522241025 A7.623,12.1,0,0,0,330.377,-339.8148522241025" />
<path fill="black" stroke="black" stroke-width="1" d="M454.377,-339.8148522241025 A7.623,12.1,0,0,0,469.623,-339.8148522241025 A7.623,12.1,0,0,0,454.377,-339.8148522241025" />
<path fill="black" stroke="black" stroke-width="1" d="M389.5,-303.5 L410.5,-303.5 L400.0,-289.5 Z" />
<path fill="black" stroke="black" stroke-width="2" d="M400.0,-289.5 L400.0,-273.75" />
<path stroke-width="2" stroke="black" fill="none" d="M379.0,-269.75 A21.0,21.0,30,0,0,400.0,-273.75 A21.0,21.0,150,0,0,421.0,-269.75" />
<path fill="black" stroke="black" stroke-width="1" d="M366.0,-279.5 L326.3970411221482,-268.88841915079666" />
<path fill="black" stroke="black" stroke-width="1" d="M360.0,-285.5 L319.1560173782384,-281.92661454734605" />
<path fill="black" stroke="black" stroke-width="1" d="M366.0,-291.5 L325.1560173782384,-295.073385452654" />
<path fill="black" stroke="black" stroke-width="1" d="M434.0,-279.5 L473.6029588778518,-268.88841915079666" />
<path fill="black" stroke="black" stroke-width="1" d="M440.0,-285.5 L480.8439826217616,-281.926614547346" />
<path fill="black" stroke="black" stroke-width="1" d="M434.0,-291.5 L474.8439826217616,-295.073385452654" />
</g>
</svg>