<?xml version="1.0" encoding="UTF-8"?>
<svg xmlns="http://www.w3.org/2000/svg" xmlns:xlink="http://www.w3.org/1999/xlink"
     width="800" height="600" viewBox="0 -600 800 600">
<defs>
</defs>
<g>
<path fill="hsl(45, 14%, 71%)" stroke="black" stroke-width="1" d="M288.621036572839,-311.864374049822 L228.28036599135953,-446.1284551503806 A24.8,24.8,0,0,1,246.1203967952589,-469.127684277574 L391.1724394520287,-444.07284600033404" />
<path fill="hsl(45, 14%, 71%)" stroke="black" stroke-width="1" d="M511.378963427161,-311.864374049822 L571.7196340086405,-446.1284551503806 A24.8,24.8,0,0,0,553.8796032047411,-469.127684277574 L408.8275605479713,-444.07284600033404" />
<path fill="hsl(45, 14%, 71%)" stroke="black" stroke-width="1" d="M214.47816840058957,-300.0 A185.52183159941043,161.3233318255743,0,0,0,585.5218315994105,-300.0 A185.52183159941043,161.3233318255743,0,0,0,214.47816840058957,-300.0" />
<path fill="black" stroke="black" stroke-width="1" d="M314.72,-340.3308329563936 A11.28,12.0,0,0,0,337.28,-340.3308329563936 A11.28,12.0,0,0,0,314.72,-340.3308329563936" />
<path fill="black" stroke="black" stroke-width="1" d="M462.72,-340.3308329563936 A11.28,12.0,0,0,0,485.28,-340.3308329563936 A11.28,12.0,0,0,0,462.72,-340.3308329563936" />
<path fill="black" stroke="black" stroke-width="1" d="M387.0,-304.3333333333333 L413.0,-304.3333333333333 L400.0,-287.0 Z" />
<path fill="black" stroke="black" stroke-width="2" d="M400.0,-287.0 L400.0,-267.5" />
<path stroke-width="2" stroke="black" fill="none" d="M374.0,-263.5 A26.0,26.0,30,0,0,400.0,-267.5 A26.0,26.0,150,0,0,426.0,-263.5" />
<path fill="black" stroke="black" stroke-width="1" d="M366.0,-277.0 L318.6696345118356,-264.3178667899765" />
<path fill="black" stroke="black" stroke-width="1" d="M360.0,-283.0 L311.18645979350447,-278.72936860536475" />
<path fill="black" stroke="black" stroke-width="1" d="M366.0,-289.0 L317.18645979350447,-293.27063139463525" />
<path fill="black" stroke="black" stroke-width="1" d="M434.0,-277.0 L481.3303654881644,-264.3178667899765" />
<path fill="black" stroke="black" stroke-width="1" d="M440.0,-283.0 L488.81354020649553,-278.72936860536475" />
<path fill="black" stroke="black" stroke-width="1" d="M434.0,-289.0 L482.81354020649553,-293.27063139463525" />
</g>
</svg>