<?xml version="1.0" encoding="UTF-8"?>
<svg xmlns="http://www.w3.org/2000/svg" xmlns:xlink="http://www.w3.org/1999/xlink"
     width="800" height="600" viewBox="0 -600 800 600">
<defs>
</defs>
<g>
<path fill="hsl(45, 44%, 44%)" stroke="black" stroke-width="1" d="M294.0627818647594,-271.1084387552146 L205.38618958393602,-486.5741250754745 A16.0,16.0,0,0,1,217.43124287890498,-501.3797139901154 L446.43270604611655,-458.3991385254215" />
<path fill="hsl(45, 44%, 44%)" stroke="black" stroke-width="1" d="M505.9372181352406,-271.1084387552146 L594.613810416064,-486.5741250754745 A16.0,16.0,0,0,0,582.568757121095,-501.3797139901154 L353.56729395388345,-458.3991385254215" />
<path fill="hsl(45, 44%, 44%)" stroke="black" stroke-width="1" d="M227.86717338055473,-300.0 A172.13282661944527,173.8715420398437,0,0,0,572.1328266194453,-300.0 A172.13282661944527,173.8715420398437,0,0,0,227.86717338055473,-300.0" />
<path fill="black" stroke="black" stroke-width="1" d="M337.95,-343.4678855099609 A8.049999999999999,11.5,0,0,0,354.05,-343.4678855099609 A8.049999999999999,11.5,0,0,0,337.95,-343.4678855099609" />
<path fill="black" stroke="black" stroke-width="1" d="M445.95,-343.4678855099609 A8.049999999999999,11.5,0,0,0,462.05,-343.4678855099609 A8.049999999999999,11.5,0,0,0,445.95,-343.4678855099609" />
<path fill="black" stroke="black" stroke-width="1" d="M385.3,-304.9 L414.7,-304.9 L400.0,-285.3 Z" />
<path fill="black" stroke="black" stroke-width="2" d="M400.0,-285.3 L400.0,-263.25" />
<path stroke-width="2" stroke="black" fill="none" d="M370.6,-259.25 A29.4,29.4,30,0,0,400.0,-263.25 A29.4,29.4,150,0,0,429.4,-259.25" />
<path fill="black" stroke="black" stroke-width="1" d="M366.0,-275.3 L312.87407955410123,-261.0649525193614" />
<path fill="black" stroke="black" stroke-width="1" d="M360.0,-281.3 L305.209291604954,-276.50643414887884" />
<path fill="black" stroke="black" stroke-width="1" d="M366.0,-287.3 L311.209291604954,-292.0935658511212" />
<path fill="black" stroke="black" stroke-width="1" d="M434.0,-275.3 L487.12592044589877,-261.0649525193614" />
<path fill="black" stroke="black" stroke-width="1" d="M440.0,-281.3 L494.790708395046,-276.5064341488788" />
<path fill="black" stroke="black" stroke-width="1" d="M434.0,-287.3 L488.790708395046,-292.0935658511212" />
</g>
</svg>