<?xml version="1.0" encoding="UTF-8"?>
<svg xmlns="http://www.w3.org/2000/svg" xmlns:xlink="http://www.w3.org/1999/xlink"
     width="800" height="600" viewBox="0 -600 800 600">
<defs>
</defs>
<g>
<path fill="hsl(45, 28%, 58%)" stroke="black" stroke-width="1" d="M295.0285660748432,-221.68294600742007 L159.99232133498504,-269.3427047831118 A36.800000000000004,36.800000000000004,0,0,1,157.76022091538096,-305.22060193350694 L285.8478400011676,-369.25029689556686" />
<path fill="hsl(45, 28%, 58%)" stroke="black" stroke-width="1" d="M504.9714339251568,-221.68294600742007 L640.007678665015,-269.3427047831118 A36.800000000000004,36.800000000000004,0,0,0,642.239779084619,-305.22060193350694 L514.1521599988324,-369.25029689556686" />
<path fill="hsl(45, 28%, 58%)" stroke="black" stroke-width="1" d="M201.99244963890897,-300.0 A198.00755036109103,151.15080180235955,0,0,0,598.007550361091,-300.0 A198.00755036109103,151.15080180235955,0,0,0,201.99244963890897,-300.0" />
<path fill="black" stroke="black" stroke-width="1" d="M324.4,-337.7877004505899 A6.6,13.2,0,0,0,337.6,-337.7877004505899 A6.6,13.2,0,0,0,324.4,-337.7877004505899" />
<path fill="black" stroke="black" stroke-width="1" d="M462.4,-337.7877004505899 A6.6,13.2,0,0,0,475.6,-337.7877004505899 A6.6,13.2,0,0,0,462.4,-337.7877004505899" />
<path fill="black" stroke="black" stroke-width="1" d="M387.7,-304.1 L412.3,-304.1 L400.0,-287.7 Z" />
<path fill="black" stroke="black" stroke-width="2" d="M400.0,-287.7 L400.0,-269.25" />
<path stroke-width="2" stroke="black" fill="none" d="M375.4,-265.25 A24.6,24.6,30,0,0,400.0,-269.25 A24.6,24.6,150,0,0,424.6,-265.25" />
<path fill="black" stroke="black" stroke-width="1" d="M366.0,-277.7 L336.05629938503887,-269.67660960182184" />
<path fill="black" stroke="black" stroke-width="1" d="M360.0,-283.7 L329.1179643591559,-280.9981719748226" />
<path fill="black" stroke="black" stroke-width="1" d="M366.0,-289.7 L335.1179643591559,-292.4018280251774" />
<path fill="black" stroke="black" stroke-width="1" d="M434.0,-277.7 L463.94370061496113,-269.67660960182184" />
<path fill="black" stroke="black" stroke-width="1" d="M440.0,-283.7 L470.8820356408441,-280.9981719748226" />
<path fill="black" stroke="black" stroke-width="1" d="M434.0,-289.7 L464.8820356408441,-292.4018280251774" />
</g>
</svg>