<?xml version="1.0" encoding="UTF-8"?>
<svg xmlns="http://www.w3.org/2000/svg" xmlns:xlink="http://www.w3.org/1999/xlink"
     width="800" height="600" viewBox="0 -600 800 600">
<defs>
</defs>
<g>
<path fill="hsl(45, 17%, 68%)" stroke="black" stroke-width="1" d="M289.70801124622983,-219.01368937541773 L138.4231839267893,-374.5832912355725 A28.8,28.8,0,0,1,149.04136947134623,-404.90406951930487 L364.33025965658794,-432.1013812027589" />
<path fill="hsl(45, 17%, 68%)" stroke="black" stroke-width="1" d="M510.29198875377017,-219.01368937541773 L661.5768160732107,-374.5832912355725 A28.8,28.8,0,0,0,650.9586305286538,-404.90406951930487 L435.66974034341206,-432.1013812027589" />
<path fill="hsl(45, 17%, 68%)" stroke="black" stroke-width="1" d="M205.03890131618567,-300.0 A194.96109868381433,153.5126761289877,0,0,0,594.9610986838143,-300.0 A194.96109868381433,153.5126761289877,0,0,0,205.03890131618567,-300.0" />
<path fill="black" stroke="black" stroke-width="1" d="M331.6,-338.37816903224694 A7.4,14.8,0,0,0,346.4,-338.37816903224694 A7.4,14.8,0,0,0,331.6,-338.37816903224694" />
<path fill="black" stroke="black" stroke-width="1" d="M453.6,-338.37816903224694 A7.4,14.8,0,0,0,468.4,-338.37816903224694 A7.4,14.8,0,0,0,453.6,-338.37816903224694" />
<path fill="black" stroke="black" stroke-width="1" d="M384.4,-305.2 L415.6,-305.2 L400.0,-284.4 Z" />
<path fill="black" stroke="black" stroke-width="2" d="M400.0,-284.4 L400.0,-261.0" />
<path stroke-width="2" stroke="black" fill="none" d="M368.8,-257.0 A31.200000000000003,31.200000000000003,30,0,0,400.0,-261.0 A31.200000000000003,31.200000000000003,150,0,0,431.2,-257.0" />
<path fill="black" stroke="black" stroke-width="1" d="M366.0,-274.4 L316.7377828592575,-261.2002286997714" />
<path fill="black" stroke="black" stroke-width="1" d="M360.0,-280.4 L309.19407039732096,-275.9550571198694" />
<path fill="black" stroke="black" stroke-width="1" d="M366.0,-286.4 L315.19407039732096,-290.84494288013053" />
<path fill="black" stroke="black" stroke-width="1" d="M434.0,-274.4 L483.2622171407425,-261.2002286997714" />
<path fill="black" stroke="black" stroke-width="1" d="M440.0,-280.4 L490.80592960267904,-275.9550571198694" />
<path fill="black" stroke="black" stroke-width="1" d="M434.0,-286.4 L484.80592960267904,-290.84494288013053" />
</g>
</svg>