<?xml version="1.0" encoding="UTF-8"?>
<svg xmlns="http://www.w3.org/2000/svg" xmlns:xlink="http://www.w3.org/1999/xlink"
     width="800" height="600" viewBox="0 -600 800 600">
<defs>
</defs>
<g>
<path fill="hsl(45, 32%, 32%)" stroke="black" stroke-width="1" d="M303.8512314714749,-264.93137878206676 L214.95092719152922,-402.9834555463556 A55.2,55.2,0,0,1,246.30714484559894,-454.7179609211987 L409.8261583834905,-439.7790114402325" />
<path fill="hsl(45, 32%, 32%)" stroke="black" stroke-width="1" d="M496.1487685285251,-264.93137878206676 L585.0490728084708,-402.9834555463556 A55.2,55.2,0,0,0,553.6928551544011,-454.7179609211987 L390.1738416165095,-439.7790114402325" />
<path fill="hsl(45, 32%, 32%)" stroke="black" stroke-width="1" d="M238.6363423815635,-300.0 A161.3636576184365,185.47546852693853,0,0,0,561.3636576184365,-300.0 A161.3636576184365,185.47546852693853,0,0,0,238.6363423815635,-300.0" />
<path fill="black" stroke="black" stroke-width="1" d="M325.86,-346.36886713173465 A10.14,13.0,0,0,0,346.14,-346.36886713173465 A10.14,13.0,0,0,0,325.86,-346.36886713173465" />
<path fill="black" stroke="black" stroke-width="1" d="M453.86,-346.36886713173465 A10.14,13.0,0,0,0,474.14,-346.36886713173465 A10.14,13.0,0,0,0,453.86,-346.36886713173465" />
<path fill="black" stroke="black" stroke-width="1" d="M382.7,-305.76666666666665 L417.3,-305.76666666666665 L400.0,-282.7 Z" />
<path fill="black" stroke="black" stroke-width="2" d="M400.0,-282.7 L400.0,-256.75" />
<path stroke-width="2" stroke="black" fill="none" d="M365.4,-252.75 A34.6,34.6,30,0,0,400.0,-256.75 A34.6,34.6,150,0,0,434.6,-252.75" />
<path fill="black" stroke="black" stroke-width="1" d="M366.0,-272.7 L309.97630207523406,-257.6884953840538" />
<path fill="black" stroke="black" stroke-width="1" d="M360.0,-278.7 L302.2207075106788,-273.64496692063585" />
<path fill="black" stroke="black" stroke-width="1" d="M366.0,-284.7 L308.2207075106788,-289.7550330793642" />
<path fill="black" stroke="black" stroke-width="1" d="M434.0,-272.7 L490.02369792476594,-257.6884953840538" />
<path fill="black" stroke="black" stroke-width="1" d="M440.0,-278.7 L497.7792924893212,-273.6449669206358" />
<path fill="black" stroke="black" stroke-width="1" d="M434.0,-284.7 L491.7792924893212,-289.7550330793642" />
</g>
</svg>