<?xml version="1.0" encoding="UTF-8"?>
<svg xmlns="http://www.w3.org/2000/svg" xmlns:xlink="http://www.w3.org/1999/xlink"
     width="800" height="600" viewBox="0 -600 800 600">
<defs>
</defs>
<g>
<path fill="hsl(45, 46%, 74%)" stroke="black" stroke-width="1" d="M392.72967306110957,-178.93049696503658 L178.89558237066194,-140.840844057857 A4.0,4.0,0,0,1,175.6749642218549,-144.66545106244914 L249.6054025281294,-348.8960322491121" />
<path fill="hsl(45, 46%, 74%)" stroke="black" stroke-width="1" d="M407.27032693889043,-178.93049696503658 L621.1044176293381,-140.840844057857 A4.0,4.0,0,0,0,624.3250357781451,-144.66545106244914 L550.3945974718706,-348.8960322491121" />
<path fill="hsl(45, 46%, 74%)" stroke="black" stroke-width="1" d="M216.09847743969058,-300.0 A183.90152256030942,162.74471023036236,0,0,0,583.9015225603094,-300.0 A183.90152256030942,162.74471023036236,0,0,0,216.09847743969058,-300.0" />
<path fill="black" stroke="black" stroke-width="1" d="M332.24,-340.6861775575906 A8.76,12.0,0,0,0,349.76,-340.6861775575906 A8.76,12.0,0,0,0,332.24,-340.6861775575906" />
<path fill="black" stroke="black" stroke-width="1" d="M450.24,-340.6861775575906 A8.76,12.0,0,0,0,467.76,-340.6861775575906 A8.76,12.0,0,0,0,450.24,-340.6861775575906" />
<path fill="black" stroke="black" stroke-width="1" d="M389.8,-303.4 L410.2,-303.4 L400.0,-289.8 Z" />
<path fill="black" stroke="black" stroke-width="2" d="M400.0,-289.8 L400.0,-274.5" />
<path stroke-width="2" stroke="black" fill="none" d="M379.6,-270.5 A20.4,20.4,30,0,0,400.0,-274.5 A20.4,20.4,150,0,0,420.4,-270.5" />
<path fill="black" stroke="black" stroke-width="1" d="M366.0,-279.8 L322.53333781699195,-268.15314297038657" />
<path fill="black" stroke="black" stroke-width="1" d="M360.0,-285.8 L315.17123858587144,-281.8779915763554" />
<path fill="black" stroke="black" stroke-width="1" d="M366.0,-291.8 L321.17123858587144,-295.72200842364464" />
<path fill="black" stroke="black" stroke-width="1" d="M434.0,-279.8 L477.46666218300805,-268.15314297038657" />
<path fill="black" stroke="black" stroke-width="1" d="M440.0,-285.8 L484.82876141412856,-281.8779915763554" />
<path fill="black" stroke="black" stroke-width="1" d="M434.0,-291.8 L478.82876141412856,-295.72200842364464" />
</g>
</svg>