<?xml version="1.0" encoding="UTF-8"?>
<svg xmlns="http://www.w3.org/2000/svg" xmlns:xlink="http://www.w3.org/1999/xlink"
     width="800" height="600" viewBox="0 -600 800 600">
<defs>
</defs>
<g>
<path fill="hsl(45, 51%, 76%)" stroke="black" stroke-width="1" d="M302.79293660051644,-318.6399588774128 L246.41989363931305,-442.6259259353598 A42.400000000000006,42.400000000000006,0,0,1,276.58730860837966,-481.1690790843168 L410.484916074996,-456.23174332614235" />
<path fill="hsl(45, 51%, 76%)" stroke="black" stroke-width="1" d="M497.20706339948356,-318.6399588774128 L553.580106360687,-442.6259259353598 A42.400000000000006,42.400000000000006,0,0,0,523.4126913916203,-481.1690790843168 L389.515083925004,-456.23174332614235" />
<path fill="hsl(45, 51%, 76%)" stroke="black" stroke-width="1" d="M234.0642292933799,-300.0 A165.9357707066201,180.36496815936965,0,0,0,565.9357707066201,-300.0 A165.9357707066201,180.36496815936965,0,0,0,234.0642292933799,-300.0" />
<path fill="black" stroke="black" stroke-width="1" d="M327.566,-345.0912420398424 A10.434,11.1,0,0,0,348.434,-345.0912420398424 A10.434,11.1,0,0,0,327.566,-345.0912420398424" />
<path fill="black" stroke="black" stroke-width="1" d="M451.566,-345.0912420398424 A10.434,11.1,0,0,0,472.434,-345.0912420398424 A10.434,11.1,0,0,0,451.566,-345.0912420398424" />
<path fill="black" stroke="black" stroke-width="1" d="M389.5,-303.5 L410.5,-303.5 L400.0,-289.5 Z" />
<path fill="black" stroke="black" stroke-width="2" d="M400.0,-289.5 L400.0,-273.75" />
<path stroke-width="2" stroke="black" fill="none" d="M379.0,-269.75 A21.0,21.0,30,0,0,400.0,-273.75 A21.0,21.0,150,0,0,421.0,-269.75" />
<path fill="black" stroke="black" stroke-width="1" d="M366.0,-279.5 L323.499263643281,-268.1119620154891" />
<path fill="black" stroke="black" stroke-width="1" d="M360.0,-285.5 L316.1674332839632,-281.665147319103" />
<path fill="black" stroke="black" stroke-width="1" d="M366.0,-291.5 L322.1674332839632,-295.334852680897" />
<path fill="black" stroke="black" stroke-width="1" d="M434.0,-279.5 L476.500736356719,-268.1119620154891" />
<path fill="black" stroke="black" stroke-width="1" d="M440.0,-285.5 L483.8325667160368,-281.665147319103" />
<path fill="black" stroke="black" stroke-width="1" d="M434.0,-291.5 L477.8325667160368,-295.334852680897" />
</g>
</svg>