<?xml version="1.0" encoding="UTF-8"?>
<svg xmlns="http://www.w3.org/2000/svg" xmlns:xlink="http://www.w3.org/1999/xlink"
     width="800" height="600" viewBox="0 -600 800 600">
<defs>
</defs>
<g>
<path fill="hsl(45, 39%, 67%)" stroke="black" stroke-width="1" d="M298.18633697378607,-248.66754366461402 L190.34258946329783,-405.58116997824584 A53.6,53.6,0,0,1,218.271450396119,-448.587844407947 L405.483184796296,-413.8902003542421" />
<path fill="hsl(45, 39%, 67%)" stroke="black" stroke-width="1" d="M501.81366302621393,-248.66754366461402 L609.6574105367022,-405.58116997824584 A53.6,53.6,0,0,0,581.728549603881,-448.587844407947 L394.516815203704,-413.8902003542421" />
<path fill="hsl(45, 39%, 67%)" stroke="black" stroke-width="1" d="M210.48799510321254,-300.0 A189.51200489678746,157.9266707473229,0,0,0,589.5120048967874,-300.0 A189.51200489678746,157.9266707473229,0,0,0,210.48799510321254,-300.0" />
<path fill="black" stroke="black" stroke-width="1" d="M333.936,-339.48166768683075 A10.064,13.6,0,0,0,354.064,-339.48166768683075 A10.064,13.6,0,0,0,333.936,-339.48166768683075" />
<path fill="black" stroke="black" stroke-width="1" d="M445.936,-339.48166768683075 A10.064,13.6,0,0,0,466.064,-339.48166768683075 A10.064,13.6,0,0,0,445.936,-339.48166768683075" />
<path fill="black" stroke="black" stroke-width="1" d="M384.7,-305.1 L415.3,-305.1 L400.0,-284.7 Z" />
<path fill="black" stroke="black" stroke-width="2" d="M400.0,-284.7 L400.0,-261.75" />
<path stroke-width="2" stroke="black" fill="none" d="M369.4,-257.75 A30.6,30.6,30,0,0,400.0,-261.75 A30.6,30.6,150,0,0,430.6,-257.75" />
<path fill="black" stroke="black" stroke-width="1" d="M366.0,-274.7 L338.9540768639061,-267.4530667371294" />
<path fill="black" stroke="black" stroke-width="1" d="M360.0,-280.7 L332.1065484534311,-278.25963920306555" />
<path fill="black" stroke="black" stroke-width="1" d="M366.0,-286.7 L338.1065484534311,-289.14036079693443" />
<path fill="black" stroke="black" stroke-width="1" d="M434.0,-274.7 L461.0459231360939,-267.4530667371294" />
<path fill="black" stroke="black" stroke-width="1" d="M440.0,-280.7 L467.8934515465689,-278.25963920306555" />
<path fill="black" stroke="black" stroke-width="1" d="M434.0,-286.7 L461.8934515465689,-289.14036079693443" />
</g>
</svg>