<?xml version="1.0" encoding="UTF-8"?>
<svg xmlns="http://www.w3.org/2000/svg" xmlns:xlink="http://www.w3.org/1999/xlink"
     width="800" height="600" viewBox="0 -600 800 600">
<defs>
</defs>
<g>
<path fill="hsl(45, 12%, 49%)" stroke="black" stroke-width="1" d="M303.73564112882195,-328.26684748320577 L242.3666056945051,-465.1384716054524 A20.8,20.8,0,0,1,256.0267074303091,-479.60889842719035 L396.20402210964886,-426.2205059688165" />
<path fill="hsl(45, 12%, 49%)" stroke="black" stroke-width="1" d="M496.26435887117805,-328.26684748320577 L557.6333943054949,-465.1384716054524 A20.8,20.8,0,0,0,543.9732925696909,-479.60889842719035 L403.79597789035114,-426.2205059688165" />
<path fill="hsl(45, 12%, 49%)" stroke="black" stroke-width="1" d="M246.2342365804403,-300.0 A153.7657634195597,194.64020686020214,0,0,0,553.7657634195597,-300.0 A153.7657634195597,194.64020686020214,0,0,0,246.2342365804403,-300.0" />
<path fill="black" stroke="black" stroke-width="1" d="M337.416,-348.66005171505054 A12.584000000000001,14.3,0,0,0,362.584,-348.66005171505054 A12.584000000000001,14.3,0,0,0,337.416,-348.66005171505054" />
<path fill="black" stroke="black" stroke-width="1" d="M437.416,-348.66005171505054 A12.584000000000001,14.3,0,0,0,462.584,-348.66005171505054 A12.584000000000001,14.3,0,0,0,437.416,-348.66005171505054" />
<path fill="black" stroke="black" stroke-width="1" d="M387.4,-304.2 L412.6,-304.2 L400.0,-287.4 Z" />
<path fill="black" stroke="black" stroke-width="2" d="M400.0,-287.4 L400.0,-268.5" />
<path stroke-width="2" stroke="black" fill="none" d="M374.8,-264.5 A25.2,25.2,30,0,0,400.0,-268.5 A25.2,25.2,150,0,0,425.2,-264.5" />
<path fill="black" stroke="black" stroke-width="1" d="M366.0,-277.4 L326.3970411221482,-266.78841915079664" />
<path fill="black" stroke="black" stroke-width="1" d="M360.0,-283.4 L319.1560173782384,-279.826614547346" />
<path fill="black" stroke="black" stroke-width="1" d="M366.0,-289.4 L325.1560173782384,-292.973385452654" />
<path fill="black" stroke="black" stroke-width="1" d="M434.0,-277.4 L473.6029588778518,-266.78841915079664" />
<path fill="black" stroke="black" stroke-width="1" d="M440.0,-283.4 L480.8439826217616,-279.82661454734597" />
<path fill="black" stroke="black" stroke-width="1" d="M434.0,-289.4 L474.8439826217616,-292.973385452654" />
</g>
</svg>