<?xml version="1.0" encoding="UTF-8"?>
<svg xmlns="http://www.w3.org/2000/svg" xmlns:xlink="http://www.w3.org/1999/xlink"
     width="800" height="600" viewBox="0 -600 800 600">
<defs>
</defs>
<g>
<path fill="hsl(45, 21%, 32%)" stroke="black" stroke-width="1" d="M298.34771625571534,-237.73638301707473 L195.59887478434587,-388.92671199446465 A63.2,63.2,0,0,1,229.98213163475987,-460.051894935238 L412.2912180713908,-473.4398373701691" />
<path fill="hsl(45, 21%, 32%)" stroke="black" stroke-width="1" d="M501.65228374428466,-237.73638301707473 L604.4011252156541,-388.92671199446465 A63.2,63.2,0,0,0,570.0178683652401,-460.051894935238 L387.7087819286092,-473.4398373701691" />
<path fill="hsl(45, 21%, 32%)" stroke="black" stroke-width="1" d="M225.27856456633606,-300.0 A174.72143543366394,171.29552493496465,0,0,0,574.7214354336639,-300.0 A174.72143543366394,171.29552493496465,0,0,0,225.27856456633606,-300.0" />
<path fill="black" stroke="black" stroke-width="1" d="M333.88,-342.8238812337412 A10.12,11.0,0,0,0,354.12,-342.8238812337412 A10.12,11.0,0,0,0,333.88,-342.8238812337412" />
<path fill="black" stroke="black" stroke-width="1" d="M445.88,-342.8238812337412 A10.12,11.0,0,0,0,466.12,-342.8238812337412 A10.12,11.0,0,0,0,445.88,-342.8238812337412" />
<path fill="black" stroke="black" stroke-width="1" d="M385.2,-304.93333333333334 L414.8,-304.93333333333334 L400.0,-285.2 Z" />
<path fill="black" stroke="black" stroke-width="2" d="M400.0,-285.2 L400.0,-263.0" />
<path stroke-width="2" stroke="black" fill="none" d="M370.4,-259.0 A29.6,29.6,30,0,0,400.0,-263.0 A29.6,29.6,150,0,0,429.6,-259.0" />
<path fill="black" stroke="black" stroke-width="1" d="M366.0,-275.2 L357.3066675633984,-272.8706285940773" />
<path fill="black" stroke="black" stroke-width="1" d="M360.0,-281.2 L351.0342477171743,-280.41559831527104" />
<path fill="black" stroke="black" stroke-width="1" d="M366.0,-287.2 L357.0342477171743,-287.98440168472894" />
<path fill="black" stroke="black" stroke-width="1" d="M434.0,-275.2 L442.6933324366016,-272.8706285940773" />
<path fill="black" stroke="black" stroke-width="1" d="M440.0,-281.2 L448.9657522828257,-280.41559831527104" />
<path fill="black" stroke="black" stroke-width="1" d="M434.0,-287.2 L442.9657522828257,-287.98440168472894" />
</g>
</svg>