<?xml version="1.0" encoding="UTF-8"?>
<svg xmlns="http://www.w3.org/2000/svg" xmlns:xlink="http://www.w3.org/1999/xlink"
     width="800" height="600" viewBox="0 -600 800 600">
<defs>
</defs>
<g>
<path fill="hsl(45, 36%, 42%)" stroke="black" stroke-width="1" d="M325.44730431565756,-213.40292401187918 L183.8795940668831,-221.5160870768645 A43.2,43.2,0,0,1,160.38288740083522,-269.22565344435793 L240.24998644135792,-386.3942776184573" />
<path fill="hsl(45, 36%, 42%)" stroke="black" stroke-width="1" d="M474.55269568434244,-213.40292401187918 L616.1204059331169,-221.5160870768645 A43.2,43.2,0,0,0,639.6171125991648,-269.22565344435793 L559.7500135586421,-386.3942776184573" />
<path fill="hsl(45, 36%, 42%)" stroke="black" stroke-width="1" d="M204.27284296756363,-300.0 A195.72715703243637,152.91184143159091,0,0,0,595.7271570324364,-300.0 A195.72715703243637,152.91184143159091,0,0,0,204.27284296756363,-300.0" />
<path fill="black" stroke="black" stroke-width="1" d="M307.476,-338.2279603578977 A13.524,14.7,0,0,0,334.524,-338.2279603578977 A13.524,14.7,0,0,0,307.476,-338.2279603578977" />
<path fill="black" stroke="black" stroke-width="1" d="M465.476,-338.2279603578977 A13.524,14.7,0,0,0,492.524,-338.2279603578977 A13.524,14.7,0,0,0,465.476,-338.2279603578977" />
<path fill="black" stroke="black" stroke-width="1" d="M385.4,-304.8666666666667 L414.6,-304.8666666666667 L400.0,-285.4 Z" />
<path fill="black" stroke="black" stroke-width="2" d="M400.0,-285.4 L400.0,-263.5" />
<path stroke-width="2" stroke="black" fill="none" d="M370.8,-259.5 A29.200000000000003,29.200000000000003,30,0,0,400.0,-263.5 A29.200000000000003,29.200000000000003,150,0,0,429.2,-259.5" />
<path fill="black" stroke="black" stroke-width="1" d="M366.0,-275.4 L333.1585219061717,-266.60015246651426" />
<path fill="black" stroke="black" stroke-width="1" d="M360.0,-281.4 L326.12938026488064,-278.4367047465796" />
<path fill="black" stroke="black" stroke-width="1" d="M366.0,-287.4 L332.12938026488064,-290.36329525342035" />
<path fill="black" stroke="black" stroke-width="1" d="M434.0,-275.4 L466.8414780938283,-266.60015246651426" />
<path fill="black" stroke="black" stroke-width="1" d="M440.0,-281.4 L473.87061973511936,-278.4367047465796" />
<path fill="black" stroke="black" stroke-width="1" d="M434.0,-287.4 L467.87061973511936,-290.36329525342035" />
</g>
</svg>