<?xml version="1.0" encoding="UTF-8"?>
<svg xmlns="http://www.w3.org/2000/svg" xmlns:xlink="http://www.w3.org/1999/xlink"
     width="800" height="600" viewBox="0 -600 800 600">
<defs>
</defs>
<g>
<path fill="hsl(45, 32%, 61%)" stroke="black" stroke-width="1" d="M364.19539235442505,-195.81481950186884 L207.6711735506119,-225.9566331144575 A60.800000000000004,60.800000000000004,0,0,1,194.4495425619325,-285.10680994054326 L323.2431300552786,-379.024709302666" />
<path fill="hsl(45, 32%, 61%)" stroke="black" stroke-width="1" d="M435.80460764557495,-195.81481950186884 L592.3288264493881,-225.9566331144575 A60.800000000000004,60.800000000000004,0,0,0,605.5504574380675,-285.10680994054326 L476.7568699447214,-379.024709302666" />
<path fill="hsl(45, 32%, 61%)" stroke="black" stroke-width="1" d="M234.0642292933799,-300.0 A165.9357707066201,180.36496815936965,0,0,0,565.9357707066201,-300.0 A165.9357707066201,180.36496815936965,0,0,0,234.0642292933799,-300.0" />
<path fill="black" stroke="black" stroke-width="1" d="M337.417,-345.0912420398424 A11.583000000000002,14.3,0,0,0,360.583,-345.0912420398424 A11.583000000000002,14.3,0,0,0,337.417,-345.0912420398424" />
<path fill="black" stroke="black" stroke-width="1" d="M439.417,-345.0912420398424 A11.583000000000002,14.3,0,0,0,462.583,-345.0912420398424 A11.583000000000002,14.3,0,0,0,439.417,-345.0912420398424" />
<path fill="black" stroke="black" stroke-width="1" d="M388.4,-303.8666666666667 L411.6,-303.8666666666667 L400.0,-288.4 Z" />
<path fill="black" stroke="black" stroke-width="2" d="M400.0,-288.4 L400.0,-271.0" />
<path stroke-width="2" stroke="black" fill="none" d="M376.8,-267.0 A23.2,23.2,30,0,0,400.0,-271.0 A23.2,23.2,150,0,0,423.2,-267.0" />
<path fill="black" stroke="black" stroke-width="1" d="M366.0,-278.4 L359.2385192159765,-276.58826668428236" />
<path fill="black" stroke="black" stroke-width="1" d="M360.0,-284.4 L353.02663711335776,-283.7899098007664" />
<path fill="black" stroke="black" stroke-width="1" d="M366.0,-290.4 L359.02663711335776,-291.01009019923356" />
<path fill="black" stroke="black" stroke-width="1" d="M434.0,-278.4 L440.7614807840235,-276.58826668428236" />
<path fill="black" stroke="black" stroke-width="1" d="M440.0,-284.4 L446.97336288664224,-283.7899098007664" />
<path fill="black" stroke="black" stroke-width="1" d="M434.0,-290.4 L440.97336288664224,-291.01009019923356" />
</g>
</svg>