<?xml version="1.0" encoding="UTF-8"?>
<svg xmlns="http://www.w3.org/2000/svg" xmlns:xlink="http://www.w3.org/1999/xlink"
     width="800" height="600" viewBox="0 -600 800 600">
<defs>
</defs>
<g>
<path fill="hsl(45, 43%, 73%)" stroke="black" stroke-width="1" d="M348.1832775035053,-217.17664356593792 L188.39071920517392,-181.16583529294314 A25.6,25.6,0,0,1,175.6650577791787,-200.24715963621736 L270.3181366531969,-333.9304968913476" />
<path fill="hsl(45, 43%, 73%)" stroke="black" stroke-width="1" d="M451.8167224964947,-217.17664356593792 L611.6092807948261,-181.16583529294314 A25.6,25.6,0,0,0,624.3349422208213,-200.24715963621736 L529.6818633468031,-333.9304968913476" />
<path fill="hsl(45, 43%, 73%)" stroke="black" stroke-width="1" d="M201.99244963890897,-300.0 A198.00755036109103,151.15080180235955,0,0,0,598.007550361091,-300.0 A198.00755036109103,151.15080180235955,0,0,0,201.99244963890897,-300.0" />
<path fill="black" stroke="black" stroke-width="1" d="M320.451,-337.7877004505899 A8.549000000000001,10.3,0,0,0,337.549,-337.7877004505899 A8.549000000000001,10.3,0,0,0,320.451,-337.7877004505899" />
<path fill="black" stroke="black" stroke-width="1" d="M462.451,-337.7877004505899 A8.549000000000001,10.3,0,0,0,479.549,-337.7877004505899 A8.549000000000001,10.3,0,0,0,462.451,-337.7877004505899" />
<path fill="black" stroke="black" stroke-width="1" d="M387.7,-304.1 L412.3,-304.1 L400.0,-287.7 Z" />
<path fill="black" stroke="black" stroke-width="2" d="M400.0,-287.7 L400.0,-269.25" />
<path stroke-width="2" stroke="black" fill="none" d="M375.4,-265.25 A24.6,24.6,30,0,0,400.0,-269.25 A24.6,24.6,150,0,0,424.6,-265.25" />
<path fill="black" stroke="black" stroke-width="1" d="M366.0,-277.7 L345.7155576479296,-272.2648000528471" />
<path fill="black" stroke="black" stroke-width="1" d="M360.0,-283.7 L339.07991134007335,-281.8697294022992" />
<path fill="black" stroke="black" stroke-width="1" d="M366.0,-289.7 L345.07991134007335,-291.5302705977008" />
<path fill="black" stroke="black" stroke-width="1" d="M434.0,-277.7 L454.2844423520704,-272.2648000528471" />
<path fill="black" stroke="black" stroke-width="1" d="M440.0,-283.7 L460.92008865992665,-281.8697294022992" />
<path fill="black" stroke="black" stroke-width="1" d="M434.0,-289.7 L454.92008865992665,-291.5302705977008" />
</g>
</svg>