<?xml version="1.0" encoding="UTF-8"?>
<svg xmlns="http://www.w3.org/2000/svg" xmlns:xlink="http://www.w3.org/1999/xlink"
     width="800" height="600" viewBox="0 -600 800 600">
<defs>
</defs>
<g>
<path fill="hsl(45, 4%, 57%)" stroke="black" stroke-width="1" d="M292.60897371829583,-303.39358556769673 L246.27823295936344,-410.6115992628245 A63.2,63.2,0,0,1,291.0202248451976,-461.84612903527267 L403.5011510758443,-430.37739480118216" />
<path fill="hsl(45, 4%, 57%)" stroke="black" stroke-width="1" d="M507.39102628170417,-303.39358556769673 L553.7217670406366,-410.6115992628245 A63.2,63.2,0,0,0,508.9797751548024,-461.84612903527267 L396.4988489241557,-430.37739480118216" />
<path fill="hsl(45, 4%, 57%)" stroke="black" stroke-width="1" d="M208.1337184391171,-300.0 A191.8662815608829,155.9888467974658,0,0,0,591.866281560883,-300.0 A191.8662815608829,155.9888467974658,0,0,0,208.1337184391171,-300.0" />
<path fill="black" stroke="black" stroke-width="1" d="M329.315,-338.99721169936646 A9.685,14.9,0,0,0,348.685,-338.99721169936646 A9.685,14.9,0,0,0,329.315,-338.99721169936646" />
<path fill="black" stroke="black" stroke-width="1" d="M451.315,-338.99721169936646 A9.685,14.9,0,0,0,470.685,-338.99721169936646 A9.685,14.9,0,0,0,451.315,-338.99721169936646" />
<path fill="black" stroke="black" stroke-width="1" d="M382.7,-305.76666666666665 L417.3,-305.76666666666665 L400.0,-282.7 Z" />
<path fill="black" stroke="black" stroke-width="2" d="M400.0,-282.7 L400.0,-256.75" />
<path stroke-width="2" stroke="black" fill="none" d="M365.4,-252.75 A34.6,34.6,30,0,0,400.0,-256.75 A34.6,34.6,150,0,0,434.6,-252.75" />
<path fill="black" stroke="black" stroke-width="1" d="M366.0,-272.7 L318.6696345118356,-260.0178667899765" />
<path fill="black" stroke="black" stroke-width="1" d="M360.0,-278.7 L311.18645979350447,-274.42936860536474" />
<path fill="black" stroke="black" stroke-width="1" d="M366.0,-284.7 L317.18645979350447,-288.97063139463523" />
<path fill="black" stroke="black" stroke-width="1" d="M434.0,-272.7 L481.3303654881644,-260.0178667899765" />
<path fill="black" stroke="black" stroke-width="1" d="M440.0,-278.7 L488.81354020649553,-274.42936860536474" />
<path fill="black" stroke="black" stroke-width="1" d="M434.0,-284.7 L482.81354020649553,-288.97063139463523" />
</g>
</svg>