<?xml version="1.0" encoding="UTF-8"?>
<svg xmlns="http://www.w3.org/2000/svg" xmlns:xlink="http://www.w3.org/1999/xlink"
     width="800" height="600" viewBox="0 -600 800 600">
<defs>
</defs>
<g>
<path fill="hsl(45, 29%, 73%)" stroke="black" stroke-width="1" d="M300.96350555231146,-269.0066659611664 L175.234982544064,-425.8292998574398 A24.0,24.0,0,0,1,186.1568149068828,-444.9153396489728 L385.0616147460156,-415.9691723559701" />
<path fill="hsl(45, 29%, 73%)" stroke="black" stroke-width="1" d="M499.03649444768854,-269.0066659611664 L624.765017455936,-425.8292998574398 A24.0,24.0,0,0,0,613.8431850931172,-444.9153396489728 L414.9383852539844,-415.9691723559701" />
<path fill="hsl(45, 29%, 73%)" stroke="black" stroke-width="1" d="M204.27284296756363,-300.0 A195.72715703243637,152.91184143159091,0,0,0,595.7271570324364,-300.0 A195.72715703243637,152.91184143159091,0,0,0,204.27284296756363,-300.0" />
<path fill="black" stroke="black" stroke-width="1" d="M340.295,-338.2279603578977 A7.705,11.5,0,0,0,355.705,-338.2279603578977 A7.705,11.5,0,0,0,340.295,-338.2279603578977" />
<path fill="black" stroke="black" stroke-width="1" d="M444.295,-338.2279603578977 A7.705,11.5,0,0,0,459.705,-338.2279603578977 A7.705,11.5,0,0,0,444.295,-338.2279603578977" />
<path fill="black" stroke="black" stroke-width="1" d="M380.4,-306.53333333333336 L419.6,-306.53333333333336 L400.0,-280.4 Z" />
<path fill="black" stroke="black" stroke-width="2" d="M400.0,-280.4 L400.0,-251.0" />
<path stroke-width="2" stroke="black" fill="none" d="M360.8,-247.0 A39.2,39.2,30,0,0,400.0,-251.0 A39.2,39.2,150,0,0,439.2,-247.0" />
<path fill="black" stroke="black" stroke-width="1" d="M366.0,-270.4 L359.2385192159765,-268.58826668428236" />
<path fill="black" stroke="black" stroke-width="1" d="M360.0,-276.4 L353.02663711335776,-275.7899098007664" />
<path fill="black" stroke="black" stroke-width="1" d="M366.0,-282.4 L359.02663711335776,-283.01009019923356" />
<path fill="black" stroke="black" stroke-width="1" d="M434.0,-270.4 L440.7614807840235,-268.58826668428236" />
<path fill="black" stroke="black" stroke-width="1" d="M440.0,-276.4 L446.97336288664224,-275.7899098007664" />
<path fill="black" stroke="black" stroke-width="1" d="M434.0,-282.4 L440.97336288664224,-283.01009019923356" />
</g>
</svg>