<?xml version="1.0" encoding="UTF-8"?>
<svg xmlns="http://www.w3.org/2000/svg" xmlns:xlink="http://www.w3.org/1999/xlink"
     width="800" height="600" viewBox="0 -600 800 600">
<defs>
</defs>
<g>
<path fill="hsl(45, 5%, 35%)" stroke="black" stroke-width="1" d="M358.45829167313207,-210.61328070910398 L194.48809458974063,-177.90831979437752 A17.6,17.6,0,0,1,182.11312056307406,-193.58900516269657 L252.03351504379975,-345.4671748766476" />
<path fill="hsl(45, 5%, 35%)" stroke="black" stroke-width="1" d="M441.54170832686793,-210.61328070910398 L605.5119054102594,-177.90831979437752 A17.6,17.6,0,0,0,617.8868794369259,-193.58900516269657 L547.9664849562002,-345.4671748766476" />
<path fill="hsl(45, 5%, 35%)" stroke="black" stroke-width="1" d="M225.27856456633606,-300.0 A174.72143543366394,171.29552493496465,0,0,0,574.7214354336639,-300.0 A174.72143543366394,171.29552493496465,0,0,0,225.27856456633606,-300.0" />
<path fill="black" stroke="black" stroke-width="1" d="M315.324,-342.8238812337412 A7.676,10.1,0,0,0,330.676,-342.8238812337412 A7.676,10.1,0,0,0,315.324,-342.8238812337412" />
<path fill="black" stroke="black" stroke-width="1" d="M469.324,-342.8238812337412 A7.676,10.1,0,0,0,484.676,-342.8238812337412 A7.676,10.1,0,0,0,469.324,-342.8238812337412" />
<path fill="black" stroke="black" stroke-width="1" d="M385.0,-305.0 L415.0,-305.0 L400.0,-285.0 Z" />
<path fill="black" stroke="black" stroke-width="2" d="M400.0,-285.0 L400.0,-262.5" />
<path stroke-width="2" stroke="black" fill="none" d="M370.0,-258.5 A30.0,30.0,30,0,0,400.0,-262.5 A30.0,30.0,150,0,0,430.0,-258.5" />
<path fill="black" stroke="black" stroke-width="1" d="M366.0,-275.0 L344.7496318216405,-269.30598100774455" />
<path fill="black" stroke="black" stroke-width="1" d="M360.0,-281.0 L338.0837166419816,-279.08257365955154" />
<path fill="black" stroke="black" stroke-width="1" d="M366.0,-287.0 L344.0837166419816,-288.91742634044846" />
<path fill="black" stroke="black" stroke-width="1" d="M434.0,-275.0 L455.2503681783595,-269.30598100774455" />
<path fill="black" stroke="black" stroke-width="1" d="M440.0,-281.0 L461.9162833580184,-279.08257365955154" />
<path fill="black" stroke="black" stroke-width="1" d="M434.0,-287.0 L455.9162833580184,-288.91742634044846" />
</g>
</svg>