<?xml version="1.0" encoding="UTF-8"?>
<svg xmlns="http://www.w3.org/2000/svg" xmlns:xlink="http://www.w3.org/1999/xlink"
     width="800" height="600" viewBox="0 -600 800 600">
<defs>
</defs>
<g>
<path fill="hsl(45, 36%, 35%)" stroke="black" stroke-width="1" d="M375.06029530513104,-181.37930462855886 L145.06184017064606,-182.222296769862 A9.600000000000001,9.600000000000001,0,0,1,140.96777002745227,-191.2938781817959 L292.4965474173933,-364.32286310255915" />
<path fill="hsl(45, 36%, 35%)" stroke="black" stroke-width="1" d="M424.93970469486896,-181.37930462855886 L654.9381598293539,-182.222296769862 A9.600000000000001,9.600000000000001,0,0,0,659.0322299725477,-191.2938781817959 L507.5034525826067,-364.32286310255915" />
<path fill="hsl(45, 36%, 35%)" stroke="black" stroke-width="1" d="M212.87188880341898,-300.0 A187.12811119658102,159.93855657827442,0,0,0,587.128111196581,-300.0 A187.12811119658102,159.93855657827442,0,0,0,212.87188880341898,-300.0" />
<path fill="black" stroke="black" stroke-width="1" d="M313.844,-339.98463914456863 A9.156,10.9,0,0,0,332.156,-339.98463914456863 A9.156,10.9,0,0,0,313.844,-339.98463914456863" />
<path fill="black" stroke="black" stroke-width="1" d="M467.844,-339.98463914456863 A9.156,10.9,0,0,0,486.156,-339.98463914456863 A9.156,10.9,0,0,0,467.844,-339.98463914456863" />
<path fill="black" stroke="black" stroke-width="1" d="M383.3,-305.56666666666666 L416.7,-305.56666666666666 L400.0,-283.3 Z" />
<path fill="black" stroke="black" stroke-width="2" d="M400.0,-283.3 L400.0,-258.25" />
<path stroke-width="2" stroke="black" fill="none" d="M366.6,-254.25 A33.4,33.4,30,0,0,400.0,-258.25 A33.4,33.4,150,0,0,433.4,-254.25" />
<path fill="black" stroke="black" stroke-width="1" d="M366.0,-273.3 L319.6355603381247,-260.876685835079" />
<path fill="black" stroke="black" stroke-width="1" d="M360.0,-279.3 L312.1826544915962,-275.1165243481124" />
<path fill="black" stroke="black" stroke-width="1" d="M366.0,-285.3 L318.1826544915962,-289.4834756518876" />
<path fill="black" stroke="black" stroke-width="1" d="M434.0,-273.3 L480.3644396618753,-260.876685835079" />
<path fill="black" stroke="black" stroke-width="1" d="M440.0,-279.3 L487.8173455084038,-275.1165243481124" />
<path fill="black" stroke="black" stroke-width="1" d="M434.0,-285.3 L481.8173455084038,-289.4834756518876" />
</g>
</svg>