<?xml version="1.0" encoding="UTF-8"?>
<svg xmlns="http://www.w3.org/2000/svg" xmlns:xlink="http://www.w3.org/1999/xlink"
     width="800" height="600" viewBox="0 -600 800 600">
<defs>
</defs>
<g>
<path d="M413.22901794335246,-193.62541341999318 L214.87779429595048,-157.5788868525371 A37.6,37.6,0,0,1,186.772781502317,-192.53447294651227 L264.57143963489966,-378.51815178089157" stroke-width="1" stroke="black" fill="hsl(45, 29%, 41%)" />
<path d="M386.77098205664754,-193.62541341999318 L585.1222057040495,-157.5788868525371 A37.6,37.6,0,0,0,613.227218497683,-192.53447294651227 L535.4285603651003,-378.51815178089157" stroke-width="1" stroke="black" fill="hsl(45, 29%, 41%)" />
<path d="M246.2342365804403,-300.0 A153.7657634195597,194.64020686020214,0,0,0,553.7657634195597,-300.0 A153.7657634195597,194.64020686020214,0,0,0,246.2342365804403,-300.0" stroke-width="1" stroke="black" fill="hsl(45, 29%, 41%)" />
<path d="M339.6,-348.66005171505054 A8.4,15.0,0,0,0,356.4,-348.66005171505054 A8.4,15.0,0,0,0,339.6,-348.66005171505054" stroke-width="1" stroke="black" fill="black" />
<path d="M443.6,-348.66005171505054 A8.4,15.0,0,0,0,460.4,-348.66005171505054 A8.4,15.0,0,0,0,443.6,-348.66005171505054" stroke-width="1" stroke="black" fill="black" />
<path d="M380.0,-306.6666666666667 L420.0,-306.6666666666667 L400.0,-280.0 Z" stroke-width="1" stroke="black" fill="black" />
<path d="M400.0,-280.0 L400.0,-250.0" stroke-width="2" stroke="black" fill="black" />
<path d="M360.0,-246.0 A40.0,40.0,30,0,0,400.0,-250.0 A40.0,40.0,150,0,0,440.0,-246.0" fill="none" stroke-width="2" stroke="black" />
<path d="M366.0,-270.0 L356.34074173710934,-267.4118095489748" stroke-width="1" stroke="black" fill="black" />
<path d="M360.0,-276.0 L350.03805301908255,-275.1284425725234" stroke-width="1" stroke="black" fill="black" />
<path d="M366.0,-282.0 L356.03805301908255,-282.8715574274766" stroke-width="1" stroke="black" fill="black" />
<path d="M434.0,-270.0 L443.65925826289066,-267.4118095489748" stroke-width="1" stroke="black" fill="black" />
<path d="M440.0,-276.0 L449.96194698091745,-275.1284425725234" stroke-width="1" stroke="black" fill="black" />
<path d="M434.0,-282.0 L443.96194698091745,-282.8715574274766" stroke-width="1" stroke="black" fill="black" />
</g>
</svg>