<?xml version="1.0" encoding="utf-8" ?>
<svg baseProfile="full" height="100%" version="1.1" width="100%" xmlns="http://www.w3.org/2000/svg" xmlns:ev="http://www.w3.org/2001/xml-events" xmlns:xlink="http://www.w3.org/1999/xlink"><defs /><path d="M 281.48 318.92 L 227.36 168.28 A 54.27770506516361 54.27770506516361 0 0,1 269.77224302323873 122.63381274084404 L 423.97 165.58" style="fill:hsl(45, 37%, 56%);stroke-width:1.00;stroke:rgb(0, 0, 0)" /><path d="M 518.52 318.92 L 572.64 168.28 A 54.27770506516361 54.27770506516361 0 0,0 530.2277569767613 122.63381274084404 L 376.03 165.58" style="fill:hsl(45, 37%, 56%);stroke-width:1.00;stroke:rgb(0, 0, 0)" /><ellipse cx="400.0" cy="300.0" rx="174.25711853034937" ry="171.75195052239678" style="fill:hsl(45, 37%, 56%);stroke-width:1.00;stroke:rgb(0, 0, 0)" /><ellipse cx="340.58357552332495" cy="257.0620123694008" rx="9.386200371021154" ry="13.141764945723569" style="fill:hsl(0, 0%, 0%);stroke-width:1.00;stroke:rgb(0, 0, 0)" /><ellipse cx="459.41642447667505" cy="257.0620123694008" rx="9.386200371021154" ry="13.141764945723569" style="fill:hsl(0, 0%, 0%);stroke-width:1.00;stroke:rgb(0, 0, 0)" /><polygon points="387.7700583261345,295.9233527753782 412.2299416738655,295.9233527753782 400.0,312.2299416738655" style="fill:hsl(0, 0%, 0%);stroke-width:1.00;stroke:rgb(0, 0, 0)" /><line style="fill:hsl(0, 0%, 0%);stroke-width:2.00;stroke:rgb(0, 0, 0)" x1="400.0" x2="400.0" y1="312.2299416738655" y2="330.57485418466376" /><path d="M 375 334 A 24.459883347731004 24.459883347731004 30 0,0 400.0 330.57485418466376 A 24.459883347731004 24.459883347731004 150 0,0 424.459883347731 334.57485418466376" style="fill:none;stroke-width:2.00;stroke:rgb(0, 0, 0)" /><line style="fill:hsl(0, 0%, 0%);stroke-width:1.00;stroke:rgb(0, 0, 0)" x1="366.0" x2="335.5739337064681" y1="322.2299416738655" y2="330.38258156607316" /><line style="fill:hsl(0, 0%, 0%);stroke-width:1.00;stroke:rgb(0, 0, 0)" x1="360.0" x2="328.6204829600098" y1="316.2299416738655" y2="318.97529368178317" /><line style="fill:hsl(0, 0%, 0%);stroke-width:1.00;stroke:rgb(0, 0, 0)" x1="366.0" x2="334.6204829600098" y1="310.2299416738655" y2="307.4845896659478" /><line style="fill:hsl(0, 0%, 0%);stroke-width:1.00;stroke:rgb(0, 0, 0)" x1="434.0" x2="464.4260662935319" y1="322.2299416738655" y2="330.38258156607316" /><line style="fill:hsl(0, 0%, 0%);stroke-width:1.00;stroke:rgb(0, 0, 0)" x1="440.0" x2="471.3795170399902" y1="316.2299416738655" y2="318.97529368178317" /><line style="fill:hsl(0, 0%, 0%);stroke-width:1.00;stroke:rgb(0, 0, 0)" x1="434.0" x2="465.3795170399902" y1="310.2299416738655" y2="307.4845896659478" /></svg>