<?xml version="1.0" encoding="utf-8" ?>
<svg baseProfile="full" height="100%" version="1.1" width="100%" xmlns="http://www.w3.org/2000/svg" xmlns:ev="http://www.w3.org/2001/xml-events" xmlns:xlink="http://www.w3.org/1999/xlink"><defs /><path d="M 402.73 382.30 L 159.14 420.02 A 9.803164312034454 9.803164312034454 0 0,1 153.8139910668749 411.6852972636846 L 290.25 206.40" style="fill:hsl(45, 53%, 79%);stroke-width:1.00;stroke:rgb(0, 0, 0)" /><path d="M 397.27 382.30 L 640.86 420.02 A 9.803164312034454 9.803164312034454 0 0,0 646.1860089331251 411.6852972636846 L 509.75 206.40" style="fill:hsl(45, 53%, 79%);stroke-width:1.00;stroke:rgb(0, 0, 0)" /><ellipse cx="400.0" cy="300.0" rx="158.6170933282141" ry="188.68710409457717" style="fill:hsl(45, 53%, 79%);stroke-width:1.00;stroke:rgb(0, 0, 0)" /><ellipse cx="344.2704540704048" cy="252.8282239763557" rx="10.224633279613817" ry="11.65156858066236" style="fill:hsl(0, 0%, 0%);stroke-width:1.00;stroke:rgb(0, 0, 0)" /><ellipse cx="455.7295459295952" cy="252.8282239763557" rx="10.224633279613817" ry="11.65156858066236" style="fill:hsl(0, 0%, 0%);stroke-width:1.00;stroke:rgb(0, 0, 0)" /><polygon points="383.5414593519976,294.5138197839992 416.4585406480024,294.5138197839992 400.0,316.4585406480024" style="fill:hsl(0, 0%, 0%);stroke-width:1.00;stroke:rgb(0, 0, 0)" /><line style="fill:hsl(0, 0%, 0%);stroke-width:2.00;stroke:rgb(0, 0, 0)" x1="400.0" x2="400.0" y1="316.4585406480024" y2="341.146351620006" /><path d="M 367 345 A 32.91708129600478 32.91708129600478 30 0,0 400.0 341.146351620006 A 32.91708129600478 32.91708129600478 150 0,0 432.91708129600477 345.146351620006" style="fill:none;stroke-width:2.00;stroke:rgb(0, 0, 0)" /><line style="fill:hsl(0, 0%, 0%);stroke-width:1.00;stroke:rgb(0, 0, 0)" x1="366.0" x2="353.6450648256712" y1="326.4585406480024" y2="329.7690355505026" /><line style="fill:hsl(0, 0%, 0%);stroke-width:1.00;stroke:rgb(0, 0, 0)" x1="360.0" x2="347.257902645363" y1="320.4585406480024" y2="321.5733297160768" /><line style="fill:hsl(0, 0%, 0%);stroke-width:1.00;stroke:rgb(0, 0, 0)" x1="366.0" x2="353.257902645363" y1="314.4585406480024" y2="313.343751579928" /><line style="fill:hsl(0, 0%, 0%);stroke-width:1.00;stroke:rgb(0, 0, 0)" x1="434.0" x2="446.3549351743288" y1="326.4585406480024" y2="329.7690355505026" /><line style="fill:hsl(0, 0%, 0%);stroke-width:1.00;stroke:rgb(0, 0, 0)" x1="440.0" x2="452.742097354637" y1="320.4585406480024" y2="321.5733297160768" /><line style="fill:hsl(0, 0%, 0%);stroke-width:1.00;stroke:rgb(0, 0, 0)" x1="434.0" x2="446.742097354637" y1="314.4585406480024" y2="313.343751579928" /></svg>