<?xml version="1.0" encoding="utf-8" ?>
<svg baseProfile="full" height="100%" version="1.1" width="100%" xmlns="http://www.w3.org/2000/svg" xmlns:ev="http://www.w3.org/2001/xml-events" xmlns:xlink="http://www.w3.org/1999/xlink"><defs /><path d="M 350.50 363.50 L 154.11 284.54 A 23.29507857701124 23.29507857701124 0 0,1 154.14872498039153 262.91739313057536 L 350.85 184.72" style="fill:hsl(45, 25%, 56%);stroke-width:1.00;stroke:rgb(0, 0, 0)" /><path d="M 449.50 363.50 L 645.89 284.54 A 23.29507857701124 23.29507857701124 0 0,0 645.8512750196085 262.91739313057536 L 449.15 184.72" style="fill:hsl(45, 25%, 56%);stroke-width:1.00;stroke:rgb(0, 0, 0)" /><ellipse cx="400.0" cy="300.0" rx="164.59072278521387" ry="181.8389244152994" style="fill:hsl(45, 25%, 56%);stroke-width:1.00;stroke:rgb(0, 0, 0)" /><ellipse cx="322.96405418432323" cy="254.54026889617515" rx="9.826142335903224" ry="14.593085489267278" style="fill:hsl(0, 0%, 0%);stroke-width:1.00;stroke:rgb(0, 0, 0)" /><ellipse cx="477.03594581567677" cy="254.54026889617515" rx="9.826142335903224" ry="14.593085489267278" style="fill:hsl(0, 0%, 0%);stroke-width:1.00;stroke:rgb(0, 0, 0)" /><polygon points="384.62262539123407,294.8742084637447 415.37737460876593,294.8742084637447 400.0,315.37737460876593" style="fill:hsl(0, 0%, 0%);stroke-width:1.00;stroke:rgb(0, 0, 0)" /><line style="fill:hsl(0, 0%, 0%);stroke-width:2.00;stroke:rgb(0, 0, 0)" x1="400.0" x2="400.0" y1="315.37737460876593" y2="338.44343652191475" /><path d="M 369 342 A 30.754749217531817 30.754749217531817 30 0,0 400.0 338.44343652191475 A 30.754749217531817 30.754749217531817 150 0,0 430.7547492175318 342.44343652191475" style="fill:none;stroke-width:2.00;stroke:rgb(0, 0, 0)" /><line style="fill:hsl(0, 0%, 0%);stroke-width:1.00;stroke:rgb(0, 0, 0)" x1="366.0" x2="331.56781972283886" y1="325.37737460876593" y2="334.6034495076741" /><line style="fill:hsl(0, 0%, 0%);stroke-width:1.00;stroke:rgb(0, 0, 0)" x1="360.0" x2="324.4888308167237" y1="319.37737460876593" y2="322.48419934085376" /><line style="fill:hsl(0, 0%, 0%);stroke-width:1.00;stroke:rgb(0, 0, 0)" x1="366.0" x2="330.4888308167237" y1="313.37737460876593" y2="310.2705498766781" /><line style="fill:hsl(0, 0%, 0%);stroke-width:1.00;stroke:rgb(0, 0, 0)" x1="434.0" x2="468.43218027716114" y1="325.37737460876593" y2="334.6034495076741" /><line style="fill:hsl(0, 0%, 0%);stroke-width:1.00;stroke:rgb(0, 0, 0)" x1="440.0" x2="475.5111691832763" y1="319.37737460876593" y2="322.48419934085376" /><line style="fill:hsl(0, 0%, 0%);stroke-width:1.00;stroke:rgb(0, 0, 0)" x1="434.0" x2="469.5111691832763" y1="313.37737460876593" y2="310.2705498766781" /></svg>