<?xml version="1.0" encoding="utf-8" ?>
<svg baseProfile="full" height="100%" version="1.1" width="100%" xmlns="http://www.w3.org/2000/svg" xmlns:ev="http://www.w3.org/2001/xml-events" xmlns:xlink="http://www.w3.org/1999/xlink"><defs /><path d="M 313.89 330.95 L 164.20 230.58 A 23.113223797064002 23.113223797064002 0 0,1 168.3915602111482 208.17537824859178 L 344.25 168.75" style="fill:hsl(45, 9%, 66%);stroke-width:1.00;stroke:rgb(0, 0, 0)" /><path d="M 486.11 330.95 L 635.80 230.58 A 23.113223797064002 23.113223797064002 0 0,0 631.6084397888518 208.17537824859178 L 455.75 168.75" style="fill:hsl(45, 9%, 66%);stroke-width:1.00;stroke:rgb(0, 0, 0)" /><ellipse cx="400.0" cy="300.0" rx="179.93385745574767" ry="166.33334283605095" style="fill:hsl(45, 9%, 66%);stroke-width:1.00;stroke:rgb(0, 0, 0)" /><ellipse cx="348.457662306127" cy="258.4166642909873" rx="13.240971456385642" ry="13.866491335881316" style="fill:hsl(0, 0%, 0%);stroke-width:1.00;stroke:rgb(0, 0, 0)" /><ellipse cx="451.542337693873" cy="258.4166642909873" rx="13.240971456385642" ry="13.866491335881316" style="fill:hsl(0, 0%, 0%);stroke-width:1.00;stroke:rgb(0, 0, 0)" /><polygon points="386.5118393549736,295.50394645165784 413.4881606450264,295.50394645165784 400.0,313.4881606450264" style="fill:hsl(0, 0%, 0%);stroke-width:1.00;stroke:rgb(0, 0, 0)" /><line style="fill:hsl(0, 0%, 0%);stroke-width:2.00;stroke:rgb(0, 0, 0)" x1="400.0" x2="400.0" y1="313.4881606450264" y2="333.7204016125661" /><path d="M 373 337 A 26.97632129005289 26.97632129005289 30 0,0 400.0 333.7204016125661 A 26.97632129005289 26.97632129005289 150 0,0 426.9763212900529 337.7204016125661" style="fill:none;stroke-width:2.00;stroke:rgb(0, 0, 0)" /><line style="fill:hsl(0, 0%, 0%);stroke-width:1.00;stroke:rgb(0, 0, 0)" x1="366.0" x2="316.4703737787356" y1="323.4881606450264" y2="336.75958399242955" /><line style="fill:hsl(0, 0%, 0%);stroke-width:1.00;stroke:rgb(0, 0, 0)" x1="360.0" x2="308.91828161417914" y1="317.4881606450264" y2="321.9572319172095" /><line style="fill:hsl(0, 0%, 0%);stroke-width:1.00;stroke:rgb(0, 0, 0)" x1="366.0" x2="314.91828161417914" y1="311.4881606450264" y2="307.0190893728433" /><line style="fill:hsl(0, 0%, 0%);stroke-width:1.00;stroke:rgb(0, 0, 0)" x1="434.0" x2="483.5296262212644" y1="323.4881606450264" y2="336.75958399242955" /><line style="fill:hsl(0, 0%, 0%);stroke-width:1.00;stroke:rgb(0, 0, 0)" x1="440.0" x2="491.08171838582086" y1="317.4881606450264" y2="321.9572319172095" /><line style="fill:hsl(0, 0%, 0%);stroke-width:1.00;stroke:rgb(0, 0, 0)" x1="434.0" x2="485.08171838582086" y1="311.4881606450264" y2="307.0190893728433" /></svg>