<?xml version="1.0" encoding="utf-8" ?>
<svg baseProfile="full" height="100%" version="1.1" width="100%" xmlns="http://www.w3.org/2000/svg" xmlns:ev="http://www.w3.org/2001/xml-events" xmlns:xlink="http://www.w3.org/1999/xlink"><defs /><path d="M 417.18 403.29 L 205.99 479.63 A 19.45153675659054 19.45153675659054 0 0,1 189.97417616775124 464.56608063252315 L 253.20 249.09" style="fill:hsl(45, 42%, 34%);stroke-width:1.00;stroke:rgb(0, 0, 0)" /><path d="M 382.82 403.29 L 594.01 479.63 A 19.45153675659054 19.45153675659054 0 0,0 610.0258238322488 464.56608063252315 L 546.80 249.09" style="fill:hsl(45, 42%, 34%);stroke-width:1.00;stroke:rgb(0, 0, 0)" /><ellipse cx="400.0" cy="300.0" rx="182.19983338005767" ry="164.26469467493936" style="fill:hsl(45, 42%, 34%);stroke-width:1.00;stroke:rgb(0, 0, 0)" /><ellipse cx="339.1217096455264" cy="258.93382633126515" rx="12.59216713711382" ry="13.222770037470681" style="fill:hsl(0, 0%, 0%);stroke-width:1.00;stroke:rgb(0, 0, 0)" /><ellipse cx="460.8782903544736" cy="258.93382633126515" rx="12.59216713711382" ry="13.222770037470681" style="fill:hsl(0, 0%, 0%);stroke-width:1.00;stroke:rgb(0, 0, 0)" /><polygon points="387.42797481737904,295.8093249391263 412.57202518262096,295.8093249391263 400.0,312.57202518262096" style="fill:hsl(0, 0%, 0%);stroke-width:1.00;stroke:rgb(0, 0, 0)" /><line style="fill:hsl(0, 0%, 0%);stroke-width:2.00;stroke:rgb(0, 0, 0)" x1="400.0" x2="400.0" y1="312.57202518262096" y2="331.4300629565524" /><path d="M 374 335 A 25.144050365241895 25.144050365241895 30 0,0 400.0 331.4300629565524 A 25.144050365241895 25.144050365241895 150 0,0 425.1440503652419 335.4300629565524" style="fill:none;stroke-width:2.00;stroke:rgb(0, 0, 0)" /><line style="fill:hsl(0, 0%, 0%);stroke-width:1.00;stroke:rgb(0, 0, 0)" x1="366.0" x2="309.5480148026079" y1="322.57202518262096" y2="337.69828902739584" /><line style="fill:hsl(0, 0%, 0%);stroke-width:1.00;stroke:rgb(0, 0, 0)" x1="360.0" x2="301.77899915312355" y1="316.57202518262096" y2="321.66570273585586" /><line style="fill:hsl(0, 0%, 0%);stroke-width:1.00;stroke:rgb(0, 0, 0)" x1="366.0" x2="307.77899915312355" y1="310.57202518262096" y2="305.47834762938606" /><line style="fill:hsl(0, 0%, 0%);stroke-width:1.00;stroke:rgb(0, 0, 0)" x1="434.0" x2="490.4519851973921" y1="322.57202518262096" y2="337.69828902739584" /><line style="fill:hsl(0, 0%, 0%);stroke-width:1.00;stroke:rgb(0, 0, 0)" x1="440.0" x2="498.22100084687645" y1="316.57202518262096" y2="321.66570273585586" /><line style="fill:hsl(0, 0%, 0%);stroke-width:1.00;stroke:rgb(0, 0, 0)" x1="434.0" x2="492.22100084687645" y1="310.57202518262096" y2="305.47834762938606" /></svg>