<?xml version="1.0" encoding="utf-8" ?>
<svg baseProfile="full" height="100%" version="1.1" width="100%" xmlns="http://www.w3.org/2000/svg" xmlns:ev="http://www.w3.org/2001/xml-events" xmlns:xlink="http://www.w3.org/1999/xlink"><defs /><path d="M 314.97 372.65 L 179.96 302.17 A 43.119453511632486 43.119453511632486 0 0,1 182.54557916457395 258.02201575192896 L 324.85 203.77" style="fill:hsl(45, 7%, 69%);stroke-width:1.00;stroke:rgb(0, 0, 0)" /><path d="M 485.03 372.65 L 620.04 302.17 A 43.119453511632486 43.119453511632486 0 0,0 617.454420835426 258.02201575192896 L 475.15 203.77" style="fill:hsl(45, 7%, 69%);stroke-width:1.00;stroke:rgb(0, 0, 0)" /><ellipse cx="400.0" cy="300.0" rx="175.09033245252294" ry="170.93462317866963" style="fill:hsl(45, 7%, 69%);stroke-width:1.00;stroke:rgb(0, 0, 0)" /><ellipse cx="327.0586529936444" cy="257.2663442053326" rx="7.023053952644045" ry="12.881795972104161" style="fill:hsl(0, 0%, 0%);stroke-width:1.00;stroke:rgb(0, 0, 0)" /><ellipse cx="472.9413470063556" cy="257.2663442053326" rx="7.023053952644045" ry="12.881795972104161" style="fill:hsl(0, 0%, 0%);stroke-width:1.00;stroke:rgb(0, 0, 0)" /><polygon points="385.89053805876165,295.29684601958724 414.10946194123835,295.29684601958724 400.0,314.10946194123835" style="fill:hsl(0, 0%, 0%);stroke-width:1.00;stroke:rgb(0, 0, 0)" /><line style="fill:hsl(0, 0%, 0%);stroke-width:2.00;stroke:rgb(0, 0, 0)" x1="400.0" x2="400.0" y1="314.10946194123835" y2="335.2736548530959" /><path d="M 371 339 A 28.21892388247672 28.21892388247672 30 0,0 400.0 335.2736548530959 A 28.21892388247672 28.21892388247672 150 0,0 428.2189238824767 339.2736548530959" style="fill:none;stroke-width:2.00;stroke:rgb(0, 0, 0)" /><line style="fill:hsl(0, 0%, 0%);stroke-width:1.00;stroke:rgb(0, 0, 0)" x1="366.0" x2="335.2994562078198" y1="324.10946194123835" y2="332.33564785754936" /><line style="fill:hsl(0, 0%, 0%);stroke-width:1.00;stroke:rgb(0, 0, 0)" x1="360.0" x2="328.33740425825334" y1="318.10946194123835" y2="320.8795801264454" /><line style="fill:hsl(0, 0%, 0%);stroke-width:1.00;stroke:rgb(0, 0, 0)" x1="366.0" x2="334.33740425825334" y1="312.10946194123835" y2="309.3393437560313" /><line style="fill:hsl(0, 0%, 0%);stroke-width:1.00;stroke:rgb(0, 0, 0)" x1="434.0" x2="464.7005437921802" y1="324.10946194123835" y2="332.33564785754936" /><line style="fill:hsl(0, 0%, 0%);stroke-width:1.00;stroke:rgb(0, 0, 0)" x1="440.0" x2="471.66259574174666" y1="318.10946194123835" y2="320.8795801264454" /><line style="fill:hsl(0, 0%, 0%);stroke-width:1.00;stroke:rgb(0, 0, 0)" x1="434.0" x2="465.66259574174666" y1="312.10946194123835" y2="309.3393437560313" /></svg>