<?xml version="1.0" encoding="UTF-8"?>
<svg xmlns="http://www.w3.org/2000/svg" xmlns:xlink="http://www.w3.org/1999/xlink"
     width="800" height="600" viewBox="0 -600 800 600">
<defs>
</defs>
<g>
<path d="M303.04235401013216,-256.06160833441555 L140.3298071682591,-393.51569921653976 A5.6000000000000005,5.6000000000000005,0,0,1,141.85822819483678,-399.3458390812969 L351.07844341686166,-439.29457551249845" stroke-width="1" stroke="black" fill="hsl(45, 44%, 52%)" />
<path d="M496.95764598986784,-256.06160833441555 L659.6701928317409,-393.51569921653976 A5.6000000000000005,5.6000000000000005,0,0,0,658.1417718051632,-399.3458390812969 L448.92155658313834,-439.29457551249845" stroke-width="1" stroke="black" fill="hsl(45, 44%, 52%)" />
<path d="M213.67329767314618,-300.0 A186.32670232685382,160.62646752314987,0,0,0,586.3267023268538,-300.0 A186.32670232685382,160.62646752314987,0,0,0,213.67329767314618,-300.0" stroke-width="1" stroke="black" fill="hsl(45, 44%, 52%)" />
<path d="M326.5,-340.15661688078745 A12.5,12.5,0,0,0,351.5,-340.15661688078745 A12.5,12.5,0,0,0,326.5,-340.15661688078745" stroke-width="1" stroke="black" fill="black" />
<path d="M448.5,-340.15661688078745 A12.5,12.5,0,0,0,473.5,-340.15661688078745 A12.5,12.5,0,0,0,448.5,-340.15661688078745" stroke-width="1" stroke="black" fill="black" />
<path d="M385.8,-304.73333333333335 L414.2,-304.73333333333335 L400.0,-285.8 Z" stroke-width="1" stroke="black" fill="black" />
<path d="M400.0,-285.8 L400.0,-264.5" stroke-width="2" stroke="black" fill="black" />
<path d="M371.6,-260.5 A28.4,28.4,30,0,0,400.0,-264.5 A28.4,28.4,150,0,0,428.4,-260.5" fill="none" stroke-width="2" stroke="black" />
<path d="M366.0,-275.8 L313.8400053803903,-261.82377156446387" stroke-width="1" stroke="black" fill="black" />
<path d="M360.0,-281.8 L306.20548630304575,-277.0935898916265" stroke-width="1" stroke="black" fill="black" />
<path d="M366.0,-287.8 L312.20548630304575,-292.50641010837353" stroke-width="1" stroke="black" fill="black" />
<path d="M434.0,-275.8 L486.1599946196097,-261.82377156446387" stroke-width="1" stroke="black" fill="black" />
<path d="M440.0,-281.8 L493.79451369695425,-277.09358989162644" stroke-width="1" stroke="black" fill="black" />
<path d="M434.0,-287.8 L487.79451369695425,-292.50641010837353" stroke-width="1" stroke="black" fill="black" />
</g>
</svg>