<?xml version="1.0" encoding="UTF-8"?>
<svg xmlns="http://www.w3.org/2000/svg" xmlns:xlink="http://www.w3.org/1999/xlink"
     width="800" height="600" viewBox="0 -600 800 600">
<defs>
</defs>
<g>
<path d="M339.8542637812203,-235.9102353027033 L173.95038780647906,-281.29639989674746 A20.8,20.8,0,0,1,171.4563143019692,-301.0390245750898 L320.86093478533815,-386.2579155454639" stroke-width="1" stroke="black" fill="hsl(45, 24%, 74%)" />
<path d="M460.1457362187797,-235.9102353027033 L626.0496121935209,-281.29639989674746 A20.8,20.8,0,0,0,628.5436856980308,-301.0390245750898 L479.13906521466185,-386.2579155454639" stroke-width="1" stroke="black" fill="hsl(45, 24%, 74%)" />
<path d="M238.6363423815635,-300.0 A161.3636576184365,185.47546852693853,0,0,0,561.3636576184365,-300.0 A161.3636576184365,185.47546852693853,0,0,0,238.6363423815635,-300.0" stroke-width="1" stroke="black" fill="hsl(45, 24%, 74%)" />
<path d="M328.209,-346.36886713173465 A7.791,14.7,0,0,0,343.791,-346.36886713173465 A7.791,14.7,0,0,0,328.209,-346.36886713173465" stroke-width="1" stroke="black" fill="black" />
<path d="M456.209,-346.36886713173465 A7.791,14.7,0,0,0,471.791,-346.36886713173465 A7.791,14.7,0,0,0,456.209,-346.36886713173465" stroke-width="1" stroke="black" fill="black" />
<path d="M385.7,-304.76666666666665 L414.3,-304.76666666666665 L400.0,-285.7 Z" stroke-width="1" stroke="black" fill="black" />
<path d="M400.0,-285.7 L400.0,-264.25" stroke-width="2" stroke="black" fill="black" />
<path d="M371.4,-260.25 A28.6,28.6,30,0,0,400.0,-264.25 A28.6,28.6,150,0,0,428.6,-260.25" fill="none" stroke-width="2" stroke="black" />
<path d="M366.0,-275.7 L353.4429642582421,-272.33535241366724" stroke-width="1" stroke="black" fill="black" />
<path d="M360.0,-281.7 L347.0494689248073,-280.5669753442804" stroke-width="1" stroke="black" fill="black" />
<path d="M366.0,-287.7 L353.0494689248073,-288.83302465571956" stroke-width="1" stroke="black" fill="black" />
<path d="M434.0,-275.7 L446.5570357417579,-272.33535241366724" stroke-width="1" stroke="black" fill="black" />
<path d="M440.0,-281.7 L452.9505310751927,-280.5669753442804" stroke-width="1" stroke="black" fill="black" />
<path d="M434.0,-287.7 L446.9505310751927,-288.83302465571956" stroke-width="1" stroke="black" fill="black" />
</g>
</svg>