<?xml version="1.0" encoding="UTF-8"?>
<svg xmlns="http://www.w3.org/2000/svg" xmlns:xlink="http://www.w3.org/1999/xlink"
     width="800" height="600" viewBox="0 -600 800 600">
<defs>
</defs>
<g>
<path d="M326.29287261853824,-183.834190347586 L147.40807844825997,-244.83607896308047 A24.8,24.8,0,0,1,142.43878436555053,-273.9995816851588 L291.02691461221286,-390.80098385910924" stroke-width="1" stroke="black" fill="hsl(45, 52%, 77%)" />
<path d="M473.70712738146176,-183.834190347586 L652.59192155174,-244.83607896308047 A24.8,24.8,0,0,0,657.5612156344495,-273.9995816851588 L508.97308538778714,-390.80098385910924" stroke-width="1" stroke="black" fill="hsl(45, 52%, 77%)" />
<path d="M213.67329767314612,-300.0 A186.32670232685388,160.62646752314984,0,0,0,586.3267023268538,-300.0 A186.32670232685388,160.62646752314984,0,0,0,213.67329767314612,-300.0" stroke-width="1" stroke="black" fill="hsl(45, 52%, 77%)" />
<path d="M319.1,-340.15661688078745 A12.9,12.9,0,0,0,344.9,-340.15661688078745 A12.9,12.9,0,0,0,319.1,-340.15661688078745" stroke-width="1" stroke="black" fill="black" />
<path d="M455.1,-340.15661688078745 A12.9,12.9,0,0,0,480.9,-340.15661688078745 A12.9,12.9,0,0,0,455.1,-340.15661688078745" stroke-width="1" stroke="black" fill="black" />
<path d="M389.0,-303.6666666666667 L411.0,-303.6666666666667 L400.0,-289.0 Z" stroke-width="1" stroke="black" fill="black" />
<path d="M400.0,-289.0 L400.0,-272.5" stroke-width="2" stroke="black" fill="black" />
<path d="M378.0,-268.5 A22.0,22.0,30,0,0,400.0,-272.5 A22.0,22.0,150,0,0,422.0,-268.5" fill="none" stroke-width="2" stroke="black" />
<path d="M366.0,-279.0 L329.29481860101544,-269.16487628610423" stroke-width="1" stroke="black" fill="black" />
<path d="M360.0,-285.0 L322.14460147251367,-281.688081775589" stroke-width="1" stroke="black" fill="black" />
<path d="M366.0,-291.0 L328.14460147251367,-294.311918224411" stroke-width="1" stroke="black" fill="black" />
<path d="M434.0,-279.0 L470.70518139898456,-269.16487628610423" stroke-width="1" stroke="black" fill="black" />
<path d="M440.0,-285.0 L477.85539852748633,-281.688081775589" stroke-width="1" stroke="black" fill="black" />
<path d="M434.0,-291.0 L471.85539852748633,-294.311918224411" stroke-width="1" stroke="black" fill="black" />
</g>
</svg>