<?xml version="1.0" encoding="UTF-8"?>
<svg xmlns="http://www.w3.org/2000/svg" xmlns:xlink="http://www.w3.org/1999/xlink"
     width="800" height="600" viewBox="0 -600 800 600">
<defs>
</defs>
<g>
<path d="M301.231187843774,-236.03150833816323 L126.91567773693669,-268.96876590756466 A2.4000000000000004,2.4000000000000004,0,0,1,126.28935997648534,-271.425908371604 L263.5686131819675,-383.7876751757314" stroke-width="1" stroke="black" fill="hsl(45, 46%, 69%)" />
<path d="M498.768812156226,-236.03150833816323 L673.0843222630633,-268.96876590756466 A2.4000000000000004,2.4000000000000004,0,0,0,673.7106400235147,-271.425908371604 L536.4313868180325,-383.7876751757314" stroke-width="1" stroke="black" fill="hsl(45, 46%, 69%)" />
<path d="M203.50977123531055,-300.0 A196.49022876468945,152.31800679433294,0,0,0,596.4902287646894,-300.0 A196.49022876468945,152.31800679433294,0,0,0,203.50977123531055,-300.0" stroke-width="1" stroke="black" fill="hsl(45, 46%, 69%)" />
<path d="M333.646,-338.0795016985832 A12.354,14.2,0,0,0,358.354,-338.0795016985832 A12.354,14.2,0,0,0,333.646,-338.0795016985832" stroke-width="1" stroke="black" fill="black" />
<path d="M441.646,-338.0795016985832 A12.354,14.2,0,0,0,466.354,-338.0795016985832 A12.354,14.2,0,0,0,441.646,-338.0795016985832" stroke-width="1" stroke="black" fill="black" />
<path d="M386.1,-304.6333333333333 L413.9,-304.6333333333333 L400.0,-286.1 Z" stroke-width="1" stroke="black" fill="black" />
<path d="M400.0,-286.1 L400.0,-265.25" stroke-width="2" stroke="black" fill="black" />
<path d="M372.2,-261.25 A27.8,27.8,30,0,0,400.0,-265.25 A27.8,27.8,150,0,0,427.8,-261.25" fill="none" stroke-width="2" stroke="black" />
<path d="M366.0,-276.1 L320.6014861644138,-263.93550488018155" stroke-width="1" stroke="black" fill="black" />
<path d="M360.0,-282.1 L313.178849189688,-278.0036800908601" stroke-width="1" stroke="black" fill="black" />
<path d="M366.0,-288.1 L319.178849189688,-292.19631990913996" stroke-width="1" stroke="black" fill="black" />
<path d="M434.0,-276.1 L479.3985138355862,-263.93550488018155" stroke-width="1" stroke="black" fill="black" />
<path d="M440.0,-282.1 L486.821150810312,-278.0036800908601" stroke-width="1" stroke="black" fill="black" />
<path d="M434.0,-288.1 L480.821150810312,-292.19631990913996" stroke-width="1" stroke="black" fill="black" />
</g>
</svg>