<?xml version="1.0" encoding="UTF-8"?>
<svg xmlns="http://www.w3.org/2000/svg" xmlns:xlink="http://www.w3.org/1999/xlink"
     width="800" height="600" viewBox="0 -600 800 600">
<defs>
</defs>
<g>
<path d="M353.47830381981055,-189.14932780645614 L164.51168360935208,-244.12074261666774 A25.6,25.6,0,0,1,158.01654298344317,-273.96018638726935 L307.03804834456207,-402.50135076625736" stroke-width="1" stroke="black" fill="hsl(45, 51%, 63%)" />
<path d="M446.52169618018945,-189.14932780645614 L635.4883163906479,-244.12074261666774 A25.6,25.6,0,0,0,641.9834570165568,-273.96018638726935 L492.96195165543793,-402.50135076625736" stroke-width="1" stroke="black" fill="hsl(45, 51%, 63%)" />
<path d="M234.0642292933799,-300.0 A165.9357707066201,180.36496815936965,0,0,0,565.9357707066201,-300.0 A165.9357707066201,180.36496815936965,0,0,0,234.0642292933799,-300.0" stroke-width="1" stroke="black" fill="hsl(45, 51%, 63%)" />
<path d="M316.694,-345.0912420398424 A9.306000000000001,14.100000000000001,0,0,0,335.306,-345.0912420398424 A9.306000000000001,14.100000000000001,0,0,0,316.694,-345.0912420398424" stroke-width="1" stroke="black" fill="black" />
<path d="M464.694,-345.0912420398424 A9.306000000000001,14.100000000000001,0,0,0,483.306,-345.0912420398424 A9.306000000000001,14.100000000000001,0,0,0,464.694,-345.0912420398424" stroke-width="1" stroke="black" fill="black" />
<path d="M387.8,-304.06666666666666 L412.2,-304.06666666666666 L400.0,-287.8 Z" stroke-width="1" stroke="black" fill="black" />
<path d="M400.0,-287.8 L400.0,-269.5" stroke-width="2" stroke="black" fill="black" />
<path d="M375.6,-265.5 A24.4,24.4,30,0,0,400.0,-269.5 A24.4,24.4,150,0,0,424.4,-265.5" fill="none" stroke-width="2" stroke="black" />
<path d="M366.0,-277.8 L349.57926095308585,-273.40007623325715" stroke-width="1" stroke="black" fill="black" />
<path d="M360.0,-283.8 L343.0646901324403,-282.3183523732898" stroke-width="1" stroke="black" fill="black" />
<path d="M366.0,-289.8 L349.0646901324403,-291.2816476267102" stroke-width="1" stroke="black" fill="black" />
<path d="M434.0,-277.8 L450.42073904691415,-273.40007623325715" stroke-width="1" stroke="black" fill="black" />
<path d="M440.0,-283.8 L456.9353098675597,-282.3183523732898" stroke-width="1" stroke="black" fill="black" />
<path d="M434.0,-289.8 L450.9353098675597,-291.2816476267102" stroke-width="1" stroke="black" fill="black" />
</g>
</svg>