<?xml version="1.0" encoding="UTF-8"?>
<svg xmlns="http://www.w3.org/2000/svg" xmlns:xlink="http://www.w3.org/1999/xlink"
     width="800" height="600" viewBox="0 -600 800 600">
<defs>
</defs>
<g>
<path d="M372.7613700993059,-213.7304368653779 L231.09200474306306,-129.14443968168686 A8.8,8.8,0,0,1,224.8928321331914,-134.0157034999876 L273.5746083413578,-291.6706579581904" stroke-width="1" stroke="black" fill="hsl(45, 22%, 36%)" />
<path d="M427.2386299006941,-213.7304368653779 L568.9079952569369,-129.14443968168686 A8.8,8.8,0,0,0,575.1071678668086,-134.0157034999876 L526.4253916586422,-291.6706579581904" stroke-width="1" stroke="black" fill="hsl(45, 22%, 36%)" />
<path d="M244.29999999999998,-300.0 A155.70000000000002,192.22222222222223,0,0,0,555.7,-300.0 A155.70000000000002,192.22222222222223,0,0,0,244.29999999999998,-300.0" stroke-width="1" stroke="black" fill="hsl(45, 22%, 36%)" />
<path d="M333.864,-348.05555555555554 A11.136,11.6,0,0,0,356.136,-348.05555555555554 A11.136,11.6,0,0,0,333.864,-348.05555555555554" stroke-width="1" stroke="black" fill="black" />
<path d="M443.864,-348.05555555555554 A11.136,11.6,0,0,0,466.136,-348.05555555555554 A11.136,11.6,0,0,0,443.864,-348.05555555555554" stroke-width="1" stroke="black" fill="black" />
<path d="M385.1,-304.96666666666664 L414.9,-304.96666666666664 L400.0,-285.1 Z" stroke-width="1" stroke="black" fill="black" />
<path d="M400.0,-285.1 L400.0,-262.75" stroke-width="2" stroke="black" fill="black" />
<path d="M370.2,-258.75 A29.8,29.8,30,0,0,400.0,-262.75 A29.8,29.8,150,0,0,429.8,-258.75" fill="none" stroke-width="2" stroke="black" />
<path d="M366.0,-275.1 L359.2385192159765,-273.2882666842824" stroke-width="1" stroke="black" fill="black" />
<path d="M360.0,-281.1 L353.02663711335776,-280.48990980076644" stroke-width="1" stroke="black" fill="black" />
<path d="M366.0,-287.1 L359.02663711335776,-287.7100901992336" stroke-width="1" stroke="black" fill="black" />
<path d="M434.0,-275.1 L440.7614807840235,-273.2882666842824" stroke-width="1" stroke="black" fill="black" />
<path d="M440.0,-281.1 L446.97336288664224,-280.48990980076644" stroke-width="1" stroke="black" fill="black" />
<path d="M434.0,-287.1 L440.97336288664224,-287.7100901992336" stroke-width="1" stroke="black" fill="black" />
</g>
</svg>