<?xml version="1.0" encoding="UTF-8"?>
<svg xmlns="http://www.w3.org/2000/svg" xmlns:xlink="http://www.w3.org/1999/xlink"
     width="800" height="600" viewBox="0 -600 800 600">
<defs>
</defs>
<g>
<path d="M327.10442919895485,-221.00172698633148 L174.00783075179038,-233.42716637122646 A32.0,32.0,0,0,1,165.0659853319189,-262.0305934281971 L283.825897366777,-359.4423139420694" stroke-width="1" stroke="black" fill="hsl(45, 11%, 70%)" />
<path d="M472.89557080104515,-221.00172698633148 L625.9921692482096,-233.42716637122646 A32.0,32.0,0,0,0,634.9340146680811,-262.0305934281971 L516.174102633223,-359.4423139420694" stroke-width="1" stroke="black" fill="hsl(45, 11%, 70%)" />
<path d="M212.87188880341898,-300.0 A187.12811119658102,159.93855657827442,0,0,0,587.128111196581,-300.0 A187.12811119658102,159.93855657827442,0,0,0,212.87188880341898,-300.0" stroke-width="1" stroke="black" fill="hsl(45, 11%, 70%)" />
<path d="M326.25,-339.98463914456863 A9.75,13.0,0,0,0,345.75,-339.98463914456863 A9.75,13.0,0,0,0,326.25,-339.98463914456863" stroke-width="1" stroke="black" fill="black" />
<path d="M454.25,-339.98463914456863 A9.75,13.0,0,0,0,473.75,-339.98463914456863 A9.75,13.0,0,0,0,454.25,-339.98463914456863" stroke-width="1" stroke="black" fill="black" />
<path d="M389.5,-303.5 L410.5,-303.5 L400.0,-289.5 Z" stroke-width="1" stroke="black" fill="black" />
<path d="M400.0,-289.5 L400.0,-273.75" stroke-width="2" stroke="black" fill="black" />
<path d="M379.0,-269.75 A21.0,21.0,30,0,0,400.0,-273.75 A21.0,21.0,150,0,0,421.0,-269.75" fill="none" stroke-width="2" stroke="black" />
<path d="M366.0,-279.5 L350.5451867793749,-275.3588952783597" stroke-width="1" stroke="black" fill="black" />
<path d="M360.0,-285.5 L344.0608848305321,-284.10550811603747" stroke-width="1" stroke="black" fill="black" />
<path d="M366.0,-291.5 L350.0608848305321,-292.89449188396253" stroke-width="1" stroke="black" fill="black" />
<path d="M434.0,-279.5 L449.4548132206251,-275.3588952783597" stroke-width="1" stroke="black" fill="black" />
<path d="M440.0,-285.5 L455.9391151694679,-284.10550811603747" stroke-width="1" stroke="black" fill="black" />
<path d="M434.0,-291.5 L449.9391151694679,-292.89449188396253" stroke-width="1" stroke="black" fill="black" />
</g>
</svg>