<?xml version="1.0" encoding="UTF-8"?>
<svg xmlns="http://www.w3.org/2000/svg" xmlns:xlink="http://www.w3.org/1999/xlink"
     width="800" height="600" viewBox="0 -600 800 600">
<defs>
</defs>
<g>
<path d="M411.5978076453209,-206.06457776628721 L210.17278764729542,-142.5555129109847 A26.400000000000002,26.400000000000002,0,0,1,188.0726346478333,-164.27327277799404 L248.0566754493018,-366.7760007821564" stroke-width="1" stroke="black" fill="hsl(45, 19%, 66%)" />
<path d="M388.4021923546791,-206.06457776628721 L589.8272123527046,-142.5555129109847 A26.400000000000002,26.400000000000002,0,0,0,611.9273653521667,-164.27327277799404 L551.9433245506982,-366.7760007821564" stroke-width="1" stroke="black" fill="hsl(45, 19%, 66%)" />
<path d="M244.29999999999998,-300.0 A155.70000000000002,192.22222222222223,0,0,0,555.7,-300.0 A155.70000000000002,192.22222222222223,0,0,0,244.29999999999998,-300.0" stroke-width="1" stroke="black" fill="hsl(45, 19%, 66%)" />
<path d="M317.156,-348.05555555555554 A7.843999999999999,10.6,0,0,0,332.844,-348.05555555555554 A7.843999999999999,10.6,0,0,0,317.156,-348.05555555555554" stroke-width="1" stroke="black" fill="black" />
<path d="M467.156,-348.05555555555554 A7.843999999999999,10.6,0,0,0,482.844,-348.05555555555554 A7.843999999999999,10.6,0,0,0,467.156,-348.05555555555554" stroke-width="1" stroke="black" fill="black" />
<path d="M385.0,-305.0 L415.0,-305.0 L400.0,-285.0 Z" stroke-width="1" stroke="black" fill="black" />
<path d="M400.0,-285.0 L400.0,-262.5" stroke-width="2" stroke="black" fill="black" />
<path d="M370.0,-258.5 A30.0,30.0,30,0,0,400.0,-262.5 A30.0,30.0,150,0,0,430.0,-258.5" fill="none" stroke-width="2" stroke="black" />
<path d="M366.0,-275.0 L344.7496318216405,-269.30598100774455" stroke-width="1" stroke="black" fill="black" />
<path d="M360.0,-281.0 L338.0837166419816,-279.08257365955154" stroke-width="1" stroke="black" fill="black" />
<path d="M366.0,-287.0 L344.0837166419816,-288.91742634044846" stroke-width="1" stroke="black" fill="black" />
<path d="M434.0,-275.0 L455.2503681783595,-269.30598100774455" stroke-width="1" stroke="black" fill="black" />
<path d="M440.0,-281.0 L461.9162833580184,-279.08257365955154" stroke-width="1" stroke="black" fill="black" />
<path d="M434.0,-287.0 L455.9162833580184,-288.91742634044846" stroke-width="1" stroke="black" fill="black" />
</g>
</svg>