<?xml version="1.0" encoding="UTF-8"?>
<svg xmlns="http://www.w3.org/2000/svg" xmlns:xlink="http://www.w3.org/1999/xlink"
     width="800" height="600" viewBox="0 -600 800 600">
<defs>
</defs>
<g>
<path d="M377.7266363758798,-186.74135887358742 L219.55327857903194,-149.05914976543744 A24.8,24.8,0,0,1,204.70942421865175,-168.8293075717803 L285.02437172524776,-310.20918310932893" stroke-width="1" stroke="black" fill="hsl(45, 21%, 60%)" />
<path d="M422.2733636241202,-186.74135887358742 L580.4467214209681,-149.05914976543744 A24.8,24.8,0,0,0,595.2905757813483,-168.8293075717803 L514.9756282747522,-310.20918310932893" stroke-width="1" stroke="black" fill="hsl(45, 21%, 60%)" />
<path d="M216.09847743969058,-300.0 A183.90152256030942,162.74471023036236,0,0,0,583.9015225603094,-300.0 A183.90152256030942,162.74471023036236,0,0,0,216.09847743969058,-300.0" stroke-width="1" stroke="black" fill="hsl(45, 21%, 60%)" />
<path d="M327.2,-340.6861775575906 A10.8,12.0,0,0,0,348.8,-340.6861775575906 A10.8,12.0,0,0,0,327.2,-340.6861775575906" stroke-width="1" stroke="black" fill="black" />
<path d="M451.2,-340.6861775575906 A10.8,12.0,0,0,0,472.8,-340.6861775575906 A10.8,12.0,0,0,0,451.2,-340.6861775575906" stroke-width="1" stroke="black" fill="black" />
<path d="M384.1,-305.3 L415.9,-305.3 L400.0,-284.1 Z" stroke-width="1" stroke="black" fill="black" />
<path d="M400.0,-284.1 L400.0,-260.25" stroke-width="2" stroke="black" fill="black" />
<path d="M368.2,-256.25 A31.8,31.8,30,0,0,400.0,-260.25 A31.8,31.8,150,0,0,431.8,-256.25" fill="none" stroke-width="2" stroke="black" />
<path d="M366.0,-274.1 L308.0444504226559,-258.5708572938488" stroke-width="1" stroke="black" fill="black" />
<path d="M360.0,-280.1 L300.22831811449527,-274.8706554351405" stroke-width="1" stroke="black" fill="black" />
<path d="M366.0,-286.1 L306.22831811449527,-291.3293445648595" stroke-width="1" stroke="black" fill="black" />
<path d="M434.0,-274.1 L491.9555495773441,-258.5708572938488" stroke-width="1" stroke="black" fill="black" />
<path d="M440.0,-280.1 L499.77168188550473,-274.8706554351405" stroke-width="1" stroke="black" fill="black" />
<path d="M434.0,-286.1 L493.77168188550473,-291.3293445648595" stroke-width="1" stroke="black" fill="black" />
</g>
</svg>