<?xml version="1.0" encoding="UTF-8"?>
<svg xmlns="http://www.w3.org/2000/svg" xmlns:xlink="http://www.w3.org/1999/xlink"
     width="800" height="600" viewBox="0 -600 800 600">
<defs>
</defs>
<g>
<path d="M297.6363735917256,-224.58868372757604 L147.77546859124482,-337.1074339536467 A12.0,12.0,0,0,1,150.11709393591354,-350.5243422120196 L329.23270490912057,-405.6274991605533" stroke-width="1" stroke="black" fill="hsl(45, 46%, 35%)" />
<path d="M502.3636264082744,-224.58868372757604 L652.2245314087552,-337.1074339536467 A12.0,12.0,0,0,0,649.8829060640865,-350.5243422120196 L470.76729509087943,-405.6274991605533" stroke-width="1" stroke="black" fill="hsl(45, 46%, 35%)" />
<path d="M223.57392482968964,-300.0 A176.42607517031036,169.64045689452917,0,0,0,576.4260751703104,-300.0 A176.42607517031036,169.64045689452917,0,0,0,223.57392482968964,-300.0" stroke-width="1" stroke="black" fill="hsl(45, 46%, 35%)" />
<path d="M342.135,-342.41011422363226 A7.865000000000001,14.3,0,0,0,357.865,-342.41011422363226 A7.865000000000001,14.3,0,0,0,342.135,-342.41011422363226" stroke-width="1" stroke="black" fill="black" />
<path d="M442.135,-342.41011422363226 A7.865000000000001,14.3,0,0,0,457.865,-342.41011422363226 A7.865000000000001,14.3,0,0,0,442.135,-342.41011422363226" stroke-width="1" stroke="black" fill="black" />
<path d="M389.4,-303.53333333333336 L410.6,-303.53333333333336 L400.0,-289.4 Z" stroke-width="1" stroke="black" fill="black" />
<path d="M400.0,-289.4 L400.0,-273.5" stroke-width="2" stroke="black" fill="black" />
<path d="M378.8,-269.5 A21.2,21.2,30,0,0,400.0,-273.5 A21.2,21.2,150,0,0,421.2,-269.5" fill="none" stroke-width="2" stroke="black" />
<path d="M366.0,-279.4 L339.92000269019513,-272.41188578223193" stroke-width="1" stroke="black" fill="black" />
<path d="M360.0,-285.4 L333.1027431515229,-283.0467949458132" stroke-width="1" stroke="black" fill="black" />
<path d="M366.0,-291.4 L339.1027431515229,-293.75320505418676" stroke-width="1" stroke="black" fill="black" />
<path d="M434.0,-279.4 L460.07999730980487,-272.41188578223193" stroke-width="1" stroke="black" fill="black" />
<path d="M440.0,-285.4 L466.8972568484771,-283.0467949458132" stroke-width="1" stroke="black" fill="black" />
<path d="M434.0,-291.4 L460.8972568484771,-293.75320505418676" stroke-width="1" stroke="black" fill="black" />
</g>
</svg>