<?xml version="1.0" encoding="UTF-8"?>
<svg xmlns="http://www.w3.org/2000/svg" xmlns:xlink="http://www.w3.org/1999/xlink"
     width="800" height="600" viewBox="0 -600 800 600">
<defs>
</defs>
<g>
<path d="M375.9092926739588,-199.11780186762942 L159.4162670447571,-175.29323778108636 A0.0,0.0,0,0,1,159.4162670447571,-175.29323778108642 L286.5732750363196,-352.12065454283663" stroke-width="1" stroke="black" fill="hsl(45, 35%, 45%)" />
<path d="M424.0907073260412,-199.11780186762942 L640.5837329552429,-175.29323778108636 A0.0,0.0,0,0,0,640.5837329552429,-175.29323778108642 L513.4267249636804,-352.12065454283663" stroke-width="1" stroke="black" fill="hsl(45, 35%, 45%)" />
<path d="M228.7387375966182,-300.0 A171.2612624033818,174.75639020753246,0,0,0,571.2612624033818,-300.0 A171.2612624033818,174.75639020753246,0,0,0,228.7387375966182,-300.0" stroke-width="1" stroke="black" fill="hsl(45, 35%, 45%)" />
<path d="M332.554,-343.6890975518831 A11.446,11.8,0,0,0,355.446,-343.6890975518831 A11.446,11.8,0,0,0,332.554,-343.6890975518831" stroke-width="1" stroke="black" fill="black" />
<path d="M444.554,-343.6890975518831 A11.446,11.8,0,0,0,467.446,-343.6890975518831 A11.446,11.8,0,0,0,444.554,-343.6890975518831" stroke-width="1" stroke="black" fill="black" />
<path d="M387.3,-304.23333333333335 L412.7,-304.23333333333335 L400.0,-287.3 Z" stroke-width="1" stroke="black" fill="black" />
<path d="M400.0,-287.3 L400.0,-268.25" stroke-width="2" stroke="black" fill="black" />
<path d="M374.6,-264.25 A25.4,25.4,30,0,0,400.0,-268.25 A25.4,25.4,150,0,0,425.4,-264.25" fill="none" stroke-width="2" stroke="black" />
<path d="M366.0,-277.3 L311.9081537278122,-262.80613347425884" stroke-width="1" stroke="black" fill="black" />
<path d="M360.0,-283.3 L304.21309690686223,-278.4192784061312" stroke-width="1" stroke="black" fill="black" />
<path d="M366.0,-289.3 L310.21309690686223,-294.1807215938689" stroke-width="1" stroke="black" fill="black" />
<path d="M434.0,-277.3 L488.0918462721878,-262.80613347425884" stroke-width="1" stroke="black" fill="black" />
<path d="M440.0,-283.3 L495.78690309313777,-278.4192784061311" stroke-width="1" stroke="black" fill="black" />
<path d="M434.0,-289.3 L489.78690309313777,-294.1807215938689" stroke-width="1" stroke="black" fill="black" />
</g>
</svg>