<?xml version="1.0" encoding="utf-8" ?>
<svg baseProfile="full" height="100%" version="1.1" width="100%" xmlns="http://www.w3.org/2000/svg" xmlns:ev="http://www.w3.org/2001/xml-events" xmlns:xlink="http://www.w3.org/1999/xlink"><defs /><path d="M 348.04 398.57 L 243.81 405.58 A 62.0000459519561 62.0000459519561 0 0,1 215.19439154777479 350.50602059055626 L 280.85 269.26" style="fill:hsl(45, 44%, 77%);stroke-width:1.00;stroke:rgb(0, 0, 0)" /><path d="M 451.96 398.57 L 556.19 405.58 A 62.0000459519561 62.0000459519561 0 0,0 584.8056084522252 350.50602059055626 L 519.15 269.26" style="fill:hsl(45, 44%, 77%);stroke-width:1.00;stroke:rgb(0, 0, 0)" /><ellipse cx="400.0" cy="300.0" rx="177.48461077050996" ry="168.62870459624585" style="fill:hsl(45, 44%, 77%);stroke-width:1.00;stroke:rgb(0, 0, 0)" /><ellipse cx="341.840928292361" cy="257.84282385093854" rx="11.486987696327095" ry="12.938031942383784" style="fill:hsl(0, 0%, 0%);stroke-width:1.00;stroke:rgb(0, 0, 0)" /><ellipse cx="458.159071707639" cy="257.84282385093854" rx="11.486987696327095" ry="12.938031942383784" style="fill:hsl(0, 0%, 0%);stroke-width:1.00;stroke:rgb(0, 0, 0)" /><polygon points="380.28336952758366,293.4277898425279 419.71663047241634,293.4277898425279 400.0,319.71663047241634" style="fill:hsl(0, 0%, 0%);stroke-width:1.00;stroke:rgb(0, 0, 0)" /><line style="fill:hsl(0, 0%, 0%);stroke-width:2.00;stroke:rgb(0, 0, 0)" x1="400.0" x2="400.0" y1="319.71663047241634" y2="349.29157618104085" /><path d="M 360 353 A 39.43326094483267 39.43326094483267 30 0,0 400.0 349.29157618104085 A 39.43326094483267 39.43326094483267 150 0,0 439.4332609448327 353.29157618104085" style="fill:none;stroke-width:2.00;stroke:rgb(0, 0, 0)" /><line style="fill:hsl(0, 0%, 0%);stroke-width:1.00;stroke:rgb(0, 0, 0)" x1="366.0" x2="364.9368505629371" y1="329.71663047241634" y2="330.00150050551093" /><line style="fill:hsl(0, 0%, 0%);stroke-width:1.00;stroke:rgb(0, 0, 0)" x1="360.0" x2="358.9035350296511" y1="323.71663047241634" y2="323.81255872727513" /><line style="fill:hsl(0, 0%, 0%);stroke-width:1.00;stroke:rgb(0, 0, 0)" x1="366.0" x2="364.9035350296511" y1="317.71663047241634" y2="317.62070221755755" /><line style="fill:hsl(0, 0%, 0%);stroke-width:1.00;stroke:rgb(0, 0, 0)" x1="434.0" x2="435.0631494370629" y1="329.71663047241634" y2="330.00150050551093" /><line style="fill:hsl(0, 0%, 0%);stroke-width:1.00;stroke:rgb(0, 0, 0)" x1="440.0" x2="441.0964649703489" y1="323.71663047241634" y2="323.81255872727513" /><line style="fill:hsl(0, 0%, 0%);stroke-width:1.00;stroke:rgb(0, 0, 0)" x1="434.0" x2="435.0964649703489" y1="317.71663047241634" y2="317.62070221755755" /></svg>