<?xml version="1.0" encoding="utf-8" ?>
<svg baseProfile="full" height="100%" version="1.1" width="100%" xmlns="http://www.w3.org/2000/svg" xmlns:ev="http://www.w3.org/2001/xml-events" xmlns:xlink="http://www.w3.org/1999/xlink"><defs /><path d="M 364.02 376.15 L 267.20 404.12 A 60.725696880518775 60.725696880518775 0 0,1 226.37709779695786 356.39434912164074 L 269.00 265.07" style="fill:hsl(45, 0%, 70%);stroke-width:1.00;stroke:rgb(0, 0, 0)" /><path d="M 435.98 376.15 L 532.80 404.12 A 60.725696880518775 60.725696880518775 0 0,0 573.6229022030421 356.39434912164074 L 531.00 265.07" style="fill:hsl(45, 0%, 70%);stroke-width:1.00;stroke:rgb(0, 0, 0)" /><ellipse cx="400.0" cy="300.0" rx="151.20714283716063" ry="197.93377110651056" style="fill:hsl(45, 0%, 70%);stroke-width:1.00;stroke:rgb(0, 0, 0)" /><ellipse cx="337.57800587011326" cy="250.51655722337236" rx="12.091625977199476" ry="13.650299739919896" style="fill:hsl(0, 0%, 0%);stroke-width:1.00;stroke:rgb(0, 0, 0)" /><ellipse cx="462.42199412988674" cy="250.51655722337236" rx="12.091625977199476" ry="13.650299739919896" style="fill:hsl(0, 0%, 0%);stroke-width:1.00;stroke:rgb(0, 0, 0)" /><polygon points="380.3635960162834,293.4545320054278 419.6364039837166,293.4545320054278 400.0,319.6364039837166" style="fill:hsl(0, 0%, 0%);stroke-width:1.00;stroke:rgb(0, 0, 0)" /><line style="fill:hsl(0, 0%, 0%);stroke-width:2.00;stroke:rgb(0, 0, 0)" x1="400.0" x2="400.0" y1="319.6364039837166" y2="349.09100995929157" /><path d="M 360 353 A 39.27280796743324 39.27280796743324 30 0,0 400.0 349.09100995929157 A 39.27280796743324 39.27280796743324 150 0,0 439.2728079674332 353.09100995929157" style="fill:none;stroke-width:2.00;stroke:rgb(0, 0, 0)" /><line style="fill:hsl(0, 0%, 0%);stroke-width:1.00;stroke:rgb(0, 0, 0)" x1="366.0" x2="341.83763390905267" y1="329.6364039837166" y2="336.1106904650111" /><line style="fill:hsl(0, 0%, 0%);stroke-width:1.00;stroke:rgb(0, 0, 0)" x1="360.0" x2="335.0804664933454" y1="323.6364039837166" y2="325.8165806659033" /><line style="fill:hsl(0, 0%, 0%);stroke-width:1.00;stroke:rgb(0, 0, 0)" x1="366.0" x2="341.0804664933454" y1="317.6364039837166" y2="315.4562273015299" /><line style="fill:hsl(0, 0%, 0%);stroke-width:1.00;stroke:rgb(0, 0, 0)" x1="434.0" x2="458.16236609094733" y1="329.6364039837166" y2="336.1106904650111" /><line style="fill:hsl(0, 0%, 0%);stroke-width:1.00;stroke:rgb(0, 0, 0)" x1="440.0" x2="464.9195335066546" y1="323.6364039837166" y2="325.8165806659033" /><line style="fill:hsl(0, 0%, 0%);stroke-width:1.00;stroke:rgb(0, 0, 0)" x1="434.0" x2="458.9195335066546" y1="317.6364039837166" y2="315.4562273015299" /></svg>