<?xml version="1.0" encoding="utf-8" ?>
<svg baseProfile="full" height="100%" version="1.1" width="100%" xmlns="http://www.w3.org/2000/svg" xmlns:ev="http://www.w3.org/2001/xml-events" xmlns:xlink="http://www.w3.org/1999/xlink"><defs /><path d="M 343.71 396.59 L 165.27 419.34 A 4.617811235426679 4.617811235426679 0 0,1 162.04114201957532 414.8657410514526 L 239.99 252.75" style="fill:hsl(45, 9%, 30%);stroke-width:1.00;stroke:rgb(0, 0, 0)" /><path d="M 456.29 396.59 L 634.73 419.34 A 4.617811235426679 4.617811235426679 0 0,0 637.9588579804247 414.8657410514526 L 560.01 252.75" style="fill:hsl(45, 9%, 30%);stroke-width:1.00;stroke:rgb(0, 0, 0)" /><ellipse cx="400.0" cy="300.0" rx="195.83910361979162" ry="152.82443315358066" style="fill:hsl(45, 9%, 30%);stroke-width:1.00;stroke:rgb(0, 0, 0)" /><ellipse cx="329.9708114481481" cy="261.79389171160483" rx="12.809505923499623" ry="13.415107647811181" style="fill:hsl(0, 0%, 0%);stroke-width:1.00;stroke:rgb(0, 0, 0)" /><ellipse cx="470.0291885518519" cy="261.79389171160483" rx="12.809505923499623" ry="13.415107647811181" style="fill:hsl(0, 0%, 0%);stroke-width:1.00;stroke:rgb(0, 0, 0)" /><polygon points="386.5189120863278,295.50630402877596 413.4810879136722,295.50630402877596 400.0,313.4810879136722" style="fill:hsl(0, 0%, 0%);stroke-width:1.00;stroke:rgb(0, 0, 0)" /><line style="fill:hsl(0, 0%, 0%);stroke-width:2.00;stroke:rgb(0, 0, 0)" x1="400.0" x2="400.0" y1="313.4810879136722" y2="333.70271978418054" /><path d="M 373 337 A 26.962175827344417 26.962175827344417 30 0,0 400.0 333.70271978418054 A 26.962175827344417 26.962175827344417 150 0,0 426.9621758273444 337.70271978418054" style="fill:none;stroke-width:2.00;stroke:rgb(0, 0, 0)" /><line style="fill:hsl(0, 0%, 0%);stroke-width:1.00;stroke:rgb(0, 0, 0)" x1="366.0" x2="340.69267827269834" y1="323.4810879136722" y2="330.26216433309725" /><line style="fill:hsl(0, 0%, 0%);stroke-width:1.00;stroke:rgb(0, 0, 0)" x1="360.0" x2="333.89963179212566" y1="317.4810879136722" y2="319.7645742457136" /><line style="fill:hsl(0, 0%, 0%);stroke-width:1.00;stroke:rgb(0, 0, 0)" x1="366.0" x2="339.89963179212566" y1="311.4810879136722" y2="309.19760158163075" /><line style="fill:hsl(0, 0%, 0%);stroke-width:1.00;stroke:rgb(0, 0, 0)" x1="434.0" x2="459.30732172730166" y1="323.4810879136722" y2="330.26216433309725" /><line style="fill:hsl(0, 0%, 0%);stroke-width:1.00;stroke:rgb(0, 0, 0)" x1="440.0" x2="466.10036820787434" y1="317.4810879136722" y2="319.7645742457136" /><line style="fill:hsl(0, 0%, 0%);stroke-width:1.00;stroke:rgb(0, 0, 0)" x1="434.0" x2="460.10036820787434" y1="311.4810879136722" y2="309.19760158163075" /></svg>