<?xml version="1.0" encoding="utf-8" ?>
<svg baseProfile="full" height="100%" version="1.1" width="100%" xmlns="http://www.w3.org/2000/svg" xmlns:ev="http://www.w3.org/2001/xml-events" xmlns:xlink="http://www.w3.org/1999/xlink"><defs /><path d="M 370.00 408.79 L 190.81 447.03 A 8.030258365561536 8.030258365561536 0 0,1 184.2141908130318 439.61636587457474 L 243.10 266.11" style="fill:hsl(45, 9%, 45%);stroke-width:1.00;stroke:rgb(0, 0, 0)" /><path d="M 430.00 408.79 L 609.19 447.03 A 8.030258365561536 8.030258365561536 0 0,0 615.7858091869682 439.61636587457474 L 556.90 266.11" style="fill:hsl(45, 9%, 45%);stroke-width:1.00;stroke:rgb(0, 0, 0)" /><ellipse cx="400.0" cy="300.0" rx="187.33414299572036" ry="159.76265469495183" style="fill:hsl(45, 9%, 45%);stroke-width:1.00;stroke:rgb(0, 0, 0)" /><ellipse cx="322.42356518075655" cy="260.05933632626204" rx="8.277258117761226" ry="13.489165728955058" style="fill:hsl(0, 0%, 0%);stroke-width:1.00;stroke:rgb(0, 0, 0)" /><ellipse cx="477.57643481924345" cy="260.05933632626204" rx="8.277258117761226" ry="13.489165728955058" style="fill:hsl(0, 0%, 0%);stroke-width:1.00;stroke:rgb(0, 0, 0)" /><polygon points="383.1299916357243,294.3766638785748 416.8700083642757,294.3766638785748 400.0,316.8700083642757" style="fill:hsl(0, 0%, 0%);stroke-width:1.00;stroke:rgb(0, 0, 0)" /><line style="fill:hsl(0, 0%, 0%);stroke-width:2.00;stroke:rgb(0, 0, 0)" x1="400.0" x2="400.0" y1="316.8700083642757" y2="342.17502091068917" /><path d="M 366 346 A 33.74001672855135 33.74001672855135 30 0,0 400.0 342.17502091068917 A 33.74001672855135 33.74001672855135 150 0,0 433.7400167285514 346.17502091068917" style="fill:none;stroke-width:2.00;stroke:rgb(0, 0, 0)" /><line style="fill:hsl(0, 0%, 0%);stroke-width:1.00;stroke:rgb(0, 0, 0)" x1="366.0" x2="337.2918832125242" y1="326.8700083642757" y2="334.56232507369816" /><line style="fill:hsl(0, 0%, 0%);stroke-width:1.00;stroke:rgb(0, 0, 0)" x1="360.0" x2="330.39226723468585" y1="320.8700083642757" y2="323.4603493339457" /><line style="fill:hsl(0, 0%, 0%);stroke-width:1.00;stroke:rgb(0, 0, 0)" x1="366.0" x2="336.39226723468585" y1="314.8700083642757" y2="312.27966739460567" /><line style="fill:hsl(0, 0%, 0%);stroke-width:1.00;stroke:rgb(0, 0, 0)" x1="434.0" x2="462.7081167874758" y1="326.8700083642757" y2="334.56232507369816" /><line style="fill:hsl(0, 0%, 0%);stroke-width:1.00;stroke:rgb(0, 0, 0)" x1="440.0" x2="469.60773276531415" y1="320.8700083642757" y2="323.4603493339457" /><line style="fill:hsl(0, 0%, 0%);stroke-width:1.00;stroke:rgb(0, 0, 0)" x1="434.0" x2="463.60773276531415" y1="314.8700083642757" y2="312.27966739460567" /></svg>