<?xml version="1.0" encoding="utf-8" ?>
<svg baseProfile="full" height="100%" version="1.1" width="100%" xmlns="http://www.w3.org/2000/svg" xmlns:ev="http://www.w3.org/2001/xml-events" xmlns:xlink="http://www.w3.org/1999/xlink"><defs /><path d="M 306.69 383.38 L 129.19 320.12 A 13.120602448457646 13.120602448457646 0 0,1 128.54389576538597 307.55461710031403 L 298.65 226.48" style="fill:hsl(45, 26%, 71%);stroke-width:1.00;stroke:rgb(0, 0, 0)" /><path d="M 493.31 383.38 L 670.81 320.12 A 13.120602448457646 13.120602448457646 0 0,0 671.456104234614 307.55461710031403 L 501.35 226.48" style="fill:hsl(45, 26%, 71%);stroke-width:1.00;stroke:rgb(0, 0, 0)" /><ellipse cx="400.0" cy="300.0" rx="193.66744909351448" ry="154.538101989191" style="fill:hsl(45, 26%, 71%);stroke-width:1.00;stroke:rgb(0, 0, 0)" /><ellipse cx="325.44207441117817" cy="261.3654745027022" rx="10.46117812809753" ry="11.060335433707957" style="fill:hsl(0, 0%, 0%);stroke-width:1.00;stroke:rgb(0, 0, 0)" /><ellipse cx="474.55792558882183" cy="261.3654745027022" rx="10.46117812809753" ry="11.060335433707957" style="fill:hsl(0, 0%, 0%);stroke-width:1.00;stroke:rgb(0, 0, 0)" /><polygon points="387.88277455430045,295.9609248514335 412.11722544569955,295.9609248514335 400.0,312.11722544569955" style="fill:hsl(0, 0%, 0%);stroke-width:1.00;stroke:rgb(0, 0, 0)" /><line style="fill:hsl(0, 0%, 0%);stroke-width:2.00;stroke:rgb(0, 0, 0)" x1="400.0" x2="400.0" y1="312.11722544569955" y2="330.29306361424887" /><path d="M 375 334 A 24.234450891399092 24.234450891399092 30 0,0 400.0 330.29306361424887 A 24.234450891399092 24.234450891399092 150 0,0 424.2344508913991 334.29306361424887" style="fill:none;stroke-width:2.00;stroke:rgb(0, 0, 0)" /><line style="fill:hsl(0, 0%, 0%);stroke-width:1.00;stroke:rgb(0, 0, 0)" x1="366.0" x2="333.0953229741899" y1="322.11722544569955" y2="330.93400708197225" /><line style="fill:hsl(0, 0%, 0%);stroke-width:1.00;stroke:rgb(0, 0, 0)" x1="360.0" x2="326.0642008905935" y1="316.11722544569955" y2="319.08622315546575" /><line style="fill:hsl(0, 0%, 0%);stroke-width:1.00;stroke:rgb(0, 0, 0)" x1="366.0" x2="332.0642008905935" y1="310.11722544569955" y2="307.14822773593335" /><line style="fill:hsl(0, 0%, 0%);stroke-width:1.00;stroke:rgb(0, 0, 0)" x1="434.0" x2="466.9046770258101" y1="322.11722544569955" y2="330.93400708197225" /><line style="fill:hsl(0, 0%, 0%);stroke-width:1.00;stroke:rgb(0, 0, 0)" x1="440.0" x2="473.9357991094065" y1="316.11722544569955" y2="319.08622315546575" /><line style="fill:hsl(0, 0%, 0%);stroke-width:1.00;stroke:rgb(0, 0, 0)" x1="434.0" x2="467.9357991094065" y1="310.11722544569955" y2="307.14822773593335" /></svg>