<?xml version="1.0" encoding="utf-8" ?>
<svg baseProfile="full" height="100%" version="1.1" width="100%" xmlns="http://www.w3.org/2000/svg" xmlns:ev="http://www.w3.org/2001/xml-events" xmlns:xlink="http://www.w3.org/1999/xlink"><defs /><path d="M 337.85 381.14 L 161.22 279.49 A 17.265429332045525 17.265429332045525 0 0,1 162.61792784635043 260.8853657269186 L 352.48 186.82" style="fill:hsl(45, 32%, 47%);stroke-width:1.00;stroke:rgb(0, 0, 0)" /><path d="M 462.15 381.14 L 638.78 279.49 A 17.265429332045525 17.265429332045525 0 0,0 637.3820721536496 260.8853657269186 L 447.52 186.82" style="fill:hsl(45, 32%, 47%);stroke-width:1.00;stroke:rgb(0, 0, 0)" /><ellipse cx="400.0" cy="300.0" rx="156.5593575205302" ry="191.16711050679484" style="fill:hsl(45, 32%, 47%);stroke-width:1.00;stroke:rgb(0, 0, 0)" /><ellipse cx="325.948112038433" cy="252.20822237330128" rx="10.385687854011977" ry="10.915313452102247" style="fill:hsl(0, 0%, 0%);stroke-width:1.00;stroke:rgb(0, 0, 0)" /><ellipse cx="474.051887961567" cy="252.20822237330128" rx="10.385687854011977" ry="10.915313452102247" style="fill:hsl(0, 0%, 0%);stroke-width:1.00;stroke:rgb(0, 0, 0)" /><polygon points="382.2736594803721,294.0912198267907 417.7263405196279,294.0912198267907 400.0,317.7263405196279" style="fill:hsl(0, 0%, 0%);stroke-width:1.00;stroke:rgb(0, 0, 0)" /><line style="fill:hsl(0, 0%, 0%);stroke-width:2.00;stroke:rgb(0, 0, 0)" x1="400.0" x2="400.0" y1="317.7263405196279" y2="344.3158512990698" /><path d="M 364 348 A 35.45268103925582 35.45268103925582 30 0,0 400.0 344.3158512990698 A 35.45268103925582 35.45268103925582 150 0,0 435.4526810392558 348.3158512990698" style="fill:none;stroke-width:2.00;stroke:rgb(0, 0, 0)" /><line style="fill:hsl(0, 0%, 0%);stroke-width:1.00;stroke:rgb(0, 0, 0)" x1="366.0" x2="332.79122570285745" y1="327.7263405196279" y2="336.6246047741747" /><line style="fill:hsl(0, 0%, 0%);stroke-width:1.00;stroke:rgb(0, 0, 0)" x1="360.0" x2="325.7505742319406" y1="321.7263405196279" y2="324.7227770066058" /><line style="fill:hsl(0, 0%, 0%);stroke-width:1.00;stroke:rgb(0, 0, 0)" x1="366.0" x2="331.7505742319406" y1="315.7263405196279" y2="312.72990403265004" /><line style="fill:hsl(0, 0%, 0%);stroke-width:1.00;stroke:rgb(0, 0, 0)" x1="434.0" x2="467.20877429714255" y1="327.7263405196279" y2="336.6246047741747" /><line style="fill:hsl(0, 0%, 0%);stroke-width:1.00;stroke:rgb(0, 0, 0)" x1="440.0" x2="474.2494257680594" y1="321.7263405196279" y2="324.7227770066058" /><line style="fill:hsl(0, 0%, 0%);stroke-width:1.00;stroke:rgb(0, 0, 0)" x1="434.0" x2="468.2494257680594" y1="315.7263405196279" y2="312.72990403265004" /></svg>