<?xml version="1.0" encoding="utf-8" ?>
<svg baseProfile="full" height="100%" version="1.1" width="100%" xmlns="http://www.w3.org/2000/svg" xmlns:ev="http://www.w3.org/2001/xml-events" xmlns:xlink="http://www.w3.org/1999/xlink"><defs /><path d="M 334.16 356.11 L 168.62 286.40 A 44.012799941578464 44.012799941578464 0 0,1 169.6597218245655 246.37604791940592 L 338.62 185.40" style="fill:hsl(45, 7%, 71%);stroke-width:1.00;stroke:rgb(0, 0, 0)" /><path d="M 465.84 356.11 L 631.38 286.40 A 44.012799941578464 44.012799941578464 0 0,0 630.3402781754345 246.37604791940592 L 461.38 185.40" style="fill:hsl(45, 7%, 71%);stroke-width:1.00;stroke:rgb(0, 0, 0)" /><ellipse cx="400.0" cy="300.0" rx="177.74488821107647" ry="168.3817762705984" style="fill:hsl(45, 7%, 71%);stroke-width:1.00;stroke:rgb(0, 0, 0)" /><ellipse cx="336.3915172287384" cy="257.9045559323504" rx="6.1656942341099725" ry="10.333038219026728" style="fill:hsl(0, 0%, 0%);stroke-width:1.00;stroke:rgb(0, 0, 0)" /><ellipse cx="463.6084827712616" cy="257.9045559323504" rx="6.1656942341099725" ry="10.333038219026728" style="fill:hsl(0, 0%, 0%);stroke-width:1.00;stroke:rgb(0, 0, 0)" /><polygon points="387.7230338335088,295.90767794450295 412.2769661664912,295.90767794450295 400.0,312.2769661664912" style="fill:hsl(0, 0%, 0%);stroke-width:1.00;stroke:rgb(0, 0, 0)" /><line style="fill:hsl(0, 0%, 0%);stroke-width:2.00;stroke:rgb(0, 0, 0)" x1="400.0" x2="400.0" y1="312.2769661664912" y2="330.6924154162281" /><path d="M 375 334 A 24.553932332982452 24.553932332982452 30 0,0 400.0 330.6924154162281 A 24.553932332982452 24.553932332982452 150 0,0 424.55393233298247 334.6924154162281" style="fill:none;stroke-width:2.00;stroke:rgb(0, 0, 0)" /><line style="fill:hsl(0, 0%, 0%);stroke-width:1.00;stroke:rgb(0, 0, 0)" x1="366.0" x2="352.75665379527095" y1="322.2769661664912" y2="325.82551008713415" /><line style="fill:hsl(0, 0%, 0%);stroke-width:1.00;stroke:rgb(0, 0, 0)" x1="360.0" x2="346.34165179656736" y1="316.2769661664912" y2="317.4719167967812" /><line style="fill:hsl(0, 0%, 0%);stroke-width:1.00;stroke:rgb(0, 0, 0)" x1="366.0" x2="352.34165179656736" y1="310.2769661664912" y2="309.0820155362012" /><line style="fill:hsl(0, 0%, 0%);stroke-width:1.00;stroke:rgb(0, 0, 0)" x1="434.0" x2="447.24334620472905" y1="322.2769661664912" y2="325.82551008713415" /><line style="fill:hsl(0, 0%, 0%);stroke-width:1.00;stroke:rgb(0, 0, 0)" x1="440.0" x2="453.65834820343264" y1="316.2769661664912" y2="317.4719167967812" /><line style="fill:hsl(0, 0%, 0%);stroke-width:1.00;stroke:rgb(0, 0, 0)" x1="434.0" x2="447.65834820343264" y1="310.2769661664912" y2="309.0820155362012" /></svg>