<?xml version="1.0" encoding="utf-8" ?>
<svg baseProfile="full" height="100%" version="1.1" width="100%" xmlns="http://www.w3.org/2000/svg" xmlns:ev="http://www.w3.org/2001/xml-events" xmlns:xlink="http://www.w3.org/1999/xlink"><defs /><path d="M 302.55 276.18 L 261.72 170.06 A 51.37536986077405 51.37536986077405 0 0,1 298.29780104549985 133.94585964592258 L 403.89 176.11" style="fill:hsl(45, 42%, 78%);stroke-width:1.00;stroke:rgb(0, 0, 0)" /><path d="M 497.45 276.18 L 538.28 170.06 A 51.37536986077405 51.37536986077405 0 0,0 501.70219895450015 133.94585964592258 L 396.11 176.11" style="fill:hsl(45, 42%, 78%);stroke-width:1.00;stroke:rgb(0, 0, 0)" /><ellipse cx="400.0" cy="300.0" rx="192.26984865216164" ry="155.66143214761155" style="fill:hsl(45, 42%, 78%);stroke-width:1.00;stroke:rgb(0, 0, 0)" /><ellipse cx="344.6394143152262" cy="261.0846419630971" rx="8.888761096301252" ry="10.636098765753442" style="fill:hsl(0, 0%, 0%);stroke-width:1.00;stroke:rgb(0, 0, 0)" /><ellipse cx="455.3605856847738" cy="261.0846419630971" rx="8.888761096301252" ry="10.636098765753442" style="fill:hsl(0, 0%, 0%);stroke-width:1.00;stroke:rgb(0, 0, 0)" /><polygon points="380.9159587936485,293.63865293121614 419.0840412063515,293.63865293121614 400.0,319.0840412063515" style="fill:hsl(0, 0%, 0%);stroke-width:1.00;stroke:rgb(0, 0, 0)" /><line style="fill:hsl(0, 0%, 0%);stroke-width:2.00;stroke:rgb(0, 0, 0)" x1="400.0" x2="400.0" y1="319.0840412063515" y2="347.7101030158788" /><path d="M 361 351 A 38.16808241270306 38.16808241270306 30 0,0 400.0 347.7101030158788 A 38.16808241270306 38.16808241270306 150 0,0 438.16808241270303 351.7101030158788" style="fill:none;stroke-width:2.00;stroke:rgb(0, 0, 0)" /><line style="fill:hsl(0, 0%, 0%);stroke-width:1.00;stroke:rgb(0, 0, 0)" x1="366.0" x2="318.3047421107897" y1="329.0840412063515" y2="341.86394704055954" /><line style="fill:hsl(0, 0%, 0%);stroke-width:1.00;stroke:rgb(0, 0, 0)" x1="360.0" x2="310.8101328899238" y1="323.0840412063515" y2="327.38759693882986" /><line style="fill:hsl(0, 0%, 0%);stroke-width:1.00;stroke:rgb(0, 0, 0)" x1="366.0" x2="316.8101328899238" y1="317.0840412063515" y2="312.7804854738731" /><line style="fill:hsl(0, 0%, 0%);stroke-width:1.00;stroke:rgb(0, 0, 0)" x1="434.0" x2="481.6952578892103" y1="329.0840412063515" y2="341.86394704055954" /><line style="fill:hsl(0, 0%, 0%);stroke-width:1.00;stroke:rgb(0, 0, 0)" x1="440.0" x2="489.1898671100762" y1="323.0840412063515" y2="327.3875969388299" /><line style="fill:hsl(0, 0%, 0%);stroke-width:1.00;stroke:rgb(0, 0, 0)" x1="434.0" x2="483.1898671100762" y1="317.0840412063515" y2="312.7804854738731" /></svg>