<?xml version="1.0" encoding="utf-8" ?>
<svg baseProfile="full" height="100%" version="1.1" width="100%" xmlns="http://www.w3.org/2000/svg" xmlns:ev="http://www.w3.org/2001/xml-events" xmlns:xlink="http://www.w3.org/1999/xlink"><defs /><path d="M 308.65 343.80 L 189.02 253.97 A 23.676649886887187 23.676649886887187 0 0,1 193.27171408014055 226.3683667320327 L 334.36 176.66" style="fill:hsl(45, 46%, 32%);stroke-width:1.00;stroke:rgb(0, 0, 0)" /><path d="M 491.35 343.80 L 610.98 253.97 A 23.676649886887187 23.676649886887187 0 0,0 606.7282859198594 226.3683667320327 L 465.64 176.66" style="fill:hsl(45, 46%, 32%);stroke-width:1.00;stroke:rgb(0, 0, 0)" /><ellipse cx="400.0" cy="300.0" rx="160.23542947433285" ry="186.78141343762022" style="fill:hsl(45, 46%, 32%);stroke-width:1.00;stroke:rgb(0, 0, 0)" /><ellipse cx="349.06342166932" cy="253.30464664059494" rx="8.221780879128444" ry="10.673245100401274" style="fill:hsl(0, 0%, 0%);stroke-width:1.00;stroke:rgb(0, 0, 0)" /><ellipse cx="450.93657833068" cy="253.30464664059494" rx="8.221780879128444" ry="10.673245100401274" style="fill:hsl(0, 0%, 0%);stroke-width:1.00;stroke:rgb(0, 0, 0)" /><polygon points="383.60231858208067,294.5341061940269 416.39768141791933,294.5341061940269 400.0,316.39768141791933" style="fill:hsl(0, 0%, 0%);stroke-width:1.00;stroke:rgb(0, 0, 0)" /><line style="fill:hsl(0, 0%, 0%);stroke-width:2.00;stroke:rgb(0, 0, 0)" x1="400.0" x2="400.0" y1="316.39768141791933" y2="340.99420354479827" /><path d="M 367 344 A 32.795362835838624 32.795362835838624 30 0,0 400.0 340.99420354479827 A 32.795362835838624 32.795362835838624 150 0,0 432.7953628358386 344.99420354479827" style="fill:none;stroke-width:2.00;stroke:rgb(0, 0, 0)" /><line style="fill:hsl(0, 0%, 0%);stroke-width:1.00;stroke:rgb(0, 0, 0)" x1="366.0" x2="312.9947772471544" y1="326.39768141791933" y2="340.6003880491761" /><line style="fill:hsl(0, 0%, 0%);stroke-width:1.00;stroke:rgb(0, 0, 0)" x1="360.0" x2="305.33377155840276" y1="320.39768141791933" y2="325.1803566842775" /><line style="fill:hsl(0, 0%, 0%);stroke-width:1.00;stroke:rgb(0, 0, 0)" x1="366.0" x2="311.33377155840276" y1="314.39768141791933" y2="309.61500615156115" /><line style="fill:hsl(0, 0%, 0%);stroke-width:1.00;stroke:rgb(0, 0, 0)" x1="434.0" x2="487.0052227528456" y1="326.39768141791933" y2="340.6003880491761" /><line style="fill:hsl(0, 0%, 0%);stroke-width:1.00;stroke:rgb(0, 0, 0)" x1="440.0" x2="494.66622844159724" y1="320.39768141791933" y2="325.1803566842775" /><line style="fill:hsl(0, 0%, 0%);stroke-width:1.00;stroke:rgb(0, 0, 0)" x1="434.0" x2="488.66622844159724" y1="314.39768141791933" y2="309.61500615156115" /></svg>