<?xml version="1.0" encoding="utf-8" ?>
<svg baseProfile="full" height="100%" version="1.1" width="100%" xmlns="http://www.w3.org/2000/svg" xmlns:ev="http://www.w3.org/2001/xml-events" xmlns:xlink="http://www.w3.org/1999/xlink"><defs /><path d="M 398.78 373.11 L 220.38 402.97 A 62.87623979122946 62.87623979122946 0 0,1 187.74318691074916 351.4309845244504 L 291.04 202.94" style="fill:hsl(45, 57%, 45%);stroke-width:1.00;stroke:rgb(0, 0, 0)" /><path d="M 401.22 373.11 L 579.62 402.97 A 62.87623979122946 62.87623979122946 0 0,0 612.2568130892508 351.4309845244504 L 508.96 202.94" style="fill:hsl(45, 57%, 45%);stroke-width:1.00;stroke:rgb(0, 0, 0)" /><ellipse cx="400.0" cy="300.0" rx="160.48907891626638" ry="186.48620954211572" style="fill:hsl(45, 57%, 45%);stroke-width:1.00;stroke:rgb(0, 0, 0)" /><ellipse cx="329.0095038831292" cy="253.37844761447107" rx="10.482075769529386" ry="10.61778726472374" style="fill:hsl(0, 0%, 0%);stroke-width:1.00;stroke:rgb(0, 0, 0)" /><ellipse cx="470.9904961168708" cy="253.37844761447107" rx="10.482075769529386" ry="10.61778726472374" style="fill:hsl(0, 0%, 0%);stroke-width:1.00;stroke:rgb(0, 0, 0)" /><polygon points="389.361001730269,296.453667243423 410.638998269731,296.453667243423 400.0,310.638998269731" style="fill:hsl(0, 0%, 0%);stroke-width:1.00;stroke:rgb(0, 0, 0)" /><line style="fill:hsl(0, 0%, 0%);stroke-width:2.00;stroke:rgb(0, 0, 0)" x1="400.0" x2="400.0" y1="310.638998269731" y2="326.5974956743275" /><path d="M 378 330 A 21.277996539462002 21.277996539462002 30 0,0 400.0 326.5974956743275 A 21.277996539462002 21.277996539462002 150 0,0 421.277996539462 330.5974956743275" style="fill:none;stroke-width:2.00;stroke:rgb(0, 0, 0)" /><line style="fill:hsl(0, 0%, 0%);stroke-width:1.00;stroke:rgb(0, 0, 0)" x1="366.0" x2="332.97328273231204" y1="320.638998269731" y2="329.488480490259" /><line style="fill:hsl(0, 0%, 0%);stroke-width:1.00;stroke:rgb(0, 0, 0)" x1="360.0" x2="325.93833631734816" y1="314.638998269731" y2="317.6190077027957" /><line style="fill:hsl(0, 0%, 0%);stroke-width:1.00;stroke:rgb(0, 0, 0)" x1="366.0" x2="331.93833631734816" y1="308.638998269731" y2="305.6589888366663" /><line style="fill:hsl(0, 0%, 0%);stroke-width:1.00;stroke:rgb(0, 0, 0)" x1="434.0" x2="467.02671726768796" y1="320.638998269731" y2="329.488480490259" /><line style="fill:hsl(0, 0%, 0%);stroke-width:1.00;stroke:rgb(0, 0, 0)" x1="440.0" x2="474.06166368265184" y1="314.638998269731" y2="317.6190077027957" /><line style="fill:hsl(0, 0%, 0%);stroke-width:1.00;stroke:rgb(0, 0, 0)" x1="434.0" x2="468.06166368265184" y1="308.638998269731" y2="305.6589888366663" /></svg>