<?xml version="1.0" encoding="utf-8" ?>
<svg baseProfile="full" height="100%" version="1.1" width="100%" xmlns="http://www.w3.org/2000/svg" xmlns:ev="http://www.w3.org/2001/xml-events" xmlns:xlink="http://www.w3.org/1999/xlink"><defs /><path d="M 300.52 381.23 L 154.81 224.52 A 16.47164984253954 16.47164984253954 0 0,1 161.14190722891453 206.34512839086992 L 372.69 174.14" style="fill:hsl(45, 2%, 65%);stroke-width:1.00;stroke:rgb(0, 0, 0)" /><path d="M 499.48 381.23 L 645.19 224.52 A 16.47164984253954 16.47164984253954 0 0,0 638.8580927710855 206.34512839086992 L 427.31 174.14" style="fill:hsl(45, 2%, 65%);stroke-width:1.00;stroke:rgb(0, 0, 0)" /><ellipse cx="400.0" cy="300.0" rx="166.68346479942994" ry="179.55590277664038" style="fill:hsl(45, 2%, 65%);stroke-width:1.00;stroke:rgb(0, 0, 0)" /><ellipse cx="331.03915936947976" cy="255.11102430583992" rx="9.969497134738937" ry="12.844466667921166" style="fill:hsl(0, 0%, 0%);stroke-width:1.00;stroke:rgb(0, 0, 0)" /><ellipse cx="468.96084063052024" cy="255.11102430583992" rx="9.969497134738937" ry="12.844466667921166" style="fill:hsl(0, 0%, 0%);stroke-width:1.00;stroke:rgb(0, 0, 0)" /><polygon points="384.8176626015036,294.9392208671679 415.1823373984964,294.9392208671679 400.0,315.1823373984964" style="fill:hsl(0, 0%, 0%);stroke-width:1.00;stroke:rgb(0, 0, 0)" /><line style="fill:hsl(0, 0%, 0%);stroke-width:2.00;stroke:rgb(0, 0, 0)" x1="400.0" x2="400.0" y1="315.1823373984964" y2="337.9558434962409" /><path d="M 369 341 A 30.364674796992723 30.364674796992723 30 0,0 400.0 337.9558434962409 A 30.364674796992723 30.364674796992723 150 0,0 430.36467479699274 341.9558434962409" style="fill:none;stroke-width:2.00;stroke:rgb(0, 0, 0)" /><line style="fill:hsl(0, 0%, 0%);stroke-width:1.00;stroke:rgb(0, 0, 0)" x1="366.0" x2="346.87452498136724" y1="325.1823373984964" y2="330.30699298460064" /><line style="fill:hsl(0, 0%, 0%);stroke-width:1.00;stroke:rgb(0, 0, 0)" x1="360.0" x2="340.2751968179115" y1="319.1823373984964" y2="320.9080340672092" /><line style="fill:hsl(0, 0%, 0%);stroke-width:1.00;stroke:rgb(0, 0, 0)" x1="366.0" x2="346.2751968179115" y1="313.1823373984964" y2="311.45664072978354" /><line style="fill:hsl(0, 0%, 0%);stroke-width:1.00;stroke:rgb(0, 0, 0)" x1="434.0" x2="453.12547501863276" y1="325.1823373984964" y2="330.30699298460064" /><line style="fill:hsl(0, 0%, 0%);stroke-width:1.00;stroke:rgb(0, 0, 0)" x1="440.0" x2="459.7248031820885" y1="319.1823373984964" y2="320.9080340672092" /><line style="fill:hsl(0, 0%, 0%);stroke-width:1.00;stroke:rgb(0, 0, 0)" x1="434.0" x2="453.7248031820885" y1="313.1823373984964" y2="311.45664072978354" /></svg>