<?xml version="1.0" encoding="utf-8" ?>
<svg baseProfile="full" height="100%" version="1.1" width="100%" xmlns="http://www.w3.org/2000/svg" xmlns:ev="http://www.w3.org/2001/xml-events" xmlns:xlink="http://www.w3.org/1999/xlink"><defs /><path d="M 330.76 362.95 L 209.30 298.70 A 61.29160361868074 61.29160361868074 0 0,1 214.5577371293308 239.5784118368118 L 345.46 197.79" style="fill:hsl(45, 35%, 51%);stroke-width:1.00;stroke:rgb(0, 0, 0)" /><path d="M 469.24 362.95 L 590.70 298.70 A 61.29160361868074 61.29160361868074 0 0,0 585.4422628706692 239.5784118368118 L 454.54 197.79" style="fill:hsl(45, 35%, 51%);stroke-width:1.00;stroke:rgb(0, 0, 0)" /><ellipse cx="400.0" cy="300.0" rx="163.4606429584034" ry="183.09606189189023" style="fill:hsl(45, 35%, 51%);stroke-width:1.00;stroke:rgb(0, 0, 0)" /><ellipse cx="343.32648101101665" cy="254.22598452702744" rx="9.784079480113355" ry="12.347178035868264" style="fill:hsl(0, 0%, 0%);stroke-width:1.00;stroke:rgb(0, 0, 0)" /><ellipse cx="456.67351898898335" cy="254.22598452702744" rx="9.784079480113355" ry="12.347178035868264" style="fill:hsl(0, 0%, 0%);stroke-width:1.00;stroke:rgb(0, 0, 0)" /><polygon points="381.83721829195514,293.9457394306517 418.16278170804486,293.9457394306517 400.0,318.16278170804486" style="fill:hsl(0, 0%, 0%);stroke-width:1.00;stroke:rgb(0, 0, 0)" /><line style="fill:hsl(0, 0%, 0%);stroke-width:2.00;stroke:rgb(0, 0, 0)" x1="400.0" x2="400.0" y1="318.16278170804486" y2="345.40695427011224" /><path d="M 363 349 A 36.32556341608977 36.32556341608977 30 0,0 400.0 345.40695427011224 A 36.32556341608977 36.32556341608977 150 0,0 436.3255634160898 349.40695427011224" style="fill:none;stroke-width:2.00;stroke:rgb(0, 0, 0)" /><line style="fill:hsl(0, 0%, 0%);stroke-width:1.00;stroke:rgb(0, 0, 0)" x1="366.0" x2="318.2716715919161" y1="328.16278170804486" y2="340.95154876107836" /><line style="fill:hsl(0, 0%, 0%);stroke-width:1.00;stroke:rgb(0, 0, 0)" x1="360.0" x2="310.77602605204004" y1="322.16278170804486" y2="326.4693214021868" /><line style="fill:hsl(0, 0%, 0%);stroke-width:1.00;stroke:rgb(0, 0, 0)" x1="366.0" x2="316.77602605204004" y1="316.16278170804486" y2="311.85624201390294" /><line style="fill:hsl(0, 0%, 0%);stroke-width:1.00;stroke:rgb(0, 0, 0)" x1="434.0" x2="481.7283284080839" y1="328.16278170804486" y2="340.95154876107836" /><line style="fill:hsl(0, 0%, 0%);stroke-width:1.00;stroke:rgb(0, 0, 0)" x1="440.0" x2="489.22397394795996" y1="322.16278170804486" y2="326.4693214021868" /><line style="fill:hsl(0, 0%, 0%);stroke-width:1.00;stroke:rgb(0, 0, 0)" x1="434.0" x2="483.22397394795996" y1="316.16278170804486" y2="311.85624201390294" /></svg>