<?xml version="1.0" encoding="utf-8" ?>
<svg baseProfile="full" height="100%" version="1.1" width="100%" xmlns="http://www.w3.org/2000/svg" xmlns:ev="http://www.w3.org/2001/xml-events" xmlns:xlink="http://www.w3.org/1999/xlink"><defs /><path d="M 387.40 390.41 L 200.44 365.93 A 57.601727529433724 57.601727529433724 0 0,1 187.2838348523478 314.24716183925557 L 339.80 203.37" style="fill:hsl(45, 29%, 64%);stroke-width:1.00;stroke:rgb(0, 0, 0)" /><path d="M 412.60 390.41 L 599.56 365.93 A 57.601727529433724 57.601727529433724 0 0,0 612.7161651476522 314.24716183925557 L 460.20 203.37" style="fill:hsl(45, 29%, 64%);stroke-width:1.00;stroke:rgb(0, 0, 0)" /><ellipse cx="400.0" cy="300.0" rx="157.31363592720098" ry="190.25051340018643" style="fill:hsl(45, 29%, 64%);stroke-width:1.00;stroke:rgb(0, 0, 0)" /><ellipse cx="332.82751454402774" cy="252.43737164995338" rx="8.992755243415422" ry="14.93132880031827" style="fill:hsl(0, 0%, 0%);stroke-width:1.00;stroke:rgb(0, 0, 0)" /><ellipse cx="467.17248545597226" cy="252.43737164995338" rx="8.992755243415422" ry="14.93132880031827" style="fill:hsl(0, 0%, 0%);stroke-width:1.00;stroke:rgb(0, 0, 0)" /><polygon points="386.96250682096746,295.6541689403225 413.03749317903254,295.6541689403225 400.0,313.03749317903254" style="fill:hsl(0, 0%, 0%);stroke-width:1.00;stroke:rgb(0, 0, 0)" /><line style="fill:hsl(0, 0%, 0%);stroke-width:2.00;stroke:rgb(0, 0, 0)" x1="400.0" x2="400.0" y1="313.03749317903254" y2="332.59373294758143" /><path d="M 373 336 A 26.07498635806512 26.07498635806512 30 0,0 400.0 332.59373294758143 A 26.07498635806512 26.07498635806512 150 0,0 426.07498635806513 336.59373294758143" style="fill:none;stroke-width:2.00;stroke:rgb(0, 0, 0)" /><line style="fill:hsl(0, 0%, 0%);stroke-width:1.00;stroke:rgb(0, 0, 0)" x1="366.0" x2="318.903255463757" y1="323.03749317903254" y2="335.65702784365374" /><line style="fill:hsl(0, 0%, 0%);stroke-width:1.00;stroke:rgb(0, 0, 0)" x1="360.0" x2="311.4274016415564" y1="317.03749317903254" y2="321.28704489339424" /><line style="fill:hsl(0, 0%, 0%);stroke-width:1.00;stroke:rgb(0, 0, 0)" x1="366.0" x2="317.4274016415564" y1="311.03749317903254" y2="306.78794146467084" /><line style="fill:hsl(0, 0%, 0%);stroke-width:1.00;stroke:rgb(0, 0, 0)" x1="434.0" x2="481.096744536243" y1="323.03749317903254" y2="335.65702784365374" /><line style="fill:hsl(0, 0%, 0%);stroke-width:1.00;stroke:rgb(0, 0, 0)" x1="440.0" x2="488.5725983584436" y1="317.03749317903254" y2="321.28704489339424" /><line style="fill:hsl(0, 0%, 0%);stroke-width:1.00;stroke:rgb(0, 0, 0)" x1="434.0" x2="482.5725983584436" y1="311.03749317903254" y2="306.78794146467084" /></svg>