<?xml version="1.0" encoding="utf-8" ?>
<svg baseProfile="full" height="100%" version="1.1" width="100%" xmlns="http://www.w3.org/2000/svg" xmlns:ev="http://www.w3.org/2001/xml-events" xmlns:xlink="http://www.w3.org/1999/xlink"><defs /><path d="M 304.80 279.20 L 244.59 156.00 A 37.35938839595701 37.35938839595701 0 0,1 267.60055842586087 131.00781588303317 L 395.36 180.81" style="fill:hsl(45, 14%, 61%);stroke-width:1.00;stroke:rgb(0, 0, 0)" /><path d="M 495.20 279.20 L 555.41 156.00 A 37.35938839595701 37.35938839595701 0 0,0 532.3994415741391 131.00781588303317 L 404.64 180.81" style="fill:hsl(45, 14%, 61%);stroke-width:1.00;stroke:rgb(0, 0, 0)" /><ellipse cx="400.0" cy="300.0" rx="179.4468147389109" ry="166.7847938317863" style="fill:hsl(45, 14%, 61%);stroke-width:1.00;stroke:rgb(0, 0, 0)" /><ellipse cx="322.5572566546" cy="258.3038015420534" rx="10.876612135115822" ry="13.044634913793082" style="fill:hsl(0, 0%, 0%);stroke-width:1.00;stroke:rgb(0, 0, 0)" /><ellipse cx="477.4427433454" cy="258.3038015420534" rx="10.876612135115822" ry="13.044634913793082" style="fill:hsl(0, 0%, 0%);stroke-width:1.00;stroke:rgb(0, 0, 0)" /><polygon points="385.7750609966969,295.2583536655656 414.2249390033031,295.2583536655656 400.0,314.2249390033031" style="fill:hsl(0, 0%, 0%);stroke-width:1.00;stroke:rgb(0, 0, 0)" /><line style="fill:hsl(0, 0%, 0%);stroke-width:2.00;stroke:rgb(0, 0, 0)" x1="400.0" x2="400.0" y1="314.2249390033031" y2="335.56234750825774" /><path d="M 371 339 A 28.449878006606205 28.449878006606205 30 0,0 400.0 335.56234750825774 A 28.449878006606205 28.449878006606205 150 0,0 428.4498780066062 339.56234750825774" style="fill:none;stroke-width:2.00;stroke:rgb(0, 0, 0)" /><line style="fill:hsl(0, 0%, 0%);stroke-width:1.00;stroke:rgb(0, 0, 0)" x1="366.0" x2="313.62114687649733" y1="324.2249390033031" y2="338.25981039821403" /><line style="fill:hsl(0, 0%, 0%);stroke-width:1.00;stroke:rgb(0, 0, 0)" x1="360.0" x2="305.9797695085708" y1="318.2249390033031" y2="322.9510967723606" /><line style="fill:hsl(0, 0%, 0%);stroke-width:1.00;stroke:rgb(0, 0, 0)" x1="366.0" x2="311.9797695085708" y1="312.2249390033031" y2="307.4987812342456" /><line style="fill:hsl(0, 0%, 0%);stroke-width:1.00;stroke:rgb(0, 0, 0)" x1="434.0" x2="486.37885312350267" y1="324.2249390033031" y2="338.25981039821403" /><line style="fill:hsl(0, 0%, 0%);stroke-width:1.00;stroke:rgb(0, 0, 0)" x1="440.0" x2="494.0202304914292" y1="318.2249390033031" y2="322.95109677236064" /><line style="fill:hsl(0, 0%, 0%);stroke-width:1.00;stroke:rgb(0, 0, 0)" x1="434.0" x2="488.0202304914292" y1="312.2249390033031" y2="307.4987812342456" /></svg>