<?xml version="1.0" encoding="utf-8" ?>
<svg baseProfile="full" height="100%" version="1.1" width="100%" xmlns="http://www.w3.org/2000/svg" xmlns:ev="http://www.w3.org/2001/xml-events" xmlns:xlink="http://www.w3.org/1999/xlink"><defs /><path d="M 306.44 312.93 L 183.27 214.56 A 29.66389606955518 29.66389606955518 0 0,1 191.35043197404525 190.16678675903557 L 348.90 184.84" style="fill:hsl(45, 1%, 56%);stroke-width:1.00;stroke:rgb(0, 0, 0)" /><path d="M 493.56 312.93 L 616.73 214.56 A 29.66389606955518 29.66389606955518 0 0,0 608.6495680259547 190.16678675903557 L 451.10 184.84" style="fill:hsl(45, 1%, 56%);stroke-width:1.00;stroke:rgb(0, 0, 0)" /><ellipse cx="400.0" cy="300.0" rx="184.3200153595001" ry="162.3752034830623" style="fill:hsl(45, 1%, 56%);stroke-width:1.00;stroke:rgb(0, 0, 0)" /><ellipse cx="349.6259771618054" cy="259.40619912923444" rx="9.9368148412326" ry="10.784336761063933" style="fill:hsl(0, 0%, 0%);stroke-width:1.00;stroke:rgb(0, 0, 0)" /><ellipse cx="450.3740228381946" cy="259.40619912923444" rx="9.9368148412326" ry="10.784336761063933" style="fill:hsl(0, 0%, 0%);stroke-width:1.00;stroke:rgb(0, 0, 0)" /><polygon points="386.75137829705955,295.5837927656865 413.24862170294045,295.5837927656865 400.0,313.24862170294045" style="fill:hsl(0, 0%, 0%);stroke-width:1.00;stroke:rgb(0, 0, 0)" /><line style="fill:hsl(0, 0%, 0%);stroke-width:2.00;stroke:rgb(0, 0, 0)" x1="400.0" x2="400.0" y1="313.24862170294045" y2="333.12155425735114" /><path d="M 373 337 A 26.497243405880933 26.497243405880933 30 0,0 400.0 333.12155425735114 A 26.497243405880933 26.497243405880933 150 0,0 426.4972434058809 337.12155425735114" style="fill:none;stroke-width:2.00;stroke:rgb(0, 0, 0)" /><line style="fill:hsl(0, 0%, 0%);stroke-width:1.00;stroke:rgb(0, 0, 0)" x1="366.0" x2="354.6634845958089" y1="323.24862170294045" y2="326.28623185047644" /><line style="fill:hsl(0, 0%, 0%);stroke-width:1.00;stroke:rgb(0, 0, 0)" x1="360.0" x2="348.30823627122805" y1="317.24862170294045" y2="318.27151848583156" /><line style="fill:hsl(0, 0%, 0%);stroke-width:1.00;stroke:rgb(0, 0, 0)" x1="366.0" x2="354.30823627122805" y1="311.24862170294045" y2="310.22572492004934" /><line style="fill:hsl(0, 0%, 0%);stroke-width:1.00;stroke:rgb(0, 0, 0)" x1="434.0" x2="445.3365154041911" y1="323.24862170294045" y2="326.28623185047644" /><line style="fill:hsl(0, 0%, 0%);stroke-width:1.00;stroke:rgb(0, 0, 0)" x1="440.0" x2="451.69176372877195" y1="317.24862170294045" y2="318.27151848583156" /><line style="fill:hsl(0, 0%, 0%);stroke-width:1.00;stroke:rgb(0, 0, 0)" x1="434.0" x2="445.69176372877195" y1="311.24862170294045" y2="310.22572492004934" /></svg>