<?xml version="1.0" encoding="utf-8" ?>
<svg baseProfile="full" height="100%" version="1.1" width="100%" xmlns="http://www.w3.org/2000/svg" xmlns:ev="http://www.w3.org/2001/xml-events" xmlns:xlink="http://www.w3.org/1999/xlink"><defs /><path d="M 430.51 396.96 L 251.53 477.86 A 51.91189928293177 51.91189928293177 0 0,1 201.82140311040553 440.38119062529006 L 230.33 246.05" style="fill:hsl(45, 23%, 60%);stroke-width:1.00;stroke:rgb(0, 0, 0)" /><path d="M 369.49 396.96 L 548.47 477.86 A 51.91189928293177 51.91189928293177 0 0,0 598.1785968895945 440.38119062529006 L 569.67 246.05" style="fill:hsl(45, 23%, 60%);stroke-width:1.00;stroke:rgb(0, 0, 0)" /><ellipse cx="400.0" cy="300.0" rx="181.93240507612347" ry="164.50615264211575" style="fill:hsl(45, 23%, 60%);stroke-width:1.00;stroke:rgb(0, 0, 0)" /><ellipse cx="321.86209844806814" cy="258.8734618394711" rx="9.374070328909406" ry="10.880052853688225" style="fill:hsl(0, 0%, 0%);stroke-width:1.00;stroke:rgb(0, 0, 0)" /><ellipse cx="478.13790155193186" cy="258.8734618394711" rx="9.374070328909406" ry="10.880052853688225" style="fill:hsl(0, 0%, 0%);stroke-width:1.00;stroke:rgb(0, 0, 0)" /><polygon points="387.8852470988599,295.9617490329533 412.1147529011401,295.9617490329533 400.0,312.1147529011401" style="fill:hsl(0, 0%, 0%);stroke-width:1.00;stroke:rgb(0, 0, 0)" /><line style="fill:hsl(0, 0%, 0%);stroke-width:2.00;stroke:rgb(0, 0, 0)" x1="400.0" x2="400.0" y1="312.1147529011401" y2="330.28688225285015" /><path d="M 375 334 A 24.229505802280134 24.229505802280134 30 0,0 400.0 330.28688225285015 A 24.229505802280134 24.229505802280134 150 0,0 424.22950580228013 334.28688225285015" style="fill:none;stroke-width:2.00;stroke:rgb(0, 0, 0)" /><line style="fill:hsl(0, 0%, 0%);stroke-width:1.00;stroke:rgb(0, 0, 0)" x1="366.0" x2="349.3118190881932" y1="322.1147529011401" y2="326.5863374996032" /><line style="fill:hsl(0, 0%, 0%);stroke-width:1.00;stroke:rgb(0, 0, 0)" x1="360.0" x2="342.7888675375757" y1="316.1147529011401" y2="317.62053187804526" /><line style="fill:hsl(0, 0%, 0%);stroke-width:1.00;stroke:rgb(0, 0, 0)" x1="366.0" x2="348.7888675375757" y1="310.1147529011401" y2="308.60897392423493" /><line style="fill:hsl(0, 0%, 0%);stroke-width:1.00;stroke:rgb(0, 0, 0)" x1="434.0" x2="450.6881809118068" y1="322.1147529011401" y2="326.5863374996032" /><line style="fill:hsl(0, 0%, 0%);stroke-width:1.00;stroke:rgb(0, 0, 0)" x1="440.0" x2="457.2111324624243" y1="316.1147529011401" y2="317.62053187804526" /><line style="fill:hsl(0, 0%, 0%);stroke-width:1.00;stroke:rgb(0, 0, 0)" x1="434.0" x2="451.2111324624243" y1="310.1147529011401" y2="308.60897392423493" /></svg>