<?xml version="1.0" encoding="utf-8" ?>
<svg baseProfile="full" height="100%" version="1.1" width="100%" xmlns="http://www.w3.org/2000/svg" xmlns:ev="http://www.w3.org/2001/xml-events" xmlns:xlink="http://www.w3.org/1999/xlink"><defs /><path d="M 370.12 377.92 L 165.97 340.76 A 39.23835906746095 39.23835906746095 0 0,1 154.25203360419982 299.25237525846615 L 308.84 160.83" style="fill:hsl(45, 41%, 76%);stroke-width:1.00;stroke:rgb(0, 0, 0)" /><path d="M 429.88 377.92 L 634.03 340.76 A 39.23835906746095 39.23835906746095 0 0,0 645.7479663958002 299.25237525846615 L 491.16 160.83" style="fill:hsl(45, 41%, 76%);stroke-width:1.00;stroke:rgb(0, 0, 0)" /><ellipse cx="400.0" cy="300.0" rx="167.34435275778304" ry="178.84678811551964" style="fill:hsl(45, 41%, 76%);stroke-width:1.00;stroke:rgb(0, 0, 0)" /><ellipse cx="337.39774704768956" cy="255.2883029711201" rx="12.000819154423397" ry="12.585703557655513" style="fill:hsl(0, 0%, 0%);stroke-width:1.00;stroke:rgb(0, 0, 0)" /><ellipse cx="462.60225295231044" cy="255.2883029711201" rx="12.000819154423397" ry="12.585703557655513" style="fill:hsl(0, 0%, 0%);stroke-width:1.00;stroke:rgb(0, 0, 0)" /><polygon points="385.93233404743546,295.3107780158118 414.06766595256454,295.3107780158118 400.0,314.06766595256454" style="fill:hsl(0, 0%, 0%);stroke-width:1.00;stroke:rgb(0, 0, 0)" /><line style="fill:hsl(0, 0%, 0%);stroke-width:2.00;stroke:rgb(0, 0, 0)" x1="400.0" x2="400.0" y1="314.06766595256454" y2="335.1691648814113" /><path d="M 371 339 A 28.13533190512903 28.13533190512903 30 0,0 400.0 335.1691648814113 A 28.13533190512903 28.13533190512903 150 0,0 428.135331905129 339.1691648814113" style="fill:none;stroke-width:2.00;stroke:rgb(0, 0, 0)" /><line style="fill:hsl(0, 0%, 0%);stroke-width:1.00;stroke:rgb(0, 0, 0)" x1="366.0" x2="360.45408823937925" y1="324.06766595256454" y2="325.55368853011714" /><line style="fill:hsl(0, 0%, 0%);stroke-width:1.00;stroke:rgb(0, 0, 0)" x1="360.0" x2="354.28029798805517" y1="318.06766595256454" y2="318.56807503735615" /><line style="fill:hsl(0, 0%, 0%);stroke-width:1.00;stroke:rgb(0, 0, 0)" x1="366.0" x2="360.28029798805517" y1="312.06766595256454" y2="311.5672568677729" /><line style="fill:hsl(0, 0%, 0%);stroke-width:1.00;stroke:rgb(0, 0, 0)" x1="434.0" x2="439.54591176062075" y1="324.06766595256454" y2="325.55368853011714" /><line style="fill:hsl(0, 0%, 0%);stroke-width:1.00;stroke:rgb(0, 0, 0)" x1="440.0" x2="445.71970201194483" y1="318.06766595256454" y2="318.56807503735615" /><line style="fill:hsl(0, 0%, 0%);stroke-width:1.00;stroke:rgb(0, 0, 0)" x1="434.0" x2="439.71970201194483" y1="312.06766595256454" y2="311.5672568677729" /></svg>