<?xml version="1.0" encoding="utf-8" ?>
<svg baseProfile="full" height="100%" version="1.1" width="100%" xmlns="http://www.w3.org/2000/svg" xmlns:ev="http://www.w3.org/2001/xml-events" xmlns:xlink="http://www.w3.org/1999/xlink"><defs /><path d="M 285.24 345.73 L 133.07 260.39 A 5.037462556289235 5.037462556289235 0 0,1 133.00179474877382 254.10776866220772 L 283.24 165.42" style="fill:hsl(45, 27%, 47%);stroke-width:1.00;stroke:rgb(0, 0, 0)" /><path d="M 514.76 345.73 L 666.93 260.39 A 5.037462556289235 5.037462556289235 0 0,0 666.9982052512262 254.10776866220772 L 516.76 165.42" style="fill:hsl(45, 27%, 47%);stroke-width:1.00;stroke:rgb(0, 0, 0)" /><ellipse cx="400.0" cy="300.0" rx="195.00037775257556" ry="153.48175395831865" style="fill:hsl(45, 27%, 47%);stroke-width:1.00;stroke:rgb(0, 0, 0)" /><ellipse cx="349.7510665112794" cy="261.62956151042033" rx="10.031024819971854" ry="11.995098480121444" style="fill:hsl(0, 0%, 0%);stroke-width:1.00;stroke:rgb(0, 0, 0)" /><ellipse cx="450.2489334887206" cy="261.62956151042033" rx="10.031024819971854" ry="11.995098480121444" style="fill:hsl(0, 0%, 0%);stroke-width:1.00;stroke:rgb(0, 0, 0)" /><polygon points="384.52313128887727,294.8410437629591 415.47686871112273,294.8410437629591 400.0,315.47686871112273" style="fill:hsl(0, 0%, 0%);stroke-width:1.00;stroke:rgb(0, 0, 0)" /><line style="fill:hsl(0, 0%, 0%);stroke-width:2.00;stroke:rgb(0, 0, 0)" x1="400.0" x2="400.0" y1="315.47686871112273" y2="338.6921717778068" /><path d="M 369 342 A 30.953737422245425 30.953737422245425 30 0,0 400.0 338.6921717778068 A 30.953737422245425 30.953737422245425 150 0,0 430.9537374222454 342.6921717778068" style="fill:none;stroke-width:2.00;stroke:rgb(0, 0, 0)" /><line style="fill:hsl(0, 0%, 0%);stroke-width:1.00;stroke:rgb(0, 0, 0)" x1="366.0" x2="311.86283836593844" y1="325.47686871112273" y2="339.9828774514827" /><line style="fill:hsl(0, 0%, 0%);stroke-width:1.00;stroke:rgb(0, 0, 0)" x1="360.0" x2="304.16636151371705" y1="319.47686871112273" y2="324.3616791220772" /><line style="fill:hsl(0, 0%, 0%);stroke-width:1.00;stroke:rgb(0, 0, 0)" x1="366.0" x2="310.16636151371705" y1="313.47686871112273" y2="308.5920583001682" /><line style="fill:hsl(0, 0%, 0%);stroke-width:1.00;stroke:rgb(0, 0, 0)" x1="434.0" x2="488.13716163406156" y1="325.47686871112273" y2="339.9828774514827" /><line style="fill:hsl(0, 0%, 0%);stroke-width:1.00;stroke:rgb(0, 0, 0)" x1="440.0" x2="495.83363848628295" y1="319.47686871112273" y2="324.36167912207725" /><line style="fill:hsl(0, 0%, 0%);stroke-width:1.00;stroke:rgb(0, 0, 0)" x1="434.0" x2="489.83363848628295" y1="313.47686871112273" y2="308.5920583001682" /></svg>