<?xml version="1.0" encoding="utf-8" ?>
<svg baseProfile="full" height="100%" version="1.1" width="100%" xmlns="http://www.w3.org/2000/svg" xmlns:ev="http://www.w3.org/2001/xml-events" xmlns:xlink="http://www.w3.org/1999/xlink"><defs /><path d="M 288.47 314.55 L 178.54 172.08 A 10.079680341962536 10.079680341962536 0 0,1 183.39053158222896 163.251657476572 L 362.59 179.70" style="fill:hsl(45, 35%, 47%);stroke-width:1.00;stroke:rgb(0, 0, 0)" /><path d="M 511.53 314.55 L 621.46 172.08 A 10.079680341962536 10.079680341962536 0 0,0 616.609468417771 163.251657476572 L 437.41 179.70" style="fill:hsl(45, 35%, 47%);stroke-width:1.00;stroke:rgb(0, 0, 0)" /><ellipse cx="400.0" cy="300.0" rx="191.6370655129022" ry="156.17542420563203" style="fill:hsl(45, 35%, 47%);stroke-width:1.00;stroke:rgb(0, 0, 0)" /><ellipse cx="325.55358688733384" cy="260.956143948592" rx="12.264729240222847" ry="12.306086396940254" style="fill:hsl(0, 0%, 0%);stroke-width:1.00;stroke:rgb(0, 0, 0)" /><ellipse cx="474.44641311266616" cy="260.956143948592" rx="12.264729240222847" ry="12.306086396940254" style="fill:hsl(0, 0%, 0%);stroke-width:1.00;stroke:rgb(0, 0, 0)" /><polygon points="380.5778642457858,293.52595474859527 419.4221357542142,293.52595474859527 400.0,319.4221357542142" style="fill:hsl(0, 0%, 0%);stroke-width:1.00;stroke:rgb(0, 0, 0)" /><line style="fill:hsl(0, 0%, 0%);stroke-width:2.00;stroke:rgb(0, 0, 0)" x1="400.0" x2="400.0" y1="319.4221357542142" y2="348.55533938553555" /><path d="M 361 352 A 38.844271508428434 38.844271508428434 30 0,0 400.0 348.55533938553555 A 38.844271508428434 38.844271508428434 150 0,0 438.84427150842845 352.55533938553555" style="fill:none;stroke-width:2.00;stroke:rgb(0, 0, 0)" /><line style="fill:hsl(0, 0%, 0%);stroke-width:1.00;stroke:rgb(0, 0, 0)" x1="366.0" x2="350.1343791221506" y1="329.4221357542142" y2="333.6733160558523" /><line style="fill:hsl(0, 0%, 0%);stroke-width:1.00;stroke:rgb(0, 0, 0)" x1="360.0" x2="343.6372038408286" y1="323.4221357542142" y2="324.8536949217272" /><line style="fill:hsl(0, 0%, 0%);stroke-width:1.00;stroke:rgb(0, 0, 0)" x1="366.0" x2="349.6372038408286" y1="317.4221357542142" y2="315.99057658670114" /><line style="fill:hsl(0, 0%, 0%);stroke-width:1.00;stroke:rgb(0, 0, 0)" x1="434.0" x2="449.8656208778494" y1="329.4221357542142" y2="333.6733160558523" /><line style="fill:hsl(0, 0%, 0%);stroke-width:1.00;stroke:rgb(0, 0, 0)" x1="440.0" x2="456.3627961591714" y1="323.4221357542142" y2="324.85369492172725" /><line style="fill:hsl(0, 0%, 0%);stroke-width:1.00;stroke:rgb(0, 0, 0)" x1="434.0" x2="450.3627961591714" y1="317.4221357542142" y2="315.99057658670114" /></svg>