<?xml version="1.0" encoding="utf-8" ?>
<svg baseProfile="full" height="100%" version="1.1" width="100%" xmlns="http://www.w3.org/2000/svg" xmlns:ev="http://www.w3.org/2001/xml-events" xmlns:xlink="http://www.w3.org/1999/xlink"><defs /><path d="M 413.24 392.77 L 202.49 476.81 A 20.094455369119256 20.094455369119256 0 0,1 188.82786671370934 462.92911171755304 L 276.21 253.54" style="fill:hsl(45, 35%, 38%);stroke-width:1.00;stroke:rgb(0, 0, 0)" /><path d="M 386.76 392.77 L 597.51 476.81 A 20.094455369119256 20.094455369119256 0 0,0 611.1721332862907 462.92911171755304 L 523.79 253.54" style="fill:hsl(45, 35%, 38%);stroke-width:1.00;stroke:rgb(0, 0, 0)" /><ellipse cx="400.0" cy="300.0" rx="187.3612320604061" ry="159.73955588822534" style="fill:hsl(45, 35%, 38%);stroke-width:1.00;stroke:rgb(0, 0, 0)" /><ellipse cx="324.88140089122584" cy="260.06511102794366" rx="9.57025191665859" ry="12.722565903484071" style="fill:hsl(0, 0%, 0%);stroke-width:1.00;stroke:rgb(0, 0, 0)" /><ellipse cx="475.11859910877416" cy="260.06511102794366" rx="9.57025191665859" ry="12.722565903484071" style="fill:hsl(0, 0%, 0%);stroke-width:1.00;stroke:rgb(0, 0, 0)" /><polygon points="381.0054517489312,293.6684839163104 418.9945482510688,293.6684839163104 400.0,318.9945482510688" style="fill:hsl(0, 0%, 0%);stroke-width:1.00;stroke:rgb(0, 0, 0)" /><line style="fill:hsl(0, 0%, 0%);stroke-width:2.00;stroke:rgb(0, 0, 0)" x1="400.0" x2="400.0" y1="318.9945482510688" y2="347.486370627672" /><path d="M 362 351 A 37.989096502137585 37.989096502137585 30 0,0 400.0 347.486370627672 A 37.989096502137585 37.989096502137585 150 0,0 437.9890965021376 351.486370627672" style="fill:none;stroke-width:2.00;stroke:rgb(0, 0, 0)" /><line style="fill:hsl(0, 0%, 0%);stroke-width:1.00;stroke:rgb(0, 0, 0)" x1="366.0" x2="319.59839139760766" y1="328.9945482510688" y2="341.4278218035849" /><line style="fill:hsl(0, 0%, 0%);stroke-width:1.00;stroke:rgb(0, 0, 0)" x1="360.0" x2="312.14432080129717" y1="322.9945482510688" y2="327.18137766628865" /><line style="fill:hsl(0, 0%, 0%);stroke-width:1.00;stroke:rgb(0, 0, 0)" x1="366.0" x2="318.14432080129717" y1="316.9945482510688" y2="312.80771883584896" /><line style="fill:hsl(0, 0%, 0%);stroke-width:1.00;stroke:rgb(0, 0, 0)" x1="434.0" x2="480.40160860239234" y1="328.9945482510688" y2="341.4278218035849" /><line style="fill:hsl(0, 0%, 0%);stroke-width:1.00;stroke:rgb(0, 0, 0)" x1="440.0" x2="487.85567919870283" y1="322.9945482510688" y2="327.1813776662887" /><line style="fill:hsl(0, 0%, 0%);stroke-width:1.00;stroke:rgb(0, 0, 0)" x1="434.0" x2="481.85567919870283" y1="316.9945482510688" y2="312.80771883584896" /></svg>