<?xml version="1.0" encoding="utf-8" ?>
<svg baseProfile="full" height="100%" version="1.1" width="100%" xmlns="http://www.w3.org/2000/svg" xmlns:ev="http://www.w3.org/2001/xml-events" xmlns:xlink="http://www.w3.org/1999/xlink"><defs /><path d="M 334.54 367.88 L 221.26 319.50 A 52.29090839377426 52.29090839377426 0 0,1 220.6171956723697 266.7089703171384 L 332.69 215.60" style="fill:hsl(45, 43%, 50%);stroke-width:1.00;stroke:rgb(0, 0, 0)" /><path d="M 465.46 367.88 L 578.74 319.50 A 52.29090839377426 52.29090839377426 0 0,0 579.3828043276303 266.7089703171384 L 467.31 215.60" style="fill:hsl(45, 43%, 50%);stroke-width:1.00;stroke:rgb(0, 0, 0)" /><ellipse cx="400.0" cy="300.0" rx="153.21215266855964" ry="195.34351210862968" style="fill:hsl(45, 43%, 50%);stroke-width:1.00;stroke:rgb(0, 0, 0)" /><ellipse cx="332.1184403211501" cy="251.16412197284257" rx="8.216807364318132" ry="14.159661759389635" style="fill:hsl(0, 0%, 0%);stroke-width:1.00;stroke:rgb(0, 0, 0)" /><ellipse cx="467.8815596788499" cy="251.16412197284257" rx="8.216807364318132" ry="14.159661759389635" style="fill:hsl(0, 0%, 0%);stroke-width:1.00;stroke:rgb(0, 0, 0)" /><polygon points="385.25540621340855,295.0851354044695 414.74459378659145,295.0851354044695 400.0,314.74459378659145" style="fill:hsl(0, 0%, 0%);stroke-width:1.00;stroke:rgb(0, 0, 0)" /><line style="fill:hsl(0, 0%, 0%);stroke-width:2.00;stroke:rgb(0, 0, 0)" x1="400.0" x2="400.0" y1="314.74459378659145" y2="336.86148446647854" /><path d="M 370 340 A 29.489187573182853 29.489187573182853 30 0,0 400.0 336.86148446647854 A 29.489187573182853 29.489187573182853 150 0,0 429.48918757318285 340.86148446647854" style="fill:none;stroke-width:2.00;stroke:rgb(0, 0, 0)" /><line style="fill:hsl(0, 0%, 0%);stroke-width:1.00;stroke:rgb(0, 0, 0)" x1="366.0" x2="310.3715977119142" y1="324.74459378659145" y2="339.65017925591764" /><line style="fill:hsl(0, 0%, 0%);stroke-width:1.00;stroke:rgb(0, 0, 0)" x1="360.0" x2="302.6283903852039" y1="318.74459378659145" y2="323.763959236121" /><line style="fill:hsl(0, 0%, 0%);stroke-width:1.00;stroke:rgb(0, 0, 0)" x1="366.0" x2="308.6283903852039" y1="312.74459378659145" y2="307.7252283370619" /><line style="fill:hsl(0, 0%, 0%);stroke-width:1.00;stroke:rgb(0, 0, 0)" x1="434.0" x2="489.6284022880858" y1="324.74459378659145" y2="339.65017925591764" /><line style="fill:hsl(0, 0%, 0%);stroke-width:1.00;stroke:rgb(0, 0, 0)" x1="440.0" x2="497.3716096147961" y1="318.74459378659145" y2="323.763959236121" /><line style="fill:hsl(0, 0%, 0%);stroke-width:1.00;stroke:rgb(0, 0, 0)" x1="434.0" x2="491.3716096147961" y1="312.74459378659145" y2="307.7252283370619" /></svg>