<?xml version="1.0" encoding="utf-8" ?>
<svg baseProfile="full" height="100%" version="1.1" width="100%" xmlns="http://www.w3.org/2000/svg" xmlns:ev="http://www.w3.org/2001/xml-events" xmlns:xlink="http://www.w3.org/1999/xlink"><defs /><path d="M 307.58 302.07 L 219.24 101.04 A 7.295232745298918 7.295232745298918 0 0,1 224.1727444032614 95.71840159736247 L 431.30 168.63" style="fill:hsl(45, 42%, 40%);stroke-width:1.00;stroke:rgb(0, 0, 0)" /><path d="M 492.42 302.07 L 580.76 101.04 A 7.295232745298918 7.295232745298918 0 0,0 575.8272555967386 95.71840159736247 L 368.70 168.63" style="fill:hsl(45, 42%, 40%);stroke-width:1.00;stroke:rgb(0, 0, 0)" /><ellipse cx="400.0" cy="300.0" rx="166.55532809821665" ry="179.69404126387994" style="fill:hsl(45, 42%, 40%);stroke-width:1.00;stroke:rgb(0, 0, 0)" /><ellipse cx="324.3352251145776" cy="255.07648968403" rx="9.65403320923345" ry="12.918743849679805" style="fill:hsl(0, 0%, 0%);stroke-width:1.00;stroke:rgb(0, 0, 0)" /><ellipse cx="475.6647748854224" cy="255.07648968403" rx="9.65403320923345" ry="12.918743849679805" style="fill:hsl(0, 0%, 0%);stroke-width:1.00;stroke:rgb(0, 0, 0)" /><polygon points="385.4304643846006,295.1434881282002 414.5695356153994,295.1434881282002 400.0,314.5695356153994" style="fill:hsl(0, 0%, 0%);stroke-width:1.00;stroke:rgb(0, 0, 0)" /><line style="fill:hsl(0, 0%, 0%);stroke-width:2.00;stroke:rgb(0, 0, 0)" x1="400.0" x2="400.0" y1="314.5695356153994" y2="336.4238390384985" /><path d="M 370 340 A 29.1390712307988 29.1390712307988 30 0,0 400.0 336.4238390384985 A 29.1390712307988 29.1390712307988 150 0,0 429.1390712307988 340.4238390384985" style="fill:none;stroke-width:2.00;stroke:rgb(0, 0, 0)" /><line style="fill:hsl(0, 0%, 0%);stroke-width:1.00;stroke:rgb(0, 0, 0)" x1="366.0" x2="329.5020186581696" y1="324.5695356153994" y2="334.349140241309" /><line style="fill:hsl(0, 0%, 0%);stroke-width:1.00;stroke:rgb(0, 0, 0)" x1="360.0" x2="322.35829448367826" y1="318.5695356153994" y2="321.8627581238588" /><line style="fill:hsl(0, 0%, 0%);stroke-width:1.00;stroke:rgb(0, 0, 0)" x1="366.0" x2="328.35829448367826" y1="312.5695356153994" y2="309.27631310694" /><line style="fill:hsl(0, 0%, 0%);stroke-width:1.00;stroke:rgb(0, 0, 0)" x1="434.0" x2="470.4979813418304" y1="324.5695356153994" y2="334.349140241309" /><line style="fill:hsl(0, 0%, 0%);stroke-width:1.00;stroke:rgb(0, 0, 0)" x1="440.0" x2="477.64170551632174" y1="318.5695356153994" y2="321.8627581238588" /><line style="fill:hsl(0, 0%, 0%);stroke-width:1.00;stroke:rgb(0, 0, 0)" x1="434.0" x2="471.64170551632174" y1="312.5695356153994" y2="309.27631310694" /></svg>