<?xml version="1.0" encoding="utf-8" ?>
<svg baseProfile="full" height="100%" version="1.1" width="100%" xmlns="http://www.w3.org/2000/svg" xmlns:ev="http://www.w3.org/2001/xml-events" xmlns:xlink="http://www.w3.org/1999/xlink"><defs /><path d="M 339.89 382.36 L 196.73 310.91 A 38.97295923459552 38.97295923459552 0 0,1 196.04335191512428 266.07013040020513 L 336.95 190.26" style="fill:hsl(45, 57%, 43%);stroke-width:1.00;stroke:rgb(0, 0, 0)" /><path d="M 460.11 382.36 L 603.27 310.91 A 38.97295923459552 38.97295923459552 0 0,0 603.9566480848757 266.07013040020513 L 463.05 190.26" style="fill:hsl(45, 57%, 43%);stroke-width:1.00;stroke:rgb(0, 0, 0)" /><ellipse cx="400.0" cy="300.0" rx="152.16567635342827" ry="196.68693175250166" style="fill:hsl(45, 57%, 43%);stroke-width:1.00;stroke:rgb(0, 0, 0)" /><ellipse cx="339.13588712380624" cy="250.82826706187458" rx="9.736166682650271" ry="13.871408731338608" style="fill:hsl(0, 0%, 0%);stroke-width:1.00;stroke:rgb(0, 0, 0)" /><ellipse cx="460.86411287619376" cy="250.82826706187458" rx="9.736166682650271" ry="13.871408731338608" style="fill:hsl(0, 0%, 0%);stroke-width:1.00;stroke:rgb(0, 0, 0)" /><polygon points="388.20086796253554,296.06695598751185 411.79913203746446,296.06695598751185 400.0,311.79913203746446" style="fill:hsl(0, 0%, 0%);stroke-width:1.00;stroke:rgb(0, 0, 0)" /><line style="fill:hsl(0, 0%, 0%);stroke-width:2.00;stroke:rgb(0, 0, 0)" x1="400.0" x2="400.0" y1="311.79913203746446" y2="329.4978300936611" /><path d="M 376 333 A 23.598264074928874 23.598264074928874 30 0,0 400.0 329.4978300936611 A 23.598264074928874 23.598264074928874 150 0,0 423.59826407492886 333.4978300936611" style="fill:none;stroke-width:2.00;stroke:rgb(0, 0, 0)" /><line style="fill:hsl(0, 0%, 0%);stroke-width:1.00;stroke:rgb(0, 0, 0)" x1="366.0" x2="332.12861420809617" y1="321.79913203746446" y2="330.8749425069281" /><line style="fill:hsl(0, 0%, 0%);stroke-width:1.00;stroke:rgb(0, 0, 0)" x1="360.0" x2="325.0671987179927" y1="315.79913203746446" y2="318.85535613484393" /><line style="fill:hsl(0, 0%, 0%);stroke-width:1.00;stroke:rgb(0, 0, 0)" x1="366.0" x2="331.0671987179927" y1="309.79913203746446" y2="306.74290794008493" /><line style="fill:hsl(0, 0%, 0%);stroke-width:1.00;stroke:rgb(0, 0, 0)" x1="434.0" x2="467.87138579190383" y1="321.79913203746446" y2="330.8749425069281" /><line style="fill:hsl(0, 0%, 0%);stroke-width:1.00;stroke:rgb(0, 0, 0)" x1="440.0" x2="474.9328012820073" y1="315.79913203746446" y2="318.855356134844" /><line style="fill:hsl(0, 0%, 0%);stroke-width:1.00;stroke:rgb(0, 0, 0)" x1="434.0" x2="468.9328012820073" y1="309.79913203746446" y2="306.74290794008493" /></svg>