<?xml version="1.0" encoding="utf-8" ?>
<svg baseProfile="full" height="100%" version="1.1" width="100%" xmlns="http://www.w3.org/2000/svg" xmlns:ev="http://www.w3.org/2001/xml-events" xmlns:xlink="http://www.w3.org/1999/xlink"><defs /><path d="M 326.75 343.35 L 197.37 189.18 A 42.53326526493994 42.53326526493994 0 0,1 216.16853289030018 152.99133307698352 L 416.69 170.18" style="fill:hsl(45, 23%, 66%);stroke-width:1.00;stroke:rgb(0, 0, 0)" /><path d="M 473.25 343.35 L 602.63 189.18 A 42.53326526493994 42.53326526493994 0 0,0 583.8314671096998 152.99133307698352 L 383.31 170.18" style="fill:hsl(45, 23%, 66%);stroke-width:1.00;stroke:rgb(0, 0, 0)" /><ellipse cx="400.0" cy="300.0" rx="158.02250738250606" ry="189.39707068154837" style="fill:hsl(45, 23%, 66%);stroke-width:1.00;stroke:rgb(0, 0, 0)" /><ellipse cx="345.5197093029099" cy="252.6507323296129" rx="10.022399337253535" ry="12.324480725662575" style="fill:hsl(0, 0%, 0%);stroke-width:1.00;stroke:rgb(0, 0, 0)" /><ellipse cx="454.4802906970901" cy="252.6507323296129" rx="10.022399337253535" ry="12.324480725662575" style="fill:hsl(0, 0%, 0%);stroke-width:1.00;stroke:rgb(0, 0, 0)" /><polygon points="388.98999176502105,296.329997255007 411.01000823497895,296.329997255007 400.0,311.01000823497895" style="fill:hsl(0, 0%, 0%);stroke-width:1.00;stroke:rgb(0, 0, 0)" /><line style="fill:hsl(0, 0%, 0%);stroke-width:2.00;stroke:rgb(0, 0, 0)" x1="400.0" x2="400.0" y1="311.01000823497895" y2="327.52502058744744" /><path d="M 377 331 A 22.020016469957937 22.020016469957937 30 0,0 400.0 327.52502058744744 A 22.020016469957937 22.020016469957937 150 0,0 422.0200164699579 331.52502058744744" style="fill:none;stroke-width:2.00;stroke:rgb(0, 0, 0)" /><line style="fill:hsl(0, 0%, 0%);stroke-width:1.00;stroke:rgb(0, 0, 0)" x1="366.0" x2="347.08348271660327" y1="321.01000823497895" y2="326.0786737646745" /><line style="fill:hsl(0, 0%, 0%);stroke-width:1.00;stroke:rgb(0, 0, 0)" x1="360.0" x2="340.4907025868867" y1="315.01000823497895" y2="316.716850591982" /><line style="fill:hsl(0, 0%, 0%);stroke-width:1.00;stroke:rgb(0, 0, 0)" x1="366.0" x2="346.4907025868867" y1="309.01000823497895" y2="307.3031658779759" /><line style="fill:hsl(0, 0%, 0%);stroke-width:1.00;stroke:rgb(0, 0, 0)" x1="434.0" x2="452.91651728339673" y1="321.01000823497895" y2="326.0786737646745" /><line style="fill:hsl(0, 0%, 0%);stroke-width:1.00;stroke:rgb(0, 0, 0)" x1="440.0" x2="459.5092974131133" y1="315.01000823497895" y2="316.716850591982" /><line style="fill:hsl(0, 0%, 0%);stroke-width:1.00;stroke:rgb(0, 0, 0)" x1="434.0" x2="453.5092974131133" y1="309.01000823497895" y2="307.3031658779759" /></svg>