<?xml version="1.0" encoding="utf-8" ?>
<svg baseProfile="full" height="100%" version="1.1" width="100%" xmlns="http://www.w3.org/2000/svg" xmlns:ev="http://www.w3.org/2001/xml-events" xmlns:xlink="http://www.w3.org/1999/xlink"><defs /><path d="M 302.00 320.91 L 154.35 167.13 A 1.7458606918262873 1.7458606918262873 0 0,1 155.02250677237157 165.67544299721646 L 367.89 177.23" style="fill:hsl(45, 0%, 50%);stroke-width:1.00;stroke:rgb(0, 0, 0)" /><path d="M 498.00 320.91 L 645.65 167.13 A 1.7458606918262873 1.7458606918262873 0 0,0 644.9774932276284 165.67544299721646 L 432.11 177.23" style="fill:hsl(45, 0%, 50%);stroke-width:1.00;stroke:rgb(0, 0, 0)" /><ellipse cx="400.0" cy="300.0" rx="197.66835339985755" ry="151.41017509999438" style="fill:hsl(45, 0%, 50%);stroke-width:1.00;stroke:rgb(0, 0, 0)" /><ellipse cx="343.57528847619784" cy="262.1474562250014" rx="9.488316695989733" ry="14.564832486473012" style="fill:hsl(0, 0%, 0%);stroke-width:1.00;stroke:rgb(0, 0, 0)" /><ellipse cx="456.42471152380216" cy="262.1474562250014" rx="9.488316695989733" ry="14.564832486473012" style="fill:hsl(0, 0%, 0%);stroke-width:1.00;stroke:rgb(0, 0, 0)" /><polygon points="388.92457361925057,296.30819120641684 411.07542638074943,296.30819120641684 400.0,311.07542638074943" style="fill:hsl(0, 0%, 0%);stroke-width:1.00;stroke:rgb(0, 0, 0)" /><line style="fill:hsl(0, 0%, 0%);stroke-width:2.00;stroke:rgb(0, 0, 0)" x1="400.0" x2="400.0" y1="311.07542638074943" y2="327.68856595187367" /><path d="M 377 331 A 22.150852761498918 22.150852761498918 30 0,0 400.0 327.68856595187367 A 22.150852761498918 22.150852761498918 150 0,0 422.1508527614989 331.68856595187367" style="fill:none;stroke-width:2.00;stroke:rgb(0, 0, 0)" /><line style="fill:hsl(0, 0%, 0%);stroke-width:1.00;stroke:rgb(0, 0, 0)" x1="366.0" x2="313.60513373384623" y1="321.07542638074943" y2="335.11458848430203" /><line style="fill:hsl(0, 0%, 0%);stroke-width:1.00;stroke:rgb(0, 0, 0)" x1="360.0" x2="305.9632545678014" y1="315.07542638074943" y2="319.8030290199031" /><line style="fill:hsl(0, 0%, 0%);stroke-width:1.00;stroke:rgb(0, 0, 0)" x1="366.0" x2="311.9632545678014" y1="309.07542638074943" y2="304.3478237415958" /><line style="fill:hsl(0, 0%, 0%);stroke-width:1.00;stroke:rgb(0, 0, 0)" x1="434.0" x2="486.39486626615377" y1="321.07542638074943" y2="335.114588484302" /><line style="fill:hsl(0, 0%, 0%);stroke-width:1.00;stroke:rgb(0, 0, 0)" x1="440.0" x2="494.0367454321986" y1="315.07542638074943" y2="319.8030290199031" /><line style="fill:hsl(0, 0%, 0%);stroke-width:1.00;stroke:rgb(0, 0, 0)" x1="434.0" x2="488.0367454321986" y1="309.07542638074943" y2="304.3478237415958" /></svg>