<?xml version="1.0" encoding="utf-8" ?>
<svg baseProfile="full" height="100%" version="1.1" width="100%" xmlns="http://www.w3.org/2000/svg" xmlns:ev="http://www.w3.org/2001/xml-events" xmlns:xlink="http://www.w3.org/1999/xlink"><defs /><path d="M 326.91 311.98 L 219.31 114.23 A 25.527835392957833 25.527835392957833 0 0,1 234.28822755532678 96.41870520987182 L 447.55 168.53" style="fill:hsl(45, 35%, 43%);stroke-width:1.00;stroke:rgb(0, 0, 0)" /><path d="M 473.09 311.98 L 580.69 114.23 A 25.527835392957833 25.527835392957833 0 0,0 565.7117724446732 96.41870520987182 L 352.45 168.53" style="fill:hsl(45, 35%, 43%);stroke-width:1.00;stroke:rgb(0, 0, 0)" /><ellipse cx="400.0" cy="300.0" rx="170.67185006103517" ry="175.3599084400672" style="fill:hsl(45, 35%, 43%);stroke-width:1.00;stroke:rgb(0, 0, 0)" /><ellipse cx="321.4683803089718" cy="256.1600228899832" rx="12.72551991006714" ry="14.005385190774504" style="fill:hsl(0, 0%, 0%);stroke-width:1.00;stroke:rgb(0, 0, 0)" /><ellipse cx="478.5316196910282" cy="256.1600228899832" rx="12.72551991006714" ry="14.005385190774504" style="fill:hsl(0, 0%, 0%);stroke-width:1.00;stroke:rgb(0, 0, 0)" /><polygon points="389.606330108973,296.5354433696577 410.393669891027,296.5354433696577 400.0,310.393669891027" style="fill:hsl(0, 0%, 0%);stroke-width:1.00;stroke:rgb(0, 0, 0)" /><line style="fill:hsl(0, 0%, 0%);stroke-width:2.00;stroke:rgb(0, 0, 0)" x1="400.0" x2="400.0" y1="310.393669891027" y2="325.98417472756756" /><path d="M 379 329 A 20.787339782054055 20.787339782054055 30 0,0 400.0 325.98417472756756 A 20.787339782054055 20.787339782054055 150 0,0 420.78733978205406 329.98417472756756" style="fill:none;stroke-width:2.00;stroke:rgb(0, 0, 0)" /><line style="fill:hsl(0, 0%, 0%);stroke-width:1.00;stroke:rgb(0, 0, 0)" x1="366.0" x2="335.9064095025562" y1="320.393669891027" y2="328.45722316217" /><line style="fill:hsl(0, 0%, 0%);stroke-width:1.00;stroke:rgb(0, 0, 0)" x1="360.0" x2="328.9633774310886" y1="314.393669891027" y2="317.1090225199396" /><line style="fill:hsl(0, 0%, 0%);stroke-width:1.00;stroke:rgb(0, 0, 0)" x1="366.0" x2="334.9633774310886" y1="308.393669891027" y2="305.67831726211443" /><line style="fill:hsl(0, 0%, 0%);stroke-width:1.00;stroke:rgb(0, 0, 0)" x1="434.0" x2="464.0935904974438" y1="320.393669891027" y2="328.45722316217" /><line style="fill:hsl(0, 0%, 0%);stroke-width:1.00;stroke:rgb(0, 0, 0)" x1="440.0" x2="471.0366225689114" y1="314.393669891027" y2="317.1090225199396" /><line style="fill:hsl(0, 0%, 0%);stroke-width:1.00;stroke:rgb(0, 0, 0)" x1="434.0" x2="465.0366225689114" y1="308.393669891027" y2="305.67831726211443" /></svg>