<?xml version="1.0" encoding="utf-8" ?>
<svg baseProfile="full" height="100%" version="1.1" width="100%" xmlns="http://www.w3.org/2000/svg" xmlns:ev="http://www.w3.org/2001/xml-events" xmlns:xlink="http://www.w3.org/1999/xlink"><defs /><path d="M 374.38 404.00 L 149.06 348.42 A 22.473926259994496 22.473926259994496 0 0,1 141.8040654557866 321.981150266894 L 307.16 159.15" style="fill:hsl(45, 3%, 68%);stroke-width:1.00;stroke:rgb(0, 0, 0)" /><path d="M 425.62 404.00 L 650.94 348.42 A 22.473926259994496 22.473926259994496 0 0,0 658.1959345442134 321.981150266894 L 492.84 159.15" style="fill:hsl(45, 3%, 68%);stroke-width:1.00;stroke:rgb(0, 0, 0)" /><ellipse cx="400.0" cy="300.0" rx="162.67144925541345" ry="183.98434474514283" style="fill:hsl(45, 3%, 68%);stroke-width:1.00;stroke:rgb(0, 0, 0)" /><ellipse cx="335.29525199403247" cy="254.0039138137143" rx="9.667792900711891" ry="10.832484451135851" style="fill:hsl(0, 0%, 0%);stroke-width:1.00;stroke:rgb(0, 0, 0)" /><ellipse cx="464.70474800596753" cy="254.0039138137143" rx="9.667792900711891" ry="10.832484451135851" style="fill:hsl(0, 0%, 0%);stroke-width:1.00;stroke:rgb(0, 0, 0)" /><polygon points="382.13589571067814,294.04529857022607 417.86410428932186,294.04529857022607 400.0,317.86410428932186" style="fill:hsl(0, 0%, 0%);stroke-width:1.00;stroke:rgb(0, 0, 0)" /><line style="fill:hsl(0, 0%, 0%);stroke-width:2.00;stroke:rgb(0, 0, 0)" x1="400.0" x2="400.0" y1="317.86410428932186" y2="344.6602607233046" /><path d="M 364 348 A 35.72820857864369 35.72820857864369 30 0,0 400.0 344.6602607233046 A 35.72820857864369 35.72820857864369 150 0,0 435.7282085786437 348.6602607233046" style="fill:none;stroke-width:2.00;stroke:rgb(0, 0, 0)" /><line style="fill:hsl(0, 0%, 0%);stroke-width:1.00;stroke:rgb(0, 0, 0)" x1="366.0" x2="344.42905678567024" y1="327.86410428932186" y2="333.6440211035791" /><line style="fill:hsl(0, 0%, 0%);stroke-width:1.00;stroke:rgb(0, 0, 0)" x1="360.0" x2="337.7530958608798" y1="321.86410428932186" y2="323.81045620004284" /><line style="fill:hsl(0, 0%, 0%);stroke-width:1.00;stroke:rgb(0, 0, 0)" x1="366.0" x2="343.7530958608798" y1="315.86410428932186" y2="313.9177523786009" /><line style="fill:hsl(0, 0%, 0%);stroke-width:1.00;stroke:rgb(0, 0, 0)" x1="434.0" x2="455.57094321432976" y1="327.86410428932186" y2="333.6440211035791" /><line style="fill:hsl(0, 0%, 0%);stroke-width:1.00;stroke:rgb(0, 0, 0)" x1="440.0" x2="462.2469041391202" y1="321.86410428932186" y2="323.81045620004284" /><line style="fill:hsl(0, 0%, 0%);stroke-width:1.00;stroke:rgb(0, 0, 0)" x1="434.0" x2="456.2469041391202" y1="315.86410428932186" y2="313.9177523786009" /></svg>