<?xml version="1.0" encoding="utf-8" ?>
<svg baseProfile="full" height="100%" version="1.1" width="100%" xmlns="http://www.w3.org/2000/svg" xmlns:ev="http://www.w3.org/2001/xml-events" xmlns:xlink="http://www.w3.org/1999/xlink"><defs /><path d="M 436.59 398.21 L 265.68 477.86 A 56.83937099473756 56.83937099473756 0 0,1 220.35337146732945 439.4335977447572 L 270.98 257.79" style="fill:hsl(45, 17%, 78%);stroke-width:1.00;stroke:rgb(0, 0, 0)" /><path d="M 363.41 398.21 L 534.32 477.86 A 56.83937099473756 56.83937099473756 0 0,0 579.6466285326705 439.4335977447572 L 529.02 257.79" style="fill:hsl(45, 17%, 78%);stroke-width:1.00;stroke:rgb(0, 0, 0)" /><ellipse cx="400.0" cy="300.0" rx="195.3821674118247" ry="153.18184047429435" style="fill:hsl(45, 17%, 78%);stroke-width:1.00;stroke:rgb(0, 0, 0)" /><ellipse cx="336.6246077526684" cy="261.7045398814264" rx="8.366219753035832" ry="12.080611567248509" style="fill:hsl(0, 0%, 0%);stroke-width:1.00;stroke:rgb(0, 0, 0)" /><ellipse cx="463.3753922473316" cy="261.7045398814264" rx="8.366219753035832" ry="12.080611567248509" style="fill:hsl(0, 0%, 0%);stroke-width:1.00;stroke:rgb(0, 0, 0)" /><polygon points="381.2321322557261,293.744044085242 418.7678677442739,293.744044085242 400.0,318.7678677442739" style="fill:hsl(0, 0%, 0%);stroke-width:1.00;stroke:rgb(0, 0, 0)" /><line style="fill:hsl(0, 0%, 0%);stroke-width:2.00;stroke:rgb(0, 0, 0)" x1="400.0" x2="400.0" y1="318.7678677442739" y2="346.9196693606846" /><path d="M 362 350 A 37.5357354885477 37.5357354885477 30 0,0 400.0 346.9196693606846 A 37.5357354885477 37.5357354885477 150 0,0 437.5357354885477 350.9196693606846" style="fill:none;stroke-width:2.00;stroke:rgb(0, 0, 0)" /><line style="fill:hsl(0, 0%, 0%);stroke-width:1.00;stroke:rgb(0, 0, 0)" x1="366.0" x2="337.65690494478184" y1="328.7678677442739" y2="336.36237717531816" /><line style="fill:hsl(0, 0%, 0%);stroke-width:1.00;stroke:rgb(0, 0, 0)" x1="360.0" x2="330.768727522284" y1="322.7678677442739" y2="325.3252727065114" /><line style="fill:hsl(0, 0%, 0%);stroke-width:1.00;stroke:rgb(0, 0, 0)" x1="366.0" x2="336.768727522284" y1="316.7678677442739" y2="314.21046278203636" /><line style="fill:hsl(0, 0%, 0%);stroke-width:1.00;stroke:rgb(0, 0, 0)" x1="434.0" x2="462.34309505521816" y1="328.7678677442739" y2="336.3623771753181" /><line style="fill:hsl(0, 0%, 0%);stroke-width:1.00;stroke:rgb(0, 0, 0)" x1="440.0" x2="469.231272477716" y1="322.7678677442739" y2="325.3252727065114" /><line style="fill:hsl(0, 0%, 0%);stroke-width:1.00;stroke:rgb(0, 0, 0)" x1="434.0" x2="463.231272477716" y1="316.7678677442739" y2="314.21046278203636" /></svg>