<?xml version="1.0" encoding="utf-8" ?>
<svg baseProfile="full" height="100%" version="1.1" width="100%" xmlns="http://www.w3.org/2000/svg" xmlns:ev="http://www.w3.org/2001/xml-events" xmlns:xlink="http://www.w3.org/1999/xlink"><defs /><path d="M 312.17 355.02 L 202.57 258.42 A 48.88127245742327 48.88127245742327 0 0,1 217.4853030234018 211.5604905036335 L 362.76 196.10" style="fill:hsl(45, 39%, 58%);stroke-width:1.00;stroke:rgb(0, 0, 0)" /><path d="M 487.83 355.02 L 597.43 258.42 A 48.88127245742327 48.88127245742327 0 0,0 582.5146969765982 211.5604905036335 L 437.24 196.10" style="fill:hsl(45, 39%, 58%);stroke-width:1.00;stroke:rgb(0, 0, 0)" /><ellipse cx="400.0" cy="300.0" rx="160.34810040755644" ry="186.6501687511702" style="fill:hsl(45, 39%, 58%);stroke-width:1.00;stroke:rgb(0, 0, 0)" /><ellipse cx="331.6692804798316" cy="253.33745781220745" rx="8.507291970701399" ry="12.148174333755733" style="fill:hsl(0, 0%, 0%);stroke-width:1.00;stroke:rgb(0, 0, 0)" /><ellipse cx="468.3307195201684" cy="253.33745781220745" rx="8.507291970701399" ry="12.148174333755733" style="fill:hsl(0, 0%, 0%);stroke-width:1.00;stroke:rgb(0, 0, 0)" /><polygon points="381.51737251184574,293.83912417061526 418.48262748815426,293.83912417061526 400.0,318.48262748815426" style="fill:hsl(0, 0%, 0%);stroke-width:1.00;stroke:rgb(0, 0, 0)" /><line style="fill:hsl(0, 0%, 0%);stroke-width:2.00;stroke:rgb(0, 0, 0)" x1="400.0" x2="400.0" y1="318.48262748815426" y2="346.2065687203856" /><path d="M 363 350 A 36.96525497630848 36.96525497630848 30 0,0 400.0 346.2065687203856 A 36.96525497630848 36.96525497630848 150 0,0 436.9652549763085 350.2065687203856" style="fill:none;stroke-width:2.00;stroke:rgb(0, 0, 0)" /><line style="fill:hsl(0, 0%, 0%);stroke-width:1.00;stroke:rgb(0, 0, 0)" x1="366.0" x2="343.7168309136151" y1="328.48262748815426" y2="334.45338464965727" /><line style="fill:hsl(0, 0%, 0%);stroke-width:1.00;stroke:rgb(0, 0, 0)" x1="360.0" x2="337.0185512216595" y1="322.48262748815426" y2="324.49324372766074" /><line style="fill:hsl(0, 0%, 0%);stroke-width:1.00;stroke:rgb(0, 0, 0)" x1="366.0" x2="343.0185512216595" y1="316.48262748815426" y2="314.4720112486478" /><line style="fill:hsl(0, 0%, 0%);stroke-width:1.00;stroke:rgb(0, 0, 0)" x1="434.0" x2="456.2831690863849" y1="328.48262748815426" y2="334.45338464965727" /><line style="fill:hsl(0, 0%, 0%);stroke-width:1.00;stroke:rgb(0, 0, 0)" x1="440.0" x2="462.9814487783405" y1="322.48262748815426" y2="324.49324372766074" /><line style="fill:hsl(0, 0%, 0%);stroke-width:1.00;stroke:rgb(0, 0, 0)" x1="434.0" x2="456.9814487783405" y1="316.48262748815426" y2="314.4720112486478" /></svg>