<?xml version="1.0" encoding="utf-8" ?>
<svg baseProfile="full" height="100%" version="1.1" width="100%" xmlns="http://www.w3.org/2000/svg" xmlns:ev="http://www.w3.org/2001/xml-events" xmlns:xlink="http://www.w3.org/1999/xlink"><defs /><path d="M 320.57 391.19 L 120.72 317.52 A 10.89770486990713 10.89770486990713 0 0,1 118.61838032815876 304.3472721393149 L 285.60 172.12" style="fill:hsl(45, 15%, 50%);stroke-width:1.00;stroke:rgb(0, 0, 0)" /><path d="M 479.43 391.19 L 679.28 317.52 A 10.89770486990713 10.89770486990713 0 0,0 681.3816196718412 304.3472721393149 L 514.40 172.12" style="fill:hsl(45, 15%, 50%);stroke-width:1.00;stroke:rgb(0, 0, 0)" /><ellipse cx="400.0" cy="300.0" rx="189.41279379305587" ry="158.0093899712979" style="fill:hsl(45, 15%, 50%);stroke-width:1.00;stroke:rgb(0, 0, 0)" /><ellipse cx="341.9139761681795" cy="260.49765250717553" rx="10.441242101143315" ry="12.877527833548271" style="fill:hsl(0, 0%, 0%);stroke-width:1.00;stroke:rgb(0, 0, 0)" /><ellipse cx="458.0860238318205" cy="260.49765250717553" rx="10.441242101143315" ry="12.877527833548271" style="fill:hsl(0, 0%, 0%);stroke-width:1.00;stroke:rgb(0, 0, 0)" /><polygon points="384.65272077271123,294.8842402575704 415.34727922728877,294.8842402575704 400.0,315.34727922728877" style="fill:hsl(0, 0%, 0%);stroke-width:1.00;stroke:rgb(0, 0, 0)" /><line style="fill:hsl(0, 0%, 0%);stroke-width:2.00;stroke:rgb(0, 0, 0)" x1="400.0" x2="400.0" y1="315.34727922728877" y2="338.368198068222" /><path d="M 369 342 A 30.69455845457758 30.69455845457758 30 0,0 400.0 338.368198068222 A 30.69455845457758 30.69455845457758 150 0,0 430.6945584545776 342.368198068222" style="fill:none;stroke-width:2.00;stroke:rgb(0, 0, 0)" /><line style="fill:hsl(0, 0%, 0%);stroke-width:1.00;stroke:rgb(0, 0, 0)" x1="366.0" x2="332.7942869227239" y1="325.34727922728877" y2="334.24472323044444" /><line style="fill:hsl(0, 0%, 0%);stroke-width:1.00;stroke:rgb(0, 0, 0)" x1="360.0" x2="325.7537313801581" y1="319.34727922728877" y2="322.3434394995885" /><line style="fill:hsl(0, 0%, 0%);stroke-width:1.00;stroke:rgb(0, 0, 0)" x1="366.0" x2="331.7537313801581" y1="313.34727922728877" y2="310.35111895498903" /><line style="fill:hsl(0, 0%, 0%);stroke-width:1.00;stroke:rgb(0, 0, 0)" x1="434.0" x2="467.2057130772761" y1="325.34727922728877" y2="334.24472323044444" /><line style="fill:hsl(0, 0%, 0%);stroke-width:1.00;stroke:rgb(0, 0, 0)" x1="440.0" x2="474.2462686198419" y1="319.34727922728877" y2="322.3434394995885" /><line style="fill:hsl(0, 0%, 0%);stroke-width:1.00;stroke:rgb(0, 0, 0)" x1="434.0" x2="468.2462686198419" y1="313.34727922728877" y2="310.35111895498903" /></svg>