<?xml version="1.0" encoding="utf-8" ?>
<svg baseProfile="full" height="100%" version="1.1" width="100%" xmlns="http://www.w3.org/2000/svg" xmlns:ev="http://www.w3.org/2001/xml-events" xmlns:xlink="http://www.w3.org/1999/xlink"><defs /><path d="M 316.61 355.95 L 129.53 237.89 A 25.34160478218145 25.34160478218145 0 0,1 134.10943025668814 216.57481659060892 L 353.17 185.75" style="fill:hsl(45, 49%, 61%);stroke-width:1.00;stroke:rgb(0, 0, 0)" /><path d="M 483.39 355.95 L 670.47 237.89 A 25.34160478218145 25.34160478218145 0 0,0 665.8905697433119 216.57481659060892 L 446.83 185.75" style="fill:hsl(45, 49%, 61%);stroke-width:1.00;stroke:rgb(0, 0, 0)" /><ellipse cx="400.0" cy="300.0" rx="196.886682473061" ry="152.0112971790006" style="fill:hsl(45, 49%, 61%);stroke-width:1.00;stroke:rgb(0, 0, 0)" /><ellipse cx="321.5456735676478" cy="261.99717570524984" rx="8.796304953735875" ry="12.648655847894606" style="fill:hsl(0, 0%, 0%);stroke-width:1.00;stroke:rgb(0, 0, 0)" /><ellipse cx="478.4543264323522" cy="261.99717570524984" rx="8.796304953735875" ry="12.648655847894606" style="fill:hsl(0, 0%, 0%);stroke-width:1.00;stroke:rgb(0, 0, 0)" /><polygon points="382.40407919559107,294.13469306519704 417.59592080440893,294.13469306519704 400.0,317.59592080440893" style="fill:hsl(0, 0%, 0%);stroke-width:1.00;stroke:rgb(0, 0, 0)" /><line style="fill:hsl(0, 0%, 0%);stroke-width:2.00;stroke:rgb(0, 0, 0)" x1="400.0" x2="400.0" y1="317.59592080440893" y2="343.98980201102233" /><path d="M 364 347 A 35.19184160881789 35.19184160881789 30 0,0 400.0 343.98980201102233 A 35.19184160881789 35.19184160881789 150 0,0 435.19184160881787 347.98980201102233" style="fill:none;stroke-width:2.00;stroke:rgb(0, 0, 0)" /><line style="fill:hsl(0, 0%, 0%);stroke-width:1.00;stroke:rgb(0, 0, 0)" x1="366.0" x2="315.50054718789966" y1="327.59592080440893" y2="341.1272084036248" /><line style="fill:hsl(0, 0%, 0%);stroke-width:1.00;stroke:rgb(0, 0, 0)" x1="360.0" x2="307.9180639146785" y1="321.59592080440893" y2="326.1524997863563" /><line style="fill:hsl(0, 0%, 0%);stroke-width:1.00;stroke:rgb(0, 0, 0)" x1="366.0" x2="313.9180639146785" y1="315.59592080440893" y2="311.03934182246155" /><line style="fill:hsl(0, 0%, 0%);stroke-width:1.00;stroke:rgb(0, 0, 0)" x1="434.0" x2="484.49945281210034" y1="327.59592080440893" y2="341.1272084036248" /><line style="fill:hsl(0, 0%, 0%);stroke-width:1.00;stroke:rgb(0, 0, 0)" x1="440.0" x2="492.0819360853215" y1="321.59592080440893" y2="326.1524997863563" /><line style="fill:hsl(0, 0%, 0%);stroke-width:1.00;stroke:rgb(0, 0, 0)" x1="434.0" x2="486.0819360853215" y1="315.59592080440893" y2="311.03934182246155" /></svg>