<?xml version="1.0" encoding="utf-8" ?>
<svg baseProfile="full" height="100%" version="1.1" width="100%" xmlns="http://www.w3.org/2000/svg" xmlns:ev="http://www.w3.org/2001/xml-events" xmlns:xlink="http://www.w3.org/1999/xlink"><defs /><path d="M 312.55 376.10 L 104.46 245.84 A 6.08072445775781 6.08072445775781 0 0,1 105.4814652955713 240.34596265516632 L 346.42 193.24" style="fill:hsl(45, 15%, 70%);stroke-width:1.00;stroke:rgb(0, 0, 0)" /><path d="M 487.45 376.10 L 695.54 245.84 A 6.08072445775781 6.08072445775781 0 0,0 694.5185347044287 240.34596265516632 L 453.58 193.24" style="fill:hsl(45, 15%, 70%);stroke-width:1.00;stroke:rgb(0, 0, 0)" /><ellipse cx="400.0" cy="300.0" rx="194.54251318058672" ry="153.84298018304102" style="fill:hsl(45, 15%, 70%);stroke-width:1.00;stroke:rgb(0, 0, 0)" /><ellipse cx="339.4392019265622" cy="261.53925495423977" rx="9.029682925606645" ry="14.598246521811397" style="fill:hsl(0, 0%, 0%);stroke-width:1.00;stroke:rgb(0, 0, 0)" /><ellipse cx="460.5607980734378" cy="261.53925495423977" rx="9.029682925606645" ry="14.598246521811397" style="fill:hsl(0, 0%, 0%);stroke-width:1.00;stroke:rgb(0, 0, 0)" /><polygon points="386.31652423065105,295.43884141021704 413.68347576934895,295.43884141021704 400.0,313.68347576934895" style="fill:hsl(0, 0%, 0%);stroke-width:1.00;stroke:rgb(0, 0, 0)" /><line style="fill:hsl(0, 0%, 0%);stroke-width:2.00;stroke:rgb(0, 0, 0)" x1="400.0" x2="400.0" y1="313.68347576934895" y2="334.20868942337233" /><path d="M 372 338 A 27.366951538697858 27.366951538697858 30 0,0 400.0 334.20868942337233 A 27.366951538697858 27.366951538697858 150 0,0 427.36695153869783 338.20868942337233" style="fill:none;stroke-width:2.00;stroke:rgb(0, 0, 0)" /><line style="fill:hsl(0, 0%, 0%);stroke-width:1.00;stroke:rgb(0, 0, 0)" x1="366.0" x2="330.9515215636515" y1="323.68347576934895" y2="333.07468726230815" /><line style="fill:hsl(0, 0%, 0%);stroke-width:1.00;stroke:rgb(0, 0, 0)" x1="360.0" x2="323.8532199427657" y1="317.68347576934895" y2="320.8459092473219" /><line style="fill:hsl(0, 0%, 0%);stroke-width:1.00;stroke:rgb(0, 0, 0)" x1="366.0" x2="329.8532199427657" y1="311.68347576934895" y2="308.521042291376" /><line style="fill:hsl(0, 0%, 0%);stroke-width:1.00;stroke:rgb(0, 0, 0)" x1="434.0" x2="469.0484784363485" y1="323.68347576934895" y2="333.07468726230815" /><line style="fill:hsl(0, 0%, 0%);stroke-width:1.00;stroke:rgb(0, 0, 0)" x1="440.0" x2="476.1467800572343" y1="317.68347576934895" y2="320.8459092473219" /><line style="fill:hsl(0, 0%, 0%);stroke-width:1.00;stroke:rgb(0, 0, 0)" x1="434.0" x2="470.1467800572343" y1="311.68347576934895" y2="308.521042291376" /></svg>