<?xml version="1.0" encoding="utf-8" ?>
<svg baseProfile="full" height="100%" version="1.1" width="100%" xmlns="http://www.w3.org/2000/svg" xmlns:ev="http://www.w3.org/2001/xml-events" xmlns:xlink="http://www.w3.org/1999/xlink"><defs /><path d="M 361.91 400.16 L 224.76 415.65 A 57.03713126457737 57.03713126457737 0 0,1 199.66869536662432 368.9738988616435 L 288.26 263.13" style="fill:hsl(45, 35%, 56%);stroke-width:1.00;stroke:rgb(0, 0, 0)" /><path d="M 438.09 400.16 L 575.24 415.65 A 57.03713126457737 57.03713126457737 0 0,0 600.3313046333757 368.9738988616435 L 511.74 263.13" style="fill:hsl(45, 35%, 56%);stroke-width:1.00;stroke:rgb(0, 0, 0)" /><ellipse cx="400.0" cy="300.0" rx="186.54856667736829" ry="160.43543262254894" style="fill:hsl(45, 35%, 56%);stroke-width:1.00;stroke:rgb(0, 0, 0)" /><ellipse cx="327.97553913690484" cy="259.8911418443628" rx="9.682171465827304" ry="11.97356565707829" style="fill:hsl(0, 0%, 0%);stroke-width:1.00;stroke:rgb(0, 0, 0)" /><ellipse cx="472.02446086309516" cy="259.8911418443628" rx="9.682171465827304" ry="11.97356565707829" style="fill:hsl(0, 0%, 0%);stroke-width:1.00;stroke:rgb(0, 0, 0)" /><polygon points="381.8009553519194,293.9336517839731 418.1990446480806,293.9336517839731 400.0,318.1990446480806" style="fill:hsl(0, 0%, 0%);stroke-width:1.00;stroke:rgb(0, 0, 0)" /><line style="fill:hsl(0, 0%, 0%);stroke-width:2.00;stroke:rgb(0, 0, 0)" x1="400.0" x2="400.0" y1="318.1990446480806" y2="345.4976116202015" /><path d="M 363 349 A 36.39808929616119 36.39808929616119 30 0,0 400.0 345.4976116202015 A 36.39808929616119 36.39808929616119 150 0,0 436.3980892961612 349.4976116202015" style="fill:none;stroke-width:2.00;stroke:rgb(0, 0, 0)" /><line style="fill:hsl(0, 0%, 0%);stroke-width:1.00;stroke:rgb(0, 0, 0)" x1="366.0" x2="350.835162722009" y1="328.1990446480806" y2="332.2624505500677" /><line style="fill:hsl(0, 0%, 0%);stroke-width:1.00;stroke:rgb(0, 0, 0)" x1="360.0" x2="344.35994764546484" y1="322.1990446480806" y2="323.56737192605436" /><line style="fill:hsl(0, 0%, 0%);stroke-width:1.00;stroke:rgb(0, 0, 0)" x1="366.0" x2="350.35994764546484" y1="316.1990446480806" y2="314.8307173701068" /><line style="fill:hsl(0, 0%, 0%);stroke-width:1.00;stroke:rgb(0, 0, 0)" x1="434.0" x2="449.164837277991" y1="328.1990446480806" y2="332.2624505500677" /><line style="fill:hsl(0, 0%, 0%);stroke-width:1.00;stroke:rgb(0, 0, 0)" x1="440.0" x2="455.64005235453516" y1="322.1990446480806" y2="323.56737192605436" /><line style="fill:hsl(0, 0%, 0%);stroke-width:1.00;stroke:rgb(0, 0, 0)" x1="434.0" x2="449.64005235453516" y1="316.1990446480806" y2="314.8307173701068" /></svg>