<?xml version="1.0" encoding="utf-8" ?>
<svg baseProfile="full" height="100%" version="1.1" width="100%" xmlns="http://www.w3.org/2000/svg" xmlns:ev="http://www.w3.org/2001/xml-events" xmlns:xlink="http://www.w3.org/1999/xlink"><defs /><path d="M 320.07 334.80 L 226.94 268.15 A 63.84095657028772 63.84095657028772 0 0,1 239.58368004708996 202.84939007035013 L 350.86 175.78" style="fill:hsl(45, 36%, 35%);stroke-width:1.00;stroke:rgb(0, 0, 0)" /><path d="M 479.93 334.80 L 573.06 268.15 A 63.84095657028772 63.84095657028772 0 0,0 560.41631995291 202.84939007035013 L 449.14 175.78" style="fill:hsl(45, 36%, 35%);stroke-width:1.00;stroke:rgb(0, 0, 0)" /><ellipse cx="400.0" cy="300.0" rx="160.0411520268755" ry="187.0081514720293" style="fill:hsl(45, 36%, 35%);stroke-width:1.00;stroke:rgb(0, 0, 0)" /><ellipse cx="322.85289874237367" cy="253.24796213199267" rx="12.077949996262149" ry="12.860465068096909" style="fill:hsl(0, 0%, 0%);stroke-width:1.00;stroke:rgb(0, 0, 0)" /><ellipse cx="477.14710125762633" cy="253.24796213199267" rx="12.077949996262149" ry="12.860465068096909" style="fill:hsl(0, 0%, 0%);stroke-width:1.00;stroke:rgb(0, 0, 0)" /><polygon points="387.56293596990275,295.8543119899676 412.43706403009725,295.8543119899676 400.0,312.43706403009725" style="fill:hsl(0, 0%, 0%);stroke-width:1.00;stroke:rgb(0, 0, 0)" /><line style="fill:hsl(0, 0%, 0%);stroke-width:2.00;stroke:rgb(0, 0, 0)" x1="400.0" x2="400.0" y1="312.43706403009725" y2="331.0926600752431" /><path d="M 375 335 A 24.874128060194483 24.874128060194483 30 0,0 400.0 331.0926600752431 A 24.874128060194483 24.874128060194483 150 0,0 424.8741280601945 335.0926600752431" style="fill:none;stroke-width:2.00;stroke:rgb(0, 0, 0)" /><line style="fill:hsl(0, 0%, 0%);stroke-width:1.00;stroke:rgb(0, 0, 0)" x1="366.0" x2="323.8485027162491" y1="322.43706403009725" y2="333.731523687041" /><line style="fill:hsl(0, 0%, 0%);stroke-width:1.00;stroke:rgb(0, 0, 0)" x1="360.0" x2="316.5276163367281" y1="316.43706403009725" y2="320.2404047770831" /><line style="fill:hsl(0, 0%, 0%);stroke-width:1.00;stroke:rgb(0, 0, 0)" x1="366.0" x2="322.5276163367281" y1="310.43706403009725" y2="306.63372328311135" /><line style="fill:hsl(0, 0%, 0%);stroke-width:1.00;stroke:rgb(0, 0, 0)" x1="434.0" x2="476.1514972837509" y1="322.43706403009725" y2="333.731523687041" /><line style="fill:hsl(0, 0%, 0%);stroke-width:1.00;stroke:rgb(0, 0, 0)" x1="440.0" x2="483.4723836632719" y1="316.43706403009725" y2="320.24040477708314" /><line style="fill:hsl(0, 0%, 0%);stroke-width:1.00;stroke:rgb(0, 0, 0)" x1="434.0" x2="477.4723836632719" y1="310.43706403009725" y2="306.63372328311135" /></svg>