<?xml version="1.0" encoding="utf-8" ?>
<svg baseProfile="full" height="100%" version="1.1" width="100%" xmlns="http://www.w3.org/2000/svg" xmlns:ev="http://www.w3.org/2001/xml-events" xmlns:xlink="http://www.w3.org/1999/xlink"><defs /><path d="M 283.10 331.36 L 214.52 100.35 A 18.007021376853743 18.007021376853743 0 0,1 229.6887484338265 85.18026743453566 L 460.69 153.76" style="fill:hsl(45, 0%, 47%);stroke-width:1.00;stroke:rgb(0, 0, 0)" /><path d="M 516.90 331.36 L 585.48 100.35 A 18.007021376853743 18.007021376853743 0 0,0 570.3112515661735 85.18026743453566 L 339.31 153.76" style="fill:hsl(45, 0%, 47%);stroke-width:1.00;stroke:rgb(0, 0, 0)" /><ellipse cx="400.0" cy="300.0" rx="172.3544273896592" ry="173.64799067410354" style="fill:hsl(45, 0%, 47%);stroke-width:1.00;stroke:rgb(0, 0, 0)" /><ellipse cx="346.9577389080891" cy="256.5880023314741" rx="13.838872829320911" ry="14.896679381554563" style="fill:hsl(0, 0%, 0%);stroke-width:1.00;stroke:rgb(0, 0, 0)" /><ellipse cx="453.0422610919109" cy="256.5880023314741" rx="13.838872829320911" ry="14.896679381554563" style="fill:hsl(0, 0%, 0%);stroke-width:1.00;stroke:rgb(0, 0, 0)" /><polygon points="382.56457934020625,294.18819311340206 417.43542065979375,294.18819311340206 400.0,317.43542065979375" style="fill:hsl(0, 0%, 0%);stroke-width:1.00;stroke:rgb(0, 0, 0)" /><line style="fill:hsl(0, 0%, 0%);stroke-width:2.00;stroke:rgb(0, 0, 0)" x1="400.0" x2="400.0" y1="317.43542065979375" y2="343.5885516494844" /><path d="M 365 347 A 34.870841319587484 34.870841319587484 30 0,0 400.0 343.5885516494844 A 34.870841319587484 34.870841319587484 150 0,0 434.8708413195875 347.5885516494844" style="fill:none;stroke-width:2.00;stroke:rgb(0, 0, 0)" /><line style="fill:hsl(0, 0%, 0%);stroke-width:1.00;stroke:rgb(0, 0, 0)" x1="366.0" x2="348.92330674831607" y1="327.43542065979375" y2="332.01110682597647" /><line style="fill:hsl(0, 0%, 0%);stroke-width:1.00;stroke:rgb(0, 0, 0)" x1="360.0" x2="342.38818052559697" y1="321.43542065979375" y2="322.9762552078691" /><line style="fill:hsl(0, 0%, 0%);stroke-width:1.00;stroke:rgb(0, 0, 0)" x1="366.0" x2="348.38818052559697" y1="315.43542065979375" y2="313.8945861117184" /><line style="fill:hsl(0, 0%, 0%);stroke-width:1.00;stroke:rgb(0, 0, 0)" x1="434.0" x2="451.07669325168393" y1="327.43542065979375" y2="332.01110682597647" /><line style="fill:hsl(0, 0%, 0%);stroke-width:1.00;stroke:rgb(0, 0, 0)" x1="440.0" x2="457.61181947440303" y1="321.43542065979375" y2="322.9762552078691" /><line style="fill:hsl(0, 0%, 0%);stroke-width:1.00;stroke:rgb(0, 0, 0)" x1="434.0" x2="451.61181947440303" y1="315.43542065979375" y2="313.8945861117184" /></svg>