<?xml version="1.0" encoding="utf-8" ?>
<svg baseProfile="full" height="100%" version="1.1" width="100%" xmlns="http://www.w3.org/2000/svg" xmlns:ev="http://www.w3.org/2001/xml-events" xmlns:xlink="http://www.w3.org/1999/xlink"><defs /><path d="M 340.87 353.17 L 186.58 307.85 A 19.582767400057264 19.582767400057264 0 0,1 185.0942738662925 290.2259526165721 L 329.64 219.76" style="fill:hsl(45, 21%, 66%);stroke-width:1.00;stroke:rgb(0, 0, 0)" /><path d="M 459.13 353.17 L 613.42 307.85 A 19.582767400057264 19.582767400057264 0 0,0 614.9057261337075 290.2259526165721 L 470.36 219.76" style="fill:hsl(45, 21%, 66%);stroke-width:1.00;stroke:rgb(0, 0, 0)" /><ellipse cx="400.0" cy="300.0" rx="152.68777763163155" ry="196.0143795674695" style="fill:hsl(45, 21%, 66%);stroke-width:1.00;stroke:rgb(0, 0, 0)" /><ellipse cx="344.28697993738626" cy="250.99640510813262" rx="7.514475991873946" ry="14.339364229392253" style="fill:hsl(0, 0%, 0%);stroke-width:1.00;stroke:rgb(0, 0, 0)" /><ellipse cx="455.71302006261374" cy="250.99640510813262" rx="7.514475991873946" ry="14.339364229392253" style="fill:hsl(0, 0%, 0%);stroke-width:1.00;stroke:rgb(0, 0, 0)" /><polygon points="385.12066259498863,295.04022086499623 414.87933740501137,295.04022086499623 400.0,314.87933740501137" style="fill:hsl(0, 0%, 0%);stroke-width:1.00;stroke:rgb(0, 0, 0)" /><line style="fill:hsl(0, 0%, 0%);stroke-width:2.00;stroke:rgb(0, 0, 0)" x1="400.0" x2="400.0" y1="314.87933740501137" y2="337.1983435125284" /><path d="M 370 341 A 29.758674810022733 29.758674810022733 30 0,0 400.0 337.1983435125284 A 29.758674810022733 29.758674810022733 150 0,0 429.75867481002274 341.1983435125284" style="fill:none;stroke-width:2.00;stroke:rgb(0, 0, 0)" /><line style="fill:hsl(0, 0%, 0%);stroke-width:1.00;stroke:rgb(0, 0, 0)" x1="366.0" x2="340.601076621881" y1="324.87933740501137" y2="331.6849584127983" /><line style="fill:hsl(0, 0%, 0%);stroke-width:1.00;stroke:rgb(0, 0, 0)" x1="360.0" x2="333.8051596531714" y1="318.87933740501137" y2="321.17108897823033" /><line style="fill:hsl(0, 0%, 0%);stroke-width:1.00;stroke:rgb(0, 0, 0)" x1="366.0" x2="339.8051596531714" y1="312.87933740501137" y2="310.5875858317924" /><line style="fill:hsl(0, 0%, 0%);stroke-width:1.00;stroke:rgb(0, 0, 0)" x1="434.0" x2="459.398923378119" y1="324.87933740501137" y2="331.6849584127983" /><line style="fill:hsl(0, 0%, 0%);stroke-width:1.00;stroke:rgb(0, 0, 0)" x1="440.0" x2="466.1948403468286" y1="318.87933740501137" y2="321.1710889782304" /><line style="fill:hsl(0, 0%, 0%);stroke-width:1.00;stroke:rgb(0, 0, 0)" x1="434.0" x2="460.1948403468286" y1="312.87933740501137" y2="310.5875858317924" /></svg>