<?xml version="1.0" encoding="utf-8" ?>
<svg baseProfile="full" height="100%" version="1.1" width="100%" xmlns="http://www.w3.org/2000/svg" xmlns:ev="http://www.w3.org/2001/xml-events" xmlns:xlink="http://www.w3.org/1999/xlink"><defs /><path d="M 331.92 360.11 L 209.86 328.32 A 59.098773387892486 59.098773387892486 0 0,1 202.08286803679107 272.3076048012467 L 310.86 208.46" style="fill:hsl(45, 50%, 75%);stroke-width:1.00;stroke:rgb(0, 0, 0)" /><path d="M 468.08 360.11 L 590.14 328.32 A 59.098773387892486 59.098773387892486 0 0,0 597.9171319632089 272.3076048012467 L 489.14 208.46" style="fill:hsl(45, 50%, 75%);stroke-width:1.00;stroke:rgb(0, 0, 0)" /><ellipse cx="400.0" cy="300.0" rx="170.8912727172945" ry="175.13474810098438" style="fill:hsl(45, 50%, 75%);stroke-width:1.00;stroke:rgb(0, 0, 0)" /><ellipse cx="324.7608419513543" cy="256.2163129747539" rx="5.7623295211793994" ry="11.140517180041329" style="fill:hsl(0, 0%, 0%);stroke-width:1.00;stroke:rgb(0, 0, 0)" /><ellipse cx="475.2391580486457" cy="256.2163129747539" rx="5.7623295211793994" ry="11.140517180041329" style="fill:hsl(0, 0%, 0%);stroke-width:1.00;stroke:rgb(0, 0, 0)" /><polygon points="384.935452502798,294.97848416759933 415.064547497202,294.97848416759933 400.0,315.064547497202" style="fill:hsl(0, 0%, 0%);stroke-width:1.00;stroke:rgb(0, 0, 0)" /><line style="fill:hsl(0, 0%, 0%);stroke-width:2.00;stroke:rgb(0, 0, 0)" x1="400.0" x2="400.0" y1="315.064547497202" y2="337.6613687430051" /><path d="M 369 341 A 30.129094994404053 30.129094994404053 30 0,0 400.0 337.6613687430051 A 30.129094994404053 30.129094994404053 150 0,0 430.12909499440406 341.6613687430051" style="fill:none;stroke-width:2.00;stroke:rgb(0, 0, 0)" /><line style="fill:hsl(0, 0%, 0%);stroke-width:1.00;stroke:rgb(0, 0, 0)" x1="366.0" x2="338.4871419135083" y1="325.064547497202" y2="332.4365956029495" /><line style="fill:hsl(0, 0%, 0%);stroke-width:1.00;stroke:rgb(0, 0, 0)" x1="360.0" x2="331.6249813296624" y1="319.064547497202" y2="321.54703995819295" /><line style="fill:hsl(0, 0%, 0%);stroke-width:1.00;stroke:rgb(0, 0, 0)" x1="366.0" x2="337.6249813296624" y1="313.064547497202" y2="310.58205503621105" /><line style="fill:hsl(0, 0%, 0%);stroke-width:1.00;stroke:rgb(0, 0, 0)" x1="434.0" x2="461.5128580864917" y1="325.064547497202" y2="332.4365956029495" /><line style="fill:hsl(0, 0%, 0%);stroke-width:1.00;stroke:rgb(0, 0, 0)" x1="440.0" x2="468.3750186703376" y1="319.064547497202" y2="321.547039958193" /><line style="fill:hsl(0, 0%, 0%);stroke-width:1.00;stroke:rgb(0, 0, 0)" x1="434.0" x2="462.3750186703376" y1="313.064547497202" y2="310.58205503621105" /></svg>