<?xml version="1.0" encoding="utf-8" ?>
<svg baseProfile="full" height="100%" version="1.1" width="100%" xmlns="http://www.w3.org/2000/svg" xmlns:ev="http://www.w3.org/2001/xml-events" xmlns:xlink="http://www.w3.org/1999/xlink"><defs /><path d="M 307.69 382.02 L 155.55 338.98 A 35.568183734695744 35.568183734695744 0 0,1 150.3307042687435 303.0950583831343 L 283.92 218.51" style="fill:hsl(45, 36%, 56%);stroke-width:1.00;stroke:rgb(0, 0, 0)" /><path d="M 492.31 382.02 L 644.45 338.98 A 35.568183734695744 35.568183734695744 0 0,0 649.6692957312565 303.0950583831343 L 516.08 218.51" style="fill:hsl(45, 36%, 56%);stroke-width:1.00;stroke:rgb(0, 0, 0)" /><ellipse cx="400.0" cy="300.0" rx="196.9878776265895" ry="151.93320706126627" style="fill:hsl(45, 36%, 56%);stroke-width:1.00;stroke:rgb(0, 0, 0)" /><ellipse cx="331.59350379226777" cy="262.0166982346834" rx="8.216810274227408" ry="13.715785540642909" style="fill:hsl(0, 0%, 0%);stroke-width:1.00;stroke:rgb(0, 0, 0)" /><ellipse cx="468.40649620773223" cy="262.0166982346834" rx="8.216810274227408" ry="13.715785540642909" style="fill:hsl(0, 0%, 0%);stroke-width:1.00;stroke:rgb(0, 0, 0)" /><polygon points="386.0249818142346,295.34166060474485 413.9750181857654,295.34166060474485 400.0,313.9750181857654" style="fill:hsl(0, 0%, 0%);stroke-width:1.00;stroke:rgb(0, 0, 0)" /><line style="fill:hsl(0, 0%, 0%);stroke-width:2.00;stroke:rgb(0, 0, 0)" x1="400.0" x2="400.0" y1="313.9750181857654" y2="334.9375454644135" /><path d="M 372 338 A 27.95003637153083 27.95003637153083 30 0,0 400.0 334.9375454644135 A 27.95003637153083 27.95003637153083 150 0,0 427.9500363715308 338.9375454644135" style="fill:none;stroke-width:2.00;stroke:rgb(0, 0, 0)" /><line style="fill:hsl(0, 0%, 0%);stroke-width:1.00;stroke:rgb(0, 0, 0)" x1="366.0" x2="313.21881139805987" y1="323.9750181857654" y2="338.11769504721" /><line style="fill:hsl(0, 0%, 0%);stroke-width:1.00;stroke:rgb(0, 0, 0)" x1="360.0" x2="305.5648261872876" y1="317.9750181857654" y2="322.737478791441" /><line style="fill:hsl(0, 0%, 0%);stroke-width:1.00;stroke:rgb(0, 0, 0)" x1="366.0" x2="311.5648261872876" y1="311.9750181857654" y2="307.2125575800898" /><line style="fill:hsl(0, 0%, 0%);stroke-width:1.00;stroke:rgb(0, 0, 0)" x1="434.0" x2="486.78118860194013" y1="323.9750181857654" y2="338.11769504721" /><line style="fill:hsl(0, 0%, 0%);stroke-width:1.00;stroke:rgb(0, 0, 0)" x1="440.0" x2="494.4351738127124" y1="317.9750181857654" y2="322.737478791441" /><line style="fill:hsl(0, 0%, 0%);stroke-width:1.00;stroke:rgb(0, 0, 0)" x1="434.0" x2="488.4351738127124" y1="311.9750181857654" y2="307.2125575800898" /></svg>