<?xml version="1.0" encoding="utf-8" ?>
<svg baseProfile="full" height="100%" version="1.1" width="100%" xmlns="http://www.w3.org/2000/svg" xmlns:ev="http://www.w3.org/2001/xml-events" xmlns:xlink="http://www.w3.org/1999/xlink"><defs /><path d="M 336.20 394.35 L 194.21 356.99 A 30.086984267256554 30.086984267256554 0 0,1 184.88281092869386 321.2875569688712 L 290.45 219.25" style="fill:hsl(45, 24%, 76%);stroke-width:1.00;stroke:rgb(0, 0, 0)" /><path d="M 463.80 394.35 L 605.79 356.99 A 30.086984267256554 30.086984267256554 0 0,0 615.1171890713061 321.2875569688712 L 509.55 219.25" style="fill:hsl(45, 24%, 76%);stroke-width:1.00;stroke:rgb(0, 0, 0)" /><ellipse cx="400.0" cy="300.0" rx="162.24565373318072" ry="184.46719102392356" style="fill:hsl(45, 24%, 76%);stroke-width:1.00;stroke:rgb(0, 0, 0)" /><ellipse cx="327.33452466851895" cy="253.88320224401912" rx="6.515779432514015" ry="11.910618357529865" style="fill:hsl(0, 0%, 0%);stroke-width:1.00;stroke:rgb(0, 0, 0)" /><ellipse cx="472.66547533148105" cy="253.88320224401912" rx="6.515779432514015" ry="11.910618357529865" style="fill:hsl(0, 0%, 0%);stroke-width:1.00;stroke:rgb(0, 0, 0)" /><polygon points="383.265138607888,294.421712869296 416.734861392112,294.421712869296 400.0,316.734861392112" style="fill:hsl(0, 0%, 0%);stroke-width:1.00;stroke:rgb(0, 0, 0)" /><line style="fill:hsl(0, 0%, 0%);stroke-width:2.00;stroke:rgb(0, 0, 0)" x1="400.0" x2="400.0" y1="316.734861392112" y2="341.83715348028005" /><path d="M 366 345 A 33.469722784224025 33.469722784224025 30 0,0 400.0 341.83715348028005 A 33.469722784224025 33.469722784224025 150 0,0 433.469722784224 345.83715348028005" style="fill:none;stroke-width:2.00;stroke:rgb(0, 0, 0)" /><line style="fill:hsl(0, 0%, 0%);stroke-width:1.00;stroke:rgb(0, 0, 0)" x1="366.0" x2="356.07548071325033" y1="326.734861392112" y2="329.3941283202637" /><line style="fill:hsl(0, 0%, 0%);stroke-width:1.00;stroke:rgb(0, 0, 0)" x1="360.0" x2="349.76447960548626" y1="320.734861392112" y2="321.6303533919204" /><line style="fill:hsl(0, 0%, 0%);stroke-width:1.00;stroke:rgb(0, 0, 0)" x1="366.0" x2="355.76447960548626" y1="314.734861392112" y2="313.83936939230364" /><line style="fill:hsl(0, 0%, 0%);stroke-width:1.00;stroke:rgb(0, 0, 0)" x1="434.0" x2="443.92451928674967" y1="326.734861392112" y2="329.3941283202637" /><line style="fill:hsl(0, 0%, 0%);stroke-width:1.00;stroke:rgb(0, 0, 0)" x1="440.0" x2="450.23552039451374" y1="320.734861392112" y2="321.6303533919204" /><line style="fill:hsl(0, 0%, 0%);stroke-width:1.00;stroke:rgb(0, 0, 0)" x1="434.0" x2="444.23552039451374" y1="314.734861392112" y2="313.83936939230364" /></svg>