<?xml version="1.0" encoding="utf-8" ?>
<svg baseProfile="full" height="100%" version="1.1" width="100%" xmlns="http://www.w3.org/2000/svg" xmlns:ev="http://www.w3.org/2001/xml-events" xmlns:xlink="http://www.w3.org/1999/xlink"><defs /><path d="M 344.60 408.01 L 157.47 380.03 A 18.288715710004084 18.288715710004084 0 0,1 149.29917975014598 358.924490270351 L 268.84 212.25" style="fill:hsl(45, 41%, 37%);stroke-width:1.00;stroke:rgb(0, 0, 0)" /><path d="M 455.40 408.01 L 642.53 380.03 A 18.288715710004084 18.288715710004084 0 0,0 650.700820249854 358.924490270351 L 531.16 212.25" style="fill:hsl(45, 41%, 37%);stroke-width:1.00;stroke:rgb(0, 0, 0)" /><ellipse cx="400.0" cy="300.0" rx="180.96120423858315" ry="165.3890408495567" style="fill:hsl(45, 41%, 37%);stroke-width:1.00;stroke:rgb(0, 0, 0)" /><ellipse cx="336.09120228961865" cy="258.6527397876108" rx="10.641712556837813" ry="13.769007338185093" style="fill:hsl(0, 0%, 0%);stroke-width:1.00;stroke:rgb(0, 0, 0)" /><ellipse cx="463.90879771038135" cy="258.6527397876108" rx="10.641712556837813" ry="13.769007338185093" style="fill:hsl(0, 0%, 0%);stroke-width:1.00;stroke:rgb(0, 0, 0)" /><polygon points="386.46752933365815,295.4891764445527 413.53247066634185,295.4891764445527 400.0,313.53247066634185" style="fill:hsl(0, 0%, 0%);stroke-width:1.00;stroke:rgb(0, 0, 0)" /><line style="fill:hsl(0, 0%, 0%);stroke-width:2.00;stroke:rgb(0, 0, 0)" x1="400.0" x2="400.0" y1="313.53247066634185" y2="333.83117666585457" /><path d="M 372 337 A 27.064941332683674 27.064941332683674 30 0,0 400.0 333.83117666585457 A 27.064941332683674 27.064941332683674 150 0,0 427.0649413326837 337.83117666585457" style="fill:none;stroke-width:2.00;stroke:rgb(0, 0, 0)" /><line style="fill:hsl(0, 0%, 0%);stroke-width:1.00;stroke:rgb(0, 0, 0)" x1="366.0" x2="320.4980012167448" y1="323.53247066634185" y2="335.724694494317" /><line style="fill:hsl(0, 0%, 0%);stroke-width:1.00;stroke:rgb(0, 0, 0)" x1="360.0" x2="313.072121371263" y1="317.53247066634185" y2="321.6381280496768" /><line style="fill:hsl(0, 0%, 0%);stroke-width:1.00;stroke:rgb(0, 0, 0)" x1="366.0" x2="319.072121371263" y1="311.53247066634185" y2="307.4268132830069" /><line style="fill:hsl(0, 0%, 0%);stroke-width:1.00;stroke:rgb(0, 0, 0)" x1="434.0" x2="479.5019987832552" y1="323.53247066634185" y2="335.724694494317" /><line style="fill:hsl(0, 0%, 0%);stroke-width:1.00;stroke:rgb(0, 0, 0)" x1="440.0" x2="486.927878628737" y1="317.53247066634185" y2="321.6381280496768" /><line style="fill:hsl(0, 0%, 0%);stroke-width:1.00;stroke:rgb(0, 0, 0)" x1="434.0" x2="480.927878628737" y1="311.53247066634185" y2="307.4268132830069" /></svg>