<?xml version="1.0" encoding="utf-8" ?>
<svg baseProfile="full" height="100%" version="1.1" width="100%" xmlns="http://www.w3.org/2000/svg" xmlns:ev="http://www.w3.org/2001/xml-events" xmlns:xlink="http://www.w3.org/1999/xlink"><defs /><path d="M 315.69 349.47 L 196.37 189.91 A 48.46053901826104 48.46053901826104 0 0,1 220.21963864263057 148.72875855416 L 418.00 172.86" style="fill:hsl(45, 22%, 30%);stroke-width:1.00;stroke:rgb(0, 0, 0)" /><path d="M 484.31 349.47 L 603.63 189.91 A 48.46053901826104 48.46053901826104 0 0,0 579.7803613573694 148.72875855416 L 382.00 172.86" style="fill:hsl(45, 22%, 30%);stroke-width:1.00;stroke:rgb(0, 0, 0)" /><ellipse cx="400.0" cy="300.0" rx="164.98067310931242" ry="181.4091277235227" style="fill:hsl(45, 22%, 30%);stroke-width:1.00;stroke:rgb(0, 0, 0)" /><ellipse cx="335.9910627031728" cy="254.64771806911932" rx="7.545263149317003" ry="12.805575644656171" style="fill:hsl(0, 0%, 0%);stroke-width:1.00;stroke:rgb(0, 0, 0)" /><ellipse cx="464.0089372968272" cy="254.64771806911932" rx="7.545263149317003" ry="12.805575644656171" style="fill:hsl(0, 0%, 0%);stroke-width:1.00;stroke:rgb(0, 0, 0)" /><polygon points="384.29437329608436,294.7647910986948 415.70562670391564,294.7647910986948 400.0,315.70562670391564" style="fill:hsl(0, 0%, 0%);stroke-width:1.00;stroke:rgb(0, 0, 0)" /><line style="fill:hsl(0, 0%, 0%);stroke-width:2.00;stroke:rgb(0, 0, 0)" x1="400.0" x2="400.0" y1="315.70562670391564" y2="339.26406675978905" /><path d="M 368 343 A 31.411253407831246 31.411253407831246 30 0,0 400.0 339.26406675978905 A 31.411253407831246 31.411253407831246 150 0,0 431.4112534078312 343.26406675978905" style="fill:none;stroke-width:2.00;stroke:rgb(0, 0, 0)" /><line style="fill:hsl(0, 0%, 0%);stroke-width:1.00;stroke:rgb(0, 0, 0)" x1="366.0" x2="339.5107138575763" y1="325.70562670391564" y2="332.803409533855" /><line style="fill:hsl(0, 0%, 0%);stroke-width:1.00;stroke:rgb(0, 0, 0)" x1="360.0" x2="332.68062858128775" y1="319.70562670391564" y2="322.0957619977071" /><line style="fill:hsl(0, 0%, 0%);stroke-width:1.00;stroke:rgb(0, 0, 0)" x1="366.0" x2="338.68062858128775" y1="313.70562670391564" y2="311.3154914101242" /><line style="fill:hsl(0, 0%, 0%);stroke-width:1.00;stroke:rgb(0, 0, 0)" x1="434.0" x2="460.4892861424237" y1="325.70562670391564" y2="332.80340953385496" /><line style="fill:hsl(0, 0%, 0%);stroke-width:1.00;stroke:rgb(0, 0, 0)" x1="440.0" x2="467.31937141871225" y1="319.70562670391564" y2="322.0957619977071" /><line style="fill:hsl(0, 0%, 0%);stroke-width:1.00;stroke:rgb(0, 0, 0)" x1="434.0" x2="461.31937141871225" y1="313.70562670391564" y2="311.3154914101242" /></svg>