<?xml version="1.0" encoding="utf-8" ?>
<svg baseProfile="full" height="100%" version="1.1" width="100%" xmlns="http://www.w3.org/2000/svg" xmlns:ev="http://www.w3.org/2001/xml-events" xmlns:xlink="http://www.w3.org/1999/xlink"><defs /><path d="M 314.12 300.93 L 190.47 168.24 A 15.31784873738908 15.31784873738908 0 0,1 196.52082111066818 155.484720354067 L 377.51 167.34" style="fill:hsl(45, 57%, 64%);stroke-width:1.00;stroke:rgb(0, 0, 0)" /><path d="M 485.88 300.93 L 609.53 168.24 A 15.31784873738908 15.31784873738908 0 0,0 603.4791788893318 155.484720354067 L 422.49 167.34" style="fill:hsl(45, 57%, 64%);stroke-width:1.00;stroke:rgb(0, 0, 0)" /><ellipse cx="400.0" cy="300.0" rx="178.1818199264446" ry="167.96887590639165" style="fill:hsl(45, 57%, 64%);stroke-width:1.00;stroke:rgb(0, 0, 0)" /><ellipse cx="323.72958138600893" cy="258.0077810234021" rx="10.7101922976986" ry="11.663414679226848" style="fill:hsl(0, 0%, 0%);stroke-width:1.00;stroke:rgb(0, 0, 0)" /><ellipse cx="476.27041861399107" cy="258.0077810234021" rx="10.7101922976986" ry="11.663414679226848" style="fill:hsl(0, 0%, 0%);stroke-width:1.00;stroke:rgb(0, 0, 0)" /><polygon points="388.4487825486247,296.1495941828749 411.5512174513753,296.1495941828749 400.0,311.5512174513753" style="fill:hsl(0, 0%, 0%);stroke-width:1.00;stroke:rgb(0, 0, 0)" /><line style="fill:hsl(0, 0%, 0%);stroke-width:2.00;stroke:rgb(0, 0, 0)" x1="400.0" x2="400.0" y1="311.5512174513753" y2="328.87804362843815" /><path d="M 376 332 A 23.10243490275054 23.10243490275054 30 0,0 400.0 328.87804362843815 A 23.10243490275054 23.10243490275054 150 0,0 423.10243490275053 332.87804362843815" style="fill:none;stroke-width:2.00;stroke:rgb(0, 0, 0)" /><line style="fill:hsl(0, 0%, 0%);stroke-width:1.00;stroke:rgb(0, 0, 0)" x1="366.0" x2="358.5474554757731" y1="321.5512174513753" y2="323.54812073819886" /><line style="fill:hsl(0, 0%, 0%);stroke-width:1.00;stroke:rgb(0, 0, 0)" x1="360.0" x2="352.3139177561387" y1="315.5512174513753" y2="316.22366251464103" /><line style="fill:hsl(0, 0%, 0%);stroke-width:1.00;stroke:rgb(0, 0, 0)" x1="366.0" x2="358.3139177561387" y1="309.5512174513753" y2="308.87877238810955" /><line style="fill:hsl(0, 0%, 0%);stroke-width:1.00;stroke:rgb(0, 0, 0)" x1="434.0" x2="441.4525445242269" y1="321.5512174513753" y2="323.54812073819886" /><line style="fill:hsl(0, 0%, 0%);stroke-width:1.00;stroke:rgb(0, 0, 0)" x1="440.0" x2="447.6860822438613" y1="315.5512174513753" y2="316.22366251464103" /><line style="fill:hsl(0, 0%, 0%);stroke-width:1.00;stroke:rgb(0, 0, 0)" x1="434.0" x2="441.6860822438613" y1="309.5512174513753" y2="308.87877238810955" /></svg>