<?xml version="1.0" encoding="utf-8" ?>
<svg baseProfile="full" height="100%" version="1.1" width="100%" xmlns="http://www.w3.org/2000/svg" xmlns:ev="http://www.w3.org/2001/xml-events" xmlns:xlink="http://www.w3.org/1999/xlink"><defs /><path d="M 281.01 303.44 L 221.77 145.10 A 24.281725878571656 24.281725878571656 0 0,1 240.3263740329112 124.9979626960801 L 402.89 171.40" style="fill:hsl(45, 24%, 39%);stroke-width:1.00;stroke:rgb(0, 0, 0)" /><path d="M 518.99 303.44 L 578.23 145.10 A 24.281725878571656 24.281725878571656 0 0,0 559.6736259670888 124.9979626960801 L 397.11 171.40" style="fill:hsl(45, 24%, 39%);stroke-width:1.00;stroke:rgb(0, 0, 0)" /><ellipse cx="400.0" cy="300.0" rx="166.66342727089653" ry="179.57749033537561" style="fill:hsl(45, 24%, 39%);stroke-width:1.00;stroke:rgb(0, 0, 0)" /><ellipse cx="323.9614861866844" cy="255.1056274161561" rx="5.83015995875814" ry="11.121716780599101" style="fill:hsl(0, 0%, 0%);stroke-width:1.00;stroke:rgb(0, 0, 0)" /><ellipse cx="476.0385138133156" cy="255.1056274161561" rx="5.83015995875814" ry="11.121716780599101" style="fill:hsl(0, 0%, 0%);stroke-width:1.00;stroke:rgb(0, 0, 0)" /><polygon points="384.50284806961815,294.83428268987274 415.49715193038185,294.83428268987274 400.0,315.49715193038185" style="fill:hsl(0, 0%, 0%);stroke-width:1.00;stroke:rgb(0, 0, 0)" /><line style="fill:hsl(0, 0%, 0%);stroke-width:2.00;stroke:rgb(0, 0, 0)" x1="400.0" x2="400.0" y1="315.49715193038185" y2="338.7428798259547" /><path d="M 369 342 A 30.994303860763726 30.994303860763726 30 0,0 400.0 338.7428798259547 A 30.994303860763726 30.994303860763726 150 0,0 430.99430386076375 342.7428798259547" style="fill:none;stroke-width:2.00;stroke:rgb(0, 0, 0)" /><line style="fill:hsl(0, 0%, 0%);stroke-width:1.00;stroke:rgb(0, 0, 0)" x1="366.0" x2="314.328407967076" y1="325.49715193038185" y2="339.3425132872343" /><line style="fill:hsl(0, 0%, 0%);stroke-width:1.00;stroke:rgb(0, 0, 0)" x1="360.0" x2="306.70919378673506" y1="319.49715193038185" y2="324.1594933441994" /><line style="fill:hsl(0, 0%, 0%);stroke-width:1.00;stroke:rgb(0, 0, 0)" x1="366.0" x2="312.70919378673506" y1="313.49715193038185" y2="308.8348105165643" /><line style="fill:hsl(0, 0%, 0%);stroke-width:1.00;stroke:rgb(0, 0, 0)" x1="434.0" x2="485.671592032924" y1="325.49715193038185" y2="339.3425132872343" /><line style="fill:hsl(0, 0%, 0%);stroke-width:1.00;stroke:rgb(0, 0, 0)" x1="440.0" x2="493.29080621326494" y1="319.49715193038185" y2="324.1594933441994" /><line style="fill:hsl(0, 0%, 0%);stroke-width:1.00;stroke:rgb(0, 0, 0)" x1="434.0" x2="487.29080621326494" y1="313.49715193038185" y2="308.8348105165643" /></svg>