<?xml version="1.0" encoding="utf-8" ?>
<svg baseProfile="full" height="100%" version="1.1" width="100%" xmlns="http://www.w3.org/2000/svg" xmlns:ev="http://www.w3.org/2001/xml-events" xmlns:xlink="http://www.w3.org/1999/xlink"><defs /><path d="M 360.38 376.35 L 188.08 414.11 A 31.627115729634227 31.627115729634227 0 0,1 172.13293821584114 390.1924771038068 L 273.30 245.69" style="fill:hsl(45, 11%, 65%);stroke-width:1.00;stroke:rgb(0, 0, 0)" /><path d="M 439.62 376.35 L 611.92 414.11 A 31.627115729634227 31.627115729634227 0 0,0 627.8670617841589 390.1924771038068 L 526.70 245.69" style="fill:hsl(45, 11%, 65%);stroke-width:1.00;stroke:rgb(0, 0, 0)" /><ellipse cx="400.0" cy="300.0" rx="187.0687937661952" ry="159.9892713127036" style="fill:hsl(45, 11%, 65%);stroke-width:1.00;stroke:rgb(0, 0, 0)" /><ellipse cx="339.3915368459751" cy="260.0026821718241" rx="5.565379980818898" ry="11.065064134200101" style="fill:hsl(0, 0%, 0%);stroke-width:1.00;stroke:rgb(0, 0, 0)" /><ellipse cx="460.6084631540249" cy="260.0026821718241" rx="5.565379980818898" ry="11.065064134200101" style="fill:hsl(0, 0%, 0%);stroke-width:1.00;stroke:rgb(0, 0, 0)" /><polygon points="385.45221555469766,295.1507385182326 414.54778444530234,295.1507385182326 400.0,314.54778444530234" style="fill:hsl(0, 0%, 0%);stroke-width:1.00;stroke:rgb(0, 0, 0)" /><line style="fill:hsl(0, 0%, 0%);stroke-width:2.00;stroke:rgb(0, 0, 0)" x1="400.0" x2="400.0" y1="314.54778444530234" y2="336.3694611132559" /><path d="M 370 340 A 29.09556889060473 29.09556889060473 30 0,0 400.0 336.3694611132559 A 29.09556889060473 29.09556889060473 150 0,0 429.09556889060474 340.3694611132559" style="fill:none;stroke-width:2.00;stroke:rgb(0, 0, 0)" /><line style="fill:hsl(0, 0%, 0%);stroke-width:1.00;stroke:rgb(0, 0, 0)" x1="366.0" x2="318.03941408108983" y1="324.54778444530234" y2="337.39878471079777" /><line style="fill:hsl(0, 0%, 0%);stroke-width:1.00;stroke:rgb(0, 0, 0)" x1="360.0" x2="310.5364903707486" y1="318.54778444530234" y2="322.8752807960672" /><line style="fill:hsl(0, 0%, 0%);stroke-width:1.00;stroke:rgb(0, 0, 0)" x1="366.0" x2="316.5364903707486" y1="312.54778444530234" y2="308.22028809453747" /><line style="fill:hsl(0, 0%, 0%);stroke-width:1.00;stroke:rgb(0, 0, 0)" x1="434.0" x2="481.96058591891017" y1="324.54778444530234" y2="337.39878471079777" /><line style="fill:hsl(0, 0%, 0%);stroke-width:1.00;stroke:rgb(0, 0, 0)" x1="440.0" x2="489.4635096292514" y1="318.54778444530234" y2="322.8752807960672" /><line style="fill:hsl(0, 0%, 0%);stroke-width:1.00;stroke:rgb(0, 0, 0)" x1="434.0" x2="483.4635096292514" y1="312.54778444530234" y2="308.22028809453747" /></svg>