<?xml version="1.0" encoding="utf-8" ?>
<svg baseProfile="full" height="100%" version="1.1" width="100%" xmlns="http://www.w3.org/2000/svg" xmlns:ev="http://www.w3.org/2001/xml-events" xmlns:xlink="http://www.w3.org/1999/xlink"><defs /><path d="M 316.49 359.45 L 172.96 332.95 A 35.188690185336235 35.188690185336235 0 0,1 163.85209351174967 297.2473759757343 L 277.18 205.26" style="fill:hsl(45, 35%, 48%);stroke-width:1.00;stroke:rgb(0, 0, 0)" /><path d="M 483.51 359.45 L 627.04 332.95 A 35.188690185336235 35.188690185336235 0 0,0 636.1479064882503 297.2473759757343 L 522.82 205.26" style="fill:hsl(45, 35%, 48%);stroke-width:1.00;stroke:rgb(0, 0, 0)" /><ellipse cx="400.0" cy="300.0" rx="185.35803888186106" ry="161.46588613335194" style="fill:hsl(45, 35%, 48%);stroke-width:1.00;stroke:rgb(0, 0, 0)" /><ellipse cx="332.13004909378844" cy="259.633528466662" rx="7.557822991661713" ry="13.367070266747117" style="fill:hsl(0, 0%, 0%);stroke-width:1.00;stroke:rgb(0, 0, 0)" /><ellipse cx="467.86995090621156" cy="259.633528466662" rx="7.557822991661713" ry="13.367070266747117" style="fill:hsl(0, 0%, 0%);stroke-width:1.00;stroke:rgb(0, 0, 0)" /><polygon points="387.2787627526881,295.7595875842294 412.7212372473119,295.7595875842294 400.0,312.7212372473119" style="fill:hsl(0, 0%, 0%);stroke-width:1.00;stroke:rgb(0, 0, 0)" /><line style="fill:hsl(0, 0%, 0%);stroke-width:2.00;stroke:rgb(0, 0, 0)" x1="400.0" x2="400.0" y1="312.7212372473119" y2="331.8030931182798" /><path d="M 374 335 A 25.4424744946238 25.4424744946238 30 0,0 400.0 331.8030931182798 A 25.4424744946238 25.4424744946238 150 0,0 425.4424744946238 335.8030931182798" style="fill:none;stroke-width:2.00;stroke:rgb(0, 0, 0)" /><line style="fill:hsl(0, 0%, 0%);stroke-width:1.00;stroke:rgb(0, 0, 0)" x1="366.0" x2="337.0958180925345" y1="322.7212372473119" y2="330.4660894472995" /><line style="fill:hsl(0, 0%, 0%);stroke-width:1.00;stroke:rgb(0, 0, 0)" x1="360.0" x2="330.19005809222523" y1="316.7212372473119" y2="319.32926922460854" /><line style="fill:hsl(0, 0%, 0%);stroke-width:1.00;stroke:rgb(0, 0, 0)" x1="366.0" x2="336.19005809222523" y1="310.7212372473119" y2="308.1132052700152" /><line style="fill:hsl(0, 0%, 0%);stroke-width:1.00;stroke:rgb(0, 0, 0)" x1="434.0" x2="462.9041819074655" y1="322.7212372473119" y2="330.4660894472995" /><line style="fill:hsl(0, 0%, 0%);stroke-width:1.00;stroke:rgb(0, 0, 0)" x1="440.0" x2="469.80994190777477" y1="316.7212372473119" y2="319.32926922460854" /><line style="fill:hsl(0, 0%, 0%);stroke-width:1.00;stroke:rgb(0, 0, 0)" x1="434.0" x2="463.80994190777477" y1="310.7212372473119" y2="308.1132052700152" /></svg>