<?xml version="1.0" encoding="utf-8" ?>
<svg baseProfile="full" height="100%" version="1.1" width="100%" xmlns="http://www.w3.org/2000/svg" xmlns:ev="http://www.w3.org/2001/xml-events" xmlns:xlink="http://www.w3.org/1999/xlink"><defs /><path d="M 378.07 382.00 L 131.11 387.27 A 11.230087867216795 11.230087867216795 0 0,1 127.24189277149878 377.8867991164507 L 306.13 207.54" style="fill:hsl(45, 21%, 43%);stroke-width:1.00;stroke:rgb(0, 0, 0)" /><path d="M 421.93 382.00 L 668.89 387.27 A 11.230087867216795 11.230087867216795 0 0,0 672.7581072285012 377.8867991164507 L 493.87 207.54" style="fill:hsl(45, 21%, 43%);stroke-width:1.00;stroke:rgb(0, 0, 0)" /><ellipse cx="400.0" cy="300.0" rx="178.54674915948212" ry="167.62556664230678" style="fill:hsl(45, 21%, 43%);stroke-width:1.00;stroke:rgb(0, 0, 0)" /><ellipse cx="323.7651941818603" cy="258.0936083394233" rx="9.48712517387137" ry="13.295776726980922" style="fill:hsl(0, 0%, 0%);stroke-width:1.00;stroke:rgb(0, 0, 0)" /><ellipse cx="476.2348058181397" cy="258.0936083394233" rx="9.48712517387137" ry="13.295776726980922" style="fill:hsl(0, 0%, 0%);stroke-width:1.00;stroke:rgb(0, 0, 0)" /><polygon points="383.238324147895,294.412774715965 416.761675852105,294.412774715965 400.0,316.761675852105" style="fill:hsl(0, 0%, 0%);stroke-width:1.00;stroke:rgb(0, 0, 0)" /><line style="fill:hsl(0, 0%, 0%);stroke-width:2.00;stroke:rgb(0, 0, 0)" x1="400.0" x2="400.0" y1="316.761675852105" y2="341.9041896302624" /><path d="M 366 345 A 33.523351704209944 33.523351704209944 30 0,0 400.0 341.9041896302624 A 33.523351704209944 33.523351704209944 150 0,0 433.52335170421 345.9041896302624" style="fill:none;stroke-width:2.00;stroke:rgb(0, 0, 0)" /><line style="fill:hsl(0, 0%, 0%);stroke-width:1.00;stroke:rgb(0, 0, 0)" x1="366.0" x2="348.0603211035894" y1="326.761675852105" y2="331.56859832487186" /><line style="fill:hsl(0, 0%, 0%);stroke-width:1.00;stroke:rgb(0, 0, 0)" x1="360.0" x2="341.49815180868313" y1="320.761675852105" y2="322.38037782312284" /><line style="fill:hsl(0, 0%, 0%);stroke-width:1.00;stroke:rgb(0, 0, 0)" x1="366.0" x2="347.49815180868313" y1="314.761675852105" y2="313.14297388108713" /><line style="fill:hsl(0, 0%, 0%);stroke-width:1.00;stroke:rgb(0, 0, 0)" x1="434.0" x2="451.9396788964106" y1="326.761675852105" y2="331.56859832487186" /><line style="fill:hsl(0, 0%, 0%);stroke-width:1.00;stroke:rgb(0, 0, 0)" x1="440.0" x2="458.50184819131687" y1="320.761675852105" y2="322.38037782312284" /><line style="fill:hsl(0, 0%, 0%);stroke-width:1.00;stroke:rgb(0, 0, 0)" x1="434.0" x2="452.50184819131687" y1="314.761675852105" y2="313.14297388108713" /></svg>