<?xml version="1.0" encoding="utf-8" ?>
<svg baseProfile="full" height="100%" version="1.1" width="100%" xmlns="http://www.w3.org/2000/svg" xmlns:ev="http://www.w3.org/2001/xml-events" xmlns:xlink="http://www.w3.org/1999/xlink"><defs /><path d="M 359.68 363.20 L 200.67 364.27 A 51.2487773031829 51.2487773031829 0 0,1 183.9792023694465 321.5731608343922 L 301.56 214.53" style="fill:hsl(45, 4%, 59%);stroke-width:1.00;stroke:rgb(0, 0, 0)" /><path d="M 440.32 363.20 L 599.33 364.27 A 51.2487773031829 51.2487773031829 0 0,0 616.0207976305535 321.5731608343922 L 498.44 214.53" style="fill:hsl(45, 4%, 59%);stroke-width:1.00;stroke:rgb(0, 0, 0)" /><ellipse cx="400.0" cy="300.0" rx="169.43830203347116" ry="176.63656706196082" style="fill:hsl(45, 4%, 59%);stroke-width:1.00;stroke:rgb(0, 0, 0)" /><ellipse cx="337.40401265086837" cy="255.8408582345098" rx="7.810172519789738" ry="10.668493407035786" style="fill:hsl(0, 0%, 0%);stroke-width:1.00;stroke:rgb(0, 0, 0)" /><ellipse cx="462.59598734913163" cy="255.8408582345098" rx="7.810172519789738" ry="10.668493407035786" style="fill:hsl(0, 0%, 0%);stroke-width:1.00;stroke:rgb(0, 0, 0)" /><polygon points="384.47287718532704,294.824292395109 415.52712281467296,294.824292395109 400.0,315.52712281467296" style="fill:hsl(0, 0%, 0%);stroke-width:1.00;stroke:rgb(0, 0, 0)" /><line style="fill:hsl(0, 0%, 0%);stroke-width:2.00;stroke:rgb(0, 0, 0)" x1="400.0" x2="400.0" y1="315.52712281467296" y2="338.8178070366823" /><path d="M 368 342 A 31.05424562934588 31.05424562934588 30 0,0 400.0 338.8178070366823 A 31.05424562934588 31.05424562934588 150 0,0 431.05424562934587 342.8178070366823" style="fill:none;stroke-width:2.00;stroke:rgb(0, 0, 0)" /><line style="fill:hsl(0, 0%, 0%);stroke-width:1.00;stroke:rgb(0, 0, 0)" x1="366.0" x2="332.329572304459" y1="325.52712281467296" y2="334.5490867245037" /><line style="fill:hsl(0, 0%, 0%);stroke-width:1.00;stroke:rgb(0, 0, 0)" x1="360.0" x2="325.27445416627535" y1="319.52712281467296" y2="322.56521440987376" /><line style="fill:hsl(0, 0%, 0%);stroke-width:1.00;stroke:rgb(0, 0, 0)" x1="366.0" x2="331.27445416627535" y1="313.52712281467296" y2="310.48903121947217" /><line style="fill:hsl(0, 0%, 0%);stroke-width:1.00;stroke:rgb(0, 0, 0)" x1="434.0" x2="467.670427695541" y1="325.52712281467296" y2="334.5490867245037" /><line style="fill:hsl(0, 0%, 0%);stroke-width:1.00;stroke:rgb(0, 0, 0)" x1="440.0" x2="474.72554583372465" y1="319.52712281467296" y2="322.56521440987376" /><line style="fill:hsl(0, 0%, 0%);stroke-width:1.00;stroke:rgb(0, 0, 0)" x1="434.0" x2="468.72554583372465" y1="313.52712281467296" y2="310.48903121947217" /></svg>