<?xml version="1.0" encoding="utf-8" ?>
<svg baseProfile="full" height="100%" version="1.1" width="100%" xmlns="http://www.w3.org/2000/svg" xmlns:ev="http://www.w3.org/2001/xml-events" xmlns:xlink="http://www.w3.org/1999/xlink"><defs /><path d="M 276.94 364.89 L 165.43 211.15 A 30.002982653789473 30.002982653789473 0 0,1 180.7309947389091 177.1022747019372 L 369.73 158.41" style="fill:hsl(45, 41%, 51%);stroke-width:1.00;stroke:rgb(0, 0, 0)" /><path d="M 523.06 364.89 L 634.57 211.15 A 30.002982653789473 30.002982653789473 0 0,0 619.2690052610909 177.1022747019372 L 430.27 158.41" style="fill:hsl(45, 41%, 51%);stroke-width:1.00;stroke:rgb(0, 0, 0)" /><ellipse cx="400.0" cy="300.0" rx="183.92672038450604" ry="162.7224143258372" style="fill:hsl(45, 41%, 51%);stroke-width:1.00;stroke:rgb(0, 0, 0)" /><ellipse cx="328.1596105058229" cy="259.3193964185407" rx="10.163461185507161" ry="12.288410775954997" style="fill:hsl(0, 0%, 0%);stroke-width:1.00;stroke:rgb(0, 0, 0)" /><ellipse cx="471.8403894941771" cy="259.3193964185407" rx="10.163461185507161" ry="12.288410775954997" style="fill:hsl(0, 0%, 0%);stroke-width:1.00;stroke:rgb(0, 0, 0)" /><polygon points="388.0081988286264,296.00273294287547 411.9918011713736,296.00273294287547 400.0,311.9918011713736" style="fill:hsl(0, 0%, 0%);stroke-width:1.00;stroke:rgb(0, 0, 0)" /><line style="fill:hsl(0, 0%, 0%);stroke-width:2.00;stroke:rgb(0, 0, 0)" x1="400.0" x2="400.0" y1="311.9918011713736" y2="329.97950292843393" /><path d="M 376 333 A 23.983602342747147 23.983602342747147 30 0,0 400.0 329.97950292843393 A 23.983602342747147 23.983602342747147 150 0,0 423.98360234274713 333.97950292843393" style="fill:none;stroke-width:2.00;stroke:rgb(0, 0, 0)" /><line style="fill:hsl(0, 0%, 0%);stroke-width:1.00;stroke:rgb(0, 0, 0)" x1="366.0" x2="325.5214497116367" y1="321.9918011713736" y2="332.8379960319231" /><line style="fill:hsl(0, 0%, 0%);stroke-width:1.00;stroke:rgb(0, 0, 0)" x1="360.0" x2="318.2529878731704" y1="315.9918011713736" y2="319.64419146855045" /><line style="fill:hsl(0, 0%, 0%);stroke-width:1.00;stroke:rgb(0, 0, 0)" x1="366.0" x2="324.2529878731704" y1="309.9918011713736" y2="306.33941087419674" /><line style="fill:hsl(0, 0%, 0%);stroke-width:1.00;stroke:rgb(0, 0, 0)" x1="434.0" x2="474.4785502883633" y1="321.9918011713736" y2="332.8379960319231" /><line style="fill:hsl(0, 0%, 0%);stroke-width:1.00;stroke:rgb(0, 0, 0)" x1="440.0" x2="481.7470121268296" y1="315.9918011713736" y2="319.64419146855045" /><line style="fill:hsl(0, 0%, 0%);stroke-width:1.00;stroke:rgb(0, 0, 0)" x1="434.0" x2="475.7470121268296" y1="309.9918011713736" y2="306.33941087419674" /></svg>