<?xml version="1.0" encoding="utf-8" ?>
<svg baseProfile="full" height="100%" version="1.1" width="100%" xmlns="http://www.w3.org/2000/svg" xmlns:ev="http://www.w3.org/2001/xml-events" xmlns:xlink="http://www.w3.org/1999/xlink"><defs /><path d="M 315.85 335.09 L 179.26 222.16 A 49.32063153199948 49.32063153199948 0 0,1 193.1627660255922 177.564918270068 L 369.74 162.31" style="fill:hsl(45, 9%, 34%);stroke-width:1.00;stroke:rgb(0, 0, 0)" /><path d="M 484.15 335.09 L 620.74 222.16 A 49.32063153199948 49.32063153199948 0 0,0 606.8372339744078 177.564918270068 L 430.26 162.31" style="fill:hsl(45, 9%, 34%);stroke-width:1.00;stroke:rgb(0, 0, 0)" /><ellipse cx="400.0" cy="300.0" rx="191.28566675930136" ry="156.46232416180072" style="fill:hsl(45, 9%, 34%);stroke-width:1.00;stroke:rgb(0, 0, 0)" /><ellipse cx="345.8239733650711" cy="260.8844189595498" rx="12.735459850177357" ry="13.967569210274537" style="fill:hsl(0, 0%, 0%);stroke-width:1.00;stroke:rgb(0, 0, 0)" /><ellipse cx="454.1760266349289" cy="260.8844189595498" rx="12.735459850177357" ry="13.967569210274537" style="fill:hsl(0, 0%, 0%);stroke-width:1.00;stroke:rgb(0, 0, 0)" /><polygon points="382.8425839744854,294.2808613248285 417.1574160255146,294.2808613248285 400.0,317.1574160255146" style="fill:hsl(0, 0%, 0%);stroke-width:1.00;stroke:rgb(0, 0, 0)" /><line style="fill:hsl(0, 0%, 0%);stroke-width:2.00;stroke:rgb(0, 0, 0)" x1="400.0" x2="400.0" y1="317.1574160255146" y2="342.89354006378636" /><path d="M 365 346 A 34.31483205102911 34.31483205102911 30 0,0 400.0 342.89354006378636 A 34.31483205102911 34.31483205102911 150 0,0 434.3148320510291 346.89354006378636" style="fill:none;stroke-width:2.00;stroke:rgb(0, 0, 0)" /><line style="fill:hsl(0, 0%, 0%);stroke-width:1.00;stroke:rgb(0, 0, 0)" x1="366.0" x2="352.4035800311052" y1="327.1574160255146" y2="330.80056577613436" /><line style="fill:hsl(0, 0%, 0%);stroke-width:1.00;stroke:rgb(0, 0, 0)" x1="360.0" x2="345.97751388625954" y1="321.1574160255146" y2="322.38422459491653" /><line style="fill:hsl(0, 0%, 0%);stroke-width:1.00;stroke:rgb(0, 0, 0)" x1="366.0" x2="351.97751388625954" y1="315.1574160255146" y2="313.93060745611257" /><line style="fill:hsl(0, 0%, 0%);stroke-width:1.00;stroke:rgb(0, 0, 0)" x1="434.0" x2="447.5964199688948" y1="327.1574160255146" y2="330.8005657761343" /><line style="fill:hsl(0, 0%, 0%);stroke-width:1.00;stroke:rgb(0, 0, 0)" x1="440.0" x2="454.02248611374046" y1="321.1574160255146" y2="322.3842245949166" /><line style="fill:hsl(0, 0%, 0%);stroke-width:1.00;stroke:rgb(0, 0, 0)" x1="434.0" x2="448.02248611374046" y1="315.1574160255146" y2="313.9306074561126" /></svg>