<?xml version="1.0" encoding="utf-8" ?>
<svg baseProfile="full" height="100%" version="1.1" width="100%" xmlns="http://www.w3.org/2000/svg" xmlns:ev="http://www.w3.org/2001/xml-events" xmlns:xlink="http://www.w3.org/1999/xlink"><defs /><path d="M 280.71 285.78 L 236.91 134.76 A 21.537368200329865 21.537368200329865 0 0,1 255.0518162753699 117.11617248937826 L 404.80 165.08" style="fill:hsl(45, 41%, 72%);stroke-width:1.00;stroke:rgb(0, 0, 0)" /><path d="M 519.29 285.78 L 563.09 134.76 A 21.537368200329865 21.537368200329865 0 0,0 544.9481837246301 117.11617248937826 L 395.20 165.08" style="fill:hsl(45, 41%, 72%);stroke-width:1.00;stroke:rgb(0, 0, 0)" /><ellipse cx="400.0" cy="300.0" rx="177.10866645542788" ry="168.98664869983702" style="fill:hsl(45, 41%, 72%);stroke-width:1.00;stroke:rgb(0, 0, 0)" /><ellipse cx="328.7617867391542" cy="257.7533378250407" rx="6.615406581148866" ry="11.74629869169598" style="fill:hsl(0, 0%, 0%);stroke-width:1.00;stroke:rgb(0, 0, 0)" /><ellipse cx="471.2382132608458" cy="257.7533378250407" rx="6.615406581148866" ry="11.74629869169598" style="fill:hsl(0, 0%, 0%);stroke-width:1.00;stroke:rgb(0, 0, 0)" /><polygon points="380.6507510050767,293.55025033502557 419.3492489949233,293.55025033502557 400.0,319.3492489949233" style="fill:hsl(0, 0%, 0%);stroke-width:1.00;stroke:rgb(0, 0, 0)" /><line style="fill:hsl(0, 0%, 0%);stroke-width:2.00;stroke:rgb(0, 0, 0)" x1="400.0" x2="400.0" y1="319.3492489949233" y2="348.3731224873083" /><path d="M 361 352 A 38.69849798984663 38.69849798984663 30 0,0 400.0 348.3731224873083 A 38.69849798984663 38.69849798984663 150 0,0 438.6984979898466 352.3731224873083" style="fill:none;stroke-width:2.00;stroke:rgb(0, 0, 0)" /><line style="fill:hsl(0, 0%, 0%);stroke-width:1.00;stroke:rgb(0, 0, 0)" x1="366.0" x2="343.25426112226893" y1="329.3492489949233" y2="335.44395135846054" /><line style="fill:hsl(0, 0%, 0%);stroke-width:1.00;stroke:rgb(0, 0, 0)" x1="360.0" x2="336.5414860463687" y1="323.3492489949233" y2="325.40160302903075" /><line style="fill:hsl(0, 0%, 0%);stroke-width:1.00;stroke:rgb(0, 0, 0)" x1="366.0" x2="342.5414860463687" y1="317.3492489949233" y2="315.29689496081585" /><line style="fill:hsl(0, 0%, 0%);stroke-width:1.00;stroke:rgb(0, 0, 0)" x1="434.0" x2="456.74573887773107" y1="329.3492489949233" y2="335.44395135846054" /><line style="fill:hsl(0, 0%, 0%);stroke-width:1.00;stroke:rgb(0, 0, 0)" x1="440.0" x2="463.4585139536313" y1="323.3492489949233" y2="325.40160302903075" /><line style="fill:hsl(0, 0%, 0%);stroke-width:1.00;stroke:rgb(0, 0, 0)" x1="434.0" x2="457.4585139536313" y1="317.3492489949233" y2="315.29689496081585" /></svg>