<?xml version="1.0" encoding="utf-8" ?>
<svg baseProfile="full" height="100%" version="1.1" width="100%" xmlns="http://www.w3.org/2000/svg" xmlns:ev="http://www.w3.org/2001/xml-events" xmlns:xlink="http://www.w3.org/1999/xlink"><defs /><path d="M 308.70 311.30 L 184.24 210.86 A 17.56167964986488 17.56167964986488 0 0,1 189.08087006920005 196.01989303735715 L 348.83 188.36" style="fill:hsl(45, 15%, 46%);stroke-width:1.00;stroke:rgb(0, 0, 0)" /><path d="M 491.30 311.30 L 615.76 210.86 A 17.56167964986488 17.56167964986488 0 0,0 610.9191299308 196.01989303735715 L 451.17 188.36" style="fill:hsl(45, 15%, 46%);stroke-width:1.00;stroke:rgb(0, 0, 0)" /><ellipse cx="400.0" cy="300.0" rx="171.38925265903737" ry="174.62588543717442" style="fill:hsl(45, 15%, 46%);stroke-width:1.00;stroke:rgb(0, 0, 0)" /><ellipse cx="347.05532282798424" cy="256.3435286407064" rx="11.852096883529404" ry="14.907513979467275" style="fill:hsl(0, 0%, 0%);stroke-width:1.00;stroke:rgb(0, 0, 0)" /><ellipse cx="452.94467717201576" cy="256.3435286407064" rx="11.852096883529404" ry="14.907513979467275" style="fill:hsl(0, 0%, 0%);stroke-width:1.00;stroke:rgb(0, 0, 0)" /><polygon points="381.13699873035654,293.71233291011885 418.86300126964346,293.71233291011885 400.0,318.86300126964346" style="fill:hsl(0, 0%, 0%);stroke-width:1.00;stroke:rgb(0, 0, 0)" /><line style="fill:hsl(0, 0%, 0%);stroke-width:2.00;stroke:rgb(0, 0, 0)" x1="400.0" x2="400.0" y1="318.86300126964346" y2="347.1575031741087" /><path d="M 362 351 A 37.72600253928695 37.72600253928695 30 0,0 400.0 347.1575031741087 A 37.72600253928695 37.72600253928695 150 0,0 437.7260025392869 351.1575031741087" style="fill:none;stroke-width:2.00;stroke:rgb(0, 0, 0)" /><line style="fill:hsl(0, 0%, 0%);stroke-width:1.00;stroke:rgb(0, 0, 0)" x1="366.0" x2="339.1480650408743" y1="328.86300126964346" y2="336.05795555715423" /><line style="fill:hsl(0, 0%, 0%);stroke-width:1.00;stroke:rgb(0, 0, 0)" x1="360.0" x2="332.3066155684504" y1="322.86300126964346" y2="325.28585846206937" /><line style="fill:hsl(0, 0%, 0%);stroke-width:1.00;stroke:rgb(0, 0, 0)" x1="366.0" x2="338.3066155684504" y1="316.86300126964346" y2="314.44014407721755" /><line style="fill:hsl(0, 0%, 0%);stroke-width:1.00;stroke:rgb(0, 0, 0)" x1="434.0" x2="460.8519349591257" y1="328.86300126964346" y2="336.05795555715423" /><line style="fill:hsl(0, 0%, 0%);stroke-width:1.00;stroke:rgb(0, 0, 0)" x1="440.0" x2="467.6933844315496" y1="322.86300126964346" y2="325.28585846206937" /><line style="fill:hsl(0, 0%, 0%);stroke-width:1.00;stroke:rgb(0, 0, 0)" x1="434.0" x2="461.6933844315496" y1="316.86300126964346" y2="314.44014407721755" /></svg>