<?xml version="1.0" encoding="utf-8" ?>
<svg baseProfile="full" height="100%" version="1.1" width="100%" xmlns="http://www.w3.org/2000/svg" xmlns:ev="http://www.w3.org/2001/xml-events" xmlns:xlink="http://www.w3.org/1999/xlink"><defs /><path d="M 383.36 386.93 L 219.52 388.86 A 52.67574069105919 52.67574069105919 0 0,1 196.37037253630456 339.50906916242127 L 302.60 214.76" style="fill:hsl(45, 47%, 77%);stroke-width:1.00;stroke:rgb(0, 0, 0)" /><path d="M 416.64 386.93 L 580.48 388.86 A 52.67574069105919 52.67574069105919 0 0,0 603.6296274636954 339.50906916242127 L 497.40 214.76" style="fill:hsl(45, 47%, 77%);stroke-width:1.00;stroke:rgb(0, 0, 0)" /><ellipse cx="400.0" cy="300.0" rx="154.2901536244146" ry="193.97867781540722" style="fill:hsl(45, 47%, 77%);stroke-width:1.00;stroke:rgb(0, 0, 0)" /><ellipse cx="342.0358952503468" cy="251.5053305461482" rx="12.727676968812059" ry="13.225003789235226" style="fill:hsl(0, 0%, 0%);stroke-width:1.00;stroke:rgb(0, 0, 0)" /><ellipse cx="457.9641047496532" cy="251.5053305461482" rx="12.727676968812059" ry="13.225003789235226" style="fill:hsl(0, 0%, 0%);stroke-width:1.00;stroke:rgb(0, 0, 0)" /><polygon points="387.6393066556465,295.8797688852155 412.3606933443535,295.8797688852155 400.0,312.3606933443535" style="fill:hsl(0, 0%, 0%);stroke-width:1.00;stroke:rgb(0, 0, 0)" /><line style="fill:hsl(0, 0%, 0%);stroke-width:2.00;stroke:rgb(0, 0, 0)" x1="400.0" x2="400.0" y1="312.3606933443535" y2="330.9017333608837" /><path d="M 375 334 A 24.721386688706986 24.721386688706986 30 0,0 400.0 330.9017333608837 A 24.721386688706986 24.721386688706986 150 0,0 424.72138668870696 334.9017333608837" style="fill:none;stroke-width:2.00;stroke:rgb(0, 0, 0)" /><line style="fill:hsl(0, 0%, 0%);stroke-width:1.00;stroke:rgb(0, 0, 0)" x1="366.0" x2="356.671587851237" y1="322.3606933443535" y2="324.8602338462792" /><line style="fill:hsl(0, 0%, 0%);stroke-width:1.00;stroke:rgb(0, 0, 0)" x1="360.0" x2="350.3792667394409" y1="316.3606933443535" y2="317.2023984394592" /><line style="fill:hsl(0, 0%, 0%);stroke-width:1.00;stroke:rgb(0, 0, 0)" x1="366.0" x2="356.3792667394409" y1="310.3606933443535" y2="309.51898824924774" /><line style="fill:hsl(0, 0%, 0%);stroke-width:1.00;stroke:rgb(0, 0, 0)" x1="434.0" x2="443.328412148763" y1="322.3606933443535" y2="324.8602338462792" /><line style="fill:hsl(0, 0%, 0%);stroke-width:1.00;stroke:rgb(0, 0, 0)" x1="440.0" x2="449.6207332605591" y1="316.3606933443535" y2="317.2023984394592" /><line style="fill:hsl(0, 0%, 0%);stroke-width:1.00;stroke:rgb(0, 0, 0)" x1="434.0" x2="443.6207332605591" y1="310.3606933443535" y2="309.51898824924774" /></svg>