<?xml version="1.0" encoding="utf-8" ?>
<svg baseProfile="full" height="100%" version="1.1" width="100%" xmlns="http://www.w3.org/2000/svg" xmlns:ev="http://www.w3.org/2001/xml-events" xmlns:xlink="http://www.w3.org/1999/xlink"><defs /><path d="M 360.51 394.45 L 197.82 409.73 A 50.47777789983829 50.47777789983829 0 0,1 166.0849088764635 360.71719295670175 L 246.58 218.51" style="fill:hsl(45, 53%, 46%);stroke-width:1.00;stroke:rgb(0, 0, 0)" /><path d="M 439.49 394.45 L 602.18 409.73 A 50.47777789983829 50.47777789983829 0 0,0 633.9150911235365 360.71719295670175 L 553.42 218.51" style="fill:hsl(45, 53%, 46%);stroke-width:1.00;stroke:rgb(0, 0, 0)" /><ellipse cx="400.0" cy="300.0" rx="195.1861347661366" ry="153.3356866555076" style="fill:hsl(45, 53%, 46%);stroke-width:1.00;stroke:rgb(0, 0, 0)" /><ellipse cx="346.5779240050897" cy="261.6660783361231" rx="10.074576114268611" ry="12.710005181881085" style="fill:hsl(0, 0%, 0%);stroke-width:1.00;stroke:rgb(0, 0, 0)" /><ellipse cx="453.4220759949103" cy="261.6660783361231" rx="10.074576114268611" ry="12.710005181881085" style="fill:hsl(0, 0%, 0%);stroke-width:1.00;stroke:rgb(0, 0, 0)" /><polygon points="385.4990868252125,295.1663622750708 414.5009131747875,295.1663622750708 400.0,314.5009131747875" style="fill:hsl(0, 0%, 0%);stroke-width:1.00;stroke:rgb(0, 0, 0)" /><line style="fill:hsl(0, 0%, 0%);stroke-width:2.00;stroke:rgb(0, 0, 0)" x1="400.0" x2="400.0" y1="314.5009131747875" y2="336.25228293696887" /><path d="M 370 340 A 29.00182634957507 29.00182634957507 30 0,0 400.0 336.25228293696887 A 29.00182634957507 29.00182634957507 150 0,0 429.0018263495751 340.25228293696887" style="fill:none;stroke-width:2.00;stroke:rgb(0, 0, 0)" /><line style="fill:hsl(0, 0%, 0%);stroke-width:1.00;stroke:rgb(0, 0, 0)" x1="366.0" x2="351.68316238056167" y1="324.5009131747875" y2="328.3370982530835" /><line style="fill:hsl(0, 0%, 0%);stroke-width:1.00;stroke:rgb(0, 0, 0)" x1="360.0" x2="345.23452076572113" y1="318.5009131747875" y2="319.7927252193144" /><line style="fill:hsl(0, 0%, 0%);stroke-width:1.00;stroke:rgb(0, 0, 0)" x1="366.0" x2="351.23452076572113" y1="312.5009131747875" y2="311.20910113026065" /><line style="fill:hsl(0, 0%, 0%);stroke-width:1.00;stroke:rgb(0, 0, 0)" x1="434.0" x2="448.31683761943833" y1="324.5009131747875" y2="328.3370982530835" /><line style="fill:hsl(0, 0%, 0%);stroke-width:1.00;stroke:rgb(0, 0, 0)" x1="440.0" x2="454.76547923427887" y1="318.5009131747875" y2="319.7927252193144" /><line style="fill:hsl(0, 0%, 0%);stroke-width:1.00;stroke:rgb(0, 0, 0)" x1="434.0" x2="448.76547923427887" y1="312.5009131747875" y2="311.20910113026065" /></svg>