<?xml version="1.0" encoding="utf-8" ?>
<svg baseProfile="full" height="100%" version="1.1" width="100%" xmlns="http://www.w3.org/2000/svg" xmlns:ev="http://www.w3.org/2001/xml-events" xmlns:xlink="http://www.w3.org/1999/xlink"><defs /><path d="M 293.75 325.15 L 154.88 201.35 A 11.943537785959279 11.943537785959279 0 0,1 158.18005963955704 187.6247362553973 L 338.12 140.41" style="fill:hsl(45, 48%, 47%);stroke-width:1.00;stroke:rgb(0, 0, 0)" /><path d="M 506.25 325.15 L 645.12 201.35 A 11.943537785959279 11.943537785959279 0 0,0 641.819940360443 187.6247362553973 L 461.88 140.41" style="fill:hsl(45, 48%, 47%);stroke-width:1.00;stroke:rgb(0, 0, 0)" /><ellipse cx="400.0" cy="300.0" rx="195.94275988471117" ry="152.74358704353062" style="fill:hsl(45, 48%, 47%);stroke-width:1.00;stroke:rgb(0, 0, 0)" /><ellipse cx="330.56662856364824" cy="261.81410323911734" rx="7.255710947725725" ry="12.525382657616483" style="fill:hsl(0, 0%, 0%);stroke-width:1.00;stroke:rgb(0, 0, 0)" /><ellipse cx="469.43337143635176" cy="261.81410323911734" rx="7.255710947725725" ry="12.525382657616483" style="fill:hsl(0, 0%, 0%);stroke-width:1.00;stroke:rgb(0, 0, 0)" /><polygon points="386.8123940220447,295.6041313406816 413.1876059779553,295.6041313406816 400.0,313.1876059779553" style="fill:hsl(0, 0%, 0%);stroke-width:1.00;stroke:rgb(0, 0, 0)" /><line style="fill:hsl(0, 0%, 0%);stroke-width:2.00;stroke:rgb(0, 0, 0)" x1="400.0" x2="400.0" y1="313.1876059779553" y2="332.9690149448882" /><path d="M 373 336 A 26.375211955910586 26.375211955910586 30 0,0 400.0 332.9690149448882 A 26.375211955910586 26.375211955910586 150 0,0 426.3752119559106 336.9690149448882" style="fill:none;stroke-width:2.00;stroke:rgb(0, 0, 0)" /><line style="fill:hsl(0, 0%, 0%);stroke-width:1.00;stroke:rgb(0, 0, 0)" x1="366.0" x2="359.1654888062461" y1="323.1876059779553" y2="325.0189077329831" /><line style="fill:hsl(0, 0%, 0%);stroke-width:1.00;stroke:rgb(0, 0, 0)" x1="360.0" x2="352.95131817582364" y1="317.1876059779553" y2="317.80428573037193" /><line style="fill:hsl(0, 0%, 0%);stroke-width:1.00;stroke:rgb(0, 0, 0)" x1="366.0" x2="358.95131817582364" y1="311.1876059779553" y2="310.57092622553864" /><line style="fill:hsl(0, 0%, 0%);stroke-width:1.00;stroke:rgb(0, 0, 0)" x1="434.0" x2="440.8345111937539" y1="323.1876059779553" y2="325.0189077329831" /><line style="fill:hsl(0, 0%, 0%);stroke-width:1.00;stroke:rgb(0, 0, 0)" x1="440.0" x2="447.04868182417636" y1="317.1876059779553" y2="317.80428573037193" /><line style="fill:hsl(0, 0%, 0%);stroke-width:1.00;stroke:rgb(0, 0, 0)" x1="434.0" x2="441.04868182417636" y1="311.1876059779553" y2="310.57092622553864" /></svg>