<?xml version="1.0" encoding="utf-8" ?>
<svg baseProfile="full" height="100%" version="1.1" width="100%" xmlns="http://www.w3.org/2000/svg" xmlns:ev="http://www.w3.org/2001/xml-events" xmlns:xlink="http://www.w3.org/1999/xlink"><defs /><path d="M 376.73 412.04 L 191.77 415.85 A 60.37764098122778 60.37764098122778 0 0,1 164.6345178638095 359.4233332770757 L 283.07 217.31" style="fill:hsl(45, 7%, 32%);stroke-width:1.00;stroke:rgb(0, 0, 0)" /><path d="M 423.27 412.04 L 608.23 415.85 A 60.37764098122778 60.37764098122778 0 0,0 635.3654821361905 359.4233332770757 L 516.93 217.31" style="fill:hsl(45, 7%, 32%);stroke-width:1.00;stroke:rgb(0, 0, 0)" /><ellipse cx="400.0" cy="300.0" rx="198.4569309935079" ry="150.80853991931914" style="fill:hsl(45, 7%, 32%);stroke-width:1.00;stroke:rgb(0, 0, 0)" /><ellipse cx="346.1905550117894" cy="262.2978650201702" rx="7.4258157424715385" ry="13.068294206615606" style="fill:hsl(0, 0%, 0%);stroke-width:1.00;stroke:rgb(0, 0, 0)" /><ellipse cx="453.8094449882106" cy="262.2978650201702" rx="7.4258157424715385" ry="13.068294206615606" style="fill:hsl(0, 0%, 0%);stroke-width:1.00;stroke:rgb(0, 0, 0)" /><polygon points="389.87550597174817,296.6251686572494 410.12449402825183,296.6251686572494 400.0,310.12449402825183" style="fill:hsl(0, 0%, 0%);stroke-width:1.00;stroke:rgb(0, 0, 0)" /><line style="fill:hsl(0, 0%, 0%);stroke-width:2.00;stroke:rgb(0, 0, 0)" x1="400.0" x2="400.0" y1="310.12449402825183" y2="325.31123507062955" /><path d="M 379 329 A 20.24898805650365 20.24898805650365 30 0,0 400.0 325.31123507062955 A 20.24898805650365 20.24898805650365 150 0,0 420.24898805650366 329.31123507062955" style="fill:none;stroke-width:2.00;stroke:rgb(0, 0, 0)" /><line style="fill:hsl(0, 0%, 0%);stroke-width:1.00;stroke:rgb(0, 0, 0)" x1="366.0" x2="315.6931863135039" y1="320.12449402825183" y2="333.6041641293314" /><line style="fill:hsl(0, 0%, 0%);stroke-width:1.00;stroke:rgb(0, 0, 0)" x1="360.0" x2="308.1167397035941" y1="314.12449402825183" y2="318.66369113095203" /><line style="fill:hsl(0, 0%, 0%);stroke-width:1.00;stroke:rgb(0, 0, 0)" x1="366.0" x2="314.1167397035941" y1="308.12449402825183" y2="303.58529692555163" /><line style="fill:hsl(0, 0%, 0%);stroke-width:1.00;stroke:rgb(0, 0, 0)" x1="434.0" x2="484.3068136864961" y1="320.12449402825183" y2="333.6041641293314" /><line style="fill:hsl(0, 0%, 0%);stroke-width:1.00;stroke:rgb(0, 0, 0)" x1="440.0" x2="491.8832602964059" y1="314.12449402825183" y2="318.66369113095203" /><line style="fill:hsl(0, 0%, 0%);stroke-width:1.00;stroke:rgb(0, 0, 0)" x1="434.0" x2="485.8832602964059" y1="308.12449402825183" y2="303.58529692555163" /></svg>