<?xml version="1.0" encoding="utf-8" ?>
<svg baseProfile="full" height="100%" version="1.1" width="100%" xmlns="http://www.w3.org/2000/svg" xmlns:ev="http://www.w3.org/2001/xml-events" xmlns:xlink="http://www.w3.org/1999/xlink"><defs /><path d="M 413.57 375.08 L 248.04 437.54 A 63.59041238641502 63.59041238641502 0 0,1 200.72658367936071 390.85399777963113 L 260.94 224.50" style="fill:hsl(45, 43%, 32%);stroke-width:1.00;stroke:rgb(0, 0, 0)" /><path d="M 386.43 375.08 L 551.96 437.54 A 63.59041238641502 63.59041238641502 0 0,0 599.2734163206393 390.85399777963113 L 539.06 224.50" style="fill:hsl(45, 43%, 32%);stroke-width:1.00;stroke:rgb(0, 0, 0)" /><ellipse cx="400.0" cy="300.0" rx="151.82203663656603" ry="197.13212036303077" style="fill:hsl(45, 43%, 32%);stroke-width:1.00;stroke:rgb(0, 0, 0)" /><ellipse cx="344.74429916439453" cy="250.71696990924232" rx="10.212858605186016" ry="14.667569892159024" style="fill:hsl(0, 0%, 0%);stroke-width:1.00;stroke:rgb(0, 0, 0)" /><ellipse cx="455.25570083560547" cy="250.71696990924232" rx="10.212858605186016" ry="14.667569892159024" style="fill:hsl(0, 0%, 0%);stroke-width:1.00;stroke:rgb(0, 0, 0)" /><polygon points="383.1444931812605,294.3814977270868 416.8555068187395,294.3814977270868 400.0,316.8555068187395" style="fill:hsl(0, 0%, 0%);stroke-width:1.00;stroke:rgb(0, 0, 0)" /><line style="fill:hsl(0, 0%, 0%);stroke-width:2.00;stroke:rgb(0, 0, 0)" x1="400.0" x2="400.0" y1="316.8555068187395" y2="342.13876704684884" /><path d="M 366 346 A 33.711013637479056 33.711013637479056 30 0,0 400.0 342.13876704684884 A 33.711013637479056 33.711013637479056 150 0,0 433.711013637479 346.13876704684884" style="fill:none;stroke-width:2.00;stroke:rgb(0, 0, 0)" /><line style="fill:hsl(0, 0%, 0%);stroke-width:1.00;stroke:rgb(0, 0, 0)" x1="366.0" x2="320.4974666044595" y1="326.8555068187395" y2="339.0478738956448" /><line style="fill:hsl(0, 0%, 0%);stroke-width:1.00;stroke:rgb(0, 0, 0)" x1="360.0" x2="313.0715700060239" y1="320.8555068187395" y2="324.96121244028234" /><line style="fill:hsl(0, 0%, 0%);stroke-width:1.00;stroke:rgb(0, 0, 0)" x1="366.0" x2="319.0715700060239" y1="314.8555068187395" y2="310.74980119719663" /><line style="fill:hsl(0, 0%, 0%);stroke-width:1.00;stroke:rgb(0, 0, 0)" x1="434.0" x2="479.5025333955405" y1="326.8555068187395" y2="339.0478738956448" /><line style="fill:hsl(0, 0%, 0%);stroke-width:1.00;stroke:rgb(0, 0, 0)" x1="440.0" x2="486.9284299939761" y1="320.8555068187395" y2="324.9612124402824" /><line style="fill:hsl(0, 0%, 0%);stroke-width:1.00;stroke:rgb(0, 0, 0)" x1="434.0" x2="480.9284299939761" y1="314.8555068187395" y2="310.74980119719663" /></svg>