<?xml version="1.0" encoding="utf-8" ?>
<svg baseProfile="full" height="100%" version="1.1" width="100%" xmlns="http://www.w3.org/2000/svg" xmlns:ev="http://www.w3.org/2001/xml-events" xmlns:xlink="http://www.w3.org/1999/xlink"><defs /><path d="M 297.96 293.76 L 232.21 185.87 A 48.58667504905487 48.58667504905487 0 0,1 260.79432946549866 142.08648785200768 L 386.02 158.88" style="fill:hsl(45, 1%, 51%);stroke-width:1.00;stroke:rgb(0, 0, 0)" /><path d="M 502.04 293.76 L 567.79 185.87 A 48.58667504905487 48.58667504905487 0 0,0 539.2056705345013 142.08648785200768 L 413.98 158.88" style="fill:hsl(45, 1%, 51%);stroke-width:1.00;stroke:rgb(0, 0, 0)" /><ellipse cx="400.0" cy="300.0" rx="186.69943599092784" ry="160.30578689832956" style="fill:hsl(45, 1%, 51%);stroke-width:1.00;stroke:rgb(0, 0, 0)" /><ellipse cx="336.98067233402406" cy="259.9235532754176" rx="7.909529311596564" ry="11.837351237343356" style="fill:hsl(0, 0%, 0%);stroke-width:1.00;stroke:rgb(0, 0, 0)" /><ellipse cx="463.01932766597594" cy="259.9235532754176" rx="7.909529311596564" ry="11.837351237343356" style="fill:hsl(0, 0%, 0%);stroke-width:1.00;stroke:rgb(0, 0, 0)" /><polygon points="389.1194793740369,296.37315979134564 410.8805206259631,296.37315979134564 400.0,310.8805206259631" style="fill:hsl(0, 0%, 0%);stroke-width:1.00;stroke:rgb(0, 0, 0)" /><line style="fill:hsl(0, 0%, 0%);stroke-width:2.00;stroke:rgb(0, 0, 0)" x1="400.0" x2="400.0" y1="310.8805206259631" y2="327.20130156490774" /><path d="M 378 331 A 21.761041251926198 21.761041251926198 30 0,0 400.0 327.20130156490774 A 21.761041251926198 21.761041251926198 150 0,0 421.7610412519262 331.20130156490774" style="fill:none;stroke-width:2.00;stroke:rgb(0, 0, 0)" /><line style="fill:hsl(0, 0%, 0%);stroke-width:1.00;stroke:rgb(0, 0, 0)" x1="366.0" x2="312.5360420171248" y1="320.8805206259631" y2="335.20614499164594" /><line style="fill:hsl(0, 0%, 0%);stroke-width:1.00;stroke:rgb(0, 0, 0)" x1="360.0" x2="304.86066110670384" y1="314.8805206259631" y2="319.70458769344054" /><line style="fill:hsl(0, 0%, 0%);stroke-width:1.00;stroke:rgb(0, 0, 0)" x1="366.0" x2="310.86066110670384" y1="308.8805206259631" y2="304.0564535584856" /><line style="fill:hsl(0, 0%, 0%);stroke-width:1.00;stroke:rgb(0, 0, 0)" x1="434.0" x2="487.4639579828752" y1="320.8805206259631" y2="335.20614499164594" /><line style="fill:hsl(0, 0%, 0%);stroke-width:1.00;stroke:rgb(0, 0, 0)" x1="440.0" x2="495.13933889329616" y1="314.8805206259631" y2="319.70458769344054" /><line style="fill:hsl(0, 0%, 0%);stroke-width:1.00;stroke:rgb(0, 0, 0)" x1="434.0" x2="489.13933889329616" y1="308.8805206259631" y2="304.0564535584856" /></svg>