<?xml version="1.0" encoding="utf-8" ?>
<svg baseProfile="full" height="100%" version="1.1" width="100%" xmlns="http://www.w3.org/2000/svg" xmlns:ev="http://www.w3.org/2001/xml-events" xmlns:xlink="http://www.w3.org/1999/xlink"><defs /><path d="M 307.92 321.64 L 209.22 221.39 A 40.274947684451945 40.274947684451945 0 0,1 223.07210039217875 174.69660237723525 L 360.47 144.47" style="fill:hsl(45, 18%, 68%);stroke-width:1.00;stroke:rgb(0, 0, 0)" /><path d="M 492.08 321.64 L 590.78 221.39 A 40.274947684451945 40.274947684451945 0 0,0 576.9278996078212 174.69660237723525 L 439.53 144.47" style="fill:hsl(45, 18%, 68%);stroke-width:1.00;stroke:rgb(0, 0, 0)" /><ellipse cx="400.0" cy="300.0" rx="162.93618678500314" ry="183.6854083217977" style="fill:hsl(45, 18%, 68%);stroke-width:1.00;stroke:rgb(0, 0, 0)" /><ellipse cx="330.34048518975646" cy="254.07864791955058" rx="9.258872956681016" ry="12.948154579647642" style="fill:hsl(0, 0%, 0%);stroke-width:1.00;stroke:rgb(0, 0, 0)" /><ellipse cx="469.65951481024354" cy="254.07864791955058" rx="9.258872956681016" ry="12.948154579647642" style="fill:hsl(0, 0%, 0%);stroke-width:1.00;stroke:rgb(0, 0, 0)" /><polygon points="386.46237262196706,295.48745754065567 413.53762737803294,295.48745754065567 400.0,313.53762737803294" style="fill:hsl(0, 0%, 0%);stroke-width:1.00;stroke:rgb(0, 0, 0)" /><line style="fill:hsl(0, 0%, 0%);stroke-width:2.00;stroke:rgb(0, 0, 0)" x1="400.0" x2="400.0" y1="313.53762737803294" y2="333.8440684450823" /><path d="M 372 337 A 27.075254756065856 27.075254756065856 30 0,0 400.0 333.8440684450823 A 27.075254756065856 27.075254756065856 150 0,0 427.0752547560659 337.8440684450823" style="fill:none;stroke-width:2.00;stroke:rgb(0, 0, 0)" /><line style="fill:hsl(0, 0%, 0%);stroke-width:1.00;stroke:rgb(0, 0, 0)" x1="366.0" x2="341.311266055882" y1="323.53762737803294" y2="330.1529537005062" /><line style="fill:hsl(0, 0%, 0%);stroke-width:1.00;stroke:rgb(0, 0, 0)" x1="360.0" x2="334.53760403920734" y1="317.53762737803294" y2="319.76529837081057" /><line style="fill:hsl(0, 0%, 0%);stroke-width:1.00;stroke:rgb(0, 0, 0)" x1="366.0" x2="340.53760403920734" y1="311.53762737803294" y2="309.3099563852553" /><line style="fill:hsl(0, 0%, 0%);stroke-width:1.00;stroke:rgb(0, 0, 0)" x1="434.0" x2="458.688733944118" y1="323.53762737803294" y2="330.1529537005062" /><line style="fill:hsl(0, 0%, 0%);stroke-width:1.00;stroke:rgb(0, 0, 0)" x1="440.0" x2="465.46239596079266" y1="317.53762737803294" y2="319.76529837081057" /><line style="fill:hsl(0, 0%, 0%);stroke-width:1.00;stroke:rgb(0, 0, 0)" x1="434.0" x2="459.46239596079266" y1="311.53762737803294" y2="309.3099563852553" /></svg>