<?xml version="1.0" encoding="utf-8" ?>
<svg baseProfile="full" height="100%" version="1.1" width="100%" xmlns="http://www.w3.org/2000/svg" xmlns:ev="http://www.w3.org/2001/xml-events" xmlns:xlink="http://www.w3.org/1999/xlink"><defs /><path d="M 300.36 334.92 L 123.86 254.85 A 6.170192302188191 6.170192302188191 0 0,1 124.16938321677685 249.28531365705868 L 308.57 189.60" style="fill:hsl(45, 40%, 48%);stroke-width:1.00;stroke:rgb(0, 0, 0)" /><path d="M 499.64 334.92 L 676.14 254.85 A 6.170192302188191 6.170192302188191 0 0,0 675.8306167832231 249.28531365705868 L 491.43 189.60" style="fill:hsl(45, 40%, 48%);stroke-width:1.00;stroke:rgb(0, 0, 0)" /><ellipse cx="400.0" cy="300.0" rx="197.5931506355691" ry="151.46780090165953" style="fill:hsl(45, 40%, 48%);stroke-width:1.00;stroke:rgb(0, 0, 0)" /><ellipse cx="334.14005030673775" cy="262.1330497745851" rx="10.21179886133707" ry="10.599470510868485" style="fill:hsl(0, 0%, 0%);stroke-width:1.00;stroke:rgb(0, 0, 0)" /><ellipse cx="465.85994969326225" cy="262.1330497745851" rx="10.21179886133707" ry="10.599470510868485" style="fill:hsl(0, 0%, 0%);stroke-width:1.00;stroke:rgb(0, 0, 0)" /><polygon points="388.9325473718136,296.3108491239379 411.0674526281864,296.3108491239379 400.0,311.0674526281864" style="fill:hsl(0, 0%, 0%);stroke-width:1.00;stroke:rgb(0, 0, 0)" /><line style="fill:hsl(0, 0%, 0%);stroke-width:2.00;stroke:rgb(0, 0, 0)" x1="400.0" x2="400.0" y1="311.0674526281864" y2="327.66863157046595" /><path d="M 377 331 A 22.13490525637278 22.13490525637278 30 0,0 400.0 327.66863157046595 A 22.13490525637278 22.13490525637278 150 0,0 422.1349052563728 331.66863157046595" style="fill:none;stroke-width:2.00;stroke:rgb(0, 0, 0)" /><line style="fill:hsl(0, 0%, 0%);stroke-width:1.00;stroke:rgb(0, 0, 0)" x1="366.0" x2="341.059768730388" y1="321.0674526281864" y2="327.7501674559244" /><line style="fill:hsl(0, 0%, 0%);stroke-width:1.00;stroke:rgb(0, 0, 0)" x1="360.0" x2="334.2782256320641" y1="315.0674526281864" y2="317.3178162911525" /><line style="fill:hsl(0, 0%, 0%);stroke-width:1.00;stroke:rgb(0, 0, 0)" x1="366.0" x2="340.2782256320641" y1="309.0674526281864" y2="306.8170889652203" /><line style="fill:hsl(0, 0%, 0%);stroke-width:1.00;stroke:rgb(0, 0, 0)" x1="434.0" x2="458.940231269612" y1="321.0674526281864" y2="327.7501674559244" /><line style="fill:hsl(0, 0%, 0%);stroke-width:1.00;stroke:rgb(0, 0, 0)" x1="440.0" x2="465.7217743679359" y1="315.0674526281864" y2="317.3178162911525" /><line style="fill:hsl(0, 0%, 0%);stroke-width:1.00;stroke:rgb(0, 0, 0)" x1="434.0" x2="459.7217743679359" y1="309.0674526281864" y2="306.8170889652203" /></svg>