<?xml version="1.0" encoding="utf-8" ?>
<svg baseProfile="full" height="100%" version="1.1" width="100%" xmlns="http://www.w3.org/2000/svg" xmlns:ev="http://www.w3.org/2001/xml-events" xmlns:xlink="http://www.w3.org/1999/xlink"><defs /><path d="M 399.73 404.34 L 189.73 444.84 A 14.404724954311343 14.404724954311343 0 0,1 180.79289913208333 432.5090917140218 L 284.67 245.56" style="fill:hsl(45, 1%, 76%);stroke-width:1.00;stroke:rgb(0, 0, 0)" /><path d="M 400.27 404.34 L 610.27 444.84 A 14.404724954311343 14.404724954311343 0 0,0 619.2071008679167 432.5090917140218 L 515.33 245.56" style="fill:hsl(45, 1%, 76%);stroke-width:1.00;stroke:rgb(0, 0, 0)" /><ellipse cx="400.0" cy="300.0" rx="159.51227570917214" ry="187.6281926700582" style="fill:hsl(45, 1%, 76%);stroke-width:1.00;stroke:rgb(0, 0, 0)" /><ellipse cx="334.1755849632063" cy="253.09295183248545" rx="14.591809534163872" ry="14.927308929324209" style="fill:hsl(0, 0%, 0%);stroke-width:1.00;stroke:rgb(0, 0, 0)" /><ellipse cx="465.8244150367937" cy="253.09295183248545" rx="14.591809534163872" ry="14.927308929324209" style="fill:hsl(0, 0%, 0%);stroke-width:1.00;stroke:rgb(0, 0, 0)" /><polygon points="383.6096264303279,294.53654214344266 416.3903735696721,294.53654214344266 400.0,316.3903735696721" style="fill:hsl(0, 0%, 0%);stroke-width:1.00;stroke:rgb(0, 0, 0)" /><line style="fill:hsl(0, 0%, 0%);stroke-width:2.00;stroke:rgb(0, 0, 0)" x1="400.0" x2="400.0" y1="316.3903735696721" y2="340.9759339241802" /><path d="M 367 344 A 32.78074713934416 32.78074713934416 30 0,0 400.0 340.9759339241802 A 32.78074713934416 32.78074713934416 150 0,0 432.78074713934416 344.9759339241802" style="fill:none;stroke-width:2.00;stroke:rgb(0, 0, 0)" /><line style="fill:hsl(0, 0%, 0%);stroke-width:1.00;stroke:rgb(0, 0, 0)" x1="366.0" x2="309.381291766133" y1="326.3903735696721" y2="341.5613107174301" /><line style="fill:hsl(0, 0%, 0%);stroke-width:1.00;stroke:rgb(0, 0, 0)" x1="360.0" x2="301.60705157654394" y1="320.3903735696721" y2="325.49909458657845" /><line style="fill:hsl(0, 0%, 0%);stroke-width:1.00;stroke:rgb(0, 0, 0)" x1="366.0" x2="307.60705157654394" y1="314.3903735696721" y2="309.2816525527657" /><line style="fill:hsl(0, 0%, 0%);stroke-width:1.00;stroke:rgb(0, 0, 0)" x1="434.0" x2="490.618708233867" y1="326.3903735696721" y2="341.5613107174301" /><line style="fill:hsl(0, 0%, 0%);stroke-width:1.00;stroke:rgb(0, 0, 0)" x1="440.0" x2="498.39294842345606" y1="320.3903735696721" y2="325.49909458657845" /><line style="fill:hsl(0, 0%, 0%);stroke-width:1.00;stroke:rgb(0, 0, 0)" x1="434.0" x2="492.39294842345606" y1="314.3903735696721" y2="309.2816525527657" /></svg>