<?xml version="1.0" encoding="utf-8" ?>
<svg baseProfile="full" height="100%" version="1.1" width="100%" xmlns="http://www.w3.org/2000/svg" xmlns:ev="http://www.w3.org/2001/xml-events" xmlns:xlink="http://www.w3.org/1999/xlink"><defs /><path d="M 340.14 383.46 L 181.36 379.03 A 27.809872467183688 27.809872467183688 0 0,1 165.63007916389995 348.95936943495326 L 252.52 216.00" style="fill:hsl(45, 16%, 44%);stroke-width:1.00;stroke:rgb(0, 0, 0)" /><path d="M 459.86 383.46 L 618.64 379.03 A 27.809872467183688 27.809872467183688 0 0,0 634.3699208361 348.95936943495326 L 547.48 216.00" style="fill:hsl(45, 16%, 44%);stroke-width:1.00;stroke:rgb(0, 0, 0)" /><ellipse cx="400.0" cy="300.0" rx="178.07791081700333" ry="168.06688635715005" style="fill:hsl(45, 16%, 44%);stroke-width:1.00;stroke:rgb(0, 0, 0)" /><ellipse cx="338.4543046815018" cy="257.9832784107125" rx="11.76472756858503" ry="14.097371340478318" style="fill:hsl(0, 0%, 0%);stroke-width:1.00;stroke:rgb(0, 0, 0)" /><ellipse cx="461.5456953184982" cy="257.9832784107125" rx="11.76472756858503" ry="14.097371340478318" style="fill:hsl(0, 0%, 0%);stroke-width:1.00;stroke:rgb(0, 0, 0)" /><polygon points="385.3251198747112,295.1083732915704 414.6748801252888,295.1083732915704 400.0,314.6748801252888" style="fill:hsl(0, 0%, 0%);stroke-width:1.00;stroke:rgb(0, 0, 0)" /><line style="fill:hsl(0, 0%, 0%);stroke-width:2.00;stroke:rgb(0, 0, 0)" x1="400.0" x2="400.0" y1="314.6748801252888" y2="336.6872003132219" /><path d="M 370 340 A 29.349760250577543 29.349760250577543 30 0,0 400.0 336.6872003132219 A 29.349760250577543 29.349760250577543 150 0,0 429.34976025057756 340.6872003132219" style="fill:none;stroke-width:2.00;stroke:rgb(0, 0, 0)" /><line style="fill:hsl(0, 0%, 0%);stroke-width:1.00;stroke:rgb(0, 0, 0)" x1="366.0" x2="328.3682367887526" y1="324.6748801252888" y2="334.7582806875018" /><line style="fill:hsl(0, 0%, 0%);stroke-width:1.00;stroke:rgb(0, 0, 0)" x1="360.0" x2="321.18898369773" y1="318.6748801252888" y2="322.0704040716572" /><line style="fill:hsl(0, 0%, 0%);stroke-width:1.00;stroke:rgb(0, 0, 0)" x1="366.0" x2="327.18898369773" y1="312.6748801252888" y2="309.27935617892035" /><line style="fill:hsl(0, 0%, 0%);stroke-width:1.00;stroke:rgb(0, 0, 0)" x1="434.0" x2="471.6317632112474" y1="324.6748801252888" y2="334.7582806875017" /><line style="fill:hsl(0, 0%, 0%);stroke-width:1.00;stroke:rgb(0, 0, 0)" x1="440.0" x2="478.81101630227" y1="318.6748801252888" y2="322.07040407165726" /><line style="fill:hsl(0, 0%, 0%);stroke-width:1.00;stroke:rgb(0, 0, 0)" x1="434.0" x2="472.81101630227" y1="312.6748801252888" y2="309.27935617892035" /></svg>