<?xml version="1.0" encoding="utf-8" ?>
<svg baseProfile="full" height="100%" version="1.1" width="100%" xmlns="http://www.w3.org/2000/svg" xmlns:ev="http://www.w3.org/2001/xml-events" xmlns:xlink="http://www.w3.org/1999/xlink"><defs /><path d="M 371.13 391.61 L 185.37 405.59 A 6.816114227774641 6.816114227774641 0 0,1 181.59223498706478 399.13488888128234 L 284.69 243.98" style="fill:hsl(45, 56%, 32%);stroke-width:1.00;stroke:rgb(0, 0, 0)" /><path d="M 428.87 391.61 L 614.63 405.59 A 6.816114227774641 6.816114227774641 0 0,0 618.4077650129352 399.13488888128234 L 515.31 243.98" style="fill:hsl(45, 56%, 32%);stroke-width:1.00;stroke:rgb(0, 0, 0)" /><ellipse cx="400.0" cy="300.0" rx="152.70751041087448" ry="195.98905069877114" style="fill:hsl(45, 56%, 32%);stroke-width:1.00;stroke:rgb(0, 0, 0)" /><ellipse cx="345.251730673119" cy="251.0027373253072" rx="7.064718502281168" ry="11.57731206244669" style="fill:hsl(0, 0%, 0%);stroke-width:1.00;stroke:rgb(0, 0, 0)" /><ellipse cx="454.748269326881" cy="251.0027373253072" rx="7.064718502281168" ry="11.57731206244669" style="fill:hsl(0, 0%, 0%);stroke-width:1.00;stroke:rgb(0, 0, 0)" /><polygon points="389.51668991799573,296.5055633059986 410.48331008200427,296.5055633059986 400.0,310.48331008200427" style="fill:hsl(0, 0%, 0%);stroke-width:1.00;stroke:rgb(0, 0, 0)" /><line style="fill:hsl(0, 0%, 0%);stroke-width:2.00;stroke:rgb(0, 0, 0)" x1="400.0" x2="400.0" y1="310.48331008200427" y2="326.2082752050107" /><path d="M 379 330 A 20.966620164008575 20.966620164008575 30 0,0 400.0 326.2082752050107 A 20.966620164008575 20.966620164008575 150 0,0 420.9666201640086 330.2082752050107" style="fill:none;stroke-width:2.00;stroke:rgb(0, 0, 0)" /><line style="fill:hsl(0, 0%, 0%);stroke-width:1.00;stroke:rgb(0, 0, 0)" x1="366.0" x2="317.8878143148959" y1="320.48331008200427" y2="333.37493138242417" /><line style="fill:hsl(0, 0%, 0%);stroke-width:1.00;stroke:rgb(0, 0, 0)" x1="360.0" x2="310.3801399769564" y1="314.48331008200427" y2="318.82448531976377" /><line style="fill:hsl(0, 0%, 0%);stroke-width:1.00;stroke:rgb(0, 0, 0)" x1="366.0" x2="316.3801399769564" y1="308.48331008200427" y2="304.14213484424477" /><line style="fill:hsl(0, 0%, 0%);stroke-width:1.00;stroke:rgb(0, 0, 0)" x1="434.0" x2="482.1121856851041" y1="320.48331008200427" y2="333.37493138242417" /><line style="fill:hsl(0, 0%, 0%);stroke-width:1.00;stroke:rgb(0, 0, 0)" x1="440.0" x2="489.6198600230436" y1="314.48331008200427" y2="318.82448531976377" /><line style="fill:hsl(0, 0%, 0%);stroke-width:1.00;stroke:rgb(0, 0, 0)" x1="434.0" x2="483.6198600230436" y1="308.48331008200427" y2="304.14213484424477" /></svg>