<?xml version="1.0" encoding="utf-8" ?>
<svg baseProfile="full" height="100%" version="1.1" width="100%" xmlns="http://www.w3.org/2000/svg" xmlns:ev="http://www.w3.org/2001/xml-events" xmlns:xlink="http://www.w3.org/1999/xlink"><defs /><path d="M 297.90 323.50 L 190.56 197.65 A 29.577378142828856 29.577378142828856 0 0,1 203.10683370282152 175.15311869561458 L 366.58 200.33" style="fill:hsl(45, 32%, 71%);stroke-width:1.00;stroke:rgb(0, 0, 0)" /><path d="M 502.10 323.50 L 609.44 197.65 A 29.577378142828856 29.577378142828856 0 0,0 596.8931662971785 175.15311869561458 L 433.42 200.33" style="fill:hsl(45, 32%, 71%);stroke-width:1.00;stroke:rgb(0, 0, 0)" /><ellipse cx="400.0" cy="300.0" rx="177.87263336924934" ry="168.26084728767574" style="fill:hsl(45, 32%, 71%);stroke-width:1.00;stroke:rgb(0, 0, 0)" /><ellipse cx="343.5987658681262" cy="257.9347881780811" rx="10.819513831398849" ry="14.634449746577333" style="fill:hsl(0, 0%, 0%);stroke-width:1.00;stroke:rgb(0, 0, 0)" /><ellipse cx="456.4012341318738" cy="257.9347881780811" rx="10.819513831398849" ry="14.634449746577333" style="fill:hsl(0, 0%, 0%);stroke-width:1.00;stroke:rgb(0, 0, 0)" /><polygon points="388.9981298520965,296.3327099506988 411.0018701479035,296.3327099506988 400.0,311.0018701479035" style="fill:hsl(0, 0%, 0%);stroke-width:1.00;stroke:rgb(0, 0, 0)" /><line style="fill:hsl(0, 0%, 0%);stroke-width:2.00;stroke:rgb(0, 0, 0)" x1="400.0" x2="400.0" y1="311.0018701479035" y2="327.50467536975873" /><path d="M 377 331 A 22.003740295806992 22.003740295806992 30 0,0 400.0 327.50467536975873 A 22.003740295806992 22.003740295806992 150 0,0 422.003740295807 331.50467536975873" style="fill:none;stroke-width:2.00;stroke:rgb(0, 0, 0)" /><line style="fill:hsl(0, 0%, 0%);stroke-width:1.00;stroke:rgb(0, 0, 0)" x1="366.0" x2="348.14070426959194" y1="321.0018701479035" y2="325.78725401625496" /><line style="fill:hsl(0, 0%, 0%);stroke-width:1.00;stroke:rgb(0, 0, 0)" x1="360.0" x2="341.58105391318037" y1="315.0018701479035" y2="316.6133191245954" /><line style="fill:hsl(0, 0%, 0%);stroke-width:1.00;stroke:rgb(0, 0, 0)" x1="366.0" x2="347.58105391318037" y1="309.0018701479035" y2="307.3904211712116" /><line style="fill:hsl(0, 0%, 0%);stroke-width:1.00;stroke:rgb(0, 0, 0)" x1="434.0" x2="451.85929573040806" y1="321.0018701479035" y2="325.78725401625496" /><line style="fill:hsl(0, 0%, 0%);stroke-width:1.00;stroke:rgb(0, 0, 0)" x1="440.0" x2="458.41894608681963" y1="315.0018701479035" y2="316.6133191245954" /><line style="fill:hsl(0, 0%, 0%);stroke-width:1.00;stroke:rgb(0, 0, 0)" x1="434.0" x2="452.41894608681963" y1="309.0018701479035" y2="307.3904211712116" /></svg>