<?xml version="1.0" encoding="utf-8" ?>
<svg baseProfile="full" height="100%" version="1.1" width="100%" xmlns="http://www.w3.org/2000/svg" xmlns:ev="http://www.w3.org/2001/xml-events" xmlns:xlink="http://www.w3.org/1999/xlink"><defs /><path d="M 409.96 398.92 L 232.85 467.11 A 37.57645780152143 37.57645780152143 0 0,1 202.61094122721636 439.0222746932934 L 257.55 257.36" style="fill:hsl(45, 39%, 71%);stroke-width:1.00;stroke:rgb(0, 0, 0)" /><path d="M 390.04 398.92 L 567.15 467.11 A 37.57645780152143 37.57645780152143 0 0,0 597.3890587727836 439.0222746932934 L 542.45 257.36" style="fill:hsl(45, 39%, 71%);stroke-width:1.00;stroke:rgb(0, 0, 0)" /><ellipse cx="400.0" cy="300.0" rx="168.79163368010316" ry="177.31329063810097" style="fill:hsl(45, 39%, 71%);stroke-width:1.00;stroke:rgb(0, 0, 0)" /><ellipse cx="332.53651621335683" cy="255.67167734047476" rx="7.809185654801475" ry="13.652731231425928" style="fill:hsl(0, 0%, 0%);stroke-width:1.00;stroke:rgb(0, 0, 0)" /><ellipse cx="467.46348378664317" cy="255.67167734047476" rx="7.809185654801475" ry="13.652731231425928" style="fill:hsl(0, 0%, 0%);stroke-width:1.00;stroke:rgb(0, 0, 0)" /><polygon points="382.61369411653095,294.20456470551034 417.38630588346905,294.20456470551034 400.0,317.38630588346905" style="fill:hsl(0, 0%, 0%);stroke-width:1.00;stroke:rgb(0, 0, 0)" /><line style="fill:hsl(0, 0%, 0%);stroke-width:2.00;stroke:rgb(0, 0, 0)" x1="400.0" x2="400.0" y1="317.38630588346905" y2="343.4657647086727" /><path d="M 365 347 A 34.77261176693815 34.77261176693815 30 0,0 400.0 343.4657647086727 A 34.77261176693815 34.77261176693815 150 0,0 434.77261176693816 347.4657647086727" style="fill:none;stroke-width:2.00;stroke:rgb(0, 0, 0)" /><line style="fill:hsl(0, 0%, 0%);stroke-width:1.00;stroke:rgb(0, 0, 0)" x1="366.0" x2="334.4672052875765" y1="327.38630588346905" y2="335.83549276175927" /><line style="fill:hsl(0, 0%, 0%);stroke-width:1.00;stroke:rgb(0, 0, 0)" x1="360.0" x2="327.4790733888806" y1="321.38630588346905" y2="324.23151828930054" /><line style="fill:hsl(0, 0%, 0%);stroke-width:1.00;stroke:rgb(0, 0, 0)" x1="366.0" x2="333.4790733888806" y1="315.38630588346905" y2="312.54109347763756" /><line style="fill:hsl(0, 0%, 0%);stroke-width:1.00;stroke:rgb(0, 0, 0)" x1="434.0" x2="465.5327947124235" y1="327.38630588346905" y2="335.83549276175927" /><line style="fill:hsl(0, 0%, 0%);stroke-width:1.00;stroke:rgb(0, 0, 0)" x1="440.0" x2="472.5209266111194" y1="321.38630588346905" y2="324.23151828930054" /><line style="fill:hsl(0, 0%, 0%);stroke-width:1.00;stroke:rgb(0, 0, 0)" x1="434.0" x2="466.5209266111194" y1="315.38630588346905" y2="312.54109347763756" /></svg>