<?xml version="1.0" encoding="utf-8" ?>
<svg baseProfile="full" height="100%" version="1.1" width="100%" xmlns="http://www.w3.org/2000/svg" xmlns:ev="http://www.w3.org/2001/xml-events" xmlns:xlink="http://www.w3.org/1999/xlink"><defs /><path d="M 294.93 300.62 L 209.78 181.28 A 32.34433441675525 32.34433441675525 0 0,1 225.82026902216467 156.8695474398209 L 369.15 187.71" style="fill:hsl(45, 17%, 32%);stroke-width:1.00;stroke:rgb(0, 0, 0)" /><path d="M 505.07 300.62 L 590.22 181.28 A 32.34433441675525 32.34433441675525 0 0,0 574.1797309778353 156.8695474398209 L 430.85 187.71" style="fill:hsl(45, 17%, 32%);stroke-width:1.00;stroke:rgb(0, 0, 0)" /><ellipse cx="400.0" cy="300.0" rx="190.14941836807756" ry="157.3972734540034" style="fill:hsl(45, 17%, 32%);stroke-width:1.00;stroke:rgb(0, 0, 0)" /><ellipse cx="340.8151523750995" cy="260.65068163649914" rx="10.65116556007112" ry="11.292852825896505" style="fill:hsl(0, 0%, 0%);stroke-width:1.00;stroke:rgb(0, 0, 0)" /><ellipse cx="459.1848476249005" cy="260.65068163649914" rx="10.65116556007112" ry="11.292852825896505" style="fill:hsl(0, 0%, 0%);stroke-width:1.00;stroke:rgb(0, 0, 0)" /><polygon points="388.8550354438765,296.2850118146255 411.1449645561235,296.2850118146255 400.0,311.1449645561235" style="fill:hsl(0, 0%, 0%);stroke-width:1.00;stroke:rgb(0, 0, 0)" /><line style="fill:hsl(0, 0%, 0%);stroke-width:2.00;stroke:rgb(0, 0, 0)" x1="400.0" x2="400.0" y1="311.1449645561235" y2="327.8624113903088" /><path d="M 377 331 A 22.289929112247044 22.289929112247044 30 0,0 400.0 327.8624113903088 A 22.289929112247044 22.289929112247044 150 0,0 422.289929112247 331.8624113903088" style="fill:none;stroke-width:2.00;stroke:rgb(0, 0, 0)" /><line style="fill:hsl(0, 0%, 0%);stroke-width:1.00;stroke:rgb(0, 0, 0)" x1="366.0" x2="308.07166496414044" y1="321.1449645561235" y2="336.6668151478616" /><line style="fill:hsl(0, 0%, 0%);stroke-width:1.00;stroke:rgb(0, 0, 0)" x1="360.0" x2="300.2563854683231" y1="315.1449645561235" y2="320.3718535457079" /><line style="fill:hsl(0, 0%, 0%);stroke-width:1.00;stroke:rgb(0, 0, 0)" x1="366.0" x2="306.2563854683231" y1="309.1449645561235" y2="303.91807556653913" /><line style="fill:hsl(0, 0%, 0%);stroke-width:1.00;stroke:rgb(0, 0, 0)" x1="434.0" x2="491.92833503585956" y1="321.1449645561235" y2="336.6668151478616" /><line style="fill:hsl(0, 0%, 0%);stroke-width:1.00;stroke:rgb(0, 0, 0)" x1="440.0" x2="499.7436145316769" y1="315.1449645561235" y2="320.3718535457079" /><line style="fill:hsl(0, 0%, 0%);stroke-width:1.00;stroke:rgb(0, 0, 0)" x1="434.0" x2="493.7436145316769" y1="309.1449645561235" y2="303.91807556653913" /></svg>