<?xml version="1.0" encoding="utf-8" ?>
<svg baseProfile="full" height="100%" version="1.1" width="100%" xmlns="http://www.w3.org/2000/svg" xmlns:ev="http://www.w3.org/2001/xml-events" xmlns:xlink="http://www.w3.org/1999/xlink"><defs /><path d="M 282.57 296.55 L 238.88 160.92 A 44.56632958475455 44.56632958475455 0 0,1 275.31206965946876 123.38561580217453 L 412.18 163.01" style="fill:hsl(45, 33%, 73%);stroke-width:1.00;stroke:rgb(0, 0, 0)" /><path d="M 517.43 296.55 L 561.12 160.92 A 44.56632958475455 44.56632958475455 0 0,0 524.6879303405312 123.38561580217453 L 387.82 163.01" style="fill:hsl(45, 33%, 73%);stroke-width:1.00;stroke:rgb(0, 0, 0)" /><ellipse cx="400.0" cy="300.0" rx="181.80499419305238" ry="164.62144031213708" style="fill:hsl(45, 33%, 73%);stroke-width:1.00;stroke:rgb(0, 0, 0)" /><ellipse cx="324.38620264815324" cy="258.8446399219657" rx="12.04612936463756" ry="13.536597265478878" style="fill:hsl(0, 0%, 0%);stroke-width:1.00;stroke:rgb(0, 0, 0)" /><ellipse cx="475.61379735184676" cy="258.8446399219657" rx="12.04612936463756" ry="13.536597265478878" style="fill:hsl(0, 0%, 0%);stroke-width:1.00;stroke:rgb(0, 0, 0)" /><polygon points="388.21779964974,296.07259988324665 411.78220035026,296.07259988324665 400.0,311.78220035026" style="fill:hsl(0, 0%, 0%);stroke-width:1.00;stroke:rgb(0, 0, 0)" /><line style="fill:hsl(0, 0%, 0%);stroke-width:2.00;stroke:rgb(0, 0, 0)" x1="400.0" x2="400.0" y1="311.78220035026" y2="329.45550087564993" /><path d="M 376 333 A 23.564400700519926 23.564400700519926 30 0,0 400.0 329.45550087564993 A 23.564400700519926 23.564400700519926 150 0,0 423.5644007005199 333.45550087564993" style="fill:none;stroke-width:2.00;stroke:rgb(0, 0, 0)" /><line style="fill:hsl(0, 0%, 0%);stroke-width:1.00;stroke:rgb(0, 0, 0)" x1="366.0" x2="363.5653428354303" y1="321.78220035026" y2="322.4345647713531" /><line style="fill:hsl(0, 0%, 0%);stroke-width:1.00;stroke:rgb(0, 0, 0)" x1="360.0" x2="357.48904885550746" y1="315.78220035026" y2="316.00188011007054" /><line style="fill:hsl(0, 0%, 0%);stroke-width:1.00;stroke:rgb(0, 0, 0)" x1="366.0" x2="363.48904885550746" y1="309.78220035026" y2="309.5625205904494" /><line style="fill:hsl(0, 0%, 0%);stroke-width:1.00;stroke:rgb(0, 0, 0)" x1="434.0" x2="436.4346571645697" y1="321.78220035026" y2="322.4345647713531" /><line style="fill:hsl(0, 0%, 0%);stroke-width:1.00;stroke:rgb(0, 0, 0)" x1="440.0" x2="442.51095114449254" y1="315.78220035026" y2="316.00188011007054" /><line style="fill:hsl(0, 0%, 0%);stroke-width:1.00;stroke:rgb(0, 0, 0)" x1="434.0" x2="436.51095114449254" y1="309.78220035026" y2="309.5625205904494" /></svg>