<?xml version="1.0" encoding="utf-8" ?>
<svg baseProfile="full" height="100%" version="1.1" width="100%" xmlns="http://www.w3.org/2000/svg" xmlns:ev="http://www.w3.org/2001/xml-events" xmlns:xlink="http://www.w3.org/1999/xlink"><defs /><path d="M 404.52 387.73 L 224.33 466.89 A 29.45315517682431 29.45315517682431 0 0,1 200.61349853127 446.2669953111232 L 254.05 256.84" style="fill:hsl(45, 5%, 47%);stroke-width:1.00;stroke:rgb(0, 0, 0)" /><path d="M 395.48 387.73 L 575.67 466.89 A 29.45315517682431 29.45315517682431 0 0,0 599.38650146873 446.2669953111232 L 545.95 256.84" style="fill:hsl(45, 5%, 47%);stroke-width:1.00;stroke:rgb(0, 0, 0)" /><ellipse cx="400.0" cy="300.0" rx="163.23216759509754" ry="183.3523406626555" style="fill:hsl(45, 5%, 47%);stroke-width:1.00;stroke:rgb(0, 0, 0)" /><ellipse cx="343.11531949784546" cy="254.16191483433613" rx="5.865432620373922" ry="10.221346745173012" style="fill:hsl(0, 0%, 0%);stroke-width:1.00;stroke:rgb(0, 0, 0)" /><ellipse cx="456.88468050215454" cy="254.16191483433613" rx="5.865432620373922" ry="10.221346745173012" style="fill:hsl(0, 0%, 0%);stroke-width:1.00;stroke:rgb(0, 0, 0)" /><polygon points="386.1960521168259,295.39868403894195 413.8039478831741,295.39868403894195 400.0,313.8039478831741" style="fill:hsl(0, 0%, 0%);stroke-width:1.00;stroke:rgb(0, 0, 0)" /><line style="fill:hsl(0, 0%, 0%);stroke-width:2.00;stroke:rgb(0, 0, 0)" x1="400.0" x2="400.0" y1="313.8039478831741" y2="334.5098697079352" /><path d="M 372 338 A 27.607895766348147 27.607895766348147 30 0,0 400.0 334.5098697079352 A 27.607895766348147 27.607895766348147 150 0,0 427.6078957663481 338.5098697079352" style="fill:none;stroke-width:2.00;stroke:rgb(0, 0, 0)" /><line style="fill:hsl(0, 0%, 0%);stroke-width:1.00;stroke:rgb(0, 0, 0)" x1="366.0" x2="357.6177646095214" y1="323.8039478831741" y2="326.0499610868204" /><line style="fill:hsl(0, 0%, 0%);stroke-width:1.00;stroke:rgb(0, 0, 0)" x1="360.0" x2="351.3550935000543" y1="317.8039478831741" y2="318.5602791991609" /><line style="fill:hsl(0, 0%, 0%);stroke-width:1.00;stroke:rgb(0, 0, 0)" x1="366.0" x2="357.3550935000543" y1="311.8039478831741" y2="311.0476165671873" /><line style="fill:hsl(0, 0%, 0%);stroke-width:1.00;stroke:rgb(0, 0, 0)" x1="434.0" x2="442.3822353904786" y1="323.8039478831741" y2="326.0499610868204" /><line style="fill:hsl(0, 0%, 0%);stroke-width:1.00;stroke:rgb(0, 0, 0)" x1="440.0" x2="448.6449064999457" y1="317.8039478831741" y2="318.5602791991609" /><line style="fill:hsl(0, 0%, 0%);stroke-width:1.00;stroke:rgb(0, 0, 0)" x1="434.0" x2="442.6449064999457" y1="311.8039478831741" y2="311.0476165671873" /></svg>