<?xml version="1.0" encoding="utf-8" ?>
<svg baseProfile="full" height="100%" version="1.1" width="100%" xmlns="http://www.w3.org/2000/svg" xmlns:ev="http://www.w3.org/2001/xml-events" xmlns:xlink="http://www.w3.org/1999/xlink"><defs /><path d="M 386.13 401.24 L 197.12 418.47 A 55.3163839801925 55.3163839801925 0 0,1 171.4757724797356 370.77721694018237 L 290.10 222.62" style="fill:hsl(45, 26%, 31%);stroke-width:1.00;stroke:rgb(0, 0, 0)" /><path d="M 413.87 401.24 L 602.88 418.47 A 55.3163839801925 55.3163839801925 0 0,0 628.5242275202644 370.77721694018237 L 509.90 222.62" style="fill:hsl(45, 26%, 31%);stroke-width:1.00;stroke:rgb(0, 0, 0)" /><ellipse cx="400.0" cy="300.0" rx="186.97124284150388" ry="160.07274458442205" style="fill:hsl(45, 26%, 31%);stroke-width:1.00;stroke:rgb(0, 0, 0)" /><ellipse cx="337.1920788413992" cy="259.9818138538945" rx="12.592804645892528" ry="14.502927903126112" style="fill:hsl(0, 0%, 0%);stroke-width:1.00;stroke:rgb(0, 0, 0)" /><ellipse cx="462.8079211586008" cy="259.9818138538945" rx="12.592804645892528" ry="14.502927903126112" style="fill:hsl(0, 0%, 0%);stroke-width:1.00;stroke:rgb(0, 0, 0)" /><polygon points="383.36066789836775,294.45355596612256 416.63933210163225,294.45355596612256 400.0,316.63933210163225" style="fill:hsl(0, 0%, 0%);stroke-width:1.00;stroke:rgb(0, 0, 0)" /><line style="fill:hsl(0, 0%, 0%);stroke-width:2.00;stroke:rgb(0, 0, 0)" x1="400.0" x2="400.0" y1="316.63933210163225" y2="341.5983302540806" /><path d="M 366 345 A 33.2786642032645 33.2786642032645 30 0,0 400.0 341.5983302540806 A 33.2786642032645 33.2786642032645 150 0,0 433.2786642032645 345.5983302540806" style="fill:none;stroke-width:2.00;stroke:rgb(0, 0, 0)" /><line style="fill:hsl(0, 0%, 0%);stroke-width:1.00;stroke:rgb(0, 0, 0)" x1="366.0" x2="344.63683370831853" y1="326.63933210163225" y2="332.3635752572601" /><line style="fill:hsl(0, 0%, 0%);stroke-width:1.00;stroke:rgb(0, 0, 0)" x1="360.0" x2="337.9673838145659" y1="320.63933210163225" y2="322.5669362456755" /><line style="fill:hsl(0, 0%, 0%);stroke-width:1.00;stroke:rgb(0, 0, 0)" x1="366.0" x2="343.9673838145659" y1="314.63933210163225" y2="312.71172795758895" /><line style="fill:hsl(0, 0%, 0%);stroke-width:1.00;stroke:rgb(0, 0, 0)" x1="434.0" x2="455.36316629168147" y1="326.63933210163225" y2="332.3635752572601" /><line style="fill:hsl(0, 0%, 0%);stroke-width:1.00;stroke:rgb(0, 0, 0)" x1="440.0" x2="462.0326161854341" y1="320.63933210163225" y2="322.56693624567555" /><line style="fill:hsl(0, 0%, 0%);stroke-width:1.00;stroke:rgb(0, 0, 0)" x1="434.0" x2="456.0326161854341" y1="314.63933210163225" y2="312.71172795758895" /></svg>