<?xml version="1.0" encoding="utf-8" ?>
<svg baseProfile="full" height="100%" version="1.1" width="100%" xmlns="http://www.w3.org/2000/svg" xmlns:ev="http://www.w3.org/2001/xml-events" xmlns:xlink="http://www.w3.org/1999/xlink"><defs /><path d="M 369.70 388.03 L 191.08 399.00 A 37.87395006810848 37.87395006810848 0 0,1 174.23808000193947 365.61848011570197 L 289.19 228.47" style="fill:hsl(45, 8%, 58%);stroke-width:1.00;stroke:rgb(0, 0, 0)" /><path d="M 430.30 388.03 L 608.92 399.00 A 37.87395006810848 37.87395006810848 0 0,0 625.7619199980605 365.61848011570197 L 510.81 228.47" style="fill:hsl(45, 8%, 58%);stroke-width:1.00;stroke:rgb(0, 0, 0)" /><ellipse cx="400.0" cy="300.0" rx="172.77129027488044" ry="173.22901248455537" style="fill:hsl(45, 8%, 58%);stroke-width:1.00;stroke:rgb(0, 0, 0)" /><ellipse cx="338.7331240823952" cy="256.69274687886116" rx="8.23925367679726" ry="11.214807980014772" style="fill:hsl(0, 0%, 0%);stroke-width:1.00;stroke:rgb(0, 0, 0)" /><ellipse cx="461.2668759176048" cy="256.69274687886116" rx="8.23925367679726" ry="11.214807980014772" style="fill:hsl(0, 0%, 0%);stroke-width:1.00;stroke:rgb(0, 0, 0)" /><polygon points="385.03077333925063,295.0102577797502 414.96922666074937,295.0102577797502 400.0,314.96922666074937" style="fill:hsl(0, 0%, 0%);stroke-width:1.00;stroke:rgb(0, 0, 0)" /><line style="fill:hsl(0, 0%, 0%);stroke-width:2.00;stroke:rgb(0, 0, 0)" x1="400.0" x2="400.0" y1="314.96922666074937" y2="337.42306665187346" /><path d="M 370 341 A 29.93845332149874 29.93845332149874 30 0,0 400.0 337.42306665187346 A 29.93845332149874 29.93845332149874 150 0,0 429.93845332149874 341.42306665187346" style="fill:none;stroke-width:2.00;stroke:rgb(0, 0, 0)" /><line style="fill:hsl(0, 0%, 0%);stroke-width:1.00;stroke:rgb(0, 0, 0)" x1="366.0" x2="336.5068337429449" y1="324.96922666074937" y2="332.8718967415641" /><line style="fill:hsl(0, 0%, 0%);stroke-width:1.00;stroke:rgb(0, 0, 0)" x1="360.0" x2="329.58261695093756" y1="318.96922666074937" y2="321.63040285166795" /><line style="fill:hsl(0, 0%, 0%);stroke-width:1.00;stroke:rgb(0, 0, 0)" x1="366.0" x2="335.58261695093756" y1="312.96922666074937" y2="310.3080504698308" /><line style="fill:hsl(0, 0%, 0%);stroke-width:1.00;stroke:rgb(0, 0, 0)" x1="434.0" x2="463.4931662570551" y1="324.96922666074937" y2="332.8718967415641" /><line style="fill:hsl(0, 0%, 0%);stroke-width:1.00;stroke:rgb(0, 0, 0)" x1="440.0" x2="470.41738304906244" y1="318.96922666074937" y2="321.63040285166795" /><line style="fill:hsl(0, 0%, 0%);stroke-width:1.00;stroke:rgb(0, 0, 0)" x1="434.0" x2="464.41738304906244" y1="312.96922666074937" y2="310.3080504698308" /></svg>