<?xml version="1.0" encoding="utf-8" ?>
<svg baseProfile="full" height="100%" version="1.1" width="100%" xmlns="http://www.w3.org/2000/svg" xmlns:ev="http://www.w3.org/2001/xml-events" xmlns:xlink="http://www.w3.org/1999/xlink"><defs /><path d="M 397.96 370.61 L 177.22 409.69 A 22.914339768322336 22.914339768322336 0 0,1 164.10063044222431 390.3353282724588 L 282.16 199.77" style="fill:hsl(45, 1%, 60%);stroke-width:1.00;stroke:rgb(0, 0, 0)" /><path d="M 402.04 370.61 L 622.78 409.69 A 22.914339768322336 22.914339768322336 0 0,0 635.8993695577757 390.3353282724588 L 517.84 199.77" style="fill:hsl(45, 1%, 60%);stroke-width:1.00;stroke:rgb(0, 0, 0)" /><ellipse cx="400.0" cy="300.0" rx="156.32519214492984" ry="191.4534669002849" style="fill:hsl(45, 1%, 60%);stroke-width:1.00;stroke:rgb(0, 0, 0)" /><ellipse cx="326.55028010000393" cy="252.13663327492878" rx="5.930261384333545" ry="11.440418963790222" style="fill:hsl(0, 0%, 0%);stroke-width:1.00;stroke:rgb(0, 0, 0)" /><ellipse cx="473.44971989999607" cy="252.13663327492878" rx="5.930261384333545" ry="11.440418963790222" style="fill:hsl(0, 0%, 0%);stroke-width:1.00;stroke:rgb(0, 0, 0)" /><polygon points="388.9226759864001,296.3075586621334 411.0773240135999,296.3075586621334 400.0,311.0773240135999" style="fill:hsl(0, 0%, 0%);stroke-width:1.00;stroke:rgb(0, 0, 0)" /><line style="fill:hsl(0, 0%, 0%);stroke-width:2.00;stroke:rgb(0, 0, 0)" x1="400.0" x2="400.0" y1="311.0773240135999" y2="327.6933100339997" /><path d="M 377 331 A 22.154648027199766 22.154648027199766 30 0,0 400.0 327.6933100339997 A 22.154648027199766 22.154648027199766 150 0,0 422.15464802719976 331.6933100339997" style="fill:none;stroke-width:2.00;stroke:rgb(0, 0, 0)" /><line style="fill:hsl(0, 0%, 0%);stroke-width:1.00;stroke:rgb(0, 0, 0)" x1="366.0" x2="311.9054883224078" y1="321.0773240135999" y2="335.5719047325666" /><line style="fill:hsl(0, 0%, 0%);stroke-width:1.00;stroke:rgb(0, 0, 0)" x1="360.0" x2="304.210347976603" y1="315.0773240135999" y2="319.95828610770326" /><line style="fill:hsl(0, 0%, 0%);stroke-width:1.00;stroke:rgb(0, 0, 0)" x1="366.0" x2="310.210347976603" y1="309.0773240135999" y2="304.1963619194965" /><line style="fill:hsl(0, 0%, 0%);stroke-width:1.00;stroke:rgb(0, 0, 0)" x1="434.0" x2="488.0945116775922" y1="321.0773240135999" y2="335.5719047325666" /><line style="fill:hsl(0, 0%, 0%);stroke-width:1.00;stroke:rgb(0, 0, 0)" x1="440.0" x2="495.789652023397" y1="315.0773240135999" y2="319.95828610770326" /><line style="fill:hsl(0, 0%, 0%);stroke-width:1.00;stroke:rgb(0, 0, 0)" x1="434.0" x2="489.789652023397" y1="309.0773240135999" y2="304.1963619194965" /></svg>