<?xml version="1.0" encoding="utf-8" ?>
<svg baseProfile="full" height="100%" version="1.1" width="100%" xmlns="http://www.w3.org/2000/svg" xmlns:ev="http://www.w3.org/2001/xml-events" xmlns:xlink="http://www.w3.org/1999/xlink"><defs /><path d="M 360.51 394.18 L 158.56 399.70 A 29.67871779577953 29.67871779577953 0 0,1 145.52972092062157 372.4726823291808 L 276.51 218.67" style="fill:hsl(45, 7%, 38%);stroke-width:1.00;stroke:rgb(0, 0, 0)" /><path d="M 439.49 394.18 L 641.44 399.70 A 29.67871779577953 29.67871779577953 0 0,0 654.4702790793784 372.4726823291808 L 523.49 218.67" style="fill:hsl(45, 7%, 38%);stroke-width:1.00;stroke:rgb(0, 0, 0)" /><ellipse cx="400.0" cy="300.0" rx="193.51766323916428" ry="154.65771702199297" style="fill:hsl(45, 7%, 38%);stroke-width:1.00;stroke:rgb(0, 0, 0)" /><ellipse cx="328.73840402881456" cy="261.33557074450175" rx="12.662457426629796" ry="13.151698790533999" style="fill:hsl(0, 0%, 0%);stroke-width:1.00;stroke:rgb(0, 0, 0)" /><ellipse cx="471.26159597118544" cy="261.33557074450175" rx="12.662457426629796" ry="13.151698790533999" style="fill:hsl(0, 0%, 0%);stroke-width:1.00;stroke:rgb(0, 0, 0)" /><polygon points="382.686043641206,294.22868121373534 417.313956358794,294.22868121373534 400.0,317.313956358794" style="fill:hsl(0, 0%, 0%);stroke-width:1.00;stroke:rgb(0, 0, 0)" /><line style="fill:hsl(0, 0%, 0%);stroke-width:2.00;stroke:rgb(0, 0, 0)" x1="400.0" x2="400.0" y1="317.313956358794" y2="343.28489089698496" /><path d="M 365 347 A 34.62791271758796 34.62791271758796 30 0,0 400.0 343.28489089698496 A 34.62791271758796 34.62791271758796 150 0,0 434.62791271758795 347.28489089698496" style="fill:none;stroke-width:2.00;stroke:rgb(0, 0, 0)" /><line style="fill:hsl(0, 0%, 0%);stroke-width:1.00;stroke:rgb(0, 0, 0)" x1="366.0" x2="314.76084960174177" y1="327.313956358794" y2="341.0434453288641" /><line style="fill:hsl(0, 0%, 0%);stroke-width:1.00;stroke:rgb(0, 0, 0)" x1="360.0" x2="307.1551866900858" y1="321.313956358794" y2="325.9372784495553" /><line style="fill:hsl(0, 0%, 0%);stroke-width:1.00;stroke:rgb(0, 0, 0)" x1="366.0" x2="313.1551866900858" y1="315.313956358794" y2="310.6906342680326" /><line style="fill:hsl(0, 0%, 0%);stroke-width:1.00;stroke:rgb(0, 0, 0)" x1="434.0" x2="485.23915039825823" y1="327.313956358794" y2="341.0434453288641" /><line style="fill:hsl(0, 0%, 0%);stroke-width:1.00;stroke:rgb(0, 0, 0)" x1="440.0" x2="492.8448133099142" y1="321.313956358794" y2="325.9372784495553" /><line style="fill:hsl(0, 0%, 0%);stroke-width:1.00;stroke:rgb(0, 0, 0)" x1="434.0" x2="486.8448133099142" y1="315.313956358794" y2="310.6906342680326" /></svg>