<?xml version="1.0" encoding="utf-8" ?>
<svg baseProfile="full" height="100%" version="1.1" width="100%" xmlns="http://www.w3.org/2000/svg" xmlns:ev="http://www.w3.org/2001/xml-events" xmlns:xlink="http://www.w3.org/1999/xlink"><defs /><path d="M 347.78 351.53 L 150.27 287.94 A 35.37876845795841 35.37876845795841 0 0,1 149.0784300500327 257.59094528690787 L 341.02 178.77" style="fill:hsl(45, 25%, 37%);stroke-width:1.00;stroke:rgb(0, 0, 0)" /><path d="M 452.22 351.53 L 649.73 287.94 A 35.37876845795841 35.37876845795841 0 0,0 650.9215699499673 257.59094528690787 L 458.98 178.77" style="fill:hsl(45, 25%, 37%);stroke-width:1.00;stroke:rgb(0, 0, 0)" /><ellipse cx="400.0" cy="300.0" rx="178.62546460850638" ry="167.5516985531454" style="fill:hsl(45, 25%, 37%);stroke-width:1.00;stroke:rgb(0, 0, 0)" /><ellipse cx="337.8378802400255" cy="258.11207536171366" rx="9.838570777067668" ry="10.173916211834161" style="fill:hsl(0, 0%, 0%);stroke-width:1.00;stroke:rgb(0, 0, 0)" /><ellipse cx="462.1621197599745" cy="258.11207536171366" rx="9.838570777067668" ry="10.173916211834161" style="fill:hsl(0, 0%, 0%);stroke-width:1.00;stroke:rgb(0, 0, 0)" /><polygon points="385.99290407936496,295.33096802645497 414.00709592063504,295.33096802645497 400.0,314.00709592063504" style="fill:hsl(0, 0%, 0%);stroke-width:1.00;stroke:rgb(0, 0, 0)" /><line style="fill:hsl(0, 0%, 0%);stroke-width:2.00;stroke:rgb(0, 0, 0)" x1="400.0" x2="400.0" y1="314.00709592063504" y2="335.01773980158754" /><path d="M 371 339 A 28.014191841270048 28.014191841270048 30 0,0 400.0 335.01773980158754 A 28.014191841270048 28.014191841270048 150 0,0 428.0141918412701 339.01773980158754" style="fill:none;stroke-width:2.00;stroke:rgb(0, 0, 0)" /><line style="fill:hsl(0, 0%, 0%);stroke-width:1.00;stroke:rgb(0, 0, 0)" x1="366.0" x2="363.50996965063246" y1="324.00709592063504" y2="324.6742975418771" /><line style="fill:hsl(0, 0%, 0%);stroke-width:1.00;stroke:rgb(0, 0, 0)" x1="360.0" x2="357.4319404610421" y1="318.00709592063504" y2="318.23177201755345" /><line style="fill:hsl(0, 0%, 0%);stroke-width:1.00;stroke:rgb(0, 0, 0)" x1="366.0" x2="363.4319404610421" y1="312.00709592063504" y2="311.7824198237166" /><line style="fill:hsl(0, 0%, 0%);stroke-width:1.00;stroke:rgb(0, 0, 0)" x1="434.0" x2="436.49003034936754" y1="324.00709592063504" y2="324.6742975418771" /><line style="fill:hsl(0, 0%, 0%);stroke-width:1.00;stroke:rgb(0, 0, 0)" x1="440.0" x2="442.5680595389579" y1="318.00709592063504" y2="318.23177201755345" /><line style="fill:hsl(0, 0%, 0%);stroke-width:1.00;stroke:rgb(0, 0, 0)" x1="434.0" x2="436.5680595389579" y1="312.00709592063504" y2="311.7824198237166" /></svg>