<?xml version="1.0" encoding="utf-8" ?>
<svg baseProfile="full" height="100%" version="1.1" width="100%" xmlns="http://www.w3.org/2000/svg" xmlns:ev="http://www.w3.org/2001/xml-events" xmlns:xlink="http://www.w3.org/1999/xlink"><defs /><path d="M 431.86 407.71 L 216.37 494.45 A 19.311350215638967 19.311350215638967 0 0,1 197.97310563295378 479.6534413562937 L 236.46 250.57" style="fill:hsl(45, 44%, 49%);stroke-width:1.00;stroke:rgb(0, 0, 0)" /><path d="M 368.14 407.71 L 583.63 494.45 A 19.311350215638967 19.311350215638967 0 0,0 602.0268943670462 479.6534413562937 L 563.54 250.57" style="fill:hsl(45, 44%, 49%);stroke-width:1.00;stroke:rgb(0, 0, 0)" /><ellipse cx="400.0" cy="300.0" rx="172.72193638737286" ry="173.27851126493053" style="fill:hsl(45, 44%, 49%);stroke-width:1.00;stroke:rgb(0, 0, 0)" /><ellipse cx="340.56258807968294" cy="256.68037218376736" rx="11.654928383103922" ry="14.428082284551987" style="fill:hsl(0, 0%, 0%);stroke-width:1.00;stroke:rgb(0, 0, 0)" /><ellipse cx="459.43741192031706" cy="256.68037218376736" rx="11.654928383103922" ry="14.428082284551987" style="fill:hsl(0, 0%, 0%);stroke-width:1.00;stroke:rgb(0, 0, 0)" /><polygon points="386.2849278722623,295.4283092907541 413.7150721277377,295.4283092907541 400.0,313.7150721277377" style="fill:hsl(0, 0%, 0%);stroke-width:1.00;stroke:rgb(0, 0, 0)" /><line style="fill:hsl(0, 0%, 0%);stroke-width:2.00;stroke:rgb(0, 0, 0)" x1="400.0" x2="400.0" y1="313.7150721277377" y2="334.2876803193443" /><path d="M 372 338 A 27.43014425547542 27.43014425547542 30 0,0 400.0 334.2876803193443 A 27.43014425547542 27.43014425547542 150 0,0 427.4301442554754 338.2876803193443" style="fill:none;stroke-width:2.00;stroke:rgb(0, 0, 0)" /><line style="fill:hsl(0, 0%, 0%);stroke-width:1.00;stroke:rgb(0, 0, 0)" x1="366.0" x2="360.9157043311548" y1="323.7150721277377" y2="325.07740504628583" /><line style="fill:hsl(0, 0%, 0%);stroke-width:1.00;stroke:rgb(0, 0, 0)" x1="360.0" x2="354.7563795780333" y1="317.7150721277377" y2="318.1738294704928" /><line style="fill:hsl(0, 0%, 0%);stroke-width:1.00;stroke:rgb(0, 0, 0)" x1="366.0" x2="360.7563795780333" y1="311.7150721277377" y2="311.2563147849826" /><line style="fill:hsl(0, 0%, 0%);stroke-width:1.00;stroke:rgb(0, 0, 0)" x1="434.0" x2="439.0842956688452" y1="323.7150721277377" y2="325.07740504628583" /><line style="fill:hsl(0, 0%, 0%);stroke-width:1.00;stroke:rgb(0, 0, 0)" x1="440.0" x2="445.2436204219667" y1="317.7150721277377" y2="318.1738294704928" /><line style="fill:hsl(0, 0%, 0%);stroke-width:1.00;stroke:rgb(0, 0, 0)" x1="434.0" x2="439.2436204219667" y1="311.7150721277377" y2="311.2563147849826" /></svg>