<?xml version="1.0" encoding="utf-8" ?>
<svg baseProfile="full" height="100%" version="1.1" width="100%" xmlns="http://www.w3.org/2000/svg" xmlns:ev="http://www.w3.org/2001/xml-events" xmlns:xlink="http://www.w3.org/1999/xlink"><defs /><path d="M 275.04 332.80 L 208.31 124.04 A 20.443108696562646 20.443108696562646 0 0,1 225.39194120061813 105.58407960446544 L 438.67 156.07" style="fill:hsl(45, 46%, 33%);stroke-width:1.00;stroke:rgb(0, 0, 0)" /><path d="M 524.96 332.80 L 591.69 124.04 A 20.443108696562646 20.443108696562646 0 0,0 574.6080587993819 105.58407960446544 L 361.33 156.07" style="fill:hsl(45, 46%, 33%);stroke-width:1.00;stroke:rgb(0, 0, 0)" /><ellipse cx="400.0" cy="300.0" rx="189.90292640928604" ry="157.60157342439197" style="fill:hsl(45, 46%, 33%);stroke-width:1.00;stroke:rgb(0, 0, 0)" /><ellipse cx="340.60759633502363" cy="260.599606643902" rx="8.866061997101179" ry="11.44198736920189" style="fill:hsl(0, 0%, 0%);stroke-width:1.00;stroke:rgb(0, 0, 0)" /><ellipse cx="459.39240366497637" cy="260.599606643902" rx="8.866061997101179" ry="11.44198736920189" style="fill:hsl(0, 0%, 0%);stroke-width:1.00;stroke:rgb(0, 0, 0)" /><polygon points="381.6527927881386,293.88426426271286 418.3472072118614,293.88426426271286 400.0,318.3472072118614" style="fill:hsl(0, 0%, 0%);stroke-width:1.00;stroke:rgb(0, 0, 0)" /><line style="fill:hsl(0, 0%, 0%);stroke-width:2.00;stroke:rgb(0, 0, 0)" x1="400.0" x2="400.0" y1="318.3472072118614" y2="345.8680180296535" /><path d="M 363 349 A 36.69441442372282 36.69441442372282 30 0,0 400.0 345.8680180296535 A 36.69441442372282 36.69441442372282 150 0,0 436.69441442372283 349.8680180296535" style="fill:none;stroke-width:2.00;stroke:rgb(0, 0, 0)" /><line style="fill:hsl(0, 0%, 0%);stroke-width:1.00;stroke:rgb(0, 0, 0)" x1="366.0" x2="319.14212823096966" y1="328.3472072118614" y2="340.9027361114142" /><line style="fill:hsl(0, 0%, 0%);stroke-width:1.00;stroke:rgb(0, 0, 0)" x1="360.0" x2="311.6737598791553" y1="322.3472072118614" y2="326.575205373267" /><line style="fill:hsl(0, 0%, 0%);stroke-width:1.00;stroke:rgb(0, 0, 0)" x1="366.0" x2="317.6737598791553" y1="316.3472072118614" y2="312.1192090504558" /><line style="fill:hsl(0, 0%, 0%);stroke-width:1.00;stroke:rgb(0, 0, 0)" x1="434.0" x2="480.85787176903034" y1="328.3472072118614" y2="340.9027361114142" /><line style="fill:hsl(0, 0%, 0%);stroke-width:1.00;stroke:rgb(0, 0, 0)" x1="440.0" x2="488.3262401208447" y1="322.3472072118614" y2="326.575205373267" /><line style="fill:hsl(0, 0%, 0%);stroke-width:1.00;stroke:rgb(0, 0, 0)" x1="434.0" x2="482.3262401208447" y1="316.3472072118614" y2="312.1192090504558" /></svg>