<?xml version="1.0" encoding="utf-8" ?>
<svg baseProfile="full" height="100%" version="1.1" width="100%" xmlns="http://www.w3.org/2000/svg" xmlns:ev="http://www.w3.org/2001/xml-events" xmlns:xlink="http://www.w3.org/1999/xlink"><defs /><path d="M 415.37 419.24 L 223.92 478.89 A 20.946900412015054 20.946900412015054 0 0,1 208.1145298109318 462.1640438723809 L 278.54 274.41" style="fill:hsl(45, 20%, 50%);stroke-width:1.00;stroke:rgb(0, 0, 0)" /><path d="M 384.63 419.24 L 576.08 478.89 A 20.946900412015054 20.946900412015054 0 0,0 591.8854701890682 462.1640438723809 L 521.46 274.41" style="fill:hsl(45, 20%, 50%);stroke-width:1.00;stroke:rgb(0, 0, 0)" /><ellipse cx="400.0" cy="300.0" rx="161.53906499188423" ry="185.2740697830809" style="fill:hsl(45, 20%, 50%);stroke-width:1.00;stroke:rgb(0, 0, 0)" /><ellipse cx="338.73713341573057" cy="253.68148255422977" rx="11.788810583073719" ry="13.675435757751119" style="fill:hsl(0, 0%, 0%);stroke-width:1.00;stroke:rgb(0, 0, 0)" /><ellipse cx="461.26286658426943" cy="253.68148255422977" rx="11.788810583073719" ry="13.675435757751119" style="fill:hsl(0, 0%, 0%);stroke-width:1.00;stroke:rgb(0, 0, 0)" /><polygon points="387.7930670227179,295.93102234090594 412.2069329772821,295.93102234090594 400.0,312.2069329772821" style="fill:hsl(0, 0%, 0%);stroke-width:1.00;stroke:rgb(0, 0, 0)" /><line style="fill:hsl(0, 0%, 0%);stroke-width:2.00;stroke:rgb(0, 0, 0)" x1="400.0" x2="400.0" y1="312.2069329772821" y2="330.5173324432053" /><path d="M 375 334 A 24.41386595456425 24.41386595456425 30 0,0 400.0 330.5173324432053 A 24.41386595456425 24.41386595456425 150 0,0 424.41386595456424 334.5173324432053" style="fill:none;stroke-width:2.00;stroke:rgb(0, 0, 0)" /><line style="fill:hsl(0, 0%, 0%);stroke-width:1.00;stroke:rgb(0, 0, 0)" x1="366.0" x2="321.4822015969676" y1="322.2069329772821" y2="334.13544110818617" /><line style="fill:hsl(0, 0%, 0%);stroke-width:1.00;stroke:rgb(0, 0, 0)" x1="360.0" x2="314.08716328644255" y1="316.2069329772821" y2="320.22378570003525" /><line style="fill:hsl(0, 0%, 0%);stroke-width:1.00;stroke:rgb(0, 0, 0)" x1="366.0" x2="320.08716328644255" y1="310.2069329772821" y2="306.190080254529" /><line style="fill:hsl(0, 0%, 0%);stroke-width:1.00;stroke:rgb(0, 0, 0)" x1="434.0" x2="478.5177984030324" y1="322.2069329772821" y2="334.13544110818617" /><line style="fill:hsl(0, 0%, 0%);stroke-width:1.00;stroke:rgb(0, 0, 0)" x1="440.0" x2="485.91283671355745" y1="316.2069329772821" y2="320.22378570003525" /><line style="fill:hsl(0, 0%, 0%);stroke-width:1.00;stroke:rgb(0, 0, 0)" x1="434.0" x2="479.91283671355745" y1="310.2069329772821" y2="306.190080254529" /></svg>