<?xml version="1.0" encoding="utf-8" ?>
<svg baseProfile="full" height="100%" version="1.1" width="100%" xmlns="http://www.w3.org/2000/svg" xmlns:ev="http://www.w3.org/2001/xml-events" xmlns:xlink="http://www.w3.org/1999/xlink"><defs /><path d="M 331.28 329.40 L 195.58 235.28 A 34.499393927252534 34.499393927252534 0 0,1 202.8376707633795 204.5951582565875 L 366.32 181.20" style="fill:hsl(45, 10%, 67%);stroke-width:1.00;stroke:rgb(0, 0, 0)" /><path d="M 468.72 329.40 L 604.42 235.28 A 34.499393927252534 34.499393927252534 0 0,0 597.1623292366205 204.5951582565875 L 433.68 181.20" style="fill:hsl(45, 10%, 67%);stroke-width:1.00;stroke:rgb(0, 0, 0)" /><ellipse cx="400.0" cy="300.0" rx="158.30689945163465" ry="189.05682635230818" style="fill:hsl(45, 10%, 67%);stroke-width:1.00;stroke:rgb(0, 0, 0)" /><ellipse cx="335.23225707929885" cy="252.73579341192294" rx="7.644070293172628" ry="14.406374637662886" style="fill:hsl(0, 0%, 0%);stroke-width:1.00;stroke:rgb(0, 0, 0)" /><ellipse cx="464.76774292070115" cy="252.73579341192294" rx="7.644070293172628" ry="14.406374637662886" style="fill:hsl(0, 0%, 0%);stroke-width:1.00;stroke:rgb(0, 0, 0)" /><polygon points="380.14617903841696,293.3820596794723 419.85382096158304,293.3820596794723 400.0,319.85382096158304" style="fill:hsl(0, 0%, 0%);stroke-width:1.00;stroke:rgb(0, 0, 0)" /><line style="fill:hsl(0, 0%, 0%);stroke-width:2.00;stroke:rgb(0, 0, 0)" x1="400.0" x2="400.0" y1="319.85382096158304" y2="349.6345524039575" /><path d="M 360 353 A 39.70764192316604 39.70764192316604 30 0,0 400.0 349.6345524039575 A 39.70764192316604 39.70764192316604 150 0,0 439.707641923166 353.6345524039575" style="fill:none;stroke-width:2.00;stroke:rgb(0, 0, 0)" /><line style="fill:hsl(0, 0%, 0%);stroke-width:1.00;stroke:rgb(0, 0, 0)" x1="366.0" x2="321.5696547338004" y1="329.85382096158304" y2="341.75889609509716" /><line style="fill:hsl(0, 0%, 0%);stroke-width:1.00;stroke:rgb(0, 0, 0)" x1="360.0" x2="314.1773569109148" y1="323.85382096158304" y2="327.8627827646725" /><line style="fill:hsl(0, 0%, 0%);stroke-width:1.00;stroke:rgb(0, 0, 0)" x1="366.0" x2="320.1773569109148" y1="317.85382096158304" y2="313.84485915849353" /><line style="fill:hsl(0, 0%, 0%);stroke-width:1.00;stroke:rgb(0, 0, 0)" x1="434.0" x2="478.4303452661996" y1="329.85382096158304" y2="341.75889609509716" /><line style="fill:hsl(0, 0%, 0%);stroke-width:1.00;stroke:rgb(0, 0, 0)" x1="440.0" x2="485.8226430890852" y1="323.85382096158304" y2="327.86278276467254" /><line style="fill:hsl(0, 0%, 0%);stroke-width:1.00;stroke:rgb(0, 0, 0)" x1="434.0" x2="479.8226430890852" y1="317.85382096158304" y2="313.84485915849353" /></svg>