<?xml version="1.0" encoding="utf-8" ?>
<svg baseProfile="full" height="100%" version="1.1" width="100%" xmlns="http://www.w3.org/2000/svg" xmlns:ev="http://www.w3.org/2001/xml-events" xmlns:xlink="http://www.w3.org/1999/xlink"><defs /><path d="M 319.35 332.20 L 201.65 206.18 A 63.0864464226044 63.0864464226044 0 0,1 226.15722895852025 157.6336048131697 L 397.45 177.51" style="fill:hsl(45, 1%, 61%);stroke-width:1.00;stroke:rgb(0, 0, 0)" /><path d="M 480.65 332.20 L 598.35 206.18 A 63.0864464226044 63.0864464226044 0 0,0 573.8427710414798 157.6336048131697 L 402.55 177.51" style="fill:hsl(45, 1%, 61%);stroke-width:1.00;stroke:rgb(0, 0, 0)" /><ellipse cx="400.0" cy="300.0" rx="191.57343646113625" ry="156.2272961892166" style="fill:hsl(45, 1%, 61%);stroke-width:1.00;stroke:rgb(0, 0, 0)" /><ellipse cx="333.3189751237582" cy="260.94317595269587" rx="7.013265198354224" ry="12.34089205750696" style="fill:hsl(0, 0%, 0%);stroke-width:1.00;stroke:rgb(0, 0, 0)" /><ellipse cx="466.6810248762418" cy="260.94317595269587" rx="7.013265198354224" ry="12.34089205750696" style="fill:hsl(0, 0%, 0%);stroke-width:1.00;stroke:rgb(0, 0, 0)" /><polygon points="388.19757340804995,296.0658578026833 411.80242659195005,296.0658578026833 400.0,311.80242659195005" style="fill:hsl(0, 0%, 0%);stroke-width:1.00;stroke:rgb(0, 0, 0)" /><line style="fill:hsl(0, 0%, 0%);stroke-width:2.00;stroke:rgb(0, 0, 0)" x1="400.0" x2="400.0" y1="311.80242659195005" y2="329.5060664798751" /><path d="M 376 333 A 23.60485318390006 23.60485318390006 30 0,0 400.0 329.5060664798751 A 23.60485318390006 23.60485318390006 150 0,0 423.60485318390005 333.5060664798751" style="fill:none;stroke-width:2.00;stroke:rgb(0, 0, 0)" /><line style="fill:hsl(0, 0%, 0%);stroke-width:1.00;stroke:rgb(0, 0, 0)" x1="366.0" x2="330.68634496949517" y1="321.80242659195005" y2="331.26469193916506" /><line style="fill:hsl(0, 0%, 0%);stroke-width:1.00;stroke:rgb(0, 0, 0)" x1="360.0" x2="323.57973360461546" y1="315.80242659195005" y2="318.9887870241404" /><line style="fill:hsl(0, 0%, 0%);stroke-width:1.00;stroke:rgb(0, 0, 0)" x1="366.0" x2="329.57973360461546" y1="309.80242659195005" y2="306.6160661597597" /><line style="fill:hsl(0, 0%, 0%);stroke-width:1.00;stroke:rgb(0, 0, 0)" x1="434.0" x2="469.31365503050483" y1="321.80242659195005" y2="331.26469193916506" /><line style="fill:hsl(0, 0%, 0%);stroke-width:1.00;stroke:rgb(0, 0, 0)" x1="440.0" x2="476.42026639538454" y1="315.80242659195005" y2="318.9887870241404" /><line style="fill:hsl(0, 0%, 0%);stroke-width:1.00;stroke:rgb(0, 0, 0)" x1="434.0" x2="470.42026639538454" y1="309.80242659195005" y2="306.6160661597597" /></svg>