<?xml version="1.0" encoding="utf-8" ?>
<svg baseProfile="full" height="100%" version="1.1" width="100%" xmlns="http://www.w3.org/2000/svg" xmlns:ev="http://www.w3.org/2001/xml-events" xmlns:xlink="http://www.w3.org/1999/xlink"><defs /><path d="M 385.32 412.83 L 239.53 451.85 A 41.56038952342163 41.56038952342163 0 0,1 202.89077033685567 415.12436965179074 L 242.25 269.42" style="fill:hsl(45, 38%, 33%);stroke-width:1.00;stroke:rgb(0, 0, 0)" /><path d="M 414.68 412.83 L 560.47 451.85 A 41.56038952342163 41.56038952342163 0 0,0 597.1092296631443 415.12436965179074 L 557.75 269.42" style="fill:hsl(45, 38%, 33%);stroke-width:1.00;stroke:rgb(0, 0, 0)" /><ellipse cx="400.0" cy="300.0" rx="195.64055653864457" ry="152.9795280156452" style="fill:hsl(45, 38%, 33%);stroke-width:1.00;stroke:rgb(0, 0, 0)" /><ellipse cx="325.30314051457674" cy="261.7551179960887" rx="8.302795594943708" ry="12.473771406039813" style="fill:hsl(0, 0%, 0%);stroke-width:1.00;stroke:rgb(0, 0, 0)" /><ellipse cx="474.69685948542326" cy="261.7551179960887" rx="8.302795594943708" ry="12.473771406039813" style="fill:hsl(0, 0%, 0%);stroke-width:1.00;stroke:rgb(0, 0, 0)" /><polygon points="383.65348967980685,294.5511632266023 416.34651032019315,294.5511632266023 400.0,316.34651032019315" style="fill:hsl(0, 0%, 0%);stroke-width:1.00;stroke:rgb(0, 0, 0)" /><line style="fill:hsl(0, 0%, 0%);stroke-width:2.00;stroke:rgb(0, 0, 0)" x1="400.0" x2="400.0" y1="316.34651032019315" y2="340.8662758004829" /><path d="M 367 344 A 32.69302064038634 32.69302064038634 30 0,0 400.0 340.8662758004829 A 32.69302064038634 32.69302064038634 150 0,0 432.69302064038635 344.8662758004829" style="fill:none;stroke-width:2.00;stroke:rgb(0, 0, 0)" /><line style="fill:hsl(0, 0%, 0%);stroke-width:1.00;stroke:rgb(0, 0, 0)" x1="366.0" x2="338.5469024935447" y1="326.34651032019315" y2="333.7025456267807" /><line style="fill:hsl(0, 0%, 0%);stroke-width:1.00;stroke:rgb(0, 0, 0)" x1="360.0" x2="331.6866146056002" y1="320.34651032019315" y2="322.8236105682436" /><line style="fill:hsl(0, 0%, 0%);stroke-width:1.00;stroke:rgb(0, 0, 0)" x1="366.0" x2="337.6866146056002" y1="314.34651032019315" y2="311.86941007214267" /><line style="fill:hsl(0, 0%, 0%);stroke-width:1.00;stroke:rgb(0, 0, 0)" x1="434.0" x2="461.4530975064553" y1="326.34651032019315" y2="333.7025456267807" /><line style="fill:hsl(0, 0%, 0%);stroke-width:1.00;stroke:rgb(0, 0, 0)" x1="440.0" x2="468.3133853943998" y1="320.34651032019315" y2="322.8236105682436" /><line style="fill:hsl(0, 0%, 0%);stroke-width:1.00;stroke:rgb(0, 0, 0)" x1="434.0" x2="462.3133853943998" y1="314.34651032019315" y2="311.86941007214267" /></svg>