<?xml version="1.0" encoding="utf-8" ?>
<svg baseProfile="full" height="100%" version="1.1" width="100%" xmlns="http://www.w3.org/2000/svg" xmlns:ev="http://www.w3.org/2001/xml-events" xmlns:xlink="http://www.w3.org/1999/xlink"><defs /><path d="M 297.69 324.99 L 229.83 135.04 A 48.332818353253884 48.332818353253884 0 0,1 263.5513529765519 105.15333353861845 L 443.99 195.31" style="fill:hsl(45, 52%, 52%);stroke-width:1.00;stroke:rgb(0, 0, 0)" /><path d="M 502.31 324.99 L 570.17 135.04 A 48.332818353253884 48.332818353253884 0 0,0 536.4486470234481 105.15333353861845 L 356.01 195.31" style="fill:hsl(45, 52%, 52%);stroke-width:1.00;stroke:rgb(0, 0, 0)" /><ellipse cx="400.0" cy="300.0" rx="171.11202399881594" ry="174.90880711110694" style="fill:hsl(45, 52%, 52%);stroke-width:1.00;stroke:rgb(0, 0, 0)" /><ellipse cx="327.6161265872941" cy="256.2727982222233" rx="7.9129118383735335" ry="13.14167990411409" style="fill:hsl(0, 0%, 0%);stroke-width:1.00;stroke:rgb(0, 0, 0)" /><ellipse cx="472.3838734127059" cy="256.2727982222233" rx="7.9129118383735335" ry="13.14167990411409" style="fill:hsl(0, 0%, 0%);stroke-width:1.00;stroke:rgb(0, 0, 0)" /><polygon points="383.1122228122659,294.37074093742194 416.8877771877341,294.37074093742194 400.0,316.8877771877341" style="fill:hsl(0, 0%, 0%);stroke-width:1.00;stroke:rgb(0, 0, 0)" /><line style="fill:hsl(0, 0%, 0%);stroke-width:2.00;stroke:rgb(0, 0, 0)" x1="400.0" x2="400.0" y1="316.8877771877341" y2="342.21944296933526" /><path d="M 366 346 A 33.77555437546822 33.77555437546822 30 0,0 400.0 342.21944296933526 A 33.77555437546822 33.77555437546822 150 0,0 433.77555437546823 346.21944296933526" style="fill:none;stroke-width:2.00;stroke:rgb(0, 0, 0)" /><line style="fill:hsl(0, 0%, 0%);stroke-width:1.00;stroke:rgb(0, 0, 0)" x1="366.0" x2="360.8493314707456" y1="326.8877771877341" y2="328.26789466062826" /><line style="fill:hsl(0, 0%, 0%);stroke-width:1.00;stroke:rgb(0, 0, 0)" x1="360.0" x2="354.68792681505994" y1="320.8877771877341" y2="321.35252337123643" /><line style="fill:hsl(0, 0%, 0%);stroke-width:1.00;stroke:rgb(0, 0, 0)" x1="366.0" x2="360.68792681505994" y1="314.8877771877341" y2="314.4230310042318" /><line style="fill:hsl(0, 0%, 0%);stroke-width:1.00;stroke:rgb(0, 0, 0)" x1="434.0" x2="439.1506685292544" y1="326.8877771877341" y2="328.2678946606282" /><line style="fill:hsl(0, 0%, 0%);stroke-width:1.00;stroke:rgb(0, 0, 0)" x1="440.0" x2="445.31207318494006" y1="320.8877771877341" y2="321.35252337123643" /><line style="fill:hsl(0, 0%, 0%);stroke-width:1.00;stroke:rgb(0, 0, 0)" x1="434.0" x2="439.31207318494006" y1="314.8877771877341" y2="314.4230310042318" /></svg>