<?xml version="1.0" encoding="utf-8" ?>
<svg baseProfile="full" height="100%" version="1.1" width="100%" xmlns="http://www.w3.org/2000/svg" xmlns:ev="http://www.w3.org/2001/xml-events" xmlns:xlink="http://www.w3.org/1999/xlink"><defs /><path d="M 305.35 347.09 L 184.55 179.80 A 13.957743980610601 13.957743980610601 0 0,1 191.77635721129786 165.04914070598963 L 398.00 157.92" style="fill:hsl(45, 15%, 69%);stroke-width:1.00;stroke:rgb(0, 0, 0)" /><path d="M 494.65 347.09 L 615.45 179.80 A 13.957743980610601 13.957743980610601 0 0,0 608.2236427887021 165.04914070598963 L 402.00 157.92" style="fill:hsl(45, 15%, 69%);stroke-width:1.00;stroke:rgb(0, 0, 0)" /><ellipse cx="400.0" cy="300.0" rx="152.24144961671263" ry="196.58903718632538" style="fill:hsl(45, 15%, 69%);stroke-width:1.00;stroke:rgb(0, 0, 0)" /><ellipse cx="348.72601182979383" cy="250.85274070341865" rx="11.832977826457578" ry="14.52368903547356" style="fill:hsl(0, 0%, 0%);stroke-width:1.00;stroke:rgb(0, 0, 0)" /><ellipse cx="451.27398817020617" cy="250.85274070341865" rx="11.832977826457578" ry="14.52368903547356" style="fill:hsl(0, 0%, 0%);stroke-width:1.00;stroke:rgb(0, 0, 0)" /><polygon points="384.5935456610589,294.8645152203529 415.4064543389411,294.8645152203529 400.0,315.4064543389411" style="fill:hsl(0, 0%, 0%);stroke-width:1.00;stroke:rgb(0, 0, 0)" /><line style="fill:hsl(0, 0%, 0%);stroke-width:2.00;stroke:rgb(0, 0, 0)" x1="400.0" x2="400.0" y1="315.4064543389411" y2="338.5161358473528" /><path d="M 369 342 A 30.812908677882263 30.812908677882263 30 0,0 400.0 338.5161358473528 A 30.812908677882263 30.812908677882263 150 0,0 430.81290867788226 342.5161358473528" style="fill:none;stroke-width:2.00;stroke:rgb(0, 0, 0)" /><line style="fill:hsl(0, 0%, 0%);stroke-width:1.00;stroke:rgb(0, 0, 0)" x1="366.0" x2="328.58154332349534" y1="325.4064543389411" y2="335.43269958742945" /><line style="fill:hsl(0, 0%, 0%);stroke-width:1.00;stroke:rgb(0, 0, 0)" x1="360.0" x2="321.4089745429851" y1="319.4064543389411" y2="322.78273158027025" /><line style="fill:hsl(0, 0%, 0%);stroke-width:1.00;stroke:rgb(0, 0, 0)" x1="366.0" x2="327.4089745429851" y1="313.4064543389411" y2="310.03017709761195" /><line style="fill:hsl(0, 0%, 0%);stroke-width:1.00;stroke:rgb(0, 0, 0)" x1="434.0" x2="471.41845667650466" y1="325.4064543389411" y2="335.43269958742945" /><line style="fill:hsl(0, 0%, 0%);stroke-width:1.00;stroke:rgb(0, 0, 0)" x1="440.0" x2="478.5910254570149" y1="319.4064543389411" y2="322.78273158027025" /><line style="fill:hsl(0, 0%, 0%);stroke-width:1.00;stroke:rgb(0, 0, 0)" x1="434.0" x2="472.5910254570149" y1="313.4064543389411" y2="310.03017709761195" /></svg>