<?xml version="1.0" encoding="utf-8" ?>
<svg baseProfile="full" height="100%" version="1.1" width="100%" xmlns="http://www.w3.org/2000/svg" xmlns:ev="http://www.w3.org/2001/xml-events" xmlns:xlink="http://www.w3.org/1999/xlink"><defs /><path d="M 345.44 392.82 L 158.14 394.10 A 15.00108275036417 15.00108275036417 0 0,1 153.60229604122435 382.0010349876633 L 295.58 259.84" style="fill:hsl(45, 5%, 59%);stroke-width:1.00;stroke:rgb(0, 0, 0)" /><path d="M 454.56 392.82 L 641.86 394.10 A 15.00108275036417 15.00108275036417 0 0,0 646.3977039587757 382.0010349876633 L 504.42 259.84" style="fill:hsl(45, 5%, 59%);stroke-width:1.00;stroke:rgb(0, 0, 0)" /><ellipse cx="400.0" cy="300.0" rx="187.425872055525" ry="159.68446443260257" style="fill:hsl(45, 5%, 59%);stroke-width:1.00;stroke:rgb(0, 0, 0)" /><ellipse cx="328.58731727917154" cy="260.0788838918494" rx="8.109571000923363" ry="14.149821030377783" style="fill:hsl(0, 0%, 0%);stroke-width:1.00;stroke:rgb(0, 0, 0)" /><ellipse cx="471.41268272082846" cy="260.0788838918494" rx="8.109571000923363" ry="14.149821030377783" style="fill:hsl(0, 0%, 0%);stroke-width:1.00;stroke:rgb(0, 0, 0)" /><polygon points="382.3010733729993,294.1003577909998 417.6989266270007,294.1003577909998 400.0,317.6989266270007" style="fill:hsl(0, 0%, 0%);stroke-width:1.00;stroke:rgb(0, 0, 0)" /><line style="fill:hsl(0, 0%, 0%);stroke-width:2.00;stroke:rgb(0, 0, 0)" x1="400.0" x2="400.0" y1="317.6989266270007" y2="344.2473165675017" /><path d="M 364 348 A 35.39785325400135 35.39785325400135 30 0,0 400.0 344.2473165675017 A 35.39785325400135 35.39785325400135 150 0,0 435.39785325400135 348.2473165675017" style="fill:none;stroke-width:2.00;stroke:rgb(0, 0, 0)" /><line style="fill:hsl(0, 0%, 0%);stroke-width:1.00;stroke:rgb(0, 0, 0)" x1="366.0" x2="354.3525683018562" y1="327.6989266270007" y2="330.819846544415" /><line style="fill:hsl(0, 0%, 0%);stroke-width:1.00;stroke:rgb(0, 0, 0)" x1="360.0" x2="347.98757690468443" y1="321.6989266270007" y2="322.74987746931777" /><line style="fill:hsl(0, 0%, 0%);stroke-width:1.00;stroke:rgb(0, 0, 0)" x1="366.0" x2="353.98757690468443" y1="315.6989266270007" y2="314.6479757846836" /><line style="fill:hsl(0, 0%, 0%);stroke-width:1.00;stroke:rgb(0, 0, 0)" x1="434.0" x2="445.6474316981438" y1="327.6989266270007" y2="330.819846544415" /><line style="fill:hsl(0, 0%, 0%);stroke-width:1.00;stroke:rgb(0, 0, 0)" x1="440.0" x2="452.01242309531557" y1="321.6989266270007" y2="322.74987746931777" /><line style="fill:hsl(0, 0%, 0%);stroke-width:1.00;stroke:rgb(0, 0, 0)" x1="434.0" x2="446.01242309531557" y1="315.6989266270007" y2="314.6479757846836" /></svg>