<?xml version="1.0" encoding="utf-8" ?>
<svg baseProfile="full" height="100%" version="1.1" width="100%" xmlns="http://www.w3.org/2000/svg" xmlns:ev="http://www.w3.org/2001/xml-events" xmlns:xlink="http://www.w3.org/1999/xlink"><defs /><path d="M 286.76 284.37 L 226.07 130.14 A 8.706448981516878 8.706448981516878 0 0,1 232.6300305463942 122.71104496322135 L 393.20 163.76" style="fill:hsl(45, 51%, 51%);stroke-width:1.00;stroke:rgb(0, 0, 0)" /><path d="M 513.24 284.37 L 573.93 130.14 A 8.706448981516878 8.706448981516878 0 0,0 567.3699694536058 122.71104496322135 L 406.80 163.76" style="fill:hsl(45, 51%, 51%);stroke-width:1.00;stroke:rgb(0, 0, 0)" /><ellipse cx="400.0" cy="300.0" rx="178.1065121762257" ry="168.03989721828393" style="fill:hsl(45, 51%, 51%);stroke-width:1.00;stroke:rgb(0, 0, 0)" /><ellipse cx="324.10816765677663" cy="257.99002569542904" rx="9.942387501804998" ry="13.44861718969636" style="fill:hsl(0, 0%, 0%);stroke-width:1.00;stroke:rgb(0, 0, 0)" /><ellipse cx="475.89183234322337" cy="257.99002569542904" rx="9.942387501804998" ry="13.44861718969636" style="fill:hsl(0, 0%, 0%);stroke-width:1.00;stroke:rgb(0, 0, 0)" /><polygon points="384.6902925775052,294.89676419250173 415.3097074224948,294.89676419250173 400.0,315.3097074224948" style="fill:hsl(0, 0%, 0%);stroke-width:1.00;stroke:rgb(0, 0, 0)" /><line style="fill:hsl(0, 0%, 0%);stroke-width:2.00;stroke:rgb(0, 0, 0)" x1="400.0" x2="400.0" y1="315.3097074224948" y2="338.2742685562371" /><path d="M 369 342 A 30.619414844989635 30.619414844989635 30 0,0 400.0 338.2742685562371 A 30.619414844989635 30.619414844989635 150 0,0 430.61941484498965 342.2742685562371" style="fill:none;stroke-width:2.00;stroke:rgb(0, 0, 0)" /><line style="fill:hsl(0, 0%, 0%);stroke-width:1.00;stroke:rgb(0, 0, 0)" x1="366.0" x2="335.03719415000126" y1="325.3097074224948" y2="333.6061662454036" /><line style="fill:hsl(0, 0%, 0%);stroke-width:1.00;stroke:rgb(0, 0, 0)" x1="360.0" x2="328.06692378822265" y1="319.3097074224948" y2="322.1034895825347" /><line style="fill:hsl(0, 0%, 0%);stroke-width:1.00;stroke:rgb(0, 0, 0)" x1="366.0" x2="334.06692378822265" y1="313.3097074224948" y2="310.5159252624549" /><line style="fill:hsl(0, 0%, 0%);stroke-width:1.00;stroke:rgb(0, 0, 0)" x1="434.0" x2="464.96280584999874" y1="325.3097074224948" y2="333.6061662454036" /><line style="fill:hsl(0, 0%, 0%);stroke-width:1.00;stroke:rgb(0, 0, 0)" x1="440.0" x2="471.93307621177735" y1="319.3097074224948" y2="322.1034895825347" /><line style="fill:hsl(0, 0%, 0%);stroke-width:1.00;stroke:rgb(0, 0, 0)" x1="434.0" x2="465.93307621177735" y1="313.3097074224948" y2="310.5159252624549" /></svg>