<?xml version="1.0" encoding="utf-8" ?>
<svg baseProfile="full" height="100%" version="1.1" width="100%" xmlns="http://www.w3.org/2000/svg" xmlns:ev="http://www.w3.org/2001/xml-events" xmlns:xlink="http://www.w3.org/1999/xlink"><defs /><path d="M 312.54 357.45 L 188.69 273.16 A 57.74719804668495 57.74719804668495 0 0,1 199.75176407508877 218.13621488685226 L 346.54 188.23" style="fill:hsl(45, 23%, 33%);stroke-width:1.00;stroke:rgb(0, 0, 0)" /><path d="M 487.46 357.45 L 611.31 273.16 A 57.74719804668495 57.74719804668495 0 0,0 600.2482359249112 218.13621488685226 L 453.46 188.23" style="fill:hsl(45, 23%, 33%);stroke-width:1.00;stroke:rgb(0, 0, 0)" /><ellipse cx="400.0" cy="300.0" rx="179.12052512680424" ry="167.08861242346435" style="fill:hsl(45, 23%, 33%);stroke-width:1.00;stroke:rgb(0, 0, 0)" /><ellipse cx="348.04727005167575" cy="258.2278468941339" rx="11.044493207718695" ry="13.86640447348847" style="fill:hsl(0, 0%, 0%);stroke-width:1.00;stroke:rgb(0, 0, 0)" /><ellipse cx="451.95272994832425" cy="258.2278468941339" rx="11.044493207718695" ry="13.86640447348847" style="fill:hsl(0, 0%, 0%);stroke-width:1.00;stroke:rgb(0, 0, 0)" /><polygon points="385.88949739533666,295.2964991317789 414.11050260466334,295.2964991317789 400.0,314.11050260466334" style="fill:hsl(0, 0%, 0%);stroke-width:1.00;stroke:rgb(0, 0, 0)" /><line style="fill:hsl(0, 0%, 0%);stroke-width:2.00;stroke:rgb(0, 0, 0)" x1="400.0" x2="400.0" y1="314.11050260466334" y2="335.27625651165835" /><path d="M 371 339 A 28.22100520932667 28.22100520932667 30 0,0 400.0 335.27625651165835 A 28.22100520932667 28.22100520932667 150 0,0 428.2210052093267 339.27625651165835" style="fill:none;stroke-width:2.00;stroke:rgb(0, 0, 0)" /><line style="fill:hsl(0, 0%, 0%);stroke-width:1.00;stroke:rgb(0, 0, 0)" x1="366.0" x2="314.9053729417359" y1="324.11050260466334" y2="337.8012666624946" /><line style="fill:hsl(0, 0%, 0%);stroke-width:1.00;stroke:rgb(0, 0, 0)" x1="360.0" x2="307.3042389062438" y1="318.11050260466334" y2="322.7207843162374" /><line style="fill:hsl(0, 0%, 0%);stroke-width:1.00;stroke:rgb(0, 0, 0)" x1="366.0" x2="313.3042389062438" y1="312.11050260466334" y2="307.50022089308925" /><line style="fill:hsl(0, 0%, 0%);stroke-width:1.00;stroke:rgb(0, 0, 0)" x1="434.0" x2="485.0946270582641" y1="324.11050260466334" y2="337.8012666624946" /><line style="fill:hsl(0, 0%, 0%);stroke-width:1.00;stroke:rgb(0, 0, 0)" x1="440.0" x2="492.6957610937562" y1="318.11050260466334" y2="322.7207843162374" /><line style="fill:hsl(0, 0%, 0%);stroke-width:1.00;stroke:rgb(0, 0, 0)" x1="434.0" x2="486.6957610937562" y1="312.11050260466334" y2="307.50022089308925" /></svg>