<?xml version="1.0" encoding="utf-8" ?>
<svg baseProfile="full" height="100%" version="1.1" width="100%" xmlns="http://www.w3.org/2000/svg" xmlns:ev="http://www.w3.org/2001/xml-events" xmlns:xlink="http://www.w3.org/1999/xlink"><defs /><path d="M 323.85 351.86 L 166.81 189.44 A 11.761519919720023 11.761519919720023 0 0,1 171.28888968117917 178.58695435625614 L 397.17 174.18" style="fill:hsl(45, 14%, 56%);stroke-width:1.00;stroke:rgb(0, 0, 0)" /><path d="M 476.15 351.86 L 633.19 189.44 A 11.761519919720023 11.761519919720023 0 0,0 628.7111103188208 178.58695435625614 L 402.83 174.18" style="fill:hsl(45, 14%, 56%);stroke-width:1.00;stroke:rgb(0, 0, 0)" /><ellipse cx="400.0" cy="300.0" rx="157.32687361108904" ry="190.23450547923736" style="fill:hsl(45, 14%, 56%);stroke-width:1.00;stroke:rgb(0, 0, 0)" /><ellipse cx="338.7996424550725" cy="252.44137363019067" rx="8.195774857180684" ry="12.235100693202428" style="fill:hsl(0, 0%, 0%);stroke-width:1.00;stroke:rgb(0, 0, 0)" /><ellipse cx="461.2003575449275" cy="252.44137363019067" rx="8.195774857180684" ry="12.235100693202428" style="fill:hsl(0, 0%, 0%);stroke-width:1.00;stroke:rgb(0, 0, 0)" /><polygon points="388.97689052305344,296.32563017435115 411.02310947694656,296.32563017435115 400.0,311.02310947694656" style="fill:hsl(0, 0%, 0%);stroke-width:1.00;stroke:rgb(0, 0, 0)" /><line style="fill:hsl(0, 0%, 0%);stroke-width:2.00;stroke:rgb(0, 0, 0)" x1="400.0" x2="400.0" y1="311.02310947694656" y2="327.5577736923664" /><path d="M 377 331 A 22.04621895389312 22.04621895389312 30 0,0 400.0 327.5577736923664 A 22.04621895389312 22.04621895389312 150 0,0 422.0462189538931 331.5577736923664" style="fill:none;stroke-width:2.00;stroke:rgb(0, 0, 0)" /><line style="fill:hsl(0, 0%, 0%);stroke-width:1.00;stroke:rgb(0, 0, 0)" x1="366.0" x2="314.2446161578324" y1="321.02310947694656" y2="334.8909227814181" /><line style="fill:hsl(0, 0%, 0%);stroke-width:1.00;stroke:rgb(0, 0, 0)" x1="360.0" x2="306.6227762235639" y1="315.02310947694656" y2="319.69301144787113" /><line style="fill:hsl(0, 0%, 0%);stroke-width:1.00;stroke:rgb(0, 0, 0)" x1="366.0" x2="312.6227762235639" y1="309.02310947694656" y2="304.353207506022" /><line style="fill:hsl(0, 0%, 0%);stroke-width:1.00;stroke:rgb(0, 0, 0)" x1="434.0" x2="485.7553838421676" y1="321.02310947694656" y2="334.8909227814181" /><line style="fill:hsl(0, 0%, 0%);stroke-width:1.00;stroke:rgb(0, 0, 0)" x1="440.0" x2="493.3772237764361" y1="315.02310947694656" y2="319.69301144787113" /><line style="fill:hsl(0, 0%, 0%);stroke-width:1.00;stroke:rgb(0, 0, 0)" x1="434.0" x2="487.3772237764361" y1="309.02310947694656" y2="304.353207506022" /></svg>