<?xml version="1.0" encoding="utf-8" ?>
<svg baseProfile="full" height="100%" version="1.1" width="100%" xmlns="http://www.w3.org/2000/svg" xmlns:ev="http://www.w3.org/2001/xml-events" xmlns:xlink="http://www.w3.org/1999/xlink"><defs /><path d="M 408.09 373.59 L 243.13 460.23 A 53.364048228752885 53.364048228752885 0 0,1 205.46588666496916 428.06379386539345 L 265.23 251.58" style="fill:hsl(45, 52%, 64%);stroke-width:1.00;stroke:rgb(0, 0, 0)" /><path d="M 391.91 373.59 L 556.87 460.23 A 53.364048228752885 53.364048228752885 0 0,0 594.5341133350308 428.06379386539345 L 534.77 251.58" style="fill:hsl(45, 52%, 64%);stroke-width:1.00;stroke:rgb(0, 0, 0)" /><ellipse cx="400.0" cy="300.0" rx="177.55433517152358" ry="168.56248523071858" style="fill:hsl(45, 52%, 64%);stroke-width:1.00;stroke:rgb(0, 0, 0)" /><ellipse cx="347.2153014742318" cy="257.8593786923204" rx="11.867354885008499" ry="12.565630542425342" style="fill:hsl(0, 0%, 0%);stroke-width:1.00;stroke:rgb(0, 0, 0)" /><ellipse cx="452.7846985257682" cy="257.8593786923204" rx="11.867354885008499" ry="12.565630542425342" style="fill:hsl(0, 0%, 0%);stroke-width:1.00;stroke:rgb(0, 0, 0)" /><polygon points="384.1591639783937,294.7197213261312 415.8408360216063,294.7197213261312 400.0,315.8408360216063" style="fill:hsl(0, 0%, 0%);stroke-width:1.00;stroke:rgb(0, 0, 0)" /><line style="fill:hsl(0, 0%, 0%);stroke-width:2.00;stroke:rgb(0, 0, 0)" x1="400.0" x2="400.0" y1="315.8408360216063" y2="339.6020900540158" /><path d="M 368 343 A 31.681672043212615 31.681672043212615 30 0,0 400.0 339.6020900540158 A 31.681672043212615 31.681672043212615 150 0,0 431.68167204321264 343.6020900540158" style="fill:none;stroke-width:2.00;stroke:rgb(0, 0, 0)" /><line style="fill:hsl(0, 0%, 0%);stroke-width:1.00;stroke:rgb(0, 0, 0)" x1="366.0" x2="344.12299877889575" y1="325.8408360216063" y2="331.7027608316159" /><line style="fill:hsl(0, 0%, 0%);stroke-width:1.00;stroke:rgb(0, 0, 0)" x1="360.0" x2="337.4374470239203" y1="319.8408360216063" y2="321.8148036272164" /><line style="fill:hsl(0, 0%, 0%);stroke-width:1.00;stroke:rgb(0, 0, 0)" x1="366.0" x2="343.4374470239203" y1="313.8408360216063" y2="311.86686841599624" /><line style="fill:hsl(0, 0%, 0%);stroke-width:1.00;stroke:rgb(0, 0, 0)" x1="434.0" x2="455.87700122110425" y1="325.8408360216063" y2="331.7027608316159" /><line style="fill:hsl(0, 0%, 0%);stroke-width:1.00;stroke:rgb(0, 0, 0)" x1="440.0" x2="462.5625529760797" y1="319.8408360216063" y2="321.8148036272164" /><line style="fill:hsl(0, 0%, 0%);stroke-width:1.00;stroke:rgb(0, 0, 0)" x1="434.0" x2="456.5625529760797" y1="313.8408360216063" y2="311.86686841599624" /></svg>