<?xml version="1.0" encoding="utf-8" ?>
<svg baseProfile="full" height="100%" version="1.1" width="100%" xmlns="http://www.w3.org/2000/svg" xmlns:ev="http://www.w3.org/2001/xml-events" xmlns:xlink="http://www.w3.org/1999/xlink"><defs /><path d="M 284.33 288.19 L 241.51 160.95 A 40.267371156972516 40.267371156972516 0 0,1 273.2414888353976 129.05657561900193 L 400.70 171.24" style="fill:hsl(45, 7%, 75%);stroke-width:1.00;stroke:rgb(0, 0, 0)" /><path d="M 515.67 288.19 L 558.49 160.95 A 40.267371156972516 40.267371156972516 0 0,0 526.7585111646024 129.05657561900193 L 399.30 171.24" style="fill:hsl(45, 7%, 75%);stroke-width:1.00;stroke:rgb(0, 0, 0)" /><ellipse cx="400.0" cy="300.0" rx="152.41418491427797" ry="196.36623728187055" style="fill:hsl(45, 7%, 75%);stroke-width:1.00;stroke:rgb(0, 0, 0)" /><ellipse cx="345.8716932405" cy="250.90844067953236" rx="8.724495858389176" ry="14.901985167062712" style="fill:hsl(0, 0%, 0%);stroke-width:1.00;stroke:rgb(0, 0, 0)" /><ellipse cx="454.1283067595" cy="250.90844067953236" rx="8.724495858389176" ry="14.901985167062712" style="fill:hsl(0, 0%, 0%);stroke-width:1.00;stroke:rgb(0, 0, 0)" /><polygon points="385.9252663443274,295.3084221147758 414.0747336556726,295.3084221147758 400.0,314.0747336556726" style="fill:hsl(0, 0%, 0%);stroke-width:1.00;stroke:rgb(0, 0, 0)" /><line style="fill:hsl(0, 0%, 0%);stroke-width:2.00;stroke:rgb(0, 0, 0)" x1="400.0" x2="400.0" y1="314.0747336556726" y2="335.1868341391816" /><path d="M 371 339 A 28.14946731134527 28.14946731134527 30 0,0 400.0 335.1868341391816 A 28.14946731134527 28.14946731134527 150 0,0 428.1494673113453 339.1868341391816" style="fill:none;stroke-width:2.00;stroke:rgb(0, 0, 0)" /><line style="fill:hsl(0, 0%, 0%);stroke-width:1.00;stroke:rgb(0, 0, 0)" x1="366.0" x2="356.59006772790076" y1="324.0747336556726" y2="326.5961174088132" /><line style="fill:hsl(0, 0%, 0%);stroke-width:1.00;stroke:rgb(0, 0, 0)" x1="360.0" x2="350.295192049185" y1="318.0747336556726" y2="318.9237943330652" /><line style="fill:hsl(0, 0%, 0%);stroke-width:1.00;stroke:rgb(0, 0, 0)" x1="366.0" x2="356.295192049185" y1="312.0747336556726" y2="311.22567297828004" /><line style="fill:hsl(0, 0%, 0%);stroke-width:1.00;stroke:rgb(0, 0, 0)" x1="434.0" x2="443.40993227209924" y1="324.0747336556726" y2="326.5961174088132" /><line style="fill:hsl(0, 0%, 0%);stroke-width:1.00;stroke:rgb(0, 0, 0)" x1="440.0" x2="449.704807950815" y1="318.0747336556726" y2="318.9237943330652" /><line style="fill:hsl(0, 0%, 0%);stroke-width:1.00;stroke:rgb(0, 0, 0)" x1="434.0" x2="443.704807950815" y1="312.0747336556726" y2="311.22567297828004" /></svg>