<?xml version="1.0" encoding="utf-8" ?>
<svg baseProfile="full" height="100%" version="1.1" width="100%" xmlns="http://www.w3.org/2000/svg" xmlns:ev="http://www.w3.org/2001/xml-events" xmlns:xlink="http://www.w3.org/1999/xlink"><defs /><path d="M 427.94 384.69 L 272.77 474.73 A 61.59105040534094 61.59105040534094 0 0,1 216.81927526343873 437.1177184309087 L 241.60 259.44" style="fill:hsl(45, 58%, 72%);stroke-width:1.00;stroke:rgb(0, 0, 0)" /><path d="M 372.06 384.69 L 527.23 474.73 A 61.59105040534094 61.59105040534094 0 0,0 583.1807247365613 437.1177184309087 L 558.40 259.44" style="fill:hsl(45, 58%, 72%);stroke-width:1.00;stroke:rgb(0, 0, 0)" /><ellipse cx="400.0" cy="300.0" rx="182.05126771375836" ry="164.3987453416571" style="fill:hsl(45, 58%, 72%);stroke-width:1.00;stroke:rgb(0, 0, 0)" /><ellipse cx="325.3447188495536" cy="258.9003136645857" rx="9.106882584593787" ry="14.337997560461677" style="fill:hsl(0, 0%, 0%);stroke-width:1.00;stroke:rgb(0, 0, 0)" /><ellipse cx="474.6552811504464" cy="258.9003136645857" rx="9.106882584593787" ry="14.337997560461677" style="fill:hsl(0, 0%, 0%);stroke-width:1.00;stroke:rgb(0, 0, 0)" /><polygon points="382.2603063335868,294.0867687778623 417.7396936664132,294.0867687778623 400.0,317.7396936664132" style="fill:hsl(0, 0%, 0%);stroke-width:1.00;stroke:rgb(0, 0, 0)" /><line style="fill:hsl(0, 0%, 0%);stroke-width:2.00;stroke:rgb(0, 0, 0)" x1="400.0" x2="400.0" y1="317.7396936664132" y2="344.34923416603294" /><path d="M 364 348 A 35.479387332826356 35.479387332826356 30 0,0 400.0 344.34923416603294 A 35.479387332826356 35.479387332826356 150 0,0 435.4793873328264 348.34923416603294" style="fill:none;stroke-width:2.00;stroke:rgb(0, 0, 0)" /><line style="fill:hsl(0, 0%, 0%);stroke-width:1.00;stroke:rgb(0, 0, 0)" x1="366.0" x2="317.9023052600637" y1="327.7396936664132" y2="340.6274321297778" /><line style="fill:hsl(0, 0%, 0%);stroke-width:1.00;stroke:rgb(0, 0, 0)" x1="360.0" x2="310.395085019685" y1="321.7396936664132" y2="326.079561382358" /><line style="fill:hsl(0, 0%, 0%);stroke-width:1.00;stroke:rgb(0, 0, 0)" x1="366.0" x2="316.395085019685" y1="315.7396936664132" y2="311.3998259504683" /><line style="fill:hsl(0, 0%, 0%);stroke-width:1.00;stroke:rgb(0, 0, 0)" x1="434.0" x2="482.0976947399363" y1="327.7396936664132" y2="340.6274321297778" /><line style="fill:hsl(0, 0%, 0%);stroke-width:1.00;stroke:rgb(0, 0, 0)" x1="440.0" x2="489.604914980315" y1="321.7396936664132" y2="326.07956138235807" /><line style="fill:hsl(0, 0%, 0%);stroke-width:1.00;stroke:rgb(0, 0, 0)" x1="434.0" x2="483.604914980315" y1="315.7396936664132" y2="311.39982595046837" /></svg>