<?xml version="1.0" encoding="utf-8" ?>
<svg baseProfile="full" height="100%" version="1.1" width="100%" xmlns="http://www.w3.org/2000/svg" xmlns:ev="http://www.w3.org/2001/xml-events" xmlns:xlink="http://www.w3.org/1999/xlink"><defs /><path d="M 388.08 399.66 L 213.09 406.64 A 44.93321074590509 44.93321074590509 0 0,1 194.22140853509222 366.8397997891859 L 310.37 235.77" style="fill:hsl(45, 15%, 46%);stroke-width:1.00;stroke:rgb(0, 0, 0)" /><path d="M 411.92 399.66 L 586.91 406.64 A 44.93321074590509 44.93321074590509 0 0,0 605.7785914649078 366.8397997891859 L 489.63 235.77" style="fill:hsl(45, 15%, 46%);stroke-width:1.00;stroke:rgb(0, 0, 0)" /><ellipse cx="400.0" cy="300.0" rx="156.70711916445165" ry="190.9868559870078" style="fill:hsl(45, 15%, 46%);stroke-width:1.00;stroke:rgb(0, 0, 0)" /><ellipse cx="347.66649566908444" cy="252.25328600324804" rx="11.354033824909079" ry="11.714891359339923" style="fill:hsl(0, 0%, 0%);stroke-width:1.00;stroke:rgb(0, 0, 0)" /><ellipse cx="452.33350433091556" cy="252.25328600324804" rx="11.354033824909079" ry="11.714891359339923" style="fill:hsl(0, 0%, 0%);stroke-width:1.00;stroke:rgb(0, 0, 0)" /><polygon points="389.29718081571434,296.43239360523813 410.70281918428566,296.43239360523813 400.0,310.70281918428566" style="fill:hsl(0, 0%, 0%);stroke-width:1.00;stroke:rgb(0, 0, 0)" /><line style="fill:hsl(0, 0%, 0%);stroke-width:2.00;stroke:rgb(0, 0, 0)" x1="400.0" x2="400.0" y1="310.70281918428566" y2="326.7570479607142" /><path d="M 378 330 A 21.405638368571346 21.405638368571346 30 0,0 400.0 326.7570479607142 A 21.405638368571346 21.405638368571346 150 0,0 421.4056383685713 330.7570479607142" style="fill:none;stroke-width:2.00;stroke:rgb(0, 0, 0)" /><line style="fill:hsl(0, 0%, 0%);stroke-width:1.00;stroke:rgb(0, 0, 0)" x1="366.0" x2="351.9835450445663" y1="320.70281918428566" y2="324.45851697034135" /><line style="fill:hsl(0, 0%, 0%);stroke-width:1.00;stroke:rgb(0, 0, 0)" x1="360.0" x2="345.5443164137262" y1="314.70281918428566" y2="315.96752762160236" /><line style="fill:hsl(0, 0%, 0%);stroke-width:1.00;stroke:rgb(0, 0, 0)" x1="366.0" x2="351.5443164137262" y1="308.70281918428566" y2="307.4381107469689" /><line style="fill:hsl(0, 0%, 0%);stroke-width:1.00;stroke:rgb(0, 0, 0)" x1="434.0" x2="448.0164549554337" y1="320.70281918428566" y2="324.45851697034135" /><line style="fill:hsl(0, 0%, 0%);stroke-width:1.00;stroke:rgb(0, 0, 0)" x1="440.0" x2="454.4556835862738" y1="314.70281918428566" y2="315.9675276216024" /><line style="fill:hsl(0, 0%, 0%);stroke-width:1.00;stroke:rgb(0, 0, 0)" x1="434.0" x2="448.4556835862738" y1="308.70281918428566" y2="307.4381107469689" /></svg>