<?xml version="1.0" encoding="utf-8" ?>
<svg baseProfile="full" height="100%" version="1.1" width="100%" xmlns="http://www.w3.org/2000/svg" xmlns:ev="http://www.w3.org/2001/xml-events" xmlns:xlink="http://www.w3.org/1999/xlink"><defs /><path d="M 303.79 310.43 L 200.97 217.84 A 42.752256990770576 42.752256990770576 0 0,1 214.31446187039114 175.70847885999248 L 351.69 159.21" style="fill:hsl(45, 40%, 67%);stroke-width:1.00;stroke:rgb(0, 0, 0)" /><path d="M 496.21 310.43 L 599.03 217.84 A 42.752256990770576 42.752256990770576 0 0,0 585.6855381296089 175.70847885999248 L 448.31 159.21" style="fill:hsl(45, 40%, 67%);stroke-width:1.00;stroke:rgb(0, 0, 0)" /><ellipse cx="400.0" cy="300.0" rx="183.8820946832056" ry="162.76190485844782" style="fill:hsl(45, 40%, 67%);stroke-width:1.00;stroke:rgb(0, 0, 0)" /><ellipse cx="345.34969852535033" cy="259.309523785388" rx="11.895449854479892" ry="12.59605830015655" style="fill:hsl(0, 0%, 0%);stroke-width:1.00;stroke:rgb(0, 0, 0)" /><ellipse cx="454.65030147464967" cy="259.309523785388" rx="11.895449854479892" ry="12.59605830015655" style="fill:hsl(0, 0%, 0%);stroke-width:1.00;stroke:rgb(0, 0, 0)" /><polygon points="383.26118698137907,294.4203956604597 416.73881301862093,294.4203956604597 400.0,316.73881301862093" style="fill:hsl(0, 0%, 0%);stroke-width:1.00;stroke:rgb(0, 0, 0)" /><line style="fill:hsl(0, 0%, 0%);stroke-width:2.00;stroke:rgb(0, 0, 0)" x1="400.0" x2="400.0" y1="316.73881301862093" y2="341.8470325465523" /><path d="M 366 345 A 33.477626037241876 33.477626037241876 30 0,0 400.0 341.8470325465523 A 33.477626037241876 33.477626037241876 150 0,0 433.47762603724186 345.8470325465523" style="fill:none;stroke-width:2.00;stroke:rgb(0, 0, 0)" /><line style="fill:hsl(0, 0%, 0%);stroke-width:1.00;stroke:rgb(0, 0, 0)" x1="366.0" x2="360.522534547273" y1="326.73881301862093" y2="328.20649546324853" /><line style="fill:hsl(0, 0%, 0%);stroke-width:1.00;stroke:rgb(0, 0, 0)" x1="360.0" x2="354.3508891733946" y1="320.73881301862093" y2="321.23304617495046" /><line style="fill:hsl(0, 0%, 0%);stroke-width:1.00;stroke:rgb(0, 0, 0)" x1="366.0" x2="360.3508891733946" y1="314.73881301862093" y2="314.2445798622914" /><line style="fill:hsl(0, 0%, 0%);stroke-width:1.00;stroke:rgb(0, 0, 0)" x1="434.0" x2="439.477465452727" y1="326.73881301862093" y2="328.20649546324853" /><line style="fill:hsl(0, 0%, 0%);stroke-width:1.00;stroke:rgb(0, 0, 0)" x1="440.0" x2="445.6491108266054" y1="320.73881301862093" y2="321.23304617495046" /><line style="fill:hsl(0, 0%, 0%);stroke-width:1.00;stroke:rgb(0, 0, 0)" x1="434.0" x2="439.6491108266054" y1="314.73881301862093" y2="314.2445798622914" /></svg>