<?xml version="1.0" encoding="utf-8" ?>
<svg baseProfile="full" height="100%" version="1.1" width="100%" xmlns="http://www.w3.org/2000/svg" xmlns:ev="http://www.w3.org/2001/xml-events" xmlns:xlink="http://www.w3.org/1999/xlink"><defs /><path d="M 367.14 401.97 L 244.88 433.29 A 50.16995466252105 50.16995466252105 0 0,1 215.6835627680383 394.6627640892967 L 279.18 285.59" style="fill:hsl(45, 14%, 32%);stroke-width:1.00;stroke:rgb(0, 0, 0)" /><path d="M 432.86 401.97 L 555.12 433.29 A 50.16995466252105 50.16995466252105 0 0,0 584.3164372319617 394.6627640892967 L 520.82 285.59" style="fill:hsl(45, 14%, 32%);stroke-width:1.00;stroke:rgb(0, 0, 0)" /><ellipse cx="400.0" cy="300.0" rx="184.49872841563453" ry="162.2179201830412" style="fill:hsl(45, 14%, 32%);stroke-width:1.00;stroke:rgb(0, 0, 0)" /><ellipse cx="321.7641014263007" cy="259.44551995423967" rx="8.696527994999741" ry="11.787663361374323" style="fill:hsl(0, 0%, 0%);stroke-width:1.00;stroke:rgb(0, 0, 0)" /><ellipse cx="478.2358985736993" cy="259.44551995423967" rx="8.696527994999741" ry="11.787663361374323" style="fill:hsl(0, 0%, 0%);stroke-width:1.00;stroke:rgb(0, 0, 0)" /><polygon points="386.64313593740565,295.5477119791352 413.35686406259435,295.5477119791352 400.0,313.35686406259435" style="fill:hsl(0, 0%, 0%);stroke-width:1.00;stroke:rgb(0, 0, 0)" /><line style="fill:hsl(0, 0%, 0%);stroke-width:2.00;stroke:rgb(0, 0, 0)" x1="400.0" x2="400.0" y1="313.35686406259435" y2="333.39216015648594" /><path d="M 373 337 A 26.713728125188748 26.713728125188748 30 0,0 400.0 333.39216015648594 A 26.713728125188748 26.713728125188748 150 0,0 426.71372812518877 337.39216015648594" style="fill:none;stroke-width:2.00;stroke:rgb(0, 0, 0)" /><line style="fill:hsl(0, 0%, 0%);stroke-width:1.00;stroke:rgb(0, 0, 0)" x1="366.0" x2="353.87520410937947" y1="323.35686406259435" y2="326.6056933298783" /><line style="fill:hsl(0, 0%, 0%);stroke-width:1.00;stroke:rgb(0, 0, 0)" x1="360.0" x2="347.4952537214115" y1="317.35686406259435" y2="318.4508876022388" /><line style="fill:hsl(0, 0%, 0%);stroke-width:1.00;stroke:rgb(0, 0, 0)" x1="366.0" x2="353.4952537214115" y1="311.35686406259435" y2="310.2628405229499" /><line style="fill:hsl(0, 0%, 0%);stroke-width:1.00;stroke:rgb(0, 0, 0)" x1="434.0" x2="446.12479589062053" y1="323.35686406259435" y2="326.6056933298783" /><line style="fill:hsl(0, 0%, 0%);stroke-width:1.00;stroke:rgb(0, 0, 0)" x1="440.0" x2="452.5047462785885" y1="317.35686406259435" y2="318.4508876022388" /><line style="fill:hsl(0, 0%, 0%);stroke-width:1.00;stroke:rgb(0, 0, 0)" x1="434.0" x2="446.5047462785885" y1="311.35686406259435" y2="310.2628405229499" /></svg>