<?xml version="1.0" encoding="utf-8" ?>
<svg baseProfile="full" height="100%" version="1.1" width="100%" xmlns="http://www.w3.org/2000/svg" xmlns:ev="http://www.w3.org/2001/xml-events" xmlns:xlink="http://www.w3.org/1999/xlink"><defs /><path d="M 326.50 397.07 L 169.89 302.20 A 45.31698534372737 45.31698534372737 0 0,1 173.4261815069292 250.3638797683434 L 341.48 177.67" style="fill:hsl(45, 50%, 75%);stroke-width:1.00;stroke:rgb(0, 0, 0)" /><path d="M 473.50 397.07 L 630.11 302.20 A 45.31698534372737 45.31698534372737 0 0,0 626.5738184930708 250.3638797683434 L 458.52 177.67" style="fill:hsl(45, 50%, 75%);stroke-width:1.00;stroke:rgb(0, 0, 0)" /><ellipse cx="400.0" cy="300.0" rx="170.86832346322575" ry="175.15827037678704" style="fill:hsl(45, 50%, 75%);stroke-width:1.00;stroke:rgb(0, 0, 0)" /><ellipse cx="339.60379126607745" cy="256.21043240580326" rx="10.95282301800199" ry="12.233492964331358" style="fill:hsl(0, 0%, 0%);stroke-width:1.00;stroke:rgb(0, 0, 0)" /><ellipse cx="460.39620873392255" cy="256.21043240580326" rx="10.95282301800199" ry="12.233492964331358" style="fill:hsl(0, 0%, 0%);stroke-width:1.00;stroke:rgb(0, 0, 0)" /><polygon points="382.4888621801568,294.16295406005224 417.5111378198432,294.16295406005224 400.0,317.5111378198432" style="fill:hsl(0, 0%, 0%);stroke-width:1.00;stroke:rgb(0, 0, 0)" /><line style="fill:hsl(0, 0%, 0%);stroke-width:2.00;stroke:rgb(0, 0, 0)" x1="400.0" x2="400.0" y1="317.5111378198432" y2="343.777844549608" /><path d="M 364 347 A 35.0222756396864 35.0222756396864 30 0,0 400.0 343.777844549608 A 35.0222756396864 35.0222756396864 150 0,0 435.0222756396864 347.777844549608" style="fill:none;stroke-width:2.00;stroke:rgb(0, 0, 0)" /><line style="fill:hsl(0, 0%, 0%);stroke-width:1.00;stroke:rgb(0, 0, 0)" x1="366.0" x2="336.7542915364356" y1="327.5111378198432" y2="335.3475017847314" /><line style="fill:hsl(0, 0%, 0%);stroke-width:1.00;stroke:rgb(0, 0, 0)" x1="360.0" x2="329.83782924070937" y1="321.5111378198432" y2="324.14998582861426" /><line style="fill:hsl(0, 0%, 0%);stroke-width:1.00;stroke:rgb(0, 0, 0)" x1="366.0" x2="335.83782924070937" y1="315.5111378198432" y2="312.87228981107216" /><line style="fill:hsl(0, 0%, 0%);stroke-width:1.00;stroke:rgb(0, 0, 0)" x1="434.0" x2="463.2457084635644" y1="327.5111378198432" y2="335.3475017847313" /><line style="fill:hsl(0, 0%, 0%);stroke-width:1.00;stroke:rgb(0, 0, 0)" x1="440.0" x2="470.16217075929063" y1="321.5111378198432" y2="324.14998582861426" /><line style="fill:hsl(0, 0%, 0%);stroke-width:1.00;stroke:rgb(0, 0, 0)" x1="434.0" x2="464.16217075929063" y1="315.5111378198432" y2="312.87228981107216" /></svg>