<?xml version="1.0" encoding="utf-8" ?>
<svg baseProfile="full" height="100%" version="1.1" width="100%" xmlns="http://www.w3.org/2000/svg" xmlns:ev="http://www.w3.org/2001/xml-events" xmlns:xlink="http://www.w3.org/1999/xlink"><defs /><path d="M 364.80 393.12 L 180.73 432.15 A 7.70354596913284 7.70354596913284 0 0,1 176.7361412314135 426.1913980626532 L 282.85 270.80" style="fill:hsl(45, 51%, 68%);stroke-width:1.00;stroke:rgb(0, 0, 0)" /><path d="M 435.20 393.12 L 619.27 432.15 A 7.70354596913284 7.70354596913284 0 0,0 623.2638587685865 426.1913980626532 L 517.15 270.80" style="fill:hsl(45, 51%, 68%);stroke-width:1.00;stroke:rgb(0, 0, 0)" /><ellipse cx="400.0" cy="300.0" rx="177.80015990621774" ry="168.3294324132572" style="fill:hsl(45, 51%, 68%);stroke-width:1.00;stroke:rgb(0, 0, 0)" /><ellipse cx="346.7938602296057" cy="257.9176418966857" rx="10.495300854151932" ry="12.570001761463276" style="fill:hsl(0, 0%, 0%);stroke-width:1.00;stroke:rgb(0, 0, 0)" /><ellipse cx="453.2061397703943" cy="257.9176418966857" rx="10.495300854151932" ry="12.570001761463276" style="fill:hsl(0, 0%, 0%);stroke-width:1.00;stroke:rgb(0, 0, 0)" /><polygon points="381.54920793609426,293.8497359786981 418.45079206390574,293.8497359786981 400.0,318.45079206390574" style="fill:hsl(0, 0%, 0%);stroke-width:1.00;stroke:rgb(0, 0, 0)" /><line style="fill:hsl(0, 0%, 0%);stroke-width:2.00;stroke:rgb(0, 0, 0)" x1="400.0" x2="400.0" y1="318.45079206390574" y2="346.12698015976434" /><path d="M 363 350 A 36.901584127811496 36.901584127811496 30 0,0 400.0 346.12698015976434 A 36.901584127811496 36.901584127811496 150 0,0 436.9015841278115 350.12698015976434" style="fill:none;stroke-width:2.00;stroke:rgb(0, 0, 0)" /><line style="fill:hsl(0, 0%, 0%);stroke-width:1.00;stroke:rgb(0, 0, 0)" x1="366.0" x2="355.48833187378597" y1="328.45079206390574" y2="331.26738504942875" /><line style="fill:hsl(0, 0%, 0%);stroke-width:1.00;stroke:rgb(0, 0, 0)" x1="360.0" x2="349.15893149304753" y1="322.45079206390574" y2="323.399262658772" /><line style="fill:hsl(0, 0%, 0%);stroke-width:1.00;stroke:rgb(0, 0, 0)" x1="366.0" x2="355.15893149304753" y1="316.45079206390574" y2="315.5023214690395" /><line style="fill:hsl(0, 0%, 0%);stroke-width:1.00;stroke:rgb(0, 0, 0)" x1="434.0" x2="444.51166812621403" y1="328.45079206390574" y2="331.26738504942875" /><line style="fill:hsl(0, 0%, 0%);stroke-width:1.00;stroke:rgb(0, 0, 0)" x1="440.0" x2="450.84106850695247" y1="322.45079206390574" y2="323.399262658772" /><line style="fill:hsl(0, 0%, 0%);stroke-width:1.00;stroke:rgb(0, 0, 0)" x1="434.0" x2="444.84106850695247" y1="316.45079206390574" y2="315.5023214690395" /></svg>