<?xml version="1.0" encoding="utf-8" ?>
<svg baseProfile="full" height="100%" version="1.1" width="100%" xmlns="http://www.w3.org/2000/svg" xmlns:ev="http://www.w3.org/2001/xml-events" xmlns:xlink="http://www.w3.org/1999/xlink"><defs /><path d="M 314.90 355.35 L 194.54 181.30 A 36.72956874735387 36.72956874735387 0 0,1 213.21932138022885 153.6323495025623 L 419.65 200.17" style="fill:hsl(45, 41%, 35%);stroke-width:1.00;stroke:rgb(0, 0, 0)" /><path d="M 485.10 355.35 L 605.46 181.30 A 36.72956874735387 36.72956874735387 0 0,0 586.7806786197712 153.6323495025623 L 380.35 200.17" style="fill:hsl(45, 41%, 35%);stroke-width:1.00;stroke:rgb(0, 0, 0)" /><ellipse cx="400.0" cy="300.0" rx="151.62305911250846" ry="197.39082020362" style="fill:hsl(45, 41%, 35%);stroke-width:1.00;stroke:rgb(0, 0, 0)" /><ellipse cx="329.56638025594464" cy="250.652294949095" rx="8.171812340344646" ry="11.759428183384097" style="fill:hsl(0, 0%, 0%);stroke-width:1.00;stroke:rgb(0, 0, 0)" /><ellipse cx="470.43361974405536" cy="250.652294949095" rx="8.171812340344646" ry="11.759428183384097" style="fill:hsl(0, 0%, 0%);stroke-width:1.00;stroke:rgb(0, 0, 0)" /><polygon points="386.5975571939737,295.5325190646579 413.4024428060263,295.5325190646579 400.0,313.4024428060263" style="fill:hsl(0, 0%, 0%);stroke-width:1.00;stroke:rgb(0, 0, 0)" /><line style="fill:hsl(0, 0%, 0%);stroke-width:2.00;stroke:rgb(0, 0, 0)" x1="400.0" x2="400.0" y1="313.4024428060263" y2="333.5061070150657" /><path d="M 373 337 A 26.80488561205256 26.80488561205256 30 0,0 400.0 333.5061070150657 A 26.80488561205256 26.80488561205256 150 0,0 426.80488561205254 337.5061070150657" style="fill:none;stroke-width:2.00;stroke:rgb(0, 0, 0)" /><line style="fill:hsl(0, 0%, 0%);stroke-width:1.00;stroke:rgb(0, 0, 0)" x1="366.0" x2="358.68909236877136" y1="323.4024428060263" y2="325.3613946017525" /><line style="fill:hsl(0, 0%, 0%);stroke-width:1.00;stroke:rgb(0, 0, 0)" x1="360.0" x2="352.45999307374467" y1="317.4024428060263" y2="318.06210793498053" /><line style="fill:hsl(0, 0%, 0%);stroke-width:1.00;stroke:rgb(0, 0, 0)" x1="366.0" x2="358.45999307374467" y1="311.4024428060263" y2="310.74277767707196" /><line style="fill:hsl(0, 0%, 0%);stroke-width:1.00;stroke:rgb(0, 0, 0)" x1="434.0" x2="441.31090763122864" y1="323.4024428060263" y2="325.3613946017525" /><line style="fill:hsl(0, 0%, 0%);stroke-width:1.00;stroke:rgb(0, 0, 0)" x1="440.0" x2="447.54000692625533" y1="317.4024428060263" y2="318.0621079349806" /><line style="fill:hsl(0, 0%, 0%);stroke-width:1.00;stroke:rgb(0, 0, 0)" x1="434.0" x2="441.54000692625533" y1="311.4024428060263" y2="310.74277767707196" /></svg>