<?xml version="1.0" encoding="utf-8" ?>
<svg baseProfile="full" height="100%" version="1.1" width="100%" xmlns="http://www.w3.org/2000/svg" xmlns:ev="http://www.w3.org/2001/xml-events" xmlns:xlink="http://www.w3.org/1999/xlink"><defs /><path d="M 308.38 316.71 L 237.96 162.18 A 63.26612053276634 63.26612053276634 0 0,1 279.5955130285257 116.93152497458505 L 439.44 174.30" style="fill:hsl(45, 54%, 49%);stroke-width:1.00;stroke:rgb(0, 0, 0)" /><path d="M 491.62 316.71 L 562.04 162.18 A 63.26612053276634 63.26612053276634 0 0,0 520.4044869714743 116.93152497458505 L 360.56 174.30" style="fill:hsl(45, 54%, 49%);stroke-width:1.00;stroke:rgb(0, 0, 0)" /><ellipse cx="400.0" cy="300.0" rx="163.40364231340484" ry="183.15993191018833" style="fill:hsl(45, 54%, 49%);stroke-width:1.00;stroke:rgb(0, 0, 0)" /><ellipse cx="346.32588952629175" cy="254.21001702245292" rx="12.302805872388706" ry="12.95882596220071" style="fill:hsl(0, 0%, 0%);stroke-width:1.00;stroke:rgb(0, 0, 0)" /><ellipse cx="453.67411047370825" cy="254.21001702245292" rx="12.302805872388706" ry="12.95882596220071" style="fill:hsl(0, 0%, 0%);stroke-width:1.00;stroke:rgb(0, 0, 0)" /><polygon points="381.4628421084015,293.82094736946715 418.5371578915985,293.82094736946715 400.0,318.5371578915985" style="fill:hsl(0, 0%, 0%);stroke-width:1.00;stroke:rgb(0, 0, 0)" /><line style="fill:hsl(0, 0%, 0%);stroke-width:2.00;stroke:rgb(0, 0, 0)" x1="400.0" x2="400.0" y1="318.5371578915985" y2="346.34289472899627" /><path d="M 362 350 A 37.07431578319704 37.07431578319704 30 0,0 400.0 346.34289472899627 A 37.07431578319704 37.07431578319704 150 0,0 437.07431578319705 350.34289472899627" style="fill:none;stroke-width:2.00;stroke:rgb(0, 0, 0)" /><line style="fill:hsl(0, 0%, 0%);stroke-width:1.00;stroke:rgb(0, 0, 0)" x1="366.0" x2="312.58700278575674" y1="328.5371578915985" y2="342.8491273604808" /><line style="fill:hsl(0, 0%, 0%);stroke-width:1.00;stroke:rgb(0, 0, 0)" x1="360.0" x2="304.9132188146976" y1="322.5371578915985" y2="327.35662675544563" /><line style="fill:hsl(0, 0%, 0%);stroke-width:1.00;stroke:rgb(0, 0, 0)" x1="366.0" x2="310.9132188146976" y1="316.5371578915985" y2="311.71768902775136" /><line style="fill:hsl(0, 0%, 0%);stroke-width:1.00;stroke:rgb(0, 0, 0)" x1="434.0" x2="487.41299721424326" y1="328.5371578915985" y2="342.8491273604808" /><line style="fill:hsl(0, 0%, 0%);stroke-width:1.00;stroke:rgb(0, 0, 0)" x1="440.0" x2="495.0867811853024" y1="322.5371578915985" y2="327.35662675544563" /><line style="fill:hsl(0, 0%, 0%);stroke-width:1.00;stroke:rgb(0, 0, 0)" x1="434.0" x2="489.0867811853024" y1="316.5371578915985" y2="311.71768902775136" /></svg>