<?xml version="1.0" encoding="utf-8" ?>
<svg baseProfile="full" height="100%" version="1.1" width="100%" xmlns="http://www.w3.org/2000/svg" xmlns:ev="http://www.w3.org/2001/xml-events" xmlns:xlink="http://www.w3.org/1999/xlink"><defs /><path d="M 323.24 379.63 L 156.02 347.82 A 42.6892507666461 42.6892507666461 0 0,1 139.93281738714347 298.7579917438899 L 255.82 174.09" style="fill:hsl(45, 9%, 66%);stroke-width:1.00;stroke:rgb(0, 0, 0)" /><path d="M 476.76 379.63 L 643.98 347.82 A 42.6892507666461 42.6892507666461 0 0,0 660.0671826128565 298.7579917438899 L 544.18 174.09" style="fill:hsl(45, 9%, 66%);stroke-width:1.00;stroke:rgb(0, 0, 0)" /><ellipse cx="400.0" cy="300.0" rx="198.32487796523276" ry="150.90895457526355" style="fill:hsl(45, 9%, 66%);stroke-width:1.00;stroke:rgb(0, 0, 0)" /><ellipse cx="322.3225747797752" cy="262.2727613561841" rx="9.978185326309255" ry="14.464216907240704" style="fill:hsl(0, 0%, 0%);stroke-width:1.00;stroke:rgb(0, 0, 0)" /><ellipse cx="477.6774252202248" cy="262.2727613561841" rx="9.978185326309255" ry="14.464216907240704" style="fill:hsl(0, 0%, 0%);stroke-width:1.00;stroke:rgb(0, 0, 0)" /><polygon points="383.6806802558166,294.56022675193884 416.3193197441834,294.56022675193884 400.0,316.3193197441834" style="fill:hsl(0, 0%, 0%);stroke-width:1.00;stroke:rgb(0, 0, 0)" /><line style="fill:hsl(0, 0%, 0%);stroke-width:2.00;stroke:rgb(0, 0, 0)" x1="400.0" x2="400.0" y1="316.3193197441834" y2="340.79829936045854" /><path d="M 367 344 A 32.63863948836683 32.63863948836683 30 0,0 400.0 340.79829936045854 A 32.63863948836683 32.63863948836683 150 0,0 432.63863948836683 344.79829936045854" style="fill:none;stroke-width:2.00;stroke:rgb(0, 0, 0)" /><line style="fill:hsl(0, 0%, 0%);stroke-width:1.00;stroke:rgb(0, 0, 0)" x1="366.0" x2="344.07585630347234" y1="326.3193197441834" y2="332.1938763424119" /><line style="fill:hsl(0, 0%, 0%);stroke-width:1.00;stroke:rgb(0, 0, 0)" x1="360.0" x2="337.3888272616222" y1="320.3193197441834" y2="322.2975410278179" /><line style="fill:hsl(0, 0%, 0%);stroke-width:1.00;stroke:rgb(0, 0, 0)" x1="366.0" x2="343.3888272616222" y1="314.3193197441834" y2="312.34109846054895" /><line style="fill:hsl(0, 0%, 0%);stroke-width:1.00;stroke:rgb(0, 0, 0)" x1="434.0" x2="455.92414369652766" y1="326.3193197441834" y2="332.1938763424119" /><line style="fill:hsl(0, 0%, 0%);stroke-width:1.00;stroke:rgb(0, 0, 0)" x1="440.0" x2="462.6111727383778" y1="320.3193197441834" y2="322.2975410278179" /><line style="fill:hsl(0, 0%, 0%);stroke-width:1.00;stroke:rgb(0, 0, 0)" x1="434.0" x2="456.6111727383778" y1="314.3193197441834" y2="312.34109846054895" /></svg>