<?xml version="1.0" encoding="utf-8" ?>
<svg baseProfile="full" height="100%" version="1.1" width="100%" xmlns="http://www.w3.org/2000/svg" xmlns:ev="http://www.w3.org/2001/xml-events" xmlns:xlink="http://www.w3.org/1999/xlink"><defs /><path d="M 319.37 305.75 L 220.90 199.43 A 40.151337046041306 40.151337046041306 0 0,1 236.9082604546727 165.35123614879848 L 381.61 173.27" style="fill:hsl(45, 28%, 41%);stroke-width:1.00;stroke:rgb(0, 0, 0)" /><path d="M 480.63 305.75 L 579.10 199.43 A 40.151337046041306 40.151337046041306 0 0,0 563.0917395453273 165.35123614879848 L 418.39 173.27" style="fill:hsl(45, 28%, 41%);stroke-width:1.00;stroke:rgb(0, 0, 0)" /><ellipse cx="400.0" cy="300.0" rx="156.9601002480707" ry="190.67903214064035" style="fill:hsl(45, 28%, 41%);stroke-width:1.00;stroke:rgb(0, 0, 0)" /><ellipse cx="345.8442116077134" cy="252.3302419648399" rx="12.321859811198141" ry="12.869865766905352" style="fill:hsl(0, 0%, 0%);stroke-width:1.00;stroke:rgb(0, 0, 0)" /><ellipse cx="454.1557883922866" cy="252.3302419648399" rx="12.321859811198141" ry="12.869865766905352" style="fill:hsl(0, 0%, 0%);stroke-width:1.00;stroke:rgb(0, 0, 0)" /><polygon points="383.4936259721129,294.49787532403764 416.5063740278871,294.49787532403764 400.0,316.5063740278871" style="fill:hsl(0, 0%, 0%);stroke-width:1.00;stroke:rgb(0, 0, 0)" /><line style="fill:hsl(0, 0%, 0%);stroke-width:2.00;stroke:rgb(0, 0, 0)" x1="400.0" x2="400.0" y1="316.5063740278871" y2="341.2659350697178" /><path d="M 366 345 A 33.01274805577423 33.01274805577423 30 0,0 400.0 341.2659350697178 A 33.01274805577423 33.01274805577423 150 0,0 433.01274805577424 345.2659350697178" style="fill:none;stroke-width:2.00;stroke:rgb(0, 0, 0)" /><line style="fill:hsl(0, 0%, 0%);stroke-width:1.00;stroke:rgb(0, 0, 0)" x1="366.0" x2="334.7170661393389" y1="326.5063740278871" y2="334.88861089272746" /><line style="fill:hsl(0, 0%, 0%);stroke-width:1.00;stroke:rgb(0, 0, 0)" x1="360.0" x2="327.73676404070073" y1="320.5063740278871" y2="323.3290414229877" /><line style="fill:hsl(0, 0%, 0%);stroke-width:1.00;stroke:rgb(0, 0, 0)" x1="366.0" x2="333.73676404070073" y1="314.5063740278871" y2="311.6837066327865" /><line style="fill:hsl(0, 0%, 0%);stroke-width:1.00;stroke:rgb(0, 0, 0)" x1="434.0" x2="465.2829338606611" y1="326.5063740278871" y2="334.88861089272746" /><line style="fill:hsl(0, 0%, 0%);stroke-width:1.00;stroke:rgb(0, 0, 0)" x1="440.0" x2="472.26323595929927" y1="320.5063740278871" y2="323.3290414229877" /><line style="fill:hsl(0, 0%, 0%);stroke-width:1.00;stroke:rgb(0, 0, 0)" x1="434.0" x2="466.26323595929927" y1="314.5063740278871" y2="311.6837066327865" /></svg>