<?xml version="1.0" encoding="utf-8" ?>
<svg baseProfile="full" height="100%" version="1.1" width="100%" xmlns="http://www.w3.org/2000/svg" xmlns:ev="http://www.w3.org/2001/xml-events" xmlns:xlink="http://www.w3.org/1999/xlink"><defs /><path d="M 287.32 305.63 L 228.61 119.75 A 24.263601021739284 24.263601021739284 0 0,1 248.82174172475425 98.46713402751936 L 437.47 147.59" style="fill:hsl(45, 0%, 41%);stroke-width:1.00;stroke:rgb(0, 0, 0)" /><path d="M 512.68 305.63 L 571.39 119.75 A 24.263601021739284 24.263601021739284 0 0,0 551.1782582752458 98.46713402751936 L 362.53 147.59" style="fill:hsl(45, 0%, 41%);stroke-width:1.00;stroke:rgb(0, 0, 0)" /><ellipse cx="400.0" cy="300.0" rx="162.64421948147006" ry="184.01514726694478" style="fill:hsl(45, 0%, 41%);stroke-width:1.00;stroke:rgb(0, 0, 0)" /><ellipse cx="342.0741989798896" cy="253.99621318326382" rx="11.082374669302485" ry="12.758723173066564" style="fill:hsl(0, 0%, 0%);stroke-width:1.00;stroke:rgb(0, 0, 0)" /><ellipse cx="457.9258010201104" cy="253.99621318326382" rx="11.082374669302485" ry="12.758723173066564" style="fill:hsl(0, 0%, 0%);stroke-width:1.00;stroke:rgb(0, 0, 0)" /><polygon points="384.70946504147537,294.90315501382514 415.29053495852463,294.90315501382514 400.0,315.29053495852463" style="fill:hsl(0, 0%, 0%);stroke-width:1.00;stroke:rgb(0, 0, 0)" /><line style="fill:hsl(0, 0%, 0%);stroke-width:2.00;stroke:rgb(0, 0, 0)" x1="400.0" x2="400.0" y1="315.29053495852463" y2="338.2263373963116" /><path d="M 369 342 A 30.58106991704925 30.58106991704925 30 0,0 400.0 338.2263373963116 A 30.58106991704925 30.58106991704925 150 0,0 430.58106991704926 342.2263373963116" style="fill:none;stroke-width:2.00;stroke:rgb(0, 0, 0)" /><line style="fill:hsl(0, 0%, 0%);stroke-width:1.00;stroke:rgb(0, 0, 0)" x1="366.0" x2="331.31182436734184" y1="325.29053495852463" y2="334.58520360620435" /><line style="fill:hsl(0, 0%, 0%);stroke-width:1.00;stroke:rgb(0, 0, 0)" x1="360.0" x2="324.2248134264216" y1="319.29053495852463" y2="322.42045821923756" /><line style="fill:hsl(0, 0%, 0%);stroke-width:1.00;stroke:rgb(0, 0, 0)" x1="366.0" x2="330.2248134264216" y1="313.29053495852463" y2="310.16061169781165" /><line style="fill:hsl(0, 0%, 0%);stroke-width:1.00;stroke:rgb(0, 0, 0)" x1="434.0" x2="468.68817563265816" y1="325.29053495852463" y2="334.58520360620435" /><line style="fill:hsl(0, 0%, 0%);stroke-width:1.00;stroke:rgb(0, 0, 0)" x1="440.0" x2="475.7751865735784" y1="319.29053495852463" y2="322.4204582192376" /><line style="fill:hsl(0, 0%, 0%);stroke-width:1.00;stroke:rgb(0, 0, 0)" x1="434.0" x2="469.7751865735784" y1="313.29053495852463" y2="310.16061169781165" /></svg>