<?xml version="1.0" encoding="utf-8" ?>
<svg baseProfile="full" height="100%" version="1.1" width="100%" xmlns="http://www.w3.org/2000/svg" xmlns:ev="http://www.w3.org/2001/xml-events" xmlns:xlink="http://www.w3.org/1999/xlink"><defs /><path d="M 316.43 381.63 L 186.82 345.58 A 34.943575761806194 34.943575761806194 0 0,1 181.96589406896112 311.03744443974557 L 296.64 240.68" style="fill:hsl(45, 31%, 33%);stroke-width:1.00;stroke:rgb(0, 0, 0)" /><path d="M 483.57 381.63 L 613.18 345.58 A 34.943575761806194 34.943575761806194 0 0,0 618.0341059310389 311.03744443974557 L 503.36 240.68" style="fill:hsl(45, 31%, 33%);stroke-width:1.00;stroke:rgb(0, 0, 0)" /><ellipse cx="400.0" cy="300.0" rx="176.6294519523165" ry="169.44512746424496" style="fill:hsl(45, 31%, 33%);stroke-width:1.00;stroke:rgb(0, 0, 0)" /><ellipse cx="325.7948491839853" cy="257.63871813393877" rx="7.075646141921657" ry="10.031090557081626" style="fill:hsl(0, 0%, 0%);stroke-width:1.00;stroke:rgb(0, 0, 0)" /><ellipse cx="474.2051508160147" cy="257.63871813393877" rx="7.075646141921657" ry="10.031090557081626" style="fill:hsl(0, 0%, 0%);stroke-width:1.00;stroke:rgb(0, 0, 0)" /><polygon points="388.91179524128347,296.3039317470945 411.08820475871653,296.3039317470945 400.0,311.08820475871653" style="fill:hsl(0, 0%, 0%);stroke-width:1.00;stroke:rgb(0, 0, 0)" /><line style="fill:hsl(0, 0%, 0%);stroke-width:2.00;stroke:rgb(0, 0, 0)" x1="400.0" x2="400.0" y1="311.08820475871653" y2="327.72051189679127" /><path d="M 377 331 A 22.176409517433026 22.176409517433026 30 0,0 400.0 327.72051189679127 A 22.176409517433026 22.176409517433026 150 0,0 422.176409517433 331.72051189679127" style="fill:none;stroke-width:2.00;stroke:rgb(0, 0, 0)" /><line style="fill:hsl(0, 0%, 0%);stroke-width:1.00;stroke:rgb(0, 0, 0)" x1="366.0" x2="362.487300976677" y1="321.08820475871653" y2="322.02942962526953" /><line style="fill:hsl(0, 0%, 0%);stroke-width:1.00;stroke:rgb(0, 0, 0)" x1="360.0" x2="356.37722478498137" y1="315.08820475871653" y2="315.40515652053335" /><line style="fill:hsl(0, 0%, 0%);stroke-width:1.00;stroke:rgb(0, 0, 0)" x1="366.0" x2="362.37722478498137" y1="309.08820475871653" y2="308.7712529968997" /><line style="fill:hsl(0, 0%, 0%);stroke-width:1.00;stroke:rgb(0, 0, 0)" x1="434.0" x2="437.512699023323" y1="321.08820475871653" y2="322.02942962526953" /><line style="fill:hsl(0, 0%, 0%);stroke-width:1.00;stroke:rgb(0, 0, 0)" x1="440.0" x2="443.62277521501863" y1="315.08820475871653" y2="315.40515652053335" /><line style="fill:hsl(0, 0%, 0%);stroke-width:1.00;stroke:rgb(0, 0, 0)" x1="434.0" x2="437.62277521501863" y1="309.08820475871653" y2="308.7712529968997" /></svg>