<?xml version="1.0" encoding="utf-8" ?>
<svg baseProfile="full" height="100%" version="1.1" width="100%" xmlns="http://www.w3.org/2000/svg" xmlns:ev="http://www.w3.org/2001/xml-events" xmlns:xlink="http://www.w3.org/1999/xlink"><defs /><path d="M 325.18 374.83 L 182.70 340.05 A 36.17438916341395 36.17438916341395 0 0,1 173.45142964970785 300.3082088165267 L 285.92 206.18" style="fill:hsl(45, 59%, 76%);stroke-width:1.00;stroke:rgb(0, 0, 0)" /><path d="M 474.82 374.83 L 617.30 340.05 A 36.17438916341395 36.17438916341395 0 0,0 626.5485703502922 300.3082088165267 L 514.08 206.18" style="fill:hsl(45, 59%, 76%);stroke-width:1.00;stroke:rgb(0, 0, 0)" /><ellipse cx="400.0" cy="300.0" rx="175.720329934341" ry="170.3217835476587" style="fill:hsl(45, 59%, 76%);stroke-width:1.00;stroke:rgb(0, 0, 0)" /><ellipse cx="324.02752843333485" cy="257.4195541130853" rx="9.669140586587389" ry="11.423653498069724" style="fill:hsl(0, 0%, 0%);stroke-width:1.00;stroke:rgb(0, 0, 0)" /><ellipse cx="475.97247156666515" cy="257.4195541130853" rx="9.669140586587389" ry="11.423653498069724" style="fill:hsl(0, 0%, 0%);stroke-width:1.00;stroke:rgb(0, 0, 0)" /><polygon points="386.6603503041595,295.5534501013865 413.3396496958405,295.5534501013865 400.0,313.3396496958405" style="fill:hsl(0, 0%, 0%);stroke-width:1.00;stroke:rgb(0, 0, 0)" /><line style="fill:hsl(0, 0%, 0%);stroke-width:2.00;stroke:rgb(0, 0, 0)" x1="400.0" x2="400.0" y1="313.3396496958405" y2="333.3491242396012" /><path d="M 373 337 A 26.67929939168097 26.67929939168097 30 0,0 400.0 333.3491242396012 A 26.67929939168097 26.67929939168097 150 0,0 426.67929939168096 337.3491242396012" style="fill:none;stroke-width:2.00;stroke:rgb(0, 0, 0)" /><line style="fill:hsl(0, 0%, 0%);stroke-width:1.00;stroke:rgb(0, 0, 0)" x1="366.0" x2="315.4964388112504" y1="323.3396496958405" y2="336.8720381312617" /><line style="fill:hsl(0, 0%, 0%);stroke-width:1.00;stroke:rgb(0, 0, 0)" x1="360.0" x2="307.913826795301" y1="317.3396496958405" y2="321.8965993776994" /><line style="fill:hsl(0, 0%, 0%);stroke-width:1.00;stroke:rgb(0, 0, 0)" x1="366.0" x2="313.913826795301" y1="311.3396496958405" y2="306.7827000139816" /><line style="fill:hsl(0, 0%, 0%);stroke-width:1.00;stroke:rgb(0, 0, 0)" x1="434.0" x2="484.5035611887496" y1="323.3396496958405" y2="336.8720381312617" /><line style="fill:hsl(0, 0%, 0%);stroke-width:1.00;stroke:rgb(0, 0, 0)" x1="440.0" x2="492.086173204699" y1="317.3396496958405" y2="321.8965993776994" /><line style="fill:hsl(0, 0%, 0%);stroke-width:1.00;stroke:rgb(0, 0, 0)" x1="434.0" x2="486.086173204699" y1="311.3396496958405" y2="306.7827000139816" /></svg>