<?xml version="1.0" encoding="utf-8" ?>
<svg baseProfile="full" height="100%" version="1.1" width="100%" xmlns="http://www.w3.org/2000/svg" xmlns:ev="http://www.w3.org/2001/xml-events" xmlns:xlink="http://www.w3.org/1999/xlink"><defs /><path d="M 351.90 400.07 L 140.84 367.09 A 29.256410347404284 29.256410347404284 0 0,1 134.00760289364803 339.55464008844245 L 305.14 211.70" style="fill:hsl(45, 33%, 70%);stroke-width:1.00;stroke:rgb(0, 0, 0)" /><path d="M 448.10 400.07 L 659.16 367.09 A 29.256410347404284 29.256410347404284 0 0,0 665.992397106352 339.55464008844245 L 494.86 211.70" style="fill:hsl(45, 33%, 70%);stroke-width:1.00;stroke:rgb(0, 0, 0)" /><ellipse cx="400.0" cy="300.0" rx="189.60946238149268" ry="157.84549792026252" style="fill:hsl(45, 33%, 70%);stroke-width:1.00;stroke:rgb(0, 0, 0)" /><ellipse cx="323.93877137508184" cy="260.5386255199344" rx="11.812163386795557" ry="12.955012339240477" style="fill:hsl(0, 0%, 0%);stroke-width:1.00;stroke:rgb(0, 0, 0)" /><ellipse cx="476.06122862491816" cy="260.5386255199344" rx="11.812163386795557" ry="12.955012339240477" style="fill:hsl(0, 0%, 0%);stroke-width:1.00;stroke:rgb(0, 0, 0)" /><polygon points="387.4498942798823,295.81663142662745 412.5501057201177,295.81663142662745 400.0,312.5501057201177" style="fill:hsl(0, 0%, 0%);stroke-width:1.00;stroke:rgb(0, 0, 0)" /><line style="fill:hsl(0, 0%, 0%);stroke-width:2.00;stroke:rgb(0, 0, 0)" x1="400.0" x2="400.0" y1="312.5501057201177" y2="331.37526430029425" /><path d="M 374 335 A 25.10021144023542 25.10021144023542 30 0,0 400.0 331.37526430029425 A 25.10021144023542 25.10021144023542 150 0,0 425.1002114402354 335.37526430029425" style="fill:none;stroke-width:2.00;stroke:rgb(0, 0, 0)" /><line style="fill:hsl(0, 0%, 0%);stroke-width:1.00;stroke:rgb(0, 0, 0)" x1="366.0" x2="331.1119430771275" y1="322.5501057201177" y2="331.8983323980924" /><line style="fill:hsl(0, 0%, 0%);stroke-width:1.00;stroke:rgb(0, 0, 0)" x1="360.0" x2="324.0186685277762" y1="316.5501057201177" y2="319.69806432250584" /><line style="fill:hsl(0, 0%, 0%);stroke-width:1.00;stroke:rgb(0, 0, 0)" x1="366.0" x2="330.0186685277762" y1="310.5501057201177" y2="307.40214711772956" /><line style="fill:hsl(0, 0%, 0%);stroke-width:1.00;stroke:rgb(0, 0, 0)" x1="434.0" x2="468.8880569228725" y1="322.5501057201177" y2="331.8983323980924" /><line style="fill:hsl(0, 0%, 0%);stroke-width:1.00;stroke:rgb(0, 0, 0)" x1="440.0" x2="475.9813314722238" y1="316.5501057201177" y2="319.69806432250584" /><line style="fill:hsl(0, 0%, 0%);stroke-width:1.00;stroke:rgb(0, 0, 0)" x1="434.0" x2="469.9813314722238" y1="310.5501057201177" y2="307.40214711772956" /></svg>