<?xml version="1.0" encoding="utf-8" ?>
<svg baseProfile="full" height="100%" version="1.1" width="100%" xmlns="http://www.w3.org/2000/svg" xmlns:ev="http://www.w3.org/2001/xml-events" xmlns:xlink="http://www.w3.org/1999/xlink"><defs /><path d="M 266.06 273.77 L 220.91 149.73 A 0.0 0.0 0 0,1 220.9125183292108 149.72776018157285 L 350.91 172.65" style="fill:hsl(45, 40%, 80%);stroke-width:1.00;stroke:rgb(0, 0, 0)" /><path d="M 533.94 273.77 L 579.09 149.73 A 0.0 0.0 0 0,0 579.0874816707892 149.72776018157285 L 449.09 172.65" style="fill:hsl(45, 40%, 80%);stroke-width:1.00;stroke:rgb(0, 0, 0)" /><ellipse cx="400.0" cy="300.0" rx="199.7631931396105" ry="149.82239485470788" style="fill:hsl(45, 40%, 80%);stroke-width:1.00;stroke:rgb(0, 0, 0)" /><ellipse cx="320.0" cy="262.544401286323" rx="10.0" ry="10.0" style="fill:hsl(0, 0%, 0%);stroke-width:1.00;stroke:rgb(0, 0, 0)" /><ellipse cx="480.0" cy="262.544401286323" rx="10.0" ry="10.0" style="fill:hsl(0, 0%, 0%);stroke-width:1.00;stroke:rgb(0, 0, 0)" /><polygon points="390.0,296.6666666666667 410.0,296.6666666666667 400.0,310.0" style="fill:hsl(0, 0%, 0%);stroke-width:1.00;stroke:rgb(0, 0, 0)" /><line style="fill:hsl(0, 0%, 0%);stroke-width:2.00;stroke:rgb(0, 0, 0)" x1="400.0" x2="400.0" y1="310.0" y2="325.0" /><path d="M 380 329 A 20.0 20.0 30 0,0 400.0 325.0 A 20.0 20.0 150 0,0 420.0 329.0" style="fill:none;stroke-width:2.00;stroke:rgb(0, 0, 0)" /><line style="fill:hsl(0, 0%, 0%);stroke-width:1.00;stroke:rgb(0, 0, 0)" x1="366.0" x2="308.0444504226559" y1="320.0" y2="335.5291427061512" /><line style="fill:hsl(0, 0%, 0%);stroke-width:1.00;stroke:rgb(0, 0, 0)" x1="360.0" x2="300.22831811449527" y1="314.0" y2="319.2293445648595" /><line style="fill:hsl(0, 0%, 0%);stroke-width:1.00;stroke:rgb(0, 0, 0)" x1="366.0" x2="306.22831811449527" y1="308.0" y2="302.7706554351405" /><line style="fill:hsl(0, 0%, 0%);stroke-width:1.00;stroke:rgb(0, 0, 0)" x1="434.0" x2="491.9555495773441" y1="320.0" y2="335.5291427061512" /><line style="fill:hsl(0, 0%, 0%);stroke-width:1.00;stroke:rgb(0, 0, 0)" x1="440.0" x2="499.77168188550473" y1="314.0" y2="319.2293445648595" /><line style="fill:hsl(0, 0%, 0%);stroke-width:1.00;stroke:rgb(0, 0, 0)" x1="434.0" x2="493.77168188550473" y1="308.0" y2="302.7706554351405" /></svg>