<?xml version="1.0" encoding="utf-8" ?>
<svg baseProfile="full" height="100%" version="1.1" width="100%" xmlns="http://www.w3.org/2000/svg" xmlns:ev="http://www.w3.org/2001/xml-events" xmlns:xlink="http://www.w3.org/1999/xlink"><defs /><path d="M 337.71 398.03 L 229.06 415.24 A 32.0 32.0 0 0,1 203.8920306161334 384.1559251396747 L 243.31 281.46" style="fill:hsl(45, 40%, 30%);stroke-width:1.00;stroke:rgb(0, 0, 0)" /><path d="M 462.29 398.03 L 570.94 415.24 A 40.0 40.0 0 0,0 596.1079693838666 384.1559251396747 L 556.69 281.46" style="fill:hsl(45, 40%, 30%);stroke-width:1.00;stroke:rgb(0, 0, 0)" /><ellipse cx="400.0" cy="300.0" rx="200.0" ry="150" style="fill:hsl(45, 40%, 30%);stroke-width:1.00;stroke:rgb(0, 0, 0)" /><ellipse cx="320.0" cy="262.5" rx="7.0" ry="14.0" style="fill:hsl(0, 0%, 0%);stroke-width:1.00;stroke:rgb(0, 0, 0)" /><ellipse cx="480.0" cy="262.5" rx="7.0" ry="14.0" style="fill:hsl(0, 0%, 0%);stroke-width:1.00;stroke:rgb(0, 0, 0)" /><polygon points="380.0,293.3333333333333 420.0,293.3333333333333 400.0,320.0" style="fill:hsl(0, 0%, 0%);stroke-width:1.00;stroke:rgb(0, 0, 0)" /><line style="fill:hsl(0, 0%, 0%);stroke-width:2.00;stroke:rgb(0, 0, 0)" x1="400.0" x2="400.0" y1="320.0" y2="340.0" /><path d="M 370 344 A 20 14 30 0,0 400.0 340.0 A 20 14 150 0,0 430.0 344.0" style="fill:none;stroke-width:2.00;stroke:rgb(0, 0, 0)" /><line style="fill:hsl(0, 0%, 0%);stroke-width:1.00;stroke:rgb(0, 0, 0)" x1="366.0" x2="308.0444504226559" y1="330.0" y2="345.5291427061512" /><line style="fill:hsl(0, 0%, 0%);stroke-width:1.00;stroke:rgb(0, 0, 0)" x1="360.0" x2="300.22831811449527" y1="324.0" y2="329.2293445648595" /><line style="fill:hsl(0, 0%, 0%);stroke-width:1.00;stroke:rgb(0, 0, 0)" x1="366.0" x2="306.22831811449527" y1="318.0" y2="312.7706554351405" /><line style="fill:hsl(0, 0%, 0%);stroke-width:1.00;stroke:rgb(0, 0, 0)" x1="434.0" x2="491.9555495773441" y1="330.0" y2="345.5291427061512" /><line style="fill:hsl(0, 0%, 0%);stroke-width:1.00;stroke:rgb(0, 0, 0)" x1="440.0" x2="499.77168188550473" y1="324.0" y2="329.2293445648595" /><line style="fill:hsl(0, 0%, 0%);stroke-width:1.00;stroke:rgb(0, 0, 0)" x1="434.0" x2="493.77168188550473" y1="318.0" y2="312.7706554351405" /></svg>