<?xml version="1.0" encoding="utf-8" ?>
<svg baseProfile="full" height="100%" version="1.1" width="100%" xmlns="http://www.w3.org/2000/svg" xmlns:ev="http://www.w3.org/2001/xml-events" xmlns:xlink="http://www.w3.org/1999/xlink"><defs /><path d="M 275.07 314.53 L 219.54 148.57 A 0.0 0.0 0 0,1 219.5372619287715 148.57378304319008 L 394.48 153.15" style="fill:hsl(45, 60%, 30%);stroke-width:1.00;stroke:rgb(0, 0, 0)" /><path d="M 524.93 314.53 L 580.46 148.57 A 0.0 0.0 0 0,0 580.4627380712285 148.57378304319008 L 405.52 153.15" style="fill:hsl(45, 60%, 30%);stroke-width:1.00;stroke:rgb(0, 0, 0)" /><ellipse cx="400.0" cy="300.0" rx="180.0" ry="150" style="fill:hsl(45, 60%, 30%);stroke-width:1.00;stroke:rgb(0, 0, 0)" /><ellipse cx="340.0" cy="262.5" rx="12.0" ry="12.0" style="fill:hsl(0, 0%, 0%);stroke-width:1.00;stroke:rgb(0, 0, 0)" /><ellipse cx="460.0" cy="262.5" rx="12.0" ry="12.0" style="fill:hsl(0, 0%, 0%);stroke-width:1.00;stroke:rgb(0, 0, 0)" /><polygon points="384.0,294.6666666666667 416.0,294.6666666666667 400.0,316.0" style="fill:hsl(0, 0%, 0%);stroke-width:1.00;stroke:rgb(0, 0, 0)" /><line style="fill:hsl(0, 0%, 0%);stroke-width:2.00;stroke:rgb(0, 0, 0)" x1="400.0" x2="400.0" y1="316.0" y2="336.0" /><path d="M 370 340 A 20 14 30 0,0 400.0 336.0 A 20 14 150 0,0 430.0 340.0" style="fill:none;stroke-width:2.00;stroke:rgb(0, 0, 0)" /><line style="fill:hsl(0, 0%, 0%);stroke-width:1.00;stroke:rgb(0, 0, 0)" x1="366.0" x2="365.0340741737109" y1="326.0" y2="326.25881904510254" /><line style="fill:hsl(0, 0%, 0%);stroke-width:1.00;stroke:rgb(0, 0, 0)" x1="360.0" x2="359.00380530190824" y1="320.0" y2="320.08715574274765" /><line style="fill:hsl(0, 0%, 0%);stroke-width:1.00;stroke:rgb(0, 0, 0)" x1="366.0" x2="365.00380530190824" y1="314.0" y2="313.91284425725235" /><line style="fill:hsl(0, 0%, 0%);stroke-width:1.00;stroke:rgb(0, 0, 0)" x1="434.0" x2="434.9659258262891" y1="326.0" y2="326.25881904510254" /><line style="fill:hsl(0, 0%, 0%);stroke-width:1.00;stroke:rgb(0, 0, 0)" x1="440.0" x2="440.99619469809176" y1="320.0" y2="320.08715574274765" /><line style="fill:hsl(0, 0%, 0%);stroke-width:1.00;stroke:rgb(0, 0, 0)" x1="434.0" x2="434.99619469809176" y1="314.0" y2="313.91284425725235" /></svg>