<?xml version="1.0" encoding="UTF-8"?>
<svg xmlns="http://www.w3.org/2000/svg" xmlns:xlink="http://www.w3.org/1999/xlink"
     width="800" height="600" viewBox="0 -600 800 600">
<defs>
</defs>
<g>
<path d="M370.38125787652484,-208.0347029762571 L169.55489353573432,-236.2590078509584 A38.400000000000006,38.400000000000006,0,0,1,158.24808608683202,-274.43015008858595 L311.3031889560102,-407.4789211678608" stroke-width="1" stroke="black" fill="hsl(45, 25%, 46%)" />
<path d="M429.61874212347516,-208.0347029762571 L630.4451064642657,-236.2590078509584 A38.400000000000006,38.400000000000006,0,0,0,641.751913913168,-274.43015008858595 L488.6968110439898,-407.4789211678608" stroke-width="1" stroke="black" fill="hsl(45, 25%, 46%)" />
<path d="M230.49530979940408,-300.0 A169.50469020059592,176.56738562562077,0,0,0,569.5046902005959,-300.0 A169.50469020059592,176.56738562562077,0,0,0,230.49530979940408,-300.0" stroke-width="1" stroke="black" fill="hsl(45, 25%, 46%)" />
<path d="M331.625,-344.1418464064052 A9.375,12.5,0,0,0,350.375,-344.1418464064052 A9.375,12.5,0,0,0,331.625,-344.1418464064052" stroke-width="1" stroke="black" fill="black" />
<path d="M449.625,-344.1418464064052 A9.375,12.5,0,0,0,468.375,-344.1418464064052 A9.375,12.5,0,0,0,449.625,-344.1418464064052" stroke-width="1" stroke="black" fill="black" />
<path d="M382.9,-305.7 L417.1,-305.7 L400.0,-282.9 Z" stroke-width="1" stroke="black" fill="black" />
<path d="M400.0,-282.9 L400.0,-257.25" stroke-width="2" stroke="black" fill="black" />
<path d="M365.8,-253.25 A34.2,34.2,30,0,0,400.0,-257.25 A34.2,34.2,150,0,0,434.2,-253.25" fill="none" stroke-width="2" stroke="black" />
<path d="M366.0,-272.9 L340.8859285164842,-266.1707048273344" stroke-width="1" stroke="black" fill="black" />
<path d="M360.0,-278.9 L334.09893784961463,-276.63395068856084" stroke-width="1" stroke="black" fill="black" />
<path d="M366.0,-284.9 L340.09893784961463,-287.1660493114391" stroke-width="1" stroke="black" fill="black" />
<path d="M434.0,-272.9 L459.1140714835158,-266.1707048273344" stroke-width="1" stroke="black" fill="black" />
<path d="M440.0,-278.9 L465.90106215038537,-276.63395068856084" stroke-width="1" stroke="black" fill="black" />
<path d="M434.0,-284.9 L459.90106215038537,-287.1660493114391" stroke-width="1" stroke="black" fill="black" />
</g>
</svg>